<svg xmlns="http://www.w3.org/2000/svg" width="63.544" height="38" viewBox="0 0 63.544 38">
  <g id="Layer_2" data-name="Layer 2" transform="translate(0.002 0.003)">
    <g id="Layer_1" data-name="Layer 1" transform="translate(-0.002 -0.004)">
      <g id="Group_2609" data-name="Group 2609">
        <path id="Path_2321" data-name="Path 2321" d="M27.686,13.8a6.4,6.4,0,0,0,.232,1.881,11.313,11.313,0,0,0,.67,1.522.919.919,0,0,1,.148.486.845.845,0,0,1-.4.634L27,19.208a1.012,1.012,0,0,1-.549.19.972.972,0,0,1-.634-.3,6.539,6.539,0,0,1-.761-.993c-.211-.359-.423-.761-.655-1.247a7.807,7.807,0,0,1-6.213,2.917,5.791,5.791,0,0,1-4.227-1.522A5.429,5.429,0,0,1,12.4,14.2a5.44,5.44,0,0,1,1.923-4.354A7.688,7.688,0,0,1,19.5,8.2a16.734,16.734,0,0,1,2.24.169c.782.106,1.585.275,2.43.465V7.288a4.683,4.683,0,0,0-.993-3.381,4.83,4.83,0,0,0-3.445-.972,9.617,9.617,0,0,0-2.283.275,16.839,16.839,0,0,0-2.282.718,6.063,6.063,0,0,1-.74.275,1.3,1.3,0,0,1-.338.063c-.3,0-.444-.211-.444-.655V2.575a1.338,1.338,0,0,1,.148-.74,1.583,1.583,0,0,1,.592-.444A12.167,12.167,0,0,1,17.049.441a12.814,12.814,0,0,1,3.3-.4c2.515,0,4.354.571,5.537,1.712s1.754,2.874,1.754,5.2V13.8Zm-8.58,3.212a6.85,6.85,0,0,0,2.177-.38,4.709,4.709,0,0,0,2.008-1.353,3.354,3.354,0,0,0,.719-1.353,7.587,7.587,0,0,0,.211-1.839V11.2a17.649,17.649,0,0,0-1.944-.359,15.925,15.925,0,0,0-1.987-.127,4.872,4.872,0,0,0-3.149.845,2.946,2.946,0,0,0-1.036,2.43,2.95,2.95,0,0,0,.782,2.24A3.048,3.048,0,0,0,19.106,17.01Zm16.971,2.282a1.179,1.179,0,0,1-.8-.211,1.722,1.722,0,0,1-.444-.824L29.857,1.92a3.7,3.7,0,0,1-.19-.845.463.463,0,0,1,.507-.528h2.071a1.172,1.172,0,0,1,.824.211,2.088,2.088,0,0,1,.423.824l3.551,13.991,3.3-13.991a1.482,1.482,0,0,1,.4-.824,1.454,1.454,0,0,1,.845-.211h1.691a1.272,1.272,0,0,1,.845.211,1.424,1.424,0,0,1,.4.824l3.339,14.16,3.656-14.16a1.813,1.813,0,0,1,.423-.824,1.378,1.378,0,0,1,.824-.211h1.965a.469.469,0,0,1,.528.528,2.113,2.113,0,0,1-.042.338,3.007,3.007,0,0,1-.148.528L49.976,18.278a1.62,1.62,0,0,1-.444.824,1.353,1.353,0,0,1-.8.211H46.912a1.272,1.272,0,0,1-.845-.211,1.5,1.5,0,0,1-.4-.845L42.389,4.625l-3.255,13.61a1.651,1.651,0,0,1-.4.845,1.31,1.31,0,0,1-.845.211Zm27.157.571a13.984,13.984,0,0,1-3.255-.38,9.614,9.614,0,0,1-2.43-.845,1.524,1.524,0,0,1-.655-.592,1.492,1.492,0,0,1-.127-.592V16.376c0-.444.169-.655.486-.655a1.2,1.2,0,0,1,.38.063c.127.042.317.127.528.211a11.5,11.5,0,0,0,2.325.74A12.691,12.691,0,0,0,63,16.989a5.7,5.7,0,0,0,3.086-.7,2.276,2.276,0,0,0,1.1-2.008,2.058,2.058,0,0,0-.571-1.479,5.3,5.3,0,0,0-2.135-1.1l-3.064-.951A6.446,6.446,0,0,1,58.035,8.6a5.036,5.036,0,0,1-1.057-3.064,4.7,4.7,0,0,1,.564-2.346,5.434,5.434,0,0,1,1.522-1.733,6.708,6.708,0,0,1,2.2-1.1A9.21,9.21,0,0,1,63.931,0a10.609,10.609,0,0,1,1.416.085c.486.063.93.148,1.374.232a9.027,9.027,0,0,1,1.2.338,4.611,4.611,0,0,1,.888.38,1.828,1.828,0,0,1,.634.528,1.139,1.139,0,0,1,.19.7v.993c0,.444-.169.676-.486.676a2.2,2.2,0,0,1-.8-.254A9.669,9.669,0,0,0,64.29,2.85a5.455,5.455,0,0,0-2.811.592,2.041,2.041,0,0,0-.993,1.881,2,2,0,0,0,.634,1.5,6.313,6.313,0,0,0,2.325,1.162l3,.951a6.428,6.428,0,0,1,3.276,2.029,4.783,4.783,0,0,1,.972,2.959,5.434,5.434,0,0,1-.549,2.452,5.683,5.683,0,0,1-1.543,1.86,6.811,6.811,0,0,1-2.346,1.184A10.049,10.049,0,0,1,63.234,19.863Z" transform="translate(-9.779 0.004)" fill="#252f3e"/>
        <path id="Path_2322" data-name="Path 2322" d="M57.447,118.54c-6.953,5.136-17.055,7.862-25.741,7.862A46.569,46.569,0,0,1,.279,114.419c-.655-.592-.063-1.395.719-.93a63.378,63.378,0,0,0,31.447,8.348,62.755,62.755,0,0,0,23.981-4.9C57.6,116.405,58.588,117.694,57.447,118.54Zm2.9-3.3c-.888-1.141-5.875-.549-8.137-.275-.676.085-.782-.507-.169-.951,3.973-2.79,10.5-1.987,11.264-1.057s-.211,7.481-3.931,10.609c-.571.486-1.12.232-.866-.4.845-2.092,2.726-6.805,1.839-7.925Z" transform="translate(0.002 -88.402)" fill="#f90"/>
      </g>
    </g>
  </g>
</svg>
