<svg xmlns="http://www.w3.org/2000/svg" width="52.48" height="52.483" viewBox="0 0 52.48 52.483">
  <path id="Path_7239" data-name="Path 7239" d="M23.065,52.362A26.375,26.375,0,0,1,9.234,46.321a34.5,34.5,0,0,1-3.072-3.072A26.376,26.376,0,0,1,.121,29.418a41.733,41.733,0,0,1,0-6.351A26.376,26.376,0,0,1,6.162,9.236,34.5,34.5,0,0,1,9.234,6.164,26.425,26.425,0,0,1,23.3.1c.355-.032.749-.077.871-.09s1.188-.019,2.356-.006A25.621,25.621,0,0,1,29.454.13,26.4,26.4,0,0,1,43.247,6.164a34.5,34.5,0,0,1,3.072,3.072A26.376,26.376,0,0,1,52.36,23.067a41.733,41.733,0,0,1,0,6.351,26.376,26.376,0,0,1-6.041,13.831,34.5,34.5,0,0,1-3.072,3.072,26.375,26.375,0,0,1-13.831,6.041,30.523,30.523,0,0,1-3.175.121A30.523,30.523,0,0,1,23.065,52.362ZM27.493,31.47a6.732,6.732,0,0,1-2.336,1.168c-.639.219-.787.29-.755.374a23.349,23.349,0,0,1,.574,3.588,82.673,82.673,0,0,1,.1,10.649c-.039.742-.077,1.691-.077,2.1l-.013.742,1.549-.006a21.267,21.267,0,0,0,5.68-.7A21.59,21.59,0,0,0,36.7,47.812c1-.484.916-.329.845-1.465-.039-.536-.084-1.407-.1-1.936-.071-1.827-.4-6.286-.652-8.745-.555-5.486-.994-7.532-2.123-9.842a13,13,0,0,0-2.943-4,7.6,7.6,0,0,0-2.1-1.575,12.606,12.606,0,0,0-3.989-1.271,14.455,14.455,0,0,0-4.324.058c-3.892.736-7.687,2.833-9.526,5.254a6.883,6.883,0,0,0-1.026,2.11,5.811,5.811,0,0,0-.065,2.13,3.679,3.679,0,0,0,2.1,2.369,12.523,12.523,0,0,0,2.9,1.1,17.118,17.118,0,0,0,4.2.174A24.393,24.393,0,0,0,25.9,30.56a2.962,2.962,0,0,1,.742-.252C27.273,30.308,27.77,30.993,27.493,31.47ZM16.2,46.934c.077.736.129.981.207,1.039.265.2.284.129.239-.839-.026-.5-.065-1.033-.084-1.175-.039-.232-.065-.258-.252-.278-.039,0-.072-.009-.1-.009C16.068,45.673,16.09,45.81,16.2,46.934ZM13.294,42.8c.052.458.11,1.142.136,1.517s.084.981.129,1.355a4.48,4.48,0,0,1,.065.716c-.032.039.116.187.284.284.11.065.09-.271-.155-2.743-.084-.9-.161-1.775-.161-1.943a.675.675,0,0,0-.077-.368.3.3,0,0,0-.194-.077C13.178,41.538,13.171,41.667,13.294,42.8ZM39.387,37.9c-.052.045.013,8.222.058,8.274.019.019.077-.026.142-.1.1-.116.11-.407.077-4.156-.026-3.576-.045-4.034-.129-4.053l-.03,0A.182.182,0,0,0,39.387,37.9ZM18.2,39.551c.174,2.207.316,3.64.361,3.685.026.032.116.039.194.013.142-.045.142-.065.1-.671-.065-.9-.226-2.82-.271-3.221h0c-.032-.323-.045-.336-.232-.336h-.2ZM8.169,35.026c0,.077.1.9.219,1.826.213,1.639.49,4.318.49,4.724a.334.334,0,0,0,.168.316l.161.1-.032-.278c-.019-.155-.11-.975-.2-1.826-.3-2.82-.549-4.886-.587-4.944a.112.112,0,0,0-.1-.059A.128.128,0,0,0,8.169,35.026Zm37.181.168-.239.245L45.1,38.208c-.019,3.02-.039,2.917.329,2.375l.161-.239.045-2.7c.019-1.478.019-2.691,0-2.691A1.274,1.274,0,0,0,45.351,35.194ZM20.232,33.632c-.019.013.019.6.077,1.3s.161,1.9.213,2.665c.142,1.839.155,1.936.278,1.936s.1-.329-.077-2.937c-.052-.71-.11-1.626-.129-2.033s-.058-.794-.071-.858a.212.212,0,0,0-.194-.113A.127.127,0,0,0,20.232,33.632ZM5.278,27.914c-.084.052-.09.006.916,6.964.155,1.078.3,1.975.323,1.994.155.161.129-.219-.219-2.885-.232-1.723-.684-5.234-.742-5.763-.032-.255-.07-.362-.151-.362A.25.25,0,0,0,5.278,27.914ZM47.99,24.835c-.006,1.22-.019,2.62-.032,3.117s-.045,2.633-.058,4.744c-.039,4.221-.058,4.027.342,3.066.245-.587.252-.787.3-7.6l.045-5.344-.232-.1a1.47,1.47,0,0,0-.3-.1A13.88,13.88,0,0,0,47.99,24.835Zm-32.405,9.8c-.058-.7-.1-.955-.174-1.02a.526.526,0,0,0-.252-.077c-.174,0-.174-.013-.084,1.142.09,1.136.084,1.117.355,1.117S15.682,35.891,15.585,34.633ZM9.751,30.857c.019.174.09.839.161,1.478a7.7,7.7,0,0,0,.181,1.213c.1.1.336-.065.336-.245,0-.213-.187-1.962-.226-2.123a1.409,1.409,0,0,0-.265-.387l-.226-.258Zm-4.2-16.574a15.317,15.317,0,0,0,.168,1.743c.11.884.284,2.252.387,3.053s.29,2.252.42,3.227.3,2.323.387,3c.432,3.363.626,4.86.742,5.744.071.529.129,1.02.129,1.078,0,.136.065.148.219.032.1-.077.1-.129.013-.884-.052-.445-.142-1.226-.194-1.743s-.361-3.272-.684-6.131-.7-6.241-.839-7.512-.271-2.33-.284-2.349l0,0A2.526,2.526,0,0,0,5.549,14.283ZM42.143,9.146c.019.51.052,4.718.077,9.352.032,7.648.045,8.429.142,8.5a.422.422,0,0,0,.226.084c.116,0,.116-.232.1-9.184-.019-7.8-.032-9.21-.11-9.3a1.991,1.991,0,0,0-.284-.245L42.1,8.216ZM9.221,23.88c-.245.155-.245.2-.123,1.233l.077.645.207-.439a1.428,1.428,0,0,0,.161-.987,2.478,2.478,0,0,0-.077-.568l-.009,0A.659.659,0,0,0,9.221,23.88ZM3.916,17.7l-.148.439.458,3.162c.258,1.736.5,3.395.536,3.679a2.565,2.565,0,0,0,.116.568c.026.026.1,0,.181-.065l.136-.116-.123-.9c-.071-.5-.226-1.691-.349-2.646s-.3-2.375-.4-3.15a12.229,12.229,0,0,0-.226-1.4A1.624,1.624,0,0,0,3.916,17.7Zm41.234,4.563c0,2.846.013,3.195.1,3.227.142.052.478.045.484-.013.032-.168.071-4.2.058-5.957,0-.219-.026-.245-.258-.342a1.626,1.626,0,0,0-.323-.1C45.176,19.078,45.151,20.227,45.151,22.267ZM39.265,21.06c.026,3.666.019,3.569.413,3.569h.181v-3.35c0-2.962-.013-3.363-.1-3.453a.475.475,0,0,0-.3-.1h-.206ZM10.59,12.831l-.252.232.181,1.859c.1,1.026.29,2.956.426,4.285s.265,2.646.29,2.93l.045.51.245-.252.252-.252-.219-2.388c-.123-1.317-.31-3.408-.426-4.647s-.219-2.317-.245-2.382c-.019-.048-.034-.075-.062-.075S10.722,12.706,10.59,12.831Zm25.784,7.932.232.1a.668.668,0,0,0,.258.071c.032-.026.026-8.771-.006-10.2a3.245,3.245,0,0,0-.071-.813h0a.672.672,0,0,0-.232-.1l-.181-.039ZM24.324,2.3c-.1.006-.265.026-.361.039l-.181.026L23.82,3.8c.039,1.3.42,10.217.536,12.514a7.427,7.427,0,0,0,.09.994,1.056,1.056,0,0,0,.336.071l.29.032-.032-.471c-.032-.471-.245-5.757-.316-7.771-.019-.568-.065-1.659-.1-2.42C24.55,5.2,24.5,3.557,24.5,2.8V2.3ZM7.588,11.385c0,.258.645,5.97.678,6,.052.052.549-.194.549-.271,0-.039-.09-.942-.2-2.007s-.245-2.5-.316-3.182-.129-1.265-.148-1.278a.017.017,0,0,0-.013-.005A1.708,1.708,0,0,0,7.588,11.385Zm7.79-6.531c-.168.09-.174.116-.142.4.019.168.148,1.71.29,3.434.245,2.93.594,6.983.684,7.822a.991.991,0,0,0,.077.374,1.1,1.1,0,0,0,.258-.129c.207-.129.213-.142.181-.471-.019-.181-.142-1.626-.265-3.208-.374-4.653-.678-8.209-.716-8.268a.1.1,0,0,0-.095-.052A.666.666,0,0,0,15.378,4.854Zm17.787,9.074c.026.794.045,1.691.045,2v.555l.2.071c.349.123.42.026.407-.555,0-.277-.013-1.129-.019-1.891l-.006-1.394-.187-.11a.857.857,0,0,0-.329-.11h-.148Zm-14.3-3.943a1.441,1.441,0,0,0-.523.174c-.032.052.194,3.227.258,3.608.026.194.052.213.245.213.368,0,.381-.071.3-1.207-.039-.562-.084-1.284-.1-1.6s-.052-.716-.071-.891-.069-.3-.107-.3ZM27.015,8.5c0,.465.194,5.247.213,5.26a2.884,2.884,0,0,0,.323.045l.3.045-.006-.955c-.006-1.588-.1-4.718-.136-4.757a1.492,1.492,0,0,0-.368-.077l-.329-.039ZM21.387,6.112a1.371,1.371,0,0,0-.4.071c-.174.065-.181.077-.142.4.019.181.084,1.026.136,1.878s.129,1.968.161,2.485.071,1.078.084,1.259c.013.323.013.323.226.316.432-.026.419.013.374-1.11-.026-.555-.084-1.839-.136-2.853s-.1-1.975-.1-2.149c0-.265,0-.3-.137-.3ZM29.958,2.6c-.039.1.006,3.976.058,5.118.013.374.045,1.523.071,2.562l.045,1.878.3.026a.966.966,0,0,0,.349,0,1.008,1.008,0,0,0,.019-.458c-.019-.232-.052-2.369-.077-4.75s-.039-4.324-.045-4.331-.161-.039-.349-.077a1.651,1.651,0,0,0-.245-.029C30,2.541,29.973,2.56,29.958,2.6Zm9.249,4.679c-.013.045-.019,1.046-.006,2.227l.019,2.143.271.129.271.136.019-1.407c.013-.768,0-1.788-.019-2.259l-.045-.865-.219-.09a.955.955,0,0,0-.238-.084C39.225,7.21,39.219,7.234,39.206,7.281Zm-6.125.645c0,1.039.019,1.956.039,2.033a.913.913,0,0,0,.607.342,32.613,32.613,0,0,0,.026-3.73c-.039-.368-.058-.4-.239-.465a1.069,1.069,0,0,0-.262-.076C33.067,6.03,33.082,6.357,33.082,7.926ZM18.638,24.371a.99.99,0,0,1,0-1.678.954.954,0,0,1,1.407.826.976.976,0,0,1-.957.978A.87.87,0,0,1,18.638,24.371ZM14.172,23.6a.84.84,0,0,1,.09-1.523.856.856,0,0,1,1.071,1.246.784.784,0,0,1-.69.4A1.047,1.047,0,0,1,14.172,23.6Z" transform="translate(0)" fill="#222"/>
</svg>
