<svg xmlns="http://www.w3.org/2000/svg" xmlns:xlink="http://www.w3.org/1999/xlink" width="67.935" height="37.692" viewBox="0 0 67.935 37.692">
  <defs>
    <clipPath id="clip-path">
      <path id="Path_2256" data-name="Path 2256" d="M1.9-33.079c0,9.344,14.6,16.919,32.609,16.919s32.609-7.575,32.609-16.919S52.517-50,34.508-50,1.9-42.424,1.9-33.079" transform="translate(-1.899 49.999)"/>
    </clipPath>
    <radialGradient id="radial-gradient" cx="0.628" cy="0.8" r="1.248" gradientTransform="translate(-0.009 0.511) scale(0.526 1)" gradientUnits="objectBoundingBox">
      <stop offset="0" stop-color="#aeb2d5"/>
      <stop offset="0.3" stop-color="#aeb2d5"/>
      <stop offset="0.75" stop-color="#484c89"/>
      <stop offset="1" stop-color="#484c89"/>
    </radialGradient>
    <clipPath id="clip-path-2">
      <path id="Path_2258" data-name="Path 2258" d="M0-52.692H67.935V-15H0Z" transform="translate(0 52.692)"/>
    </clipPath>
  </defs>
  <g id="php-ar21" transform="translate(0 52.692)">
    <g id="Group_2585" data-name="Group 2585" transform="translate(1.359 -50.766)" clip-path="url(#clip-path)">
      <path id="Path_2255" data-name="Path 2255" d="M1.9-33.079c0,9.344,14.6,16.919,32.609,16.919s32.609-7.575,32.609-16.919S52.517-50,34.508-50,1.9-42.424,1.9-33.079" transform="translate(-1.899 49.999)" fill="url(#radial-gradient)"/>
    </g>
    <g id="Group_2586" data-name="Group 2586" transform="translate(0 -52.692)" clip-path="url(#clip-path-2)">
      <path id="Path_2257" data-name="Path 2257" d="M35.015-16.916c17.306,0,31.335-7.013,31.335-15.663S52.321-48.243,35.015-48.243,3.68-41.23,3.68-32.579,17.709-16.916,35.015-16.916" transform="translate(-1.048 51.425)" fill="#777bb3"/>
    </g>
    <g id="Group_2587" data-name="Group 2587" transform="translate(0 -52.692)" clip-path="url(#clip-path-2)">
      <path id="Path_2259" data-name="Path 2259" d="M23.566-27.52a5.256,5.256,0,0,0,3.157-.769,4.145,4.145,0,0,0,1.365-2.6,2.767,2.767,0,0,0-.254-2.367,3.6,3.6,0,0,0-2.582-.662H22.978l-1.261,6.4h1.849Zm-7.438,7.882a.355.355,0,0,1-.273-.127.346.346,0,0,1-.074-.289L19.122-37.01a.353.353,0,0,1,.347-.282h7.2c2.263,0,3.948.6,5.006,1.8a5.568,5.568,0,0,1,.977,4.993,7.906,7.906,0,0,1-.866,2.374,7.974,7.974,0,0,1-1.593,1.97,7.011,7.011,0,0,1-2.623,1.55,12.033,12.033,0,0,1-3.6.457H21.053l-.833,4.225a.353.353,0,0,1-.347.282H16.128Z" transform="translate(-4.491 48.308)"/>
      <path id="Path_2260" data-name="Path 2260" d="M23.129-33.708h1.982c1.583,0,2.133.343,2.32.547.31.339.368,1.054.169,2.067a3.821,3.821,0,0,1-1.233,2.39,4.93,4.93,0,0,1-2.941.7h-1.42l1.123-5.7Zm3.4-4.072h-7.2a.705.705,0,0,0-.695.565L15.293-20.26a.691.691,0,0,0,.149.577.712.712,0,0,0,.546.254h3.745a.705.705,0,0,0,.695-.565l.777-3.943h2.624a12.385,12.385,0,0,0,3.713-.474A7.365,7.365,0,0,0,30.3-26.037a8.3,8.3,0,0,0,1.661-2.054,8.281,8.281,0,0,0,.9-2.478A5.891,5.891,0,0,0,31.8-35.859c-1.129-1.275-2.9-1.921-5.273-1.921M21.148-27.31h2.278a5.556,5.556,0,0,0,3.373-.842,4.453,4.453,0,0,0,1.5-2.81,3.045,3.045,0,0,0-.338-2.668,3.866,3.866,0,0,0-2.845-.777H22.546l-1.4,7.1m5.382-9.772q3.249,0,4.74,1.682a5.223,5.223,0,0,1,.9,4.7,7.527,7.527,0,0,1-.827,2.271,7.587,7.587,0,0,1-1.524,1.883,6.636,6.636,0,0,1-2.492,1.475,11.627,11.627,0,0,1-3.493.44H20.621l-.888,4.508H15.988l3.341-16.956h7.2" transform="translate(-4.35 48.447)" fill="#fff"/>
      <path id="Path_2261" data-name="Path 2261" d="M47.584-25.941a.355.355,0,0,1-.273-.127.345.345,0,0,1-.074-.289l1.478-7.5c.141-.713.106-1.226-.1-1.442-.125-.132-.5-.354-1.6-.354H44.334l-1.858,9.431a.353.353,0,0,1-.347.282H38.414a.356.356,0,0,1-.273-.127.346.346,0,0,1-.074-.289l3.341-16.956a.353.353,0,0,1,.347-.282H45.47a.356.356,0,0,1,.273.127.346.346,0,0,1,.074.289l-.806,4.092h2.88c2.194,0,3.682.382,4.549,1.167.885.8,1.159,2.081.819,3.806l-1.554,7.89a.353.353,0,0,1-.347.282H47.584Z" transform="translate(-10.835 50.102)"/>
      <path id="Path_2262" data-name="Path 2262" d="M45.329-44.082H41.614a.705.705,0,0,0-.695.565L37.578-26.562a.691.691,0,0,0,.149.577.712.712,0,0,0,.546.254h3.715a.705.705,0,0,0,.695-.565l1.8-9.149h2.386c1.1,0,1.336.233,1.345.243.067.071.155.4.01,1.138l-1.478,7.5a.691.691,0,0,0,.149.577.712.712,0,0,0,.546.254h3.774a.705.705,0,0,0,.695-.565l1.554-7.89c.365-1.852.053-3.242-.927-4.13-.935-.847-2.5-1.259-4.788-1.259H45.3l.725-3.677a.691.691,0,0,0-.149-.577.712.712,0,0,0-.546-.254m0,.7-.888,4.508h3.31q3.124,0,4.31,1.075t.711,3.483l-1.554,7.89H47.443l1.478-7.5q.252-1.28-.186-1.746a2.636,2.636,0,0,0-1.864-.466H43.9l-1.914,9.714H38.273l3.341-16.956h3.715" transform="translate(-10.694 50.241)" fill="#fff"/>
      <path id="Path_2263" data-name="Path 2263" d="M64.426-27.52a5.256,5.256,0,0,0,3.157-.769,4.145,4.145,0,0,0,1.365-2.6,2.767,2.767,0,0,0-.254-2.367,3.6,3.6,0,0,0-2.582-.662H63.838l-1.261,6.4h1.849Zm-7.438,7.882a.355.355,0,0,1-.273-.127.346.346,0,0,1-.074-.289L59.982-37.01a.353.353,0,0,1,.347-.282h7.2c2.263,0,3.948.6,5.006,1.8a5.569,5.569,0,0,1,.977,4.993,7.909,7.909,0,0,1-.866,2.374,7.974,7.974,0,0,1-1.593,1.97,7.011,7.011,0,0,1-2.623,1.55,12.032,12.032,0,0,1-3.6.457H61.912l-.832,4.225a.353.353,0,0,1-.347.282H56.988Z" transform="translate(-16.122 48.308)"/>
      <path id="Path_2264" data-name="Path 2264" d="M63.989-33.708h1.982c1.583,0,2.133.343,2.32.547.31.339.369,1.054.169,2.067a3.822,3.822,0,0,1-1.233,2.39,4.93,4.93,0,0,1-2.941.7H62.866l1.123-5.7Zm3.4-4.072h-7.2a.705.705,0,0,0-.695.565L56.153-20.26a.691.691,0,0,0,.149.577.712.712,0,0,0,.546.254h3.745a.705.705,0,0,0,.695-.565l.777-3.943h2.624a12.385,12.385,0,0,0,3.713-.474,7.365,7.365,0,0,0,2.755-1.627,8.316,8.316,0,0,0,1.66-2.054,8.249,8.249,0,0,0,.9-2.478,5.892,5.892,0,0,0-1.058-5.289c-1.129-1.275-2.9-1.921-5.273-1.921M62.008-27.31h2.278a5.556,5.556,0,0,0,3.373-.842,4.453,4.453,0,0,0,1.5-2.81,3.044,3.044,0,0,0-.338-2.668,3.866,3.866,0,0,0-2.845-.777H63.406l-1.4,7.1m5.382-9.772q3.249,0,4.74,1.682a5.223,5.223,0,0,1,.9,4.7,7.527,7.527,0,0,1-.827,2.271,7.587,7.587,0,0,1-1.524,1.883,6.636,6.636,0,0,1-2.492,1.475,11.627,11.627,0,0,1-3.493.44H61.481l-.888,4.508H56.848l3.341-16.956h7.2" transform="translate(-15.982 48.447)" fill="#fff"/>
    </g>
  </g>
</svg>
