<svg xmlns="http://www.w3.org/2000/svg" width="56.134" height="50.025" viewBox="0 0 56.134 50.025">
  <g id="reactjs-icon" transform="translate(0.648 0.773)">
    <circle id="Ellipse_139" data-name="Ellipse 139" cx="5.109" cy="5.109" r="5.109" transform="translate(22.31 19.081)" fill="#00d8ff"/>
    <g id="Group_2588" data-name="Group 2588" transform="translate(0.035 0.011)">
      <path id="Path_2269" data-name="Path 2269" d="M27.419,7.725a57.318,57.318,0,0,1,18.035,2.638c5.789,1.993,9.348,5.014,9.348,7.749,0,2.85-3.772,6.059-9.988,8.119A57.554,57.554,0,0,1,27.419,28.6c-6.676,0-13-.763-17.749-2.387C3.657,24.159.035,20.908.035,18.112c0-2.713,3.4-5.71,9.105-7.7A57.819,57.819,0,0,1,27.418,7.725Z" transform="translate(-0.035 6.066)" fill="none" stroke="#00d8ff" stroke-width="1.367" fill-rule="evenodd"/>
      <path id="Path_2270" data-name="Path 2270" d="M13.506,19.026A57.319,57.319,0,0,1,24.8,4.72C29.419.7,33.814-.872,36.183.494c2.469,1.424,3.365,6.295,2.043,12.708A57.522,57.522,0,0,1,31.59,29.455c-3.335,5.783-7.154,10.878-10.935,14.182-4.784,4.182-9.409,5.7-11.831,4.3C6.474,46.581,5.575,42.14,6.7,36.2a57.841,57.841,0,0,1,6.8-17.176Z" transform="translate(4.836 -0.011)" fill="none" stroke="#00d8ff" stroke-width="1.367" fill-rule="evenodd"/>
      <path id="Path_2271" data-name="Path 2271" d="M13.508,29.445a57.335,57.335,0,0,1-6.753-16.93C5.58,6.507,6.411,1.913,8.778.543,11.245-.885,15.912.772,20.809,5.12A57.551,57.551,0,0,1,31.575,18.986c3.345,5.777,5.851,11.63,6.826,16.556,1.234,6.233.235,11-2.185,12.4-2.348,1.359-6.645-.08-11.226-4.022A57.823,57.823,0,0,1,13.508,29.445Z" transform="translate(4.842 0.013)" fill="none" stroke="#00d8ff" stroke-width="1.367" fill-rule="evenodd"/>
    </g>
  </g>
</svg>
