<svg xmlns="http://www.w3.org/2000/svg" width="41.716" height="37.437" viewBox="0 0 41.716 37.437">
  <g id="swift-icon" transform="translate(0 -3.282)">
    <path id="Path_2306" data-name="Path 2306" d="M41.669,12.62a11.674,11.674,0,0,0-.264-2.464,8.021,8.021,0,0,0-2.477-4.367,7.854,7.854,0,0,0-2.247-1.472,9.276,9.276,0,0,0-2.568-.8c-.883-.163-1.858-.163-2.739-.24H9.572a16.1,16.1,0,0,0-2.029.164,7.747,7.747,0,0,0-1.955.48l-.619.24A11.387,11.387,0,0,0,3.283,5.2c-.172.163-.355.24-.528.392A7.111,7.111,0,0,0,1.139,7.577,7.384,7.384,0,0,0,.264,9.971,23.3,23.3,0,0,0,0,12.423v19a11.674,11.674,0,0,0,.264,2.464,8.021,8.021,0,0,0,2.477,4.367,7.861,7.861,0,0,0,2.212,1.428,9.276,9.276,0,0,0,2.568.8c.883.163,1.858.163,2.739.24H31.421a15.962,15.962,0,0,0,2.739-.24,9.509,9.509,0,0,0,2.522-.785,10.129,10.129,0,0,0,2.292-1.428,7.923,7.923,0,0,0,2.476-4.372,23.3,23.3,0,0,0,.264-2.464v-18.8Z" transform="translate(0 0)" fill="#f05138"/>
    <path id="Path_2307" data-name="Path 2307" d="M30.042,35.063c-3.714,1.929-8.815,2.125-13.939.153A21.333,21.333,0,0,1,6.28,27.65a17.034,17.034,0,0,0,3.634,1.962c5.3,2.18,10.6,2.082,14.329,0a72.287,72.287,0,0,1-13.182-12.3A13.8,13.8,0,0,1,9.3,15.135a101.75,101.75,0,0,0,12.816,8.721,86.8,86.8,0,0,1-9.021-10.171,88.441,88.441,0,0,0,14.9,10.967l.574.305a9.9,9.9,0,0,0,.4-1.09C30.2,19.811,28.794,15.2,25.7,11.385c7.164,3.891,11.406,11.206,9.64,17.333a1.579,1.579,0,0,1-.15.491l.057.065c3.542,3.979,2.568,8.186,2.121,7.391-1.937-3.324-5.525-2.3-7.325-1.6Z" transform="translate(-2.187 -2.822)" fill="#fefefe"/>
  </g>
</svg>
