<svg xmlns="http://www.w3.org/2000/svg" width="38" height="38" viewBox="0 0 38 38">
  <path id="wordpress-icon" d="M2.684,19a16.221,16.221,0,0,0,9.144,14.663L4.13,12.392A16.538,16.538,0,0,0,2.684,19Zm27.33-.826A8.391,8.391,0,0,0,28.637,13.7c-.826-1.377-1.583-2.478-1.583-3.855a2.837,2.837,0,0,1,2.755-2.892h.207A16.061,16.061,0,0,0,19,2.684,16.566,16.566,0,0,0,5.37,10.05H6.4c1.722,0,4.337-.207,4.337-.207a.694.694,0,0,1,.138,1.377,13.849,13.849,0,0,1-1.858.138L14.94,28.981,18.519,18.31l-2.547-6.953-1.722-.135a.691.691,0,0,1,.069-1.377s2.684.207,4.268.207c1.722,0,4.337-.207,4.337-.207a.694.694,0,0,1,.138,1.377,13.849,13.849,0,0,1-1.858.138l5.92,17.556,1.662-5.439a20.191,20.191,0,0,0,1.239-5.3ZM19.275,20.445,14.388,34.627A16.966,16.966,0,0,0,19,35.316a18.015,18.015,0,0,0,5.439-.9c-.069-.069-.069-.138-.138-.207Zm14.043-9.223.138,1.663a14.855,14.855,0,0,1-1.239,5.852L27.261,33.124a16.345,16.345,0,0,0,8.122-14.112,17.424,17.424,0,0,0-2.066-7.778ZM19,0A19,19,0,1,0,38,19,19.037,19.037,0,0,0,19,0Zm0,37.174A18.139,18.139,0,1,1,37.1,19,18.141,18.141,0,0,1,19,37.174Z" fill="#00749a"/>
</svg>
