<svg width="119" height="40" viewBox="0 0 119 40" fill="none" xmlns="http://www.w3.org/2000/svg">
<mask id="mask0_8_22817" style="mask-type:alpha" maskUnits="userSpaceOnUse" x="8" y="8" width="103" height="24">
<g clip-path="url(#clip0_8_22817)">
<path d="M15.0329 8.87056L8.71423 26.7724H11.4575L13.2892 21.5044H20.1576L21.9925 26.7735H24.8238L18.5062 8.87056H15.0329ZM14.1514 19.0237L16.7314 11.6L19.2986 19.0237H14.1514ZM36.5914 15.1869C37.0069 15.9724 37.2109 16.8538 37.183 17.7451V26.7473H34.4644V18.2055C34.4644 17.2455 34.2196 16.556 33.7343 16.1218C33.1972 15.6746 32.5156 15.4463 31.8221 15.4815C31.3518 15.4815 30.8858 15.572 30.4499 15.7498C30.0033 15.9324 29.6215 16.2481 29.3547 16.6553C29.0478 17.1421 28.8984 17.7143 28.9274 18.2917V26.7822H26.1831V13.3564H28.9145V14.9546C29.0683 14.7196 29.2501 14.5049 29.4557 14.3153C29.8959 13.9149 30.408 13.6062 30.9663 13.4077C31.543 13.1943 32.1522 13.0861 32.7658 13.088C33.5408 13.0766 34.3064 13.261 34.9937 13.6247C35.6626 13.9847 36.2177 14.5324 36.5914 15.2011V15.188V15.1869ZM47.9692 11.8629C47.43 12.2083 47.0397 12.7487 46.8773 13.3749C46.2499 13.1713 45.5946 13.0707 44.936 13.0771C44.0094 13.0589 43.0914 13.2606 42.2551 13.6662C41.4971 14.0378 40.8531 14.6122 40.3922 15.3277C39.9167 16.0916 39.676 16.9822 39.7008 17.8858C39.6761 18.7695 39.908 19.6422 40.3675 20.3917C40.6005 20.7604 40.8883 21.0898 41.22 21.3702C41.1792 21.3898 41.1384 21.4051 41.0976 21.428C40.6504 21.6586 40.2689 22.0019 39.9896 22.4251C39.6835 22.8987 39.5297 23.4571 39.5494 24.0233C39.5666 24.4346 39.6739 24.8371 39.864 25.2004C40.0755 25.6149 40.404 25.9553 40.8088 26.1778C40.3856 26.2725 39.9873 26.4581 39.6406 26.7222C39.3537 26.9384 39.1234 27.2228 38.9699 27.5505C38.8164 27.8783 38.7444 28.2393 38.7602 28.6018C38.7602 29.6906 39.2842 30.5262 40.3332 31.1077C41.3822 31.6902 42.7812 31.9869 44.5334 32C46.5283 32 48.1185 31.6204 49.3038 30.8622C49.8637 30.5277 50.3243 30.0457 50.6367 29.4671C50.9491 28.8885 51.1018 28.2348 51.0786 27.5753C51.1001 27.1231 51.0246 26.6716 50.8572 26.2521C50.6897 25.8326 50.4345 25.4551 50.1091 25.1458C49.3931 24.5237 48.4699 24.2036 47.529 24.2513H46.6862C46.2921 24.2513 45.8734 24.2698 45.4267 24.2895L44.2188 24.3277H43.464C43.0592 24.3473 42.6577 24.2502 42.3055 24.0462C42.169 23.9609 42.0575 23.84 41.9823 23.6962C41.9072 23.5523 41.8713 23.3907 41.8782 23.228C41.8763 23.0629 41.9102 22.8994 41.9776 22.7491C42.045 22.5988 42.1441 22.4655 42.2679 22.3586C42.3506 22.2822 42.4397 22.2124 42.5321 22.1513C43.2468 22.4308 44.0071 22.5704 44.7728 22.5626C45.6898 22.5789 46.5981 22.3815 47.4281 21.9877C48.1889 21.62 48.834 21.0443 49.2909 20.3251C49.7615 19.5589 50.0022 18.6699 49.9834 17.7669C50.0065 16.8851 49.7791 16.0151 49.3285 15.2611C49.0912 14.8833 48.797 14.5458 48.4567 14.2607C48.5661 14.1424 48.7009 14.0513 48.8507 13.9946C49.3543 13.8004 50.1252 13.8091 51.1666 14.0327V11.4757C49.8653 11.2051 48.8002 11.3382 47.9692 11.8749V11.8629ZM47.1264 26.6829C47.5301 26.6557 47.9306 26.7833 48.2462 27.0418C48.3768 27.1625 48.4795 27.3111 48.5469 27.4769C48.6142 27.6427 48.6447 27.8216 48.636 28.0007C48.6353 28.3352 48.537 28.6619 48.3535 28.9396C48.17 29.2173 47.9096 29.4334 47.6052 29.5607C46.9159 29.9186 45.9603 30.0975 44.7353 30.0975C43.5585 30.0975 42.677 29.9251 42.0919 29.5869C41.8344 29.468 41.6152 29.2776 41.4595 29.0377C41.3038 28.7979 41.2178 28.5182 41.2114 28.2309C41.2243 27.8491 41.3725 27.4847 41.6259 27.2055C41.9029 26.8847 42.4 26.7058 43.1237 26.7058L47.1264 26.684V26.6829ZM46.7742 19.7524C46.5194 19.9969 46.2186 20.1865 45.8897 20.3097C45.5609 20.4329 45.2109 20.4871 44.8609 20.4691C44.5059 20.4892 44.1506 20.4347 43.8171 20.3092C43.4837 20.1836 43.1793 19.9896 42.9229 19.7393C42.685 19.4838 42.5001 19.1824 42.3789 18.853C42.2577 18.5236 42.2028 18.1728 42.2175 17.8215C42.1974 17.4695 42.2498 17.1172 42.3713 16.787C42.4927 16.4568 42.6806 16.156 42.9229 15.9037C43.183 15.6603 43.4886 15.4726 43.8215 15.3517C44.1544 15.2308 44.5079 15.1792 44.8609 15.2C45.211 15.1811 45.5612 15.2349 45.8902 15.3582C46.2192 15.4814 46.5199 15.6715 46.7742 15.9167C47.0136 16.1711 47.1996 16.4723 47.3207 16.802C47.4418 17.1317 47.4955 17.4831 47.4785 17.8346C47.4966 18.1882 47.4434 18.5418 47.3223 18.8738C47.2012 19.2058 47.0147 19.5092 46.7742 19.7655V19.7524ZM61.3731 13.7818C60.4718 13.3056 59.4684 13.0639 58.4527 13.0782C57.3543 13.0629 56.2707 13.3361 55.3068 13.8713C54.3352 14.4211 53.5432 15.2478 53.0284 16.2495C52.427 17.474 52.1415 18.8335 52.1984 20.2007C52.1702 21.4478 52.4198 22.6852 52.9286 23.8204C53.3825 24.8145 54.1241 25.6441 55.0545 26.1986C56.082 26.7767 57.2426 27.0637 58.4151 27.0298C59.7441 27.068 61.0514 26.6823 62.1536 25.9269C63.2001 25.1723 63.9282 24.0446 64.1926 22.7687H61.3988C61.2464 23.3415 60.8931 23.8378 60.4046 24.1618C59.838 24.5154 59.1804 24.689 58.516 24.6604C57.3392 24.6604 56.4417 24.2469 55.8232 23.42C55.2735 22.6369 54.9598 21.7083 54.9202 20.7473H64.2302C64.2463 20.4767 64.2559 20.1855 64.2559 19.8789C64.2559 18.2927 63.9907 17.0011 63.4625 16.004C63.0019 15.0699 62.2734 14.2997 61.3731 13.7949V13.7818ZM55.849 16.568C56.1527 16.1714 56.5453 15.8542 56.9941 15.643C57.4429 15.4318 57.9349 15.3326 58.429 15.3538C59.0208 15.3449 59.6038 15.4995 60.1158 15.8011C60.6408 16.1262 61.0467 16.6149 61.2743 17.1953C61.4568 17.66 61.5556 18.1531 61.5696 18.6527H55.0308C55.1275 17.9033 55.4088 17.1909 55.849 16.5811V16.568ZM66.6341 8.85747H69.3785V26.7593H66.6341V8.85747ZM75.215 24.2535H83.3235V26.7604H72.4696V8.85747H75.2139L75.215 24.2535ZM85.2357 13.3455H87.9768V26.7746H85.2357V13.3455ZM87.7535 8.48656C87.9038 8.64135 88.0221 8.82514 88.1014 9.02712C88.1807 9.22909 88.2194 9.44516 88.2152 9.66256C88.2234 9.99377 88.134 10.3199 87.9586 10.5992C87.7832 10.8785 87.5297 11.0982 87.2306 11.2302C87.0334 11.3134 86.8214 11.3543 86.6079 11.3502C86.3898 11.3564 86.1729 11.3164 85.9709 11.2328C85.7689 11.1493 85.5861 11.0239 85.4343 10.8647C85.2823 10.7058 85.1631 10.5176 85.0839 10.3111C85.0046 10.1046 84.9668 9.88411 84.9727 9.66256C84.9683 9.44513 85.0069 9.22902 85.0862 9.02701C85.1655 8.82501 85.2839 8.64124 85.4343 8.48656C85.5861 8.32739 85.7689 8.20204 85.9709 8.11847C86.1729 8.03489 86.3898 7.99493 86.6079 8.00111C86.8216 7.99655 87.0339 8.03737 87.2311 8.12097C87.4284 8.20456 87.6063 8.32908 87.7535 8.48656ZM92.6967 17.0546C92.6848 17.2429 92.7147 17.4315 92.7845 17.6064C92.8542 17.7813 92.9618 17.938 93.0994 18.0647C93.429 18.3222 93.8112 18.5011 94.2192 18.5884C94.697 18.7084 95.2467 18.8153 95.8684 18.908C96.4364 18.9909 96.999 19.1066 97.5541 19.2538C98.0931 19.3924 98.6106 19.6073 99.0895 19.8931C99.5544 20.1669 99.9409 20.5586 100.21 21.0309C100.508 21.596 100.651 22.232 100.625 22.8724C100.625 24.2033 100.151 25.2255 99.2033 25.9422C98.2552 26.6578 96.9969 27.0157 95.4271 27.0157C94.3724 27.0497 93.3234 26.8448 92.3564 26.4157C91.5949 26.0683 90.942 25.5151 90.4688 24.8164C90.052 24.1849 89.7889 23.4617 89.7012 22.7066H92.3693C92.4895 23.3175 92.8245 23.8629 93.313 24.2415C93.8166 24.6342 94.5295 24.8295 95.4529 24.8295C96.1112 24.866 96.766 24.7109 97.3404 24.3822C97.5574 24.2507 97.736 24.0629 97.8577 23.8379C97.9795 23.613 98.04 23.3592 98.033 23.1026C98.0527 22.8196 97.9793 22.5381 97.8245 22.3021C97.6696 22.0661 97.4419 21.8891 97.1772 21.7989C96.4191 21.5318 95.6341 21.3514 94.8366 21.2611C94.277 21.1872 93.722 21.0805 93.1745 20.9415C92.6408 20.812 92.1281 20.6056 91.6521 20.3284C91.1963 20.0583 90.8151 19.6756 90.544 19.2157C90.245 18.6557 90.1014 18.0237 90.1285 17.3873C90.1011 16.5488 90.3299 15.7222 90.7834 15.0211C91.2371 14.3684 91.8664 13.8624 92.5958 13.5637C93.4264 13.2201 94.3168 13.0506 95.2135 13.0651C96.0152 13.0492 96.813 13.1834 97.567 13.4611C98.1983 13.6957 98.7802 14.0513 99.2784 14.5095C99.7165 14.9109 100.075 15.3931 100.336 15.9287C100.57 16.3978 100.703 16.9127 100.726 17.4375H98.0577C97.9482 16.837 97.6421 16.2918 97.189 15.8906C96.7295 15.4651 96.0381 15.2513 95.1125 15.2513C94.4914 15.2188 93.8757 15.3843 93.3517 15.7247C93.1406 15.8711 92.9704 16.0705 92.8577 16.3036C92.745 16.5366 92.6936 16.7953 92.7086 17.0546H92.6967ZM106.717 15.7498V22.016C106.685 22.6367 106.83 23.2531 107.132 23.7942C107.409 24.2284 107.97 24.4324 108.806 24.4324C109.23 24.4281 109.652 24.3769 110.065 24.2797V26.7091C109.441 26.816 108.81 26.876 108.177 26.888C106.736 26.888 105.674 26.5007 104.993 25.724C104.311 24.9495 103.972 23.8106 103.973 22.3095V15.7378H101.482V13.3346H103.973V10.1382H106.717V13.3346H110.093V15.7378L106.717 15.7498Z" fill="#002B31"/>
</g>
</mask>
<g mask="url(#mask0_8_22817)">
<rect x="8.71423" y="8" width="102" height="24" fill="#5A6475"/>
</g>
<defs>
<clipPath id="clip0_8_22817">
<rect width="102" height="24" fill="white" transform="translate(8.71423 8)"/>
</clipPath>
</defs>
</svg>
