<svg width="148" height="40" viewBox="0 0 148 40" fill="none" xmlns="http://www.w3.org/2000/svg">
<mask id="mask0_40_1060" style="mask-type:alpha" maskUnits="userSpaceOnUse" x="8" y="8" width="132" height="24">
<g clip-path="url(#clip0_40_1060)">
<path d="M19.339 8C20.4643 8 21.503 8.08511 22.4551 8.34043C23.4072 8.51064 24.1862 8.85106 24.8787 9.2766C25.5711 9.70213 26.0905 10.2979 26.4367 11.0638C26.7829 11.8298 26.9561 12.766 26.9561 13.7872C26.9561 14.9787 26.6964 16 26.0905 16.766C25.5711 17.5319 24.7056 18.2128 23.6669 18.7234C25.1384 19.1489 26.2636 19.9149 26.9561 20.9362C27.6485 21.9574 28.0813 23.234 28.0813 24.6809C28.0813 25.8723 27.8216 26.8936 27.3889 27.7447C26.9561 28.5957 26.2636 29.3617 25.4846 29.8723C24.7056 30.383 23.7534 30.8085 22.7148 31.0638C21.6761 31.3191 20.6374 31.4894 19.5987 31.4894H8V8H19.339ZM18.6466 17.5319C19.5987 17.5319 20.3777 17.2766 20.9836 16.8511C21.5895 16.4255 21.8492 15.6596 21.8492 14.7234C21.8492 14.2128 21.7626 13.7021 21.5895 13.3617C21.4164 13.0213 21.1567 12.766 20.8105 12.5106C20.4643 12.3404 20.118 12.1702 19.6852 12.0851C19.2525 12 18.8197 12 18.3003 12H13.28V17.5319H18.6466ZM18.9062 27.5745C19.4256 27.5745 19.9449 27.4894 20.3777 27.4043C20.8105 27.3191 21.2433 27.1489 21.5895 26.8936C21.9357 26.6383 22.1954 26.383 22.4551 25.9574C22.6282 25.5319 22.8013 25.0213 22.8013 24.4255C22.8013 23.234 22.4551 22.383 21.7626 21.7872C21.0702 21.2766 20.118 21.0213 18.9928 21.0213H13.28V27.5745H18.9062ZM35.6118 27.4894C36.3043 28.1702 37.343 28.5106 38.7279 28.5106C39.68 28.5106 40.5456 28.2553 41.238 27.8298C41.9305 27.3191 42.3633 26.8085 42.5364 26.2979H46.7777C46.0852 28.3404 45.0466 29.7872 43.6616 30.7234C42.2767 31.5745 40.6321 32.0851 38.6413 32.0851C37.2564 32.0851 36.0446 31.8298 34.9193 31.4043C33.7941 30.9787 32.9285 30.383 32.1495 29.5319C31.3705 28.766 30.7646 27.8298 30.4184 26.7234C29.9856 25.617 29.8125 24.4255 29.8125 23.0638C29.8125 21.7872 29.9856 20.5957 30.4184 19.4894C30.8511 18.383 31.457 17.4468 32.2361 16.5957C33.0151 15.8298 33.9672 15.1489 35.0059 14.7234C36.1311 14.2979 37.2564 14.0426 38.6413 14.0426C40.1128 14.0426 41.4111 14.2979 42.5364 14.8936C43.6616 15.4894 44.5272 16.1702 45.2197 17.1915C45.9121 18.1277 46.4315 19.234 46.7777 20.4255C46.9508 21.617 47.0374 22.8085 46.9508 24.1702H34.4C34.4 25.5319 34.9193 26.8085 35.6118 27.4894ZM41.0649 18.5532C40.459 17.9574 39.5069 17.617 38.3816 17.617C37.6026 17.617 36.9967 17.7872 36.4774 18.0426C35.958 18.2979 35.6118 18.6383 35.2656 18.9787C34.9193 19.3191 34.7462 19.7447 34.6597 20.1702C34.5731 20.5957 34.4866 20.9362 34.4866 21.2766H42.2767C42.1036 20 41.6708 19.1489 41.0649 18.5532ZM53.7023 8V16.8511H53.7889C54.3948 15.8298 55.1738 15.1489 56.1259 14.7234C57.078 14.2979 57.9436 14.0426 58.8957 14.0426C60.1941 14.0426 61.2328 14.2128 62.0118 14.5532C62.7908 14.8936 63.4833 15.4043 63.9161 16C64.3489 16.5957 64.6951 17.3617 64.8682 18.2128C65.0413 19.0638 65.1279 20 65.1279 21.1064V31.5745H60.3672V21.9574C60.3672 20.5106 60.1075 19.4894 59.6748 18.8085C59.242 18.1277 58.463 17.7872 57.3377 17.7872C56.0393 17.7872 55.0872 18.2128 54.5679 18.8936C53.962 19.6596 53.7023 20.9362 53.7023 22.6383V31.5745H48.9416V8H53.7023ZM68.5902 17.0213C69.1095 16.2553 69.7154 15.7447 70.4944 15.234C71.2734 14.8085 72.139 14.4681 73.0911 14.2979C74.0433 14.1277 74.9954 14.0426 75.9475 14.0426C76.8131 14.0426 77.6787 14.1277 78.6308 14.2128C79.4964 14.2979 80.362 14.5532 81.0544 14.8936C81.8334 15.234 82.3528 15.7447 82.8721 16.3404C83.3049 16.9362 83.5646 17.7872 83.5646 18.8085V27.7447C83.5646 28.5106 83.6511 29.2766 83.7377 29.9574C83.8243 30.6383 84.0839 31.234 84.3436 31.5745H79.4964C79.3233 31.4043 79.2367 31.0638 79.1502 30.8085C79.0636 30.5532 79.0636 30.2128 79.0636 29.9574C78.2846 30.7234 77.419 31.234 76.3803 31.5745C75.3416 31.9149 74.3029 32 73.2643 32C72.3987 32 71.7062 31.9149 70.9272 31.6596C70.2348 31.4894 69.6289 31.1489 69.0229 30.7234C68.5036 30.2979 68.0708 29.7872 67.7246 29.1064C67.4649 28.4255 67.2918 27.7447 67.2918 26.8085C67.2918 25.8723 67.4649 25.0213 67.8111 24.4255C68.1574 23.8298 68.5902 23.3191 69.1095 22.8936C69.6288 22.5532 70.3213 22.2128 71.0138 22.0426C71.7062 21.8723 72.3987 21.7021 73.1777 21.617L75.2551 21.3617C75.9475 21.2766 76.5534 21.1915 77.0728 21.1064C77.5921 20.9362 78.0249 20.766 78.3711 20.5106C78.7174 20.2553 78.8039 19.9149 78.8039 19.4043C78.8039 18.8936 78.7174 18.4681 78.5443 18.2128C78.3711 17.9574 78.1115 17.7021 77.8518 17.5319C77.5921 17.3617 77.2459 17.2766 76.8997 17.1915C76.5534 17.1064 76.1207 17.1064 75.6879 17.1064C74.7357 17.1064 74.0433 17.2766 73.5239 17.7021C73.0046 18.1277 72.6584 18.8085 72.5718 19.6596H67.8111C67.8111 18.6383 68.1574 17.7021 68.5902 17.0213ZM78.0249 23.6596C77.7652 23.7447 77.419 23.8298 77.0728 23.9149C76.7266 24 76.3803 24 75.9475 24.0851C75.6013 24.1702 75.1685 24.1702 74.8223 24.2553L73.7836 24.5106C73.4374 24.5957 73.0911 24.766 72.918 24.9362C72.6584 25.1064 72.4852 25.3617 72.3121 25.617C72.0525 25.9574 72.0525 26.2979 72.0525 26.7234C72.0525 27.1489 72.139 27.4894 72.3121 27.7447C72.4852 28 72.6584 28.2553 72.918 28.4255C73.1777 28.5957 73.5239 28.6809 73.8702 28.766C74.2164 28.8511 74.5626 28.8511 74.9954 28.8511C75.9475 28.8511 76.64 28.6809 77.1593 28.4255C77.6787 28.0851 78.0249 27.7447 78.2846 27.3192C78.5443 26.8936 78.7174 26.4681 78.7174 26.0426C78.8039 25.617 78.8039 25.2766 78.8039 25.0213V23.234C78.5443 23.4043 78.2846 23.5745 78.0249 23.6596ZM90.7488 14.4681V16.8511H90.8354C91.4413 15.8298 92.2203 15.1489 93.1725 14.7234C94.1246 14.2979 95.1633 14.0426 96.1154 14.0426C97.4138 14.0426 98.4525 14.2128 99.2315 14.5532C100.097 14.8936 100.703 15.4043 101.136 16C101.569 16.5957 101.915 17.3617 102.174 18.2128C102.348 19.0638 102.434 20 102.434 21.1064V31.5745H97.6734V21.9574C97.6734 20.5106 97.4138 19.4894 96.981 18.8085C96.5482 18.1277 95.7692 17.7021 94.5574 17.7021C93.259 17.7021 92.3069 18.2128 91.701 18.9787C91.0951 19.7447 90.8354 21.0213 90.8354 22.7234V31.6596H86.0748V14.4681H90.7488ZM113.081 17.5319C112.302 17.5319 111.696 17.7021 111.176 18.0426C110.657 18.383 110.224 18.8085 109.878 19.4043C109.532 19.9149 109.359 20.5106 109.186 21.1915C109.012 21.8723 109.012 22.4681 109.012 23.1489C109.012 23.7447 109.099 24.4255 109.186 25.0213C109.359 25.7021 109.532 26.2128 109.878 26.7234C110.224 27.234 110.57 27.6596 111.09 28C111.609 28.3404 112.215 28.5106 112.994 28.5106C114.119 28.5106 114.985 28.1702 115.677 27.5745C116.283 26.9787 116.716 26.1277 116.803 25.0213H121.39C121.044 27.3191 120.178 29.0213 118.707 30.2128C117.235 31.4043 115.331 32 112.994 32C111.696 32 110.484 31.7447 109.445 31.3191C108.32 30.8936 107.454 30.2979 106.675 29.5319C105.896 28.766 105.29 27.8298 104.858 26.8085C104.425 25.7021 104.252 24.5957 104.252 23.3191C104.252 21.9574 104.425 20.766 104.858 19.6596C105.29 18.5532 105.81 17.5319 106.589 16.6809C107.368 15.8298 108.32 15.234 109.359 14.7234C110.484 14.2979 111.696 14.0426 113.081 14.0426C114.119 14.0426 115.071 14.2128 116.024 14.4681C116.976 14.7234 117.841 15.1489 118.534 15.6596C119.313 16.1702 119.919 16.8511 120.351 17.7021C120.784 18.4681 121.044 19.4894 121.13 20.5957H116.456C116.283 18.5532 115.158 17.5319 113.081 17.5319ZM33.4479 9.61702H43.1423V11.9149H33.4479V9.61702ZM128.574 27.4894C129.267 28.1702 130.392 28.5106 131.69 28.5106C132.643 28.5106 133.508 28.2553 134.201 27.8298C134.893 27.3191 135.326 26.8085 135.499 26.2979H139.654C138.961 28.3404 137.923 29.7872 136.538 30.7234C135.153 31.5745 133.508 32.0851 131.517 32.0851C130.132 32.0851 128.921 31.8298 127.795 31.4043C126.67 30.9787 125.805 30.383 125.026 29.5319C124.247 28.766 123.641 27.8298 123.294 26.7234C122.862 25.617 122.689 24.4255 122.689 23.0638C122.689 21.7872 122.862 20.5957 123.294 19.4894C123.727 18.383 124.333 17.4468 125.112 16.5957C125.891 15.8298 126.843 15.1489 127.882 14.7234C129.007 14.2979 130.219 14.0426 131.517 14.0426C132.989 14.0426 134.287 14.2979 135.326 14.8936C136.451 15.4894 137.317 16.1702 138.009 17.1915C138.702 18.1277 139.221 19.234 139.567 20.4255C139.913 21.617 140 22.8936 139.913 24.2553H127.363C127.363 25.5319 127.882 26.8085 128.574 27.4894ZM134.114 18.5532C133.508 17.9574 132.556 17.617 131.431 17.617C130.652 17.617 130.046 17.7872 129.527 18.0426C129.007 18.2979 128.574 18.6383 128.315 18.9787C128.055 19.3191 127.795 19.7447 127.709 20.1702C127.622 20.5957 127.536 20.9362 127.536 21.2766H135.326C135.066 20 134.633 19.1489 134.114 18.5532Z" fill="black"/>
</g>
</mask>
<g mask="url(#mask0_40_1060)">
<rect x="8" y="8" width="132" height="24" fill="#5A6475"/>
</g>
<defs>
<clipPath id="clip0_40_1060">
<rect width="132" height="24" fill="white" transform="translate(8 8)"/>
</clipPath>
</defs>
</svg>
