<svg width="148" height="147" viewBox="0 0 148 147" fill="none" xmlns="http://www.w3.org/2000/svg">
<path d="M55.3767 136.026C55.3914 136.346 55.4491 136.645 55.5496 136.922C55.6456 137.201 55.7836 137.454 55.9636 137.68C56.1399 137.906 56.3601 138.098 56.6243 138.256C56.8875 138.418 57.1878 138.543 57.5252 138.631C58.1302 138.787 58.7086 138.775 59.2605 138.593C59.8124 138.411 60.3004 138.06 60.7247 137.54C61.1443 137.023 61.4633 136.342 61.6818 135.499C61.9021 134.648 61.9549 133.893 61.8401 133.233C61.7254 132.574 61.4695 132.028 61.0726 131.596C60.6747 131.169 60.1604 130.873 59.5297 130.71C58.9577 130.562 58.4342 130.543 57.9592 130.655C57.4805 130.766 57.0753 130.994 56.7434 131.338C56.4107 131.686 56.1735 132.133 56.032 132.68L55.5885 132.489L58.6467 133.281L58.2336 134.876L53.6628 133.692L54.0132 132.339C54.263 131.374 54.6844 130.593 55.2775 129.996C55.8705 129.398 56.5758 129.002 57.3932 128.806C58.2098 128.615 59.0837 128.64 60.0151 128.881C61.0529 129.15 61.9038 129.619 62.5679 130.288C63.2273 130.959 63.6655 131.783 63.8823 132.759C64.0946 133.737 64.0468 134.82 63.7391 136.008C63.5036 136.918 63.1649 137.697 62.723 138.345C62.2774 138.993 61.7572 139.506 61.1624 139.884C60.5666 140.265 59.9214 140.505 59.227 140.603C58.5315 140.705 57.8153 140.66 57.0783 140.469C56.4549 140.308 55.8974 140.066 55.4059 139.743C54.9134 139.423 54.5014 139.043 54.1698 138.601C53.8345 138.158 53.5905 137.672 53.4379 137.144C53.2853 136.615 53.2385 136.063 53.2976 135.487L55.3767 136.026Z" fill="white"/>
<path d="M45.1417 122.729C45.8942 123.175 46.4514 123.717 46.8132 124.354C47.1697 124.993 47.3236 125.688 47.2747 126.438C47.2239 127.192 46.9656 127.962 46.4998 128.747C46.0417 129.519 45.4931 130.11 44.854 130.519C44.2097 130.929 43.5254 131.14 42.8011 131.151C42.0749 131.165 41.3534 130.959 40.6367 130.534C40.1741 130.259 39.782 129.925 39.4605 129.532C39.1337 129.14 38.9041 128.696 38.7717 128.199C38.6361 127.7 38.6191 127.157 38.7208 126.57C38.8205 125.986 39.0656 125.365 39.456 124.707L39.7778 124.164L45.93 127.814L45.2226 129.007L40.766 126.363C40.5683 126.703 40.4628 127.048 40.4496 127.397C40.4345 127.749 40.5102 128.078 40.6767 128.384C40.84 128.688 41.091 128.94 41.4298 129.141C41.7914 129.356 42.1612 129.456 42.5392 129.443C42.9153 129.432 43.264 129.331 43.5852 129.138C43.9013 128.947 44.1605 128.685 44.3628 128.351L44.9803 127.31C45.2393 126.874 45.3817 126.452 45.4076 126.044C45.4316 125.64 45.3496 125.27 45.1614 124.934C44.9714 124.601 44.6842 124.32 44.2998 124.092C44.0424 123.939 43.7882 123.837 43.5372 123.785C43.2842 123.736 43.0387 123.738 42.8005 123.791C42.5624 123.843 42.3414 123.952 42.1376 124.118L40.5961 122.952C40.9593 122.577 41.3842 122.314 41.8706 122.162C42.3519 122.012 42.8721 121.981 43.4312 122.071C43.9884 122.163 44.5586 122.383 45.1417 122.729Z" fill="white"/>
<path d="M27.1499 119.872L28.253 118.726L31.8681 122.204L30.765 123.351L27.1499 119.872ZM28.4226 123.998L26.9406 122.572L32.6217 116.669C32.8134 116.469 32.9305 116.288 32.9729 116.123C33.0099 115.959 32.9963 115.81 32.9321 115.674C32.8679 115.539 32.7744 115.412 32.6515 115.294C32.5587 115.204 32.4676 115.13 32.378 115.07C32.2857 115.007 32.2138 114.962 32.1624 114.933L33.0276 113.535C33.133 113.583 33.2752 113.662 33.4541 113.771C33.6303 113.878 33.8261 114.03 34.0415 114.226C34.4232 114.573 34.7037 114.95 34.883 115.359C35.0597 115.771 35.1093 116.192 35.0318 116.622C34.9516 117.05 34.7211 117.459 34.3401 117.849L28.4226 123.998Z" fill="white"/>
<path d="M23.3291 99.4402C23.483 99.7486 23.5064 100.067 23.3994 100.396C23.2924 100.724 23.0821 100.965 22.7686 101.117C22.4652 101.272 22.1501 101.294 21.8233 101.182C21.4965 101.07 21.2561 100.86 21.1022 100.551C20.9534 100.253 20.9325 99.9395 21.0395 99.611C21.1448 99.279 21.3492 99.0353 21.6525 98.8797C21.861 98.7799 22.0762 98.7403 22.298 98.7608C22.5183 98.778 22.7215 98.8459 22.9077 98.9646C23.0889 99.0817 23.2293 99.2402 23.3291 99.4402Z" fill="white"/>
<path d="M6.07413 82.6465L17.5998 81.0454L17.8899 83.1334L6.36416 84.7344L6.07413 82.6465Z" fill="white"/>
<path d="M12.0844 71.1808L17.1835 71.5671L17.0281 73.618L8.32573 72.9587L8.47426 70.9984L9.95297 71.1104L9.9607 71.0084C9.48863 70.7713 9.12566 70.4229 8.8718 69.963C8.61823 69.4993 8.51605 68.9426 8.56527 68.293C8.61077 67.6924 8.77883 67.179 9.06944 66.7528C9.36033 66.3228 9.7587 66.0035 10.2645 65.7949C10.7707 65.5825 11.3711 65.5046 12.0658 65.561L17.6067 65.9808L17.4513 68.0318L12.2276 67.636C11.646 67.5919 11.1794 67.7085 10.8279 67.9858C10.4767 68.2593 10.2811 68.6604 10.241 69.1892C10.2138 69.548 10.2689 69.8732 10.4064 70.1647C10.5404 70.4522 10.7486 70.6864 11.0312 70.8673C11.3141 71.0445 11.6652 71.149 12.0844 71.1808Z" fill="white"/>
<path d="M22.687 49.8352C22.5392 50.1466 22.303 50.3615 21.9785 50.48C21.6539 50.5985 21.335 50.5814 21.0218 50.4285C20.7122 50.2858 20.5006 50.0513 20.3872 49.7249C20.2737 49.3985 20.2909 49.0796 20.4387 48.7682C20.5816 48.4671 20.8153 48.2572 21.1399 48.1387C21.4661 48.0168 21.784 48.0272 22.0936 48.17C22.3008 48.2725 22.4647 48.4173 22.5855 48.6046C22.7078 48.7885 22.7798 48.9903 22.8012 49.2102C22.8209 49.4249 22.7828 49.6333 22.687 49.8352Z" fill="white"/>
<path d="M28.9628 26.3048L30.0882 27.4293L26.5423 30.9785L25.4168 29.8541L28.9628 26.3048ZM24.8131 27.5L26.2668 26.045L32.063 31.8357C32.2586 32.0312 32.4381 32.1516 32.6015 32.1971C32.7649 32.2372 32.9149 32.2264 33.0514 32.1647C33.188 32.103 33.3165 32.0119 33.437 31.8913C33.528 31.8002 33.6043 31.7105 33.6659 31.622C33.7301 31.5309 33.777 31.4599 33.8064 31.409L35.1889 32.3003C35.1381 32.4048 35.0564 32.5454 34.944 32.7223C34.8343 32.8964 34.679 33.0893 34.4782 33.301C34.1249 33.6762 33.742 33.9496 33.3296 34.1212C32.9145 34.2901 32.4927 34.3318 32.0641 34.2463C31.6382 34.1581 31.2336 33.9199 30.8504 33.5317L24.8131 27.5Z" fill="white"/>
<path d="M44.0048 25.9176C43.2805 26.3668 42.5539 26.5968 41.8251 26.6075C41.0964 26.6182 40.4078 26.4279 39.7595 26.0366C39.1144 25.6433 38.5543 25.0635 38.0792 24.2974C37.604 23.5313 37.3327 22.7702 37.265 22.0144C37.2006 21.2565 37.3351 20.5535 37.6686 19.9054C38.0022 19.2573 38.5311 18.7087 39.2553 18.2595C39.9796 17.8103 40.7062 17.5803 41.435 17.5696C42.1638 17.5589 42.8517 17.7518 43.4988 18.1483C44.149 18.5429 44.7118 19.1232 45.1869 19.8894C45.662 20.6555 45.9308 21.4159 45.9933 22.1706C46.0589 22.9232 45.925 23.6236 45.5915 24.2717C45.258 24.9198 44.7291 25.4685 44.0048 25.9176ZM43.146 24.5114C43.5387 24.2678 43.8002 23.9563 43.9304 23.5769C44.0586 23.1943 44.0733 22.7796 43.9745 22.3328C43.8789 21.884 43.6913 21.4342 43.4118 20.9836C43.1303 20.5297 42.8098 20.1602 42.4502 19.875C42.0919 19.5847 41.7128 19.4119 41.3131 19.3567C40.9134 19.3015 40.5172 19.3957 40.1244 19.6393C39.7221 19.8888 39.4552 20.2059 39.3237 20.5905C39.1955 20.9731 39.1802 21.3904 39.2778 21.8425C39.3766 22.2893 39.5668 22.7397 39.8483 23.1936C40.1278 23.6442 40.4457 24.0131 40.8021 24.3002C41.1616 24.5854 41.5413 24.7555 41.941 24.8107C42.3419 24.8607 42.7436 24.7609 43.146 24.5114Z" fill="white"/>
<path d="M57.7188 15.7023L56.2304 10.8694L58.1961 10.2641L60.7648 18.6048L58.8588 19.1917L58.4023 17.7093L58.3154 17.7361C58.2709 18.261 58.079 18.7383 57.7397 19.1678C57.4039 19.5962 56.9229 19.9068 56.2966 20.0997C55.75 20.268 55.2294 20.2956 54.7347 20.1824C54.2426 20.0644 53.807 19.8082 53.4279 19.4137C53.0476 19.0155 52.7549 18.4834 52.5498 17.8173L50.9143 12.5066L52.88 11.9012L54.4219 16.9078C54.5846 17.4364 54.8588 17.8117 55.2443 18.0338C55.6297 18.256 56.0578 18.2946 56.5284 18.1497C56.818 18.0605 57.0768 17.9035 57.3049 17.6787C57.5329 17.4539 57.6909 17.1753 57.7788 16.8431C57.8692 16.5061 57.8492 16.1258 57.7188 15.7023Z" fill="white"/>
<path d="M71.436 17.3975C70.5656 17.4344 69.8101 17.275 69.1694 16.9192C68.5326 16.5633 68.0314 16.0556 67.6661 15.3963C67.3043 14.733 67.1047 13.9604 67.0674 13.0787C67.0298 12.1931 67.167 11.4044 67.4789 10.7125C67.7906 10.0169 68.2488 9.46666 68.8534 9.0619C69.4616 8.6532 70.1915 8.4308 71.043 8.3947C71.7507 8.3647 72.3826 8.46871 72.9386 8.70674C73.4983 8.94082 73.9508 9.28749 74.2964 9.74675C74.6417 10.2022 74.8504 10.7431 74.9225 11.3694L72.9583 11.4527C72.861 11.036 72.657 10.6939 72.3461 10.4266C72.0389 10.1552 71.6374 10.0301 71.1416 10.0511C70.7216 10.0689 70.3574 10.1981 70.0491 10.4386C69.7407 10.6754 69.5065 11.0076 69.3464 11.4352C69.1901 11.8627 69.1244 12.3697 69.1493 12.9563C69.1745 13.5504 69.2832 14.0577 69.4754 14.4779C69.6674 14.8944 69.9254 15.2114 70.2493 15.4289C70.5768 15.6425 70.9544 15.7403 71.3821 15.7221C71.6848 15.7093 71.953 15.6411 72.1866 15.5174C72.4238 15.3898 72.6192 15.2128 72.7726 14.9864C72.926 14.76 73.0264 14.4885 73.0736 14.1718L75.0377 14.0886C75.0147 14.7075 74.8562 15.2621 74.5623 15.7522C74.2683 16.2386 73.8563 16.6276 73.3266 16.9193C72.7966 17.2071 72.1664 17.3665 71.436 17.3975Z" fill="white"/>
<path d="M85.2785 13.0688L84.1925 18.0658L82.1826 17.629L84.6539 6.25805L86.6194 6.68523L85.6866 10.9771L85.7866 10.9988C86.091 10.561 86.4825 10.2488 86.9611 10.0621C87.4442 9.87251 88.0115 9.84851 88.663 9.99009C89.2552 10.1188 89.7446 10.355 90.1312 10.6988C90.5178 11.0425 90.7795 11.4792 90.9163 12.009C91.0568 12.5396 91.0523 13.1491 90.9026 13.8376L89.7225 19.2677L87.7126 18.8308L88.8252 13.7117C88.9499 13.138 88.8987 12.6598 88.6718 12.2771C88.4494 11.8915 88.0735 11.6412 87.5442 11.5262C87.1889 11.4489 86.8536 11.4575 86.5385 11.5518C86.2279 11.6432 85.9617 11.816 85.7398 12.0701C85.5216 12.325 85.3678 12.6579 85.2785 13.0688Z" fill="white"/>
<path d="M104.958 26.5146C104.67 26.3253 104.489 26.0617 104.417 25.7239C104.344 25.3861 104.405 25.0726 104.6 24.7835C104.784 24.4965 105.045 24.3193 105.384 24.252C105.723 24.1847 106.036 24.2456 106.324 24.435C106.603 24.6181 106.779 24.8785 106.851 25.2163C106.927 25.5562 106.873 25.8697 106.689 26.1566C106.559 26.3476 106.392 26.49 106.19 26.5838C105.991 26.6796 105.782 26.723 105.561 26.714C105.345 26.7038 105.144 26.6374 104.958 26.5146Z" fill="white"/>
<path d="M118.952 39.0362L124.848 32.1455L126.011 33.8904L121.754 38.5692L121.798 38.6354L127.775 36.5384L128.925 38.2644L124.715 42.9526L124.763 43.0236L130.679 40.8982L131.845 42.6478L123.211 45.4294L122.024 43.6467L126.025 39.015L125.959 38.9157L120.143 40.8237L118.952 39.0362Z" fill="white"/>
<path d="M127.049 53.6823L135.277 50.7734L135.963 52.7126L127.734 55.6215L127.049 53.6823ZM136.79 51.3355C136.681 51.0283 136.689 50.7281 136.815 50.4347C136.943 50.14 137.153 49.9416 137.442 49.8393C137.735 49.7358 138.022 49.7587 138.304 49.9082C138.589 50.0564 138.786 50.284 138.895 50.5912C139.005 50.9019 138.995 51.2028 138.864 51.4938C138.739 51.7872 138.53 51.9857 138.237 52.0892C137.948 52.1915 137.661 52.1685 137.375 52.0203C137.095 51.8744 136.899 51.6462 136.79 51.3355Z" fill="white"/>
<path d="M139.042 65.9598L137.469 66.2004L136.71 61.2411L138.283 61.0005L139.042 65.9598ZM140.537 61.9087L140.848 63.9418L132.749 65.1809C132.476 65.2227 132.272 65.296 132.139 65.4007C132.01 65.5086 131.93 65.6358 131.899 65.7823C131.867 65.9289 131.865 66.0864 131.89 66.2549C131.91 66.3822 131.937 66.4969 131.972 66.5988C132.007 66.7046 132.037 66.7844 132.06 66.8382L130.523 67.424C130.469 67.3212 130.404 67.1721 130.328 66.9767C130.253 66.7852 130.189 66.5458 130.138 66.2586C130.045 65.7517 130.052 65.2813 130.158 64.8474C130.267 64.4129 130.484 64.0483 130.806 63.7537C131.13 63.4628 131.561 63.278 132.101 63.1993L140.537 61.9087Z" fill="white"/>
<path d="M135.848 76.9796L130.75 76.5764L130.913 74.526L142.513 75.4435L142.354 77.4486L137.976 77.1023L137.968 77.2042C138.442 77.447 138.805 77.7929 139.054 78.242C139.307 78.6952 139.407 79.254 139.355 79.9186C139.307 80.5228 139.139 81.0396 138.85 81.4689C138.562 81.8982 138.164 82.2164 137.658 82.4233C137.151 82.634 136.546 82.7116 135.844 82.656L130.304 82.2179L130.466 80.1675L135.689 80.5805C136.274 80.6268 136.741 80.5118 137.09 80.2353C137.442 79.963 137.639 79.5569 137.682 79.0169C137.711 78.6544 137.657 78.3234 137.521 78.0238C137.389 77.7284 137.182 77.4878 136.9 77.3022C136.618 77.1203 136.267 77.0128 135.848 76.9796Z" fill="white"/>
<path d="M125.175 98.2902C125.324 97.9793 125.561 97.7651 125.886 97.6477C126.211 97.5303 126.53 97.5485 126.842 97.7024C127.151 97.8461 127.362 98.0814 127.475 98.4081C127.587 98.7349 127.569 99.0537 127.42 99.3646C127.276 99.6653 127.042 99.8743 126.717 99.9918C126.39 100.113 126.072 100.101 125.763 99.9574C125.556 99.8542 125.393 99.7088 125.273 99.5211C125.151 99.3368 125.08 99.1347 125.059 98.9148C125.04 98.7 125.079 98.4918 125.175 98.2902Z" fill="white"/>
<path d="M114.323 119.055L117.796 122.731L116.3 124.143L110.308 117.799L111.757 116.429L112.823 117.557L112.889 117.495C112.696 117.004 112.657 116.491 112.772 115.956C112.883 115.423 113.177 114.932 113.654 114.482C114.069 114.089 114.524 113.834 115.018 113.717C115.511 113.605 116.015 113.642 116.53 113.828C117.047 114.017 117.545 114.365 118.024 114.872L121.839 118.911L120.344 120.323L116.747 116.515C116.367 116.113 115.955 115.898 115.511 115.869C115.067 115.84 114.666 115.995 114.308 116.333C114.088 116.541 113.925 116.797 113.82 117.099C113.715 117.402 113.697 117.721 113.765 118.058C113.833 118.4 114.019 118.733 114.323 119.055Z" fill="white"/>
<path d="M101.771 130.872L103.308 129.779C103.447 129.919 103.615 130.029 103.812 130.11C104.005 130.193 104.223 130.225 104.465 130.207C104.706 130.189 104.966 130.103 105.244 129.948C105.618 129.739 105.887 129.483 106.051 129.179C106.212 128.876 106.219 128.597 106.071 128.341C105.951 128.117 105.769 127.982 105.526 127.936C105.28 127.891 104.939 127.932 104.502 128.059L103.047 128.506C102.239 128.753 101.566 128.806 101.027 128.664C100.485 128.525 100.06 128.183 99.7516 127.639C99.4872 127.157 99.3915 126.656 99.4644 126.133C99.5358 125.616 99.7591 125.119 100.134 124.64C100.509 124.162 101.014 123.746 101.649 123.391C102.582 122.871 103.442 122.647 104.228 122.719C105.017 122.795 105.662 123.154 106.162 123.794L104.505 124.94C104.234 124.64 103.92 124.475 103.564 124.444C103.208 124.412 102.824 124.512 102.41 124.743C101.984 124.981 101.69 125.26 101.53 125.579C101.367 125.9 101.357 126.19 101.501 126.448C101.623 126.666 101.808 126.799 102.056 126.847C102.3 126.897 102.619 126.862 103.012 126.743L104.465 126.29C105.28 126.034 105.964 125.989 106.516 126.154C107.07 126.322 107.5 126.685 107.807 127.242C108.072 127.71 108.172 128.188 108.106 128.676C108.039 129.169 107.826 129.639 107.468 130.086C107.109 130.538 106.625 130.934 106.016 131.274C105.123 131.772 104.314 131.974 103.589 131.88C102.861 131.788 102.255 131.452 101.771 130.872Z" fill="white"/>
<path d="M82.6247 129.996C82.9655 129.945 83.2758 130.02 83.5555 130.223C83.8352 130.426 83.9992 130.7 84.0476 131.045C84.1024 131.382 84.0262 131.688 83.819 131.965C83.6118 132.241 83.3378 132.405 82.997 132.457C82.6674 132.507 82.3628 132.43 82.0831 132.227C81.7996 132.025 81.6305 131.756 81.5758 131.419C81.5449 131.19 81.5734 130.973 81.6612 130.768C81.7452 130.564 81.8724 130.392 82.0426 130.251C82.2097 130.115 82.4037 130.03 82.6247 129.996Z" fill="white"/>
</svg>
