<svg xmlns="http://www.w3.org/2000/svg" width="54" height="54" viewBox="0 0 54 54" fill="none">
  <path d="M39.8014 39.8014C40.0073 39.5955 40.2435 39.4352 40.4899 39.2968L36.6492 35.4544C36.3201 35.1253 35.7851 35.1253 35.4561 35.4544C35.127 35.7851 35.127 36.3184 35.4561 36.6491L39.2884 40.4814C39.4318 40.2401 39.5972 40.0056 39.8014 39.8014Z" fill="url(#paint0_linear_238_625)"/>
  <path d="M48.0937 52.3125C46.9665 52.3125 45.9084 51.8738 45.1102 51.0773L39.204 45.171C38.4075 44.3728 37.9687 43.3148 37.9687 42.1875C37.9687 41.0603 38.4075 40.0022 39.204 39.204C40.7329 37.6751 43.6404 37.6751 45.1693 39.204L51.0755 45.1103C51.8737 45.9085 52.3125 46.9665 52.3125 48.0938C52.3125 49.221 51.8737 50.2791 51.0772 51.0773C50.2807 51.8755 49.221 52.3125 48.0937 52.3125ZM42.1875 39.69C41.5007 39.69 40.8493 39.9465 40.397 40.3988C39.9195 40.8763 39.6562 41.5125 39.6562 42.1875C39.6562 42.8625 39.9195 43.4987 40.397 43.978L46.3033 49.8842C47.2584 50.8393 48.9274 50.8393 49.8825 49.8842C50.3617 49.405 50.625 48.7688 50.625 48.0938C50.625 47.4188 50.3617 46.7826 49.8842 46.3033L43.9779 40.3971C43.5257 39.9465 42.8743 39.69 42.1875 39.69ZM21.9577 46.4046C16.5341 46.4046 11.1645 44.6108 6.8006 41.1649C6.43441 40.8763 6.37197 40.3465 6.66054 39.9803C6.95079 39.6158 7.47897 39.5533 7.84516 39.8402C14.1885 44.847 22.8048 46.1042 30.3345 43.1224C30.7682 42.9486 31.2575 43.1612 31.4297 43.5949C31.6018 44.0286 31.3892 44.5196 30.9572 44.6901C28.0513 45.841 24.9969 46.4046 21.9577 46.4046ZM43.934 31.4179C43.8311 31.4179 43.7265 31.3993 43.6252 31.3605C43.1915 31.1884 42.9772 30.699 43.1477 30.267C46.0738 22.8066 44.8402 14.2577 39.9245 7.95321C39.6377 7.58533 39.7035 7.05546 40.0714 6.76858C40.4409 6.48002 40.9674 6.54752 41.256 6.91539C46.5345 13.6873 47.8625 22.8707 44.7204 30.883C44.5888 31.2154 44.2699 31.4179 43.934 31.4179Z" fill="url(#paint1_linear_238_625)"/>
  <path d="M21.9375 42.1875C10.7713 42.1875 1.6875 33.1037 1.6875 21.9375C1.6875 10.7713 10.7713 1.6875 21.9375 1.6875C33.1037 1.6875 42.1875 10.7713 42.1875 21.9375C42.1875 33.1037 33.1037 42.1875 21.9375 42.1875ZM21.9375 3.375C11.7028 3.375 3.375 11.7028 3.375 21.9375C3.375 32.1722 11.7028 40.5 21.9375 40.5C32.1722 40.5 40.5 32.1722 40.5 21.9375C40.5 11.7028 32.1722 3.375 21.9375 3.375Z" fill="url(#paint2_linear_238_625)"/>
  <path d="M34.5938 27C34.128 27 33.75 26.622 33.75 26.1562V22.7812C33.75 21.3857 32.6143 20.25 31.2188 20.25C30.753 20.25 30.375 19.872 30.375 19.4062C30.375 18.9405 30.753 18.5625 31.2188 18.5625C33.5458 18.5625 35.4375 20.4542 35.4375 22.7812V26.1562C35.4375 26.622 35.0595 27 34.5938 27ZM9.28125 27C8.8155 27 8.4375 26.622 8.4375 26.1562V22.7812C8.4375 20.4542 10.3292 18.5625 12.6562 18.5625C13.122 18.5625 13.5 18.9405 13.5 19.4062C13.5 19.872 13.122 20.25 12.6562 20.25C11.2607 20.25 10.125 21.3857 10.125 22.7812V26.1562C10.125 26.622 9.747 27 9.28125 27ZM23.625 10.9688C23.1593 10.9688 22.7812 10.5907 22.7812 10.125C22.7812 8.72944 23.9169 7.59375 25.3125 7.59375C25.7782 7.59375 26.1562 7.97175 26.1562 8.4375C26.1562 8.90325 25.7782 9.28125 25.3125 9.28125C24.8484 9.28125 24.4688 9.66094 24.4688 10.125C24.4688 10.5907 24.0907 10.9688 23.625 10.9688ZM20.25 10.9688C19.7843 10.9688 19.4062 10.5907 19.4062 10.125C19.4062 9.66094 19.0266 9.28125 18.5625 9.28125C18.0968 9.28125 17.7188 8.90325 17.7188 8.4375C17.7188 7.97175 18.0968 7.59375 18.5625 7.59375C19.9581 7.59375 21.0938 8.72944 21.0938 10.125C21.0938 10.5907 20.7157 10.9688 20.25 10.9688ZM29.5312 8.4375C29.0655 8.4375 28.6875 8.8155 28.6875 9.28125V10.9688C28.6875 12.3643 27.5518 13.5 26.1562 13.5H24.9936C25.4964 13.9404 25.866 14.5192 26.0381 15.1875H26.1562C28.4833 15.1875 30.375 13.2958 30.375 10.9688V9.28125C30.375 8.8155 29.997 8.4375 29.5312 8.4375ZM18.8814 13.5H17.7188C16.3232 13.5 15.1875 12.3643 15.1875 10.9688V9.28125C15.1875 8.8155 14.8095 8.4375 14.3438 8.4375C13.878 8.4375 13.5 8.8155 13.5 9.28125V10.9688C13.5 13.2958 15.3917 15.1875 17.7188 15.1875H17.8369C18.0107 14.5192 18.3802 13.9404 18.8814 13.5Z" fill="url(#paint3_linear_238_625)"/>
  <path d="M18.5625 17.8048V16.0312C18.5625 14.6357 19.6982 13.5 21.0938 13.5H22.7812C24.1768 13.5 25.3125 14.6357 25.3125 16.0312V17.8048C25.92 17.9077 26.4853 18.1221 27 18.4208V16.0312C27 13.7042 25.1083 11.8125 22.7812 11.8125H21.0938C18.7667 11.8125 16.875 13.7042 16.875 16.0312V18.4208C17.3897 18.1204 17.955 17.9061 18.5625 17.8048Z" fill="url(#paint4_linear_238_625)"/>
  <path d="M22.7812 35.4375H21.0938C16.4109 35.4375 13.5 31.8819 13.5 26.1562V22.7812C13.5 19.5244 16.1494 16.875 19.4062 16.875H24.4688C27.7256 16.875 30.375 19.5244 30.375 22.7812V26.1562C30.375 31.8819 27.4641 35.4375 22.7812 35.4375ZM19.4062 18.5625C17.0792 18.5625 15.1875 20.4542 15.1875 22.7812V26.1562C15.1875 27.9382 15.6128 33.75 21.0938 33.75H22.7812C28.2622 33.75 28.6875 27.9382 28.6875 26.1562V22.7812C28.6875 20.4542 26.7958 18.5625 24.4688 18.5625H19.4062Z" fill="url(#paint5_linear_238_625)"/>
  <path d="M21.9375 34.5938C21.4718 34.5938 21.0938 34.2157 21.0938 33.75V21.0938C21.0938 20.628 21.4718 20.25 21.9375 20.25C22.4032 20.25 22.7812 20.628 22.7812 21.0938V33.75C22.7812 34.2157 22.4032 34.5938 21.9375 34.5938Z" fill="url(#paint6_linear_238_625)"/>
  <path d="M17.7188 27C18.1847 27 18.5625 26.6222 18.5625 26.1562C18.5625 25.6903 18.1847 25.3125 17.7188 25.3125C17.2528 25.3125 16.875 25.6903 16.875 26.1562C16.875 26.6222 17.2528 27 17.7188 27Z" fill="url(#paint7_linear_238_625)"/>
  <path d="M26.1562 27C26.6222 27 27 26.6222 27 26.1562C27 25.6903 26.6222 25.3125 26.1562 25.3125C25.6903 25.3125 25.3125 25.6903 25.3125 26.1562C25.3125 26.6222 25.6903 27 26.1562 27Z" fill="url(#paint8_linear_238_625)"/>
  <path d="M17.7188 23.625C18.1847 23.625 18.5625 23.2472 18.5625 22.7812C18.5625 22.3153 18.1847 21.9375 17.7188 21.9375C17.2528 21.9375 16.875 22.3153 16.875 22.7812C16.875 23.2472 17.2528 23.625 17.7188 23.625Z" fill="url(#paint9_linear_238_625)"/>
  <path d="M26.1562 23.625C26.6222 23.625 27 23.2472 27 22.7812C27 22.3153 26.6222 21.9375 26.1562 21.9375C25.6903 21.9375 25.3125 22.3153 25.3125 22.7812C25.3125 23.2472 25.6903 23.625 26.1562 23.625Z" fill="url(#paint10_linear_238_625)"/>
  <path d="M31.2188 16.875H29.5312C29.0655 16.875 28.6875 16.497 28.6875 16.0312C28.6875 15.5655 29.0655 15.1875 29.5312 15.1875H31.2188C32.6143 15.1875 33.75 14.0518 33.75 12.6562C33.75 12.1905 34.128 11.8125 34.5938 11.8125C35.0595 11.8125 35.4375 12.1905 35.4375 12.6562C35.4375 14.9833 33.5458 16.875 31.2188 16.875ZM14.3438 16.875H12.6562C10.3292 16.875 8.4375 14.9833 8.4375 12.6562C8.4375 12.1905 8.8155 11.8125 9.28125 11.8125C9.747 11.8125 10.125 12.1905 10.125 12.6562C10.125 14.0518 11.2607 15.1875 12.6562 15.1875H14.3438C14.8095 15.1875 15.1875 15.5655 15.1875 16.0312C15.1875 16.497 14.8095 16.875 14.3438 16.875Z" fill="url(#paint11_linear_238_625)"/>
  <path d="M4.21875 38.8125C4.68474 38.8125 5.0625 38.4347 5.0625 37.9688C5.0625 37.5028 4.68474 37.125 4.21875 37.125C3.75276 37.125 3.375 37.5028 3.375 37.9688C3.375 38.4347 3.75276 38.8125 4.21875 38.8125Z" fill="url(#paint12_linear_238_625)"/>
  <path d="M37.9688 5.0625C38.4347 5.0625 38.8125 4.68474 38.8125 4.21875C38.8125 3.75276 38.4347 3.375 37.9688 3.375C37.5028 3.375 37.125 3.75276 37.125 4.21875C37.125 4.68474 37.5028 5.0625 37.9688 5.0625Z" fill="url(#paint13_linear_238_625)"/>
  <defs>
    <linearGradient id="paint0_linear_238_625" x1="37.8496" y1="40.5174" x2="37.8496" y2="34.6747" gradientUnits="userSpaceOnUse">
      <stop stop-color="#1925FF"/>
      <stop offset="1" stop-color="#1925FF"/>
    </linearGradient>
    <linearGradient id="paint1_linear_238_625" x1="29.3959" y1="52.6239" x2="29.3959" y2="1.96931" gradientUnits="userSpaceOnUse">
      <stop stop-color="#1925FF"/>
      <stop offset="1" stop-color="#1925FF"/>
    </linearGradient>
    <linearGradient id="paint2_linear_238_625" x1="21.9375" y1="42.4633" x2="21.9375" y2="-2.40472" gradientUnits="userSpaceOnUse">
      <stop stop-color="#1925FF"/>
      <stop offset="1" stop-color="#1925FF"/>
    </linearGradient>
    <linearGradient id="paint3_linear_238_625" x1="21.9375" y1="27.1322" x2="21.9375" y2="5.63289" gradientUnits="userSpaceOnUse">
      <stop stop-color="#1925FF"/>
      <stop offset="1" stop-color="#1925FF"/>
    </linearGradient>
    <linearGradient id="paint4_linear_238_625" x1="21.9375" y1="18.4658" x2="21.9375" y2="11.1448" gradientUnits="userSpaceOnUse">
      <stop stop-color="#1925FF"/>
      <stop offset="1" stop-color="#1925FF"/>
    </linearGradient>
    <linearGradient id="paint5_linear_238_625" x1="21.9375" y1="35.5639" x2="21.9375" y2="14.9994" gradientUnits="userSpaceOnUse">
      <stop stop-color="#1925FF"/>
      <stop offset="1" stop-color="#1925FF"/>
    </linearGradient>
    <linearGradient id="paint6_linear_238_625" x1="21.9375" y1="34.6914" x2="21.9375" y2="18.8007" gradientUnits="userSpaceOnUse">
      <stop stop-color="#1925FF"/>
      <stop offset="1" stop-color="#1925FF"/>
    </linearGradient>
    <linearGradient id="paint7_linear_238_625" x1="17.7188" y1="27.0115" x2="17.7188" y2="25.142" gradientUnits="userSpaceOnUse">
      <stop stop-color="#1925FF"/>
      <stop offset="1" stop-color="#1925FF"/>
    </linearGradient>
    <linearGradient id="paint8_linear_238_625" x1="26.1563" y1="27.0115" x2="26.1563" y2="25.142" gradientUnits="userSpaceOnUse">
      <stop stop-color="#1925FF"/>
      <stop offset="1" stop-color="#1925FF"/>
    </linearGradient>
    <linearGradient id="paint9_linear_238_625" x1="17.7188" y1="23.6365" x2="17.7188" y2="21.767" gradientUnits="userSpaceOnUse">
      <stop stop-color="#1925FF"/>
      <stop offset="1" stop-color="#1925FF"/>
    </linearGradient>
    <linearGradient id="paint10_linear_238_625" x1="26.1563" y1="23.6365" x2="26.1563" y2="21.767" gradientUnits="userSpaceOnUse">
      <stop stop-color="#1925FF"/>
      <stop offset="1" stop-color="#1925FF"/>
    </linearGradient>
    <linearGradient id="paint11_linear_238_625" x1="21.9375" y1="16.9095" x2="21.9375" y2="11.301" gradientUnits="userSpaceOnUse">
      <stop stop-color="#1925FF"/>
      <stop offset="1" stop-color="#1925FF"/>
    </linearGradient>
    <linearGradient id="paint12_linear_238_625" x1="4.21875" y1="38.824" x2="4.21875" y2="36.9545" gradientUnits="userSpaceOnUse">
      <stop stop-color="#1925FF"/>
      <stop offset="1" stop-color="#1925FF"/>
    </linearGradient>
    <linearGradient id="paint13_linear_238_625" x1="37.9688" y1="5.07399" x2="37.9688" y2="3.20449" gradientUnits="userSpaceOnUse">
      <stop stop-color="#1925FF"/>
      <stop offset="1" stop-color="#1925FF"/>
    </linearGradient>
  </defs>
</svg>