<svg xmlns="http://www.w3.org/2000/svg" width="54" height="54" viewBox="0 0 54 54" fill="none">
  <g clip-path="url(#clip0_238_623)">
    <path d="M53.1562 43.875H52.3125V21.7087C53.2398 20.0326 53.7995 18.1784 53.9544 16.2693C54.1094 14.3601 53.856 12.4399 53.2112 10.6363C52.5663 8.83268 51.5448 7.18707 50.2146 5.80893C48.8844 4.43079 47.2759 3.35172 45.4962 2.64351C43.7165 1.9353 41.8065 1.61419 39.8931 1.70153C37.9796 1.78888 36.1068 2.28268 34.399 3.15009C32.6913 4.0175 31.1878 5.23862 29.9886 6.73222C28.7895 8.22582 27.9222 9.95766 27.4443 11.8125H5.90625C4.78777 11.8138 3.71548 12.2587 2.92459 13.0496C2.13371 13.8405 1.68881 14.9128 1.6875 16.0313V43.875H0.84375C0.732929 43.8749 0.623182 43.8967 0.520785 43.9391C0.418387 43.9815 0.325348 44.0436 0.246985 44.122C0.168623 44.2004 0.106475 44.2934 0.0640958 44.3958C0.0217161 44.4982 -6.419e-05 44.6079 1.42097e-07 44.7188V48.0938C0.00131316 49.2122 0.446209 50.2845 1.23709 51.0754C2.02798 51.8663 3.10027 52.3112 4.21875 52.3125H49.7812C50.8997 52.3112 51.972 51.8663 52.7629 51.0754C53.5538 50.2845 53.9987 49.2122 54 48.0938V44.7188C54.0001 44.6079 53.9783 44.4982 53.9359 44.3958C53.8935 44.2934 53.8314 44.2004 53.753 44.122C53.6747 44.0436 53.5816 43.9815 53.4792 43.9391C53.3768 43.8967 53.2671 43.8749 53.1562 43.875ZM40.5 3.37501C42.9864 3.37192 45.4103 4.15449 47.4255 5.61098C49.4407 7.06747 50.9442 9.12342 51.7214 11.4853C52.4986 13.8472 52.5097 16.3942 51.7531 18.7627C50.9965 21.1313 49.511 23.2003 47.5085 24.6742L47.4959 24.6837C46.1393 25.6894 44.5823 26.3916 42.9305 26.7427C41.2787 27.0938 39.5707 27.0856 37.9224 26.7186C36.274 26.3517 34.7239 25.6346 33.377 24.616C32.0301 23.5974 30.918 22.3011 30.1161 20.815C30.0997 20.7722 30.0798 20.7309 30.0563 20.6915C29.299 19.2564 28.848 17.6796 28.7318 16.0611C28.7322 16.0506 28.7378 16.0419 28.7378 16.0313C28.7378 16.0136 28.7287 15.9987 28.7276 15.9813C28.7101 15.7177 28.6875 15.4554 28.6875 15.1875C28.691 12.0557 29.9367 9.0532 32.1512 6.83869C34.3657 4.62418 37.3682 3.37852 40.5 3.37501ZM31.6006 25.3125H12.6562C12.4325 25.3124 12.218 25.2234 12.0598 25.0652C11.9016 24.907 11.8127 24.6925 11.8125 24.4688V22.7813C11.8127 22.5575 11.9016 22.343 12.0598 22.1848C12.218 22.0266 12.4325 21.9377 12.6562 21.9375H28.8267C29.563 23.2049 30.4998 24.3446 31.6006 25.3125ZM27.9939 20.25H12.6562C11.9851 20.2507 11.3417 20.5177 10.8672 20.9922C10.3927 21.4667 10.1257 22.1102 10.125 22.7813V24.4688C10.1257 25.1399 10.3927 25.7833 10.8672 26.2578C11.3417 26.7324 11.9851 26.9993 12.6562 27H33.9789C36.013 28.1299 38.3061 28.7112 40.6328 28.6868C42.9596 28.6624 45.24 28.0331 47.25 26.8609V40.5H6.75V16.875H27.1172C27.2611 18.0334 27.5558 19.168 27.9939 20.25ZM3.375 16.0313C3.37573 15.3602 3.64265 14.7167 4.1172 14.2422C4.59174 13.7677 5.23515 13.5007 5.90625 13.5H27.1172C27.0429 14.0595 27.0038 14.6231 27 15.1875H5.90625C5.79543 15.1874 5.68568 15.2092 5.58328 15.2516C5.48089 15.294 5.38785 15.3561 5.30948 15.4345C5.23112 15.5129 5.16898 15.6059 5.1266 15.7083C5.08422 15.8107 5.06244 15.9204 5.0625 16.0313V41.3438C5.06244 41.4546 5.08422 41.5643 5.1266 41.6667C5.16898 41.7691 5.23112 41.8622 5.30948 41.9405C5.38785 42.0189 5.48089 42.081 5.58328 42.1234C5.68568 42.1658 5.79543 42.1876 5.90625 42.1875H48.0938C48.2046 42.1876 48.3143 42.1658 48.4167 42.1234C48.5191 42.081 48.6122 42.0189 48.6905 41.9405C48.7689 41.8622 48.831 41.7691 48.8734 41.6667C48.9158 41.5643 48.9376 41.4546 48.9375 41.3438V25.7091C49.5456 25.2178 50.1101 24.6751 50.625 24.0869V43.875H36.2812C35.6101 43.8757 34.9667 44.1427 34.4922 44.6172C34.0177 45.0917 33.7507 45.7352 33.75 46.4063C33.7498 46.63 33.6609 46.8445 33.5027 47.0027C33.3445 47.1609 33.13 47.2499 32.9062 47.25H21.0938C20.87 47.2499 20.6555 47.1609 20.4973 47.0027C20.3391 46.8445 20.2502 46.63 20.25 46.4063C20.2493 45.7352 19.9823 45.0917 19.5078 44.6172C19.0333 44.1427 18.3899 43.8757 17.7188 43.875H3.375V16.0313ZM52.3125 48.0938C52.3118 48.7649 52.0448 49.4083 51.5703 49.8828C51.0958 50.3574 50.4524 50.6243 49.7812 50.625H4.21875C3.54765 50.6243 2.90424 50.3574 2.4297 49.8828C1.95515 49.4083 1.68823 48.7649 1.6875 48.0938V45.5625H17.7188C17.9425 45.5627 18.157 45.6516 18.3152 45.8098C18.4734 45.968 18.5623 46.1825 18.5625 46.4063C18.5632 47.0774 18.8302 47.7208 19.3047 48.1953C19.7792 48.6699 20.4226 48.9368 21.0938 48.9375H32.9062C33.5774 48.9368 34.2208 48.6699 34.6953 48.1953C35.1698 47.7208 35.4368 47.0774 35.4375 46.4063C35.4377 46.1825 35.5266 45.968 35.6848 45.8098C35.843 45.6516 36.0575 45.5627 36.2812 45.5625H52.3125V48.0938ZM26.1562 35.4375H10.9688C10.745 35.4375 10.5304 35.5264 10.3721 35.6846C10.2139 35.8429 10.125 36.0575 10.125 36.2813C10.125 36.505 10.2139 36.7196 10.3721 36.8779C10.5304 37.0361 10.745 37.125 10.9688 37.125H26.1562C26.38 37.125 26.5946 37.0361 26.7529 36.8779C26.9111 36.7196 27 36.505 27 36.2813C27 36.0575 26.9111 35.8429 26.7529 35.6846C26.5946 35.5264 26.38 35.4375 26.1562 35.4375ZM40.1844 17.699C40.2908 17.7121 40.3978 17.7187 40.505 17.7188C41.0273 17.7182 41.5365 17.5556 41.9625 17.2533C42.3885 16.9511 42.7101 16.5241 42.8832 16.0313H44.2969C44.5207 16.0313 44.7353 15.9424 44.8935 15.7841C45.0517 15.6259 45.1406 15.4113 45.1406 15.1875C45.1406 14.9637 45.0517 14.7491 44.8935 14.5909C44.7353 14.4327 44.5207 14.3438 44.2969 14.3438H42.8754C42.7555 13.9867 42.555 13.6621 42.2894 13.3951C42.0238 13.1281 41.7002 12.926 41.3438 12.8043V10.5469C41.3438 10.3231 41.2549 10.1085 41.0966 9.95026C40.9384 9.79203 40.7238 9.70314 40.5 9.70314C40.2762 9.70314 40.0616 9.79203 39.9034 9.95026C39.7451 10.1085 39.6562 10.3231 39.6562 10.5469V12.8134C39.12 13.0028 38.6634 13.3677 38.3604 13.849C38.0574 14.3303 37.9258 14.8998 37.9869 15.4652C38.0481 16.0307 38.2983 16.5589 38.6972 16.9643C39.096 17.3697 39.6201 17.6286 40.1844 17.699ZM39.9826 14.5217C40.1297 14.4062 40.3113 14.3436 40.4983 14.3438C40.5341 14.3439 40.5699 14.3461 40.6054 14.3504C40.7995 14.3745 40.9792 14.4652 41.1139 14.607C41.2486 14.7488 41.3299 14.9329 41.3441 15.1279C41.3582 15.323 41.3043 15.5169 41.1914 15.6766C41.0786 15.8364 40.9139 15.952 40.7253 16.0039C40.5368 16.0558 40.3361 16.0406 40.1574 15.9611C39.9787 15.8816 39.8332 15.7425 39.7456 15.5677C39.658 15.3929 39.6337 15.1931 39.6769 15.0023C39.7201 14.8116 39.8282 14.6417 39.9826 14.5217ZM10.9688 32.0625H29.5312C29.755 32.0625 29.9696 31.9736 30.1279 31.8154C30.2861 31.6571 30.375 31.4425 30.375 31.2188C30.375 30.995 30.2861 30.7804 30.1279 30.6221C29.9696 30.4639 29.755 30.375 29.5312 30.375H10.9688C10.745 30.375 10.5304 30.4639 10.3721 30.6221C10.2139 30.7804 10.125 30.995 10.125 31.2188C10.125 31.4425 10.2139 31.6571 10.3721 31.8154C10.5304 31.9736 10.745 32.0625 10.9688 32.0625ZM40.5 25.3125C42.5025 25.3125 44.4601 24.7187 46.1251 23.6061C47.7902 22.4936 49.0879 20.9123 49.8543 19.0622C50.6206 17.2121 50.8211 15.1763 50.4305 13.2122C50.0398 11.2482 49.0755 9.44406 47.6595 8.02806C46.2435 6.61205 44.4393 5.64774 42.4753 5.25706C40.5112 4.86638 38.4754 5.06689 36.6253 5.83323C34.7752 6.59957 33.1939 7.89731 32.0814 9.56236C30.9688 11.2274 30.375 13.185 30.375 15.1875C30.3779 17.8719 31.4456 20.4456 33.3438 22.3437C35.242 24.2419 37.8156 25.3096 40.5 25.3125ZM40.5 6.75001C42.1688 6.75001 43.8001 7.24486 45.1876 8.17199C46.5752 9.09911 47.6566 10.4169 48.2952 11.9586C48.9338 13.5004 49.1009 15.1969 48.7754 16.8336C48.4498 18.4703 47.6462 19.9737 46.4662 21.1537C45.2862 22.3337 43.7828 23.1373 42.1461 23.4629C40.5094 23.7885 38.8129 23.6214 37.2711 22.9827C35.7294 22.3441 34.4116 21.2627 33.4845 19.8751C32.5574 18.4876 32.0625 16.8563 32.0625 15.1875C32.0651 12.9506 32.9549 10.806 34.5367 9.2242C36.1185 7.64243 38.263 6.75264 40.5 6.75001Z" fill="url(#paint0_linear_238_623)"/>
  </g>
  <defs>
    <linearGradient id="paint0_linear_238_623" x1="27.0001" y1="52.6573" x2="27.0001" y2="-3.42778" gradientUnits="userSpaceOnUse">
      <stop stop-color="#1925FF"/>
      <stop offset="1" stop-color="#1925FF"/>
    </linearGradient>
    <clipPath id="clip0_238_623">
      <rect width="54" height="54" fill="white"/>
    </clipPath>
  </defs>
</svg>