<svg xmlns="http://www.w3.org/2000/svg" width="170" height="102" viewBox="0 0 170 102" fill="none">
  <path d="M169.234 42.1994H119.41L122.924 48.2348L130.157 60.6615H149.699C147.777 66.8234 144.043 72.1785 139.14 76.1019C136.896 77.9054 134.402 79.4004 131.726 80.5394L116.656 54.6261L109.423 42.2074L106.403 37.0105L101.225 28.1196V28.1117L99.8677 25.7703L95.9137 18.9835L90.5085 9.68918L85.1033 18.9835L79.6666 28.3173L74.6066 37.0105V37.0184L71.5862 42.2153L69.0366 46.5974V46.6053L63.7725 55.6465L58.7125 64.3476L53.4249 55.2352L45.8387 42.1994L32.3217 18.9677H42.4418L55.951 42.1915L58.4849 46.5421L61.0189 42.1915L69.3268 27.906L64.1177 18.9677L53.4641 0.663818H0L10.6458 18.9677L24.1549 42.1915L42.583 73.8633L47.8627 82.952L58.5869 101.382L69.4288 82.7542L74.379 74.243L74.481 74.0611V74.0532L85.3229 55.425L87.6529 51.4226L90.383 46.7319L95.5607 55.6307L103.029 68.4687L110.804 81.8288L122.477 101.897C129.185 101.501 135.547 99.7846 141.297 96.9923C143.902 95.7267 146.389 94.2554 148.719 92.5706C159.114 85.1035 166.59 73.7842 169.085 60.6615C169.681 57.5291 169.987 54.3018 169.987 51.0033C169.987 47.9896 169.736 45.0471 169.234 42.1994Z" fill="url(#paint0_linear_26_27463)"/>
  <path d="M96.6669 74.9316L93.6309 69.711L93.6152 69.6872C92.4541 68.0736 91.4421 66.3413 90.6027 64.5141V64.5061L90.5007 64.3242L79.8 82.7151L79.6588 82.9603L83.0557 88.79L90.736 102H112.412L112.098 101.47L96.6669 74.9316Z" fill="#06C9FF"/>
  <path d="M106.222 19.5062L107.305 21.3808C110.278 20.139 113.471 19.348 116.821 19.079C117.676 19.0078 118.539 18.9762 119.418 18.9762C128.337 18.9762 136.402 22.686 142.176 28.6581L151.692 18.9762L155.419 15.1873C148.06 7.65692 138.387 2.43629 127.577 0.672354C127.569 0.664444 127.561 0.664444 127.545 0.664444C124.893 0.221481 122.179 0 119.41 0C118.782 0 118.162 0.0158201 117.543 0.0395502C115.409 0.110741 113.314 0.324312 111.259 0.664444C106.497 1.43963 101.947 2.89508 97.7339 4.92005L105.908 18.9762L106.222 19.5062Z" fill="#06C9FF"/>
  <defs>
    <linearGradient id="paint0_linear_26_27463" x1="84.9936" y1="102.586" x2="84.9936" y2="-9.56498" gradientUnits="userSpaceOnUse">
      <stop stop-color="#1925FF"/>
      <stop offset="1" stop-color="#1925FF"/>
    </linearGradient>
  </defs>
</svg>