<svg width="85" height="40" viewBox="0 0 85 40" fill="none" xmlns="http://www.w3.org/2000/svg">
<mask id="mask0_8_22807" style="mask-type:alpha" maskUnits="userSpaceOnUse" x="8" y="8" width="69" height="24">
<path fill-rule="evenodd" clip-rule="evenodd" d="M37.8106 8.68913C36.8884 9.57643 36.8884 11.0973 37.8106 12.0157C38.7328 12.9345 40.2592 12.9345 41.1814 12.0157C42.1032 11.0973 42.1032 9.57643 41.1814 8.68913C40.2592 7.77029 38.7328 7.77029 37.8106 8.68913ZM56.3389 14.9062L54.1765 15.2546C50.0515 16.191 47.3715 17.5329 47.3715 22.0441V31.096L51.1241 31.8562V22.6094C51.1241 20.5013 52.3186 19.5491 54.1765 19.1971L56.3389 18.8023V14.9062ZM27.778 31.1332L31.5307 31.8933V21.66C31.5307 16.749 27.7147 14.9749 25.0752 14.9749C23.2946 14.9749 21.8957 15.4183 20.6235 16.6539C19.32 15.4183 17.7619 14.9433 16.4896 14.9433C14.6773 14.9433 13.0871 15.7351 12.0378 17.0027V15.2917L8.28564 16.0203V31.1332L12.0378 31.8933V21.5014C12.0378 19.8538 13.2463 18.6817 15.059 18.6817C16.8397 18.6817 18.0481 19.8538 18.0481 21.5014V31.1332L21.8002 31.8933V21.5014C21.8002 19.8538 23.0083 18.6817 24.7894 18.6817C26.57 18.6817 27.778 19.8538 27.778 21.5014V31.1332ZM76.2856 23.4559C76.2856 28.1679 72.4395 32 67.7419 32C63.0126 32 59.1665 28.1679 59.1665 23.4559C59.1665 18.7755 63.0126 14.9433 67.7419 14.9433C72.4395 14.9433 76.2856 18.7755 76.2856 23.4559ZM67.7419 28.4503C64.999 28.4503 62.7603 26.2203 62.7603 23.4559C62.7603 20.7231 64.999 18.5241 67.7419 18.5241C70.4847 18.5241 72.6914 20.7231 72.6914 23.4559C72.6914 26.2203 70.4847 28.4503 67.7419 28.4503ZM41.3401 32L37.588 31.1332V15.9127L41.3401 15.1525V32Z" fill="black"/>
</mask>
<g mask="url(#mask0_8_22807)">
<rect x="8.28564" y="8" width="68" height="24" fill="#5A6475"/>
</g>
</svg>
