<svg width="123" height="40" viewBox="0 0 123 40" fill="none" xmlns="http://www.w3.org/2000/svg">
<mask id="mask0_8_22811" style="mask-type:alpha" maskUnits="userSpaceOnUse" x="8" y="8" width="107" height="24">
<g clip-path="url(#clip0_8_22811)">
<path d="M67.5952 8.359H74.0932L70.8232 31.681H64.3252L67.5952 8.359ZM59.4022 8.359L55.0172 21.794L53.1042 8.359H48.5592L42.8172 21.754L42.1002 8.36H35.8012L37.9942 31.682H43.2172L49.6752 16.932L51.9472 31.682H57.0902L65.5822 8.359H59.4022ZM113.96 21.914H98.5312C98.6112 24.944 100.425 26.937 103.096 26.937C105.11 26.937 106.704 25.86 107.94 23.807L113.148 26.175C111.358 29.702 107.586 32 102.937 32C96.5982 32 92.3922 27.734 92.3922 20.877C92.3922 13.342 97.3352 8 104.312 8C110.452 8 114.319 12.146 114.319 18.605C114.319 19.681 114.199 20.757 113.96 21.914ZM108.18 17.448C108.18 14.738 106.664 13.023 104.233 13.023C101.721 13.023 99.6482 14.817 99.0892 17.448H108.18ZM15.4892 15.387L8.85718 23.139H20.7012L22.0312 19.484H16.9572L20.0572 15.898L20.0672 15.803L18.0512 12.332H27.1232L20.0912 31.682H24.9032L33.3952 8.358H11.4572L15.4902 15.386L15.4892 15.387ZM84.6572 13.023C86.9492 13.023 88.9572 14.256 90.7122 16.369L91.6332 9.794C90.0002 8.688 87.7872 8 84.8572 8C79.0372 8 75.7672 11.409 75.7672 15.734C75.7672 18.734 77.4422 20.568 80.1932 21.754L81.5082 22.352C83.9602 23.399 84.6182 23.917 84.6182 25.023C84.6182 26.169 83.5122 26.897 81.8282 26.897C79.0462 26.907 76.7942 25.482 75.1002 23.05L74.1602 29.749C76.0912 31.22 78.5652 32 81.8272 32C87.3592 32 90.7572 28.81 90.7572 24.385C90.7572 21.375 89.4222 19.442 86.0532 17.927L84.6182 17.249C82.6242 16.362 81.9472 15.874 81.9472 14.897C81.9472 13.841 82.8742 13.023 84.6572 13.023Z" fill="#163300"/>
</g>
</mask>
<g mask="url(#mask0_8_22811)">
<rect x="8.85718" y="8" width="106" height="24" fill="#5A6475"/>
</g>
<defs>
<clipPath id="clip0_8_22811">
<rect width="106" height="24" fill="white" transform="translate(8.85718 8)"/>
</clipPath>
</defs>
</svg>
