<svg width="195" height="44" viewBox="0 0 195 44" fill="none" xmlns="http://www.w3.org/2000/svg">
<path fill-rule="evenodd" clip-rule="evenodd" d="M4.79824 32.1054H7.85524C8.31119 32.1054 8.74254 31.8986 9.02816 31.5432L22.2966 15.0334C22.8971 14.2862 24.0338 14.2835 24.6379 15.0278L38.046 31.5488C38.3317 31.9009 38.761 32.1054 39.2144 32.1054H42.0792C43.3487 32.1054 44.0477 30.63 43.2437 29.6476L24.6268 6.89987C24.0252 6.16482 22.9015 6.16413 22.299 6.89843L3.63494 29.6461C2.82911 30.6283 3.52782 32.1054 4.79824 32.1054ZM16.2998 32.0715H14.6124C13.3407 32.0715 12.6424 30.5918 13.4509 29.6102L22.238 18.9409C22.8404 18.2094 23.9608 18.2101 24.5623 18.9423L33.3272 29.6116C34.1339 30.5936 33.4354 32.0715 32.1645 32.0715H30.4385C29.9731 32.0715 29.5339 31.8562 29.2489 31.4883L24.5841 25.4672C23.9837 24.6922 22.8144 24.6891 22.2099 25.4609L17.4845 31.4946C17.1993 31.8588 16.7624 32.0715 16.2998 32.0715ZM44.1532 33.816L44.1531 33.816C42.6036 33.5946 41.0541 33.3732 39.2832 33.3732C33.7491 33.3732 28.4364 34.9228 23.7877 38.0219C19.1391 35.1442 13.8264 33.3732 8.29226 33.3732C6.74271 33.3732 4.97179 33.5946 3.42225 33.816C2.31543 34.0373 1.42997 35.1442 1.65134 36.4724C1.8727 37.8005 2.97952 38.4646 4.3077 38.2433C5.63589 38.0219 6.96407 37.8005 8.29226 37.8005C13.3836 37.8005 18.2536 39.3501 22.4595 42.4492C23.1236 43.1133 24.2305 43.1133 25.1159 42.4492C30.4287 38.686 37.0696 37.1364 43.2678 38.2433C44.3746 38.4646 45.7028 37.5792 45.9241 36.4724C46.1455 35.1442 45.26 34.0373 44.1532 33.816Z" fill="url(#paint0_linear_1195_5033)"/>
<path d="M67.5853 22.2902H61.4927L60.4846 25.2049H57.2629L62.7638 9.88574H66.3361L71.837 25.2049H68.5934L67.5853 22.2902ZM66.7525 19.8355L64.539 13.4361L62.3255 19.8355H66.7525ZM73.1041 19.1343C73.1041 17.8777 73.3599 16.782 73.8712 15.8468C74.3826 14.8972 75.0912 14.1667 75.997 13.6553C76.9029 13.1293 77.9403 12.8663 79.1091 12.8663C80.614 12.8663 81.8559 13.2462 82.8348 14.0059C83.8283 14.7511 84.4931 15.803 84.8291 17.1618H81.5198C81.3445 16.6358 81.045 16.2268 80.6213 15.9345C80.2122 15.6277 79.7009 15.4743 79.0872 15.4743C78.2106 15.4743 77.5166 15.7957 77.0052 16.4386C76.4938 17.0668 76.2382 17.9654 76.2382 19.1343C76.2382 20.2885 76.4938 21.187 77.0052 21.8299C77.5166 22.4582 78.2106 22.7723 79.0872 22.7723C80.3291 22.7723 81.14 22.2171 81.5198 21.1067H84.8291C84.4931 22.4216 83.8283 23.4663 82.8348 24.2407C81.8413 25.015 80.5994 25.4022 79.1091 25.4022C77.9403 25.4022 76.9029 25.1465 75.997 24.6351C75.0912 24.1091 74.3826 23.3786 73.8712 22.4436C73.3599 21.4938 73.1041 20.3908 73.1041 19.1343ZM86.2879 19.1343C86.2879 17.8777 86.5436 16.782 87.055 15.8468C87.5664 14.8972 88.275 14.1667 89.1808 13.6553C90.0867 13.1293 91.1241 12.8663 92.2929 12.8663C93.7978 12.8663 95.0397 13.2462 96.0186 14.0059C97.0121 14.7511 97.6769 15.803 98.0129 17.1618H94.7036C94.5283 16.6358 94.2288 16.2268 93.8051 15.9345C93.396 15.6277 92.8846 15.4743 92.271 15.4743C91.3943 15.4743 90.7003 15.7957 90.1889 16.4386C89.6776 17.0668 89.4219 17.9654 89.4219 19.1343C89.4219 20.2885 89.6776 21.187 90.1889 21.8299C90.7003 22.4582 91.3943 22.7723 92.271 22.7723C93.5128 22.7723 94.3238 22.2171 94.7036 21.1067H98.0129C97.6769 22.4216 97.0121 23.4663 96.0186 24.2407C95.0251 25.015 93.7832 25.4022 92.2929 25.4022C91.1241 25.4022 90.0867 25.1465 89.1808 24.6351C88.275 24.1091 87.5664 23.3786 87.055 22.4436C86.5436 21.4938 86.2879 20.3908 86.2879 19.1343ZM105.652 25.4022C104.483 25.4022 103.431 25.1465 102.496 24.6351C101.561 24.1091 100.823 23.3713 100.283 22.4216C99.7566 21.4719 99.4936 20.3761 99.4936 19.1343C99.4936 17.8923 99.7639 16.7966 100.304 15.8468C100.86 14.8972 101.612 14.1667 102.562 13.6553C103.512 13.1293 104.571 12.8663 105.74 12.8663C106.908 12.8663 107.968 13.1293 108.917 13.6553C109.867 14.1667 110.612 14.8972 111.153 15.8468C111.708 16.7966 111.985 17.8923 111.985 19.1343C111.985 20.3761 111.701 21.4719 111.131 22.4216C110.576 23.3713 109.816 24.1091 108.852 24.6351C107.902 25.1465 106.835 25.4022 105.652 25.4022ZM105.652 22.7284C106.207 22.7284 106.726 22.597 107.208 22.334C107.705 22.0564 108.099 21.6472 108.391 21.1067C108.684 20.5661 108.83 19.9086 108.83 19.1343C108.83 17.98 108.523 17.0961 107.909 16.4824C107.31 15.8542 106.572 15.54 105.696 15.54C104.819 15.54 104.081 15.8542 103.482 16.4824C102.898 17.0961 102.606 17.98 102.606 19.1343C102.606 20.2885 102.891 21.1797 103.46 21.808C104.045 22.4216 104.775 22.7284 105.652 22.7284ZM125.699 13.0635V25.2049H122.608V23.6708C122.214 24.1968 121.695 24.6132 121.052 24.9201C120.424 25.2123 119.737 25.3583 118.992 25.3583C118.043 25.3583 117.202 25.1611 116.472 24.7666C115.741 24.3575 115.164 23.7658 114.74 22.9914C114.331 22.2025 114.127 21.2674 114.127 20.1862V13.0635H117.195V19.7479C117.195 20.7122 117.436 21.4573 117.918 21.9833C118.401 22.4947 119.058 22.7504 119.89 22.7504C120.738 22.7504 121.403 22.4947 121.885 21.9833C122.367 21.4573 122.608 20.7122 122.608 19.7479V13.0635H125.699ZM135.454 12.8882C136.9 12.8882 138.069 13.3485 138.96 14.2689C139.851 15.1748 140.297 16.4459 140.297 18.0823V25.2049H137.229V18.4987C137.229 17.5344 136.988 16.7966 136.506 16.2852C136.024 15.7592 135.366 15.4962 134.533 15.4962C133.686 15.4962 133.014 15.7592 132.517 16.2852C132.035 16.7966 131.794 17.5344 131.794 18.4987V25.2049H128.726V13.0635H131.794V14.5757C132.203 14.0497 132.722 13.6407 133.35 13.3485C133.993 13.0416 134.694 12.8882 135.454 12.8882ZM146.787 15.5838V21.4573C146.787 21.8664 146.882 22.166 147.072 22.3559C147.277 22.5312 147.612 22.6189 148.08 22.6189H149.505V25.2049H147.576C144.99 25.2049 143.697 23.9484 143.697 21.4354V15.5838H142.251V13.0635H143.697V10.0611H146.787V13.0635H149.505V15.5838H146.787ZM163.327 13.0635L155.81 30.9469H152.544L155.174 24.8981L150.309 13.0635H153.75L156.884 21.545L160.062 13.0635H163.327ZM166.34 25.3583C165.784 25.3583 165.324 25.1903 164.959 24.8543C164.608 24.5036 164.433 24.0726 164.433 23.5613C164.433 23.0499 164.608 22.6262 164.959 22.2902C165.324 21.9395 165.784 21.7642 166.34 21.7642C166.88 21.7642 167.326 21.9395 167.676 22.2902C168.027 22.6262 168.203 23.0499 168.203 23.5613C168.203 24.0726 168.027 24.5036 167.676 24.8543C167.326 25.1903 166.88 25.3583 166.34 25.3583Z" fill="white"/>
<path d="M171.769 19.0904C171.769 17.8631 172.01 16.7746 172.492 15.8249C172.989 14.8752 173.654 14.1447 174.487 13.6333C175.334 13.122 176.276 12.8663 177.314 12.8663C178.22 12.8663 179.009 13.0489 179.68 13.4141C180.367 13.7794 180.915 14.2397 181.325 14.7949V13.0635H184.415V25.2049H181.325V23.4297C180.93 23.9995 180.382 24.4744 179.68 24.8542C178.994 25.2195 178.198 25.4021 177.292 25.4021C176.269 25.4021 175.334 25.1391 174.487 24.6132C173.654 24.0872 172.989 23.3494 172.492 22.3996C172.01 21.4354 171.769 20.3323 171.769 19.0904ZM181.325 19.1342C181.325 18.389 181.178 17.7535 180.886 17.2275C180.594 16.6869 180.2 16.2778 179.703 16.0002C179.206 15.708 178.672 15.5619 178.103 15.5619C177.533 15.5619 177.007 15.7007 176.525 15.9783C176.043 16.2559 175.648 16.665 175.341 17.2056C175.049 17.7316 174.903 18.3598 174.903 19.0904C174.903 19.8209 175.049 20.4637 175.341 21.019C175.648 21.5596 176.043 21.976 176.525 22.2682C177.021 22.5604 177.548 22.7065 178.103 22.7065C178.672 22.7065 179.206 22.5677 179.703 22.2901C180.2 21.9979 180.594 21.5888 180.886 21.0628C181.178 20.5222 181.325 19.8793 181.325 19.1342ZM190.48 13.0635V25.2049H187.411V13.0635H190.48Z" fill="url(#paint1_linear_1195_5033)"/>
<path d="M189.127 11.3808L188.656 10.0724C188.133 8.62012 186.989 7.47652 185.537 6.95313L184.228 6.48196C184.11 6.43912 184.11 6.2719 184.228 6.22965L185.537 5.75848C186.989 5.23509 188.133 4.09149 188.656 2.63926L189.127 1.33078C189.17 1.21284 189.337 1.21284 189.38 1.33078L189.851 2.63926C190.374 4.09149 191.518 5.23509 192.97 5.75848L194.279 6.22965C194.397 6.27249 194.397 6.43971 194.279 6.48196L192.97 6.95313C191.518 7.47652 190.374 8.62012 189.851 10.0724L189.38 11.3808C189.337 11.4994 189.17 11.4994 189.127 11.3808Z" fill="#FF9F0A"/>
<path d="M58.7763 39.2106H60.658V39.9473H57.8635V34.3822H58.7763V39.2106ZM65.465 37.6332C65.465 37.7987 65.4544 37.9481 65.433 38.0816H62.062C62.0887 38.4339 62.2194 38.7168 62.4543 38.9303C62.6892 39.1439 62.9775 39.2506 63.3191 39.2506C63.8102 39.2506 64.1572 39.0451 64.36 38.6341H65.3449C65.2115 39.0398 64.9686 39.3734 64.6163 39.635C64.2693 39.8912 63.8369 40.0193 63.3191 40.0193C62.8974 40.0193 62.5184 39.9259 62.1821 39.7391C61.8511 39.5469 61.5895 39.28 61.3974 38.9384C61.2105 38.5914 61.1171 38.191 61.1171 37.7373C61.1171 37.2835 61.2079 36.8858 61.3894 36.5442C61.5762 36.1972 61.8351 35.9303 62.1661 35.7435C62.5024 35.5566 62.8867 35.4632 63.3191 35.4632C63.7355 35.4632 64.1065 35.554 64.4321 35.7355C64.7577 35.917 65.0113 36.1732 65.1928 36.5041C65.3743 36.8298 65.465 37.2061 65.465 37.6332ZM64.5122 37.3449C64.5068 37.0086 64.3867 36.739 64.1519 36.5362C63.917 36.3333 63.6261 36.2319 63.2791 36.2319C62.9641 36.2319 62.6945 36.3333 62.4703 36.5362C62.2461 36.7337 62.1127 37.0033 62.07 37.3449H64.5122ZM67.4283 36.2799V38.7222C67.4283 38.8876 67.4657 39.0077 67.5404 39.0825C67.6205 39.1519 67.754 39.1866 67.9408 39.1866H68.5013V39.9473H67.7806C67.3696 39.9473 67.0547 39.8512 66.8358 39.659C66.6169 39.4668 66.5075 39.1545 66.5075 38.7222V36.2799H65.987V35.5353H66.5075V34.4383H67.4283V35.5353H68.5013V36.2799H67.4283ZM74.7777 38.8102H72.4476L72.0472 39.9473H71.0943L73.0881 34.3742H74.1451L76.1389 39.9473H75.178L74.7777 38.8102ZM74.5214 38.0656L73.6166 35.4792L72.7038 38.0656H74.5214ZM77.9186 34.3822V39.9473H77.0058V34.3822H77.9186ZM83.4792 35.4632C83.8155 35.4632 84.1144 35.5353 84.376 35.6794C84.6429 35.8235 84.8511 36.0371 85.0005 36.32C85.1553 36.6029 85.2328 36.9445 85.2328 37.3449V39.9473H84.3279V37.481C84.3279 37.086 84.2292 36.7844 84.0317 36.5762C83.8342 36.3627 83.5646 36.2559 83.2229 36.2559C82.8813 36.2559 82.609 36.3627 82.4062 36.5762C82.2087 36.7844 82.1099 37.086 82.1099 37.481V39.9473H81.1971V34.0219H82.1099V36.0477C82.2647 35.8609 82.4596 35.7168 82.6945 35.6153C82.9347 35.5139 83.1962 35.4632 83.4792 35.4632ZM86.0928 37.7213C86.0928 37.2782 86.1836 36.8858 86.3651 36.5442C86.5519 36.2025 86.8028 35.9383 87.1178 35.7515C87.4381 35.5593 87.7904 35.4632 88.1747 35.4632C88.5217 35.4632 88.8233 35.5326 89.0795 35.6714C89.3411 35.8049 89.5493 35.973 89.7041 36.1759V35.5353H90.6249V39.9473H89.7041V39.2907C89.5493 39.4989 89.3384 39.6724 89.0715 39.8111C88.8046 39.9499 88.5004 40.0193 88.1587 40.0193C87.7797 40.0193 87.4327 39.9232 87.1178 39.7311C86.8028 39.5336 86.5519 39.2613 86.3651 38.9143C86.1836 38.562 86.0928 38.1643 86.0928 37.7213ZM89.7041 37.7373C89.7041 37.433 89.6401 37.1688 89.5119 36.9445C89.3892 36.7203 89.2263 36.5495 89.0235 36.4321C88.8206 36.3146 88.6018 36.2559 88.3669 36.2559C88.132 36.2559 87.9132 36.3146 87.7103 36.4321C87.5075 36.5442 87.342 36.7123 87.2139 36.9365C87.0911 37.1554 87.0297 37.417 87.0297 37.7213C87.0297 38.0255 87.0911 38.2924 87.2139 38.522C87.342 38.7515 87.5075 38.9277 87.7103 39.0505C87.9185 39.1679 88.1374 39.2266 88.3669 39.2266C88.6018 39.2266 88.8206 39.1679 89.0235 39.0505C89.2263 38.933 89.3892 38.7622 89.5119 38.538C89.6401 38.3084 89.7041 38.0415 89.7041 37.7373ZM94.0499 35.4632C94.3969 35.4632 94.7065 35.5353 94.9788 35.6794C95.2563 35.8235 95.4725 36.0371 95.6273 36.32C95.7822 36.6029 95.8596 36.9445 95.8596 37.3449V39.9473H94.9547V37.481C94.9547 37.086 94.856 36.7844 94.6585 36.5762C94.461 36.3627 94.1914 36.2559 93.8497 36.2559C93.5081 36.2559 93.2358 36.3627 93.033 36.5762C92.8355 36.7844 92.7367 37.086 92.7367 37.481V39.9473H91.8239V35.5353H92.7367V36.0397C92.8862 35.8582 93.0757 35.7168 93.3052 35.6153C93.5401 35.5139 93.7883 35.4632 94.0499 35.4632ZM96.7196 37.7213C96.7196 37.2782 96.8104 36.8858 96.9919 36.5442C97.1787 36.2025 97.4296 35.9383 97.7446 35.7515C98.0649 35.5593 98.4199 35.4632 98.8095 35.4632C99.0978 35.4632 99.3807 35.5273 99.6583 35.6554C99.9412 35.7782 100.165 35.9436 100.331 36.1518V34.0219H101.252V39.9473H100.331V39.2827C100.181 39.4962 99.9733 39.6724 99.7063 39.8111C99.4448 39.9499 99.1432 40.0193 98.8015 40.0193C98.4172 40.0193 98.0649 39.9232 97.7446 39.7311C97.4296 39.5336 97.1787 39.2613 96.9919 38.9143C96.8104 38.562 96.7196 38.1643 96.7196 37.7213ZM100.331 37.7373C100.331 37.433 100.267 37.1688 100.139 36.9445C100.016 36.7203 99.8531 36.5495 99.6503 36.4321C99.4474 36.3146 99.2286 36.2559 98.9937 36.2559C98.7588 36.2559 98.54 36.3146 98.3371 36.4321C98.1343 36.5442 97.9688 36.7123 97.8407 36.9365C97.7179 37.1554 97.6565 37.417 97.6565 37.7213C97.6565 38.0255 97.7179 38.2924 97.8407 38.522C97.9688 38.7515 98.1343 38.9277 98.3371 39.0505C98.5453 39.1679 98.7642 39.2266 98.9937 39.2266C99.2286 39.2266 99.4474 39.1679 99.6503 39.0505C99.8531 38.933 100.016 38.7622 100.139 38.538C100.267 38.3084 100.331 38.0415 100.331 37.7373ZM103.364 34.0219V39.9473H102.451V34.0219H103.364ZM108.606 37.6332C108.606 37.7987 108.595 37.9481 108.574 38.0816H105.203C105.229 38.4339 105.36 38.7168 105.595 38.9303C105.83 39.1439 106.118 39.2506 106.46 39.2506C106.951 39.2506 107.298 39.0451 107.501 38.6341H108.486C108.352 39.0398 108.109 39.3734 107.757 39.635C107.41 39.8912 106.978 40.0193 106.46 40.0193C106.038 40.0193 105.659 39.9259 105.323 39.7391C104.992 39.5469 104.73 39.28 104.538 38.9384C104.351 38.5914 104.258 38.191 104.258 37.7373C104.258 37.2835 104.348 36.8858 104.53 36.5442C104.717 36.1972 104.976 35.9303 105.307 35.7435C105.643 35.5566 106.027 35.4632 106.46 35.4632C106.876 35.4632 107.247 35.554 107.573 35.7355C107.898 35.917 108.152 36.1732 108.333 36.5041C108.515 36.8298 108.606 37.2061 108.606 37.6332ZM107.653 37.3449C107.647 37.0086 107.527 36.739 107.292 36.5362C107.058 36.3333 106.767 36.2319 106.42 36.2319C106.105 36.2319 105.835 36.3333 105.611 36.5362C105.387 36.7337 105.253 37.0033 105.211 37.3449H107.653ZM111.28 37.7213C111.28 37.2782 111.37 36.8858 111.552 36.5442C111.739 36.2025 111.99 35.9383 112.305 35.7515C112.625 35.5593 112.977 35.4632 113.362 35.4632C113.709 35.4632 114.01 35.5326 114.266 35.6714C114.528 35.8049 114.736 35.973 114.891 36.1759V35.5353H115.812V39.9473H114.891V39.2907C114.736 39.4989 114.525 39.6724 114.258 39.8111C113.991 39.9499 113.687 40.0193 113.346 40.0193C112.967 40.0193 112.62 39.9232 112.305 39.7311C111.99 39.5336 111.739 39.2613 111.552 38.9143C111.37 38.562 111.28 38.1643 111.28 37.7213ZM114.891 37.7373C114.891 37.433 114.827 37.1688 114.699 36.9445C114.576 36.7203 114.413 36.5495 114.21 36.4321C114.007 36.3146 113.789 36.2559 113.554 36.2559C113.319 36.2559 113.1 36.3146 112.897 36.4321C112.694 36.5442 112.529 36.7123 112.401 36.9365C112.278 37.1554 112.217 37.417 112.217 37.7213C112.217 38.0255 112.278 38.2924 112.401 38.522C112.529 38.7515 112.694 38.9277 112.897 39.0505C113.105 39.1679 113.324 39.2266 113.554 39.2266C113.789 39.2266 114.007 39.1679 114.21 39.0505C114.413 38.933 114.576 38.7622 114.699 38.538C114.827 38.3084 114.891 38.0415 114.891 37.7373ZM116.706 37.7373C116.706 37.2835 116.797 36.8858 116.979 36.5442C117.166 36.1972 117.422 35.9303 117.747 35.7435C118.073 35.5566 118.447 35.4632 118.868 35.4632C119.402 35.4632 119.843 35.5913 120.19 35.8476C120.542 36.0984 120.78 36.4588 120.902 36.9285H119.917C119.837 36.7097 119.709 36.5388 119.533 36.4161C119.357 36.2933 119.135 36.2319 118.868 36.2319C118.495 36.2319 118.196 36.3654 117.972 36.6323C117.753 36.8938 117.643 37.2622 117.643 37.7373C117.643 38.2124 117.753 38.5834 117.972 38.8503C118.196 39.1172 118.495 39.2506 118.868 39.2506C119.397 39.2506 119.747 39.0184 119.917 38.554H120.902C120.774 39.0024 120.534 39.3601 120.182 39.627C119.829 39.8885 119.392 40.0193 118.868 40.0193C118.447 40.0193 118.073 39.9259 117.747 39.7391C117.422 39.5469 117.166 39.28 116.979 38.9384C116.797 38.5914 116.706 38.191 116.706 37.7373ZM121.508 37.7373C121.508 37.2835 121.598 36.8858 121.78 36.5442C121.967 36.1972 122.223 35.9303 122.549 35.7435C122.874 35.5566 123.248 35.4632 123.67 35.4632C124.203 35.4632 124.644 35.5913 124.991 35.8476C125.343 36.0984 125.581 36.4588 125.703 36.9285H124.719C124.639 36.7097 124.51 36.5388 124.334 36.4161C124.158 36.2933 123.937 36.2319 123.67 36.2319C123.296 36.2319 122.997 36.3654 122.773 36.6323C122.554 36.8938 122.445 37.2622 122.445 37.7373C122.445 38.2124 122.554 38.5834 122.773 38.8503C122.997 39.1172 123.296 39.2506 123.67 39.2506C124.198 39.2506 124.548 39.0184 124.719 38.554H125.703C125.575 39.0024 125.335 39.3601 124.983 39.627C124.631 39.8885 124.193 40.0193 123.67 40.0193C123.248 40.0193 122.874 39.9259 122.549 39.7391C122.223 39.5469 121.967 39.28 121.78 38.9384C121.598 38.5914 121.508 38.191 121.508 37.7373ZM128.527 40.0193C128.111 40.0193 127.734 39.9259 127.398 39.7391C127.062 39.5469 126.797 39.28 126.605 38.9384C126.413 38.5914 126.317 38.191 126.317 37.7373C126.317 37.2889 126.416 36.8912 126.613 36.5442C126.811 36.1972 127.08 35.9303 127.422 35.7435C127.764 35.5566 128.145 35.4632 128.567 35.4632C128.989 35.4632 129.37 35.5566 129.712 35.7435C130.054 35.9303 130.323 36.1972 130.521 36.5442C130.718 36.8912 130.817 37.2889 130.817 37.7373C130.817 38.1857 130.716 38.5834 130.513 38.9303C130.31 39.2773 130.032 39.5469 129.68 39.7391C129.333 39.9259 128.949 40.0193 128.527 40.0193ZM128.527 39.2266C128.762 39.2266 128.981 39.1706 129.184 39.0585C129.392 38.9464 129.56 38.7782 129.688 38.554C129.816 38.3298 129.88 38.0576 129.88 37.7373C129.88 37.417 129.819 37.1474 129.696 36.9285C129.573 36.7043 129.41 36.5362 129.208 36.4241C129.005 36.312 128.786 36.2559 128.551 36.2559C128.316 36.2559 128.097 36.312 127.894 36.4241C127.697 36.5362 127.539 36.7043 127.422 36.9285C127.304 37.1474 127.246 37.417 127.246 37.7373C127.246 38.2124 127.366 38.5807 127.606 38.8423C127.852 39.0985 128.159 39.2266 128.527 39.2266ZM135.715 35.5353V39.9473H134.802V39.4268C134.658 39.6083 134.469 39.7524 134.234 39.8592C134.004 39.9606 133.759 40.0113 133.497 40.0113C133.15 40.0113 132.838 39.9393 132.56 39.7951C132.288 39.651 132.072 39.4375 131.912 39.1545C131.757 38.8716 131.679 38.53 131.679 38.1296V35.5353H132.584V37.9935C132.584 38.3885 132.683 38.6928 132.88 38.9063C133.078 39.1145 133.348 39.2186 133.689 39.2186C134.031 39.2186 134.3 39.1145 134.498 38.9063C134.701 38.6928 134.802 38.3885 134.802 37.9935V35.5353H135.715ZM139.145 35.4632C139.492 35.4632 139.802 35.5353 140.074 35.6794C140.352 35.8235 140.568 36.0371 140.723 36.32C140.878 36.6029 140.955 36.9445 140.955 37.3449V39.9473H140.05V37.481C140.05 37.086 139.951 36.7844 139.754 36.5762C139.556 36.3627 139.287 36.2559 138.945 36.2559C138.604 36.2559 138.331 36.3627 138.128 36.5762C137.931 36.7844 137.832 37.086 137.832 37.481V39.9473H136.919V35.5353H137.832V36.0397C137.982 35.8582 138.171 35.7168 138.401 35.6153C138.636 35.5139 138.884 35.4632 139.145 35.4632ZM143.184 36.2799V38.7222C143.184 38.8876 143.222 39.0077 143.296 39.0825C143.377 39.1519 143.51 39.1866 143.697 39.1866H144.257V39.9473H143.537C143.126 39.9473 142.811 39.8512 142.592 39.659C142.373 39.4668 142.264 39.1545 142.264 38.7222V36.2799H141.743V35.5353H142.264V34.4383H143.184V35.5353H144.257V36.2799H143.184ZM145.563 34.9507C145.398 34.9507 145.259 34.8947 145.147 34.7826C145.035 34.6705 144.979 34.5317 144.979 34.3662C144.979 34.2007 145.035 34.0619 145.147 33.9498C145.259 33.8377 145.398 33.7817 145.563 33.7817C145.723 33.7817 145.859 33.8377 145.971 33.9498C146.084 34.0619 146.14 34.2007 146.14 34.3662C146.14 34.5317 146.084 34.6705 145.971 34.7826C145.859 34.8947 145.723 34.9507 145.563 34.9507ZM146.012 35.5353V39.9473H145.099V35.5353H146.012ZM149.436 35.4632C149.783 35.4632 150.093 35.5353 150.365 35.6794C150.642 35.8235 150.859 36.0371 151.013 36.32C151.168 36.6029 151.246 36.9445 151.246 37.3449V39.9473H150.341V37.481C150.341 37.086 150.242 36.7844 150.045 36.5762C149.847 36.3627 149.577 36.2559 149.236 36.2559C148.894 36.2559 148.622 36.3627 148.419 36.5762C148.222 36.7844 148.123 37.086 148.123 37.481V39.9473H147.21V35.5353H148.123V36.0397C148.272 35.8582 148.462 35.7168 148.691 35.6153C148.926 35.5139 149.174 35.4632 149.436 35.4632ZM154.188 35.4632C154.529 35.4632 154.831 35.5326 155.092 35.6714C155.359 35.8049 155.568 35.973 155.717 36.1759V35.5353H156.638V40.0193C156.638 40.425 156.552 40.7854 156.382 41.1003C156.211 41.4206 155.963 41.6715 155.637 41.853C155.317 42.0345 154.932 42.1252 154.484 42.1252C153.886 42.1252 153.39 41.9838 152.995 41.7009C152.599 41.4233 152.375 41.0443 152.322 40.5638H153.227C153.296 40.7934 153.443 40.9775 153.667 41.1163C153.897 41.2605 154.169 41.3325 154.484 41.3325C154.852 41.3325 155.148 41.2204 155.373 40.9962C155.602 40.772 155.717 40.4464 155.717 40.0193V39.2827C155.562 39.4909 155.351 39.667 155.084 39.8111C154.823 39.9499 154.524 40.0193 154.188 40.0193C153.803 40.0193 153.451 39.9232 153.131 39.7311C152.816 39.5336 152.565 39.2613 152.378 38.9143C152.196 38.562 152.106 38.1643 152.106 37.7213C152.106 37.2782 152.196 36.8858 152.378 36.5442C152.565 36.2025 152.816 35.9383 153.131 35.7515C153.451 35.5593 153.803 35.4632 154.188 35.4632ZM155.717 37.7373C155.717 37.433 155.653 37.1688 155.525 36.9445C155.402 36.7203 155.239 36.5495 155.036 36.4321C154.834 36.3146 154.615 36.2559 154.38 36.2559C154.145 36.2559 153.926 36.3146 153.723 36.4321C153.52 36.5442 153.355 36.7123 153.227 36.9365C153.104 37.1554 153.043 37.417 153.043 37.7213C153.043 38.0255 153.104 38.2924 153.227 38.522C153.355 38.7515 153.52 38.9277 153.723 39.0505C153.931 39.1679 154.15 39.2266 154.38 39.2266C154.615 39.2266 154.834 39.1679 155.036 39.0505C155.239 38.933 155.402 38.7622 155.525 38.538C155.653 38.3084 155.717 38.0415 155.717 37.7373ZM161.766 36.2799H160.95V39.9473H160.029V36.2799H159.508V35.5353H160.029V35.223C160.029 34.7159 160.162 34.3475 160.429 34.118C160.701 33.8831 161.126 33.7657 161.702 33.7657V34.5264C161.425 34.5264 161.23 34.5797 161.118 34.6865C161.006 34.7879 160.95 34.9668 160.95 35.223V35.5353H161.766V36.2799ZM164.489 40.0193C164.073 40.0193 163.696 39.9259 163.36 39.7391C163.024 39.5469 162.76 39.28 162.567 38.9384C162.375 38.5914 162.279 38.191 162.279 37.7373C162.279 37.2889 162.378 36.8912 162.575 36.5442C162.773 36.1972 163.043 35.9303 163.384 35.7435C163.726 35.5566 164.107 35.4632 164.529 35.4632C164.951 35.4632 165.333 35.5566 165.674 35.7435C166.016 35.9303 166.285 36.1972 166.483 36.5442C166.68 36.8912 166.779 37.2889 166.779 37.7373C166.779 38.1857 166.678 38.5834 166.475 38.9303C166.272 39.2773 165.995 39.5469 165.642 39.7391C165.295 39.9259 164.911 40.0193 164.489 40.0193ZM164.489 39.2266C164.724 39.2266 164.943 39.1706 165.146 39.0585C165.354 38.9464 165.522 38.7782 165.65 38.554C165.778 38.3298 165.842 38.0576 165.842 37.7373C165.842 37.417 165.781 37.1474 165.658 36.9285C165.535 36.7043 165.373 36.5362 165.17 36.4241C164.967 36.312 164.748 36.2559 164.513 36.2559C164.278 36.2559 164.059 36.312 163.857 36.4241C163.659 36.5362 163.502 36.7043 163.384 36.9285C163.267 37.1474 163.208 37.417 163.208 37.7373C163.208 38.2124 163.328 38.5807 163.568 38.8423C163.814 39.0985 164.121 39.2266 164.489 39.2266ZM168.594 36.1759C168.728 35.9516 168.904 35.7782 169.123 35.6554C169.347 35.5273 169.611 35.4632 169.916 35.4632V36.4081H169.683C169.326 36.4081 169.054 36.4988 168.867 36.6803C168.685 36.8618 168.594 37.1768 168.594 37.6252V39.9473H167.682V35.5353H168.594V36.1759ZM176.806 35.5353L174.1 42.0211H173.155L174.052 39.8752L172.314 35.5353H173.331L174.572 38.8983L175.861 35.5353H176.806ZM179.409 40.0193C178.993 40.0193 178.616 39.9259 178.28 39.7391C177.944 39.5469 177.679 39.28 177.487 38.9384C177.295 38.5914 177.199 38.191 177.199 37.7373C177.199 37.2889 177.298 36.8912 177.495 36.5442C177.693 36.1972 177.962 35.9303 178.304 35.7435C178.646 35.5566 179.027 35.4632 179.449 35.4632C179.871 35.4632 180.252 35.5566 180.594 35.7435C180.936 35.9303 181.205 36.1972 181.403 36.5442C181.6 36.8912 181.699 37.2889 181.699 37.7373C181.699 38.1857 181.598 38.5834 181.395 38.9303C181.192 39.2773 180.914 39.5469 180.562 39.7391C180.215 39.9259 179.831 40.0193 179.409 40.0193ZM179.409 39.2266C179.644 39.2266 179.863 39.1706 180.066 39.0585C180.274 38.9464 180.442 38.7782 180.57 38.554C180.698 38.3298 180.762 38.0576 180.762 37.7373C180.762 37.417 180.701 37.1474 180.578 36.9285C180.455 36.7043 180.292 36.5362 180.09 36.4241C179.887 36.312 179.668 36.2559 179.433 36.2559C179.198 36.2559 178.979 36.312 178.776 36.4241C178.579 36.5362 178.421 36.7043 178.304 36.9285C178.186 37.1474 178.128 37.417 178.128 37.7373C178.128 38.2124 178.248 38.5807 178.488 38.8423C178.734 39.0985 179.041 39.2266 179.409 39.2266ZM186.597 35.5353V39.9473H185.684V39.4268C185.54 39.6083 185.351 39.7524 185.116 39.8592C184.886 39.9606 184.641 40.0113 184.379 40.0113C184.032 40.0113 183.72 39.9393 183.442 39.7951C183.17 39.651 182.954 39.4375 182.794 39.1545C182.639 38.8716 182.561 38.53 182.561 38.1296V35.5353H183.466V37.9935C183.466 38.3885 183.565 38.6928 183.762 38.9063C183.96 39.1145 184.229 39.2186 184.571 39.2186C184.913 39.2186 185.182 39.1145 185.38 38.9063C185.583 38.6928 185.684 38.3885 185.684 37.9935V35.5353H186.597Z" fill="#E4E4E4"/>
<defs>
<linearGradient id="paint0_linear_1195_5033" x1="23.7877" y1="6.34814" x2="23.7877" y2="42.9472" gradientUnits="userSpaceOnUse">
<stop stop-color="#FBC43E"/>
<stop offset="1" stop-color="#FF9A03"/>
</linearGradient>
<linearGradient id="paint1_linear_1195_5033" x1="126.334" y1="0.948317" x2="126.334" y2="31.6306" gradientUnits="userSpaceOnUse">
<stop stop-color="#FBC43E"/>
<stop offset="1" stop-color="#FF9A04"/>
</linearGradient>
</defs>
</svg>
