<svg xmlns="http://www.w3.org/2000/svg" width="24" height="24" viewBox="0 0 24 24" fill="none">
  <g clip-path="url(#clip0_74_47567)">
    <path d="M23.25 12C23.25 5.7868 18.2132 0.75 12 0.75C5.7868 0.75 0.75 5.7868 0.75 12C0.75 18.2132 5.7868 23.25 12 23.25C18.2132 23.25 23.25 18.2132 23.25 12Z" fill="#3BC7F5"/>
    <path fill-rule="evenodd" clip-rule="evenodd" d="M12.8789 23.2155C18.6598 22.7633 23.25 17.8918 23.25 12C23.25 6.10816 18.6598 1.23658 12.8789 0.784424C7.09805 1.23663 2.50781 6.10816 2.50781 12C2.50781 17.8918 7.09805 22.7634 12.8789 23.2155Z" fill="#B3EAFB"/>
    <path fill-rule="evenodd" clip-rule="evenodd" d="M5.40308 2.03711C5.07449 2.30153 4.86768 2.68544 4.86768 3.1128C4.86768 3.54016 5.07449 3.92406 5.40308 4.18848C5.73168 3.92406 5.93849 3.54016 5.93849 3.1128C5.93849 2.68544 5.73168 2.30153 5.40308 2.03711Z" fill="#50BC5D"/>
    <path fill-rule="evenodd" clip-rule="evenodd" d="M7.55445 4.18848C7.29003 3.85989 6.90612 3.65308 6.47876 3.65308C6.0514 3.65308 5.6675 3.85989 5.40308 4.18848C5.6675 4.51708 6.0514 4.72389 6.47876 4.72389C6.90612 4.72389 7.29003 4.51708 7.55445 4.18848Z" fill="#50BC5D"/>
    <path fill-rule="evenodd" clip-rule="evenodd" d="M5.40308 6.3398C5.73168 6.07538 5.93849 5.69148 5.93849 5.26412C5.93849 4.83676 5.73168 4.45285 5.40308 4.18848C5.07449 4.4529 4.86768 4.8368 4.86768 5.26412C4.86768 5.69143 5.07449 6.07538 5.40308 6.3398Z" fill="#50BC5D"/>
    <path fill-rule="evenodd" clip-rule="evenodd" d="M3.25171 4.18848C3.51613 4.51708 3.90004 4.72389 4.32735 4.72389C4.75466 4.72389 5.13862 4.51708 5.40304 4.18848C5.13862 3.85989 4.75471 3.65308 4.32735 3.65308C3.89999 3.65308 3.51608 3.85989 3.25171 4.18848Z" fill="#50BC5D"/>
    <path fill-rule="evenodd" clip-rule="evenodd" d="M5.40317 13.5167C5.45018 12.6569 5.14545 11.7814 4.48863 11.1246C3.83182 10.4677 2.95634 10.163 2.09651 10.21C2.04949 11.0699 2.35423 11.9453 3.01104 12.6022C3.66785 13.259 4.54334 13.5637 5.40317 13.5167Z" fill="#50BC5D"/>
    <path fill-rule="evenodd" clip-rule="evenodd" d="M5.4031 9.38138C5.33706 8.17318 5.76521 6.94295 6.68818 6.01998C7.61115 5.09701 8.84134 4.66881 10.0495 4.7349C10.1156 5.9431 9.68743 7.17329 8.76446 8.09626C7.8415 9.01923 6.61131 9.44748 5.4031 9.38138Z" fill="#50BC5D"/>
    <path fill-rule="evenodd" clip-rule="evenodd" d="M5.4031 9.38138C5.46915 8.17318 5.04099 6.94295 4.11798 6.01998C3.19501 5.09701 1.96482 4.66881 0.75662 4.7349C0.690573 5.9431 1.11873 7.17329 2.04174 8.09626C2.96471 9.01923 4.1949 9.44748 5.4031 9.38138Z" fill="#50BC5D"/>
    <path fill-rule="evenodd" clip-rule="evenodd" d="M5.12183 6.33984C5.12183 6.1845 5.24773 6.05859 5.40308 6.05859C5.55842 6.05859 5.68433 6.1845 5.68433 6.33984V15.9271C5.68433 16.0824 5.55842 16.2083 5.40308 16.2083C5.24773 16.2083 5.12183 16.0824 5.12183 15.9271V6.33984Z" fill="#006633"/>
    <path fill-rule="evenodd" clip-rule="evenodd" d="M16.9284 9.65178C16.8949 9.03818 17.1123 8.41348 17.581 7.94478C18.0497 7.47607 18.6745 7.25862 19.2881 7.29218C19.3216 7.90578 19.1042 8.53048 18.6355 8.99918C18.1668 9.46789 17.542 9.68534 16.9284 9.65178Z" fill="#50BC5D"/>
    <path fill-rule="evenodd" clip-rule="evenodd" d="M16.9284 9.65178C16.962 9.03818 16.7445 8.41348 16.2758 7.94478C15.8071 7.47607 15.1823 7.25862 14.5688 7.29218C14.5352 7.90578 14.7527 8.53048 15.2214 8.99918C15.6901 9.46789 16.3148 9.68534 16.9284 9.65178Z" fill="#50BC5D"/>
    <path fill-rule="evenodd" clip-rule="evenodd" d="M16.9283 6.70084C16.8812 5.83867 17.1867 4.96079 17.8454 4.30215C18.504 3.64351 19.3818 3.33798 20.2441 3.38509C20.2912 4.24726 19.9856 5.12514 19.327 5.78378C18.6684 6.44242 17.7905 6.74795 16.9283 6.70084Z" fill="#50BC5D"/>
    <path fill-rule="evenodd" clip-rule="evenodd" d="M16.9284 6.70084C16.9755 5.83867 16.67 4.96079 16.0113 4.30215C15.3527 3.64351 14.4749 3.33798 13.6126 3.38509C13.5655 4.24726 13.8711 5.12514 14.5297 5.78378C15.1883 6.44242 16.0662 6.74795 16.9284 6.70084Z" fill="#50BC5D"/>
    <path fill-rule="evenodd" clip-rule="evenodd" d="M16.6472 4.53052C16.6472 4.37517 16.7731 4.24927 16.9285 4.24927C17.0838 4.24927 17.2097 4.37517 17.2097 4.53052V10.9204C17.2097 11.0757 17.0838 11.2016 16.9285 11.2016C16.7731 11.2016 16.6472 11.0757 16.6472 10.9204V4.53052Z" fill="#006633"/>
    <path fill-rule="evenodd" clip-rule="evenodd" d="M1.0874 14.7278C6.88668 15.1209 11.9652 18.2527 15.0334 22.8316C14.0675 23.1039 13.05 23.25 12.0001 23.25C6.75248 23.25 2.31473 19.6085 1.0874 14.7278Z" fill="#C4D70D"/>
    <path fill-rule="evenodd" clip-rule="evenodd" d="M23.1755 10.7138C22.3489 10.5981 21.5056 10.5369 20.6485 10.5369C13.6497 10.5369 7.53851 14.5264 4.47363 20.3429C6.47088 22.1473 9.11285 23.2498 12 23.2498C18.1875 23.2498 23.25 18.1873 23.25 11.9998C23.25 11.565 23.2241 11.136 23.1755 10.7137V10.7138Z" fill="#4EB241"/>
    <path fill-rule="evenodd" clip-rule="evenodd" d="M5.40315 13.5167C5.35613 12.6569 5.66087 11.7814 6.31768 11.1246C6.97449 10.4677 7.84998 10.163 8.70981 10.21C8.75682 11.0699 8.45209 11.9453 7.79528 12.6022C7.13846 13.259 6.26298 13.5637 5.40315 13.5167Z" fill="#50BC5D"/>
    <path fill-rule="evenodd" clip-rule="evenodd" d="M23.2466 11.7389C23.0841 11.7346 22.9212 11.7322 22.7577 11.7322C15.6625 11.7322 9.47904 15.8321 6.45752 21.7796C8.09599 22.7144 9.98833 23.2498 11.9999 23.2498C18.1874 23.2498 23.2499 18.1873 23.2499 11.9998C23.2499 11.9126 23.2486 11.8257 23.2466 11.7389Z" fill="#83C035"/>
    <path fill-rule="evenodd" clip-rule="evenodd" d="M23.2302 12.6562C17.0114 13.4605 11.7469 17.4236 9.11157 22.8709C10.0342 23.1176 11.0024 23.25 12 23.25C17.9672 23.25 22.8873 18.5414 23.2302 12.6562H23.2302Z" fill="#A3CA28"/>
    <path fill-rule="evenodd" clip-rule="evenodd" d="M13.4648 23.1538C18.306 22.517 22.2034 18.7714 23.0697 14.0037C18.7867 15.7615 15.3896 19.0805 13.4648 23.1538Z" fill="#C4D70D"/>
  </g>
  <defs>
    <clipPath id="clip0_74_47567">
      <rect width="24" height="24" fill="white"/>
    </clipPath>
  </defs>
</svg>