<svg width="152" height="122" viewBox="0 0 152 122" fill="none" xmlns="http://www.w3.org/2000/svg">
<path d="M68.9627 38.5737L73.1283 50.1419C77.7555 62.9809 87.866 73.0914 100.705 77.7186L112.273 81.8842C113.316 82.2629 113.316 83.7413 112.273 84.1148L100.705 88.2804C87.866 92.9076 77.7555 103.018 73.1283 115.857L68.9627 127.425C68.584 128.468 67.1056 128.468 66.7321 127.425L62.5665 115.857C57.9393 103.018 47.8289 92.9076 34.9898 88.2804L23.4217 84.1148C22.379 83.7361 22.379 82.2577 23.4217 81.8842L34.9898 77.7186C47.8289 73.0914 57.9393 62.9809 62.5665 50.1419L66.7321 38.5737C67.1056 37.5259 68.584 37.5259 68.9627 38.5737Z" fill="#F1F1FF"/>
<path d="M121.035 10.7745L123.146 16.6312C125.491 23.1311 130.611 28.2512 137.111 30.596L142.967 32.7073C143.497 32.8992 143.497 33.6462 142.967 33.8381L137.111 35.9494C130.611 38.2942 125.491 43.4143 123.146 49.9142L121.035 55.7709C120.843 56.3 120.096 56.3 119.904 55.7709L117.793 49.9142C115.448 43.4143 110.328 38.2942 103.828 35.9494L97.9711 33.8381C97.4419 33.6462 97.4419 32.8992 97.9711 32.7073L103.828 30.596C110.328 28.2512 115.448 23.1311 117.793 16.6312L119.904 10.7745C120.096 10.2402 120.848 10.2402 121.035 10.7745Z" fill="#F1F1FF"/>
<path d="M121.035 98.3968L123.146 104.254C125.491 110.753 130.611 115.874 137.111 118.218L142.967 120.33C143.497 120.522 143.497 121.269 142.967 121.46L137.111 123.572C130.611 125.917 125.491 131.037 123.146 137.537L121.035 143.393C120.843 143.922 120.096 143.922 119.904 143.393L117.793 137.537C115.448 131.037 110.328 125.917 103.828 123.572L97.9711 121.46C97.4419 121.269 97.4419 120.522 97.9711 120.33L103.828 118.218C110.328 115.874 115.448 110.753 117.793 104.254L119.904 98.3968C120.096 97.8677 120.848 97.8677 121.035 98.3968Z" fill="#F1F1FF"/>
</svg>
