<svg xmlns="http://www.w3.org/2000/svg" width="21" height="20" viewBox="0 0 21 20" fill="none">
  <path d="M17.9998 15.8333H2.99984C2.77882 15.8333 2.56686 15.9211 2.41058 16.0774C2.2543 16.2337 2.1665 16.4456 2.1665 16.6666C2.1665 16.8877 2.2543 17.0996 2.41058 17.2559C2.56686 17.4122 2.77882 17.5 2.99984 17.5H17.9998C18.2209 17.5 18.4328 17.4122 18.5891 17.2559C18.7454 17.0996 18.8332 16.8877 18.8332 16.6666C18.8332 16.4456 18.7454 16.2337 18.5891 16.0774C18.4328 15.9211 18.2209 15.8333 17.9998 15.8333Z" fill="white"/>
  <path d="M10.5 1.66666C10.279 1.66666 10.067 1.75445 9.91074 1.91073C9.75446 2.06701 9.66666 2.27898 9.66666 2.49999V11.325L6.92499 8.57499C6.76807 8.41807 6.55524 8.32991 6.33333 8.32991C6.11141 8.32991 5.89858 8.41807 5.74166 8.57499C5.58474 8.73191 5.49658 8.94474 5.49658 9.16666C5.49658 9.38858 5.58474 9.6014 5.74166 9.75832L9.90833 13.925C9.98579 14.0031 10.078 14.0651 10.1795 14.1074C10.2811 14.1497 10.39 14.1715 10.5 14.1715C10.61 14.1715 10.7189 14.1497 10.8205 14.1074C10.922 14.0651 11.0142 14.0031 11.0917 13.925L15.2583 9.75832C15.336 9.68062 15.3977 9.58838 15.4397 9.48687C15.4818 9.38535 15.5034 9.27654 15.5034 9.16666C15.5034 9.05677 15.4818 8.94797 15.4397 8.84645C15.3977 8.74493 15.336 8.65269 15.2583 8.57499C15.1806 8.49729 15.0884 8.43566 14.9869 8.39361C14.8853 8.35156 14.7765 8.32991 14.6667 8.32991C14.5568 8.32991 14.448 8.35156 14.3465 8.39361C14.2449 8.43566 14.1527 8.49729 14.075 8.57499L11.3333 11.325V2.49999C11.3333 2.27898 11.2455 2.06701 11.0892 1.91073C10.933 1.75445 10.721 1.66666 10.5 1.66666Z" fill="white"/>
</svg>