<svg width="24" height="24" viewBox="0 0 24 24" fill="none" xmlns="http://www.w3.org/2000/svg">
<g clip-path="url(#clip0_708_4925)">
<path d="M12.6873 23.4748C18.9351 23.4748 24 18.41 24 12.1621C24 5.9143 18.9351 0.849426 12.6873 0.849426C6.43944 0.849426 1.37457 5.9143 1.37457 12.1621C1.37457 18.41 6.43944 23.4748 12.6873 23.4748Z" fill="url(#paint0_linear_708_4925)"/>
<path d="M20.6528 6.21188C20.2647 5.92675 19.8531 5.66519 19.4217 5.42769C19.1842 4.9963 18.9227 4.58472 18.6375 4.19654C17.054 2.04091 14.9408 0.85376 12.6873 0.85376C10.4337 0.85376 8.32057 2.04091 6.73708 4.19654C6.45191 4.58472 6.1904 4.99635 5.9529 5.42769C5.52151 5.66519 5.10993 5.9267 4.72174 6.21188C2.56612 7.79541 1.37897 9.90854 1.37897 12.1621C1.37897 14.4156 2.56612 16.5288 4.72174 18.1123C5.10993 18.3975 5.52156 18.659 5.9529 18.8965C6.1904 19.3278 6.45191 19.7395 6.73708 20.1276C8.32061 22.2833 10.4337 23.4704 12.6873 23.4704C14.9408 23.4704 17.054 22.2833 18.6375 20.1276C18.9227 19.7395 19.1842 19.3278 19.4217 18.8964C19.8531 18.6589 20.2647 18.3974 20.6528 18.1123C22.8085 16.5288 23.9956 14.4156 23.9956 12.162C23.9956 9.90849 22.8085 7.79541 20.6528 6.21188ZM12.6873 22.9381C12.0663 22.9381 11.408 22.013 10.8876 20.4344C11.4774 20.5038 12.0786 20.5397 12.6873 20.5397C13.296 20.5397 13.8972 20.5038 14.487 20.4344C13.9666 22.013 13.3083 22.9381 12.6873 22.9381ZM12.6873 20.0074C12.0145 20.0074 11.356 19.9619 10.7169 19.8755C10.3623 18.6215 10.1048 17.1162 9.95746 15.4727C10.8396 15.5358 11.7549 15.5683 12.6873 15.5683C13.6197 15.5683 14.535 15.5358 15.4171 15.4727C15.2698 17.1162 15.0123 18.6215 14.6577 19.8755C14.0186 19.9619 13.3602 20.0074 12.6873 20.0074ZM12.6873 1.38614C13.3083 1.38614 13.9666 2.31127 14.487 3.88981C13.8972 3.82039 13.296 3.78444 12.6873 3.78444C12.0786 3.78444 11.4774 3.82039 10.8876 3.88981C11.408 2.31122 12.0663 1.38614 12.6873 1.38614ZM12.6873 4.31682C13.3602 4.31682 14.0186 4.36237 14.6577 4.44872C15.0123 5.70275 15.2698 7.20802 15.4171 8.8515C14.535 8.78844 13.6197 8.75592 12.6873 8.75592C11.7549 8.75592 10.8397 8.78844 9.95746 8.8515C10.1048 7.20802 10.3623 5.70275 10.7169 4.44872C11.356 4.36237 12.0145 4.31682 12.6873 4.31682ZM9.81341 12.1621C9.81341 11.2129 9.84763 10.2827 9.9136 9.3884C10.808 9.32242 11.7381 9.28821 12.6873 9.28821C13.6365 9.28821 14.5666 9.32242 15.461 9.3884C15.527 10.2827 15.5612 11.2129 15.5612 12.1621C15.5612 13.1113 15.527 14.0414 15.461 14.9357C14.5666 15.0017 13.6365 15.0359 12.6873 15.0359C11.7381 15.0359 10.808 15.0017 9.9136 14.9357C9.84763 14.0415 9.81341 13.1113 9.81341 12.1621ZM9.37666 14.8919C7.73318 14.7446 6.22786 14.4871 4.97388 14.1324C4.88758 13.4934 4.84198 12.8349 4.84198 12.1621C4.84198 11.4892 4.88753 10.8308 4.97388 10.1917C6.22786 9.8371 7.73318 9.5796 9.37666 9.43225C9.3136 10.3144 9.28109 11.2297 9.28109 12.1621C9.28109 13.0945 9.31356 14.0098 9.37666 14.8919ZM15.998 9.4323C17.6415 9.57959 19.1467 9.8371 20.4008 10.1918C20.4871 10.8308 20.5327 11.4893 20.5327 12.1621C20.5327 12.835 20.4871 13.4934 20.4008 14.1325C19.1467 14.4872 17.6415 14.7446 15.998 14.892C16.061 14.0098 16.0936 13.0946 16.0936 12.1621C16.0936 11.2297 16.061 10.3145 15.998 9.4323ZM15.9553 8.89414C15.8151 7.28322 15.5707 5.79776 15.2344 4.53879C16.6226 4.78468 17.9064 5.22675 19.0271 5.82237C19.6227 6.94308 20.0648 8.2268 20.3106 9.61503C19.0517 9.2787 17.5662 9.03432 15.9553 8.89414ZM9.4193 8.89414C7.80838 9.03432 6.32292 9.2787 5.06396 9.61503C5.30984 8.2268 5.75191 6.94308 6.34753 5.82237C7.46824 5.22675 8.75196 4.78468 10.1402 4.53879C9.80386 5.79776 9.55953 7.28322 9.4193 8.89414ZM4.41497 13.9618C2.83643 13.4414 1.9113 12.7831 1.9113 12.1621C1.9113 11.5411 2.83638 10.8828 4.41497 10.3624C4.3456 10.9522 4.3096 11.5534 4.3096 12.1621C4.3096 12.7707 4.3456 13.372 4.41497 13.9618ZM9.4193 15.4301C9.55949 17.041 9.80386 18.5265 10.1402 19.7854C8.75196 19.5395 7.46824 19.0975 6.34753 18.5019C5.75191 17.3811 5.30984 16.0974 5.06396 14.7092C6.32297 15.0455 7.80843 15.2899 9.4193 15.4301ZM15.9553 15.4301C17.5662 15.2899 19.0517 15.0455 20.3106 14.7092C20.0648 16.0974 19.6227 17.3811 19.0271 18.5019C17.9064 19.0975 16.6226 19.5395 15.2344 19.7854C15.5707 18.5265 15.8151 17.041 15.9553 15.4301ZM20.9596 10.3624C22.5382 10.8828 23.4632 11.5411 23.4632 12.1621C23.4632 12.7832 22.5382 13.4414 20.9596 13.9619C21.029 13.372 21.0649 12.7708 21.0649 12.1621C21.065 11.5534 21.029 10.9523 20.9596 10.3624ZM23.3376 10.9632C22.8167 10.519 21.991 10.1197 20.8792 9.77809C20.6856 8.5523 20.343 7.38449 19.8633 6.31484C21.6834 7.50002 22.9493 9.12755 23.3376 10.9632ZM18.5346 4.98614C17.465 4.50647 16.2971 4.16378 15.0713 3.97014C14.7297 2.85837 14.3304 2.03268 13.8862 1.51178C15.7219 1.90011 17.3494 3.16595 18.5346 4.98614ZM11.4884 1.51183C11.0442 2.03272 10.6449 2.85842 10.3033 3.97018C9.07751 4.16378 7.90965 4.50647 6.84 4.98614C8.02518 3.16595 9.65271 1.90011 11.4884 1.51183ZM5.5113 6.3148C5.03167 7.38444 4.68894 8.5523 4.49534 9.77809C3.38358 10.1197 2.55788 10.519 2.03699 10.9632C2.42527 9.12755 3.69116 7.50002 5.5113 6.3148ZM2.03699 13.361C2.55788 13.8052 3.38358 14.2045 4.49534 14.5461C4.68894 15.7719 5.03167 16.9398 5.5113 18.0094C3.69116 16.8242 2.42527 15.1967 2.03699 13.361ZM6.83996 19.3381C7.9096 19.8178 9.07746 20.1604 10.3033 20.354C10.6449 21.4658 11.0442 22.2915 11.4884 22.8124C9.65271 22.4241 8.02518 21.1582 6.83996 19.3381ZM13.8862 22.8124C14.3304 22.2915 14.7297 21.4658 15.0713 20.354C16.2971 20.1604 17.4649 19.8177 18.5346 19.3381C17.3494 21.1582 15.7219 22.4241 13.8862 22.8124ZM19.8633 18.0094C20.343 16.9398 20.6856 15.7719 20.8792 14.5462C21.991 14.2045 22.8167 13.8052 23.3376 13.3611C22.9493 15.1967 21.6834 16.8242 19.8633 18.0094Z" fill="url(#paint1_linear_708_4925)"/>
<path d="M8.79653 1.53662C5.96416 2.57408 3.66251 4.71182 2.40863 7.43215C2.26002 7.75455 2.18646 8.10646 2.18646 8.46147C2.18646 9.1227 2.44914 9.75681 2.91667 10.2244L3.14787 10.4556C4.18402 11.4917 5.58929 12.0738 7.0546 12.0738C7.27352 12.0738 7.45098 11.8963 7.45098 11.6775C7.45098 11.4586 7.27352 11.2811 7.0546 11.2811H5.8362C5.27427 11.2811 4.8187 10.8256 4.8187 10.2636C4.8187 9.70166 5.27423 9.24608 5.8362 9.24608H6.78783C7.92891 9.24608 9.02326 8.79281 9.83009 7.98594L11.2994 6.51662C11.6194 6.19667 12.0533 6.01691 12.5058 6.01691C13.1604 6.01691 13.7572 5.64241 14.042 5.053C14.391 4.33065 13.8647 3.49192 13.0625 3.49192H11.1667C10.6094 3.49192 10.1575 3.04011 10.1575 2.48269C10.1575 1.77935 9.45705 1.2947 8.79653 1.53662Z" fill="url(#paint2_linear_708_4925)"/>
<path d="M23.7366 9.72467C23.5804 9.01329 22.9443 8.51013 22.216 8.51013H20.6213H19.7688C18.3199 8.51013 17.1454 9.68467 17.1454 11.1336V11.4528C17.1454 12.7254 18.1771 13.7571 19.4497 13.7571C20.0967 13.7571 20.6213 14.2816 20.6213 14.9287V17.9882C20.6213 18.7854 21.6565 19.103 22.0996 18.4402C23.0203 17.0628 23.6467 15.4716 23.8887 13.7571C23.9619 13.2362 24 12.7034 24 12.1622C24 11.3252 23.909 10.5097 23.7366 9.72467Z" fill="url(#paint3_linear_708_4925)"/>
<path d="M17.7478 2.04248C18.5108 3.56526 18.9409 5.2838 18.9409 7.103C18.9409 13.3508 13.8761 18.4157 7.62821 18.4157C5.80901 18.4157 4.09046 17.9856 2.56769 17.2226C4.4251 20.9296 8.2587 23.4748 12.6873 23.4748C18.9351 23.4748 24 18.41 24 12.1621C24 7.73349 21.4548 3.89989 17.7478 2.04248Z" fill="url(#paint4_linear_708_4925)"/>
<path d="M18.397 7.48746C17.8298 6.92026 16.4198 7.38935 13.7356 9.89645L12.1669 9.70313L11.6602 9.18036C11.3894 8.90953 10.9503 8.90953 10.6795 9.18036C10.6148 9.24511 10.5662 9.31965 10.5326 9.39909L10.1292 8.99321C9.85833 8.72238 9.41927 8.72238 9.14845 8.99321C9.05786 9.08379 8.99833 9.19335 8.96831 9.30897L8.36163 9.23419C8.21697 9.21636 8.05095 9.28252 7.92549 9.40803L6.88709 10.4464C6.77749 10.556 6.778 10.7139 6.88817 10.7613L10.0132 13.8151C9.1021 14.875 8.26967 15.923 7.63057 16.8262L6.0749 16.6151C6.0124 16.6066 5.94022 16.635 5.88572 16.6895L5.40111 17.1741C5.30756 17.2677 5.29918 17.4019 5.38356 17.4561L6.55189 18.5898C6.35575 19.0188 6.30167 19.3228 6.4317 19.4528L10.1729 23.194C10.9816 23.3775 11.823 23.4749 12.6872 23.4749C18.6344 23.4749 23.5094 18.8857 23.9649 13.0555L18.397 7.48746Z" fill="url(#paint5_linear_708_4925)"/>
<path d="M9.63883 10.177C10.0218 10.177 10.3323 9.86655 10.3323 9.48356C10.3323 9.10057 10.0218 8.7901 9.63883 8.7901C9.25585 8.7901 8.94537 9.10057 8.94537 9.48356C8.94537 9.86655 9.25585 10.177 9.63883 10.177Z" fill="url(#paint6_linear_708_4925)"/>
<path d="M9.63883 10.0623C9.95848 10.0623 10.2176 9.80315 10.2176 9.4835C10.2176 9.16385 9.95848 8.90472 9.63883 8.90472C9.31919 8.90472 9.06006 9.16385 9.06006 9.4835C9.06006 9.80315 9.31919 10.0623 9.63883 10.0623Z" fill="url(#paint7_linear_708_4925)"/>
<path d="M10.2968 9.26422C10.2638 9.36328 10.208 9.45641 10.1291 9.53528C9.85833 9.8061 9.41927 9.8061 9.14844 9.53528C9.06957 9.45641 9.01376 9.36328 8.98082 9.26422C8.90063 9.5054 8.95649 9.78192 9.14844 9.97387C9.41927 10.2447 9.85833 10.2447 10.1291 9.97387C10.3211 9.78192 10.377 9.50544 10.2968 9.26422Z" fill="url(#paint8_linear_708_4925)"/>
<path d="M9.63883 10.177C10.0218 10.177 10.3323 9.86655 10.3323 9.48356C10.3323 9.10057 10.0218 8.7901 9.63883 8.7901C9.25585 8.7901 8.94537 9.10057 8.94537 9.48356C8.94537 9.86655 9.25585 10.177 9.63883 10.177Z" fill="url(#paint9_linear_708_4925)"/>
<path d="M11.6603 10.1611C11.3894 10.4319 10.9504 10.4319 10.6796 10.1611C10.4087 9.89023 10.4087 9.45118 10.6796 9.18035C10.9504 8.90953 11.3894 8.90953 11.6603 9.18035C11.931 9.45118 11.931 9.89028 11.6603 10.1611Z" fill="url(#paint10_linear_708_4925)"/>
<path d="M11.1699 10.2495C11.4896 10.2495 11.7487 9.99041 11.7487 9.67076C11.7487 9.35111 11.4896 9.09198 11.1699 9.09198C10.8503 9.09198 10.5911 9.35111 10.5911 9.67076C10.5911 9.99041 10.8503 10.2495 11.1699 10.2495Z" fill="url(#paint11_linear_708_4925)"/>
<path d="M11.8278 9.45142C11.7949 9.55047 11.739 9.6436 11.6602 9.72247C11.3894 9.9933 10.9503 9.9933 10.6795 9.72247C10.6006 9.6436 10.5448 9.55047 10.5119 9.45142C10.4317 9.69259 10.4876 9.96911 10.6795 10.1611C10.9503 10.4319 11.3894 10.4319 11.6602 10.1611C11.8522 9.96906 11.908 9.69259 11.8278 9.45142Z" fill="url(#paint12_linear_708_4925)"/>
<path d="M11.6603 10.1611C11.3894 10.4319 10.9504 10.4319 10.6796 10.1611C10.4087 9.89023 10.4087 9.45118 10.6796 9.18035C10.9504 8.90953 11.3894 8.90953 11.6603 9.18035C11.931 9.45118 11.931 9.89028 11.6603 10.1611Z" fill="url(#paint13_linear_708_4925)"/>
<path d="M16.4009 16.9392C16.7839 16.9392 17.0944 16.6287 17.0944 16.2457C17.0944 15.8627 16.7839 15.5522 16.4009 15.5522C16.0179 15.5522 15.7075 15.8627 15.7075 16.2457C15.7075 16.6287 16.0179 16.9392 16.4009 16.9392Z" fill="url(#paint14_linear_708_4925)"/>
<path d="M16.4009 16.8245C16.7206 16.8245 16.9797 16.5654 16.9797 16.2457C16.9797 15.9261 16.7206 15.6669 16.4009 15.6669C16.0813 15.6669 15.8221 15.9261 15.8221 16.2457C15.8221 16.5654 16.0813 16.8245 16.4009 16.8245Z" fill="url(#paint15_linear_708_4925)"/>
<path d="M16.6202 15.5877C16.5212 15.6206 16.428 15.6765 16.3492 15.7553C16.0783 16.0261 16.0783 16.4652 16.3492 16.736C16.428 16.8149 16.5212 16.8707 16.6202 16.9036C16.379 16.9838 16.1025 16.928 15.9106 16.736C15.6398 16.4652 15.6398 16.0261 15.9106 15.7553C16.1025 15.5633 16.379 15.5075 16.6202 15.5877Z" fill="url(#paint16_linear_708_4925)"/>
<path d="M16.4009 16.9392C16.7839 16.9392 17.0944 16.6287 17.0944 16.2457C17.0944 15.8627 16.7839 15.5522 16.4009 15.5522C16.0179 15.5522 15.7075 15.8627 15.7075 16.2457C15.7075 16.6287 16.0179 16.9392 16.4009 16.9392Z" fill="url(#paint17_linear_708_4925)"/>
<path d="M15.7234 14.2243C15.4526 14.4951 15.4526 14.9342 15.7234 15.205C15.9943 15.4758 16.4333 15.4758 16.7041 15.205C16.975 14.9342 16.975 14.4951 16.7041 14.2243C16.4333 13.9535 15.9943 13.9535 15.7234 14.2243Z" fill="url(#paint18_linear_708_4925)"/>
<path d="M16.2138 15.2934C16.5334 15.2934 16.7926 15.0343 16.7926 14.7146C16.7926 14.395 16.5334 14.1359 16.2138 14.1359C15.8941 14.1359 15.635 14.395 15.635 14.7146C15.635 15.0343 15.8941 15.2934 16.2138 15.2934Z" fill="url(#paint19_linear_708_4925)"/>
<path d="M16.4331 14.0566C16.334 14.0895 16.2409 14.1454 16.162 14.2242C15.8912 14.4951 15.8912 14.9341 16.162 15.2049C16.2409 15.2838 16.334 15.3396 16.4331 15.3726C16.1919 15.4527 15.9154 15.3969 15.7234 15.2049C15.4526 14.9341 15.4526 14.4951 15.7234 14.2242C15.9154 14.0323 16.1919 13.9765 16.4331 14.0566Z" fill="url(#paint20_linear_708_4925)"/>
<path d="M15.7234 14.2243C15.4526 14.4951 15.4526 14.9342 15.7234 15.205C15.9943 15.4758 16.4333 15.4758 16.7041 15.205C16.975 14.9342 16.975 14.4951 16.7041 14.2243C16.4333 13.9535 15.9943 13.9535 15.7234 14.2243Z" fill="url(#paint21_linear_708_4925)"/>
<path d="M5.3836 17.4561L6.87 18.4111L8.35635 16.9247L6.07494 16.6151C6.01245 16.6067 5.94026 16.635 5.88576 16.6895L5.40115 17.1741C5.3076 17.2677 5.29927 17.4019 5.3836 17.4561Z" fill="url(#paint22_linear_708_4925)"/>
<path d="M5.54611 17.0291L5.40117 17.1741C5.30762 17.2676 5.29924 17.4018 5.38362 17.456L6.87002 18.4111L8.0167 17.2644L5.73529 16.9547C5.67279 16.9463 5.60061 16.9747 5.54611 17.0291Z" fill="url(#paint23_linear_708_4925)"/>
<path d="M8.4284 20.5009L7.47339 19.0145L8.95974 17.5281L9.26934 19.8095C9.27781 19.872 9.24944 19.9443 9.19499 19.9987L8.71038 20.4833C8.61678 20.5769 8.48261 20.5852 8.4284 20.5009Z" fill="url(#paint24_linear_708_4925)"/>
<path d="M8.85532 20.3383L8.71038 20.4833C8.61682 20.5768 8.48261 20.5852 8.4284 20.5008L7.47339 19.0144L8.62007 17.8677L8.92967 20.1491C8.93819 20.2116 8.90977 20.2839 8.85532 20.3383Z" fill="url(#paint25_linear_708_4925)"/>
<path d="M6.88822 10.7614L11.6182 12.7999L14.4353 9.98273L8.36168 9.23425C8.21702 9.21642 8.05099 9.28258 7.92553 9.40809L6.88713 10.4465C6.77758 10.556 6.7781 10.7139 6.88822 10.7614Z" fill="url(#paint26_linear_708_4925)"/>
<path d="M7.25624 10.0773L6.88711 10.4464C6.77751 10.556 6.77803 10.7139 6.88819 10.7614L11.6182 12.7998L13.766 10.652L7.69238 9.90352C7.54772 9.88564 7.38174 9.9518 7.25624 10.0773Z" fill="url(#paint27_linear_708_4925)"/>
<path d="M9.95939 10.1829L7.69238 9.90351C7.54772 9.88567 7.38174 9.95183 7.25624 10.0773L6.88711 10.4465C6.77751 10.5561 6.77803 10.714 6.88819 10.7614L8.63017 11.5121L9.95939 10.1829Z" fill="url(#paint28_linear_708_4925)"/>
<path d="M6.88821 10.7613L11.6182 12.7998L12.5869 11.8311L7.34318 9.99042L6.88718 10.4464C6.77758 10.556 6.77809 10.7139 6.88821 10.7613Z" fill="url(#paint29_linear_708_4925)"/>
<path d="M15.1231 18.9963L13.0847 14.2663L15.9018 11.4492L16.6503 17.5228C16.6681 17.6675 16.6019 17.8335 16.4764 17.9589L15.4381 18.9973C15.3285 19.1069 15.1706 19.1064 15.1231 18.9963Z" fill="url(#paint30_linear_708_4925)"/>
<path d="M15.8071 18.6283L15.438 18.9974C15.3284 19.107 15.1705 19.1065 15.1231 18.9963L13.0847 14.2663L15.2325 12.1185L15.981 18.1921C15.9988 18.3368 15.9327 18.5028 15.8071 18.6283Z" fill="url(#paint31_linear_708_4925)"/>
<path d="M15.7017 15.9251L15.981 18.1921C15.9989 18.3368 15.9327 18.5028 15.8072 18.6283L15.4381 18.9974C15.3285 19.107 15.1706 19.1065 15.1232 18.9963L14.3724 17.2543L15.7017 15.9251Z" fill="url(#paint32_linear_708_4925)"/>
<path d="M15.1231 18.9963L13.0847 14.2663L14.0534 13.2975L15.894 18.5414L15.438 18.9974C15.3285 19.1069 15.1706 19.1064 15.1231 18.9963Z" fill="url(#paint33_linear_708_4925)"/>
<path d="M15.0743 13.0927C11.7702 16.3968 7.062 20.083 6.43169 19.4527C5.80139 18.8224 9.4876 14.1143 12.7917 10.8101C16.0958 7.50605 17.7666 6.85716 18.3969 7.48746C19.0273 8.11781 18.3784 9.78864 15.0743 13.0927Z" fill="url(#paint34_linear_708_4925)"/>
<path d="M14.8294 12.9961C11.6867 16.1389 7.2599 19.6966 6.7239 19.1606C6.1879 18.6245 9.74559 14.1978 12.8883 11.055C16.0311 7.91222 17.5688 7.24356 18.1048 7.77956C18.6409 8.31561 17.9722 9.85335 14.8294 12.9961Z" fill="url(#paint35_linear_708_4925)"/>
<path d="M15.0743 13.0927C18.3784 9.78857 19.0273 8.11779 18.397 7.48749L6.4317 19.4528C7.06205 20.0831 11.7702 16.3969 15.0743 13.0927Z" fill="url(#paint36_linear_708_4925)"/>
<path d="M15.5828 8.71306C15.3804 8.88925 15.1681 9.07895 14.9454 9.28276C14.8885 9.3349 14.8936 9.41579 14.9552 9.4269C15.3362 9.49551 15.6801 9.66238 15.9511 9.93339C16.2221 10.2044 16.389 10.5484 16.4576 10.9293C16.4687 10.9909 16.5496 10.996 16.6017 10.9391C16.8056 10.7164 16.9952 10.5041 17.1714 10.3017C17.2913 10.164 17.343 9.99071 17.3042 9.85085C17.2193 9.5453 17.0656 9.26958 16.8403 9.04422C16.6149 8.81881 16.3392 8.66516 16.0336 8.58031C15.8938 8.54144 15.7205 8.59311 15.5828 8.71306Z" fill="url(#paint37_linear_708_4925)"/>
<path d="M17.1713 10.3016C17.0165 10.48 16.8508 10.6659 16.6743 10.8597C16.6503 10.8861 16.6263 10.9124 16.6019 10.9393C16.5496 10.9962 16.4687 10.991 16.4574 10.9294C16.3892 10.5482 16.2221 10.2042 15.951 9.93315C15.935 9.91715 15.919 9.90162 15.9026 9.88703C15.7101 9.70868 15.4842 9.57974 15.2367 9.49786C15.4593 9.29503 15.6706 9.10586 15.8725 8.93033C16.0103 8.81033 16.1835 8.75856 16.3233 8.79762C16.4894 8.84374 16.6466 8.91009 16.792 8.99762C16.8085 9.01268 16.8245 9.02821 16.8405 9.04421C17.0659 9.26962 17.2193 9.54539 17.304 9.8508C17.343 9.99056 17.2913 10.1637 17.1713 10.3016Z" fill="url(#paint38_linear_708_4925)"/>
<path d="M16.4576 10.9292C16.4687 10.9908 16.5496 10.996 16.6017 10.9391C16.8056 10.7164 16.9953 10.504 17.1714 10.3017C17.2913 10.164 17.343 9.99068 17.3042 9.85083C17.2193 9.54527 17.0657 9.26955 16.8403 9.04419L15.9511 9.93337C16.2221 10.2044 16.389 10.5483 16.4576 10.9292Z" fill="url(#paint39_linear_708_4925)"/>
<path d="M7.54212 18.4418L7.44269 18.3424C7.35954 18.2592 7.38805 18.0993 7.50471 17.9949L9.22212 16.4575C9.29756 16.39 9.39756 16.3793 9.45135 16.4331C9.50514 16.4869 9.4945 16.5869 9.42692 16.6624L7.88951 18.3798C7.78514 18.4964 7.62528 18.5249 7.54212 18.4418Z" fill="url(#paint40_linear_708_4925)"/>
<path d="M1.50372 21.9554C1.40499 21.9554 1.30998 21.9494 1.21939 21.9375C1.092 21.9207 1.00852 21.7957 1.04287 21.6719L1.13708 21.3318C1.16428 21.2337 1.25755 21.1686 1.35887 21.1785C1.54918 21.1971 1.78522 21.1766 2.05642 21.1173C2.16607 21.0933 2.27544 21.1598 2.30461 21.2682L2.39539 21.6053C2.42678 21.7219 2.3536 21.8401 2.23567 21.8663C1.96927 21.9255 1.72381 21.9554 1.50372 21.9554ZM3.19238 21.3354L3.06179 21.0121C3.01887 20.9058 3.06861 20.7852 3.17388 20.7399C3.41059 20.638 3.66118 20.5189 3.92254 20.3841C4.02485 20.3314 4.15082 20.3704 4.20499 20.472L4.36904 20.7796C4.42438 20.8834 4.38377 21.0125 4.27925 21.0665C3.99779 21.2117 3.72701 21.3403 3.47031 21.4505C3.36193 21.4971 3.23661 21.4449 3.19238 21.3354ZM0.339577 21.0657C0.220282 21.1163 0.0831059 21.0485 0.0525647 20.9226C0.0176471 20.7784 0 20.6209 0 20.4517C0 20.2737 0.0195294 20.0789 0.0582588 19.8706C0.0803294 19.7517 0.196988 19.6749 0.314588 19.7028L0.654165 19.7836C0.762635 19.8094 0.832565 19.9156 0.812612 20.0253C0.784282 20.1814 0.769976 20.3242 0.769976 20.4516C0.769976 20.5403 0.776894 20.6211 0.790494 20.6935C0.808894 20.7913 0.757741 20.8885 0.666118 20.9273L0.339577 21.0657ZM5.09167 20.3728L4.91398 20.0729C4.8552 19.9736 4.88687 19.8456 4.98551 19.7858C5.21817 19.6449 5.45798 19.4936 5.70198 19.3339C5.79864 19.2707 5.92833 19.2976 5.99233 19.3937L6.18546 19.684C6.2504 19.7816 6.22297 19.9132 6.1249 19.9774C5.87228 20.1427 5.62372 20.2995 5.38235 20.4456C5.28198 20.5064 5.15148 20.4738 5.09167 20.3728ZM7.16226 19.2668C7.06697 19.3348 6.93454 19.3128 6.86711 19.2171L7.16226 19.2668ZM0.892424 19.0233L0.567012 18.898C0.456706 18.8556 0.402353 18.7309 0.447388 18.6217C0.553741 18.3636 0.679294 18.0907 0.822447 17.8064C0.875341 17.7013 1.00419 17.6594 1.10852 17.7138L1.41765 17.875C1.51967 17.9283 1.55991 18.0537 1.50819 18.1565C1.376 18.4192 1.26033 18.6704 1.16254 18.907C1.11882 19.0128 0.999247 19.0644 0.892424 19.0233ZM1.81082 17.1635L1.50965 16.9879C1.40838 16.9289 1.37459 16.7987 1.43459 16.698C1.43652 16.6948 1.43845 16.6916 1.44033 16.6884C1.50038 16.5878 1.6312 16.5553 1.7312 16.6163L2.0288 16.7979C2.12744 16.8581 2.15901 16.9867 2.09976 17.0859C2.09906 17.0871 2.09831 17.0883 2.0976 17.0895C2.03845 17.1887 1.91064 17.2216 1.81082 17.1635ZM18.7546 7.30275L18.469 7.10284C18.3743 7.03653 18.3506 6.90613 18.4162 6.81098C18.5813 6.57178 18.7393 6.33545 18.8883 6.105C18.9511 6.00802 19.0802 5.98016 19.1777 6.04204L19.472 6.22891C19.571 6.29173 19.5996 6.42298 19.536 6.52138C19.3822 6.75917 19.2193 7.00279 19.0492 7.24929C18.9827 7.34571 18.8506 7.3699 18.7546 7.30275ZM19.9033 5.52228L19.6024 5.34618C19.5029 5.28797 19.4687 5.1603 19.5258 5.0602C19.6712 4.80543 19.8041 4.55837 19.9231 4.32209C19.9747 4.21941 20.099 4.17752 20.2025 4.22755L20.5164 4.37926C20.6224 4.43051 20.6661 4.55832 20.6132 4.66355C20.4873 4.91399 20.3467 5.17536 20.1932 5.4443C20.1349 5.54628 20.0047 5.58157 19.9033 5.52228ZM20.8507 3.61432L20.5259 3.48778C20.4192 3.44623 20.366 3.32708 20.4046 3.21931C20.5033 2.9435 20.574 2.69141 20.6157 2.46604C20.6359 2.35733 20.737 2.2835 20.8469 2.2963L21.1938 2.33686C21.3142 2.35093 21.3984 2.46336 21.377 2.58265C21.3275 2.85832 21.2434 3.16185 21.1257 3.48943C21.0856 3.60086 20.961 3.65729 20.8507 3.61432ZM17.9817 1.63432L17.8375 1.31682C17.7888 1.20962 17.8374 1.08279 17.9456 1.03616C18.2493 0.905241 18.5362 0.798746 18.8024 0.717899C18.9172 0.683076 19.0379 0.749899 19.0683 0.865947L19.1568 1.20341C19.1854 1.31244 19.1234 1.42491 19.0156 1.45785C18.7818 1.52924 18.528 1.62378 18.2571 1.7403C18.1518 1.78562 18.0292 1.73875 17.9817 1.63432ZM20.77 1.58039C20.6841 1.61343 20.5849 1.58835 20.5296 1.51484C20.5168 1.49785 20.503 1.48199 20.4882 1.46717C20.3743 1.35333 20.1862 1.29545 19.9289 1.29508H19.9216V0.525146V0.910135L19.9221 0.745994C19.9224 0.622041 20.0295 0.523876 20.1528 0.536441C20.5185 0.573711 20.813 0.703217 21.0326 0.922699C21.0995 0.98957 21.1584 1.06421 21.2089 1.14585C21.2779 1.25748 21.2265 1.40472 21.104 1.45183L20.77 1.58039Z" fill="url(#paint41_linear_708_4925)"/>
<path d="M7.79041 4.35731C8.15359 4.35731 8.44801 4.0629 8.44801 3.69971C8.44801 3.33653 8.15359 3.04211 7.79041 3.04211C7.42723 3.04211 7.13281 3.33653 7.13281 3.69971C7.13281 4.0629 7.42723 4.35731 7.79041 4.35731Z" fill="url(#paint42_linear_708_4925)"/>
<path d="M4.28681 9.22511C4.64999 9.22511 4.94441 8.93069 4.94441 8.56751C4.94441 8.20433 4.64999 7.90991 4.28681 7.90991C3.92363 7.90991 3.62921 8.20433 3.62921 8.56751C3.62921 8.93069 3.92363 9.22511 4.28681 9.22511Z" fill="url(#paint43_linear_708_4925)"/>
<path d="M22.2172 10.9071C22.5804 10.9071 22.8748 10.6126 22.8748 10.2495C22.8748 9.88628 22.5804 9.59186 22.2172 9.59186C21.854 9.59186 21.5596 9.88628 21.5596 10.2495C21.5596 10.6126 21.854 10.9071 22.2172 10.9071Z" fill="url(#paint44_linear_708_4925)"/>
</g>
<defs>
<linearGradient id="paint0_linear_708_4925" x1="7.20902" y1="6.68392" x2="20.9204" y2="20.3952" gradientUnits="userSpaceOnUse">
<stop stop-color="#00AEFC"/>
<stop offset="1" stop-color="#3F3CEE"/>
</linearGradient>
<linearGradient id="paint1_linear_708_4925" x1="14.4163" y1="24.617" x2="10.3457" y2="-4.70483" gradientUnits="userSpaceOnUse">
<stop stop-color="#00AEFC" stop-opacity="0"/>
<stop offset="1" stop-color="#18CFFC"/>
</linearGradient>
<linearGradient id="paint2_linear_708_4925" x1="9.13347" y1="7.62759" x2="26.9577" y2="20.2746" gradientUnits="userSpaceOnUse">
<stop stop-color="#E5F3FF"/>
<stop offset="1" stop-color="#B3CCFF"/>
</linearGradient>
<linearGradient id="paint3_linear_708_4925" x1="18.8633" y1="13.1271" x2="26.8508" y2="14.5323" gradientUnits="userSpaceOnUse">
<stop stop-color="#E5F3FF"/>
<stop offset="1" stop-color="#B3CCFF"/>
</linearGradient>
<linearGradient id="paint4_linear_708_4925" x1="16.4227" y1="9.9262" x2="24.7379" y2="-6.3194" gradientUnits="userSpaceOnUse">
<stop stop-color="#3F3CEE" stop-opacity="0"/>
<stop offset="1" stop-color="#2F43BC"/>
</linearGradient>
<linearGradient id="paint5_linear_708_4925" x1="17.6203" y1="18.676" x2="11.8629" y2="12.9187" gradientUnits="userSpaceOnUse">
<stop stop-color="#3F3CEE" stop-opacity="0"/>
<stop offset="1" stop-color="#2F43BC"/>
</linearGradient>
<linearGradient id="paint6_linear_708_4925" x1="9.64627" y1="9.11065" x2="9.64627" y2="10.3807" gradientUnits="userSpaceOnUse">
<stop stop-color="#F9F7FC"/>
<stop offset="1" stop-color="#F0DDFC"/>
</linearGradient>
<linearGradient id="paint7_linear_708_4925" x1="9.6463" y1="9.79786" x2="9.6463" y2="8.91047" gradientUnits="userSpaceOnUse">
<stop stop-color="#E9EDF5" stop-opacity="0"/>
<stop offset="1" stop-color="white"/>
</linearGradient>
<linearGradient id="paint8_linear_708_4925" x1="9.47539" y1="9.68242" x2="11.4027" y2="9.10295" gradientUnits="userSpaceOnUse">
<stop stop-color="#F0DDFC" stop-opacity="0"/>
<stop offset="0.2889" stop-color="#C8B7E0" stop-opacity="0.289"/>
<stop offset="0.5915" stop-color="#A595C8" stop-opacity="0.592"/>
<stop offset="0.8395" stop-color="#8F81B8" stop-opacity="0.84"/>
<stop offset="1" stop-color="#8779B3"/>
</linearGradient>
<linearGradient id="paint9_linear_708_4925" x1="9.70902" y1="9.12682" x2="9.59543" y2="9.76195" gradientUnits="userSpaceOnUse">
<stop stop-color="#F0DDFC" stop-opacity="0"/>
<stop offset="0.2889" stop-color="#C8B7E0" stop-opacity="0.289"/>
<stop offset="0.5915" stop-color="#A595C8" stop-opacity="0.592"/>
<stop offset="0.8395" stop-color="#8F81B8" stop-opacity="0.84"/>
<stop offset="1" stop-color="#8779B3"/>
</linearGradient>
<linearGradient id="paint10_linear_708_4925" x1="11.1772" y1="9.29779" x2="11.1771" y2="10.5678" gradientUnits="userSpaceOnUse">
<stop stop-color="#F9F7FC"/>
<stop offset="1" stop-color="#F0DDFC"/>
</linearGradient>
<linearGradient id="paint11_linear_708_4925" x1="11.1772" y1="9.98503" x2="11.1771" y2="9.09767" gradientUnits="userSpaceOnUse">
<stop stop-color="#E9EDF5" stop-opacity="0"/>
<stop offset="1" stop-color="white"/>
</linearGradient>
<linearGradient id="paint12_linear_708_4925" x1="11.0062" y1="9.86953" x2="12.9335" y2="9.29009" gradientUnits="userSpaceOnUse">
<stop stop-color="#F0DDFC" stop-opacity="0"/>
<stop offset="0.2889" stop-color="#C8B7E0" stop-opacity="0.289"/>
<stop offset="0.5915" stop-color="#A595C8" stop-opacity="0.592"/>
<stop offset="0.8395" stop-color="#8F81B8" stop-opacity="0.84"/>
<stop offset="1" stop-color="#8779B3"/>
</linearGradient>
<linearGradient id="paint13_linear_708_4925" x1="11.2399" y1="9.31392" x2="11.1263" y2="9.94909" gradientUnits="userSpaceOnUse">
<stop stop-color="#F0DDFC" stop-opacity="0"/>
<stop offset="0.2889" stop-color="#C8B7E0" stop-opacity="0.289"/>
<stop offset="0.5915" stop-color="#A595C8" stop-opacity="0.592"/>
<stop offset="0.8395" stop-color="#8F81B8" stop-opacity="0.84"/>
<stop offset="1" stop-color="#8779B3"/>
</linearGradient>
<linearGradient id="paint14_linear_708_4925" x1="16.7754" y1="16.2398" x2="15.5054" y2="16.2398" gradientUnits="userSpaceOnUse">
<stop stop-color="#F9F7FC"/>
<stop offset="1" stop-color="#F0DDFC"/>
</linearGradient>
<linearGradient id="paint15_linear_708_4925" x1="16.0882" y1="16.2398" x2="16.9756" y2="16.2398" gradientUnits="userSpaceOnUse">
<stop stop-color="#E9EDF5" stop-opacity="0"/>
<stop offset="1" stop-color="white"/>
</linearGradient>
<linearGradient id="paint16_linear_708_4925" x1="16.2036" y1="16.4107" x2="16.7831" y2="14.4833" gradientUnits="userSpaceOnUse">
<stop stop-color="#F0DDFC" stop-opacity="0"/>
<stop offset="0.2889" stop-color="#C8B7E0" stop-opacity="0.289"/>
<stop offset="0.5915" stop-color="#A595C8" stop-opacity="0.592"/>
<stop offset="0.8395" stop-color="#8F81B8" stop-opacity="0.84"/>
<stop offset="1" stop-color="#8779B3"/>
</linearGradient>
<linearGradient id="paint17_linear_708_4925" x1="16.7593" y1="16.1771" x2="16.1241" y2="16.2907" gradientUnits="userSpaceOnUse">
<stop stop-color="#F0DDFC" stop-opacity="0"/>
<stop offset="0.2889" stop-color="#C8B7E0" stop-opacity="0.289"/>
<stop offset="0.5915" stop-color="#A595C8" stop-opacity="0.592"/>
<stop offset="0.8395" stop-color="#8F81B8" stop-opacity="0.84"/>
<stop offset="1" stop-color="#8779B3"/>
</linearGradient>
<linearGradient id="paint18_linear_708_4925" x1="16.5883" y1="14.709" x2="15.3183" y2="14.709" gradientUnits="userSpaceOnUse">
<stop stop-color="#F9F7FC"/>
<stop offset="1" stop-color="#F0DDFC"/>
</linearGradient>
<linearGradient id="paint19_linear_708_4925" x1="15.9011" y1="14.709" x2="16.7884" y2="14.709" gradientUnits="userSpaceOnUse">
<stop stop-color="#E9EDF5" stop-opacity="0"/>
<stop offset="1" stop-color="white"/>
</linearGradient>
<linearGradient id="paint20_linear_708_4925" x1="16.0165" y1="14.8798" x2="16.596" y2="12.9525" gradientUnits="userSpaceOnUse">
<stop stop-color="#F0DDFC" stop-opacity="0"/>
<stop offset="0.2889" stop-color="#C8B7E0" stop-opacity="0.289"/>
<stop offset="0.5915" stop-color="#A595C8" stop-opacity="0.592"/>
<stop offset="0.8395" stop-color="#8F81B8" stop-opacity="0.84"/>
<stop offset="1" stop-color="#8779B3"/>
</linearGradient>
<linearGradient id="paint21_linear_708_4925" x1="16.5722" y1="14.6462" x2="15.937" y2="14.7598" gradientUnits="userSpaceOnUse">
<stop stop-color="#F0DDFC" stop-opacity="0"/>
<stop offset="0.2889" stop-color="#C8B7E0" stop-opacity="0.289"/>
<stop offset="0.5915" stop-color="#A595C8" stop-opacity="0.592"/>
<stop offset="0.8395" stop-color="#8F81B8" stop-opacity="0.84"/>
<stop offset="1" stop-color="#8779B3"/>
</linearGradient>
<linearGradient id="paint22_linear_708_4925" x1="6.86596" y1="17.0037" x2="6.7031" y2="18.0924" gradientUnits="userSpaceOnUse">
<stop stop-color="#FFDA45"/>
<stop offset="0.3043" stop-color="#FFCE3E"/>
<stop offset="0.8558" stop-color="#FFAE2B"/>
<stop offset="1" stop-color="#FFA425"/>
</linearGradient>
<linearGradient id="paint23_linear_708_4925" x1="6.49097" y1="17.4428" x2="8.10692" y2="15.7919" gradientUnits="userSpaceOnUse">
<stop stop-color="#FFDA45" stop-opacity="0"/>
<stop offset="1" stop-color="#B53759"/>
</linearGradient>
<linearGradient id="paint24_linear_708_4925" x1="8.88317" y1="19.0209" x2="7.79449" y2="19.1838" gradientUnits="userSpaceOnUse">
<stop stop-color="#FFDA45"/>
<stop offset="0.3043" stop-color="#FFCE3E"/>
<stop offset="0.8558" stop-color="#FFAE2B"/>
<stop offset="1" stop-color="#FFA425"/>
</linearGradient>
<linearGradient id="paint25_linear_708_4925" x1="8.444" y1="19.3958" x2="10.0949" y2="17.7799" gradientUnits="userSpaceOnUse">
<stop stop-color="#FFDA45" stop-opacity="0"/>
<stop offset="1" stop-color="#B53759"/>
</linearGradient>
<linearGradient id="paint26_linear_708_4925" x1="10.8716" y1="9.8599" x2="9.1822" y2="12.6838" gradientUnits="userSpaceOnUse">
<stop stop-color="#FFDA45"/>
<stop offset="0.3043" stop-color="#FFCE3E"/>
<stop offset="0.8558" stop-color="#FFAE2B"/>
<stop offset="1" stop-color="#FFA425"/>
</linearGradient>
<linearGradient id="paint27_linear_708_4925" x1="9.55237" y1="11.7025" x2="13.0253" y2="6.52678" gradientUnits="userSpaceOnUse">
<stop stop-color="#FFDA45" stop-opacity="0"/>
<stop offset="1" stop-color="#B53759"/>
</linearGradient>
<linearGradient id="paint28_linear_708_4925" x1="8.69163" y1="10.8052" x2="10.3698" y2="12.9099" gradientUnits="userSpaceOnUse">
<stop stop-color="#F0DDFC" stop-opacity="0"/>
<stop offset="0.2889" stop-color="#C8B7E0" stop-opacity="0.289"/>
<stop offset="0.5915" stop-color="#A595C8" stop-opacity="0.592"/>
<stop offset="0.8395" stop-color="#8F81B8" stop-opacity="0.84"/>
<stop offset="1" stop-color="#8779B3"/>
</linearGradient>
<linearGradient id="paint29_linear_708_4925" x1="9.62872" y1="11.3338" x2="8.92717" y2="12.6367" gradientUnits="userSpaceOnUse">
<stop stop-color="#FFDA45" stop-opacity="0"/>
<stop offset="1" stop-color="#B53759"/>
</linearGradient>
<linearGradient id="paint30_linear_708_4925" x1="16.0261" y1="15.0145" x2="13.2022" y2="16.7039" gradientUnits="userSpaceOnUse">
<stop stop-color="#FFDA45"/>
<stop offset="0.3043" stop-color="#FFCE3E"/>
<stop offset="0.8558" stop-color="#FFAE2B"/>
<stop offset="1" stop-color="#FFA425"/>
</linearGradient>
<linearGradient id="paint31_linear_708_4925" x1="14.5231" y1="16.1059" x2="19.6989" y2="12.6329" gradientUnits="userSpaceOnUse">
<stop stop-color="#FFDA45" stop-opacity="0"/>
<stop offset="1" stop-color="#B53759"/>
</linearGradient>
<linearGradient id="paint32_linear_708_4925" x1="15.2783" y1="17.3519" x2="13.1737" y2="15.6738" gradientUnits="userSpaceOnUse">
<stop stop-color="#FFDA45" stop-opacity="0"/>
<stop offset="1" stop-color="#B53759"/>
</linearGradient>
<linearGradient id="paint33_linear_708_4925" x1="14.5522" y1="16.2574" x2="13.2494" y2="16.9589" gradientUnits="userSpaceOnUse">
<stop stop-color="#FFDA45" stop-opacity="0"/>
<stop offset="1" stop-color="#B53759"/>
</linearGradient>
<linearGradient id="paint34_linear_708_4925" x1="11.9524" y1="13.0095" x2="13.3806" y2="14.4377" gradientUnits="userSpaceOnUse">
<stop stop-color="#E5F3FF"/>
<stop offset="1" stop-color="#B3CCFF"/>
</linearGradient>
<linearGradient id="paint35_linear_708_4925" x1="12.9421" y1="13.9419" x2="10.9098" y2="12.1273" gradientUnits="userSpaceOnUse">
<stop stop-color="#E5F3FF" stop-opacity="0"/>
<stop offset="1" stop-color="white"/>
</linearGradient>
<linearGradient id="paint36_linear_708_4925" x1="12.3128" y1="15.3077" x2="15.4754" y2="-6.76853" gradientUnits="userSpaceOnUse">
<stop stop-color="#B3CCFF" stop-opacity="0"/>
<stop offset="1" stop-color="#9FB0CB"/>
</linearGradient>
<linearGradient id="paint37_linear_708_4925" x1="15.6988" y1="8.88594" x2="16.9426" y2="10.8405" gradientUnits="userSpaceOnUse">
<stop stop-color="#8B788A"/>
<stop offset="1" stop-color="#6E566E"/>
</linearGradient>
<linearGradient id="paint38_linear_708_4925" x1="16.3265" y1="9.86873" x2="15.9971" y2="8.72755" gradientUnits="userSpaceOnUse">
<stop stop-color="#8B788A" stop-opacity="0"/>
<stop offset="1" stop-color="#9E8C92"/>
</linearGradient>
<linearGradient id="paint39_linear_708_4925" x1="16.582" y1="10.1272" x2="17.3637" y2="8.1156" gradientUnits="userSpaceOnUse">
<stop stop-color="#555A66" stop-opacity="0"/>
<stop offset="1" stop-color="#555A66"/>
</linearGradient>
<linearGradient id="paint40_linear_708_4925" x1="8.43391" y1="17.3748" x2="8.60325" y2="17.5441" gradientUnits="userSpaceOnUse">
<stop stop-color="#E5F3FF"/>
<stop offset="1" stop-color="#B3CCFF"/>
</linearGradient>
<linearGradient id="paint41_linear_708_4925" x1="0" y1="11.2403" x2="21.3803" y2="11.2403" gradientUnits="userSpaceOnUse">
<stop stop-color="#FF7044"/>
<stop offset="1" stop-color="#F92814"/>
</linearGradient>
<linearGradient id="paint42_linear_708_4925" x1="7.73945" y1="3.6488" x2="8.46378" y2="4.37308" gradientUnits="userSpaceOnUse">
<stop stop-color="#FF7044"/>
<stop offset="1" stop-color="#F92814"/>
</linearGradient>
<linearGradient id="paint43_linear_708_4925" x1="4.00865" y1="8.28935" x2="4.79858" y2="9.07932" gradientUnits="userSpaceOnUse">
<stop stop-color="#92F37F"/>
<stop offset="1" stop-color="#4AB272"/>
</linearGradient>
<linearGradient id="paint44_linear_708_4925" x1="21.8113" y1="9.84358" x2="22.9447" y2="10.9769" gradientUnits="userSpaceOnUse">
<stop stop-color="#92F37F"/>
<stop offset="1" stop-color="#4AB272"/>
</linearGradient>
<clipPath id="clip0_708_4925">
<rect width="24" height="24" fill="white"/>
</clipPath>
</defs>
</svg>
