<svg xmlns="http://www.w3.org/2000/svg" width="40" height="40" viewBox="0 0 40 40" fill="none">
  <g clip-path="url(#clip0_1427_8488)">
    <path d="M12.3114 20.7956C12.2861 20.7956 12.2607 20.7947 12.2351 20.7932L1.22252 20.1056C0.803511 20.0797 0.427534 19.8401 0.226728 19.4718C0.0262276 19.1034 0.028669 18.6576 0.233747 18.2914C0.291425 18.1882 1.67937 15.741 4.32249 13.6066C7.89427 10.7227 12.0465 9.78733 16.3299 10.9018C16.6855 10.9943 16.9803 11.2421 17.1329 11.5763C17.2855 11.9104 17.2793 12.2956 17.1161 12.6245L13.4048 20.1169C13.1979 20.5344 12.7728 20.7956 12.3114 20.7956Z" fill="#FF5B5B"/>
    <path d="M21.1893 40.0009C20.9885 40.0009 20.7877 39.9515 20.6055 39.852C20.2372 39.6512 19.9976 39.2755 19.9714 38.8565L19.2841 27.8439C19.2536 27.3535 19.52 26.8924 19.9604 26.6742L27.4528 22.9627C27.782 22.7997 28.1669 22.7936 28.501 22.9462C28.8355 23.0985 29.083 23.3936 29.1755 23.7491C30.2903 28.0325 29.3549 32.1848 26.4707 35.7566C24.3366 38.3997 21.8891 39.7873 21.7859 39.8453C21.6007 39.9491 21.395 40.0009 21.1893 40.0009Z" fill="#FF193D"/>
    <path d="M38.1203 9.8476L30.2297 1.95697C29.9135 1.6408 29.4497 1.52301 29.0209 1.64965C23.7386 3.21215 19.4024 5.66272 16.1318 8.93298C15.4497 9.61536 14.7945 10.3548 14.1848 11.1306C12.4117 13.3849 10.9307 16.0503 9.78323 19.0529C9.05234 20.9667 8.45724 23.0169 8.01443 25.1464C7.24112 28.8662 7.19961 31.5322 7.19809 31.6439C7.19412 31.9725 7.3229 32.2893 7.55545 32.5219C7.78433 32.7507 8.095 32.8792 8.41849 32.8792H8.43344C8.54544 32.878 11.2115 32.8365 14.9309 32.0632C17.0605 31.6204 19.1106 31.0253 21.0247 30.2941C24.027 29.1466 26.6924 27.6659 28.9461 25.8931C29.7225 25.2831 30.462 24.6279 31.1443 23.9455C34.4149 20.6749 36.8655 16.3387 38.4277 11.0564C38.5546 10.6276 38.4365 10.1638 38.1203 9.8476Z" fill="#E1F1FA"/>
    <path d="M15.7648 30.2243L9.85289 24.3124C9.41649 23.876 8.72282 23.8342 8.23698 24.2151C7.85948 24.5111 7.50029 24.8291 7.16948 25.1599C3.05601 29.2734 2.92875 35.647 2.9254 35.9161C2.92112 36.2451 3.04991 36.5619 3.28276 36.7944C3.51164 37.0236 3.822 37.1521 4.14549 37.1521C4.15068 37.1521 4.15587 37.1521 4.16105 37.1518C4.43022 37.1484 10.8041 37.0212 14.9173 32.9077C15.2481 32.5769 15.5661 32.2177 15.8621 31.8402C16.243 31.3544 16.2012 30.6607 15.7648 30.2243Z" fill="#FFF261"/>
    <path d="M9.8775 18.8086L6.25049 22.4359C6.02161 22.6645 5.89282 22.9749 5.89282 23.2986C5.89282 23.6221 6.02161 23.9325 6.25049 24.1614L15.9157 33.8266C16.1443 34.0555 16.4547 34.184 16.7784 34.184C17.1022 34.184 17.4123 34.0555 17.6412 33.8266L21.2682 30.1996L9.8775 18.8086Z" fill="#1B3B6B"/>
    <path d="M25.711 18.0899C24.7167 18.0899 23.7817 17.7026 23.0786 16.9995C21.6271 15.5481 21.6271 13.1866 23.0786 11.7349C23.7817 11.0318 24.7167 10.6445 25.711 10.6445C26.7053 10.6445 27.6403 11.0318 28.3434 11.7349C29.0466 12.4381 29.4338 13.3728 29.4338 14.3674C29.4338 15.3616 29.0466 16.2964 28.3434 16.9995C27.6403 17.7026 26.7053 18.0899 25.711 18.0899Z" fill="#06CCAB"/>
    <path d="M25.7107 19.2833C24.3975 19.2833 23.1631 18.7719 22.2347 17.8435C20.3179 15.9267 20.3179 12.8078 22.2347 10.891C23.1631 9.96265 24.3978 9.45117 25.7107 9.45117C27.0239 9.45117 28.2583 9.96265 29.1869 10.891C30.1156 11.8196 30.6268 13.0541 30.6268 14.3673C30.6268 15.6804 30.1156 16.9149 29.1869 17.8435C28.2583 18.7719 27.0239 19.2833 25.7107 19.2833ZM25.7107 11.8917C25.0497 11.8917 24.4277 12.1492 23.9602 12.6168C22.9952 13.582 22.9952 15.1525 23.9602 16.1177C24.4277 16.5853 25.0497 16.8428 25.7107 16.8428C26.372 16.8428 26.9936 16.5853 27.4612 16.1177C27.9287 15.6502 28.1863 15.0286 28.1863 14.3673C28.1863 13.7059 27.9287 13.0843 27.4612 12.6168C26.9936 12.1492 26.372 11.8917 25.7107 11.8917Z" fill="#1B3B6B"/>
    <path d="M39.7208 0.357586C39.4879 0.124737 39.1693 -0.00618394 38.8422 0.000224756C38.6612 0.00236099 34.3475 0.0749928 29.021 1.65031L38.4277 11.0571C40.0031 5.73051 40.0757 1.41685 40.0778 1.23588C40.0821 0.906902 39.9533 0.59013 39.7208 0.357586Z" fill="#FF5B5B"/>
    <path d="M38.1203 9.84766L34.175 5.90234L7.55542 32.5219C7.7843 32.7508 8.09467 32.8793 8.41815 32.8793H8.43341C8.54511 32.8781 11.2111 32.8366 14.9309 32.0632C17.0604 31.6204 19.1103 31.0253 21.0244 30.2941C24.027 29.1467 26.6924 27.666 28.9461 25.8932C29.7222 25.2831 30.4619 24.6279 31.144 23.9456C34.4146 20.675 36.8651 16.3387 38.4273 11.0565C38.5546 10.6277 38.4365 10.1638 38.1203 9.84766Z" fill="#CDEBFC"/>
    <path d="M15.7648 30.2255L12.8088 27.2695L3.28247 36.7956V36.7959C3.51166 37.0248 3.82202 37.1533 4.14551 37.1533H4.16077C4.43024 37.1499 10.8038 37.0223 14.9173 32.9089C15.2481 32.5781 15.5661 32.2189 15.8618 31.8414C16.243 31.3555 16.2015 30.6619 15.7648 30.2255Z" fill="#FDBF00"/>
    <path d="M15.5731 24.5059L11.083 28.9959L15.9158 33.8287C16.1444 34.0573 16.4547 34.186 16.7785 34.186C17.1023 34.186 17.4124 34.0573 17.6412 33.8287L21.2683 30.2014L15.5731 24.5059Z" fill="#001035"/>
    <path d="M28.3435 11.7344C28.3432 11.7344 28.3432 11.7344 28.3432 11.7344L23.0786 16.999H23.0789C23.7817 17.7021 24.7168 18.0894 25.7111 18.0894C26.7053 18.0894 27.6404 17.7021 28.3435 16.999C29.0466 16.2958 29.4339 15.3611 29.4339 14.3668C29.4336 13.3726 29.0466 12.4375 28.3435 11.7344Z" fill="#1CADB5"/>
    <path d="M29.1871 10.8906L27.4614 12.6164C27.9289 13.0839 28.1865 13.7056 28.1865 14.3669C28.1865 15.0282 27.9289 15.6498 27.4614 16.1174C26.9938 16.5849 26.3722 16.8425 25.7109 16.8425C25.0496 16.8425 24.4279 16.5849 23.9604 16.1174C23.9604 16.1174 23.9604 16.1174 23.9604 16.1171L22.2346 17.8428V17.8431C23.1633 18.7715 24.3977 19.283 25.7109 19.283C27.0241 19.283 28.2585 18.7715 29.1871 17.8431C30.1155 16.9145 30.627 15.6801 30.627 14.3669C30.627 13.0537 30.1155 11.8193 29.1871 10.8906Z" fill="#001035"/>
    <path d="M39.7205 0.357422L33.7244 6.35382L38.4277 11.0572C40.0031 5.73065 40.0757 1.41699 40.0778 1.23602C40.0821 0.907044 39.9533 0.590271 39.7205 0.357422Z" fill="#FF193D"/>
  </g>
  <defs>
    <clipPath id="clip0_1427_8488">
      <rect width="40" height="40" fill="white"/>
    </clipPath>
  </defs>
</svg>