<svg width="68" height="68" viewBox="0 0 68 68" fill="none" xmlns="http://www.w3.org/2000/svg">
<g clip-path="url(#clip0_43_2072)">
<rect width="68" height="68" rx="16" fill="url(#paint0_linear_43_2072)"/>
<path d="M34 68C52.7777 68 68 52.7777 68 34C68 15.2223 52.7777 0 34 0C15.2223 0 0 15.2223 0 34C0 52.7777 15.2223 68 34 68Z" fill="url(#paint1_linear_43_2072)"/>
<path d="M34 68C52.7777 68 68 52.7777 68 34C68 15.2223 52.7777 0 34 0C15.2223 0 0 15.2223 0 34C0 52.7777 15.2223 68 34 68Z" fill="url(#paint2_radial_43_2072)"/>
<path d="M30.2505 8.5697C27.9168 8.63266 25.5832 8.72695 23.2497 8.85259C21.0527 8.97478 19.2025 10.8867 19.1327 13.082C18.7093 27.0273 18.7093 40.9726 19.1327 54.9179C19.2025 57.1133 21.0525 59.0252 23.2497 59.1474C26.322 59.3128 29.3944 59.4239 32.4668 59.4806C31.568 42.4799 30.7554 25.5033 30.2505 8.5697Z" fill="url(#paint3_linear_43_2072)"/>
<path d="M44.75 8.58262C43.7451 8.5538 42.7403 8.53069 41.7354 8.51343C41.229 25.4932 40.5082 42.498 39.7695 59.5129C41.4297 59.497 43.0898 59.4651 44.75 59.4174C46.9471 59.3522 48.7733 57.4586 48.8187 55.2288C49.0885 41.0763 49.0885 26.9238 48.8187 12.7713C48.7733 10.5416 46.9471 8.64797 44.75 8.58262Z" fill="url(#paint4_linear_43_2072)"/>
<path d="M43.8018 55.373C43.9616 40.4547 43.954 25.5366 43.7792 10.6183C43.7651 9.47982 42.8494 8.53286 41.7355 8.51347C37.9072 8.44773 34.0788 8.46646 30.2505 8.56965C29.1366 8.60007 28.2162 9.55326 28.1968 10.6881C27.9534 25.5618 27.943 40.4355 28.1655 55.3092C28.2024 57.5481 30.2699 59.4394 32.4668 59.4807C34.9011 59.5256 37.3353 59.5363 39.7696 59.5129C41.9667 59.491 43.7747 57.6193 43.8018 55.373Z" fill="url(#paint5_linear_43_2072)"/>
<path d="M44.7789 10.616C44.7789 10.6155 43.7792 10.6087 43.7794 10.6182C42.1445 13.2852 40.4797 15.9801 38.7979 18.6875C41.4966 18.6967 44.1954 18.7304 46.8941 18.7883C46.8714 16.7602 46.844 14.732 46.8123 12.7038C46.7938 11.5845 45.8826 10.6456 44.7789 10.616Z" fill="url(#paint6_linear_43_2072)"/>
<path d="M28.1773 11.9242C27.9607 11.708 27.7445 11.4923 27.5285 11.277C27.1596 10.9093 26.6552 10.7142 26.1247 10.7349C25.1485 10.773 24.1722 10.8162 23.1961 10.8644C22.0924 10.9198 21.1703 11.8679 21.1399 12.9728C21.0861 14.9753 21.04 16.978 21.0015 18.9806C24.9095 18.8386 28.8175 18.7477 32.7255 18.7082C31.1915 16.4282 29.6728 14.1633 28.1773 11.9242Z" fill="url(#paint7_linear_43_2072)"/>
<path d="M43.7777 10.5914C43.1353 10.5768 42.4927 10.5642 41.8503 10.554C41.32 10.5453 40.8129 10.7537 40.4396 11.1324C39.5984 11.9856 38.753 12.8433 37.9043 13.7045C37.3393 14.2778 36.5708 14.6008 35.7699 14.6042C34.5671 14.6094 33.3643 14.6207 32.1615 14.6384C31.3605 14.65 30.595 14.3422 30.036 13.7824C29.4143 13.1598 28.7947 12.5402 28.1777 11.9242C28.1422 14.2092 28.1123 16.4941 28.0879 18.7792C33.3446 18.6715 38.6015 18.6562 43.8582 18.7336C43.8628 18.7336 43.7839 10.5929 43.7777 10.5914Z" fill="url(#paint8_linear_43_2072)"/>
<path d="M33.9874 10.5358C33.4353 10.5421 32.9842 11.0057 32.9798 11.5687C32.9754 12.1318 33.4215 12.5819 33.9759 12.5762C34.5302 12.5704 34.9813 12.1105 34.9832 11.5467C34.9854 10.983 34.5395 10.5295 33.9874 10.5358Z" fill="url(#paint9_linear_43_2072)"/>
<path d="M33.9874 10.5358C33.4353 10.5421 32.9842 11.0057 32.9798 11.5687C32.9754 12.1318 33.4215 12.5819 33.9759 12.5762C34.5302 12.5704 34.9813 12.1105 34.9832 11.5467C34.9854 10.983 34.5395 10.5295 33.9874 10.5358Z" fill="url(#paint10_radial_43_2072)"/>
<path d="M30.1706 55.3608C30.1844 56.4837 31.0915 57.4178 32.1952 57.4377C33.3899 57.4589 34.5847 57.4727 35.7796 57.479C36.8833 57.4848 37.7795 56.568 37.7813 55.4404C37.7828 54.3126 36.8821 53.4004 35.7697 53.3957C34.5669 53.3905 33.364 53.3792 32.1613 53.3615C31.0487 53.3459 30.1568 54.2377 30.1706 55.3608Z" fill="url(#paint11_linear_43_2072)"/>
<path d="M35.7507 40.656C38.4715 44.226 41.1801 47.7916 43.8411 51.302C44.1777 51.2964 44.5141 51.2903 44.8506 51.2838C45.9651 51.2619 46.8808 50.331 46.8938 49.2115C46.926 46.345 46.9491 43.4787 46.963 40.6122C43.2257 40.6468 39.4882 40.6615 35.7507 40.656Z" fill="url(#paint12_linear_43_2072)"/>
<path d="M20.8704 38.5261C20.8905 42.0239 20.9342 45.5218 21.0013 49.0195C21.023 50.1244 21.9468 51.0591 23.0612 51.1003C24.7444 51.1611 26.4275 51.2112 28.1106 51.2504C29.4056 47.0605 30.7416 42.8408 32.0943 38.6063C28.353 38.5935 24.6117 38.5668 20.8704 38.5261Z" fill="url(#paint13_linear_43_2072)"/>
<path d="M28.0137 38.5868C28.0272 42.808 28.0596 47.0292 28.1108 51.2503C33.3543 51.3725 38.5978 51.3896 43.8413 51.302C43.878 47.0682 43.9012 42.8344 43.9111 38.6005C38.6118 38.6238 33.3128 38.6192 28.0137 38.5868Z" fill="url(#paint14_linear_43_2072)"/>
<path d="M46.8939 18.7886C46.8808 17.6692 45.9651 16.7382 44.8507 16.7163C44.5141 16.7098 44.1777 16.7038 43.8412 16.6981C40.5108 20.6315 37.1154 24.6471 33.71 28.6551C37.104 32.6445 40.5207 36.6681 43.905 40.6361C44.9244 40.6296 45.9437 40.6216 46.9629 40.6122C46.9984 33.3375 46.9754 26.0631 46.8939 18.7886Z" fill="url(#paint15_linear_43_2072)"/>
<path d="M36.0049 28.6507C33.344 24.6514 30.6983 20.666 28.1108 16.7498C26.4277 16.7889 24.7445 16.839 23.0614 16.8998C21.947 16.941 21.0231 17.8757 21.0015 18.9806C20.8765 25.4959 20.8328 32.011 20.8705 38.5262C20.877 39.6312 21.7977 40.5425 22.9233 40.5588C24.6227 40.5822 26.3222 40.6013 28.0217 40.6163C30.6645 36.6619 33.34 32.6551 36.0049 28.6507Z" fill="url(#paint16_linear_43_2072)"/>
<path d="M43.8414 16.698C38.5978 16.6104 33.3544 16.6275 28.1108 16.7497C28.0145 24.7052 27.9848 32.6606 28.0217 40.6162C33.3163 40.6631 38.6107 40.6696 43.9053 40.636C43.9318 32.6568 43.9104 24.6774 43.8414 16.698Z" fill="url(#paint17_linear_43_2072)"/>
<path d="M37.2177 27.3436C35.6098 27.3438 34.0021 27.3475 32.3943 27.355C32.2175 27.6607 32.1195 28.0113 32.1187 28.3754C32.1105 32.1255 32.1105 35.8755 32.1187 39.6256C32.1203 40.3537 32.5108 41.0285 33.142 41.3957C34.5023 42.1868 35.8612 42.9766 37.2177 43.7627C37.2175 38.2895 37.2175 32.8166 37.2177 27.3436Z" fill="url(#paint18_linear_43_2072)"/>
<path d="M36.4709 29.7014C36.2947 30.0067 36.1973 30.3579 36.1972 30.7227C36.1963 34.4796 36.1969 38.2366 36.1993 41.9934C36.1998 42.7228 36.5884 43.3976 37.2178 43.7625C39.1036 44.8553 40.9849 45.9406 42.8593 47.0108C43.1684 47.1873 43.5133 47.2738 43.8591 47.2715C46.3678 41.3879 48.8943 35.5281 51.3523 29.7626C46.392 29.7194 41.4315 29.699 36.4709 29.7014Z" fill="url(#paint19_linear_43_2072)"/>
<path d="M55.4157 27.5015C51.5745 27.4347 47.7333 27.3892 43.8922 27.3647C43.9142 34.0003 43.9032 40.636 43.8591 47.2716C44.2136 47.2694 44.5691 47.1739 44.8883 46.9855C48.1354 45.0683 51.3976 43.1414 54.6629 41.2435C55.2969 40.8747 55.6921 40.2102 55.6978 39.4988C55.727 35.8334 55.7269 32.1679 55.6975 28.5026C55.6947 28.1466 55.5944 27.8028 55.4157 27.5015Z" fill="url(#paint20_linear_43_2072)"/>
<path d="M44.8879 21.015C44.2576 20.6425 43.4859 20.6321 42.8589 20.9896C39.6364 22.8298 36.3938 24.7144 33.1425 26.605C32.8269 26.7886 32.5708 27.0494 32.3948 27.3547C33.7519 28.133 35.1108 28.9162 36.4709 29.7014C40.652 27.5717 44.825 25.4551 48.9706 23.4236C47.6077 22.621 46.2465 21.8171 44.8879 21.015Z" fill="url(#paint21_linear_43_2072)"/>
<path d="M54.6627 26.7576C54.6611 26.7634 48.9681 23.4277 48.9704 23.4236C48.3379 23.0509 47.5632 23.037 46.9371 23.3901C43.712 25.2077 40.4685 27.0752 37.2179 28.9539C36.9023 29.1364 36.6463 29.3965 36.4707 29.7015C38.9504 31.1332 41.4338 32.5719 43.9155 34.0004C47.7588 31.7885 51.5986 29.6011 55.4155 27.5013C55.2368 27.2003 54.9796 26.9418 54.6627 26.7576Z" fill="url(#paint22_linear_43_2072)"/>
</g>
<defs>
<linearGradient id="paint0_linear_43_2072" x1="45.5" y1="17" x2="14" y2="50.5" gradientUnits="userSpaceOnUse">
<stop stop-color="#FB54FF"/>
<stop offset="1" stop-color="#270DE0"/>
</linearGradient>
<linearGradient id="paint1_linear_43_2072" x1="9.95841" y1="58.0416" x2="58.0417" y2="9.95828" gradientUnits="userSpaceOnUse">
<stop stop-color="#230BE0"/>
<stop offset="1" stop-color="#FC54FF"/>
</linearGradient>
<radialGradient id="paint2_radial_43_2072" cx="0" cy="0" r="1" gradientUnits="userSpaceOnUse" gradientTransform="translate(34.0001 34) scale(34.3453)">
<stop stop-color="#8D00DB"/>
<stop offset="0.0969" stop-color="#9D0CE0" stop-opacity="0.903"/>
<stop offset="0.3746" stop-color="#C62BED" stop-opacity="0.625"/>
<stop offset="0.6273" stop-color="#E441F7" stop-opacity="0.373"/>
<stop offset="0.8442" stop-color="#F64FFD" stop-opacity="0.156"/>
<stop offset="1" stop-color="#FC54FF" stop-opacity="0"/>
</radialGradient>
<linearGradient id="paint3_linear_43_2072" x1="6.36906" y1="54.8959" x2="124.997" y2="-63.7314" gradientUnits="userSpaceOnUse">
<stop stop-color="#1805B0"/>
<stop offset="1" stop-color="#FC54FF"/>
</linearGradient>
<linearGradient id="paint4_linear_43_2072" x1="13.9125" y1="64.0754" x2="84.2808" y2="-6.29305" gradientUnits="userSpaceOnUse">
<stop stop-color="#1805B0"/>
<stop offset="1" stop-color="#FC54FF"/>
</linearGradient>
<linearGradient id="paint5_linear_43_2072" x1="-0.655876" y1="70.1083" x2="108.4" y2="-38.9472" gradientUnits="userSpaceOnUse">
<stop stop-color="#1805B0"/>
<stop offset="1" stop-color="#FC54FF"/>
</linearGradient>
<linearGradient id="paint6_linear_43_2072" x1="-28.9934" y1="89.0334" x2="79.8846" y2="-19.8445" gradientUnits="userSpaceOnUse">
<stop stop-color="#FC54FF"/>
<stop offset="0.4062" stop-color="#FD9BFF"/>
<stop offset="1" stop-color="white"/>
</linearGradient>
<linearGradient id="paint7_linear_43_2072" x1="-3.69104" y1="46.0528" x2="96.9435" y2="-54.5816" gradientUnits="userSpaceOnUse">
<stop stop-color="#FC54FF"/>
<stop offset="0.4062" stop-color="#FD9BFF"/>
<stop offset="1" stop-color="white"/>
</linearGradient>
<linearGradient id="paint8_linear_43_2072" x1="-23.7827" y1="75.1291" x2="98.0907" y2="-46.7442" gradientUnits="userSpaceOnUse">
<stop stop-color="#FC54FF"/>
<stop offset="0.4062" stop-color="#FD9BFF"/>
<stop offset="1" stop-color="white"/>
</linearGradient>
<linearGradient id="paint9_linear_43_2072" x1="30.3731" y1="15.1665" x2="43.2561" y2="2.28351" gradientUnits="userSpaceOnUse">
<stop stop-color="#1805B0"/>
<stop offset="1" stop-color="#FC54FF"/>
</linearGradient>
<radialGradient id="paint10_radial_43_2072" cx="0" cy="0" r="1" gradientUnits="userSpaceOnUse" gradientTransform="translate(33.9816 11.5561) scale(4.8559 4.85589)">
<stop stop-color="#170794" stop-opacity="0"/>
<stop offset="1" stop-color="#170794"/>
</radialGradient>
<linearGradient id="paint11_linear_43_2072" x1="33.0219" y1="56.3562" x2="74.2902" y2="15.088" gradientUnits="userSpaceOnUse">
<stop stop-color="#1805B0"/>
<stop offset="1" stop-color="#FC54FF"/>
</linearGradient>
<linearGradient id="paint12_linear_43_2072" x1="-7.60059" y1="94.2763" x2="57.2468" y2="29.4288" gradientUnits="userSpaceOnUse">
<stop stop-color="#1805B0"/>
<stop offset="1" stop-color="#FC54FF"/>
</linearGradient>
<linearGradient id="paint13_linear_43_2072" x1="-5.66584" y1="75.0444" x2="58.4096" y2="10.9691" gradientUnits="userSpaceOnUse">
<stop stop-color="#1805B0"/>
<stop offset="1" stop-color="#FC54FF"/>
</linearGradient>
<linearGradient id="paint14_linear_43_2072" x1="-9.32205" y1="90.1939" x2="62.1196" y2="18.7522" gradientUnits="userSpaceOnUse">
<stop stop-color="#1805B0"/>
<stop offset="1" stop-color="#FC54FF"/>
</linearGradient>
<linearGradient id="paint15_linear_43_2072" x1="-76.6462" y1="150.703" x2="46.9382" y2="27.1189" gradientUnits="userSpaceOnUse">
<stop stop-color="#FC54FF"/>
<stop offset="0.4062" stop-color="#FD9BFF"/>
<stop offset="1" stop-color="white"/>
</linearGradient>
<linearGradient id="paint16_linear_43_2072" x1="-56.149" y1="110.049" x2="45.3844" y2="8.51603" gradientUnits="userSpaceOnUse">
<stop stop-color="#FC54FF"/>
<stop offset="0.4062" stop-color="#FD9BFF"/>
<stop offset="1" stop-color="white"/>
</linearGradient>
<linearGradient id="paint17_linear_43_2072" x1="-114.411" y1="179.112" x2="54.5109" y2="10.1901" gradientUnits="userSpaceOnUse">
<stop stop-color="#FC54FF"/>
<stop offset="0.4062" stop-color="#FD9BFF"/>
<stop offset="1" stop-color="white"/>
</linearGradient>
<linearGradient id="paint18_linear_43_2072" x1="31.3218" y1="39.0428" x2="66.9843" y2="3.38053" gradientUnits="userSpaceOnUse">
<stop stop-color="#FC54FF"/>
<stop offset="0.4062" stop-color="#FD9BFF"/>
<stop offset="1" stop-color="white"/>
</linearGradient>
<linearGradient id="paint19_linear_43_2072" x1="19.1422" y1="59.5093" x2="115.174" y2="-36.5224" gradientUnits="userSpaceOnUse">
<stop stop-color="#FC54FF"/>
<stop offset="0.4062" stop-color="#FD9BFF"/>
<stop offset="1" stop-color="white"/>
</linearGradient>
<linearGradient id="paint20_linear_43_2072" x1="22.8378" y1="60.7939" x2="81.2489" y2="2.38285" gradientUnits="userSpaceOnUse">
<stop stop-color="#FC54FF"/>
<stop offset="0.4062" stop-color="#FD9BFF"/>
<stop offset="1" stop-color="white"/>
</linearGradient>
<linearGradient id="paint21_linear_43_2072" x1="19.9429" y1="46.0794" x2="59.7472" y2="6.27509" gradientUnits="userSpaceOnUse">
<stop stop-color="#FC54FF"/>
<stop offset="0.4062" stop-color="#FD9BFF"/>
<stop offset="1" stop-color="white"/>
</linearGradient>
<linearGradient id="paint22_linear_43_2072" x1="-8.13584" y1="82.6309" x2="81.4819" y2="-6.98688" gradientUnits="userSpaceOnUse">
<stop stop-color="#FC54FF"/>
<stop offset="0.4062" stop-color="#FD9BFF"/>
<stop offset="1" stop-color="white"/>
</linearGradient>
<clipPath id="clip0_43_2072">
<rect width="68" height="68" rx="16" fill="white"/>
</clipPath>
</defs>
</svg>
