<svg width="80" height="80" viewBox="0 0 80 80" fill="none" xmlns="http://www.w3.org/2000/svg">
<path d="M37.4462 15.7983V64.2017C37.4462 69.475 33.1657 73.7555 27.8924 73.7555C22.009 73.7555 17.7198 68.4159 18.4201 63.5181C9.03682 66.5351 2.09716 55.0927 8.52449 48.0563C2.22925 44.3659 2.21072 35.5135 8.34548 31.7156C2.17344 24.4801 9.2835 13.5443 18.4201 16.4819C17.7247 11.6142 21.9714 6.24451 27.8924 6.24451C33.1657 6.24451 37.4462 10.525 37.4462 15.7983Z" fill="#F34624"/>
<path d="M42.5537 15.7983V64.2017C42.5537 69.475 46.8342 73.7555 52.1075 73.7555C57.9909 73.7555 62.2801 68.4159 61.5798 63.5181C70.9631 66.5351 77.9027 55.0927 71.4754 48.0563C77.7706 44.3659 77.7892 35.5135 71.6544 31.7156C77.8265 24.4801 70.7164 13.5443 61.5798 16.4819C62.2752 11.6142 58.0285 6.24451 52.1075 6.24451C46.8342 6.24451 42.5537 10.525 42.5537 15.7983Z" fill="#F34624"/>
<path d="M55.3577 40.0148C55.3577 48.4801 48.4796 55.358 40.0143 55.358C31.5197 55.358 24.6416 48.4801 24.6416 40.0148C24.6416 31.52 31.5197 24.6421 40.0143 24.6421C48.4796 24.6421 55.3577 31.52 55.3577 40.0148Z" fill="#EDEDED"/>
<path d="M41.7704 45.1213L40.8631 42.9553H35.8591L34.9517 45.1213H32.918L37.41 34.8787H39.4437L43.8774 45.1213H41.7704ZM36.5616 41.2728H40.1611L38.3756 36.9708L36.5616 41.2728Z" fill="black"/>
<path d="M45.1211 34.8787H47.0816V45.1213H45.1211V34.8787Z" fill="black"/>
</svg>
