<svg xmlns="http://www.w3.org/2000/svg" width="28" height="28" viewBox="0 0 28 28" fill="none">
  <path d="M24.7072 14C24.7072 13.4228 24.6593 12.8568 24.5687 12.3048L28 9.87616L24.6271 4.1239L20.7743 5.83591C19.8879 5.12197 18.883 4.54557 17.7932 4.13891L17.3729 0H10.6271L10.2067 4.13885C9.11693 4.54551 8.11204 5.12191 7.22562 5.83585L3.37292 4.12384L0 9.87616L3.43126 12.3048C3.34062 12.8568 3.29281 13.4228 3.29281 14C3.29281 14.5772 3.34068 15.1432 3.43126 15.6952L0 18.1238L3.37292 23.8761L7.22568 22.1641C8.1121 22.878 9.11699 23.4544 10.2068 23.8611L10.6271 28H17.3729L17.7932 23.8611C18.883 23.4545 19.8879 22.8781 20.7743 22.1642L24.6271 23.8762L28 18.1238L24.5687 15.6952C24.6594 15.1432 24.7072 14.5772 24.7072 14ZM7.55222 15.7232L5.25891 13.8106L6.4053 12.4359L7.19965 13.0984C7.58531 10.1635 9.90027 7.76013 12.8093 7.24721C15.1418 6.83583 17.4859 7.63826 19.08 9.39328L17.7551 10.5968C16.5765 9.29929 14.8438 8.70627 13.1201 9.00996C10.9212 9.39765 9.19034 11.2446 8.95976 13.4703L10.1819 12.7171L11.1211 14.2409L8.59498 15.7978C8.45032 15.8869 8.00686 16.0856 7.55222 15.7232ZM21.5946 15.5641L20.8004 14.9016C20.4147 17.8365 18.0997 20.2399 15.1907 20.7528C12.7718 21.1793 10.2466 20.2408 8.69089 18.3411L10.0757 17.207C11.2367 18.6246 13.0776 19.3078 14.8799 18.99C17.0788 18.6024 18.8097 16.7554 19.0403 14.5297L17.8181 15.2829L16.8789 13.7591L19.405 12.2022C19.7325 12.0005 20.1522 12.0304 20.4478 12.2767L22.7411 14.1893L21.5946 15.5641Z" fill="white"/>
</svg>