<svg width="56" height="35" viewBox="0 0 56 35" fill="none" xmlns="http://www.w3.org/2000/svg">
<g clip-path="url(#clip0_37_858)">
<path d="M16.0375 12.9512C16.029 13.5044 16.0962 14.0562 16.2375 14.5912C16.4061 15.0448 16.6018 15.488 16.8235 15.9182C16.9098 16.0448 16.9574 16.1939 16.9605 16.3472C16.9477 16.4591 16.9094 16.5666 16.8485 16.6615C16.7877 16.7563 16.7059 16.8359 16.6095 16.8942L15.4385 17.6752C15.2905 17.8013 15.0988 17.8639 14.9049 17.8493C14.711 17.8347 14.5308 17.7441 14.4035 17.5972C14.1535 17.3342 13.931 17.0464 13.7395 16.7382C13.5635 16.4262 13.3685 16.0742 13.1735 15.6452C12.5228 16.4544 11.6955 17.1039 10.755 17.5439C9.81444 17.9838 8.78563 18.2025 7.74746 18.1832C7.07534 18.2171 6.40318 18.1173 5.76993 17.8895C5.13668 17.6617 4.55495 17.3105 4.05846 16.8562C3.59774 16.3901 3.2381 15.8341 3.00203 15.2227C2.76596 14.6114 2.65853 13.9579 2.68646 13.3032C2.65887 12.5829 2.79572 11.8659 3.08665 11.2064C3.37757 10.5469 3.8149 9.9624 4.36546 9.49719C5.64943 8.48211 7.25887 7.96885 8.89346 8.05319C9.547 8.05894 10.1993 8.11107 10.8455 8.20919C11.5285 8.30919 12.2315 8.44319 12.9735 8.61919V7.27119C13.0807 6.21458 12.7726 5.1577 12.1145 4.32419C11.2548 3.67417 10.1805 3.37434 9.10846 3.48519C8.43811 3.48817 7.77023 3.56666 7.11746 3.71919C6.44152 3.88621 5.77658 4.09494 5.12646 4.34419C4.91901 4.44078 4.70352 4.51908 4.48246 4.57819C4.38798 4.61128 4.28938 4.63114 4.18946 4.63719C3.93546 4.63719 3.79946 4.46119 3.79946 4.07119V3.17119C3.78019 2.94769 3.82788 2.7235 3.93646 2.52719C4.07398 2.36031 4.24771 2.22693 4.44446 2.13719C5.17719 1.75435 5.95824 1.47213 6.76646 1.29819C7.70388 1.05919 8.66806 0.941228 9.63546 0.947193C11.3827 0.799428 13.1189 1.33739 14.4765 2.44719C15.0235 3.06423 15.4403 3.78538 15.7018 4.56741C15.9633 5.34943 16.0642 6.17622 15.9985 6.99819V12.9712H16.0375V12.9512ZM8.53746 15.7622C9.18196 15.7515 9.82077 15.6394 10.4305 15.4302C11.1119 15.1971 11.7185 14.7858 12.1875 14.2392C12.4822 13.8939 12.6958 13.4869 12.8125 13.0482C12.9386 12.5245 12.9977 11.9868 12.9885 11.4482V10.6682C12.4285 10.5307 11.8608 10.4265 11.2885 10.3562C10.7127 10.279 10.1324 10.2399 9.55146 10.2392C8.57578 10.1593 7.60272 10.4216 6.79946 10.9812C6.4946 11.2417 6.25458 11.5697 6.09837 11.939C5.94216 12.3083 5.87406 12.709 5.89946 13.1092C5.86127 13.4655 5.903 13.8258 6.02163 14.1639C6.14025 14.502 6.33277 14.8094 6.58517 15.0637C6.83758 15.318 7.14352 15.5129 7.48072 15.6341C7.81793 15.7552 8.17791 15.7997 8.53446 15.7642L8.53746 15.7622ZM23.3525 17.7532C23.1061 17.7729 22.8602 17.7111 22.6525 17.5772C22.4589 17.3767 22.324 17.127 22.2625 16.8552L17.9505 2.58719C17.8609 2.34823 17.8017 2.09894 17.7745 1.84519C17.7666 1.78351 17.7727 1.72086 17.7922 1.66183C17.8117 1.60279 17.8442 1.54887 17.8872 1.504C17.9303 1.45914 17.9828 1.42446 18.041 1.40252C18.0992 1.38058 18.1615 1.37193 18.2235 1.37719H20.0385C20.2922 1.35157 20.547 1.41369 20.7605 1.55319C20.9469 1.75607 21.0751 2.00551 21.1315 2.27519L24.2165 14.5082L27.0865 2.29419C27.1244 2.02252 27.2472 1.7698 27.4375 1.57219C27.6606 1.43823 27.9199 1.37674 28.1795 1.39619H29.6625C29.9222 1.374 30.1823 1.43568 30.4045 1.57219C30.598 1.7675 30.7214 2.02137 30.7555 2.29419L33.6635 14.6502L36.8635 2.29419C36.9234 2.02577 37.0511 1.7772 37.2345 1.57219C37.4502 1.43802 37.7032 1.37635 37.9565 1.39619H39.6745C39.7377 1.38883 39.8018 1.39586 39.8619 1.41678C39.9221 1.43769 39.9767 1.47194 40.0217 1.51696C40.0667 1.56198 40.101 1.6166 40.1219 1.67673C40.1428 1.73687 40.1498 1.80095 40.1425 1.86419C40.1378 1.96279 40.1248 2.06082 40.1035 2.15719C40.0721 2.31704 40.0263 2.47369 39.9665 2.62519L35.5165 16.8942C35.4598 17.1678 35.3242 17.4188 35.1265 17.6162C34.9176 17.7475 34.6725 17.8091 34.4265 17.7922H32.8435C32.5837 17.8144 32.3236 17.7527 32.1015 17.6162C31.9082 17.4127 31.7852 17.1527 31.7505 16.8742L28.8815 4.96819L26.0315 16.8552C25.9881 17.1311 25.8663 17.3887 25.6805 17.5972C25.461 17.7401 25.1987 17.8024 24.9385 17.7732H23.3575L23.3525 17.7532ZM47.0685 18.2602C46.109 18.2569 45.153 18.1456 44.2185 17.9282C43.4793 17.7764 42.7637 17.5269 42.0905 17.1862C41.8567 17.0751 41.6601 16.8986 41.5245 16.6782C41.4508 16.5188 41.4109 16.3458 41.4075 16.1702V15.2332C41.4075 14.8432 41.5635 14.6672 41.8365 14.6672C41.9497 14.6677 42.062 14.6877 42.1685 14.7262C42.2855 14.7652 42.4415 14.8432 42.6365 14.9022C43.2868 15.1923 43.9678 15.4084 44.6665 15.5462C45.3922 15.695 46.1316 15.7671 46.8725 15.7612C47.8098 15.8209 48.7447 15.611 49.5665 15.1562C49.866 14.973 50.1121 14.7142 50.2799 14.4058C50.4477 14.0974 50.5314 13.7502 50.5225 13.3992C50.53 12.9196 50.3473 12.4565 50.0145 12.1112C49.4782 11.6543 48.8437 11.3271 48.1605 11.1552L45.4865 10.2962C44.3318 9.99627 43.3008 9.34064 42.5395 8.42219C41.9503 7.65475 41.6283 6.71569 41.6225 5.74819C41.6094 5.03217 41.7846 4.32527 42.1305 3.69819C42.4635 3.10481 42.9153 2.58638 43.4575 2.17519C44.0304 1.73811 44.6813 1.41401 45.3755 1.22019C46.1307 1.00477 46.9131 0.899681 47.6985 0.908193C48.1098 0.904364 48.5209 0.930433 48.9285 0.986193C49.3575 1.04519 49.7485 1.12319 50.1195 1.18619C50.4905 1.28619 50.8415 1.36219 51.1735 1.47919C51.4433 1.56379 51.7045 1.67396 51.9535 1.80819C52.1713 1.91707 52.3592 2.07777 52.5005 2.27619C52.6249 2.45262 52.6868 2.66555 52.6765 2.88119V3.73819C52.6765 4.12819 52.5205 4.32419 52.2475 4.32419C52.0031 4.29503 51.766 4.22221 51.5475 4.10919C50.4282 3.60892 49.2122 3.36237 47.9865 3.38719C47.137 3.34553 46.2909 3.52033 45.5275 3.89519C45.2475 4.06338 45.0193 4.30537 44.8678 4.59465C44.7163 4.88392 44.6473 5.20932 44.6685 5.53519C44.6627 5.7794 44.7085 6.02207 44.8027 6.24743C44.8969 6.47279 45.0376 6.67578 45.2155 6.84319C45.8144 7.31868 46.5057 7.66434 47.2455 7.85819L49.8615 8.69719C50.9747 8.98695 51.9747 9.60594 52.7305 10.4732C53.2955 11.2115 53.5915 12.1207 53.5695 13.0502C53.5767 13.7941 53.4095 14.5294 53.0815 15.1972C52.755 15.8283 52.2954 16.381 51.7345 16.8172C51.1294 17.2992 50.4316 17.6515 49.6845 17.8522C48.8429 18.1325 47.9605 18.2707 47.0735 18.2612L47.0685 18.2602Z" fill="#60718B"/>
<path d="M50.5674 27.2205C44.4964 31.7095 35.6744 34.0915 28.0814 34.0915C17.949 34.1472 8.16116 30.4156 0.637444 23.6285C0.0714442 23.1215 0.578444 22.4185 1.26244 22.8085C8.55338 27.0072 16.7164 29.4631 25.1137 29.9846C33.5109 30.5061 41.9151 29.0789 49.6694 25.8145C50.7044 25.3665 51.5634 26.4785 50.5674 27.2205ZM53.1054 24.3515C52.3244 23.3515 47.9714 23.8635 46.0004 24.1175C45.4144 24.1955 45.3174 23.6685 45.8444 23.2785C49.3184 20.8385 55.0184 21.5415 55.6824 22.3615C56.3464 23.2005 55.5064 28.9005 52.2474 31.6335C51.7404 32.0625 51.2714 31.8335 51.4864 31.2825C52.2264 29.4455 53.8664 25.3275 53.1054 24.3515Z" fill="#FF9900"/>
</g>
<defs>
<clipPath id="clip0_37_858">
<rect width="55.499" height="33.1844" fill="white" transform="translate(0.393555 0.907715)"/>
</clipPath>
</defs>
</svg>
