<svg width="40" height="40" viewBox="0 0 40 40" fill="none" xmlns="http://www.w3.org/2000/svg">
<path d="M2.7907 13.6548V21.0668C2.7907 21.4353 2.64369 21.7888 2.38201 22.0495C2.12033 22.3101 1.76542 22.4565 1.39535 22.4565C1.02528 22.4565 0.670367 22.3101 0.408688 22.0495C0.14701 21.7888 0 21.4353 0 21.0668V13.6548C0 13.2862 0.14701 12.9327 0.408688 12.6721C0.670367 12.4114 1.02528 12.265 1.39535 12.265C1.76542 12.265 2.12033 12.4114 2.38201 12.6721C2.64369 12.9327 2.7907 13.2862 2.7907 13.6548ZM38.6047 12.265C38.2346 12.265 37.8797 12.4114 37.618 12.6721C37.3563 12.9327 37.2093 13.2862 37.2093 13.6548V21.0668C37.2093 21.4353 37.3563 21.7888 37.618 22.0495C37.8797 22.3101 38.2346 22.4565 38.6047 22.4565C38.9747 22.4565 39.3296 22.3101 39.5913 22.0495C39.853 21.7888 40 21.4353 40 21.0668V13.6548C40 13.2862 39.853 12.9327 39.5913 12.6721C39.3296 12.4114 38.9747 12.265 38.6047 12.265ZM6.97674 28.4788C6.97674 29.4617 7.36877 30.4043 8.06658 31.0993C8.76439 31.7943 9.71082 32.1848 10.6977 32.1848H15.2833C15.5896 32.1848 15.8912 32.2601 16.1613 32.404C16.4313 32.5479 16.6615 32.7561 16.8314 33.0099L19.226 36.5875C19.311 36.7144 19.4261 36.8184 19.5611 36.8904C19.6961 36.9623 19.8469 37 20 37C20.1531 37 20.3039 36.9623 20.4389 36.8904C20.5739 36.8184 20.689 36.7144 20.774 36.5875L23.1686 33.0099C23.3385 32.7561 23.5687 32.5479 23.8387 32.404C24.1088 32.2601 24.4104 32.1848 24.7167 32.1848H29.3023C30.2892 32.1848 31.2356 31.7943 31.9334 31.0993C32.6312 30.4043 33.0233 29.4617 33.0233 28.4788V24.7728H6.97674V28.4788ZM33.0233 11.8018V21.9933H6.97674V11.8018C6.97674 10.8189 7.36877 9.87623 8.06658 9.18122C8.76439 8.48621 9.71082 8.09575 10.6977 8.09575H18.6047V4.38975C18.6047 4.02117 18.7517 3.66768 19.0133 3.40705C19.275 3.14642 19.6299 3 20 3C20.3701 3 20.725 3.14642 20.9867 3.40705C21.2483 3.66768 21.3953 4.02117 21.3953 4.38975V8.09575H29.3023C30.2892 8.09575 31.2356 8.48621 31.9334 9.18122C32.6312 9.87623 33.0233 10.8189 33.0233 11.8018ZM16.2791 17.3608C16.2791 16.9943 16.17 16.636 15.9655 16.3313C15.7611 16.0266 15.4705 15.7891 15.1306 15.6488C14.7906 15.5086 14.4165 15.4719 14.0556 15.5434C13.6948 15.6149 13.3632 15.7913 13.1031 16.0505C12.8429 16.3096 12.6657 16.6398 12.5939 16.9993C12.5221 17.3587 12.5589 17.7313 12.6998 18.0699C12.8406 18.4085 13.079 18.6979 13.385 18.9015C13.6909 19.1051 14.0506 19.2138 14.4186 19.2138C14.912 19.2138 15.3852 19.0185 15.7342 18.671C16.0831 18.3235 16.2791 17.8522 16.2791 17.3608ZM27.4419 17.3608C27.4419 16.9943 27.3327 16.636 27.1283 16.3313C26.9239 16.0266 26.6333 15.7891 26.2934 15.6488C25.9534 15.5086 25.5793 15.4719 25.2184 15.5434C24.8575 15.6149 24.526 15.7913 24.2658 16.0505C24.0057 16.3096 23.8285 16.6398 23.7567 16.9993C23.6849 17.3587 23.7217 17.7313 23.8626 18.0699C24.0034 18.4085 24.2418 18.6979 24.5478 18.9015C24.8537 19.1051 25.2134 19.2138 25.5814 19.2138C26.0748 19.2138 26.548 19.0185 26.8969 18.671C27.2458 18.3235 27.4419 17.8522 27.4419 17.3608Z" fill="#659DF4"/>
</svg>
