<svg xmlns="http://www.w3.org/2000/svg" width="21" height="21" viewBox="0 0 21 21" fill="none">
  <g clip-path="url(#clip0_26_23286)">
    <path d="M19.6667 6.33325V1.33325M19.6667 1.33325H14.6667M19.6667 1.33325L13.8333 7.16659M18.8333 14.5999V17.0999C18.8343 17.332 18.7867 17.5617 18.6937 17.7744C18.6008 17.987 18.4644 18.1779 18.2934 18.3348C18.1224 18.4917 17.9205 18.6112 17.7006 18.6855C17.4808 18.7599 17.2478 18.7875 17.0167 18.7666C14.4523 18.488 11.9892 17.6117 9.82498 16.2083C7.81151 14.9288 6.10443 13.2217 4.82499 11.2083C3.41663 9.03426 2.54019 6.55908 2.26665 3.98325C2.24583 3.75281 2.27321 3.52055 2.34707 3.30127C2.42092 3.08199 2.53963 2.88049 2.69562 2.7096C2.85162 2.53871 3.04149 2.40218 3.25314 2.30869C3.4648 2.2152 3.6936 2.1668 3.92499 2.16659H6.42499C6.82941 2.1626 7.22148 2.30582 7.52812 2.56953C7.83476 2.83324 8.03505 3.19946 8.09165 3.59992C8.19717 4.39997 8.39286 5.18552 8.67499 5.94159C8.7871 6.23986 8.81137 6.56401 8.74491 6.87565C8.67844 7.18729 8.52404 7.47334 8.29998 7.69992L7.24165 8.75825C8.42795 10.8445 10.1554 12.572 12.2417 13.7583L13.3 12.6999C13.5266 12.4759 13.8126 12.3215 14.1243 12.255C14.4359 12.1885 14.76 12.2128 15.0583 12.3249C15.8144 12.607 16.5999 12.8027 17.4 12.9083C17.8048 12.9654 18.1745 13.1693 18.4388 13.4812C18.703 13.7931 18.8435 14.1912 18.8333 14.5999Z" stroke="#121417" stroke-width="1.5" stroke-linecap="round" stroke-linejoin="round"/>
  </g>
  <defs>
    <clipPath id="clip0_26_23286">
      <rect width="20" height="20" fill="white" transform="translate(0.5 0.5)"/>
    </clipPath>
  </defs>
</svg>