<svg width="80" height="80" viewBox="0 0 80 80" fill="none" xmlns="http://www.w3.org/2000/svg">
<g clip-path="url(#clip0_1429_9087)">
<path d="M76.4953 32.5109C75.525 16.1766 61.9297 3.1875 45.3563 3.1875H34.6437C18.0703 3.1875 4.475 16.1766 3.50469 32.5109C1.44531 33.3984 0 35.45 0 37.8312V49.9141C0 53.1078 2.59844 55.7062 5.79219 55.7062H10.4797V32.0391H8.23906C9.42969 18.5172 20.8172 7.875 34.6437 7.875H45.3563C59.1828 7.875 70.5703 18.5172 71.7609 32.0391H69.5203V55.7062H74.2078C77.4016 55.7062 80 53.1078 80 49.9141V37.8312C80 35.45 78.5547 33.3984 76.4953 32.5109Z" fill="url(#paint0_linear_1429_9087)"/>
<path d="M58.417 24.7031H21.5826C18.0451 24.7031 15.167 27.5812 15.167 31.1187V60.3187C15.167 63.8563 18.0451 66.7344 21.5826 66.7344H29.6154L37.4279 75.9812C37.8732 76.5078 38.5279 76.8125 39.2186 76.8125C39.9092 76.8125 40.5639 76.5078 41.0092 75.9812L48.8217 66.7344H58.417C61.9545 66.7344 64.8326 63.8563 64.8326 60.3187V31.1187C64.8326 27.5812 61.9545 24.7031 58.417 24.7031ZM48.5654 36.4406C49.8592 36.4406 50.9092 37.4891 50.9092 38.7844C50.9092 40.0781 49.8592 41.1281 48.5654 41.1281C47.2717 41.1281 46.2217 40.0781 46.2217 38.7844C46.2217 37.4891 47.2717 36.4406 48.5654 36.4406ZM30.442 36.4406C31.7357 36.4406 32.7857 37.4891 32.7857 38.7844C32.7857 40.0781 31.7357 41.1281 30.442 41.1281C29.1482 41.1281 28.0982 40.0781 28.0982 38.7844C28.0982 37.4891 29.1482 36.4406 30.442 36.4406ZM51.6826 50.6594C48.0795 53.8547 44.0389 55.4531 39.9998 55.4531C35.9592 55.4531 31.9201 53.8562 28.317 50.6594C27.3482 49.8016 27.2592 48.3203 28.1186 47.3516C28.9779 46.3828 30.4592 46.2937 31.4279 47.1531C34.1514 49.5687 37.0748 50.7766 39.9998 50.7766C42.9248 50.7766 45.8498 49.5687 48.5732 47.1531C49.5404 46.2937 51.0217 46.3828 51.8811 47.3516C52.7404 48.3203 52.6514 49.8016 51.6826 50.6594Z" fill="url(#paint1_linear_1429_9087)"/>
</g>
<defs>
<linearGradient id="paint0_linear_1429_9087" x1="40" y1="3.1875" x2="40" y2="45.1401" gradientUnits="userSpaceOnUse">
<stop stop-color="#FFE3E1"/>
<stop offset="1" stop-color="#FC867D"/>
</linearGradient>
<linearGradient id="paint1_linear_1429_9087" x1="39.9998" y1="24.7031" x2="39.9998" y2="66.3287" gradientUnits="userSpaceOnUse">
<stop stop-color="#FFE3E1"/>
<stop offset="1" stop-color="#FC867D"/>
</linearGradient>
<clipPath id="clip0_1429_9087">
<rect width="80" height="80" fill="white"/>
</clipPath>
</defs>
</svg>
