<svg xmlns="http://www.w3.org/2000/svg" width="24" height="24" viewBox="0 0 24 24" fill="none">
  <g clip-path="url(#clip0_74_47167)">
    <path d="M15.9546 7.69383C20.3368 7.62689 23.9136 11.076 23.9984 15.4579C24.0109 16.1013 23.9466 16.7275 23.8141 17.3281C23.5898 18.3452 23.4564 19.3801 23.4564 20.4216V22.4348C23.4564 22.7433 23.2064 22.9933 22.8979 22.9933H20.8848C19.8433 22.9933 18.8083 23.1266 17.7913 23.351C17.1906 23.4835 16.5644 23.5478 15.9211 23.5353C11.5392 23.4505 8.09012 19.8739 8.15696 15.4917C8.22216 11.2144 11.6773 7.75917 15.9546 7.69383Z" fill="url(#paint0_linear_74_47167)"/>
    <path d="M15.9546 7.69383C20.3368 7.62689 23.9136 11.076 23.9984 15.4579C24.0109 16.1013 23.9466 16.7275 23.8141 17.3281C23.5898 18.3452 23.4564 19.3801 23.4564 20.4216V22.4348C23.4564 22.7433 23.2064 22.9933 22.8979 22.9933H20.8848C19.8433 22.9933 18.8083 23.1266 17.7913 23.351C17.1906 23.4835 16.5644 23.5478 15.9211 23.5353C11.5392 23.4505 8.09012 19.8739 8.15696 15.4917C8.22216 11.2144 11.6773 7.75917 15.9546 7.69383Z" fill="url(#paint1_linear_74_47167)"/>
    <path d="M9.80147 0.464546C4.4627 0.382984 0.105251 4.5849 0.00184496 9.92329C-0.0132956 10.707 0.0650323 11.47 0.22647 12.2017C0.49975 13.4407 0.662219 14.7016 0.662219 15.9704V18.423C0.662219 18.7988 0.966812 19.1034 1.34261 19.1034H3.7952C5.06401 19.1034 6.3249 19.2659 7.56394 19.5392C8.29566 19.7006 9.05859 19.7789 9.84229 19.7637C15.1806 19.6604 19.3825 15.3031 19.3011 9.9644C19.2216 4.75346 15.0124 0.544093 9.80147 0.464546Z" fill="url(#paint2_linear_74_47167)"/>
    <path d="M6.19656 9.5971C5.92393 9.30741 5.53806 9.12549 5.10878 9.12549C4.28317 9.12549 3.61389 9.79477 3.61389 10.6204C3.61389 11.0496 3.79577 11.4355 4.0855 11.7082L7.31021 14.9329C7.58288 15.2226 7.96876 15.4045 8.39799 15.4045C9.2236 15.4045 9.89288 14.7352 9.89288 13.9096C9.89288 13.4804 9.71096 13.0945 9.42127 12.8218L6.19656 9.5971Z" fill="url(#paint3_linear_74_47167)"/>
    <path d="M5.10866 12.115C5.93426 12.115 6.60354 11.4457 6.60354 10.6201C6.60354 9.79453 5.93426 9.12524 5.10866 9.12524C4.28305 9.12524 3.61377 9.79453 3.61377 10.6201C3.61377 11.4457 4.28305 12.115 5.10866 12.115Z" fill="white"/>
    <path d="M10.4242 9.5971C10.1516 9.30741 9.76572 9.12549 9.33644 9.12549C8.51083 9.12549 7.84155 9.79477 7.84155 10.6204C7.84155 11.0496 8.02343 11.4355 8.31316 11.7082L11.5379 14.9329C11.8105 15.2226 12.1964 15.4045 12.6257 15.4045C13.4513 15.4045 14.1205 14.7352 14.1205 13.9096C14.1205 13.4804 13.9386 13.0945 13.6489 12.8218L10.4242 9.5971Z" fill="url(#paint4_linear_74_47167)"/>
    <path d="M9.33644 12.115C10.162 12.115 10.8313 11.4457 10.8313 10.6201C10.8313 9.79453 10.162 9.12524 9.33644 9.12524C8.51084 9.12524 7.84155 9.79453 7.84155 10.6201C7.84155 11.4457 8.51084 12.115 9.33644 12.115Z" fill="white"/>
    <path d="M14.6518 9.5971C14.3791 9.30741 13.9933 9.12549 13.564 9.12549C12.7384 9.12549 12.0691 9.79477 12.0691 10.6204C12.0691 11.0496 12.251 11.4355 12.5407 11.7082L15.7654 14.9329C16.0381 15.2226 16.424 15.4045 16.8532 15.4045C17.6788 15.4045 18.3481 14.7352 18.3481 13.9096C18.3481 13.4804 18.1662 13.0945 17.8765 12.8218L14.6518 9.5971Z" fill="url(#paint5_linear_74_47167)"/>
    <path d="M13.5642 12.115C14.3898 12.115 15.0591 11.4457 15.0591 10.6201C15.0591 9.79453 14.3898 9.12524 13.5642 9.12524C12.7386 9.12524 12.0693 9.79453 12.0693 10.6201C12.0693 11.4457 12.7386 12.115 13.5642 12.115Z" fill="white"/>
  </g>
  <defs>
    <linearGradient id="paint0_linear_74_47167" x1="14.4788" y1="14.0162" x2="26.1096" y2="25.647" gradientUnits="userSpaceOnUse">
      <stop stop-color="#A7F3CE"/>
      <stop offset="1" stop-color="#61DB99"/>
    </linearGradient>
    <linearGradient id="paint1_linear_74_47167" x1="18.2861" y1="17.8233" x2="13.346" y2="12.8836" gradientUnits="userSpaceOnUse">
      <stop stop-color="#61DB99" stop-opacity="0"/>
      <stop offset="1" stop-color="#009E74"/>
    </linearGradient>
    <linearGradient id="paint2_linear_74_47167" x1="6.12512" y1="8.55421" x2="18.4048" y2="20.8339" gradientUnits="userSpaceOnUse">
      <stop stop-color="#62E1FB"/>
      <stop offset="1" stop-color="#00A2F3"/>
    </linearGradient>
    <linearGradient id="paint3_linear_74_47167" x1="8.43417" y1="13.9461" x2="1.96872" y2="7.48081" gradientUnits="userSpaceOnUse">
      <stop stop-color="#00A2F3" stop-opacity="0"/>
      <stop offset="1" stop-color="#0075CD"/>
    </linearGradient>
    <linearGradient id="paint4_linear_74_47167" x1="12.6615" y1="13.9459" x2="6.19628" y2="7.48065" gradientUnits="userSpaceOnUse">
      <stop stop-color="#00A2F3" stop-opacity="0"/>
      <stop offset="1" stop-color="#0075CD"/>
    </linearGradient>
    <linearGradient id="paint5_linear_74_47167" x1="16.8891" y1="13.946" x2="10.4238" y2="7.48072" gradientUnits="userSpaceOnUse">
      <stop stop-color="#00A2F3" stop-opacity="0"/>
      <stop offset="1" stop-color="#0075CD"/>
    </linearGradient>
    <clipPath id="clip0_74_47167">
      <rect width="24" height="24" fill="white"/>
    </clipPath>
  </defs>
</svg>