<svg width="24" height="24" viewBox="0 0 24 24" fill="none" xmlns="http://www.w3.org/2000/svg">
<path d="M0.9375 14.8125C0.626813 14.8125 0.375 14.5607 0.375 14.25V5.8125C0.375 5.50181 0.626813 5.25 0.9375 5.25C1.24819 5.25 1.5 5.50181 1.5 5.8125V14.25C1.5 14.5607 1.24819 14.8125 0.9375 14.8125Z" fill="#3F57A0"/>
<path d="M4.5 12V16.5C4.5 16.8113 4.24875 17.0625 3.9375 17.0625H1.5C0.879375 17.0625 0.375 16.5581 0.375 15.9375V12.5625C0.375 11.9419 0.879375 11.4375 1.5 11.4375H3.9375C4.24875 11.4375 4.5 11.6887 4.5 12Z" fill="url(#paint0_linear_708_4822)"/>
<path d="M23.25 12.5625V15.9375C23.25 16.5581 22.7456 17.0625 22.125 17.0625H19.6875C19.3762 17.0625 19.125 16.8113 19.125 16.5V12C19.125 11.6887 19.3762 11.4375 19.6875 11.4375H22.125C22.7456 11.4375 23.25 11.9419 23.25 12.5625Z" fill="url(#paint1_linear_708_4822)"/>
<path d="M20.25 10.3125V19.125C20.25 20.6756 18.9881 21.9375 17.4375 21.9375H6.1875C4.63687 21.9375 3.375 20.6756 3.375 19.125V10.3125C3.375 8.76187 4.63687 7.5 6.1875 7.5H17.4375C18.9881 7.5 20.25 8.76187 20.25 10.3125Z" fill="url(#paint2_linear_708_4822)"/>
<path d="M18.1875 10.5V18.9375C18.1875 19.455 17.7675 19.875 17.25 19.875H6.375C5.8575 19.875 5.4375 19.455 5.4375 18.9375V10.5C5.4375 9.9825 5.8575 9.5625 6.375 9.5625H17.25C17.7675 9.5625 18.1875 9.9825 18.1875 10.5Z" fill="url(#paint3_linear_708_4822)"/>
<path d="M10.5 14.8125C10.356 14.8125 10.212 14.7576 10.1021 14.6477C9.95794 14.5035 9.76631 14.4242 9.5625 14.4242C9.35869 14.4242 9.16688 14.5037 9.02288 14.6477C8.80313 14.8674 8.44706 14.8674 8.22731 14.6477C8.00756 14.4281 8.00756 14.0721 8.22731 13.8523C8.58394 13.4957 9.05812 13.2992 9.56269 13.2992C10.0672 13.2992 10.5412 13.4957 10.8981 13.8523C11.1176 14.0721 11.1176 14.4281 10.8981 14.6477C10.7878 14.7576 10.644 14.8125 10.5 14.8125Z" fill="#3F57A0"/>
<path d="M15 14.8125C14.856 14.8125 14.712 14.7576 14.6021 14.6477C14.4579 14.5035 14.2663 14.4242 14.0625 14.4242C13.8587 14.4242 13.6669 14.5037 13.5229 14.6477C13.3031 14.8674 12.9471 14.8674 12.7273 14.6477C12.5076 14.4281 12.5076 14.0721 12.7273 13.8523C13.0839 13.4957 13.5581 13.2992 14.0627 13.2992C14.5673 13.2992 15.0413 13.4957 15.3981 13.8523C15.6176 14.0721 15.6176 14.4281 15.3981 14.6477C15.2878 14.7576 15.144 14.8125 15 14.8125Z" fill="#3F57A0"/>
<path d="M23.625 3.75V9C23.625 9.34688 23.52 9.66937 23.34 9.9375C23.0363 10.3894 22.5206 10.6875 21.9375 10.6875H17.5087L16.5525 11.8031C16.4456 11.9288 16.29 12 16.125 12C15.96 12 15.8044 11.9288 15.6975 11.8031L14.7394 10.6856C13.8431 10.6481 13.125 9.90562 13.125 9V3.75C13.125 3.01687 13.5956 2.39063 14.25 2.16C14.4262 2.09625 14.6156 2.0625 14.8125 2.0625H21.9375C22.8675 2.0625 23.625 2.82 23.625 3.75Z" fill="url(#paint4_linear_708_4822)"/>
<path d="M16.125 6.9375C16.4357 6.9375 16.6875 6.68566 16.6875 6.375C16.6875 6.06434 16.4357 5.8125 16.125 5.8125C15.8143 5.8125 15.5625 6.06434 15.5625 6.375C15.5625 6.68566 15.8143 6.9375 16.125 6.9375Z" fill="#E8F8FC"/>
<path d="M18.375 6.9375C18.6857 6.9375 18.9375 6.68566 18.9375 6.375C18.9375 6.06434 18.6857 5.8125 18.375 5.8125C18.0643 5.8125 17.8125 6.06434 17.8125 6.375C17.8125 6.68566 18.0643 6.9375 18.375 6.9375Z" fill="#E8F8FC"/>
<path d="M20.625 6.9375C20.9357 6.9375 21.1875 6.68566 21.1875 6.375C21.1875 6.06434 20.9357 5.8125 20.625 5.8125C20.3143 5.8125 20.0625 6.06434 20.0625 6.375C20.0625 6.68566 20.3143 6.9375 20.625 6.9375Z" fill="#E8F8FC"/>
<defs>
<linearGradient id="paint0_linear_708_4822" x1="0.375" y1="14.25" x2="4.5" y2="14.25" gradientUnits="userSpaceOnUse">
<stop offset="0.0037" stop-color="#7994D8"/>
<stop offset="0.0318" stop-color="#748FD3"/>
<stop offset="0.1829" stop-color="#5D76BD"/>
<stop offset="0.3417" stop-color="#4C65AD"/>
<stop offset="0.5122" stop-color="#425AA3"/>
<stop offset="0.7147" stop-color="#3F57A0"/>
<stop offset="0.8386" stop-color="#3B539C"/>
<stop offset="0.9741" stop-color="#2D458E"/>
<stop offset="1" stop-color="#2A428B"/>
</linearGradient>
<linearGradient id="paint1_linear_708_4822" x1="23.9561" y1="14.25" x2="19.8311" y2="14.25" gradientUnits="userSpaceOnUse">
<stop offset="0.0037" stop-color="#7994D8"/>
<stop offset="0.0318" stop-color="#748FD3"/>
<stop offset="0.1829" stop-color="#5D76BD"/>
<stop offset="0.3417" stop-color="#4C65AD"/>
<stop offset="0.5122" stop-color="#425AA3"/>
<stop offset="0.7147" stop-color="#3F57A0"/>
<stop offset="0.8386" stop-color="#3B539C"/>
<stop offset="0.9741" stop-color="#2D458E"/>
<stop offset="1" stop-color="#2A428B"/>
</linearGradient>
<linearGradient id="paint2_linear_708_4822" x1="3.375" y1="14.7188" x2="20.25" y2="14.7188" gradientUnits="userSpaceOnUse">
<stop stop-color="#A4EEFF"/>
<stop offset="0.7319" stop-color="#02C0FC"/>
<stop offset="1" stop-color="#27A6FF"/>
</linearGradient>
<linearGradient id="paint3_linear_708_4822" x1="5.4375" y1="14.7188" x2="18.1875" y2="14.7188" gradientUnits="userSpaceOnUse">
<stop offset="0.2386" stop-color="#E8F8FC"/>
<stop offset="0.3441" stop-color="#DAF5FB"/>
<stop offset="0.5418" stop-color="#B6EBF8"/>
<stop offset="0.587" stop-color="#ADE9F7"/>
<stop offset="1" stop-color="#80CBF7"/>
</linearGradient>
<linearGradient id="paint4_linear_708_4822" x1="13.125" y1="7.03125" x2="23.625" y2="7.03125" gradientUnits="userSpaceOnUse">
<stop stop-color="#FD77A6"/>
<stop offset="0.4469" stop-color="#FE3D97"/>
<stop offset="1" stop-color="#E51E82"/>
</linearGradient>
</defs>
</svg>
