<svg width="68" height="68" viewBox="0 0 68 68" fill="none" xmlns="http://www.w3.org/2000/svg">
<g clip-path="url(#clip0_191_3875)">
<path d="M64.0822 49.8542C66.5748 45.1345 67.9914 39.7586 67.9999 34.0519C68.0279 15.3177 52.7429 0.00478238 34.0088 1.12553e-06C15.2242 -0.00478012 -0.00478012 15.2242 1.12553e-06 34.0088C0.00478238 52.7429 15.3177 68.0279 34.0518 67.9999C39.7586 67.9914 45.1345 66.5748 49.8541 64.0822L63.4573 65.8851C64.8684 66.0721 66.0721 64.8684 65.8851 63.4573L64.0822 49.8542Z" fill="#31FFD7"/>
<path d="M65.8857 63.4579C66.0729 64.8684 64.8683 66.073 63.4579 65.8857L49.8539 64.0821C45.135 66.575 39.7588 67.9921 34.0518 68.0001C17.1833 68.0253 3.08793 55.6352 0.446289 39.4905C5.51707 50.4356 16.6016 58.0272 29.4592 58.0272C47.11 58.0272 61.4192 43.718 61.4192 26.0672C61.4192 19.3323 59.3367 13.0834 55.78 7.93164C63.2533 14.1898 68.016 23.5863 68 34.0519C67.9921 39.7588 66.575 45.1351 64.0821 49.8539L65.8857 63.4579Z" fill="#27E2C2"/>
<path d="M3.72975 32.3002C5.35963 32.3002 6.7434 31.1166 7.00743 29.5084C7.92663 23.9091 10.5606 18.7484 14.6519 14.656C19.0167 10.2888 24.5992 7.58117 30.6346 6.84605C32.3005 6.64311 33.5533 5.23025 33.5533 3.55203C33.5533 1.56343 31.8157 0.0139076 29.8417 0.254697C14.8495 2.0826 2.86979 13.6677 0.447954 28.4683C0.118977 30.4794 1.69188 32.3002 3.72975 32.3002Z" fill="#95FFEA"/>
<path d="M13.2535 7.06355C9.12162 10.25 5.74327 14.3658 3.43167 19.0981C2.59335 20.8144 3.37602 22.8901 5.15106 23.5955C5.17164 23.6038 5.19223 23.6119 5.21281 23.6201C6.80683 24.2551 8.63127 23.5751 9.38233 22.0324C10.6968 19.3328 12.4662 16.8419 14.6517 14.6559C15.4865 13.8205 16.3663 13.0464 17.2851 12.335C18.6601 11.2704 18.9795 9.32096 18.0029 7.88207C17.9904 7.86374 17.9781 7.84541 17.9656 7.82709C16.9068 6.26973 14.7448 5.91352 13.2535 7.06355Z" fill="#C4FFF2"/>
<path d="M63.4577 65.8856L53.6865 64.5902C57.3548 63.4905 63.1604 56.0031 64.082 49.8542L65.8855 63.4578C66.0727 64.8683 64.8681 66.0729 63.4577 65.8856Z" fill="#1FC9B1"/>
<path d="M58.9671 34C58.9671 44.5899 57.5723 53.1748 33.9996 53.1748C12.6803 53.1748 9.50159 46.1527 9.08867 36.9761C9.04498 36.0061 9.03223 35.0123 9.03223 34C9.03223 25.6211 9.90547 18.4975 21.9456 15.8881C25.1229 15.1995 29.0779 14.8252 33.9996 14.8252C39.2371 14.8252 43.3798 15.249 46.6555 16.0245C58.1233 18.7389 58.9671 25.7628 58.9671 34Z" fill="#CBE8EA"/>
<path d="M12.7102 33.6041C14.5674 33.6041 16.1132 32.1737 16.2549 30.3219C16.433 27.9942 16.8676 26.3566 17.8335 25.339C18.2913 24.8569 19.1091 24.2507 20.5627 23.6843C22.1773 23.055 23.1043 21.3594 22.7355 19.6662C22.7305 19.6431 22.7254 19.6198 22.7204 19.5967C22.259 17.4821 20.0159 16.2637 17.9981 17.0466C11.3398 19.6303 9.59346 24.2547 9.16367 29.7813C9.00337 31.8438 10.6413 33.6041 12.7102 33.6041Z" fill="#EAF4F4"/>
<path d="M10.8123 23.0883C10.416 23.8674 10.1064 24.6883 9.86491 25.5453C9.25398 27.7144 10.7647 29.9032 13.0116 30.0744C14.6904 30.2023 16.2434 29.139 16.6967 27.5176C16.8157 27.0921 16.9586 26.7077 17.1299 26.3633C17.531 25.5569 17.6346 24.6353 17.3894 23.7687C16.5135 20.6722 12.2713 20.2201 10.8123 23.0883Z" fill="#F8FFFC"/>
<path d="M58.9679 34C58.9679 44.5899 57.5729 53.1755 34 53.1755C14.5234 53.1755 10.1862 47.3142 9.26709 39.3036C14.1878 44.537 21.1732 47.8045 28.9228 47.8045C43.7323 47.8045 55.7546 35.8697 55.8952 21.0945C58.661 24.5011 58.9679 29.0291 58.9679 34Z" fill="#B6D7E1"/>
<path d="M34 46.9222C45.0476 46.9222 54.0034 41.7535 54.0034 35.3777C54.0034 29.0019 45.0476 23.8333 34 23.8333C22.9524 23.8333 13.9966 29.0019 13.9966 35.3777C13.9966 41.7535 22.9524 46.9222 34 46.9222Z" fill="#266D6B"/>
<path d="M54.0026 35.3777C54.0026 41.7538 45.0472 46.9226 33.9998 46.9226C22.9525 46.9226 13.9971 41.7538 13.9971 35.3777C13.9971 34.8945 14.0487 34.4185 14.1477 33.9525C16.5249 39.4468 23.9878 43.0427 32.46 42.3158C42.356 41.4656 49.8891 35.0422 49.3184 27.9536C52.2419 29.9595 54.0026 32.5517 54.0026 35.3777Z" fill="#145956"/>
<path d="M27.7954 38.7954C27.7655 38.7954 27.7355 38.7946 27.7052 38.7928C26.7896 38.7438 26.0871 37.962 26.1363 37.0464C26.176 36.3037 25.6523 35.6461 24.9181 35.5165C24.1845 35.3877 23.4669 35.8259 23.2503 36.5376C22.9832 37.4146 22.0556 37.9092 21.1784 37.642C20.3013 37.3749 19.8068 36.4472 20.0739 35.5701C20.779 33.2547 23.1097 31.8258 25.4948 32.2466C27.8801 32.6673 29.5813 34.807 29.4518 37.2239C29.4043 38.1093 28.6715 38.7954 27.7954 38.7954Z" fill="#31FFD7"/>
<path d="M40.2042 38.7952C39.3279 38.7952 38.5954 38.109 38.5479 37.2237C38.4184 34.8068 40.1196 32.6671 42.505 32.2464C44.8899 31.8254 47.2206 33.2546 47.9258 35.5699C48.1929 36.447 47.6985 37.3746 46.8214 37.6418C45.9439 37.9086 45.0167 37.4144 44.7495 36.5373C44.5329 35.8259 43.8154 35.3865 43.0816 35.5163C42.3474 35.6458 41.8236 36.3035 41.8635 37.0461C41.9125 37.9618 41.21 38.7438 40.2946 38.7926C40.2641 38.7942 40.234 38.7952 40.2042 38.7952Z" fill="#31FFD7"/>
<path d="M45.3383 15.7406C44.126 18.3087 39.5093 20.2194 34 20.2194C28.4906 20.2194 23.8739 18.3085 22.6616 15.7406C25.7118 15.1455 29.4412 14.8245 34 14.8245C38.5587 14.8245 42.2881 15.1455 45.3383 15.7406Z" fill="#B6D7E1"/>
<path d="M45.3379 15.7406C44.1259 18.3084 39.5096 20.2189 34 20.2189C29.913 20.2189 26.3167 19.1677 24.2383 17.5758C26.018 18.3397 28.1731 18.785 30.4948 18.785C34.7669 18.785 38.4727 17.2756 40.3163 15.0664C42.167 15.2213 43.8357 15.4474 45.3379 15.7406Z" fill="#9FC3CC"/>
</g>
<defs>
<clipPath id="clip0_191_3875">
<rect width="68" height="68" fill="white"/>
</clipPath>
</defs>
</svg>
