<svg width="24" height="24" viewBox="0 0 24 24" fill="none" xmlns="http://www.w3.org/2000/svg">
<g clip-path="url(#clip0_708_4545)">
<path d="M23.5466 6.6355L23.5513 11.5247L16.1737 15.9177L16.169 11.0286L23.5466 6.6355Z" fill="#EFAC41"/>
<path d="M18.5321 12.2047L18.5337 13.8283L17.0672 14.6887L17.0656 13.0651L18.5321 12.2047Z" fill="#E4E8F4"/>
<path d="M16.169 11.0285L16.1737 15.9177L11.6635 13.3387L11.6588 8.44952L16.169 11.0285Z" fill="#F9BB4A"/>
<path d="M23.5477 6.63856L16.169 11.0316L14.1988 9.90179L13.6284 9.58232L13.617 9.57665L11.6582 8.45258L19.0369 4.05957L21.0071 5.1836L21.0129 5.18932L21.5774 5.50882L23.5477 6.63856Z" fill="#FED57A"/>
<path d="M21.5774 5.50882L14.1988 9.90179L13.6284 9.58232L13.6169 9.57665L21.0071 5.18359L21.0129 5.18932L21.5774 5.50882Z" fill="#5B5E71"/>
<path d="M14.1988 9.90182L14.2012 11.7697L13.6247 11.4436L13.6223 9.57574L14.1988 9.90182Z" fill="#474B59"/>
<path d="M21.717 10.848L21.8731 11.142L21.7775 11.1978L21.5663 11.3199L21.717 10.848Z" fill="#3F434F"/>
<path d="M21.7774 11.1978L21.7815 11.7807L21.6661 11.848L21.662 11.265L21.7774 11.1978Z" fill="#3F434F"/>
<path d="M22.3536 11.4993L22.3545 11.6241L21.5574 12.0887L21.5565 11.9639L22.3536 11.4993Z" fill="#3F434F"/>
<path d="M23.1965 9.98553L23.1994 10.4009C23.2004 10.532 23.1252 10.6847 23.0249 10.7623L23.0275 11.1367C23.098 11.1038 23.1512 11.1066 23.1515 11.1458L22.8407 11.327C22.8404 11.2878 22.8932 11.2232 22.9635 11.174L22.9609 10.7996C22.9149 10.8182 22.8752 10.8139 22.8441 10.7945C22.8074 10.7675 22.7832 10.7166 22.7827 10.6438L22.7798 10.2284L23.1965 9.98553Z" fill="#3F434F"/>
<path d="M22.2392 10.9285L22.2433 11.5114L22.1279 11.5787L22.1238 10.9958L22.2392 10.9285Z" fill="#3F434F"/>
<path d="M22.1796 10.5783L22.3349 10.8728L22.2392 10.9286L22.0289 11.0503L22.1796 10.5783Z" fill="#3F434F"/>
<path d="M13.3252 12.8323L13.1885 13.0951L13.2741 13.144L13.4628 13.2511L13.3252 12.8323Z" fill="#4C7891"/>
<path d="M13.2741 13.144L13.2748 13.6627L13.378 13.7218L13.3773 13.203L13.2741 13.144Z" fill="#4C7891"/>
<path d="M12.7636 13.4166L12.7638 13.5277L13.4765 13.9352L13.4763 13.8242L12.7636 13.4166Z" fill="#4C7891"/>
<path d="M12.0023 12.0758L12.0028 12.4454C12.003 12.5621 12.071 12.6974 12.1608 12.7658L12.1612 13.0989C12.0983 13.0702 12.051 13.0731 12.051 13.108L12.3289 13.2669C12.3288 13.232 12.2814 13.1749 12.2185 13.1316L12.2181 12.7985C12.2591 12.8147 12.2944 12.8106 12.3219 12.7931C12.3544 12.7687 12.3755 12.7233 12.3754 12.6585L12.3749 12.2889L12.0023 12.0758Z" fill="#4C7891"/>
<path d="M12.8611 12.9079L12.8618 13.4266L12.9651 13.4857L12.9644 12.9669L12.8611 12.9079Z" fill="#4C7891"/>
<path d="M12.9116 12.5958L12.7756 12.859L12.8612 12.9079L13.0492 13.0146L12.9116 12.5958Z" fill="#4C7891"/>
<path d="M14.6769 11.917L14.6816 16.8062L7.30403 21.1992L7.29935 16.3101L14.6769 11.917Z" fill="#EFAC41"/>
<path d="M9.66244 17.4862L9.66405 19.1098L8.19762 19.9701L8.19601 18.3466L9.66244 17.4862Z" fill="#E4E8F4"/>
<path d="M7.29937 16.31L7.30405 21.1992L2.7939 18.6202L2.78922 13.731L7.29937 16.31Z" fill="#F9BB4A"/>
<path d="M14.678 11.9201L7.29936 16.3131L5.32914 15.1833L4.75882 14.8638L4.74732 14.8581L2.7886 13.7341L10.1673 9.34106L12.1375 10.4651L12.1433 10.4708L12.7078 10.7903L14.678 11.9201Z" fill="#FED57A"/>
<path d="M12.7078 10.7903L5.32913 15.1833L4.75881 14.8638L4.74731 14.8581L12.1375 10.4651L12.1433 10.4708L12.7078 10.7903Z" fill="#5B5E71"/>
<path d="M5.32915 15.1833L5.33162 17.0511L4.75509 16.725L4.75262 14.8572L5.32915 15.1833Z" fill="#474B59"/>
<path d="M12.8474 16.1294L13.0035 16.4234L12.9078 16.4792L12.6967 16.6014L12.8474 16.1294Z" fill="#3F434F"/>
<path d="M12.9078 16.4792L12.9119 17.0622L12.7964 17.1295L12.7924 16.5465L12.9078 16.4792Z" fill="#3F434F"/>
<path d="M13.484 16.7808L13.4848 16.9056L12.6878 17.3702L12.6869 17.2454L13.484 16.7808Z" fill="#3F434F"/>
<path d="M14.3269 15.267L14.3298 15.6824C14.3307 15.8135 14.2556 15.9661 14.1553 16.0438L14.1579 16.4181C14.2283 16.3853 14.2816 16.3881 14.2818 16.4273L13.9711 16.6084C13.9708 16.5693 14.0235 16.5047 14.0938 16.4555L14.0912 16.0811C14.0453 16.0997 14.0056 16.0954 13.9745 16.076C13.9378 16.049 13.9136 15.9981 13.9131 15.9253L13.9102 15.5099L14.3269 15.267Z" fill="#3F434F"/>
<path d="M13.3696 16.21L13.3737 16.7929L13.2582 16.8602L13.2542 16.2773L13.3696 16.21Z" fill="#3F434F"/>
<path d="M13.31 15.8598L13.4653 16.1543L13.3696 16.2101L13.1593 16.3318L13.31 15.8598Z" fill="#3F434F"/>
<path d="M4.4556 18.1138L4.31888 18.3766L4.40443 18.4255L4.59322 18.5326L4.4556 18.1138Z" fill="#4C7891"/>
<path d="M4.40445 18.4255L4.40513 18.9442L4.50836 19.0032L4.50768 18.4845L4.40445 18.4255Z" fill="#4C7891"/>
<path d="M3.89398 18.6981L3.89413 18.8092L4.60685 19.2167L4.6067 19.1057L3.89398 18.6981Z" fill="#4C7891"/>
<path d="M3.13269 17.3573L3.13318 17.7269C3.13333 17.8436 3.20134 17.9789 3.29116 18.0473L3.2916 18.3804C3.22868 18.3517 3.18134 18.3546 3.18139 18.3895L3.45927 18.5483C3.45922 18.5135 3.41181 18.4564 3.34887 18.4131L3.34843 18.08C3.38943 18.0962 3.42475 18.0921 3.45228 18.0746C3.48475 18.0502 3.50589 18.0048 3.5058 17.94L3.50531 17.5704L3.13269 17.3573Z" fill="#4C7891"/>
<path d="M3.99152 18.1894L3.9922 18.7081L4.09543 18.7672L4.09475 18.2484L3.99152 18.1894Z" fill="#4C7891"/>
<path d="M4.04199 17.8773L3.90598 18.1405L3.99153 18.1894L4.17961 18.2961L4.04199 17.8773Z" fill="#4C7891"/>
<path d="M18.435 4.66302L18.4397 9.55218L11.0621 13.9453L11.0574 9.0561L18.435 4.66302Z" fill="#EFAC41"/>
<path d="M13.4205 10.2322L13.4221 11.8558L11.9557 12.7162L11.9541 11.0926L13.4205 10.2322Z" fill="#E4E8F4"/>
<path d="M11.0574 9.05607L11.0621 13.9452L6.55195 11.3662L6.54727 6.47705L11.0574 9.05607Z" fill="#F9BB4A"/>
<path d="M18.4361 4.66609L11.0574 9.0591L9.0872 7.92932L8.51687 7.60985L8.50538 7.60418L6.54666 6.4801L13.9254 2.0871L15.8956 3.21112L15.9013 3.21685L16.4659 3.53635L18.4361 4.66609Z" fill="#FED57A"/>
<path d="M16.4659 3.53634L9.08719 7.92932L8.51687 7.60985L8.50537 7.60418L15.8956 3.21112L15.9013 3.21685L16.4659 3.53634Z" fill="#5B5E71"/>
<path d="M9.08721 7.92935L9.08967 9.79719L8.51314 9.47112L8.51068 7.60327L9.08721 7.92935Z" fill="#474B59"/>
<path d="M16.6055 8.87549L16.7616 9.16951L16.6659 9.22529L16.4547 9.34745L16.6055 8.87549Z" fill="#3F434F"/>
<path d="M16.6659 9.22528L16.6699 9.80819L16.5545 9.87549L16.5504 9.29258L16.6659 9.22528Z" fill="#3F434F"/>
<path d="M17.242 9.52686L17.2429 9.65163L16.4458 10.1163L16.4449 9.99147L17.242 9.52686Z" fill="#3F434F"/>
<path d="M18.085 8.01306L18.0879 8.42839C18.0888 8.55954 18.0136 8.71218 17.9133 8.78984L17.916 9.16418C17.9864 9.13136 18.0396 9.13417 18.0399 9.17334L17.7291 9.35448C17.7288 9.31532 17.7816 9.25074 17.8519 9.20152L17.8493 8.82718C17.8034 8.84571 17.7636 8.84143 17.7325 8.82207C17.6958 8.795 17.6717 8.74416 17.6711 8.6713L17.6682 8.25597L18.085 8.01306Z" fill="#3F434F"/>
<path d="M17.1277 8.95605L17.1317 9.53897L17.0163 9.60627L17.0122 9.02335L17.1277 8.95605Z" fill="#3F434F"/>
<path d="M17.0681 8.60583L17.2234 8.90032L17.1277 8.95609L16.9173 9.07779L17.0681 8.60583Z" fill="#3F434F"/>
<path d="M8.21366 10.8598L8.07693 11.1226L8.16249 11.1715L8.35127 11.2787L8.21366 10.8598Z" fill="#4C7891"/>
<path d="M8.16251 11.1715L8.16319 11.6903L8.26642 11.7493L8.26574 11.2305L8.16251 11.1715Z" fill="#4C7891"/>
<path d="M7.65204 11.4442L7.65218 11.5552L8.3649 11.9627L8.36476 11.8517L7.65204 11.4442Z" fill="#4C7891"/>
<path d="M6.89075 10.1033L6.89123 10.4729C6.89139 10.5897 6.95939 10.7249 7.04921 10.7933L7.04965 11.1264C6.98674 11.0977 6.9394 11.1006 6.93945 11.1355L7.21732 11.2944C7.21728 11.2595 7.16986 11.2024 7.10693 11.1592L7.10649 10.826C7.14748 10.8422 7.18281 10.8381 7.21034 10.8206C7.24281 10.7963 7.26394 10.7509 7.26386 10.686L7.26337 10.3164L6.89075 10.1033Z" fill="#4C7891"/>
<path d="M7.74957 10.9354L7.75026 11.4542L7.85349 11.5132L7.85281 10.9945L7.74957 10.9354Z" fill="#4C7891"/>
<path d="M7.80004 10.6233L7.66403 10.8865L7.74959 10.9354L7.93766 11.0422L7.80004 10.6233Z" fill="#4C7891"/>
<path d="M8.64468 1.7337L8.63603 4.68592L7.4733 5.36021L7.12751 5.56338L5.96478 6.23767L5.97344 3.28546L7.12319 2.61549L7.46897 2.41665L8.64468 1.7337Z" fill="#EFAC41"/>
<path d="M5.97695 3.2872L5.96607 6.23571L3.27847 4.68283L3.28731 1.737V1.7326H3.29174L4.45767 2.40832L4.72268 2.56291L4.80217 2.60706L5.97695 3.2872Z" fill="#F9BB4A"/>
<path d="M8.64635 1.73642L5.97538 3.2882L4.80126 2.60843L4.46136 2.41617L4.45451 2.41276L3.28723 1.73642L5.95822 0.184631L8.64635 1.73642Z" fill="#FED57A"/>
<path d="M4.45325 1.05665L7.12422 2.60842L7.46412 2.41616L7.47097 2.41275L4.79312 0.860962L4.78969 0.864398L4.45325 1.05665Z" fill="#EFAC41"/>
<path d="M7.47328 5.36018L7.1275 5.56335L7.12317 2.61546V2.60681L7.20097 2.56359L7.46896 2.41229V2.41662L7.47328 5.36018Z" fill="#D8983A"/>
<path d="M5.59711 4.98322L5.50958 5.14976L5.56379 5.18106L5.68341 5.24961L5.59711 4.98322Z" fill="#3F434F"/>
<path d="M5.5638 5.18109L5.56287 5.51056L5.62827 5.54832L5.62921 5.21886L5.5638 5.18109Z" fill="#3F434F"/>
<path d="M5.23888 5.35284L5.23868 5.42337L5.69027 5.6841L5.69047 5.61357L5.23888 5.35284Z" fill="#3F434F"/>
<path d="M4.4136 4.31964L4.41293 4.55439C4.41272 4.62852 4.45556 4.71461 4.51243 4.75827L4.51183 4.96985C4.47194 4.95146 4.44187 4.95318 4.44181 4.97531L4.61787 5.07697C4.61794 5.05483 4.58797 5.01845 4.54811 4.9908L4.54871 4.77922C4.57471 4.78959 4.59716 4.78708 4.61469 4.77606C4.63537 4.76067 4.64892 4.73188 4.64903 4.6907L4.6497 4.45595L4.4136 4.31964Z" fill="#3F434F"/>
<path d="M5.30217 5.03003L5.30124 5.3595L5.36665 5.39726L5.36758 5.06779L5.30217 5.03003Z" fill="#3F434F"/>
<path d="M5.33503 4.83191L5.24796 4.99872L5.30216 5.03001L5.42134 5.0983L5.33503 4.83191Z" fill="#3F434F"/>
<path d="M4.87606 5.30743C4.86804 5.30743 4.85939 5.3049 4.85095 5.30004L4.23847 4.94653C4.2123 4.93133 4.19098 4.89355 4.19098 4.86274L4.19309 4.15781C4.19309 4.14008 4.20005 4.12594 4.21208 4.11898C4.22411 4.11222 4.2391 4.11328 4.25387 4.12172L4.86636 4.47524C4.89337 4.49107 4.91532 4.52885 4.9149 4.55966L4.913 5.26459C4.913 5.2821 4.90582 5.29603 4.89358 5.30279C4.88831 5.30595 4.8824 5.30743 4.87606 5.30743ZM4.22939 4.14029C4.2277 4.14029 4.22623 4.14072 4.22496 4.14135C4.22116 4.14367 4.21884 4.14979 4.21884 4.15781L4.21673 4.86274C4.21673 4.88469 4.23298 4.91339 4.25155 4.92415L4.86403 5.27767C4.871 5.28168 4.87691 5.2821 4.88092 5.28042C4.88472 5.27809 4.88704 5.2724 4.88725 5.26459L4.88915 4.55966C4.88915 4.53813 4.87227 4.50859 4.85327 4.49761L4.24079 4.14409C4.23657 4.14156 4.23256 4.14029 4.22939 4.14029Z" fill="#3F434F"/>
<path d="M5.78762 5.83361C5.7796 5.83361 5.77095 5.83129 5.76272 5.82644L5.15024 5.47292C5.12343 5.45751 5.10254 5.42058 5.10254 5.38913L5.10465 4.68399C5.10465 4.66648 5.1114 4.65234 5.12364 4.64537C5.13589 4.63819 5.15066 4.63925 5.16543 4.6479L5.77792 5.00163C5.80493 5.01704 5.82688 5.05503 5.82646 5.08605L5.82456 5.79098C5.82456 5.80807 5.81781 5.822 5.80577 5.82897C5.80029 5.83213 5.79417 5.83361 5.78762 5.83361ZM5.14116 4.66669C5.13947 4.66669 5.13779 4.66711 5.13652 4.66774C5.13272 4.67006 5.1304 4.67597 5.1304 4.68399L5.12829 5.38913C5.12829 5.41108 5.14475 5.43978 5.16332 5.45055L5.77559 5.80406C5.78235 5.80786 5.78868 5.8085 5.79269 5.8066C5.79649 5.80428 5.79881 5.79858 5.79881 5.79098L5.80071 5.08605C5.80071 5.06432 5.78383 5.03498 5.76483 5.024L5.15235 4.67028C5.14813 4.66795 5.14433 4.66669 5.14116 4.66669Z" fill="#3F434F"/>
<path d="M5.81494 8.14209L5.80629 11.0943L4.64356 11.7686L4.29777 11.9718L3.13504 12.6461L3.14369 9.69385L4.29344 9.02388L4.63923 8.82504L5.81494 8.14209Z" fill="#EFAC41"/>
<path d="M3.14721 9.69558L3.13633 12.6441L0.44873 11.0912L0.457572 8.14539V8.14099H0.461993L1.62793 8.8167L1.89294 8.9713L1.97243 9.01545L3.14721 9.69558Z" fill="#F9BB4A"/>
<path d="M5.81664 8.1448L3.14567 9.69659L1.97154 9.01681L1.63165 8.82456L1.62479 8.82114L0.45752 8.1448L3.12851 6.59302L5.81664 8.1448Z" fill="#FED57A"/>
<path d="M1.6235 7.46504L4.29447 9.0168L4.63437 8.82455L4.64122 8.82113L1.96338 7.26935L1.95995 7.27278L1.6235 7.46504Z" fill="#EFAC41"/>
<path d="M4.64354 11.7686L4.29775 11.9717L4.29343 9.02385V9.01519L4.37123 8.97198L4.63921 8.82068V8.825L4.64354 11.7686Z" fill="#D8983A"/>
<path d="M2.76737 11.3916L2.67984 11.5581L2.73405 11.5894L2.85367 11.658L2.76737 11.3916Z" fill="#3F434F"/>
<path d="M2.73406 11.5895L2.73312 11.9189L2.79853 11.9567L2.79947 11.6272L2.73406 11.5895Z" fill="#3F434F"/>
<path d="M2.40914 11.7612L2.40894 11.8318L2.86053 12.0925L2.86072 12.022L2.40914 11.7612Z" fill="#3F434F"/>
<path d="M1.58386 10.728L1.58319 10.9628C1.58298 11.0369 1.62582 11.123 1.68268 11.1667L1.68208 11.3782C1.6422 11.3598 1.61213 11.3616 1.61206 11.3837L1.78813 11.4854C1.78819 11.4632 1.75823 11.4268 1.71837 11.3992L1.71897 11.1876C1.74497 11.198 1.76741 11.1955 1.78495 11.1844C1.80563 11.1691 1.81917 11.1403 1.81929 11.0991L1.81996 10.8643L1.58386 10.728Z" fill="#3F434F"/>
<path d="M2.47243 11.4384L2.4715 11.7679L2.53691 11.8056L2.53784 11.4762L2.47243 11.4384Z" fill="#3F434F"/>
<path d="M2.50529 11.2403L2.41821 11.4071L2.47242 11.4384L2.59159 11.5067L2.50529 11.2403Z" fill="#3F434F"/>
<path d="M2.04632 11.7158C2.0383 11.7158 2.02965 11.7133 2.02121 11.7084L1.40872 11.3549C1.38255 11.3397 1.36124 11.3019 1.36124 11.2711L1.36335 10.5662C1.36335 10.5485 1.37031 10.5343 1.38234 10.5274C1.39437 10.5206 1.40936 10.5217 1.42413 10.5301L2.03661 10.8836C2.06363 10.8995 2.08558 10.9372 2.08516 10.968L2.08326 11.673C2.08326 11.6905 2.07608 11.7044 2.06384 11.7112C2.05856 11.7143 2.05265 11.7158 2.04632 11.7158ZM1.39965 10.5487C1.39796 10.5487 1.39648 10.5491 1.39522 10.5497C1.39142 10.5521 1.3891 10.5582 1.3891 10.5662L1.38699 11.2711C1.38699 11.2931 1.40324 11.3218 1.42181 11.3325L2.03429 11.6861C2.04126 11.6901 2.04717 11.6905 2.05118 11.6888C2.05498 11.6865 2.0573 11.6808 2.05751 11.673L2.05941 10.968C2.05941 10.9465 2.04252 10.917 2.02353 10.906L1.41105 10.5525C1.40682 10.5499 1.40281 10.5487 1.39965 10.5487Z" fill="#3F434F"/>
<path d="M2.95788 12.242C2.94986 12.242 2.94121 12.2397 2.93298 12.2348L2.3205 11.8813C2.29369 11.8659 2.2728 11.829 2.2728 11.7975L2.27491 11.0924C2.27491 11.0749 2.28166 11.0607 2.2939 11.0538C2.30614 11.0466 2.32092 11.0476 2.33569 11.0563L2.94817 11.41C2.97519 11.4254 2.99714 11.4634 2.99672 11.4944L2.99482 12.1994C2.99482 12.2165 2.98806 12.2304 2.97603 12.2374C2.97054 12.2405 2.96442 12.242 2.95788 12.242ZM2.31142 11.0751C2.30973 11.0751 2.30804 11.0755 2.30678 11.0761C2.30298 11.0785 2.30066 11.0844 2.30066 11.0924L2.29855 11.7975C2.29855 11.8195 2.31501 11.8482 2.33358 11.8589L2.94585 12.2124C2.95261 12.2162 2.95894 12.2169 2.96295 12.215C2.96675 12.2127 2.96907 12.207 2.96907 12.1994L2.97097 11.4944C2.97097 11.4727 2.95408 11.4434 2.93509 11.4324L2.32261 11.0787C2.31838 11.0763 2.31459 11.0751 2.31142 11.0751Z" fill="#3F434F"/>
<path d="M13.5818 18.2116L13.5836 18.2126L13.5818 18.2136L13.5818 18.2116Z" fill="#808080"/>
<path d="M20.1379 6.43298C20.3062 6.33486 20.4438 6.41251 20.4451 6.60639L20.5287 18.5618C20.53 18.753 20.3947 18.9898 20.2263 19.0879L12.1875 23.7737C12.0215 23.8705 11.8839 23.7929 11.8825 23.6016L11.799 11.6463C11.7976 11.4524 11.933 11.2156 12.0991 11.1188L20.1379 6.43298Z" fill="#4C7891"/>
<path d="M18.3489 17.682L18.3634 19.4462L12.5133 22.8527L12.4347 11.6566L19.8203 7.35101L19.8845 16.7864L18.3489 17.682Z" fill="white"/>
<path d="M20.3557 6.40951C20.2984 6.3776 20.2234 6.38506 20.1379 6.43184L12.1003 11.1187C11.9328 11.2159 11.7981 11.4522 11.7989 11.645L11.8843 23.6017C11.8847 23.6981 11.9171 23.7623 11.9708 23.7942L11.2154 23.358C11.1617 23.3261 11.1257 23.262 11.1253 23.1656L11.0435 11.2089C11.0392 11.016 11.1775 10.7797 11.3413 10.6826L19.3825 5.99571C19.4645 5.94894 19.543 5.94146 19.5967 5.97339L20.3557 6.40951Z" fill="#37617B"/>
<path d="M17.9441 12.604L17.9465 12.9472L14.9007 14.7227L14.8983 14.3794L17.9441 12.604Z" fill="#D4DAE8"/>
<path d="M19.4074 13.1611L19.4098 13.5043L14.9582 16.0991L14.9558 15.7559L19.4074 13.1611Z" fill="#D4DAE8"/>
<path d="M19.3921 10.9681L19.3945 11.3113L14.9429 13.9062L14.9405 13.5629L19.3921 10.9681Z" fill="#D4DAE8"/>
<path d="M17.9288 10.4136L17.9312 10.7569L14.8853 12.5323L14.8829 12.1891L17.9288 10.4136Z" fill="#D4DAE8"/>
<path d="M19.3768 8.77509L19.3792 9.12093L14.9276 11.7158L14.9252 11.3699L19.3768 8.77509Z" fill="#D4DAE8"/>
<path d="M14.1235 11.6952L14.1334 13.1126L12.9028 13.83L12.8929 12.4125L14.1235 11.6952Z" fill="#6EBA6E"/>
<path d="M14.1388 13.8882L14.1487 15.3056L12.9181 16.023L12.9082 14.6055L14.1388 13.8882Z" fill="#F34858"/>
<path d="M17.9594 14.797L17.9618 15.1402L14.916 16.9157L14.9136 16.5724L17.9594 14.797Z" fill="#D4DAE8"/>
<path d="M14.1541 16.0786L14.164 17.496L12.9334 18.2133L12.9235 16.7959L14.1541 16.0786Z" fill="#4C7891"/>
<path d="M14.1695 18.2715L14.1794 19.689L12.9487 20.4063L12.9388 18.9889L14.1695 18.2715Z" fill="#748BFD"/>
<path d="M19.885 16.7867L18.3619 19.4451L18.3496 17.6817L19.885 16.7867Z" fill="#37617B"/>
<path d="M17.9747 16.99L17.9771 17.3332L14.9313 19.1086L14.9289 18.7654L17.9747 16.99Z" fill="#D4DAE8"/>
<path d="M19.4228 15.3514L19.4252 15.6947L14.9736 18.2895L14.9712 17.9463L19.4228 15.3514Z" fill="#D4DAE8"/>
<path d="M17.3994 8.35626L17.112 8.19084L17.5706 7.92352L17.858 8.08894L17.3994 8.35626Z" fill="#75CA75"/>
<path d="M16.99 8.59489L16.7027 8.42947L16.7026 8.41754L16.99 8.58296L16.99 8.59489Z" fill="#6EBA6E"/>
<path d="M16.9897 8.58414L16.7033 8.41749C16.7028 8.28535 16.6844 8.16756 16.634 8.07491C16.5944 7.99294 16.537 7.93245 16.4654 7.88989L16.7518 8.05657C16.8234 8.09913 16.8808 8.1596 16.924 8.24155C16.9708 8.33064 16.9892 8.452 16.9897 8.58414Z" fill="#6EBA6E"/>
<path d="M14.9484 9.78495L14.661 9.61953C14.6556 8.84063 15.2004 7.88481 15.8766 7.49064C16.2134 7.2943 16.5229 7.27572 16.7449 7.40101L17.0323 7.56643C16.8103 7.44114 16.5008 7.45971 16.164 7.65606C15.4878 8.05023 14.9429 9.00605 14.9484 9.78495Z" fill="#9AD898"/>
<path d="M16.754 7.40609L17.0413 7.57152C17.0383 7.56979 17.0353 7.56809 17.0323 7.56642L16.7449 7.401C16.7479 7.40267 16.751 7.40437 16.754 7.40609Z" fill="#F9BB4A"/>
<path d="M15.3551 9.54486L15.0677 9.37944L16.7027 8.42944L16.99 8.59486L15.3551 9.54486Z" fill="#75CA75"/>
<path d="M14.4944 10.7148L14.207 10.5494L14.2024 9.88684L14.4898 10.0523L14.4944 10.7148Z" fill="#6EBA6E"/>
<path d="M14.4898 10.0522L14.2024 9.88683L14.661 9.61951L14.9484 9.78493L14.4898 10.0522Z" fill="#75CA75"/>
<path d="M17.3994 8.35623L17.858 8.08892L17.8626 8.75143L14.4944 10.7148L14.4898 10.0523L14.9484 9.78494C14.9429 9.00604 15.4878 8.05022 16.164 7.65604C16.5008 7.4597 16.8103 7.44112 17.0323 7.56642C17.2569 7.69021 17.3967 7.96828 17.3994 8.35623ZM16.99 8.59486L16.9899 8.58293C16.989 8.45162 16.9726 8.33235 16.9225 8.24167C16.8803 8.1584 16.8226 8.09613 16.7495 8.05486C16.5954 7.96788 16.3823 7.99027 16.1672 8.11562C15.8563 8.29684 15.5856 8.65239 15.4478 9.02641C15.3788 9.20744 15.354 9.3837 15.3551 9.54485L16.99 8.59486Z" fill="#65AA65"/>
</g>
<defs>
<clipPath id="clip0_708_4545">
<rect width="24" height="24" fill="white"/>
</clipPath>
</defs>
</svg>
