<svg width="80" height="80" viewBox="0 0 80 80" fill="none" xmlns="http://www.w3.org/2000/svg">
<path d="M75.2915 47.6874C73.7191 45.2414 72.1467 42.8828 70.5743 40.4368C70.2248 39.9127 70.2248 39.5632 70.5743 39.0391C72.1467 36.6805 73.6317 34.3219 75.2041 31.9632C77.0386 29.1678 76.0777 26.4598 72.9329 25.3241C70.3122 24.3632 67.6915 23.3149 65.0708 22.354C64.5467 22.1793 64.2846 21.8299 64.2846 21.2184C64.1972 18.3356 64.0225 15.4529 63.8478 12.6575C63.6731 9.60001 61.3145 7.85288 58.3444 8.63908C55.549 9.33794 52.7536 10.1241 50.0455 10.9104C49.434 11.0851 49.0846 10.9104 48.6478 10.4736C46.9007 8.2023 45.0662 6.01839 43.3191 3.83448C41.3972 1.38851 38.4271 1.38851 36.4179 3.83448C34.6708 6.01839 32.8363 8.2023 31.1766 10.3862C30.7398 10.9977 30.303 11.0851 29.6041 10.9103C26.8961 10.1241 24.1881 9.4253 22.2662 8.90115C18.5099 8.02759 16.2386 9.51264 16.0639 12.6575C15.8892 15.5402 15.7145 18.423 15.6271 21.3931C15.6271 22.0046 15.3651 22.2667 14.8409 22.5287C12.1329 23.577 9.42484 24.6253 6.71679 25.6736C3.92139 26.8092 3.04783 29.5172 4.7076 32.0506C6.28001 34.4966 7.85243 36.8552 9.42483 39.3012C9.77425 39.8253 9.77425 40.1747 9.42483 40.7862C7.76507 43.2322 6.19265 45.6782 4.62023 48.2115C3.13518 50.5701 4.09609 53.3655 6.71678 54.4138C9.42483 55.4621 12.2202 56.5104 14.9283 57.5586C15.5398 57.7334 15.7145 58.0828 15.7145 58.6943C15.8018 61.4897 16.1513 64.1977 16.1513 66.9931C16.1513 69.7885 18.5972 72.3219 22.0041 71.2736C24.7122 70.4 27.4202 69.7885 30.1283 69.0023C30.6524 68.8276 31.0018 68.9149 31.3512 69.4391C33.1857 71.7104 34.9329 73.8943 36.7673 76.1655C38.7765 78.6115 41.6593 78.6115 43.5811 76.1655C45.4156 73.8943 47.1627 71.7104 48.9972 69.4391C49.3466 69.0023 49.6087 68.8276 50.2202 69.0023C53.0156 69.7885 55.811 70.4874 58.6064 71.2736C61.4892 72.0598 63.9351 70.3126 64.0225 67.3425C64.1972 64.4598 64.3719 61.577 64.4593 58.6069C64.4593 57.9081 64.8087 57.646 65.3328 57.4713C67.9535 56.5104 70.6616 55.4621 73.2823 54.4138C76.0777 53.0161 76.9513 50.2207 75.2915 47.6874ZM54.4133 33.3609L36.9421 50.8322C36.5053 51.269 35.8938 51.6184 35.2823 51.7058C35.1076 51.7058 34.8455 51.7931 34.6708 51.7931C33.8846 51.7931 33.0111 51.4437 32.3996 50.8322L25.2363 43.669C24.0134 42.446 24.0134 40.4368 25.2363 39.2138C26.4593 37.9908 28.4685 37.9908 29.6915 39.2138L34.5835 44.1058L49.7835 28.9058C51.0065 27.6828 53.0157 27.6828 54.2386 28.9058C55.6363 30.1287 55.6363 32.1379 54.4133 33.3609Z" fill="#09B285"/>
</svg>
