<svg width="24" height="24" viewBox="0 0 24 24" fill="none" xmlns="http://www.w3.org/2000/svg">
<path d="M20.846 11.1322C20.8486 11.0621 20.8512 10.9919 20.8512 10.9191C20.8512 7.73105 18.2659 5.14575 15.0778 5.14575C12.6458 5.14575 10.5671 6.64757 9.7149 8.77816C9.30177 8.61446 8.85226 8.52352 8.37938 8.52352C6.823 8.52352 5.49789 9.50309 4.98601 10.8802C4.85869 10.8672 4.72878 10.862 4.59627 10.862C2.39033 10.862 0.600098 12.6522 0.600098 14.8582C0.600098 17.0641 2.39033 18.8543 4.59627 18.8543H19.4039C21.6099 18.8543 23.4001 17.0641 23.4001 14.8582C23.4001 13.1615 22.34 11.709 20.846 11.1322Z" fill="url(#paint0_linear_74_47700)"/>
<defs>
<linearGradient id="paint0_linear_74_47700" x1="-1.5599" y1="0.352118" x2="23.6703" y2="25.3361" gradientUnits="userSpaceOnUse">
<stop stop-color="#15FFFF"/>
<stop offset="0.0849345" stop-color="#14F6FD"/>
<stop offset="0.222034" stop-color="#13DEF7"/>
<stop offset="0.394194" stop-color="#10B8ED"/>
<stop offset="0.594622" stop-color="#0C82E0"/>
<stop offset="0.815961" stop-color="#073ECF"/>
<stop offset="1" stop-color="#0300BF"/>
</linearGradient>
</defs>
</svg>
