<svg width="80" height="80" viewBox="0 0 80 80" fill="none" xmlns="http://www.w3.org/2000/svg">
<path d="M58.7499 3.75H22.0833C11.9581 3.75 3.75 11.9581 3.75 22.0833V58.7499C3.75 68.8751 11.9581 77.0832 22.0833 77.0832H58.7499C68.8751 77.0832 77.0832 68.8751 77.0832 58.7499V22.0833C77.0832 11.9581 68.8751 3.75 58.7499 3.75Z" fill="url(#paint0_linear_1429_8819)"/>
<g opacity="0.9">
<path d="M29.4168 50.4996C29.0556 50.4997 28.698 50.4287 28.3642 50.2906C28.0304 50.1525 27.7272 49.95 27.4717 49.6947L20.1384 42.3614C19.8828 42.106 19.6801 41.8028 19.5418 41.469C19.4035 41.1353 19.3323 40.7775 19.3323 40.4162C19.3323 40.0549 19.4035 39.6972 19.5418 39.3634C19.6801 39.0297 19.8828 38.7264 20.1384 38.4711L27.4717 31.1377C27.9876 30.6219 28.6873 30.332 29.4168 30.332C30.1464 30.332 30.8461 30.6219 31.362 31.1377C31.8779 31.6536 32.1677 32.3533 32.1677 33.0829C32.1677 33.8125 31.8779 34.5122 31.362 35.0281L25.972 40.4162L31.362 45.8044C31.7469 46.189 32.009 46.6791 32.1152 47.2127C32.2214 47.7463 32.1669 48.2995 31.9587 48.8021C31.7504 49.3048 31.3978 49.7343 30.9453 50.0365C30.4928 50.3386 29.9609 50.4998 29.4168 50.4996Z" fill="white"/>
</g>
<g opacity="0.9">
<path d="M51.4168 50.4996C50.8727 50.4998 50.3408 50.3386 49.8883 50.0365C49.4358 49.7343 49.0832 49.3048 48.8749 48.8021C48.6667 48.2995 48.6122 47.7463 48.7184 47.2127C48.8246 46.6791 49.0868 46.189 49.4716 45.8044L54.8616 40.4162L49.4716 35.0281C49.2162 34.7726 49.0135 34.4694 48.8753 34.1356C48.737 33.8019 48.6659 33.4442 48.6659 33.0829C48.6659 32.7217 48.737 32.3639 48.8753 32.0302C49.0135 31.6964 49.2162 31.3932 49.4716 31.1377C49.9875 30.6219 50.6872 30.332 51.4168 30.332C51.778 30.332 52.1357 30.4032 52.4695 30.5414C52.8032 30.6797 53.1065 30.8823 53.3619 31.1377L60.6953 38.4711C60.9508 38.7264 61.1535 39.0297 61.2918 39.3634C61.4301 39.6972 61.5013 40.0549 61.5013 40.4162C61.5013 40.7775 61.4301 41.1353 61.2918 41.469C61.1535 41.8028 60.9508 42.106 60.6953 42.3614L53.3619 49.6947C53.1065 49.95 52.8032 50.1525 52.4694 50.2906C52.1357 50.4287 51.778 50.4997 51.4168 50.4996Z" fill="white"/>
</g>
<g opacity="0.5">
<path d="M36.7502 56.0005C36.4941 56.0002 36.2393 55.9644 35.993 55.8942C35.292 55.6937 34.6992 55.2231 34.3451 54.5857C33.991 53.9483 33.9045 53.1963 34.1047 52.4952L41.438 26.8286C41.5315 26.475 41.6945 26.1436 41.9176 25.8537C42.1407 25.5639 42.4194 25.3215 42.7373 25.1407C43.0553 24.9599 43.4061 24.8444 43.7692 24.8008C44.1323 24.7573 44.5005 24.7866 44.8522 24.8871C45.2039 24.9875 45.532 25.1572 45.8173 25.386C46.1026 25.6148 46.3394 25.8983 46.5138 26.2197C46.6883 26.5412 46.7968 26.8942 46.8331 27.2582C46.8694 27.6221 46.8328 27.9896 46.7253 28.3392L39.392 54.0059C39.228 54.5801 38.8815 55.0853 38.4048 55.4452C37.9282 55.8051 37.3474 56 36.7502 56.0005Z" fill="white"/>
</g>
<defs>
<linearGradient id="paint0_linear_1429_8819" x1="12.1998" y1="12.1998" x2="70.8847" y2="70.8847" gradientUnits="userSpaceOnUse">
<stop stop-color="#FFECFF"/>
<stop offset="1" stop-color="#FC54FF"/>
</linearGradient>
</defs>
</svg>
