<svg width="132" height="116" viewBox="0 0 132 116" fill="none" xmlns="http://www.w3.org/2000/svg">
<path fill-rule="evenodd" clip-rule="evenodd" d="M0 19.1354C0 8.56724 8.56724 0 19.1354 0H130.469C141.037 0 149.604 8.56724 149.604 19.1354V88.7188C149.604 99.2871 141.037 107.854 130.469 107.854H90.2044L95.4231 118.292H109.594C112.476 118.292 114.812 120.628 114.812 123.51C114.812 126.393 112.476 128.729 109.594 128.729H40.0104C37.1282 128.729 34.7917 126.393 34.7917 123.51C34.7917 120.628 37.1282 118.292 40.0104 118.292H54.1809L59.3996 107.854H19.1354C8.56724 107.854 0 99.2871 0 88.7188V19.1354ZM130.469 97.4167H19.1354C14.3317 97.4167 10.4375 93.5228 10.4375 88.7188V19.1354C10.4375 14.3317 14.3317 10.4375 19.1354 10.4375H130.469C135.273 10.4375 139.167 14.3317 139.167 19.1354V88.7188C139.167 93.5228 135.273 97.4167 130.469 97.4167Z" fill="#F1F1FF"/>
</svg>
