<svg width="436" height="440" viewBox="0 0 436 440" fill="none" xmlns="http://www.w3.org/2000/svg">
<g opacity="0.6" clip-path="url(#clip0_401_852)">
<path d="M148.351 180.375C145.51 181.649 144.245 184.986 145.52 187.815C146.796 190.654 150.135 191.918 152.966 190.644C155.808 189.369 157.073 186.033 155.797 183.204C154.522 180.375 151.183 179.1 148.351 180.375Z" fill="#9D9EB6"/>
<path d="M148.756 173.37C151.379 172.189 152.551 169.111 151.369 166.479C150.187 163.857 147.107 162.687 144.473 163.868C141.849 165.049 140.677 168.127 141.859 170.759C143.041 173.38 146.132 174.551 148.756 173.37Z" fill="#9D9EB6"/>
<path d="M150.539 154.501C152.956 153.412 154.024 150.584 152.945 148.169C151.856 145.755 149.025 144.687 146.609 145.765C144.192 146.853 143.124 149.682 144.203 152.096C145.292 154.511 148.123 155.589 150.539 154.501Z" fill="#9D9EB6"/>
<path d="M154.325 126.564C152.126 127.548 151.141 130.139 152.137 132.336C153.122 134.532 155.714 135.517 157.913 134.522C160.111 133.538 161.097 130.947 160.101 128.75C159.106 126.554 156.523 125.579 154.325 126.564Z" fill="#9D9EB6"/>
<path d="M167.215 106.72C165.224 107.611 164.343 109.943 165.235 111.932C166.126 113.922 168.46 114.803 170.451 113.912C172.442 113.021 173.324 110.689 172.432 108.699C171.54 106.71 169.196 105.829 167.215 106.72Z" fill="#9D9EB6"/>
<path d="M184.876 86.711C183.103 87.5089 182.315 89.5917 183.103 91.3637C183.901 93.1356 185.986 93.9231 187.759 93.1356C189.533 92.3377 190.321 90.2549 189.533 88.483C188.734 86.711 186.65 85.9235 184.876 86.711Z" fill="#9D9EB6"/>
<path d="M206.893 67.0331C205.327 67.7377 204.632 69.5719 205.338 71.1262C206.043 72.6909 207.878 73.3851 209.434 72.6805C211 71.9759 211.695 70.1418 210.989 68.5874C210.295 67.0228 208.459 66.3285 206.893 67.0331Z" fill="#9D9EB6"/>
<path d="M232.871 48.1325C231.523 48.7335 230.922 50.3189 231.523 51.666C232.125 53.0131 233.711 53.6141 235.06 53.0131C236.408 52.4017 237.009 50.8267 236.408 49.4796C235.806 48.1325 234.22 47.5315 232.871 48.1325Z" fill="#9D9EB6"/>
<path d="M262.386 30.5064C261.245 31.0141 260.747 32.3509 261.255 33.4907C261.764 34.6305 263.101 35.1279 264.242 34.6202C265.383 34.1124 265.881 32.7757 265.373 31.6359C264.864 30.5064 263.527 29.9986 262.386 30.5064Z" fill="#9D9EB6"/>
<path d="M297.47 15.5433C297.055 14.6211 295.966 14.2066 295.043 14.6211C294.12 15.0356 293.705 16.1236 294.12 17.0458C294.535 17.9681 295.624 18.3825 296.547 17.9681C297.47 17.5536 297.884 16.4655 297.47 15.5433Z" fill="#9D9EB6"/>
<path d="M138.955 206.405C136.725 208.57 136.674 212.135 138.841 214.363C141.008 216.591 144.576 216.643 146.806 214.477C149.035 212.311 149.087 208.747 146.92 206.519C144.752 204.291 141.185 204.239 138.955 206.405Z" fill="#9D9EB6"/>
<path d="M136.943 199.68C139.007 197.669 139.048 194.374 137.047 192.312C135.035 190.25 131.737 190.209 129.673 192.208C127.61 194.219 127.568 197.514 129.57 199.576C131.582 201.648 134.88 201.69 136.943 199.68Z" fill="#9D9EB6"/>
<path d="M132.152 181.349C134.05 179.504 134.091 176.479 132.245 174.582C130.4 172.686 127.371 172.645 125.473 174.489C123.576 176.334 123.534 179.359 125.38 181.256C127.226 183.152 130.265 183.193 132.152 181.349Z" fill="#9D9EB6"/>
<path d="M126.147 153.796C124.416 155.474 124.384 158.241 126.065 159.972C127.745 161.702 130.513 161.733 132.245 160.055C133.977 158.376 134.008 155.609 132.328 153.879C130.648 152.159 127.879 152.117 126.147 153.796Z" fill="#9D9EB6"/>
<path d="M131.468 130.74C129.902 132.263 129.87 134.75 131.395 136.315C132.919 137.879 135.408 137.91 136.974 136.387C138.54 134.864 138.571 132.377 137.047 130.812C135.533 129.258 133.033 129.227 131.468 130.74Z" fill="#9D9EB6"/>
<path d="M141.216 105.912C139.827 107.269 139.795 109.497 141.144 110.886C142.502 112.274 144.732 112.306 146.121 110.958C147.511 109.601 147.542 107.373 146.194 105.985C144.846 104.586 142.616 104.555 141.216 105.912Z" fill="#9D9EB6"/>
<path d="M155.175 79.8822C153.951 81.0739 153.92 83.0323 155.113 84.2654C156.305 85.4882 158.265 85.5193 159.499 84.3276C160.723 83.1359 160.754 81.1775 159.562 79.9444C158.369 78.7216 156.399 78.6906 155.175 79.8822Z" fill="#9D9EB6"/>
<path d="M173.116 53.2512C172.058 54.2771 172.037 55.9765 173.064 57.0334C174.091 58.0904 175.792 58.1111 176.849 57.0852C177.907 56.0594 177.938 54.36 176.901 53.303C175.875 52.2461 174.174 52.2254 173.116 53.2512Z" fill="#9D9EB6"/>
<path d="M194.821 26.5997C193.929 27.4702 193.909 28.8898 194.78 29.7913C195.651 30.6825 197.072 30.7032 197.974 29.8328C198.866 28.9623 198.886 27.5427 198.015 26.6412C197.144 25.75 195.713 25.7397 194.821 26.5997Z" fill="#9D9EB6"/>
<path d="M222.667 0.55951C221.961 -0.165844 220.8 -0.186569 220.074 0.528424C219.348 1.23305 219.327 2.39362 220.043 3.11898C220.748 3.84433 221.909 3.86505 222.635 3.15006C223.351 2.43507 223.372 1.28486 222.667 0.55951Z" fill="#9D9EB6"/>
<path d="M139.038 234.082C137.68 236.88 138.862 240.248 141.662 241.605C144.462 242.963 147.833 241.781 149.191 238.984C150.55 236.186 149.368 232.818 146.568 231.461C143.767 230.103 140.397 231.284 139.038 234.082Z" fill="#9D9EB6"/>
<path d="M134.849 228.445C136.104 225.855 135.015 222.746 132.422 221.492C129.83 220.238 126.719 221.326 125.464 223.917C124.209 226.507 125.298 229.616 127.89 230.87C130.483 232.124 133.594 231.036 134.849 228.445Z" fill="#9D9EB6"/>
<path d="M124.074 212.85C125.225 210.467 124.229 207.607 121.844 206.457C119.459 205.306 116.597 206.301 115.445 208.684C114.294 211.068 115.29 213.928 117.675 215.078C120.06 216.228 122.923 215.233 124.074 212.85Z" fill="#9D9EB6"/>
<path d="M108.995 189.017C107.947 191.183 108.86 193.794 111.028 194.841C113.195 195.887 115.808 194.975 116.856 192.81C117.903 190.644 116.991 188.033 114.823 186.986C112.666 185.939 110.053 186.851 108.995 189.017Z" fill="#9D9EB6"/>
<path d="M106.112 165.536C105.168 167.495 105.988 169.857 107.948 170.8C109.908 171.743 112.272 170.924 113.216 168.966C114.16 167.008 113.34 164.645 111.38 163.702C109.42 162.759 107.056 163.578 106.112 165.536Z" fill="#9D9EB6"/>
<path d="M106.765 138.864C105.915 140.615 106.651 142.719 108.404 143.568C110.156 144.418 112.262 143.682 113.112 141.931C113.962 140.18 113.226 138.076 111.474 137.227C109.721 136.387 107.616 137.123 106.765 138.864Z" fill="#9D9EB6"/>
<path d="M110.976 109.643C110.229 111.187 110.872 113.031 112.417 113.777C113.962 114.523 115.808 113.881 116.555 112.337C117.302 110.793 116.659 108.948 115.113 108.202C113.568 107.456 111.722 108.099 110.976 109.643Z" fill="#9D9EB6"/>
<path d="M118.712 78.4834C118.069 79.8097 118.629 81.4159 119.957 82.0583C121.284 82.7008 122.891 82.1412 123.534 80.8149C124.177 79.4885 123.617 77.8824 122.29 77.2399C120.962 76.5974 119.365 77.157 118.712 78.4834Z" fill="#9D9EB6"/>
<path d="M129.995 46.0288C129.456 47.1479 129.923 48.495 131.043 49.0338C132.163 49.5727 133.511 49.1064 134.05 47.9873C134.589 46.8681 134.123 45.5211 133.003 44.9822C131.883 44.433 130.534 44.8993 129.995 46.0288Z" fill="#9D9EB6"/>
<path d="M147.242 12.0305C146.329 11.5953 145.23 11.9684 144.794 12.8802C144.359 13.7921 144.732 14.8905 145.645 15.3257C146.557 15.7609 147.657 15.3879 148.092 14.476C148.528 13.5641 148.154 12.4761 147.242 12.0305Z" fill="#9D9EB6"/>
<path d="M148.6 260.05C148.289 263.148 150.539 265.904 153.64 266.215C156.741 266.526 159.499 264.278 159.811 261.179C160.122 258.081 157.871 255.325 154.771 255.014C151.67 254.703 148.911 256.962 148.6 260.05Z" fill="#9D9EB6"/>
<path d="M142.72 256.195C143.01 253.335 140.926 250.776 138.063 250.485C135.201 250.195 132.64 252.278 132.349 255.138C132.059 257.998 134.143 260.558 137.006 260.848C139.878 261.138 142.429 259.055 142.72 256.195Z" fill="#9D9EB6"/>
<path d="M127.268 245.221C127.537 242.589 125.619 240.248 122.985 239.978C120.351 239.709 118.007 241.626 117.737 244.258C117.468 246.89 119.386 249.232 122.02 249.501C124.644 249.76 126.998 247.843 127.268 245.221Z" fill="#9D9EB6"/>
<path d="M104.94 227.968C104.701 230.362 106.444 232.507 108.85 232.756C111.245 232.994 113.392 231.253 113.63 228.849C113.879 226.455 112.127 224.31 109.731 224.062C107.325 223.823 105.178 225.575 104.94 227.968Z" fill="#9D9EB6"/>
<path d="M94.1856 206.892C93.9679 209.057 95.5442 210.995 97.7116 211.213C99.8791 211.43 101.818 209.855 102.036 207.69C102.254 205.524 100.678 203.586 98.5102 203.368C96.3427 203.151 94.4034 204.726 94.1856 206.892Z" fill="#9D9EB6"/>
<path d="M85.6819 181.608C85.4849 183.546 86.8953 185.266 88.8346 185.463C90.7739 185.659 92.4954 184.25 92.6924 182.312C92.8895 180.375 91.4791 178.655 89.5398 178.458C87.6005 178.271 85.879 179.68 85.6819 181.608Z" fill="#9D9EB6"/>
<path d="M79.6255 152.708C79.4492 154.407 80.6937 155.93 82.3945 156.106C84.0952 156.283 85.6197 155.039 85.796 153.34C85.9723 151.64 84.7278 150.117 83.0271 149.941C81.3159 149.765 79.8018 151.008 79.6255 152.708Z" fill="#9D9EB6"/>
<path d="M76.2339 120.792C76.0887 122.264 77.1569 123.58 78.6295 123.725C80.1021 123.87 81.4192 122.802 81.5644 121.331C81.7096 119.86 80.6414 118.544 79.1688 118.398C77.6962 118.243 76.3895 119.321 76.2339 120.792Z" fill="#9D9EB6"/>
<path d="M75.7156 86.4311C75.5911 87.6745 76.4934 88.7729 77.7275 88.8973C78.9719 89.0216 80.0712 88.1201 80.1957 86.887C80.3201 85.6435 79.4179 84.5451 78.1838 84.4208C76.9497 84.2861 75.84 85.1876 75.7156 86.4311Z" fill="#9D9EB6"/>
<path d="M80.2892 48.5986C79.2833 48.495 78.381 49.2307 78.2773 50.2358C78.1736 51.241 78.9099 52.1425 79.9159 52.2461C80.9218 52.3497 81.8241 51.614 81.9278 50.6089C82.0315 49.5934 81.2952 48.6919 80.2892 48.5986Z" fill="#9D9EB6"/>
<path d="M166.458 281.189C167.225 284.204 170.285 286.028 173.302 285.261C176.32 284.494 178.145 281.437 177.378 278.422C176.611 275.407 173.551 273.583 170.533 274.35C167.526 275.116 165.701 278.173 166.458 281.189Z" fill="#9D9EB6"/>
<path d="M159.624 279.572C158.919 276.785 156.088 275.096 153.288 275.8C150.498 276.505 148.807 279.344 149.513 282.132C150.218 284.919 153.059 286.608 155.849 285.903C158.639 285.189 160.329 282.36 159.624 279.572Z" fill="#9D9EB6"/>
<path d="M141.34 274.546C140.687 271.987 138.084 270.433 135.523 271.085C132.961 271.738 131.405 274.339 132.059 276.899C132.712 279.458 135.315 281.012 137.877 280.36C140.438 279.707 141.983 277.106 141.34 274.546Z" fill="#9D9EB6"/>
<path d="M114.46 265.967C115.051 268.298 117.426 269.718 119.77 269.127C122.103 268.536 123.524 266.163 122.933 263.822C122.341 261.48 119.967 260.07 117.623 260.661C115.279 261.252 113.869 263.635 114.46 265.967Z" fill="#9D9EB6"/>
<path d="M97.1412 249.833C97.6804 251.946 99.8168 253.221 101.932 252.682C104.048 252.143 105.324 250.009 104.784 247.895C104.245 245.781 102.098 244.506 99.9931 245.045C97.8775 245.584 96.6019 247.729 97.1412 249.833Z" fill="#9D9EB6"/>
<path d="M80.4859 228.984C80.963 230.87 82.8815 232.01 84.769 231.533C86.6564 231.056 87.7972 229.139 87.3201 227.253C86.8431 225.368 84.9245 224.228 83.0371 224.704C81.1496 225.181 80.0089 227.098 80.4859 228.984Z" fill="#9D9EB6"/>
<path d="M64.9095 203.897C65.3347 205.555 67.0147 206.56 68.674 206.135C70.3333 205.71 71.3392 204.032 70.914 202.374C70.4888 200.716 68.8088 199.711 67.1495 200.135C65.4902 200.55 64.4843 202.239 64.9095 203.897Z" fill="#9D9EB6"/>
<path d="M50.7952 175.059C51.1582 176.489 52.6101 177.359 54.0516 176.997C55.4827 176.634 56.3539 175.183 55.9909 173.743C55.6279 172.313 54.176 171.443 52.7345 171.805C51.3034 172.168 50.4323 173.619 50.7952 175.059Z" fill="#9D9EB6"/>
<path d="M38.5474 142.947C38.8481 144.149 40.0822 144.884 41.2852 144.573C42.4882 144.273 43.2245 143.04 42.9134 141.838C42.6127 140.636 41.3786 139.9 40.1756 140.211C38.9726 140.511 38.2467 141.745 38.5474 142.947Z" fill="#9D9EB6"/>
<path d="M29.8984 105.829C28.9132 106.078 28.3221 107.072 28.571 108.057C28.8199 109.041 29.8155 109.632 30.8007 109.383C31.7859 109.135 32.377 108.14 32.1281 107.155C31.8792 106.171 30.8733 105.58 29.8984 105.829Z" fill="#9D9EB6"/>
<path d="M190.487 294.95C192.239 297.519 195.744 298.193 198.316 296.442C200.888 294.691 201.562 291.188 199.81 288.618C198.057 286.049 194.552 285.375 191.98 287.126C189.408 288.877 188.734 292.38 190.487 294.95Z" fill="#9D9EB6"/>
<path d="M183.507 295.768C181.889 293.385 178.643 292.774 176.269 294.39C173.883 296.007 173.272 299.25 174.889 301.623C176.507 304.006 179.753 304.618 182.128 303.001C184.513 301.385 185.125 298.141 183.507 295.768Z" fill="#9D9EB6"/>
<path d="M164.602 297.292C163.119 295.105 160.132 294.535 157.944 296.027C155.756 297.509 155.185 300.493 156.679 302.68C158.162 304.866 161.148 305.436 163.337 303.944C165.525 302.452 166.095 299.478 164.602 297.292Z" fill="#9D9EB6"/>
<path d="M136.414 298.421C137.773 300.411 140.49 300.929 142.481 299.582C144.472 298.224 144.991 295.509 143.643 293.52C142.284 291.53 139.567 291.012 137.576 292.359C135.574 293.706 135.056 296.421 136.414 298.421Z" fill="#9D9EB6"/>
<path d="M114.615 289.178C115.839 290.981 118.297 291.447 120.101 290.225C121.906 289.002 122.372 286.546 121.149 284.743C119.925 282.94 117.467 282.474 115.663 283.696C113.858 284.929 113.392 287.375 114.615 289.178Z" fill="#9D9EB6"/>
<path d="M91.8313 275.272C92.9202 276.878 95.1188 277.292 96.7262 276.204C98.3337 275.116 98.7485 272.92 97.6596 271.313C96.5603 269.707 94.3721 269.293 92.7647 270.381C91.1572 271.479 90.7321 273.666 91.8313 275.272Z" fill="#9D9EB6"/>
<path d="M68.6014 257.024C69.5659 258.444 71.4948 258.806 72.9052 257.843C74.326 256.879 74.689 254.952 73.7245 253.542C72.76 252.123 70.8311 251.76 69.4207 252.724C68.0103 253.677 67.637 255.604 68.6014 257.024Z" fill="#9D9EB6"/>
<path d="M45.4648 234.745C46.2945 235.968 47.9641 236.289 49.1878 235.45C50.4116 234.621 50.7331 232.953 49.893 231.73C49.0634 230.507 47.3937 230.186 46.17 231.025C44.9567 231.854 44.6352 233.522 45.4648 234.745Z" fill="#9D9EB6"/>
<path d="M22.9707 208.757C23.6759 209.783 25.0759 210.052 26.1026 209.358C27.1293 208.653 27.3989 207.254 26.7041 206.228C25.9989 205.203 24.5989 204.933 23.5722 205.627C22.5351 206.322 22.2655 207.731 22.9707 208.757Z" fill="#9D9EB6"/>
<path d="M2.1364 176.831C1.29639 177.401 1.0786 178.541 1.64898 179.38C2.21936 180.219 3.36013 180.437 4.20014 179.867C5.04016 179.297 5.25794 178.157 4.68756 177.318C4.10681 176.489 2.96605 176.271 2.1364 176.831Z" fill="#9D9EB6"/>
<path d="M217.772 299.675C220.292 301.499 223.818 300.918 225.643 298.4C227.458 295.882 226.887 292.359 224.367 290.546C221.847 288.732 218.321 289.302 216.496 291.82C214.681 294.328 215.252 297.851 217.772 299.675Z" fill="#9D9EB6"/>
<path d="M211.497 302.825C209.164 301.146 205.908 301.675 204.217 304.006C202.537 306.338 203.066 309.592 205.399 311.281C207.733 312.959 210.989 312.431 212.68 310.099C214.36 307.757 213.831 304.504 211.497 302.825Z" fill="#9D9EB6"/>
<path d="M194.251 310.711C192.105 309.167 189.108 309.654 187.562 311.799C186.017 313.944 186.505 316.938 188.651 318.482C190.798 320.026 193.795 319.539 195.34 317.394C196.885 315.249 196.398 312.255 194.251 310.711Z" fill="#9D9EB6"/>
<path d="M168.148 321.404C170.108 322.814 172.836 322.368 174.246 320.42C175.657 318.462 175.211 315.736 173.261 314.327C171.301 312.918 168.574 313.363 167.163 315.311C165.742 317.27 166.188 319.995 168.148 321.404Z" fill="#9D9EB6"/>
<path d="M144.493 320.171C146.256 321.446 148.725 321.042 150 319.28C151.276 317.519 150.871 315.052 149.108 313.778C147.345 312.503 144.877 312.907 143.601 314.669C142.326 316.441 142.73 318.897 144.493 320.171Z" fill="#9D9EB6"/>
<path d="M118.329 314.897C119.905 316.037 122.103 315.674 123.244 314.099C124.385 312.524 124.022 310.317 122.446 309.187C120.869 308.048 118.66 308.41 117.53 309.985C116.4 311.56 116.752 313.757 118.329 314.897Z" fill="#9D9EB6"/>
<path d="M90.2552 305.685C91.6448 306.69 93.5841 306.369 94.5797 304.98C95.5856 303.592 95.2641 301.654 93.8745 300.659C92.4848 299.654 90.5455 299.975 89.55 301.364C88.5544 302.742 88.8655 304.68 90.2552 305.685Z" fill="#9D9EB6"/>
<path d="M60.8963 292.649C62.0993 293.509 63.7689 293.24 64.6401 292.048C65.5008 290.846 65.2312 289.178 64.0386 288.318C62.8356 287.458 61.1659 287.727 60.2948 288.919C59.4237 290.121 59.6933 291.789 60.8963 292.649Z" fill="#9D9EB6"/>
<path d="M30.8526 275.925C31.8585 276.65 33.2689 276.422 34.0052 275.417C34.7312 274.412 34.503 273.003 33.4971 272.267C32.4911 271.542 31.0807 271.77 30.3444 272.775C29.6185 273.79 29.8467 275.189 30.8526 275.925Z" fill="#9D9EB6"/>
<path d="M0.342433 253.045C-0.248689 253.864 -0.0620187 255.014 0.757256 255.604C1.57653 256.195 2.72766 256.009 3.31878 255.19C3.90991 254.371 3.72324 253.221 2.90396 252.63C2.08469 252.04 0.943926 252.226 0.342433 253.045Z" fill="#9D9EB6"/>
<path d="M245.026 294.784C248.023 295.634 251.134 293.893 251.984 290.898C252.835 287.903 251.093 284.795 248.096 283.945C245.098 283.095 241.987 284.836 241.137 287.831C240.297 290.826 242.039 293.934 245.026 294.784Z" fill="#9D9EB6"/>
<path d="M240.204 299.882C237.435 299.095 234.552 300.711 233.774 303.478C232.986 306.245 234.603 309.125 237.372 309.902C240.141 310.69 243.024 309.073 243.802 306.307C244.59 303.55 242.983 300.67 240.204 299.882Z" fill="#9D9EB6"/>
<path d="M226.711 313.198C224.17 312.483 221.515 313.954 220.8 316.503C220.084 319.042 221.557 321.695 224.108 322.409C226.649 323.124 229.304 321.653 230.019 319.104C230.735 316.565 229.252 313.912 226.711 313.198Z" fill="#9D9EB6"/>
<path d="M205.835 332.171C208.158 332.824 210.575 331.476 211.228 329.155C211.881 326.834 210.533 324.42 208.21 323.767C205.887 323.114 203.471 324.461 202.818 326.782C202.164 329.104 203.512 331.508 205.835 332.171Z" fill="#9D9EB6"/>
<path d="M183.196 339.093C185.291 339.683 187.469 338.471 188.07 336.367C188.662 334.274 187.448 332.098 185.343 331.497C183.248 330.907 181.07 332.119 180.469 334.222C179.878 336.316 181.091 338.502 183.196 339.093Z" fill="#9D9EB6"/>
<path d="M156.793 343.072C158.67 343.6 160.609 342.512 161.138 340.647C161.667 338.771 160.578 336.834 158.711 336.305C156.834 335.777 154.895 336.865 154.366 338.73C153.837 340.595 154.926 342.543 156.793 343.072Z" fill="#9D9EB6"/>
<path d="M127.258 344.004C128.907 344.471 130.618 343.517 131.084 341.87C131.551 340.222 130.597 338.512 128.948 338.046C127.299 337.58 125.588 338.533 125.121 340.181C124.655 341.828 125.609 343.538 127.258 344.004Z" fill="#9D9EB6"/>
<path d="M95.2023 341.797C96.6231 342.201 98.1061 341.372 98.5105 339.953C98.915 338.533 98.0853 337.051 96.6646 336.647C95.2438 336.243 93.7608 337.072 93.3563 338.492C92.9519 339.922 93.7815 341.393 95.2023 341.797Z" fill="#9D9EB6"/>
<path d="M61.259 336.347C62.462 336.689 63.7065 335.994 64.0487 334.792C64.3909 333.59 63.6857 332.347 62.4931 332.015C61.2901 331.673 60.0457 332.368 59.7035 333.57C59.3612 334.761 60.0561 336.005 61.259 336.347Z" fill="#9D9EB6"/>
<path d="M24.7549 325.269C24.4749 326.244 25.0452 327.259 26.0201 327.528C26.9949 327.808 28.0112 327.238 28.2809 326.264C28.5609 325.29 27.9905 324.275 27.0157 324.005C26.0408 323.736 25.0349 324.295 24.7549 325.269Z" fill="#9D9EB6"/>
<path d="M268.971 280.868C272.072 280.64 274.405 277.935 274.177 274.837C273.949 271.738 271.253 269.407 268.141 269.635C265.03 269.863 262.707 272.557 262.935 275.666C263.164 278.774 265.86 281.095 268.971 280.868Z" fill="#9D9EB6"/>
<path d="M266.182 287.313C263.309 287.52 261.152 290.017 261.37 292.888C261.577 295.758 264.076 297.913 266.949 297.696C269.822 297.488 271.979 294.991 271.761 292.121C271.554 289.261 269.054 287.105 266.182 287.313Z" fill="#9D9EB6"/>
<path d="M258.051 304.441C255.417 304.638 253.436 306.928 253.623 309.571C253.82 312.203 256.111 314.182 258.756 313.995C261.39 313.799 263.371 311.509 263.184 308.866C262.987 306.224 260.695 304.245 258.051 304.441Z" fill="#9D9EB6"/>
<path d="M244.932 329.394C247.338 329.218 249.143 327.124 248.966 324.72C248.79 322.316 246.695 320.513 244.289 320.689C241.883 320.866 240.079 322.959 240.255 325.363C240.431 327.767 242.526 329.58 244.932 329.394Z" fill="#9D9EB6"/>
<path d="M226.026 343.642C228.204 343.486 229.832 341.59 229.666 339.424C229.511 337.248 227.613 335.621 225.446 335.777C223.268 335.932 221.64 337.829 221.806 339.994C221.961 342.17 223.849 343.797 226.026 343.642Z" fill="#9D9EB6"/>
<path d="M202.579 356.408C204.518 356.263 205.98 354.574 205.835 352.636C205.69 350.698 204 349.237 202.06 349.382C200.121 349.527 198.659 351.216 198.804 353.154C198.959 355.092 200.639 356.543 202.579 356.408Z" fill="#9D9EB6"/>
<path d="M175.149 367.382C176.86 367.257 178.135 365.775 178.011 364.066C177.887 362.356 176.404 361.081 174.692 361.206C172.981 361.33 171.706 362.812 171.83 364.522C171.955 366.221 173.448 367.506 175.149 367.382Z" fill="#9D9EB6"/>
<path d="M144.276 376.252C145.748 376.148 146.858 374.863 146.754 373.381C146.651 371.91 145.365 370.801 143.892 370.905C142.419 371.008 141.31 372.293 141.413 373.775C141.517 375.257 142.803 376.366 144.276 376.252Z" fill="#9D9EB6"/>
<path d="M110.498 382.728C111.743 382.635 112.676 381.557 112.583 380.314C112.49 379.07 111.411 378.138 110.167 378.231C108.922 378.324 107.989 379.402 108.082 380.645C108.175 381.889 109.264 382.821 110.498 382.728Z" fill="#9D9EB6"/>
<path d="M72.4179 384.8C72.4905 385.806 73.372 386.572 74.3779 386.489C75.3839 386.417 76.1513 385.536 76.0683 384.531C75.9957 383.526 75.1142 382.769 74.1083 382.842C73.1024 382.915 72.3453 383.795 72.4179 384.8Z" fill="#9D9EB6"/>
<path d="M286.705 259.615C289.546 258.34 290.811 255.003 289.536 252.175C288.26 249.335 284.921 248.071 282.09 249.346C279.248 250.62 277.983 253.957 279.258 256.786C280.524 259.625 283.863 260.889 286.705 259.615Z" fill="#9D9EB6"/>
<path d="M286.29 266.63C283.666 267.811 282.494 270.889 283.677 273.521C284.859 276.142 287.939 277.313 290.573 276.132C293.197 274.951 294.369 271.873 293.186 269.241C292.004 266.62 288.924 265.449 286.29 266.63Z" fill="#9D9EB6"/>
<path d="M284.516 285.499C282.1 286.588 281.032 289.416 282.11 291.831C283.199 294.245 286.031 295.312 288.447 294.235C290.863 293.147 291.931 290.318 290.853 287.903C289.764 285.489 286.922 284.411 284.516 285.499Z" fill="#9D9EB6"/>
<path d="M280.731 313.436C282.93 312.452 283.915 309.861 282.919 307.664C281.934 305.467 279.342 304.483 277.143 305.478C274.944 306.462 273.959 309.053 274.955 311.249C275.94 313.446 278.522 314.42 280.731 313.436Z" fill="#9D9EB6"/>
<path d="M267.841 333.28C269.832 332.388 270.713 330.057 269.821 328.067C268.929 326.078 266.596 325.197 264.605 326.088C262.614 326.979 261.732 329.311 262.624 331.3C263.516 333.29 265.849 334.171 267.841 333.28Z" fill="#9D9EB6"/>
<path d="M250.18 353.279C251.953 352.481 252.741 350.398 251.953 348.626C251.155 346.854 249.07 346.056 247.297 346.854C245.523 347.652 244.735 349.735 245.523 351.507C246.311 353.289 248.396 354.076 250.18 353.279Z" fill="#9D9EB6"/>
<path d="M228.153 372.967C229.719 372.262 230.413 370.428 229.708 368.874C229.003 367.309 227.167 366.615 225.612 367.319C224.046 368.024 223.351 369.858 224.056 371.412C224.751 372.977 226.587 373.671 228.153 372.967Z" fill="#9D9EB6"/>
<path d="M202.174 391.867C203.523 391.266 204.124 389.681 203.523 388.334C202.921 386.987 201.334 386.386 199.986 386.987C198.638 387.598 198.037 389.173 198.638 390.52C199.24 391.867 200.826 392.468 202.174 391.867Z" fill="#9D9EB6"/>
<path d="M172.66 409.494C173.8 408.986 174.298 407.649 173.79 406.509C173.282 405.369 171.944 404.872 170.803 405.38C169.663 405.888 169.165 407.224 169.673 408.364C170.191 409.494 171.519 410.001 172.66 409.494Z" fill="#9D9EB6"/>
<path d="M137.576 424.457C137.991 425.379 139.08 425.793 140.003 425.379C140.926 424.964 141.341 423.876 140.926 422.954C140.511 422.032 139.422 421.617 138.499 422.032C137.576 422.446 137.161 423.534 137.576 424.457Z" fill="#9D9EB6"/>
<path d="M296.09 233.585C298.32 231.419 298.372 227.854 296.204 225.627C294.037 223.399 290.469 223.347 288.24 225.513C286.01 227.678 285.958 231.243 288.126 233.471C290.293 235.709 293.861 235.761 296.09 233.585Z" fill="#9D9EB6"/>
<path d="M298.102 240.31C296.038 242.32 295.997 245.615 297.998 247.677C300.01 249.739 303.308 249.781 305.372 247.781C307.436 245.771 307.477 242.476 305.476 240.413C303.474 238.351 300.166 238.31 298.102 240.31Z" fill="#9D9EB6"/>
<path d="M302.893 258.651C300.996 260.495 300.954 263.521 302.8 265.417C304.646 267.314 307.674 267.355 309.572 265.511C311.47 263.666 311.511 260.64 309.665 258.744C307.819 256.848 304.791 256.806 302.893 258.651Z" fill="#9D9EB6"/>
<path d="M308.898 286.204C310.63 284.525 310.661 281.759 308.981 280.028C307.301 278.298 304.532 278.267 302.8 279.945C301.068 281.624 301.037 284.391 302.717 286.121C304.407 287.841 307.166 287.883 308.898 286.204Z" fill="#9D9EB6"/>
<path d="M303.578 309.25C305.144 307.737 305.175 305.239 303.65 303.675C302.126 302.11 299.637 302.079 298.071 303.602C296.505 305.125 296.474 307.612 297.998 309.177C299.513 310.731 302.012 310.773 303.578 309.25Z" fill="#9D9EB6"/>
<path d="M293.829 334.088C295.219 332.73 295.25 330.502 293.902 329.114C292.544 327.725 290.314 327.694 288.924 329.041C287.535 330.388 287.503 332.627 288.852 334.015C290.2 335.414 292.429 335.445 293.829 334.088Z" fill="#9D9EB6"/>
<path d="M279.871 360.107C281.094 358.916 281.125 356.957 279.933 355.724C278.74 354.501 276.78 354.47 275.546 355.662C274.322 356.854 274.291 358.812 275.484 360.045C276.687 361.278 278.647 361.309 279.871 360.107Z" fill="#9D9EB6"/>
<path d="M261.929 386.749C262.987 385.723 263.008 384.023 261.981 382.966C260.955 381.909 259.254 381.878 258.196 382.914C257.138 383.94 257.107 385.64 258.144 386.697C259.181 387.754 260.872 387.774 261.929 386.749Z" fill="#9D9EB6"/>
<path d="M240.224 413.4C241.116 412.53 241.136 411.11 240.265 410.208C239.394 409.317 237.973 409.297 237.071 410.167C236.179 411.037 236.159 412.467 237.03 413.359C237.911 414.239 239.332 414.26 240.224 413.4Z" fill="#9D9EB6"/>
<path d="M212.389 439.44C213.095 440.166 214.256 440.186 214.982 439.471C215.708 438.767 215.729 437.606 215.013 436.881C214.308 436.155 213.146 436.135 212.421 436.85C211.695 437.554 211.674 438.715 212.389 439.44Z" fill="#9D9EB6"/>
<path d="M296.007 205.918C297.366 203.12 296.183 199.752 293.383 198.395C290.583 197.037 287.213 198.219 285.854 201.016C284.496 203.814 285.678 207.182 288.478 208.539C291.278 209.886 294.649 208.715 296.007 205.918Z" fill="#9D9EB6"/>
<path d="M300.197 211.555C298.942 214.145 300.031 217.254 302.623 218.508C305.216 219.762 308.327 218.674 309.582 216.083C310.837 213.492 309.748 210.384 307.155 209.13C304.573 207.876 301.451 208.964 300.197 211.555Z" fill="#9D9EB6"/>
<path d="M310.972 227.15C309.821 229.533 310.816 232.393 313.202 233.543C315.587 234.693 318.449 233.699 319.6 231.315C320.751 228.932 319.756 226.072 317.37 224.922C314.985 223.772 312.123 224.766 310.972 227.15Z" fill="#9D9EB6"/>
<path d="M326.051 250.983C327.098 248.817 326.196 246.206 324.018 245.159C321.851 244.113 319.237 245.025 318.19 247.19C317.142 249.356 318.055 251.967 320.222 253.014C322.39 254.06 324.993 253.149 326.051 250.983Z" fill="#9D9EB6"/>
<path d="M328.934 274.464C329.877 272.505 329.058 270.143 327.098 269.2C325.138 268.257 322.773 269.075 321.83 271.034C320.886 272.992 321.705 275.355 323.665 276.298C325.636 277.241 327.99 276.422 328.934 274.464Z" fill="#9D9EB6"/>
<path d="M328.281 301.126C329.131 299.374 328.395 297.271 326.642 296.421C324.889 295.571 322.784 296.307 321.934 298.058C321.083 299.81 321.82 301.913 323.572 302.763C325.325 303.613 327.43 302.877 328.281 301.126Z" fill="#9D9EB6"/>
<path d="M324.07 330.357C324.816 328.813 324.173 326.969 322.628 326.223C321.083 325.477 319.237 326.119 318.49 327.663C317.744 329.207 318.387 331.052 319.932 331.798C321.477 332.544 323.323 331.891 324.07 330.357Z" fill="#9D9EB6"/>
<path d="M316.334 361.517C316.977 360.19 316.417 358.584 315.089 357.942C313.762 357.299 312.154 357.859 311.511 359.185C310.868 360.511 311.428 362.118 312.756 362.76C314.083 363.402 315.691 362.843 316.334 361.517Z" fill="#9D9EB6"/>
<path d="M305.061 393.971C305.6 392.852 305.133 391.505 304.013 390.966C302.893 390.427 301.545 390.893 301.006 392.012C300.467 393.132 300.933 394.479 302.053 395.028C303.163 395.567 304.511 395.09 305.061 393.971Z" fill="#9D9EB6"/>
<path d="M287.804 427.969C288.717 428.405 289.816 428.032 290.252 427.12C290.687 426.208 290.314 425.109 289.401 424.674C288.489 424.239 287.389 424.612 286.954 425.524C286.518 426.425 286.902 427.524 287.804 427.969Z" fill="#9D9EB6"/>
<path d="M286.456 179.95C286.767 176.852 284.517 174.095 281.416 173.785C278.315 173.474 275.557 175.722 275.246 178.821C274.934 181.919 277.185 184.675 280.286 184.986C283.376 185.297 286.135 183.038 286.456 179.95Z" fill="#9D9EB6"/>
<path d="M292.326 183.805C292.035 186.665 294.12 189.224 296.982 189.514C299.844 189.805 302.406 187.722 302.696 184.862C302.987 182.002 300.902 179.442 298.04 179.152C295.167 178.862 292.616 180.945 292.326 183.805Z" fill="#9D9EB6"/>
<path d="M307.788 194.778C307.519 197.41 309.437 199.752 312.072 200.022C314.706 200.291 317.049 198.374 317.319 195.742C317.589 193.11 315.67 190.768 313.036 190.499C310.402 190.229 308.048 192.146 307.788 194.778Z" fill="#9D9EB6"/>
<path d="M330.106 212.021C330.344 209.628 328.602 207.483 326.207 207.244C323.811 207.006 321.664 208.747 321.415 211.151C321.177 213.544 322.919 215.689 325.325 215.938C327.721 216.166 329.867 214.425 330.106 212.021Z" fill="#9D9EB6"/>
<path d="M340.86 233.098C341.078 230.932 339.501 228.994 337.334 228.777C335.166 228.559 333.227 230.134 333.009 232.3C332.792 234.466 334.368 236.403 336.535 236.621C338.703 236.849 340.642 235.264 340.86 233.098Z" fill="#9D9EB6"/>
<path d="M349.374 258.382C349.571 256.444 348.161 254.724 346.221 254.527C344.282 254.33 342.561 255.739 342.364 257.677C342.167 259.615 343.577 261.335 345.516 261.532C347.445 261.729 349.177 260.319 349.374 258.382Z" fill="#9D9EB6"/>
<path d="M355.421 287.282C355.597 285.582 354.352 284.059 352.652 283.883C350.951 283.707 349.426 284.95 349.25 286.65C349.074 288.349 350.318 289.872 352.019 290.049C353.73 290.225 355.255 288.992 355.421 287.282Z" fill="#9D9EB6"/>
<path d="M358.811 319.208C358.957 317.736 357.888 316.42 356.416 316.275C354.943 316.13 353.626 317.198 353.481 318.669C353.336 320.14 354.404 321.456 355.877 321.601C357.349 321.757 358.666 320.679 358.811 319.208Z" fill="#9D9EB6"/>
<path d="M359.33 353.569C359.454 352.325 358.552 351.227 357.318 351.103C356.074 350.978 354.974 351.88 354.85 353.113C354.725 354.356 355.628 355.455 356.862 355.579C358.096 355.703 359.205 354.802 359.33 353.569Z" fill="#9D9EB6"/>
<path d="M354.757 391.401C355.763 391.505 356.665 390.769 356.769 389.764C356.872 388.759 356.136 387.857 355.13 387.754C354.124 387.65 353.222 388.386 353.118 389.391C353.014 390.396 353.751 391.298 354.757 391.401Z" fill="#9D9EB6"/>
<path d="M268.588 158.811C267.82 155.796 264.761 153.972 261.743 154.739C258.725 155.506 256.9 158.562 257.667 161.578C258.435 164.593 261.494 166.417 264.512 165.65C267.519 164.883 269.345 161.816 268.588 158.811Z" fill="#9D9EB6"/>
<path d="M275.422 160.428C276.127 163.215 278.958 164.904 281.758 164.199C284.548 163.495 286.238 160.656 285.533 157.868C284.828 155.081 281.986 153.392 279.197 154.096C276.407 154.801 274.717 157.64 275.422 160.428Z" fill="#9D9EB6"/>
<path d="M293.705 165.453C294.359 168.013 296.962 169.567 299.523 168.914C302.085 168.261 303.64 165.66 302.987 163.101C302.334 160.541 299.731 158.987 297.169 159.64C294.607 160.293 293.062 162.894 293.705 165.453Z" fill="#9D9EB6"/>
<path d="M320.586 174.033C319.995 171.702 317.62 170.282 315.276 170.873C312.943 171.463 311.522 173.836 312.113 176.178C312.704 178.51 315.079 179.929 317.423 179.339C319.766 178.738 321.177 176.365 320.586 174.033Z" fill="#9D9EB6"/>
<path d="M337.904 190.157C337.365 188.043 335.229 186.768 333.113 187.307C330.998 187.846 329.722 189.991 330.261 192.094C330.801 194.208 332.947 195.483 335.052 194.944C337.168 194.416 338.444 192.271 337.904 190.157Z" fill="#9D9EB6"/>
<path d="M354.559 211.016C354.082 209.13 352.164 207.99 350.276 208.467C348.389 208.943 347.248 210.86 347.725 212.746C348.202 214.632 350.121 215.772 352.008 215.295C353.896 214.808 355.036 212.902 354.559 211.016Z" fill="#9D9EB6"/>
<path d="M370.136 236.103C369.711 234.445 368.031 233.44 366.372 233.864C364.712 234.289 363.706 235.968 364.132 237.626C364.557 239.284 366.237 240.289 367.896 239.864C369.555 239.45 370.561 237.761 370.136 236.103Z" fill="#9D9EB6"/>
<path d="M384.251 264.941C383.888 263.511 382.436 262.64 380.994 263.003C379.563 263.366 378.692 264.816 379.055 266.257C379.418 267.687 380.88 268.557 382.311 268.195C383.742 267.832 384.614 266.371 384.251 264.941Z" fill="#9D9EB6"/>
<path d="M396.498 297.053C396.197 295.841 394.963 295.116 393.76 295.426C392.557 295.727 391.821 296.96 392.132 298.162C392.433 299.374 393.667 300.1 394.87 299.799C396.073 299.499 396.799 298.255 396.498 297.053Z" fill="#9D9EB6"/>
<path d="M405.147 334.171C406.133 333.922 406.724 332.927 406.475 331.943C406.226 330.958 405.23 330.368 404.245 330.617C403.26 330.865 402.669 331.86 402.918 332.844C403.177 333.818 404.173 334.419 405.147 334.171Z" fill="#9D9EB6"/>
<path d="M244.559 145.05C242.806 142.48 239.301 141.807 236.729 143.558C234.157 145.309 233.483 148.811 235.236 151.381C236.988 153.951 240.493 154.625 243.065 152.873C245.637 151.122 246.311 147.62 244.559 145.05Z" fill="#9D9EB6"/>
<path d="M251.538 144.232C253.156 146.615 256.402 147.226 258.777 145.61C261.162 143.993 261.774 140.75 260.156 138.377C258.538 135.994 255.292 135.382 252.917 136.999C250.542 138.615 249.92 141.848 251.538 144.232Z" fill="#9D9EB6"/>
<path d="M270.444 142.708C271.927 144.895 274.913 145.465 277.102 143.972C279.29 142.491 279.86 139.506 278.367 137.32C276.884 135.133 273.897 134.563 271.709 136.056C269.521 137.548 268.961 140.522 270.444 142.708Z" fill="#9D9EB6"/>
<path d="M298.641 141.579C297.283 139.589 294.566 139.071 292.574 140.418C290.583 141.765 290.065 144.49 291.423 146.48C292.782 148.469 295.499 148.988 297.49 147.641C299.481 146.293 299.989 143.579 298.641 141.579Z" fill="#9D9EB6"/>
<path d="M320.44 150.822C319.216 149.019 316.759 148.552 314.964 149.775C313.16 150.998 312.693 153.454 313.917 155.257C315.141 157.06 317.599 157.526 319.403 156.303C321.197 155.07 321.664 152.625 320.44 150.822Z" fill="#9D9EB6"/>
<path d="M343.214 164.728C342.125 163.122 339.927 162.707 338.319 163.795C336.712 164.894 336.297 167.08 337.386 168.686C338.475 170.292 340.673 170.707 342.281 169.619C343.899 168.52 344.313 166.334 343.214 164.728Z" fill="#9D9EB6"/>
<path d="M366.444 182.976C365.48 181.556 363.551 181.193 362.14 182.157C360.719 183.121 360.357 185.048 361.321 186.457C362.285 187.877 364.214 188.24 365.625 187.276C367.046 186.323 367.409 184.395 366.444 182.976Z" fill="#9D9EB6"/>
<path d="M389.581 205.254C388.751 204.032 387.081 203.711 385.857 204.55C384.634 205.379 384.312 207.047 385.152 208.27C385.982 209.493 387.652 209.814 388.875 208.975C390.089 208.146 390.41 206.477 389.581 205.254Z" fill="#9D9EB6"/>
<path d="M412.074 231.243C411.369 230.217 409.969 229.948 408.942 230.642C407.916 231.347 407.646 232.745 408.341 233.771C409.046 234.797 410.446 235.067 411.473 234.372C412.51 233.678 412.779 232.269 412.074 231.243Z" fill="#9D9EB6"/>
<path d="M432.919 263.158C433.759 262.589 433.977 261.449 433.407 260.609C432.836 259.77 431.696 259.552 430.856 260.122C430.016 260.692 429.798 261.832 430.368 262.671C430.939 263.511 432.079 263.728 432.919 263.158Z" fill="#9D9EB6"/>
<path d="M217.274 140.325C214.754 138.501 211.228 139.081 209.402 141.599C207.577 144.117 208.158 147.641 210.678 149.454C213.198 151.267 216.724 150.697 218.549 148.179C220.374 145.661 219.794 142.149 217.274 140.325Z" fill="#9D9EB6"/>
<path d="M223.548 137.175C225.881 138.853 229.138 138.325 230.828 135.993C232.508 133.662 231.979 130.408 229.646 128.719C227.312 127.04 224.056 127.569 222.366 129.9C220.686 132.242 221.214 135.496 223.548 137.175Z" fill="#9D9EB6"/>
<path d="M240.794 129.289C242.941 130.833 245.938 130.346 247.483 128.201C249.028 126.056 248.541 123.061 246.404 121.517C244.258 119.973 241.261 120.46 239.715 122.605C238.16 124.75 238.647 127.735 240.794 129.289Z" fill="#9D9EB6"/>
<path d="M266.907 118.585C264.947 117.176 262.22 117.621 260.81 119.569C259.399 121.528 259.845 124.253 261.795 125.662C263.755 127.072 266.482 126.626 267.893 124.678C269.303 122.73 268.857 120.005 266.907 118.585Z" fill="#9D9EB6"/>
<path d="M290.552 119.818C288.789 118.544 286.321 118.948 285.045 120.709C283.77 122.471 284.174 124.937 285.937 126.212C287.7 127.486 290.168 127.082 291.444 125.32C292.72 123.559 292.315 121.093 290.552 119.818Z" fill="#9D9EB6"/>
<path d="M316.717 125.103C315.141 123.963 312.942 124.326 311.802 125.901C310.661 127.476 311.024 129.683 312.6 130.812C314.176 131.952 316.385 131.59 317.516 130.014C318.657 128.439 318.294 126.243 316.717 125.103Z" fill="#9D9EB6"/>
<path d="M344.79 134.315C343.4 133.31 341.461 133.631 340.466 135.019C339.46 136.408 339.781 138.346 341.171 139.34C342.56 140.346 344.5 140.024 345.495 138.636C346.491 137.247 346.18 135.32 344.79 134.315Z" fill="#9D9EB6"/>
<path d="M374.16 147.34C372.957 146.48 371.287 146.749 370.416 147.951C369.555 149.153 369.825 150.822 371.017 151.682C372.22 152.542 373.89 152.272 374.751 151.081C375.632 149.879 375.352 148.21 374.16 147.34Z" fill="#9D9EB6"/>
<path d="M404.193 164.075C403.187 163.35 401.777 163.578 401.04 164.583C400.314 165.588 400.542 166.997 401.548 167.733C402.565 168.458 403.965 168.23 404.701 167.225C405.437 166.21 405.199 164.8 404.193 164.075Z" fill="#9D9EB6"/>
<path d="M434.703 186.955C435.294 186.136 435.108 184.986 434.288 184.395C433.469 183.805 432.318 183.991 431.727 184.81C431.136 185.628 431.322 186.779 432.142 187.369C432.961 187.96 434.112 187.773 434.703 186.955Z" fill="#9D9EB6"/>
<path d="M190.02 145.216C187.023 144.366 183.912 146.107 183.061 149.102C182.211 152.096 183.953 155.205 186.95 156.055C189.947 156.904 193.058 155.164 193.909 152.169C194.749 149.174 193.017 146.066 190.02 145.216Z" fill="#9D9EB6"/>
<path d="M194.842 140.107C197.611 140.895 200.494 139.278 201.272 136.512C202.06 133.745 200.442 130.864 197.673 130.087C194.904 129.3 192.021 130.916 191.243 133.683C190.455 136.449 192.073 139.33 194.842 140.107Z" fill="#9D9EB6"/>
<path d="M208.345 126.802C210.885 127.517 213.54 126.046 214.256 123.497C214.971 120.958 213.499 118.305 210.948 117.59C208.407 116.875 205.752 118.347 205.036 120.896C204.31 123.434 205.793 126.087 208.345 126.802Z" fill="#9D9EB6"/>
<path d="M229.21 107.829C226.887 107.176 224.471 108.523 223.818 110.844C223.164 113.165 224.512 115.58 226.835 116.233C229.158 116.885 231.575 115.538 232.228 113.217C232.881 110.896 231.533 108.482 229.21 107.829Z" fill="#9D9EB6"/>
<path d="M251.86 100.907C249.765 100.316 247.587 101.529 246.985 103.632C246.394 105.725 247.608 107.901 249.713 108.502C251.808 109.093 253.986 107.881 254.587 105.777C255.168 103.684 253.954 101.498 251.86 100.907Z" fill="#9D9EB6"/>
<path d="M278.253 96.9279C276.376 96.3995 274.436 97.4875 273.908 99.3527C273.379 101.228 274.468 103.166 276.334 103.694C278.211 104.223 280.151 103.135 280.68 101.27C281.219 99.4045 280.13 97.4564 278.253 96.9279Z" fill="#9D9EB6"/>
<path d="M307.788 95.985C306.139 95.5187 304.428 96.472 303.961 98.1196C303.494 99.7672 304.449 101.477 306.098 101.943C307.746 102.41 309.458 101.456 309.924 99.8087C310.391 98.1714 309.437 96.4513 307.788 95.985Z" fill="#9D9EB6"/>
<path d="M339.843 98.2025C338.422 97.7983 336.94 98.6273 336.535 100.047C336.131 101.467 336.96 102.948 338.381 103.352C339.802 103.757 341.285 102.928 341.689 101.508C342.094 100.078 341.264 98.5962 339.843 98.2025Z" fill="#9D9EB6"/>
<path d="M373.797 103.653C372.594 103.311 371.349 104.005 371.007 105.207C370.665 106.409 371.37 107.653 372.562 107.984C373.765 108.326 375.01 107.622 375.352 106.43C375.694 105.239 374.989 103.995 373.797 103.653Z" fill="#9D9EB6"/>
<path d="M410.291 114.72C410.571 113.746 410 112.73 409.025 112.461C408.051 112.181 407.034 112.751 406.765 113.725C406.485 114.699 407.055 115.715 408.03 115.984C409.005 116.264 410.011 115.694 410.291 114.72Z" fill="#9D9EB6"/>
<path d="M166.085 159.132C162.984 159.36 160.651 162.065 160.879 165.163C161.107 168.261 163.803 170.593 166.914 170.365C170.015 170.137 172.349 167.443 172.12 164.334C171.882 161.225 169.185 158.904 166.085 159.132Z" fill="#9D9EB6"/>
<path d="M168.864 152.677C171.737 152.469 173.894 149.972 173.676 147.102C173.469 144.231 170.969 142.076 168.097 142.294C165.224 142.501 163.067 144.998 163.285 147.869C163.492 150.739 165.991 152.894 168.864 152.677Z" fill="#9D9EB6"/>
<path d="M176.995 135.558C179.629 135.361 181.61 133.071 181.423 130.429C181.226 127.797 178.934 125.807 176.29 126.004C173.655 126.201 171.675 128.491 171.861 131.133C172.058 133.776 174.361 135.755 176.995 135.558Z" fill="#9D9EB6"/>
<path d="M190.113 110.596C187.707 110.772 185.903 112.865 186.079 115.269C186.256 117.673 188.35 119.476 190.756 119.3C193.162 119.124 194.967 117.031 194.791 114.627C194.614 112.222 192.519 110.419 190.113 110.596Z" fill="#9D9EB6"/>
<path d="M209.019 96.3579C206.841 96.5134 205.213 98.4096 205.379 100.575C205.534 102.751 207.432 104.378 209.6 104.223C211.777 104.067 213.406 102.171 213.25 100.005C213.084 97.8294 211.197 96.2025 209.019 96.3579Z" fill="#9D9EB6"/>
<path d="M232.467 83.5917C230.527 83.7367 229.065 85.4258 229.21 87.3635C229.355 89.3012 231.046 90.7623 232.985 90.6173C234.924 90.4722 236.387 88.7831 236.241 86.8454C236.096 84.9077 234.406 83.457 232.467 83.5917Z" fill="#9D9EB6"/>
<path d="M259.897 72.6182C258.186 72.7425 256.91 74.2243 257.035 75.9341C257.159 77.6439 258.642 78.9184 260.353 78.7941C262.064 78.6697 263.34 77.1879 263.216 75.4782C263.091 73.7788 261.608 72.4938 259.897 72.6182Z" fill="#9D9EB6"/>
<path d="M290.77 63.7377C289.297 63.8413 288.188 65.1262 288.291 66.608C288.395 68.0794 289.681 69.1882 291.154 69.0846C292.626 68.9809 293.736 67.696 293.632 66.2246C293.529 64.7428 292.253 63.634 290.77 63.7377Z" fill="#9D9EB6"/>
<path d="M324.547 57.2718C323.303 57.3651 322.369 58.4427 322.462 59.6862C322.556 60.9297 323.634 61.8623 324.879 61.769C326.123 61.6757 327.057 60.5981 326.963 59.3546C326.87 58.1111 325.791 57.1785 324.547 57.2718Z" fill="#9D9EB6"/>
<path d="M362.628 55.1993C362.555 54.1942 361.674 53.4274 360.668 53.5103C359.662 53.5828 358.894 54.4636 358.977 55.4687C359.05 56.4739 359.931 57.2407 360.937 57.1578C361.943 57.0852 362.7 56.2045 362.628 55.1993Z" fill="#9D9EB6"/>
</g>
<defs>
<clipPath id="clip0_401_852">
<rect width="435.045" height="440" fill="white"/>
</clipPath>
</defs>
</svg>
