<svg xmlns="http://www.w3.org/2000/svg" width="24" height="24" viewBox="0 0 24 24" fill="none">
  <g clip-path="url(#clip0_74_47251)">
    <path fill-rule="evenodd" clip-rule="evenodd" d="M14.4816 24H9.50447C9.39199 24 9.26546 23.9438 9.19516 23.8453C9.1108 23.761 9.06862 23.6344 9.09674 23.5079L9.43417 21.174C7.8876 20.7381 6.48163 19.9367 5.32873 18.7979L3.4869 20.2742C3.38848 20.3445 3.26194 20.3726 3.1354 20.3585C3.02293 20.3304 2.91045 20.2601 2.85421 20.1476L0.365633 15.8453C0.309394 15.7329 0.295334 15.6063 0.337513 15.4938C0.365633 15.3673 0.464051 15.283 0.576529 15.2408L2.76985 14.3691C2.57301 13.5958 2.4746 12.7944 2.4746 11.993C2.4746 11.1916 2.57301 10.4042 2.76985 9.63093L0.576529 8.75923C0.464051 8.71705 0.365633 8.61863 0.337513 8.50615C0.295334 8.39367 0.309394 8.26714 0.365633 8.15466L2.85421 3.83831C2.91045 3.73989 3.02293 3.6696 3.1354 3.64148C3.26194 3.61336 3.38848 3.64148 3.4869 3.72583L5.32873 5.18805C6.48163 4.06327 7.8876 3.2478 9.43417 2.82601L9.09674 0.492091C9.06862 0.365554 9.1108 0.239016 9.19516 0.154657C9.26546 0.056239 9.39199 0 9.50447 0H14.4816C14.6082 0 14.7206 0.056239 14.805 0.154657C14.8894 0.239016 14.9175 0.365554 14.9034 0.492091L14.5519 2.82601C16.0985 3.2478 17.5045 4.06327 18.6574 5.18805L20.5133 3.72583C20.6117 3.64148 20.7382 3.61336 20.8507 3.64148C20.9772 3.6696 21.0757 3.73989 21.146 3.83831L23.6345 8.15466C23.6908 8.26714 23.7048 8.39367 23.6626 8.50615C23.6205 8.61863 23.5361 8.71705 23.4236 8.75923L21.2303 9.63093C21.4271 10.4042 21.5256 11.1916 21.5256 11.993C21.5256 12.7944 21.4271 13.5958 21.2303 14.3691L23.4236 15.2408C23.5361 15.283 23.6205 15.3673 23.6626 15.4938C23.7048 15.6063 23.6908 15.7329 23.6345 15.8453L21.146 20.1476C21.0757 20.2601 20.9772 20.3304 20.8507 20.3585C20.7382 20.3726 20.6117 20.3445 20.5133 20.2742L18.6574 18.7979C17.5045 19.9367 16.0985 20.7381 14.5519 21.174L14.9034 23.5079C14.9175 23.6344 14.8894 23.761 14.805 23.8453C14.7206 23.9438 14.6082 24 14.4816 24Z" fill="#6E90B6"/>
    <path fill-rule="evenodd" clip-rule="evenodd" d="M11.9932 18.5729C8.36573 18.5729 5.42725 15.6203 5.42725 11.9929C5.42725 8.36549 8.36573 5.427 11.9932 5.427C15.6206 5.427 18.5731 8.36549 18.5731 11.9929C18.5731 15.6203 15.6206 18.5729 11.9932 18.5729Z" fill="#99BEDA"/>
    <path fill-rule="evenodd" clip-rule="evenodd" d="M11.7541 13.8347C11.5291 13.8347 11.3323 13.652 11.3323 13.4129V10.601C11.3323 10.362 11.5291 10.1792 11.7541 10.1792C11.9931 10.1792 12.1759 10.362 12.1759 10.601V13.4129C12.1759 13.652 11.9931 13.8347 11.7541 13.8347Z" fill="white"/>
    <path fill-rule="evenodd" clip-rule="evenodd" d="M12.4149 12.4288H11.7541C11.5291 12.4288 11.3323 12.246 11.3323 12.007V10.601C11.3323 10.362 11.5291 10.1792 11.7541 10.1792H12.4149C13.0194 10.1792 13.4975 10.6572 13.4975 11.2618V11.3462C13.4975 11.9507 13.0194 12.4288 12.4149 12.4288ZM12.1759 11.5852H12.4149C12.5414 11.5852 12.6539 11.4727 12.6539 11.3462V11.2618C12.6539 11.1353 12.5414 11.0228 12.4149 11.0228H12.1759V11.5852Z" fill="white"/>
    <path fill-rule="evenodd" clip-rule="evenodd" d="M12.9772 13.8348C12.8366 13.8348 12.71 13.7645 12.6257 13.652L11.6555 12.232C11.5149 12.0492 11.5712 11.7821 11.754 11.6555C11.9508 11.5149 12.2179 11.5712 12.3445 11.754L13.3146 13.1599C13.4552 13.3568 13.3989 13.6239 13.2162 13.7504C13.1459 13.8067 13.0615 13.8348 12.9772 13.8348Z" fill="white"/>
    <path fill-rule="evenodd" clip-rule="evenodd" d="M10.3902 12.4288H8.97013C8.73112 12.4288 8.54834 12.246 8.54834 12.007V10.601C8.54834 10.362 8.73112 10.1792 8.97013 10.1792H10.3902C10.6151 10.1792 10.812 10.362 10.812 10.601C10.812 10.84 10.6151 11.0228 10.3902 11.0228H9.39193V11.5852H10.3902C10.6151 11.5852 10.812 11.782 10.812 12.007C10.812 12.246 10.6151 12.4288 10.3902 12.4288Z" fill="white"/>
    <path fill-rule="evenodd" clip-rule="evenodd" d="M10.3902 13.8348H8.97013C8.73112 13.8348 8.54834 13.652 8.54834 13.413V12.007C8.54834 11.782 8.73112 11.5852 8.97013 11.5852H10.3902C10.6151 11.5852 10.812 11.782 10.812 12.007C10.812 12.246 10.6151 12.4288 10.3902 12.4288H9.39193V12.9912H10.3902C10.6151 12.9912 10.812 13.188 10.812 13.413C10.812 13.652 10.6151 13.8348 10.3902 13.8348Z" fill="white"/>
    <path fill-rule="evenodd" clip-rule="evenodd" d="M14.5519 13.8347C14.3129 13.8347 14.1301 13.652 14.1301 13.4129V10.601C14.1301 10.362 14.3129 10.1792 14.5519 10.1792C14.7769 10.1792 14.9737 10.362 14.9737 10.601V13.4129C14.9737 13.652 14.7769 13.8347 14.5519 13.8347Z" fill="white"/>
    <path fill-rule="evenodd" clip-rule="evenodd" d="M15.2127 12.4288H14.5519C14.3129 12.4288 14.1301 12.246 14.1301 12.007V10.601C14.1301 10.362 14.3129 10.1792 14.5519 10.1792H15.2127C15.8032 10.1792 16.2953 10.6572 16.2953 11.2618V11.3462C16.2953 11.9507 15.8032 12.4288 15.2127 12.4288ZM14.9737 11.5852H15.2127C15.3393 11.5852 15.4517 11.4727 15.4517 11.3462V11.2618C15.4517 11.1353 15.3393 11.0228 15.2127 11.0228H14.9737V11.5852Z" fill="white"/>
  </g>
  <defs>
    <clipPath id="clip0_74_47251">
      <rect width="24" height="24" fill="white"/>
    </clipPath>
  </defs>
</svg>