<svg xmlns="http://www.w3.org/2000/svg" width="40" height="40" viewBox="0 0 40 40" fill="none">
  <g opacity="0.4">
    <path d="M3.06971 28.1036C1.45215 29.0375 1.44794 30.5429 3.0466 31.4719L13.2244 37.3866C14.8273 38.3181 17.4262 38.3206 19.0438 37.3867L29.2882 31.472C30.8973 30.543 30.9058 29.0352 29.3029 28.1037L19.1251 22.189C17.5264 21.26 14.9233 21.2599 13.3142 22.1889L3.06971 28.1036Z" fill="#B6BCD8"/>
  </g>
  <path d="M38.1452 25.3182V29.8325C38.1567 30.4554 37.7509 31.0611 36.9452 31.5297L26.7738 37.3925C26.4995 37.5525 26.191 37.684 25.8652 37.7925C25.7681 37.8211 25.6652 37.8497 25.5624 37.8783C25.4652 37.9068 25.3681 37.9297 25.271 37.9468C25.2481 37.9526 25.2252 37.9582 25.2024 37.964C25.0995 37.9811 24.9909 38.004 24.8881 38.0154C24.7452 38.0382 24.6024 38.0554 24.4595 38.0668C24.3738 38.0725 24.2824 38.0782 24.191 38.084C23.0309 38.1411 21.8367 37.9068 20.9566 37.3925H20.951L10.6938 31.4154C9.89952 30.9525 9.49951 30.3468 9.49951 29.7411L9.52239 25.5754C9.39666 24.884 9.79667 24.1697 10.7167 23.6382L20.9566 17.724C22.5681 16.7925 25.1738 16.7925 26.7681 17.724L36.951 23.6382C37.7509 24.1011 38.1452 24.7068 38.1452 25.3182Z" fill="#345FE8"/>
  <path d="M9.52513 25.334L9.49756 29.7388C9.49756 30.3458 9.9 30.9528 10.6918 31.4146L20.9522 37.3957C22.5554 38.326 25.1549 38.3326 26.7714 37.3957L26.7185 32.9212C25.1021 33.8581 22.5027 33.8515 20.8994 32.9212L10.7193 27.0098C9.92765 26.548 9.52513 25.941 9.52513 25.334Z" fill="#2559C1"/>
  <path d="M38.1454 29.8356C38.1567 30.4532 37.7524 31.0595 36.944 31.5312L26.7725 37.3686V37.391C25.1556 38.3343 22.5505 38.323 20.9561 37.391L20.8999 32.9202C22.4944 33.8522 25.077 33.8634 26.694 32.9314V32.9202L36.9346 27.0139C37.743 26.5423 38.1473 25.9247 38.1473 25.3184L38.1454 29.8356Z" fill="#2559C1"/>
  <path d="M38.1471 25.3184C38.1471 25.9247 37.7427 26.5423 36.9342 27.0139L26.6937 32.9203V32.9314C25.9894 33.3374 25.1005 33.5534 24.1914 33.6034V38.0868C25.1297 38.0433 26.0501 37.8123 26.7721 37.391L36.9436 31.5312C37.7521 31.0595 38.1563 30.4532 38.1451 29.8356L38.1471 25.3184Z" fill="#345FE8"/>
  <path d="M10.7152 23.6387C9.09765 24.5726 9.09345 26.078 10.6921 27.0071L20.87 32.9218C22.4728 33.8533 25.0717 33.8557 26.6893 32.9218L36.9337 27.0072C38.5428 26.0782 38.5513 24.5703 36.9484 23.6389L26.7706 17.7241C25.1719 16.7951 22.5688 16.7951 20.9597 17.7241L10.7152 23.6387Z" fill="#3E62F8"/>
  <path d="M34.8661 30.8575C34.8661 31.3015 34.5554 31.8343 34.1778 32.0564C33.7894 32.2784 33.4785 32.1007 33.4785 31.6678C33.4785 31.2127 33.7894 30.6799 34.1667 30.4579C34.5554 30.247 34.8661 30.4135 34.8661 30.8575Z" fill="white"/>
  <path d="M37.175 29.5255C37.175 29.9695 36.8643 30.5023 36.4758 30.7243C36.0872 30.9463 35.7764 30.7687 35.7764 30.3358C35.7764 29.8918 36.0872 29.359 36.4758 29.137C36.8532 28.915 37.175 29.0815 37.175 29.5255Z" fill="white"/>
  <path d="M11.0895 20.9277L11.0649 24.8506C11.0649 25.3911 11.4234 25.9317 12.1285 26.343L21.2663 31.6697C22.694 32.4982 25.0091 32.504 26.4487 31.6697L26.4016 27.6848C24.9621 28.5192 22.647 28.5133 21.2192 27.6848L12.153 22.4202C11.448 22.0089 11.0895 21.4683 11.0895 20.9277Z" fill="#E88503"/>
  <path d="M36.5783 24.937C36.5883 25.487 36.2283 26.027 35.5083 26.4471L26.4498 31.6458V31.6658C25.0098 32.5058 22.6897 32.4958 21.2698 31.6658L21.2197 27.6841C22.6398 28.5141 24.9397 28.5241 26.3798 27.6941V27.6841L35.4999 22.4241C36.2199 22.004 36.58 21.454 36.58 20.9141L36.5783 24.937Z" fill="#E88503"/>
  <path d="M36.58 20.9141C36.58 21.4541 36.2199 22.0041 35.4999 22.4241L26.3798 27.6842V27.6941C25.7526 28.0557 24.961 28.2481 24.1514 28.2925V32.2854C24.987 32.2466 25.8067 32.0409 26.4497 31.6658L35.5082 26.4471C36.2282 26.0271 36.5882 25.4871 36.5783 24.9371L36.58 20.9141Z" fill="#FFB850"/>
  <path d="M38.1452 17.7577V22.272C38.1567 22.8891 37.7509 23.4948 36.9452 23.9691L26.7738 29.8263V29.832C26.4138 30.0434 26.0024 30.2034 25.5624 30.3177C25.4652 30.3463 25.3681 30.3691 25.271 30.3862C25.2481 30.392 25.2252 30.3977 25.2024 30.4034C25.0995 30.4205 24.9909 30.4434 24.8881 30.4549C24.7452 30.4777 24.6024 30.4948 24.4595 30.5063C24.3738 30.512 24.2824 30.5177 24.191 30.5234C23.0252 30.5805 21.8367 30.3463 20.951 29.832L10.6938 23.8548C9.89952 23.392 9.49951 22.7863 9.49951 22.1748L9.52239 18.0148C9.39666 17.3234 9.79667 16.6091 10.7167 16.0777L20.9566 10.1634C22.5681 9.23199 25.1738 9.23199 26.7681 10.1634L36.951 16.0777C37.7509 16.5405 38.1452 17.1463 38.1452 17.7577Z" fill="#BAC2F0"/>
  <path d="M36.9345 19.4514L26.6939 25.3577V25.3689C26.4937 25.4843 26.2783 25.5848 26.0522 25.6714C25.8589 25.7446 25.6552 25.8034 25.448 25.8557C25.415 25.8642 25.3849 25.8771 25.3516 25.885C23.9863 26.2056 22.4003 26.0712 21.2177 25.5097C21.1116 25.459 20.9987 25.4156 20.8998 25.3577V25.359C20.8997 25.3589 20.9 25.359 20.8998 25.359L10.7193 19.4473C9.92766 18.9855 9.52511 18.3785 9.52511 17.7715L9.49756 22.1763C9.49756 22.7833 9.90001 23.3903 10.6918 23.8521L20.9522 29.8333C22.5554 30.7635 25.1549 30.7701 26.7713 29.8333L26.7713 29.8291C26.7717 29.8289 26.7721 29.8288 26.7724 29.8285V29.8061L36.9439 23.9686C37.7524 23.497 38.1566 22.8907 38.1453 22.2731L38.1473 17.7559C38.1473 18.3622 37.7429 18.9798 36.9345 19.4514Z" fill="#939FE7"/>
  <path d="M38.1471 17.7559C38.1471 18.3622 37.7427 18.9798 36.9342 19.4514L26.6937 25.3578V25.3689C25.9894 25.7749 25.1005 25.9909 24.1914 26.0409V30.5243C25.1297 30.4808 26.0501 30.2498 26.7721 29.8285L36.9436 23.9687C37.7521 23.497 38.1563 22.8907 38.1451 22.2731L38.1471 17.7559Z" fill="#BAC2F0"/>
  <path d="M10.7152 16.0762C9.09765 17.0101 9.09345 18.5155 10.6921 19.4446L20.87 25.3593C22.4728 26.2908 25.0717 26.2932 26.6893 25.3593L36.9337 19.4447C38.5428 18.5157 38.5513 17.0078 36.9484 16.0764L26.7706 10.1616C25.1719 9.23261 22.5688 9.23256 20.9597 10.1616L10.7152 16.0762Z" fill="#E3E6F9"/>
  <path d="M34.8661 23.295C34.8661 23.739 34.5554 24.2718 34.1778 24.4939C33.7894 24.7159 33.4785 24.5382 33.4785 24.1053C33.4785 23.6502 33.7894 23.1174 34.1667 22.8954C34.5554 22.6845 34.8661 22.851 34.8661 23.295Z" fill="#DD4351"/>
  <path d="M37.175 21.963C37.175 22.407 36.8643 22.9398 36.4758 23.1618C36.0872 23.3838 35.7764 23.2062 35.7764 22.7733C35.7764 22.3293 36.0872 21.7965 36.4758 21.5745C36.8532 21.3525 37.175 21.519 37.175 21.963Z" fill="#DD4351"/>
  <path d="M11.1938 13.2852L11.1694 17.1758C11.1694 17.712 11.5249 18.2481 12.2243 18.656L21.2871 23.9391C22.7032 24.7607 24.9993 24.7666 26.4271 23.9391L26.3804 19.9868C24.9527 20.8144 22.6566 20.8085 21.2405 19.9868L12.2486 14.7654C11.5493 14.3574 11.1938 13.8213 11.1938 13.2852Z" fill="#E88503"/>
  <path d="M36.4734 17.2615C36.4833 17.807 36.1263 18.3425 35.4122 18.7591L26.4279 23.9152V23.935C24.9997 24.7682 22.6987 24.7583 21.2904 23.935L21.2407 19.9861C22.6491 20.8092 24.9302 20.8192 26.3585 19.9959V19.9861L35.4038 14.7691C36.1179 14.3525 36.4751 13.807 36.4751 13.2715L36.4734 17.2615Z" fill="#E88503"/>
  <path d="M36.4752 13.2715C36.4752 13.8071 36.118 14.3526 35.404 14.7692L26.3586 19.9861V19.996C25.7366 20.3545 24.9514 20.5454 24.1484 20.5895V24.5496C24.9772 24.5112 25.7902 24.3071 26.4279 23.935L35.4122 18.7592C36.1263 18.3426 36.4834 17.807 36.4735 17.2615L36.4752 13.2715Z" fill="#FFB850"/>
  <path d="M38.1452 10.1929V14.7129C38.1567 15.33 37.7509 15.9357 36.9452 16.41L26.7738 22.2672V22.2729C26.4983 22.4347 26.1863 22.5576 25.8608 22.6617C25.8061 22.6796 25.7554 22.7022 25.6995 22.7186C25.6538 22.73 25.6081 22.7472 25.5624 22.7586C25.5224 22.77 25.4767 22.7814 25.4367 22.7872C25.3567 22.81 25.271 22.8272 25.191 22.8386C25.1109 22.8557 25.0309 22.8729 24.951 22.8843C24.9281 22.89 24.911 22.89 24.8881 22.8957C24.6824 22.9243 24.4709 22.9472 24.2595 22.9586C24.2367 22.9643 24.2138 22.9643 24.191 22.9643C23.0252 23.0215 21.8367 22.7872 20.951 22.2729L10.6938 16.29C9.89952 15.8329 9.49951 15.2214 9.49951 14.6157L9.52239 10.4557C9.39666 9.76431 9.79667 9.0443 10.7167 8.51288L20.9566 2.59861C22.5681 1.67286 25.1738 1.67286 26.7681 2.59861L36.951 8.5186C37.7509 8.98145 38.1452 9.58717 38.1452 10.1929Z" fill="#345FE8"/>
  <path d="M9.52513 10.2109L9.49756 14.6157C9.49756 15.2227 9.9 15.8297 10.6918 16.2915L20.9522 22.2727C22.5554 23.2029 25.1549 23.2095 26.7714 22.2727L26.7185 17.7982C25.1021 18.7351 22.5027 18.7285 20.8994 17.7982L10.7193 11.8868C9.92765 11.4249 9.52513 10.8179 9.52513 10.2109Z" fill="#2559C1"/>
  <path d="M38.1454 14.7126C38.1567 15.3301 37.7524 15.9364 36.944 16.4081L26.7725 22.2456V22.268C25.1556 23.2112 22.5505 23.2 20.9561 22.268L20.8999 17.7972C22.4944 18.7291 25.077 18.7404 26.694 17.8084V17.7972L36.9346 11.8909C37.743 11.4192 38.1473 10.8016 38.1473 10.1953L38.1454 14.7126Z" fill="#2559C1"/>
  <path d="M38.1471 10.1953C38.1471 10.8017 37.7427 11.4192 36.9338 11.8839L26.6933 17.7903L26.6937 17.8084C25.9894 18.2143 25.1005 18.4304 24.1914 18.4803V22.9637C25.1297 22.9202 26.0501 22.6892 26.7721 22.268L36.9436 16.4081C37.7521 15.9365 38.1563 15.3302 38.1451 14.7126L38.1471 10.1953Z" fill="#345FE8"/>
  <path d="M10.7152 8.51568C9.09765 9.44958 9.09345 10.955 10.6921 11.884L20.87 17.7987C22.4728 18.7302 25.0717 18.7327 26.6893 17.7988L36.9337 11.8841C38.5428 10.9551 38.5513 9.44729 36.9484 8.51582L26.7706 2.6011C25.1719 1.67206 22.5688 1.67202 20.9597 2.60104L10.7152 8.51568Z" fill="#3E62F8"/>
  <path d="M34.8661 15.7344C34.8661 16.1785 34.5554 16.7113 34.1778 16.9333C33.7894 17.1553 33.4785 16.9777 33.4785 16.5448C33.4785 16.0897 33.7894 15.5569 34.1667 15.3349C34.5554 15.1239 34.8661 15.2904 34.8661 15.7344Z" fill="white"/>
  <path d="M37.175 14.4024C37.175 14.8465 36.8643 15.3792 36.4758 15.6013C36.0872 15.8233 35.7764 15.6456 35.7764 15.2128C35.7764 14.7687 36.0872 14.2359 36.4758 14.0139C36.8532 13.7919 37.175 13.9584 37.175 14.4024Z" fill="white"/>
  <path d="M16.6707 9.28107C15.7882 9.79062 15.7859 10.612 16.6581 11.1189L22.2113 14.346C23.0858 14.8542 24.5038 14.8556 25.3863 14.346L30.9758 11.1189C31.8538 10.6121 31.8584 9.78937 30.9839 9.28115L25.4307 6.05401C24.5585 5.54712 23.1382 5.54709 22.2602 6.05398L16.6707 9.28107Z" fill="#82C6E0"/>
  <g opacity="0.7">
    <path d="M36.934 11.9082C36.0794 12.4866 35.2059 13.0326 34.3296 13.5736C33.4536 14.1153 32.5622 14.6303 31.6793 15.16C30.7824 15.6657 29.8929 16.1841 28.9891 16.6778C28.0851 17.1712 27.1784 17.66 26.2524 18.1157C27.1068 17.5368 27.9803 16.991 28.8566 16.4498C29.733 15.9089 30.6238 15.3928 31.5072 14.8639C32.4045 14.359 33.2934 13.8395 34.1977 13.3466C35.1016 12.853 36.0084 12.3643 36.934 11.9082Z" fill="white"/>
  </g>
  <g opacity="0.7">
    <path d="M36.934 27.0293C36.0794 27.6077 35.2059 28.1537 34.3296 28.6947C33.4536 29.2364 32.5622 29.7514 31.6793 30.2811C30.7824 30.7868 29.8929 31.3052 28.9891 31.7989C28.0851 32.2923 27.1784 32.7811 26.2524 33.2368C27.1068 32.6579 27.9803 32.1121 28.8566 31.5709C29.733 31.03 30.6238 30.5139 31.5072 29.985C32.4045 29.4801 33.2934 28.9606 34.1977 28.4677C35.1016 27.9741 36.0084 27.4855 36.934 27.0293Z" fill="white"/>
  </g>
  <path d="M19.7262 34.9515C19.6777 34.9515 19.6285 34.9392 19.5836 34.9133L13.0429 31.137C12.9062 31.0581 12.8593 30.8834 12.9383 30.7467C13.0169 30.6097 13.1916 30.5628 13.3286 30.6421L19.8693 34.4183C20.0061 34.4972 20.0529 34.6719 19.974 34.8086C19.921 34.9001 19.825 34.9515 19.7262 34.9515Z" fill="white"/>
  <path d="M19.7262 27.3204C19.6777 27.3204 19.6285 27.3082 19.5836 27.2822L13.0429 23.506C12.9062 23.427 12.8593 23.2524 12.9383 23.1156C13.0169 22.9789 13.1916 22.932 13.3286 23.011L19.8693 26.7872C20.0061 26.8662 20.0529 27.0409 19.974 27.1776C19.921 27.2691 19.825 27.3204 19.7262 27.3204Z" fill="#333333"/>
  <path d="M19.7262 19.6897C19.6777 19.6897 19.6285 19.6774 19.5836 19.6515L13.0429 15.8753C12.9062 15.7963 12.8593 15.6216 12.9383 15.4849C13.0169 15.3482 13.1916 15.301 13.3286 15.3803L19.8693 19.1565C20.0061 19.2355 20.0529 19.4101 19.974 19.5468C19.921 19.6384 19.825 19.6897 19.7262 19.6897Z" fill="white"/>
</svg>