<svg width="38" height="38" viewBox="0 0 38 38" fill="none" xmlns="http://www.w3.org/2000/svg">
<g opacity="0.4">
<path d="M2.06971 27.1036C0.452146 28.0375 0.447944 29.5429 2.0466 30.4719L12.2244 36.3866C13.8273 37.3181 16.4262 37.3206 18.0438 36.3867L28.2882 30.472C29.8973 29.543 29.9058 28.0352 28.3029 27.1037L18.1251 21.189C16.5264 20.26 13.9233 20.2599 12.3142 21.1889L2.06971 27.1036Z" fill="#B6BCD8"/>
</g>
<path d="M37.1452 24.3182V28.8325C37.1567 29.4554 36.7509 30.0611 35.9452 30.5297L25.7738 36.3925C25.4995 36.5525 25.191 36.684 24.8652 36.7925C24.7681 36.8211 24.6652 36.8497 24.5624 36.8783C24.4652 36.9068 24.3681 36.9297 24.271 36.9468C24.2481 36.9526 24.2252 36.9582 24.2024 36.964C24.0995 36.9811 23.9909 37.004 23.8881 37.0154C23.7452 37.0382 23.6024 37.0554 23.4595 37.0668C23.3738 37.0725 23.2824 37.0782 23.191 37.084C22.0309 37.1411 20.8367 36.9068 19.9566 36.3925H19.951L9.69381 30.4154C8.89952 29.9525 8.49951 29.3468 8.49951 28.7411L8.52239 24.5754C8.39666 23.884 8.79667 23.1697 9.71666 22.6382L19.9566 16.724C21.5681 15.7925 24.1738 15.7925 25.7681 16.724L35.951 22.6382C36.7509 23.1011 37.1452 23.7068 37.1452 24.3182Z" fill="#345FE8"/>
<path d="M8.52513 24.334L8.49756 28.7388C8.49756 29.3458 8.9 29.9528 9.69176 30.4146L19.9522 36.3957C21.5554 37.326 24.1549 37.3326 25.7714 36.3957L25.7185 31.9212C24.1021 32.8581 21.5027 32.8515 19.8994 31.9212L9.71933 26.0098C8.92765 25.548 8.52513 24.941 8.52513 24.334Z" fill="#2559C1"/>
<path d="M37.1454 28.8356C37.1567 29.4532 36.7524 30.0595 35.944 30.5312L25.7725 36.3686V36.391C24.1556 37.3343 21.5505 37.323 19.9561 36.391L19.8999 31.9202C21.4944 32.8522 24.077 32.8634 25.694 31.9314V31.9202L35.9346 26.0139C36.743 25.5423 37.1473 24.9247 37.1473 24.3184L37.1454 28.8356Z" fill="#2559C1"/>
<path d="M37.1471 24.3184C37.1471 24.9247 36.7427 25.5423 35.9342 26.0139L25.6937 31.9203V31.9314C24.9894 32.3374 24.1005 32.5534 23.1914 32.6034V37.0868C24.1297 37.0433 25.0501 36.8123 25.7721 36.391L35.9436 30.5312C36.7521 30.0595 37.1563 29.4532 37.1451 28.8356L37.1471 24.3184Z" fill="#345FE8"/>
<path d="M9.71522 22.6387C8.09765 23.5726 8.09345 25.078 9.69211 26.0071L19.87 31.9218C21.4728 32.8533 24.0717 32.8557 25.6893 31.9218L35.9337 26.0072C37.5428 25.0782 37.5513 23.5703 35.9484 22.6389L25.7706 16.7241C24.1719 15.7951 21.5688 15.7951 19.9597 16.7241L9.71522 22.6387Z" fill="#3E62F8"/>
<path d="M33.8661 29.8575C33.8661 30.3015 33.5554 30.8343 33.1778 31.0564C32.7894 31.2784 32.4785 31.1007 32.4785 30.6678C32.4785 30.2127 32.7894 29.6799 33.1667 29.4579C33.5554 29.247 33.8661 29.4135 33.8661 29.8575Z" fill="white"/>
<path d="M36.175 28.5255C36.175 28.9695 35.8643 29.5023 35.4758 29.7243C35.0872 29.9463 34.7764 29.7687 34.7764 29.3358C34.7764 28.8918 35.0872 28.359 35.4758 28.137C35.8532 27.915 36.175 28.0815 36.175 28.5255Z" fill="white"/>
<path d="M10.0895 19.9277L10.0649 23.8506C10.0649 24.3911 10.4234 24.9317 11.1285 25.343L20.2663 30.6697C21.694 31.4982 24.0091 31.504 25.4487 30.6697L25.4016 26.6848C23.9621 27.5192 21.647 27.5133 20.2192 26.6848L11.153 21.4202C10.448 21.0089 10.0895 20.4683 10.0895 19.9277Z" fill="#E88503"/>
<path d="M35.5783 23.937C35.5883 24.487 35.2283 25.027 34.5083 25.4471L25.4498 30.6458V30.6658C24.0098 31.5058 21.6897 31.4958 20.2698 30.6658L20.2197 26.6841C21.6398 27.5141 23.9397 27.5241 25.3798 26.6941V26.6841L34.4999 21.4241C35.2199 21.004 35.58 20.454 35.58 19.9141L35.5783 23.937Z" fill="#E88503"/>
<path d="M35.58 19.9141C35.58 20.4541 35.2199 21.0041 34.4999 21.4241L25.3798 26.6842V26.6941C24.7526 27.0557 23.961 27.2481 23.1514 27.2925V31.2854C23.987 31.2466 24.8067 31.0409 25.4497 30.6658L34.5082 25.4471C35.2282 25.0271 35.5882 24.4871 35.5783 23.9371L35.58 19.9141Z" fill="#FFB850"/>
<path d="M37.1452 16.7577V21.272C37.1567 21.8891 36.7509 22.4948 35.9452 22.9691L25.7738 28.8263V28.832C25.4138 29.0434 25.0024 29.2034 24.5624 29.3177C24.4652 29.3463 24.3681 29.3691 24.271 29.3862C24.2481 29.392 24.2252 29.3977 24.2024 29.4034C24.0995 29.4205 23.9909 29.4434 23.8881 29.4549C23.7452 29.4777 23.6024 29.4948 23.4595 29.5063C23.3738 29.512 23.2824 29.5177 23.191 29.5234C22.0252 29.5805 20.8367 29.3463 19.951 28.832L9.69381 22.8548C8.89952 22.392 8.49951 21.7863 8.49951 21.1748L8.52239 17.0148C8.39666 16.3234 8.79667 15.6091 9.71666 15.0777L19.9566 9.16342C21.5681 8.23199 24.1738 8.23199 25.7681 9.16342L35.951 15.0777C36.7509 15.5405 37.1452 16.1463 37.1452 16.7577Z" fill="#BAC2F0"/>
<path d="M35.9345 18.4514L25.6939 24.3577V24.3689C25.4937 24.4843 25.2783 24.5848 25.0522 24.6714C24.8589 24.7446 24.6552 24.8034 24.448 24.8557C24.415 24.8642 24.3849 24.8771 24.3516 24.885C22.9863 25.2056 21.4003 25.0712 20.2177 24.5097C20.1116 24.459 19.9987 24.4156 19.8998 24.3577V24.359C19.8997 24.3589 19.9 24.359 19.8998 24.359L9.71934 18.4473C8.92766 17.9855 8.52511 17.3785 8.52511 16.7715L8.49756 21.1763C8.49756 21.7833 8.90001 22.3903 9.69175 22.8521L19.9522 28.8333C21.5554 29.7635 24.1549 29.7701 25.7713 28.8333L25.7713 28.8291C25.7717 28.8289 25.7721 28.8288 25.7724 28.8285V28.8061L35.9439 22.9686C36.7524 22.497 37.1566 21.8907 37.1453 21.2731L37.1473 16.7559C37.1473 17.3622 36.7429 17.9798 35.9345 18.4514Z" fill="#939FE7"/>
<path d="M37.1471 16.7559C37.1471 17.3622 36.7427 17.9798 35.9342 18.4514L25.6937 24.3578V24.3689C24.9894 24.7749 24.1005 24.9909 23.1914 25.0409V29.5243C24.1297 29.4808 25.0501 29.2498 25.7721 28.8285L35.9436 22.9687C36.7521 22.497 37.1563 21.8907 37.1451 21.2731L37.1471 16.7559Z" fill="#BAC2F0"/>
<path d="M9.71522 15.0762C8.09765 16.0101 8.09345 17.5155 9.69211 18.4446L19.87 24.3593C21.4728 25.2908 24.0717 25.2932 25.6893 24.3593L35.9337 18.4447C37.5428 17.5157 37.5513 16.0078 35.9484 15.0764L25.7706 9.16164C24.1719 8.23261 21.5688 8.23256 19.9597 9.16158L9.71522 15.0762Z" fill="#E3E6F9"/>
<path d="M33.8661 22.295C33.8661 22.739 33.5554 23.2718 33.1778 23.4939C32.7894 23.7159 32.4785 23.5382 32.4785 23.1053C32.4785 22.6502 32.7894 22.1174 33.1667 21.8954C33.5554 21.6845 33.8661 21.851 33.8661 22.295Z" fill="#DD4351"/>
<path d="M36.175 20.963C36.175 21.407 35.8643 21.9398 35.4758 22.1618C35.0872 22.3838 34.7764 22.2062 34.7764 21.7733C34.7764 21.3293 35.0872 20.7965 35.4758 20.5745C35.8532 20.3525 36.175 20.519 36.175 20.963Z" fill="#DD4351"/>
<path d="M10.1938 12.2852L10.1694 16.1758C10.1694 16.712 10.5249 17.2481 11.2243 17.656L20.2871 22.9391C21.7032 23.7607 23.9993 23.7666 25.4271 22.9391L25.3804 18.9868C23.9527 19.8144 21.6566 19.8085 20.2405 18.9868L11.2486 13.7654C10.5493 13.3574 10.1938 12.8213 10.1938 12.2852Z" fill="#E88503"/>
<path d="M35.4734 16.2615C35.4833 16.807 35.1263 17.3425 34.4122 17.7591L25.4279 22.9152V22.935C23.9997 23.7682 21.6987 23.7583 20.2904 22.935L20.2407 18.9861C21.6491 19.8092 23.9302 19.8192 25.3585 18.9959V18.9861L34.4038 13.7691C35.1179 13.3525 35.4751 12.807 35.4751 12.2715L35.4734 16.2615Z" fill="#E88503"/>
<path d="M35.4752 12.2715C35.4752 12.8071 35.118 13.3526 34.404 13.7692L25.3586 18.9861V18.996C24.7366 19.3545 23.9514 19.5454 23.1484 19.5895V23.5496C23.9772 23.5112 24.7902 23.3071 25.4279 22.935L34.4122 17.7592C35.1263 17.3426 35.4834 16.807 35.4735 16.2615L35.4752 12.2715Z" fill="#FFB850"/>
<path d="M37.1452 9.19288V13.7129C37.1567 14.33 36.7509 14.9357 35.9452 15.41L25.7738 21.2672V21.2729C25.4983 21.4347 25.1863 21.5576 24.8608 21.6617C24.8061 21.6796 24.7554 21.7022 24.6995 21.7186C24.6538 21.73 24.6081 21.7472 24.5624 21.7586C24.5224 21.77 24.4767 21.7814 24.4367 21.7872C24.3567 21.81 24.271 21.8272 24.191 21.8386C24.1109 21.8557 24.0309 21.8729 23.951 21.8843C23.9281 21.89 23.911 21.89 23.8881 21.8957C23.6824 21.9243 23.4709 21.9472 23.2595 21.9586C23.2367 21.9643 23.2138 21.9643 23.191 21.9643C22.0252 22.0215 20.8367 21.7872 19.951 21.2729L9.69381 15.29C8.89952 14.8329 8.49951 14.2214 8.49951 13.6157L8.52239 9.45575C8.39666 8.76431 8.79667 8.0443 9.71666 7.51288L19.9566 1.59861C21.5681 0.67286 24.1738 0.67286 25.7681 1.59861L35.951 7.5186C36.7509 7.98145 37.1452 8.58717 37.1452 9.19288Z" fill="#345FE8"/>
<path d="M8.52513 9.21094L8.49756 13.6157C8.49756 14.2227 8.9 14.8297 9.69176 15.2915L19.9522 21.2727C21.5554 22.2029 24.1549 22.2095 25.7714 21.2727L25.7185 16.7982C24.1021 17.7351 21.5027 17.7285 19.8994 16.7982L9.71933 10.8868C8.92765 10.4249 8.52513 9.81795 8.52513 9.21094Z" fill="#2559C1"/>
<path d="M37.1454 13.7126C37.1567 14.3301 36.7524 14.9364 35.944 15.4081L25.7725 21.2456V21.268C24.1556 22.2112 21.5505 22.2 19.9561 21.268L19.8999 16.7972C21.4944 17.7291 24.077 17.7404 25.694 16.8084V16.7972L35.9346 10.8909C36.743 10.4192 37.1473 9.80164 37.1473 9.19531L37.1454 13.7126Z" fill="#2559C1"/>
<path d="M37.1471 9.19531C37.1471 9.80166 36.7427 10.4192 35.9338 10.8839L25.6933 16.7903L25.6937 16.8084C24.9894 17.2143 24.1005 17.4304 23.1914 17.4803V21.9637C24.1297 21.9202 25.0501 21.6892 25.7721 21.268L35.9436 15.4081C36.7521 14.9365 37.1563 14.3302 37.1451 13.7126L37.1471 9.19531Z" fill="#345FE8"/>
<path d="M9.71522 7.51568C8.09765 8.44958 8.09345 9.95498 9.69211 10.884L19.87 16.7987C21.4728 17.7302 24.0717 17.7327 25.6893 16.7988L35.9337 10.8841C37.5428 9.95512 37.5513 8.44729 35.9484 7.51582L25.7706 1.6011C24.1719 0.672062 21.5688 0.672017 19.9597 1.60104L9.71522 7.51568Z" fill="#3E62F8"/>
<path d="M33.8661 14.7344C33.8661 15.1785 33.5554 15.7113 33.1778 15.9333C32.7894 16.1553 32.4785 15.9777 32.4785 15.5448C32.4785 15.0897 32.7894 14.5569 33.1667 14.3349C33.5554 14.1239 33.8661 14.2904 33.8661 14.7344Z" fill="white"/>
<path d="M36.175 13.4024C36.175 13.8465 35.8643 14.3792 35.4758 14.6013C35.0872 14.8233 34.7764 14.6456 34.7764 14.2128C34.7764 13.7687 35.0872 13.2359 35.4758 13.0139C35.8532 12.7919 36.175 12.9584 36.175 13.4024Z" fill="white"/>
<path d="M15.6707 8.28107C14.7882 8.79062 14.7859 9.61198 15.6581 10.1189L21.2113 13.346C22.0858 13.8542 23.5038 13.8556 24.3863 13.346L29.9758 10.1189C30.8538 9.61205 30.8584 8.78937 29.9839 8.28115L24.4307 5.05401C23.5585 4.54712 22.1382 4.54709 21.2602 5.05398L15.6707 8.28107Z" fill="#82C6E0"/>
<g opacity="0.7">
<path d="M35.934 10.9082C35.0794 11.4866 34.2059 12.0326 33.3296 12.5736C32.4536 13.1153 31.5622 13.6303 30.6793 14.16C29.7824 14.6657 28.8929 15.1841 27.9891 15.6778C27.0851 16.1712 26.1784 16.66 25.2524 17.1157C26.1068 16.5368 26.9803 15.991 27.8566 15.4498C28.733 14.9089 29.6238 14.3928 30.5072 13.8639C31.4045 13.359 32.2934 12.8395 33.1977 12.3466C34.1016 11.853 35.0084 11.3643 35.934 10.9082Z" fill="white"/>
</g>
<g opacity="0.7">
<path d="M35.934 26.0293C35.0794 26.6077 34.2059 27.1537 33.3296 27.6947C32.4536 28.2364 31.5622 28.7514 30.6793 29.2811C29.7824 29.7868 28.8929 30.3052 27.9891 30.7989C27.0851 31.2923 26.1784 31.7811 25.2524 32.2368C26.1068 31.6579 26.9803 31.1121 27.8566 30.5709C28.733 30.03 29.6238 29.5139 30.5072 28.985C31.4045 28.4801 32.2934 27.9606 33.1977 27.4677C34.1016 26.9741 35.0084 26.4855 35.934 26.0293Z" fill="white"/>
</g>
<path d="M18.7262 33.9515C18.6777 33.9515 18.6285 33.9392 18.5836 33.9133L12.0429 30.137C11.9062 30.0581 11.8593 29.8834 11.9383 29.7467C12.0169 29.6097 12.1916 29.5628 12.3286 29.6421L18.8693 33.4183C19.0061 33.4972 19.0529 33.6719 18.974 33.8086C18.921 33.9001 18.825 33.9515 18.7262 33.9515Z" fill="white"/>
<path d="M18.7262 26.3204C18.6777 26.3204 18.6285 26.3082 18.5836 26.2822L12.0429 22.506C11.9062 22.427 11.8593 22.2524 11.9383 22.1156C12.0169 21.9789 12.1916 21.932 12.3286 22.011L18.8693 25.7872C19.0061 25.8662 19.0529 26.0409 18.974 26.1776C18.921 26.2691 18.825 26.3204 18.7262 26.3204Z" fill="#333333"/>
<path d="M18.7262 18.6897C18.6777 18.6897 18.6285 18.6774 18.5836 18.6515L12.0429 14.8753C11.9062 14.7963 11.8593 14.6216 11.9383 14.4849C12.0169 14.3482 12.1916 14.301 12.3286 14.3803L18.8693 18.1565C19.0061 18.2355 19.0529 18.4101 18.974 18.5468C18.921 18.6384 18.825 18.6897 18.7262 18.6897Z" fill="white"/>
</svg>
