<svg xmlns="http://www.w3.org/2000/svg" width="32" height="33" viewBox="0 0 32 33" fill="none">
  <path fill-rule="evenodd" clip-rule="evenodd" d="M7.34606 22.4616C3.84122 22.4616 1 19.6203 1 16.1155C1 12.6106 3.84127 9.76933 7.34615 9.76933C7.84192 9.76933 8.32441 9.82618 8.78746 9.93372C9.7265 6.51323 12.8582 4.00012 16.5769 4.00012C19.8 4.00012 22.5822 5.88802 23.8779 8.61833C23.9441 8.61646 24.0104 8.61552 24.077 8.61552C27.9005 8.61552 31.0001 11.7151 31.0001 15.5386C31.0001 19.3621 27.9005 22.4617 24.077 22.4617C24.077 22.4617 24.0769 22.4617 24.0768 22.4617V22.4617H7.34606V22.4616Z" fill="url(#paint0_linear_369_322)"/>
  <path d="M8.5 17.4267C8.5 16.3839 9.34534 15.5386 10.3881 15.5386H21.6119C22.6547 15.5386 23.5 16.3839 23.5 17.4267V21.8848C23.5 26.0269 20.1421 29.3848 16 29.3848C11.8579 29.3848 8.5 26.0269 8.5 21.8848V17.4267Z" fill="#06C9FF"/>
  <path fill-rule="evenodd" clip-rule="evenodd" d="M9.94312 26.3086L12.5765 15.5386H14.8842L11.8111 28.1068C11.0892 27.6198 10.4566 27.0105 9.94312 26.3086ZM13.8806 29.0811C13.5163 28.9739 13.1635 28.8399 12.8245 28.6812L16.0381 15.5386H17.1919L13.8806 29.0811Z" fill="#06C9FF"/>
  <path d="M19.4615 13.2309C19.4615 12.3128 19.0968 11.4324 18.4476 10.7832C17.7985 10.134 16.918 9.76935 16 9.76935C15.0819 9.76935 14.2014 10.134 13.5523 10.7832C12.9031 11.4324 12.5384 12.3128 12.5384 13.2309" stroke="#06C9FF" stroke-width="3" stroke-linecap="round"/>
  <path fill-rule="evenodd" clip-rule="evenodd" d="M17.1135 22.8773C17.0098 22.4628 17.2083 22.0414 17.4442 21.6851C17.6253 21.4115 17.7308 21.0835 17.7308 20.7309C17.7308 19.775 16.9559 19.0001 16 19.0001C15.0441 19.0001 14.2692 19.775 14.2692 20.7309C14.2692 21.0835 14.3747 21.4115 14.5557 21.685C14.7916 22.0413 14.9901 22.4626 14.8864 22.8772L14.5798 24.1037C14.422 24.7349 14.8994 25.3463 15.5499 25.3463H16.4499C17.1005 25.3463 17.5778 24.7349 17.4201 24.1037L17.1135 22.8773Z" fill="url(#paint1_linear_369_322)"/>
  <defs>
    <linearGradient id="paint0_linear_369_322" x1="16" y1="22.5874" x2="16" y2="2.13472" gradientUnits="userSpaceOnUse">
      <stop stop-color="#1925FF"/>
      <stop offset="1" stop-color="#1925FF"/>
    </linearGradient>
    <linearGradient id="paint1_linear_369_322" x1="16" y1="25.3895" x2="16" y2="18.3589" gradientUnits="userSpaceOnUse">
      <stop stop-color="#1925FF"/>
      <stop offset="1" stop-color="#1925FF"/>
    </linearGradient>
  </defs>
</svg>