<svg xmlns="http://www.w3.org/2000/svg" width="32" height="32" viewBox="0 0 32 32" fill="none">
  <path d="M24.1414 32C22.4596 32 20.6884 31.5981 18.8577 30.8242C17.0716 30.0651 15.2707 29.0233 13.5144 27.7581C11.773 26.4781 10.0912 25.0493 8.49862 23.4865C6.92095 21.894 5.49211 20.2121 4.22699 18.4856C2.94699 16.6995 1.92002 14.9135 1.19072 13.187C0.416762 11.3414 0.0297852 9.55535 0.0297852 7.87349C0.0297852 6.71256 0.238157 5.61116 0.640018 4.58419C1.05676 3.52744 1.72653 2.54512 2.63444 1.69674C3.78048 0.565582 5.09025 0 6.48932 0C7.06978 0 7.66513 0.133953 8.17118 0.372093C8.75164 0.64 9.24281 1.04186 9.60002 1.57767L13.053 6.44465C13.3656 6.87628 13.6037 7.29302 13.7675 7.70977C13.9609 8.15628 14.0651 8.60279 14.0651 9.03442C14.0651 9.6 13.9014 10.1507 13.5889 10.6716C13.3656 11.0735 13.0233 11.5051 12.5916 11.9367L11.5796 12.9935C11.5944 13.0381 11.6093 13.0679 11.6242 13.0977C11.8028 13.4102 12.16 13.946 12.8447 14.7498C13.574 15.5833 14.2586 16.3423 14.9433 17.0419C15.8214 17.9051 16.5507 18.5898 17.2354 19.1553C18.0837 19.8698 18.6344 20.227 18.9619 20.3907L18.9321 20.4651L20.0186 19.3935C20.48 18.9321 20.9265 18.5898 21.3582 18.3665C22.1768 17.8605 23.2186 17.7712 24.2605 18.2028C24.6475 18.3665 25.0642 18.5898 25.5107 18.9023L30.4521 22.4149C31.0028 22.787 31.4047 23.2633 31.6428 23.8288C31.8661 24.3944 31.9702 24.9153 31.9702 25.4363C31.9702 26.1507 31.8065 26.8651 31.494 27.5349C31.1814 28.2047 30.7944 28.7851 30.3033 29.3209C29.4549 30.2586 28.5321 30.9284 27.4605 31.36C26.4335 31.7767 25.3172 32 24.1414 32ZM6.48932 2.23256C5.67072 2.23256 4.91164 2.58977 4.18234 3.30419C3.49769 3.94419 3.02141 4.64372 2.72374 5.40279C2.41118 6.17674 2.26234 6.99535 2.26234 7.87349C2.26234 9.25767 2.58979 10.7609 3.24467 12.3088C3.91444 13.8865 4.85211 15.5237 6.04281 17.1609C7.23351 18.7981 8.58792 20.3907 10.0763 21.894C11.5647 23.3674 13.1721 24.7367 14.8242 25.9423C16.4316 27.1181 18.0837 28.0707 19.7209 28.7553C22.2661 29.8419 24.6475 30.0949 26.6121 29.2763C27.3712 28.9637 28.0409 28.4874 28.6512 27.8028C28.9935 27.4307 29.2614 27.0288 29.4847 26.5526C29.6633 26.1805 29.7526 25.7935 29.7526 25.4065C29.7526 25.1684 29.7079 24.9302 29.5889 24.6623C29.5442 24.573 29.4549 24.4093 29.1721 24.2158L24.2307 20.7033C23.933 20.4949 23.6651 20.346 23.4121 20.2419C23.0847 20.1079 22.9507 19.974 22.4447 20.2865C22.147 20.4353 21.8791 20.6586 21.5814 20.9563L20.4502 22.0726C19.8698 22.6381 18.9768 22.7721 18.2921 22.5191L17.8902 22.3405C17.28 22.013 16.5656 21.507 15.7768 20.8372C15.0623 20.227 14.2884 19.5126 13.3507 18.5898C12.6214 17.8456 11.8921 17.0567 11.133 16.1786C10.4335 15.36 9.92746 14.6605 9.6149 14.08L9.4363 13.6335C9.34699 13.2912 9.31723 13.0977 9.31723 12.8893C9.31723 12.3535 9.51071 11.8772 9.88281 11.5051L10.9991 10.3442C11.2968 10.0465 11.52 9.76372 11.6689 9.5107C11.7879 9.31721 11.8326 9.15349 11.8326 9.00465C11.8326 8.88558 11.7879 8.70698 11.7135 8.52837C11.6093 8.29023 11.4456 8.02233 11.2372 7.73953L7.7842 2.85767C7.63537 2.6493 7.45676 2.50046 7.23351 2.39628C6.99537 2.29209 6.74234 2.23256 6.48932 2.23256ZM18.9321 20.48L18.694 21.4921L19.0958 20.4502C19.0214 20.4353 18.9619 20.4502 18.9321 20.48Z" fill="url(#paint0_linear_40_1006)"/>
  <defs>
    <linearGradient id="paint0_linear_40_1006" x1="16.0001" y1="32.2179" x2="16.0001" y2="-3.23336" gradientUnits="userSpaceOnUse">
      <stop stop-color="#1925FF"/>
      <stop offset="1" stop-color="#1925FF"/>
    </linearGradient>
  </defs>
</svg>