<svg xmlns="http://www.w3.org/2000/svg" width="54" height="54" viewBox="0 0 54 54" fill="none">
  <g clip-path="url(#clip0_238_620)">
    <path d="M52.8356 29.1938C49.2919 29.0672 46.6678 27.3881 45.09 26.0044C44.6344 25.6078 43.9509 25.5994 43.4953 26.0044C42.8541 26.5697 42.0272 27.1772 41.04 27.7172V7.17189C41.04 6.50533 40.5 5.96533 39.8334 5.96533H1.24031C0.57375 5.96533 0.03375 6.50533 0.03375 7.17189L0 40.306C0 40.9725 0.54 41.5125 1.20656 41.5125L35.8172 41.521C36.1125 42.0441 36.4584 42.5335 36.8466 42.9891C38.5678 44.9803 40.905 46.651 43.7906 47.9419C43.9509 48.0094 44.1197 48.0516 44.2884 48.0516C44.4572 48.0516 44.6259 48.0178 44.7862 47.9419C47.6719 46.651 50.0006 44.9803 51.7303 42.9891C53.1984 41.2931 54.0084 39.0994 54.0084 36.796V30.3919C54.0043 30.0798 53.8802 29.7812 53.6618 29.5581C53.4434 29.3351 53.1476 29.2046 52.8356 29.1938ZM33.9103 8.37846H38.6184V13.1541H33.9103V8.37846ZM38.6184 15.5756V19.3303H27.8184V15.5756H38.6184ZM38.6184 21.7435V25.7344H34.3069V21.7435H38.6184ZM31.8853 21.7435V25.7344H21.7266V21.7435H31.8853ZM21.7266 8.37002H31.4887V13.1456H21.7266V8.37002ZM25.4053 15.5672V19.3219H15.6431V15.5672H25.4053ZM19.305 21.7435V25.7344H9.45844V21.7435H19.305ZM9.46687 8.37002H19.3134V13.1456H9.46687V8.37002ZM2.42156 8.37002H7.04531V13.1456H2.42156V8.37002ZM2.42156 15.5672H13.2216V19.3219H2.42156V15.5672ZM2.42156 21.735H7.04531V25.726H2.42156V21.735ZM7.04531 39.0994H2.42156V34.636H7.04531V39.0994ZM8.25187 32.2144H2.41312V28.1475H13.2131V32.2144H8.25187ZM19.305 39.0994H9.45844V34.636H19.305V39.0994ZM20.5116 32.2144H15.6262V28.1475H25.3884V32.2144H20.5116C20.52 32.2144 20.52 32.2144 20.5116 32.2144ZM29.6831 39.0994H21.7181V34.636H29.6831V39.0994ZM32.1047 39.0994V34.636H34.5769V36.796C34.5769 37.5806 34.6781 38.3569 34.8637 39.1078L32.1047 39.0994ZM35.7412 29.1853C35.0916 29.2106 34.5769 29.7422 34.5769 30.3919V32.2144H27.8184V28.1475H38.6184V28.7044C37.7325 28.966 36.7791 29.1516 35.7412 29.1853ZM51.5784 36.796C51.5784 38.5172 50.9794 40.1541 49.8909 41.4028C48.4987 43.0144 46.6087 44.3897 44.28 45.5035C41.9512 44.3897 40.0697 43.0144 38.6691 41.4028C38.2725 40.9388 37.935 40.4241 37.6734 39.8756C37.665 39.8419 37.6481 39.8166 37.6312 39.7828C37.2094 38.8631 36.9816 37.8422 36.9816 36.7875V31.5056C40.1203 31.1344 42.5672 29.776 44.28 28.4597C45.9844 29.776 48.4397 31.1344 51.5784 31.5056V36.796Z" fill="url(#paint0_linear_238_620)"/>
    <path d="M42.3309 35.8003C42.0975 35.593 41.793 35.4837 41.481 35.4953C41.1689 35.5068 40.8734 35.6383 40.6559 35.8623C40.4384 36.0863 40.3157 36.3857 40.3134 36.6979C40.3111 37.0101 40.4293 37.3112 40.6434 37.5385L42.7275 39.5635C42.9553 39.7828 43.2591 39.9094 43.5713 39.9094H43.5881C43.9088 39.901 44.2125 39.7744 44.4403 39.5382L48.1275 35.7075C48.3344 35.4731 48.4428 35.1679 48.43 34.8555C48.4172 34.5431 48.2842 34.2477 48.0588 34.031C47.8335 33.8143 47.5331 33.6931 47.2204 33.6926C46.9077 33.6922 46.607 33.8125 46.3809 34.0285L43.5375 36.9816L42.3309 35.8003Z" fill="url(#paint1_linear_238_620)"/>
  </g>
  <defs>
    <linearGradient id="paint0_linear_238_620" x1="27.0043" y1="48.3382" x2="27.0043" y2="1.71283" gradientUnits="userSpaceOnUse">
      <stop stop-color="#1925FF"/>
      <stop offset="1" stop-color="#1925FF"/>
    </linearGradient>
    <linearGradient id="paint1_linear_238_620" x1="44.3722" y1="39.9517" x2="44.3722" y2="33.0645" gradientUnits="userSpaceOnUse">
      <stop stop-color="#1925FF"/>
      <stop offset="1" stop-color="#1925FF"/>
    </linearGradient>
    <clipPath id="clip0_238_620">
      <rect width="54" height="54" fill="white"/>
    </clipPath>
  </defs>
</svg>