<svg xmlns="http://www.w3.org/2000/svg" width="32" height="32" viewBox="0 0 32 32" fill="none">
  <g clip-path="url(#clip0_369_502)">
    <mask id="mask0_369_502" style="mask-type:luminance" maskUnits="userSpaceOnUse" x="0" y="0" width="32" height="33">
      <path d="M32 0.00012207H0V32.0001H32V0.00012207Z" fill="white"/>
    </mask>
    <g mask="url(#mask0_369_502)">
      <path d="M29.3825 10.8988C29.3825 18.2045 24.8314 22.4063 16.9069 22.4063L12.0963 15.4C12.0963 19.0529 9.13213 30.6801 5.47928 30.6801H2.99414V0.00012207H16.9069C24.8314 0.00012207 29.3825 3.94241 29.3825 10.8988ZM20.7594 11.1583C20.7594 8.48352 19.1825 6.99643 16.4678 6.99643H12.0963V15.4H16.4678C19.1825 15.4 20.7594 13.9129 20.7594 11.1583Z" fill="url(#paint0_linear_369_502)"/>
      <path d="M16.4678 7.00641C19.1825 7.00641 20.7594 8.4935 20.7594 11.1682C20.7594 11.1982 20.7594 11.2181 20.7594 11.2481L29.0631 7.96453C27.9154 2.84455 23.6337 0.00012207 16.9069 0.00012207H2.99414C2.99414 3.86256 6.12801 7.00641 9.99045 7.00641H16.4678Z" fill="url(#paint1_linear_369_502)"/>
    </g>
  </g>
  <defs>
    <linearGradient id="paint0_linear_369_502" x1="19.4652" y1="34.471" x2="0.644302" y2="25.0701" gradientUnits="userSpaceOnUse">
      <stop stop-color="#1925FF"/>
      <stop offset="1" stop-color="#06C9FF"/>
    </linearGradient>
    <linearGradient id="paint1_linear_369_502" x1="33" y1="-24.4999" x2="30.8093" y2="-2.06817" gradientUnits="userSpaceOnUse">
      <stop stop-color="#1925FF"/>
      <stop offset="1" stop-color="#06C9FF"/>
    </linearGradient>
    <clipPath id="clip0_369_502">
      <rect width="32" height="32" fill="white"/>
    </clipPath>
  </defs>
</svg>