<svg xmlns="http://www.w3.org/2000/svg" width="34" height="33" viewBox="0 0 34 33" fill="none">
  <path d="M9.8125 1.50012V31.5001" stroke="white" stroke-width="3" stroke-linecap="round"/>
  <path d="M32 9.31262L2 9.31262" stroke="white" stroke-width="3" stroke-linecap="round"/>
  <path d="M17 1.50012V31.5001" stroke="white" stroke-width="3" stroke-linecap="round"/>
  <path d="M32 16.5001L2 16.5001" stroke="white" stroke-width="3" stroke-linecap="round"/>
  <path d="M24.1875 1.50012V31.5001" stroke="white" stroke-width="3" stroke-linecap="round"/>
  <path d="M32 23.6876L2 23.6876" stroke="white" stroke-width="3" stroke-linecap="round"/>
  <rect x="4.5" y="4.00012" width="25" height="25" rx="5" fill="url(#paint0_linear_369_299)"/>
  <path d="M9.50044 12.8153C9.50945 11.4749 10.5786 10.4644 11.8947 10.2104C12.3902 10.1148 12.896 10.0014 13.3286 9.87279C14.0423 9.66064 14.9551 9.28862 15.692 8.96846C16.525 8.60651 17.475 8.60651 18.308 8.96846C19.0449 9.28862 19.9577 9.66064 20.6714 9.87279C21.104 10.0014 21.6098 10.1148 22.1053 10.2104C23.4214 10.4644 24.4906 11.4749 24.4996 12.8153C24.5219 16.1469 23.7073 22.2179 17.8056 24.3659C17.286 24.555 16.714 24.555 16.1944 24.3659C10.2927 22.2179 9.47805 16.1469 9.50044 12.8153Z" fill="#06C9FF"/>
  <path fill-rule="evenodd" clip-rule="evenodd" d="M12.535 19.1265L14.4388 11.3405C14.9708 11.1624 15.6057 10.8924 16.1104 10.6657C16.2818 10.5886 16.461 10.535 16.6432 10.5047L14.0464 21.1249C13.404 20.5327 12.9113 19.8487 12.535 19.1265ZM15.7634 22.2824C15.4492 22.1321 15.1569 21.9652 14.8852 21.7842L17.6277 10.5678C17.7166 10.5946 17.8041 10.6272 17.8897 10.6657C18.0892 10.7553 18.3092 10.8518 18.5351 10.9466L15.7634 22.2824Z" fill="white"/>
  <path d="M11.3786 13.4328C11.3981 12.5387 12.1072 11.8626 12.9862 11.6975C13.4147 11.6171 13.8679 11.5176 14.2464 11.4022C14.8116 11.2299 15.5433 10.9205 16.1103 10.6657C16.6754 10.4118 17.3246 10.4118 17.8897 10.6657C18.4567 10.9205 19.1884 11.2299 19.7536 11.4022C20.1321 11.5176 20.5853 11.6171 21.0137 11.6975C21.8928 11.8626 22.6019 12.5387 22.6214 13.4328C22.676 15.9447 22.1642 20.8849 17.5513 22.5702C17.1965 22.6999 16.8035 22.6999 16.4487 22.5702C11.8358 20.8849 11.324 15.9447 11.3786 13.4328Z" stroke="url(#paint1_linear_369_299)" stroke-width="2"/>
  <defs>
    <linearGradient id="paint0_linear_369_299" x1="17" y1="29.1704" x2="17" y2="1.47406" gradientUnits="userSpaceOnUse">
      <stop stop-color="#1925FF"/>
      <stop offset="1" stop-color="#1925FF"/>
    </linearGradient>
    <linearGradient id="paint1_linear_369_299" x1="17" y1="22.8352" x2="17" y2="8.98709" gradientUnits="userSpaceOnUse">
      <stop stop-color="#1925FF"/>
      <stop offset="1" stop-color="#1925FF"/>
    </linearGradient>
  </defs>
</svg>