<svg width="83" height="38" viewBox="0 0 83 38" fill="none" xmlns="http://www.w3.org/2000/svg">
<g clip-path="url(#clip0_373_701)">
<rect width="83" height="38" rx="19" fill="#151535"/>
<g filter="url(#filter0_f_373_701)">
<circle cx="70" cy="32" r="52" fill="#1A1A44"/>
</g>
<g filter="url(#filter1_f_373_701)">
<circle cx="55.5" cy="-1.5" r="27.5" fill="#222257"/>
</g>
<g filter="url(#filter2_f_373_701)">
<circle cx="76" cy="16" r="21" fill="#2A2A72"/>
</g>
<g filter="url(#filter3_bdd_373_701)">
<circle cx="64" cy="19" r="14" fill="url(#paint0_linear_373_701)"/>
</g>
<path d="M40.1661 7.67853C40.0481 7.68919 39.9301 7.69452 39.8148 7.71051C39.6432 7.73716 39.5118 7.82777 39.4313 7.98233C39.3777 8.08627 39.3294 8.19287 39.2892 8.3048C39.1819 8.59528 39.1176 8.89909 39.0371 9.1949C39.0264 9.23488 39.0237 9.28018 39.0157 9.32016C39.013 9.33615 39.0103 9.3548 39.0022 9.36813C38.9835 9.4081 38.9486 9.42942 38.9084 9.42409C38.8682 9.41876 38.836 9.38678 38.8333 9.34148C38.8306 9.31749 38.8306 9.29084 38.836 9.26419C38.8521 9.16292 38.8467 9.06432 38.836 8.96571C38.8145 8.77117 38.785 8.57663 38.7234 8.39008C38.6456 8.16888 38.5276 7.97434 38.3426 7.82244C38.2487 7.74515 38.1522 7.67053 38.0556 7.59325C37.9081 7.47599 37.7392 7.3987 37.5649 7.32941C37.5381 7.31875 37.5059 7.31609 37.4737 7.30543C37.4523 7.3001 37.4281 7.29477 37.4067 7.28411C37.3611 7.26279 37.3423 7.21748 37.353 7.17218C37.3638 7.12954 37.404 7.10289 37.4523 7.10822C37.4871 7.11088 37.5247 7.11888 37.5595 7.12954C37.758 7.19083 37.9618 7.17751 38.1656 7.15885C38.2407 7.15352 38.3157 7.14553 38.3882 7.12954C38.5571 7.08956 38.6885 6.99629 38.7663 6.83906C38.8279 6.71647 38.8708 6.58855 38.9003 6.45263C38.9486 6.2421 39.0157 6.03423 39.0425 5.81837C39.0559 5.7091 39.072 5.59984 39.0854 5.48791C39.0907 5.45859 39.0934 5.42928 39.1015 5.39997C39.1176 5.37065 39.1417 5.34667 39.1766 5.344C39.2114 5.34134 39.2436 5.35999 39.2543 5.3973C39.2677 5.43727 39.2785 5.47991 39.2811 5.52255C39.2945 5.71976 39.308 5.91697 39.3214 6.11685C39.3348 6.29806 39.3428 6.47928 39.3616 6.65784C39.3777 6.80441 39.4286 6.94299 39.5118 7.06824C39.5868 7.18284 39.6914 7.25479 39.8148 7.30543C39.8952 7.33741 39.973 7.37205 40.0535 7.3987C40.0964 7.41469 40.1446 7.42002 40.1902 7.43068C40.2787 7.452 40.3699 7.47066 40.4584 7.49464C40.4986 7.5053 40.5254 7.53462 40.5281 7.57726C40.5335 7.61723 40.5093 7.65721 40.4664 7.6732C40.4369 7.68386 40.4047 7.69185 40.3726 7.69185C40.3028 7.69452 40.2304 7.69185 40.1607 7.69185C40.1661 7.68652 40.1661 7.68119 40.1661 7.67853Z" fill="#F1F1F1"/>
<path d="M43.6684 20.3064C43.6024 20.3123 43.5363 20.3153 43.4718 20.3242C43.3758 20.3392 43.3023 20.3899 43.2573 20.4763C43.2272 20.5345 43.2002 20.5941 43.1777 20.6568C43.1177 20.8193 43.0817 20.9893 43.0367 21.1548C43.0307 21.1772 43.0292 21.2025 43.0247 21.2249C43.0232 21.2338 43.0217 21.2443 43.0172 21.2517C43.0067 21.2741 42.9872 21.286 42.9647 21.283C42.9422 21.28 42.9242 21.2622 42.9227 21.2368C42.9212 21.2234 42.9212 21.2085 42.9242 21.1936C42.9332 21.1369 42.9302 21.0817 42.9242 21.0266C42.9122 20.9177 42.8957 20.8089 42.8611 20.7045C42.8176 20.5807 42.7516 20.4719 42.6481 20.3869C42.5956 20.3436 42.5415 20.3019 42.4875 20.2586C42.405 20.193 42.3105 20.1498 42.213 20.111C42.1979 20.1051 42.1799 20.1036 42.1619 20.0976C42.1499 20.0946 42.1364 20.0916 42.1244 20.0857C42.0989 20.0737 42.0884 20.0484 42.0944 20.023C42.1004 19.9992 42.1229 19.9843 42.1499 19.9873C42.1694 19.9887 42.1904 19.9932 42.21 19.9992C42.321 20.0335 42.435 20.026 42.5491 20.0156C42.5911 20.0126 42.6331 20.0081 42.6736 19.9992C42.7681 19.9768 42.8416 19.9246 42.8851 19.8367C42.9197 19.7681 42.9437 19.6965 42.9602 19.6204C42.9872 19.5026 43.0247 19.3863 43.0397 19.2656C43.0472 19.2044 43.0562 19.1433 43.0637 19.0807C43.0667 19.0643 43.0682 19.0479 43.0727 19.0315C43.0817 19.0151 43.0952 19.0016 43.1147 19.0001C43.1342 18.9986 43.1522 19.0091 43.1582 19.03C43.1657 19.0523 43.1717 19.0762 43.1732 19.1C43.1807 19.2104 43.1882 19.3207 43.1957 19.4326C43.2032 19.534 43.2077 19.6354 43.2182 19.7353C43.2272 19.8173 43.2558 19.8948 43.3023 19.9649C43.3443 20.029 43.4028 20.0693 43.4718 20.0976C43.5168 20.1155 43.5603 20.1349 43.6054 20.1498C43.6294 20.1587 43.6564 20.1617 43.6819 20.1677C43.7314 20.1796 43.7824 20.19 43.8319 20.2035C43.8544 20.2094 43.8694 20.2258 43.8709 20.2497C43.8739 20.2721 43.8604 20.2944 43.8364 20.3034C43.8199 20.3093 43.8019 20.3138 43.7839 20.3138C43.7449 20.3153 43.7044 20.3138 43.6654 20.3138C43.6684 20.3108 43.6684 20.3078 43.6684 20.3064Z" fill="#F1F1F1"/>
<path d="M13.3239 10.0203C13.2376 10.0281 13.1513 10.032 13.067 10.0437C12.9414 10.0632 12.8453 10.1294 12.7865 10.2425C12.7472 10.3185 12.7119 10.3965 12.6825 10.4784C12.604 10.6908 12.557 10.9131 12.4981 11.1294C12.4903 11.1587 12.4883 11.1918 12.4824 11.221C12.4805 11.2327 12.4785 11.2464 12.4726 11.2561C12.4589 11.2854 12.4334 11.301 12.404 11.2971C12.3746 11.2932 12.351 11.2698 12.3491 11.2366C12.3471 11.2191 12.3471 11.1996 12.351 11.1801C12.3628 11.106 12.3589 11.0339 12.351 10.9618C12.3353 10.8195 12.3137 10.6772 12.2686 10.5407C12.2118 10.3789 12.1254 10.2366 11.9901 10.1255C11.9215 10.069 11.8508 10.0144 11.7802 9.9579C11.6723 9.87213 11.5488 9.8156 11.4213 9.76492C11.4017 9.75712 11.3781 9.75517 11.3546 9.74737C11.3389 9.74347 11.3212 9.73958 11.3055 9.73178C11.2722 9.71618 11.2585 9.68305 11.2663 9.64991C11.2742 9.61872 11.3036 9.59923 11.3389 9.60312C11.3644 9.60507 11.3918 9.61092 11.4173 9.61872C11.5625 9.66355 11.7116 9.65381 11.8606 9.64016C11.9156 9.63626 11.9705 9.63041 12.0234 9.61872C12.147 9.58948 12.2431 9.52125 12.3 9.40624C12.3451 9.31658 12.3765 9.22301 12.3981 9.1236C12.4334 8.9696 12.4824 8.81755 12.5021 8.65966C12.5119 8.57974 12.5236 8.49982 12.5334 8.41795C12.5374 8.3965 12.5393 8.37506 12.5452 8.35362C12.557 8.33218 12.5746 8.31463 12.6001 8.31268C12.6256 8.31073 12.6492 8.32438 12.657 8.35167C12.6668 8.38091 12.6747 8.4121 12.6766 8.44329C12.6864 8.58754 12.6962 8.73178 12.706 8.87798C12.7159 9.01054 12.7217 9.14309 12.7355 9.27369C12.7472 9.3809 12.7845 9.48227 12.8453 9.57388C12.9002 9.65771 12.9767 9.71034 13.067 9.74737C13.1258 9.77077 13.1827 9.79611 13.2415 9.8156C13.2729 9.82729 13.3082 9.83119 13.3416 9.83899C13.4063 9.85459 13.473 9.86823 13.5377 9.88577C13.5671 9.89357 13.5868 9.91501 13.5887 9.9462C13.5926 9.97544 13.575 10.0047 13.5436 10.0164C13.522 10.0242 13.4985 10.03 13.475 10.03C13.424 10.032 13.371 10.03 13.32 10.03C13.3239 10.0261 13.3239 10.0222 13.3239 10.0203Z" fill="#F1F1F1"/>
<path d="M8.94742 15.8722C8.89544 15.8769 8.84347 15.8792 8.79268 15.8863C8.71708 15.898 8.6592 15.9379 8.62376 16.006C8.60014 16.0518 8.57888 16.0987 8.56116 16.148C8.51391 16.276 8.48556 16.4098 8.45013 16.5401C8.4454 16.5577 8.44422 16.5777 8.44068 16.5953C8.4395 16.6023 8.43831 16.6105 8.43477 16.6164C8.4265 16.634 8.41115 16.6434 8.39343 16.6411C8.37571 16.6387 8.36154 16.6246 8.36035 16.6047C8.35917 16.5941 8.35917 16.5824 8.36154 16.5706C8.36862 16.526 8.36626 16.4826 8.36154 16.4392C8.35209 16.3535 8.33909 16.2678 8.31193 16.1856C8.27767 16.0882 8.2257 16.0025 8.14419 15.9356C8.10285 15.9015 8.06033 15.8687 8.0178 15.8346C7.95284 15.783 7.87842 15.7489 7.80164 15.7184C7.78983 15.7137 7.77566 15.7125 7.76148 15.7078C7.75203 15.7055 7.7414 15.7031 7.73195 15.6984C7.71187 15.689 7.7036 15.6691 7.70833 15.6491C7.71305 15.6304 7.73077 15.6186 7.75203 15.621C7.76739 15.6221 7.78392 15.6257 7.79928 15.6304C7.88669 15.6574 7.97646 15.6515 8.06623 15.6433C8.09931 15.6409 8.13238 15.6374 8.16427 15.6304C8.23869 15.6127 8.29657 15.5717 8.33082 15.5024C8.35799 15.4484 8.37689 15.3921 8.38989 15.3322C8.41115 15.2395 8.44068 15.1479 8.45249 15.0528C8.4584 15.0047 8.46548 14.9566 8.47139 14.9072C8.47375 14.8943 8.47493 14.8814 8.47848 14.8685C8.48556 14.8556 8.49619 14.845 8.51155 14.8439C8.52691 14.8427 8.54108 14.8509 8.5458 14.8673C8.55171 14.8849 8.55644 14.9037 8.55762 14.9225C8.56352 15.0094 8.56943 15.0962 8.57533 15.1843C8.58124 15.2641 8.58478 15.3439 8.59305 15.4226C8.60014 15.4871 8.62258 15.5482 8.6592 15.6034C8.69227 15.6538 8.73834 15.6855 8.79268 15.7078C8.82811 15.7219 8.86237 15.7372 8.89781 15.7489C8.9167 15.756 8.93797 15.7583 8.95805 15.763C8.99703 15.7724 9.03719 15.7806 9.07617 15.7912C9.09389 15.7959 9.1057 15.8088 9.10688 15.8276C9.10924 15.8452 9.09861 15.8628 9.07971 15.8698C9.06672 15.8745 9.05254 15.878 9.03837 15.878C9.00766 15.8792 8.97576 15.878 8.94505 15.878C8.94742 15.8757 8.94742 15.8733 8.94742 15.8722Z" fill="#F1F1F1"/>
<path d="M23.7687 6.37217C23.7167 6.37687 23.6648 6.37922 23.614 6.38626C23.5384 6.398 23.4805 6.43791 23.4451 6.50599C23.4214 6.55177 23.4002 6.59873 23.3824 6.64803C23.3352 6.77598 23.3069 6.90981 23.2714 7.0401C23.2667 7.05771 23.2655 7.07767 23.262 7.09528C23.2608 7.10232 23.2596 7.11054 23.2561 7.11641C23.2478 7.13401 23.2324 7.14341 23.2147 7.14106C23.197 7.13871 23.1828 7.12462 23.1816 7.10467C23.1805 7.0941 23.1805 7.08236 23.1828 7.07063C23.1899 7.02602 23.1875 6.98258 23.1828 6.93915C23.1734 6.85346 23.1604 6.76777 23.1332 6.6856C23.099 6.58816 23.047 6.50247 22.9655 6.43556C22.9241 6.40152 22.8816 6.36865 22.8391 6.33461C22.7741 6.28296 22.6997 6.24892 22.6229 6.21839C22.6111 6.2137 22.5969 6.21253 22.5828 6.20783C22.5733 6.20548 22.5627 6.20313 22.5532 6.19844C22.5332 6.18905 22.5249 6.16909 22.5296 6.14914C22.5343 6.13035 22.5521 6.11862 22.5733 6.12096C22.5887 6.12214 22.6052 6.12566 22.6206 6.13035C22.708 6.15735 22.7978 6.15148 22.8875 6.14327C22.9206 6.14092 22.9537 6.1374 22.9856 6.13035C23.06 6.11275 23.1179 6.07166 23.1521 6.0024C23.1793 5.9484 23.1982 5.89206 23.2112 5.83219C23.2324 5.73946 23.262 5.64789 23.2738 5.55281C23.2797 5.50468 23.2868 5.45655 23.2927 5.40725C23.295 5.39434 23.2962 5.38142 23.2998 5.36851C23.3069 5.3556 23.3175 5.34503 23.3328 5.34386C23.3482 5.34269 23.3624 5.3509 23.3671 5.36734C23.373 5.38495 23.3777 5.40373 23.3789 5.42251C23.3848 5.50938 23.3907 5.59624 23.3966 5.68428C23.4025 5.76411 23.4061 5.84393 23.4143 5.92258C23.4214 5.98714 23.4439 6.04818 23.4805 6.10336C23.5136 6.15383 23.5596 6.18553 23.614 6.20783C23.6494 6.22192 23.6837 6.23718 23.7191 6.24892C23.738 6.25596 23.7593 6.25831 23.7793 6.263C23.8183 6.27239 23.8585 6.28061 23.8975 6.29117C23.9152 6.29587 23.927 6.30878 23.9282 6.32756C23.9305 6.34517 23.9199 6.36278 23.901 6.36982C23.888 6.37452 23.8738 6.37804 23.8597 6.37804C23.8289 6.37922 23.7971 6.37804 23.7663 6.37804C23.7687 6.37569 23.7687 6.37335 23.7687 6.37217Z" fill="#F1F1F1"/>
<path d="M11.7218 30.8338C11.6778 30.8378 11.6338 30.8398 11.5907 30.8457C11.5267 30.8557 11.4777 30.8895 11.4477 30.9471C11.4277 30.9859 11.4097 31.0256 11.3947 31.0674C11.3547 31.1758 11.3307 31.2891 11.3007 31.3994C11.2967 31.4143 11.2957 31.4312 11.2927 31.4461C11.2917 31.4521 11.2907 31.4591 11.2877 31.464C11.2807 31.4789 11.2677 31.4869 11.2527 31.4849C11.2376 31.4829 11.2256 31.471 11.2246 31.4541C11.2236 31.4451 11.2236 31.4352 11.2256 31.4253C11.2316 31.3875 11.2296 31.3507 11.2256 31.3139C11.2176 31.2414 11.2066 31.1688 11.1836 31.0992C11.1546 31.0167 11.1106 30.9441 11.0416 30.8875C11.0066 30.8586 10.9706 30.8308 10.9346 30.802C10.8795 30.7582 10.8165 30.7294 10.7515 30.7036C10.7415 30.6996 10.7295 30.6986 10.7175 30.6946C10.7095 30.6926 10.7005 30.6906 10.6925 30.6867C10.6755 30.6787 10.6685 30.6618 10.6725 30.6449C10.6765 30.629 10.6915 30.6191 10.7095 30.6211C10.7225 30.6221 10.7365 30.625 10.7495 30.629C10.8235 30.6519 10.8995 30.6469 10.9756 30.6399C11.0036 30.638 11.0316 30.635 11.0586 30.629C11.1216 30.6141 11.1706 30.5793 11.1996 30.5207C11.2226 30.4749 11.2386 30.4272 11.2497 30.3765C11.2677 30.298 11.2927 30.2204 11.3027 30.1399C11.3077 30.0992 11.3137 30.0584 11.3187 30.0167C11.3207 30.0057 11.3217 29.9948 11.3247 29.9839C11.3307 29.9729 11.3397 29.964 11.3527 29.963C11.3657 29.962 11.3777 29.9689 11.3817 29.9829C11.3867 29.9978 11.3907 30.0137 11.3917 30.0296C11.3967 30.1031 11.4017 30.1767 11.4067 30.2513C11.4117 30.3189 11.4147 30.3865 11.4217 30.4531C11.4277 30.5077 11.4467 30.5594 11.4777 30.6061C11.5057 30.6489 11.5447 30.6757 11.5907 30.6946C11.6208 30.7066 11.6498 30.7195 11.6798 30.7294C11.6958 30.7354 11.7138 30.7374 11.7308 30.7413C11.7638 30.7493 11.7978 30.7563 11.8308 30.7652C11.8458 30.7692 11.8558 30.7801 11.8568 30.796C11.8588 30.8109 11.8498 30.8258 11.8338 30.8318C11.8228 30.8358 11.8108 30.8388 11.7988 30.8388C11.7728 30.8398 11.7458 30.8388 11.7198 30.8388C11.7218 30.8368 11.7218 30.8348 11.7218 30.8338Z" fill="#F1F1F1"/>
<path d="M19.4288 24.6209C19.3848 24.6249 19.3408 24.6269 19.2978 24.6328C19.2338 24.6428 19.1847 24.6766 19.1547 24.7342C19.1347 24.773 19.1167 24.8128 19.1017 24.8545C19.0617 24.9629 19.0377 25.0762 19.0077 25.1865C19.0037 25.2014 19.0027 25.2183 18.9997 25.2333C18.9987 25.2392 18.9977 25.2462 18.9947 25.2511C18.9877 25.2661 18.9747 25.274 18.9597 25.272C18.9447 25.27 18.9327 25.2581 18.9317 25.2412C18.9307 25.2323 18.9307 25.2223 18.9327 25.2124C18.9387 25.1746 18.9367 25.1378 18.9327 25.101C18.9247 25.0285 18.9137 24.9559 18.8907 24.8863C18.8617 24.8038 18.8176 24.7312 18.7486 24.6746C18.7136 24.6458 18.6776 24.6179 18.6416 24.5891C18.5866 24.5454 18.5236 24.5165 18.4585 24.4907C18.4485 24.4867 18.4365 24.4857 18.4245 24.4817C18.4165 24.4797 18.4075 24.4778 18.3995 24.4738C18.3825 24.4658 18.3755 24.4489 18.3795 24.432C18.3835 24.4161 18.3985 24.4062 18.4165 24.4082C18.4295 24.4092 18.4435 24.4121 18.4565 24.4161C18.5306 24.439 18.6066 24.434 18.6826 24.4271C18.7106 24.4251 18.7386 24.4221 18.7656 24.4161C18.8286 24.4012 18.8777 24.3664 18.9067 24.3078C18.9297 24.262 18.9457 24.2143 18.9567 24.1636C18.9747 24.0851 18.9997 24.0076 19.0097 23.927C19.0147 23.8863 19.0207 23.8455 19.0257 23.8038C19.0277 23.7928 19.0287 23.7819 19.0317 23.771C19.0377 23.76 19.0467 23.7511 19.0597 23.7501C19.0727 23.7491 19.0847 23.7561 19.0887 23.77C19.0937 23.7849 19.0977 23.8008 19.0987 23.8167C19.1037 23.8903 19.1087 23.9638 19.1137 24.0384C19.1187 24.106 19.1217 24.1736 19.1287 24.2402C19.1347 24.2948 19.1537 24.3465 19.1847 24.3933C19.2128 24.436 19.2518 24.4628 19.2978 24.4817C19.3278 24.4937 19.3568 24.5066 19.3868 24.5165C19.4028 24.5225 19.4208 24.5245 19.4378 24.5285C19.4708 24.5364 19.5048 24.5434 19.5378 24.5523C19.5529 24.5563 19.5629 24.5672 19.5639 24.5831C19.5659 24.598 19.5569 24.6129 19.5408 24.6189C19.5298 24.6229 19.5178 24.6259 19.5058 24.6259C19.4798 24.6269 19.4528 24.6259 19.4268 24.6259C19.4288 24.6239 19.4288 24.6219 19.4288 24.6209Z" fill="#F1F1F1"/>
<path d="M31.879 33.0815C31.835 33.0862 31.791 33.0885 31.748 33.0955C31.684 33.1071 31.6349 33.1467 31.6049 33.2141C31.5849 33.2595 31.5669 33.306 31.5519 33.3549C31.5119 33.4817 31.4879 33.6143 31.4579 33.7434C31.4539 33.7608 31.4529 33.7806 31.4499 33.798C31.4489 33.805 31.4479 33.8132 31.4449 33.819C31.4379 33.8364 31.4249 33.8457 31.4099 33.8434C31.3949 33.8411 31.3829 33.8271 31.3819 33.8073C31.3809 33.7969 31.3809 33.7852 31.3829 33.7736C31.3889 33.7294 31.3869 33.6864 31.3829 33.6433C31.3749 33.5584 31.3639 33.4735 31.3409 33.3921C31.3118 33.2956 31.2678 33.2106 31.1988 33.1443C31.1638 33.1106 31.1278 33.078 31.0918 33.0443C31.0368 32.9931 30.9738 32.9594 30.9087 32.9292C30.8987 32.9245 30.8867 32.9233 30.8747 32.9187C30.8667 32.9164 30.8577 32.914 30.8497 32.9094C30.8327 32.9001 30.8257 32.8803 30.8297 32.8605C30.8337 32.8419 30.8487 32.8303 30.8667 32.8326C30.8797 32.8338 30.8937 32.8373 30.9067 32.8419C30.9808 32.8687 31.0568 32.8629 31.1328 32.8547C31.1608 32.8524 31.1888 32.8489 31.2158 32.8419C31.2788 32.8245 31.3279 32.7838 31.3569 32.7151C31.3799 32.6616 31.3959 32.6058 31.4069 32.5465C31.4249 32.4546 31.4499 32.3639 31.4599 32.2697C31.4649 32.222 31.4709 32.1743 31.4759 32.1254C31.4779 32.1126 31.4789 32.0998 31.4819 32.087C31.4879 32.0742 31.4969 32.0638 31.5099 32.0626C31.5229 32.0614 31.5349 32.0696 31.5389 32.0859C31.5439 32.1033 31.5479 32.1219 31.5489 32.1405C31.5539 32.2266 31.5589 32.3127 31.5639 32.3999C31.5689 32.479 31.5719 32.5581 31.5789 32.636C31.5849 32.7 31.6039 32.7605 31.6349 32.8152C31.663 32.8652 31.702 32.8966 31.748 32.9187C31.778 32.9326 31.807 32.9478 31.837 32.9594C31.853 32.9664 31.871 32.9687 31.888 32.9734C31.921 32.9827 31.955 32.9908 31.988 33.0013C32.003 33.0059 32.0131 33.0187 32.0141 33.0373C32.0161 33.0548 32.007 33.0722 31.991 33.0792C31.98 33.0839 31.968 33.0873 31.956 33.0873C31.93 33.0885 31.903 33.0873 31.877 33.0873C31.879 33.085 31.879 33.0827 31.879 33.0815Z" fill="#F1F1F1"/>
<path d="M28.2538 17.3376C28.1878 17.3436 28.1218 17.3465 28.0573 17.3555C27.9612 17.3704 27.8877 17.4211 27.8427 17.5076C27.8127 17.5657 27.7857 17.6254 27.7632 17.688C27.7032 17.8505 27.6672 18.0205 27.6221 18.186C27.6161 18.2084 27.6146 18.2338 27.6101 18.2561C27.6086 18.2651 27.6071 18.2755 27.6026 18.283C27.5921 18.3053 27.5726 18.3173 27.5501 18.3143C27.5276 18.3113 27.5096 18.2934 27.5081 18.2681C27.5066 18.2546 27.5066 18.2397 27.5096 18.2248C27.5186 18.1682 27.5156 18.113 27.5096 18.0578C27.4976 17.949 27.4811 17.8401 27.4466 17.7357C27.4031 17.612 27.3371 17.5031 27.2335 17.4181C27.181 17.3749 27.127 17.3331 27.073 17.2899C26.9905 17.2243 26.8959 17.181 26.7984 17.1423C26.7834 17.1363 26.7654 17.1348 26.7474 17.1288C26.7354 17.1259 26.7219 17.1229 26.7099 17.1169C26.6844 17.105 26.6739 17.0796 26.6799 17.0543C26.6859 17.0304 26.7084 17.0155 26.7354 17.0185C26.7549 17.02 26.7759 17.0245 26.7954 17.0304C26.9064 17.0647 27.0205 17.0573 27.1345 17.0468C27.1765 17.0439 27.2185 17.0394 27.259 17.0304C27.3536 17.0081 27.4271 16.9559 27.4706 16.8679C27.5051 16.7993 27.5291 16.7277 27.5456 16.6517C27.5726 16.5339 27.6101 16.4176 27.6251 16.2968C27.6326 16.2357 27.6416 16.1745 27.6491 16.1119C27.6521 16.0955 27.6536 16.0791 27.6582 16.0627C27.6672 16.0463 27.6807 16.0329 27.7002 16.0314C27.7197 16.0299 27.7377 16.0403 27.7437 16.0612C27.7512 16.0836 27.7572 16.1074 27.7587 16.1313C27.7662 16.2416 27.7737 16.352 27.7812 16.4638C27.7887 16.5652 27.7932 16.6666 27.8037 16.7665C27.8127 16.8485 27.8412 16.9261 27.8877 16.9961C27.9297 17.0603 27.9882 17.1005 28.0573 17.1288C28.1023 17.1467 28.1458 17.1661 28.1908 17.181C28.2148 17.19 28.2418 17.193 28.2673 17.1989C28.3168 17.2109 28.3679 17.2213 28.4174 17.2347C28.4399 17.2407 28.4549 17.2571 28.4564 17.2809C28.4594 17.3033 28.4459 17.3257 28.4219 17.3346C28.4054 17.3406 28.3874 17.3451 28.3694 17.3451C28.3303 17.3465 28.2898 17.3451 28.2508 17.3451C28.2538 17.3421 28.2538 17.3391 28.2538 17.3376Z" fill="#F1F1F1"/>
</g>
<defs>
<filter id="filter0_f_373_701" x="-6" y="-44" width="152" height="152" filterUnits="userSpaceOnUse" color-interpolation-filters="sRGB">
<feFlood flood-opacity="0" result="BackgroundImageFix"/>
<feBlend mode="normal" in="SourceGraphic" in2="BackgroundImageFix" result="shape"/>
<feGaussianBlur stdDeviation="12" result="effect1_foregroundBlur_373_701"/>
</filter>
<filter id="filter1_f_373_701" x="4" y="-53" width="103" height="103" filterUnits="userSpaceOnUse" color-interpolation-filters="sRGB">
<feFlood flood-opacity="0" result="BackgroundImageFix"/>
<feBlend mode="normal" in="SourceGraphic" in2="BackgroundImageFix" result="shape"/>
<feGaussianBlur stdDeviation="12" result="effect1_foregroundBlur_373_701"/>
</filter>
<filter id="filter2_f_373_701" x="31" y="-29" width="90" height="90" filterUnits="userSpaceOnUse" color-interpolation-filters="sRGB">
<feFlood flood-opacity="0" result="BackgroundImageFix"/>
<feBlend mode="normal" in="SourceGraphic" in2="BackgroundImageFix" result="shape"/>
<feGaussianBlur stdDeviation="12" result="effect1_foregroundBlur_373_701"/>
</filter>
<filter id="filter3_bdd_373_701" x="38" y="-7" width="52" height="52" filterUnits="userSpaceOnUse" color-interpolation-filters="sRGB">
<feFlood flood-opacity="0" result="BackgroundImageFix"/>
<feGaussianBlur in="BackgroundImageFix" stdDeviation="6"/>
<feComposite in2="SourceAlpha" operator="in" result="effect1_backgroundBlur_373_701"/>
<feColorMatrix in="SourceAlpha" type="matrix" values="0 0 0 0 0 0 0 0 0 0 0 0 0 0 0 0 0 0 127 0" result="hardAlpha"/>
<feOffset dx="-1" dy="1"/>
<feGaussianBlur stdDeviation="1.5"/>
<feComposite in2="hardAlpha" operator="out"/>
<feColorMatrix type="matrix" values="0 0 0 0 0.196078 0 0 0 0 0.196078 0 0 0 0 0.592157 0 0 0 1 0"/>
<feBlend mode="normal" in2="effect1_backgroundBlur_373_701" result="effect2_dropShadow_373_701"/>
<feColorMatrix in="SourceAlpha" type="matrix" values="0 0 0 0 0 0 0 0 0 0 0 0 0 0 0 0 0 0 127 0" result="hardAlpha"/>
<feOffset dx="1" dy="-1"/>
<feGaussianBlur stdDeviation="1"/>
<feComposite in2="hardAlpha" operator="out"/>
<feColorMatrix type="matrix" values="0 0 0 0 0.137255 0 0 0 0 0.137255 0 0 0 0 0.341176 0 0 0 1 0"/>
<feBlend mode="normal" in2="effect2_dropShadow_373_701" result="effect3_dropShadow_373_701"/>
<feBlend mode="normal" in="SourceGraphic" in2="effect3_dropShadow_373_701" result="shape"/>
</filter>
<linearGradient id="paint0_linear_373_701" x1="54.0385" y1="7.96154" x2="75.0385" y2="31.1154" gradientUnits="userSpaceOnUse">
<stop stop-color="#E9F0FF"/>
<stop offset="1" stop-color="#E0E9FE"/>
</linearGradient>
<clipPath id="clip0_373_701">
<rect width="83" height="38" rx="19" fill="white"/>
</clipPath>
</defs>
</svg>
