<svg xmlns="http://www.w3.org/2000/svg" width="28" height="28" viewBox="0 0 28 28" fill="none">
  <path d="M3.52328 13.0171C3.21994 12.7137 3.21994 12.2237 3.52328 11.9204L9.3955 6.04818C10.0877 5.35595 11.1533 5.16929 12.04 5.58927L16.6755 7.76709C16.9633 7.90708 17.3211 7.84485 17.5544 7.61153L23.3722 1.79376C23.6755 1.49042 24.1733 1.49042 24.4766 1.79376C24.78 2.09706 24.78 2.58706 24.4766 2.89041L18.6511 8.71596C17.9588 9.40819 16.8933 9.59485 16.0066 9.17487L11.3788 6.9971C11.0833 6.85706 10.7255 6.91929 10.4922 7.14483L4.62772 13.0171C4.47215 13.1726 4.27771 13.2426 4.07552 13.2426C3.87329 13.2426 3.67885 13.1726 3.52328 13.0171Z" fill="white"/>
  <path d="M13.0278 15.2337V24.8782C13.0278 25.7415 12.3278 26.4338 11.4722 26.4338H9.91664C9.0611 26.4338 8.36108 25.7415 8.36108 24.8782V15.2337C8.36108 14.3782 9.0611 13.6782 9.91664 13.6782H11.4722C12.3278 13.6782 13.0278 14.3782 13.0278 15.2337Z" fill="white"/>
  <path d="M26.25 9.77373V24.8782C26.25 25.7415 25.5501 26.4338 24.6945 26.4338H23.1389C22.2834 26.4338 21.5834 25.7415 21.5834 24.8782V9.77373C21.5834 8.91819 22.2834 8.21817 23.1389 8.21817H24.6945C25.5501 8.21817 26.25 8.91819 26.25 9.77373Z" fill="white"/>
  <path d="M6.41667 22.1871V24.8782C6.41667 25.7415 5.71669 26.4338 4.86111 26.4338H3.30556C2.45002 26.4338 1.75 25.7415 1.75 24.8782V22.1871C1.75 21.3315 2.45002 20.6315 3.30556 20.6315H4.86111C5.71669 20.6315 6.41667 21.3315 6.41667 22.1871Z" fill="white"/>
  <path d="M19.6388 17.9404V24.8782C19.6388 25.7415 18.9389 26.4338 18.0833 26.4338H16.5277C15.6722 26.4338 14.9722 25.7415 14.9722 24.8782V17.9404C14.9722 17.0848 15.6722 16.3848 16.5277 16.3848H18.0833C18.9389 16.3848 19.6388 17.0848 19.6388 17.9404Z" fill="white"/>
</svg>