<svg width="40" height="40" viewBox="0 0 40 40" fill="none" xmlns="http://www.w3.org/2000/svg">
<g clip-path="url(#clip0_29_84)">
<path d="M37.1322 30.7029C37.1903 30.6022 37.2447 30.4998 37.2959 30.3962H28.0799L24.1266 26.4429H21.1719V33.8467C21.1719 36.8336 23.6019 39.2636 26.5887 39.2636C29.3686 39.2636 31.6841 37.1822 31.9749 34.4222L32.0741 33.4811L33.015 33.3798C34.7319 33.1951 36.2711 32.1944 37.1322 30.7029Z" fill="#FF5E69"/>
<path d="M21.1719 13.5571H24.1267L28.08 9.60383H37.2959C37.2447 9.50023 37.1903 9.39781 37.1322 9.29711C36.2711 7.80555 34.7319 6.80484 33.015 6.62008L32.0741 6.51883L31.9749 5.57773C31.6841 2.81766 29.3685 0.736328 26.5887 0.736328C23.6019 0.736484 21.1719 3.16641 21.1719 6.15336V13.5571Z" fill="#FF5E69"/>
<path d="M37.7723 15.6226L37.0095 15.0657L37.3917 14.2019C37.7092 13.4844 37.8619 12.7143 37.8538 11.9476H29.0508L25.0975 15.9009H21.1719V18.8281H29.6433C30.1387 17.3005 31.5748 16.1926 33.2654 16.1926C35.3648 16.1926 37.0727 17.9006 37.0727 20C37.0727 22.0994 35.3648 23.8073 33.2654 23.8073C31.5748 23.8073 30.1387 22.6994 29.6433 21.1719H21.1719V24.0991H25.0976L29.0509 28.0524H37.8538C37.8619 27.2858 37.7092 26.5157 37.3917 25.7981L37.0095 24.9344L37.7723 24.3775C39.1672 23.359 40 21.7226 40 20C40 18.2774 39.1672 16.641 37.7723 15.6226Z" fill="#FF5E69"/>
<path d="M34.729 20C34.729 19.1929 34.0725 18.5364 33.2654 18.5364C32.4583 18.5364 31.8018 19.1929 31.8018 20C31.8018 20.807 32.4583 21.4636 33.2654 21.4636C34.0725 21.4636 34.729 20.807 34.729 20Z" fill="#FF5E69"/>
<path d="M18.8281 29.1665H16.3745C15.879 30.694 14.443 31.8019 12.7524 31.8019C10.653 31.8019 8.94508 30.094 8.94508 27.9946C8.94508 25.8952 10.653 24.1872 12.7524 24.1872C14.443 24.1872 15.879 25.2951 16.3745 26.8227H18.8281V21.1721H10.3567C9.86125 22.6997 8.42523 23.8076 6.73461 23.8076C4.63523 23.8076 2.92727 22.0996 2.92727 20.0002C2.92727 17.9008 4.63523 16.1929 6.73461 16.1929C8.42523 16.1929 9.86125 17.3008 10.3567 18.8283H18.8281V13.1777H16.3745C15.879 14.7053 14.443 15.8132 12.7524 15.8132C10.653 15.8132 8.94508 14.1052 8.94508 12.0058C8.94508 9.90646 10.653 8.19849 12.7524 8.19849C14.443 8.19849 15.879 9.30638 16.3745 10.834H18.8281V6.15357C18.8281 3.16669 16.3981 0.736694 13.4113 0.736694C10.6314 0.736694 8.31586 2.81802 8.02508 5.5781L7.92586 6.51919L6.985 6.62044C5.26812 6.80513 3.72898 7.80591 2.86781 9.29747C2.00656 10.7894 1.90953 12.6229 2.60836 14.2022L2.99055 15.066L2.22773 15.6229C0.832812 16.6412 0 18.2776 0 20.0002C0 21.7228 0.832812 23.3592 2.22766 24.3776L2.99047 24.9345L2.60828 25.7983C1.90945 27.3776 2.00648 29.2112 2.86773 30.703C3.72883 32.1946 5.26805 33.1953 6.98492 33.3801L7.92578 33.4813L8.025 34.4224C8.31586 37.1825 10.6314 39.2638 13.4112 39.2638C16.398 39.2638 18.828 36.8338 18.828 33.8469V29.1665H18.8281Z" fill="#FF5E69"/>
<path d="M12.7524 13.4692C13.5607 13.4692 14.216 12.8139 14.216 12.0056C14.216 11.1973 13.5607 10.542 12.7524 10.542C11.9441 10.542 11.2888 11.1973 11.2888 12.0056C11.2888 12.8139 11.9441 13.4692 12.7524 13.4692Z" fill="#FF5E69"/>
<path d="M5.271 20C5.271 20.807 5.92756 21.4636 6.73459 21.4636C7.5417 21.4636 8.19826 20.807 8.19826 20C8.19826 19.1929 7.5417 18.5364 6.73459 18.5364C5.92756 18.5364 5.271 19.1929 5.271 20Z" fill="#FF5E69"/>
<path d="M12.7524 29.458C13.5607 29.458 14.216 28.8027 14.216 27.9944C14.216 27.186 13.5607 26.5308 12.7524 26.5308C11.9441 26.5308 11.2888 27.186 11.2888 27.9944C11.2888 28.8027 11.9441 29.458 12.7524 29.458Z" fill="#FF5E69"/>
</g>
<defs>
<clipPath id="clip0_29_84">
<rect width="40" height="40" fill="white"/>
</clipPath>
</defs>
</svg>
