<svg width="68" height="68" viewBox="0 0 68 68" fill="none" xmlns="http://www.w3.org/2000/svg">
<rect width="68" height="68" rx="16" fill="url(#paint0_linear_43_1846)"/>
<path d="M38.6317 45.126V49.1717L42.7708 51.1946V53.2175H26.2144L26.2061 51.2027L30.3534 49.1717V45.126H15.85C15.5782 45.1243 15.3094 45.0703 15.0591 44.9672C14.8087 44.8638 14.5816 44.7131 14.3909 44.524C14.2002 44.3346 14.0496 44.1105 13.9476 43.8643C13.8457 43.6181 13.7945 43.3545 13.797 43.0889V16.8198C13.797 15.695 14.7386 14.7827 15.85 14.7827H53.1352C54.2693 14.7827 55.1882 15.691 55.1882 16.8198V43.0889C55.1882 44.2136 54.2465 45.126 53.1352 45.126H38.6317ZM17.9361 37.0344V41.0802H51.049V37.0344H17.9361Z" fill="white"/>
<defs>
<linearGradient id="paint0_linear_43_1846" x1="34" y1="0" x2="34" y2="68" gradientUnits="userSpaceOnUse">
<stop stop-color="#6EC1F3"/>
<stop offset="1" stop-color="#F915A6"/>
</linearGradient>
</defs>
</svg>
