<svg width="52" height="25" viewBox="0 0 52 25" fill="none" xmlns="http://www.w3.org/2000/svg">
<g clip-path="url(#clip0_37_864)">
<path d="M43.4227 1.50983C41.4303 0.88835 39.307 0.816739 37.2773 1.30257C35.2476 1.78839 33.3868 2.81361 31.8917 4.26983L25.8377 9.63983L22.5857 12.5068H22.6077L16.8527 17.6198C15.9914 18.4772 14.9298 19.1059 13.764 19.4491C12.5982 19.7922 11.3651 19.8389 10.1767 19.5848C8.8505 19.3069 7.6301 18.659 6.65675 17.7163C5.68341 16.7736 4.99692 15.5745 4.67673 14.2578C4.29733 12.7096 4.43819 11.0795 5.07756 9.61923C5.71694 8.159 6.81926 6.94987 8.2143 6.17857C9.60935 5.40726 11.2195 5.11667 12.7962 5.35168C14.3728 5.58668 15.8283 6.33421 16.9377 7.47883L17.9437 8.35583C18.1544 8.54263 18.3999 8.68611 18.666 8.77806C18.9322 8.87001 19.2138 8.90864 19.4949 8.89174C19.776 8.87484 20.051 8.80274 20.3042 8.67956C20.5574 8.55638 20.7839 8.38453 20.9707 8.17383C21.1575 7.96312 21.301 7.71768 21.393 7.45153C21.4849 7.18538 21.5235 6.90372 21.5066 6.62263C21.4897 6.34155 21.4176 6.06655 21.2945 5.81333C21.1713 5.56011 20.9994 5.33363 20.7887 5.14683L19.8887 4.37683C18.2846 2.76954 16.2408 1.67271 14.0147 1.22442C11.7886 0.776121 9.47957 0.996392 7.37835 1.8575C5.27714 2.71861 3.47761 4.18208 2.20631 6.06367C0.935004 7.94527 0.248735 10.1609 0.233889 12.4317C0.219042 14.7024 0.876283 16.9269 2.12288 18.8249C3.36947 20.723 5.1497 22.2098 7.23948 23.0984C9.32926 23.9869 11.6352 24.2373 13.867 23.8182C16.0988 23.399 18.1567 22.329 19.7817 20.7428L25.8357 15.3938L25.8577 15.4158L29.0887 12.5068H29.0677L34.8177 7.39383C35.679 6.53515 36.7412 5.90527 37.9078 5.5614C39.0744 5.21754 40.3084 5.17059 41.4977 5.42483C42.824 5.70279 44.0444 6.35062 45.0177 7.29335C45.991 8.23608 46.6775 9.43516 46.9977 10.7518C47.3774 12.2999 47.2368 13.93 46.5978 15.3902C45.9588 16.8505 44.8569 18.0598 43.4621 18.8314C42.0673 19.6031 40.4573 19.8941 38.8807 19.6595C37.3041 19.425 35.8485 18.678 34.7387 17.5338L33.7117 16.6338C33.2862 16.2566 32.7282 16.0638 32.1605 16.0979C31.5929 16.132 31.062 16.3903 30.6847 16.8158C30.3075 17.2414 30.1147 17.7993 30.1488 18.367C30.1829 18.9347 30.4412 19.4656 30.8667 19.8428L31.7667 20.6338C33.4974 22.3504 35.7262 23.4763 38.1349 23.8509C40.5435 24.2255 43.009 23.8295 45.1792 22.7195C47.3495 21.6096 49.1136 19.8424 50.2197 17.6702C51.3259 15.498 51.7175 13.0318 51.3387 10.6238C51.008 8.51471 50.0901 6.54132 48.6902 4.92951C47.2902 3.3177 45.4648 2.13259 43.4227 1.50983Z" fill="#41BFAD"/>
</g>
<defs>
<clipPath id="clip0_37_864">
<rect width="51.247" height="23.0315" fill="white" transform="translate(0.233643 0.984375)"/>
</clipPath>
</defs>
</svg>
