<svg xmlns="http://www.w3.org/2000/svg" width="19" height="18" viewBox="0 0 19 18" fill="none">
  <path d="M9.71491 0.436382L10.5179 2.66638C11.4099 5.14138 13.3589 7.09038 15.8339 7.98238L18.0639 8.78538C18.2649 8.85838 18.2649 9.14338 18.0639 9.21538L15.8339 10.0184C13.3589 10.9104 11.4099 12.8594 10.5179 15.3344L9.71491 17.5644C9.64191 17.7654 9.35691 17.7654 9.28491 17.5644L8.48191 15.3344C7.58991 12.8594 5.64091 10.9104 3.16591 10.0184L0.935906 9.21538C0.734906 9.14238 0.734906 8.85738 0.935906 8.78538L3.16591 7.98238C5.64091 7.09038 7.58991 5.14138 8.48191 2.66638L9.28491 0.436382C9.35691 0.234382 9.64191 0.234382 9.71491 0.436382Z" fill="url(#paint0_linear_1777_6348)"/>
  <defs>
    <linearGradient id="paint0_linear_1777_6348" x1="0.840889" y1="-0.134434" x2="18.6645" y2="0.278366" gradientUnits="userSpaceOnUse">
      <stop stop-color="#C54736"/>
      <stop offset="0.218796" stop-color="#E9BFBA"/>
      <stop offset="0.495" stop-color="#02C0FC"/>
      <stop offset="0.7475" stop-color="#35A5AC"/>
      <stop offset="1" stop-color="#659DF4"/>
    </linearGradient>
  </defs>
</svg>