<svg width="20" height="20" viewBox="0 0 20 20" fill="none" xmlns="http://www.w3.org/2000/svg">
<path d="M17.4998 15.8333H2.49984C2.27882 15.8333 2.06686 15.9211 1.91058 16.0774C1.7543 16.2337 1.6665 16.4457 1.6665 16.6667C1.6665 16.8877 1.7543 17.0997 1.91058 17.2559C2.06686 17.4122 2.27882 17.5 2.49984 17.5H17.4998C17.7209 17.5 17.9328 17.4122 18.0891 17.2559C18.2454 17.0997 18.3332 16.8877 18.3332 16.6667C18.3332 16.4457 18.2454 16.2337 18.0891 16.0774C17.9328 15.9211 17.7209 15.8333 17.4998 15.8333Z" fill="#0B0703"/>
<path d="M9.99999 1.66666C9.77898 1.66666 9.56702 1.75445 9.41074 1.91073C9.25446 2.06701 9.16666 2.27898 9.16666 2.49999V11.325L6.42499 8.57499C6.26807 8.41807 6.05524 8.32991 5.83333 8.32991C5.61141 8.32991 5.39858 8.41807 5.24166 8.57499C5.08474 8.73191 4.99658 8.94474 4.99658 9.16666C4.99658 9.38858 5.08474 9.6014 5.24166 9.75832L9.40833 13.925C9.48579 14.0031 9.57796 14.0651 9.67951 14.1074C9.78106 14.1497 9.88998 14.1715 9.99999 14.1715C10.11 14.1715 10.2189 14.1497 10.3205 14.1074C10.422 14.0651 10.5142 14.0031 10.5917 13.925L14.7583 9.75832C14.836 9.68063 14.8977 9.58838 14.9397 9.48687C14.9818 9.38535 15.0034 9.27654 15.0034 9.16666C15.0034 9.05677 14.9818 8.94797 14.9397 8.84645C14.8977 8.74493 14.836 8.65269 14.7583 8.57499C14.6806 8.49729 14.5884 8.43566 14.4869 8.39361C14.3853 8.35156 14.2765 8.32991 14.1667 8.32991C14.0568 8.32991 13.948 8.35156 13.8465 8.39361C13.7449 8.43566 13.6527 8.49729 13.575 8.57499L10.8333 11.325V2.49999C10.8333 2.27898 10.7455 2.06701 10.5892 1.91073C10.433 1.75445 10.221 1.66666 9.99999 1.66666Z" fill="#0B0703"/>
</svg>