<svg xmlns="http://www.w3.org/2000/svg" width="21" height="20" viewBox="0 0 21 20" fill="none">
  <g clip-path="url(#clip0_1777_6355)">
    <path d="M19.5739 17.0833H2.47393C2.22197 17.0833 1.98033 17.1887 1.80217 17.3762C1.62401 17.5637 1.52393 17.8181 1.52393 18.0833C1.52393 18.3485 1.62401 18.6029 1.80217 18.7904C1.98033 18.978 2.22197 19.0833 2.47393 19.0833H19.5739C19.8259 19.0833 20.0675 18.978 20.2457 18.7904C20.4238 18.6029 20.5239 18.3485 20.5239 18.0833C20.5239 17.8181 20.4238 17.5637 20.2457 17.3762C20.0675 17.1887 19.8259 17.0833 19.5739 17.0833Z" fill="#1925FF"/>
    <path d="M11.0239 0.083313C10.7368 0.083313 10.4614 0.181608 10.2584 0.356574C10.0554 0.531541 9.94133 0.768846 9.94133 1.01629V10.8965L6.37959 7.81766C6.17574 7.64197 5.89925 7.54328 5.61095 7.54328C5.32265 7.54328 5.04616 7.64197 4.84231 7.81766C4.63845 7.99334 4.52393 8.23162 4.52393 8.48007C4.52393 8.72852 4.63845 8.9668 4.84231 9.14248L10.2553 13.8073C10.3559 13.8948 10.4757 13.9642 10.6076 14.0116C10.7395 14.0589 10.881 14.0833 11.0239 14.0833C11.1668 14.0833 11.3083 14.0589 11.4403 14.0116C11.5722 13.9642 11.6919 13.8948 11.7926 13.8073L17.2055 9.14248C17.3065 9.05549 17.3866 8.95222 17.4412 8.83856C17.4958 8.72491 17.5239 8.60309 17.5239 8.48007C17.5239 8.35705 17.4958 8.23523 17.4412 8.12157C17.3866 8.00792 17.3065 7.90465 17.2055 7.81766C17.1046 7.73067 16.9848 7.66166 16.8529 7.61459C16.721 7.56751 16.5796 7.54328 16.4369 7.54328C16.2942 7.54328 16.1528 7.56751 16.0209 7.61459C15.889 7.66166 15.7692 7.73067 15.6683 7.81766L12.1065 10.8965V1.01629C12.1065 0.768846 11.9925 0.531541 11.7894 0.356574C11.5864 0.181608 11.311 0.083313 11.0239 0.083313Z" fill="#1925FF"/>
  </g>
  <defs>
    <clipPath id="clip0_1777_6355">
      <rect width="20" height="20" fill="white" transform="translate(0.857178)"/>
    </clipPath>
  </defs>
</svg>