<svg width="115" height="40" viewBox="0 0 115 40" fill="none" xmlns="http://www.w3.org/2000/svg">
<mask id="mask0_8_22813" style="mask-type:alpha" maskUnits="userSpaceOnUse" x="8" y="8" width="99" height="24">
<path fill-rule="evenodd" clip-rule="evenodd" d="M105.991 26.9479C101.896 33.9088 95.41 31.889 93.4621 30.3075C92.6331 30.8714 91.1795 32.1074 89.2412 31.9647C85.1132 31.6609 83.6349 25.7468 83.6349 25.7468C83.6646 25.7705 82.4053 26.1825 81.7247 26.1751C81.7159 27.9095 80.2205 32.0525 76.1847 31.9995C71.656 31.9403 70.7353 25.1761 70.7353 25.1761C70.7353 25.1761 70.2846 25.8034 68.571 26.4284C68.6573 25.0959 68.5943 31.7967 63.1663 31.8952C58.8752 31.9731 57.7169 25.0717 57.7169 25.0717C57.7169 25.0717 56.9725 25.847 55.5298 26.1159C55.6215 24.7617 55.4724 31.9179 50.0439 31.8952C46.3753 31.8799 45.1217 27.6439 45.2192 27.056C45.3436 26.3067 43.9794 32.0005 40.4159 31.9118C38.9454 31.8685 37.8491 30.8011 37.1611 29.378C36.2402 30.4345 34.9031 31.9118 33.4032 31.9118C30.7108 31.9118 29.5238 29.6542 29.7249 23.2059C29.742 22.4411 29.687 22.1403 28.9286 22.0259C28.4734 21.9497 28.0073 21.8056 27.5141 21.7296C27.356 22.2585 26.0152 31.7398 21.4047 31.9197C19.8579 31.9801 19.0122 30.6368 18.3176 29.6398C17.2529 31.0519 15.8474 31.9647 13.8452 31.9647C10.4536 31.9647 8.14282 29.2159 8.14282 25.8252C8.14282 22.4343 10.4536 19.6858 13.8452 19.6858C14.4449 19.6858 14.6132 19.7719 15.1611 19.9322C14.0344 9.64832 16.6951 8.04109 19.0226 8.04109C21.2572 8.04109 25.0746 13.2406 19.7031 26.4294C20.8957 30.3633 23.4667 30.1408 24.7021 22.0427C24.9536 20.3966 24.2812 18.1753 25.327 17.8652C27.2386 17.2987 27.4415 18.9986 28.3378 19.2818C29.2855 19.5812 29.8387 19.552 30.7486 19.7425C32.3033 20.0468 32.91 20.8842 32.7206 22.7491C32.4931 25.1087 32.0952 28.5432 33.3084 28.9618C34.1834 29.2658 35.7808 27.4468 36.0611 26.4515C36.3413 25.4562 36.3998 25.1156 36.4247 24.3856C36.4626 22.8253 36.5102 21.6816 36.7756 20.5017C36.8892 20.0451 37.0187 19.7427 37.5339 19.722C37.9579 19.7112 38.7333 19.5832 39.0746 19.8495C39.5295 20.1922 39.4727 20.54 39.4204 21.4551C38.8914 34.5034 42.9635 27.9896 44.1777 22.774C43.7453 16.8764 44.0422 8.14909 47.7285 8.00272C49.6457 7.92659 50.4933 9.46639 50.5865 10.6157C50.8502 13.8618 49.3731 19.2389 47.4305 22.8549C46.3203 30.2333 52.2847 31.6922 53.2386 25.8028C51.678 25.0589 49.9915 22.0481 51.3639 20.5809C52.134 19.7574 55.3395 20.9404 55.392 23.5204C56.9644 23.0989 57.1743 22.2088 57.1961 22.3563C56.7639 16.4587 57.1647 8.14916 60.8514 8.00279C62.7683 7.92667 63.6157 9.46646 63.709 10.6158C63.9726 13.8618 62.4956 19.2389 60.5532 22.8551C59.4429 30.2333 65.4075 31.6923 66.361 25.8029C65.2056 25.5794 62.7667 22.377 64.1739 20.5809C64.926 19.6212 68.1197 21.6171 68.4773 23.6059C69.9878 23.1773 70.1929 22.3156 70.2146 22.4606C69.7822 16.5632 70.1831 8.25368 73.8698 8.10731C75.7867 8.03119 76.6341 9.57098 76.7274 10.7203C76.9911 13.9664 75.514 19.3436 73.5714 22.9596C72.4613 30.338 78.4257 31.7967 79.3795 25.9073C77.7918 25.6422 75.5354 22.2609 77.3515 20.5311C78.077 19.84 80.8495 21.6341 81.4985 23.6809C82.4003 23.6461 82.9616 23.3343 83.0819 23.3029C81.6423 16.3794 82.714 8.07224 86.6798 8.00289C88.8233 7.96545 90.9188 9.16465 89.999 15.7514C89.121 22.036 85.965 24.6733 85.9724 24.7137C86.156 25.4666 87.7754 31.7674 91.8535 28.4429C91.6424 27.9636 91.4311 27.4741 91.313 26.881C90.637 23.4261 91.9647 19.5237 95.5733 18.893C97.6408 18.5317 99.5884 19.5409 99.8964 21.8159C100.403 25.5387 97.05 28.2347 95.7749 28.8196C95.2038 28.4943 100.952 32.1901 104.363 24.7837C104.561 24.3609 104.799 24.3967 105.108 24.6146C105.326 24.7686 106.569 25.9489 105.991 26.9479ZM16.3123 24.9104C16.1387 24.3902 15.7826 23.2439 15.6566 22.7472C14.9629 22.1425 14.4678 22.0442 13.5774 22.0442C11.5986 22.0442 10.4339 23.8784 10.4339 25.8562C10.4339 27.8338 11.7028 29.6683 13.6815 29.6683C15.3964 29.6683 16.7015 28.4994 17.0997 26.8446C16.821 26.1995 16.5445 25.6067 16.3123 24.9104ZM18.9741 10.7633C17.5837 10.7633 17.1121 14.0885 17.2036 16.9253C17.2846 19.4333 17.9836 21.6413 18.3462 22.6306C18.4383 22.7546 18.4212 22.6739 18.5034 22.8054C20.9176 17.5024 19.9162 10.7633 18.9741 10.7633ZM47.9271 10.8678C46.1301 10.6611 46.1417 18.1661 46.3648 19.8495C47.2981 18.3527 48.9193 11.2708 47.9271 10.8678ZM61.0495 10.8678C59.2525 10.6611 59.2641 18.1661 59.4873 19.8495C60.4205 18.3527 62.0419 11.2708 61.0495 10.8678ZM74.0681 10.9722C72.2709 10.7656 72.2825 18.2705 72.5057 19.9541C73.4389 18.4571 75.0603 11.3752 74.0681 10.9722ZM86.8781 10.4284C84.0783 10.9921 84.7302 20.351 85.1555 21.9924C88.4534 17.4511 88.5214 10.2578 86.8781 10.4284ZM97.3712 22.1239C97.2288 21.5271 96.517 21.2082 96.0257 21.2868C94.62 21.4793 93.2565 23.2346 93.7843 25.907C93.9017 26.5022 94.1957 27.0501 94.191 27.0318C97.3371 24.9157 97.6046 23.2482 97.3712 22.1239ZM38.085 17.6563C37.6832 17.6564 37.2905 17.537 36.9564 17.3133C36.6223 17.0895 36.3618 16.7715 36.208 16.3994C36.0541 16.0272 36.0139 15.6177 36.0923 15.2226C36.1706 14.8275 36.3641 14.4646 36.6482 14.1798C36.9323 13.8949 37.2942 13.7009 37.6883 13.6223C38.0823 13.5437 38.4908 13.584 38.8621 13.7382C39.2333 13.8923 39.5505 14.1534 39.7737 14.4883C39.997 14.8233 40.1161 15.2171 40.1161 15.6199C40.1161 15.8873 40.0636 16.1521 39.9615 16.3992C39.8595 16.6462 39.7099 16.8707 39.5213 17.0598C39.3326 17.2489 39.1088 17.3989 38.8623 17.5013C38.6159 17.6037 38.3518 17.6563 38.085 17.6563Z" fill="#0D0C22"/>
</mask>
<g mask="url(#mask0_8_22813)">
<rect x="8.14282" y="8" width="98" height="24" fill="#5A6475"/>
</g>
</svg>
