<svg width="68" height="68" viewBox="0 0 68 68" fill="none" xmlns="http://www.w3.org/2000/svg">
<g clip-path="url(#clip0_43_1871)">
<path d="M68 34C68 37.0225 67.6059 39.9521 66.8649 42.7415C66.6262 43.6421 66.3514 44.5288 66.0419 45.399C63.501 52.5418 58.6383 58.5855 52.3615 62.6196C51.0001 63.4953 49.5721 64.2766 48.0872 64.9538C47.4224 65.2564 46.7465 65.5394 46.0596 65.7989C44.3902 66.4331 42.6583 66.9383 40.8764 67.3046H40.875C39.1529 67.6584 37.3821 67.8819 35.5752 67.9637C35.0533 67.9875 34.5274 68 34 68C33.5004 68 33.0022 67.9888 32.5081 67.9667C28.9166 67.8126 25.4695 67.1007 22.2513 65.9155C21.4284 65.613 20.6221 65.2799 19.831 64.9164C18.3309 64.2267 16.889 63.4328 15.5165 62.5405C14.6019 61.9479 13.7194 61.3124 12.8686 60.6365C8.16133 56.8993 4.46848 51.9394 2.26897 46.2357C1.96642 45.4559 1.69442 44.6621 1.45018 43.8544C0.506547 40.7361 0 37.4264 0 34C0 29.6869 0.803516 25.5596 2.26897 21.7628C2.27587 21.7434 2.28424 21.7239 2.29115 21.7045C3.63734 18.2378 5.53297 15.0474 7.87419 12.24C7.93807 12.1636 8.00182 12.0874 8.06703 12.011C14.3036 4.66291 23.6072 0 34 0C52.7777 0 68 15.2223 68 34Z" fill="#374266"/>
<path d="M31.9009 11.1003V21.1821C31.9009 22.1679 31.1018 22.9669 30.1162 22.9669C29.1305 22.9669 28.3315 22.1677 28.3315 21.1821V11.1855C28.3315 8.40968 26.1353 6.08493 23.3602 6.03247C20.5205 5.97881 18.1935 8.27288 18.1935 11.1006V21.1824C18.1935 22.1681 17.3944 22.9671 16.4088 22.9671C15.423 22.9671 14.624 22.168 14.624 21.1824V11.1003C14.624 6.32997 18.4913 2.46167 23.2627 2.46167C28.0341 2.46167 31.9009 6.32997 31.9009 11.1003Z" fill="#C5C6E0"/>
<path d="M46.0597 12.24V65.799C44.3903 66.4332 42.6584 66.9384 40.8764 67.3047H40.8751C39.1529 67.6585 37.3821 67.8821 35.5752 67.9639C35.0534 67.9875 34.5275 68 34.0001 68C33.5004 68 33.0023 67.9888 32.5082 67.9667C27.9993 67.7738 23.7181 66.7011 19.8311 64.9164C18.331 64.2267 16.889 63.4328 15.5166 62.5405C14.602 61.9479 13.7195 61.3124 12.8687 60.6365C8.1614 56.8993 4.46855 51.9394 2.26904 46.2357V12.24H46.0597Z" fill="#FF526C"/>
<path d="M9.92409 58.0073C6.61414 54.6889 3.98644 50.6891 2.26904 46.2359V12.24H9.92396L9.92409 58.0073Z" fill="#E83150"/>
<path d="M37.8448 11.1003V21.1821C37.8448 22.1679 37.0457 22.9669 36.06 22.9669C35.0743 22.9669 34.2753 22.1677 34.2753 21.1821V11.1855C34.2753 8.40968 32.0791 6.08493 29.304 6.03247C26.4643 5.97881 24.1373 8.27288 24.1373 11.1006V21.1824C24.1373 22.1681 23.3382 22.9671 22.3526 22.9671C21.3669 22.9671 20.5679 22.168 20.5679 21.1824V11.1003C20.5679 6.32997 24.4351 2.46167 29.2065 2.46167C33.9779 2.46167 37.8448 6.32997 37.8448 11.1003Z" fill="#F2F2F7"/>
<path d="M51.9249 23.6338V33.7155C51.9249 34.7013 51.1257 35.5003 50.1401 35.5003C49.1544 35.5003 48.3554 34.7011 48.3554 33.7155V23.7189C48.3554 20.9431 46.1592 18.6184 43.3841 18.5659C40.5444 18.5122 38.2174 20.8063 38.2174 23.634V33.7158C38.2174 34.7015 37.4183 35.5006 36.4327 35.5006C35.4469 35.5006 34.6479 34.7014 34.6479 33.7158V23.634C34.6479 18.8637 38.5152 14.9954 43.2866 14.9954C48.058 14.9954 51.9249 18.8634 51.9249 23.6338Z" fill="#C5C6E0"/>
<path d="M66.0421 27.2263V45.3989C63.5012 52.5417 58.6385 58.5853 52.3617 62.6195C51.0003 63.4952 49.5723 64.2765 48.0873 64.9537C47.4226 65.2562 46.7467 65.5393 46.0598 65.7988C44.3904 66.433 42.6585 66.9382 40.8766 67.3045H40.8752C39.1531 67.6583 37.3823 67.8818 35.5753 67.9636C35.0535 67.9874 34.5276 67.9999 34.0002 67.9999C33.5006 67.9999 33.0024 67.9887 32.5083 67.9666C28.9168 67.8125 25.4696 67.1006 22.2515 65.9154V27.2263H66.0421Z" fill="#FFE261"/>
<path d="M29.8584 67.7495C28.6266 67.7966 23.5921 66.5196 22.2515 65.9155V27.2263H29.9064L29.8584 67.7495Z" fill="#F58D2C"/>
<path d="M57.5962 23.6338V33.7155C57.5962 34.7013 56.7971 35.5003 55.8115 35.5003C54.8258 35.5003 54.0268 34.7011 54.0268 33.7155V23.7189C54.0268 20.9431 51.8306 18.6184 49.0555 18.5659C46.2158 18.5122 43.8888 20.8063 43.8888 23.634V33.7158C43.8888 34.7015 43.0897 35.5006 42.1041 35.5006C41.1183 35.5006 40.3193 34.7014 40.3193 33.7158V23.634C40.3193 18.8637 44.1864 14.9954 48.958 14.9954C53.7295 14.9954 57.5962 18.8634 57.5962 23.6338Z" fill="#F2F2F7"/>
</g>
<defs>
<clipPath id="clip0_43_1871">
<rect width="68" height="68" fill="white"/>
</clipPath>
</defs>
</svg>
