<svg width="733" height="72" viewBox="0 0 733 72" fill="none" xmlns="http://www.w3.org/2000/svg">
<rect width="733" height="72" fill="white"/>
<path d="M13.2 35.52C13.2 33.2133 13.5867 31.4133 14.36 30.12C15.1467 28.8133 16.4933 28.16 18.4 28.16C20.3067 28.16 21.6467 28.8133 22.42 30.12C23.2067 31.4133 23.6 33.2133 23.6 35.52C23.6 37.8533 23.2067 39.68 22.42 41C21.6467 42.3067 20.3067 42.96 18.4 42.96C16.4933 42.96 15.1467 42.3067 14.36 41C13.5867 39.68 13.2 37.8533 13.2 35.52ZM21.36 35.52C21.36 34.44 21.2867 33.5267 21.14 32.78C21.0067 32.0333 20.7267 31.4267 20.3 30.96C19.8733 30.48 19.24 30.24 18.4 30.24C17.56 30.24 16.9267 30.48 16.5 30.96C16.0733 31.4267 15.7867 32.0333 15.64 32.78C15.5067 33.5267 15.44 34.44 15.44 35.52C15.44 36.64 15.5067 37.58 15.64 38.34C15.7733 39.1 16.0533 39.7133 16.48 40.18C16.92 40.6467 17.56 40.88 18.4 40.88C19.24 40.88 19.8733 40.6467 20.3 40.18C20.74 39.7133 21.0267 39.1 21.16 38.34C21.2933 37.58 21.36 36.64 21.36 35.52ZM25.7125 30.5V28.42H29.8725V43H27.5725V30.5H25.7125Z" fill="black"/>
<path d="M59.6 29.1V43H57.32V36.92H50.78V43H48.5V29.1H50.78V35.06H57.32V29.1H59.6ZM67.3816 43.18C66.3416 43.18 65.4016 42.9467 64.5616 42.48C63.7216 42 63.0616 41.3333 62.5816 40.48C62.1016 39.6133 61.8616 38.6133 61.8616 37.48C61.8616 36.36 62.1082 35.3667 62.6016 34.5C63.0949 33.6333 63.7682 32.9667 64.6216 32.5C65.4749 32.0333 66.4282 31.8 67.4816 31.8C68.5349 31.8 69.4882 32.0333 70.3416 32.5C71.1949 32.9667 71.8682 33.6333 72.3616 34.5C72.8549 35.3667 73.1016 36.36 73.1016 37.48C73.1016 38.6 72.8482 39.5933 72.3416 40.46C71.8349 41.3267 71.1416 42 70.2616 42.48C69.3949 42.9467 68.4349 43.18 67.3816 43.18ZM67.3816 41.2C67.9682 41.2 68.5149 41.06 69.0216 40.78C69.5416 40.5 69.9616 40.08 70.2816 39.52C70.6016 38.96 70.7616 38.28 70.7616 37.48C70.7616 36.68 70.6082 36.0067 70.3016 35.46C69.9949 34.9 69.5882 34.48 69.0816 34.2C68.5749 33.92 68.0282 33.78 67.4416 33.78C66.8549 33.78 66.3082 33.92 65.8016 34.2C65.3082 34.48 64.9149 34.9 64.6216 35.46C64.3282 36.0067 64.1816 36.68 64.1816 37.48C64.1816 38.6667 64.4816 39.5867 65.0816 40.24C65.6949 40.88 66.4616 41.2 67.3816 41.2ZM90.1555 31.98L86.7355 43H84.3355L82.1155 34.86L79.8955 43H77.4955L74.0555 31.98H76.3755L78.6755 40.84L81.0155 31.98H83.3955L85.6355 40.8L87.9155 31.98H90.1555ZM96.2947 37.48C96.2947 36.3467 96.5214 35.3533 96.9747 34.5C97.4414 33.6333 98.0814 32.9667 98.8947 32.5C99.708 32.0333 100.641 31.8 101.695 31.8C103.028 31.8 104.128 32.12 104.995 32.76C105.875 33.3867 106.468 34.2867 106.775 35.46H104.315C104.115 34.9133 103.795 34.4867 103.355 34.18C102.915 33.8733 102.361 33.72 101.695 33.72C100.761 33.72 100.015 34.0533 99.4547 34.72C98.908 35.3733 98.6347 36.2933 98.6347 37.48C98.6347 38.6667 98.908 39.5933 99.4547 40.26C100.015 40.9267 100.761 41.26 101.695 41.26C103.015 41.26 103.888 40.68 104.315 39.52H106.775C106.455 40.64 105.855 41.5333 104.975 42.2C104.095 42.8533 103.001 43.18 101.695 43.18C100.641 43.18 99.708 42.9467 98.8947 42.48C98.0814 42 97.4414 41.3333 96.9747 40.48C96.5214 39.6133 96.2947 38.6133 96.2947 37.48ZM108.287 37.44C108.287 36.3333 108.514 35.3533 108.967 34.5C109.434 33.6467 110.06 32.9867 110.847 32.52C111.647 32.04 112.527 31.8 113.487 31.8C114.354 31.8 115.107 31.9733 115.747 32.32C116.4 32.6533 116.92 33.0733 117.307 33.58V31.98H119.607V43H117.307V41.36C116.92 41.88 116.394 42.3133 115.727 42.66C115.06 43.0067 114.3 43.18 113.447 43.18C112.5 43.18 111.634 42.94 110.847 42.46C110.06 41.9667 109.434 41.2867 108.967 40.42C108.514 39.54 108.287 38.5467 108.287 37.44ZM117.307 37.48C117.307 36.72 117.147 36.06 116.827 35.5C116.52 34.94 116.114 34.5133 115.607 34.22C115.1 33.9267 114.554 33.78 113.967 33.78C113.38 33.78 112.834 33.9267 112.327 34.22C111.82 34.5 111.407 34.92 111.087 35.48C110.78 36.0267 110.627 36.68 110.627 37.44C110.627 38.2 110.78 38.8667 111.087 39.44C111.407 40.0133 111.82 40.4533 112.327 40.76C112.847 41.0533 113.394 41.2 113.967 41.2C114.554 41.2 115.1 41.0533 115.607 40.76C116.114 40.4667 116.52 40.04 116.827 39.48C117.147 38.9067 117.307 38.24 117.307 37.48ZM128.162 31.8C129.028 31.8 129.802 31.98 130.482 32.34C131.175 32.7 131.715 33.2333 132.102 33.94C132.488 34.6467 132.682 35.5 132.682 36.5V43H130.422V36.84C130.422 35.8533 130.175 35.1 129.682 34.58C129.188 34.0467 128.515 33.78 127.662 33.78C126.808 33.78 126.128 34.0467 125.622 34.58C125.128 35.1 124.882 35.8533 124.882 36.84V43H122.602V31.98H124.882V33.24C125.255 32.7867 125.728 32.4333 126.302 32.18C126.888 31.9267 127.508 31.8 128.162 31.8ZM143.065 29.1V43H140.785V29.1H143.065ZM153.534 33.62C153.921 33.0867 154.447 32.6533 155.114 32.32C155.794 31.9733 156.547 31.8 157.374 31.8C158.347 31.8 159.227 32.0333 160.014 32.5C160.801 32.9667 161.421 33.6333 161.874 34.5C162.327 35.3533 162.554 36.3333 162.554 37.44C162.554 38.5467 162.327 39.54 161.874 40.42C161.421 41.2867 160.794 41.9667 159.994 42.46C159.207 42.94 158.334 43.18 157.374 43.18C156.521 43.18 155.761 43.0133 155.094 42.68C154.441 42.3467 153.921 41.92 153.534 41.4V43H151.254V28.2H153.534V33.62ZM160.234 37.44C160.234 36.68 160.074 36.0267 159.754 35.48C159.447 34.92 159.034 34.5 158.514 34.22C158.007 33.9267 157.461 33.78 156.874 33.78C156.301 33.78 155.754 33.9267 155.234 34.22C154.727 34.5133 154.314 34.94 153.994 35.5C153.687 36.06 153.534 36.72 153.534 37.48C153.534 38.24 153.687 38.9067 153.994 39.48C154.314 40.04 154.727 40.4667 155.234 40.76C155.754 41.0533 156.301 41.2 156.874 41.2C157.461 41.2 158.007 41.0533 158.514 40.76C159.034 40.4533 159.447 40.0133 159.754 39.44C160.074 38.8667 160.234 38.2 160.234 37.44ZM174.909 37.22C174.909 37.6333 174.882 38.0067 174.829 38.34H166.409C166.475 39.22 166.802 39.9267 167.389 40.46C167.975 40.9933 168.695 41.26 169.549 41.26C170.775 41.26 171.642 40.7467 172.149 39.72H174.609C174.275 40.7333 173.669 41.5667 172.789 42.22C171.922 42.86 170.842 43.18 169.549 43.18C168.495 43.18 167.549 42.9467 166.709 42.48C165.882 42 165.229 41.3333 164.749 40.48C164.282 39.6133 164.049 38.6133 164.049 37.48C164.049 36.3467 164.275 35.3533 164.729 34.5C165.195 33.6333 165.842 32.9667 166.669 32.5C167.509 32.0333 168.469 31.8 169.549 31.8C170.589 31.8 171.515 32.0267 172.329 32.48C173.142 32.9333 173.775 33.5733 174.229 34.4C174.682 35.2133 174.909 36.1533 174.909 37.22ZM172.529 36.5C172.515 35.66 172.215 34.9867 171.629 34.48C171.042 33.9733 170.315 33.72 169.449 33.72C168.662 33.72 167.989 33.9733 167.429 34.48C166.869 34.9733 166.535 35.6467 166.429 36.5H172.529ZM181.588 37.48C181.588 36.3467 181.814 35.3533 182.268 34.5C182.734 33.6333 183.374 32.9667 184.188 32.5C185.001 32.0333 185.934 31.8 186.988 31.8C188.321 31.8 189.421 32.12 190.288 32.76C191.168 33.3867 191.761 34.2867 192.068 35.46H189.608C189.408 34.9133 189.088 34.4867 188.648 34.18C188.208 33.8733 187.654 33.72 186.988 33.72C186.054 33.72 185.308 34.0533 184.748 34.72C184.201 35.3733 183.928 36.2933 183.928 37.48C183.928 38.6667 184.201 39.5933 184.748 40.26C185.308 40.9267 186.054 41.26 186.988 41.26C188.308 41.26 189.181 40.68 189.608 39.52H192.068C191.748 40.64 191.148 41.5333 190.268 42.2C189.388 42.8533 188.294 43.18 186.988 43.18C185.934 43.18 185.001 42.9467 184.188 42.48C183.374 42 182.734 41.3333 182.268 40.48C181.814 39.6133 181.588 38.6133 181.588 37.48ZM204.44 37.22C204.44 37.6333 204.413 38.0067 204.36 38.34H195.94C196.007 39.22 196.333 39.9267 196.92 40.46C197.507 40.9933 198.227 41.26 199.08 41.26C200.307 41.26 201.173 40.7467 201.68 39.72H204.14C203.807 40.7333 203.2 41.5667 202.32 42.22C201.453 42.86 200.373 43.18 199.08 43.18C198.027 43.18 197.08 42.9467 196.24 42.48C195.413 42 194.76 41.3333 194.28 40.48C193.813 39.6133 193.58 38.6133 193.58 37.48C193.58 36.3467 193.807 35.3533 194.26 34.5C194.727 33.6333 195.373 32.9667 196.2 32.5C197.04 32.0333 198 31.8 199.08 31.8C200.12 31.8 201.047 32.0267 201.86 32.48C202.673 32.9333 203.307 33.5733 203.76 34.4C204.213 35.2133 204.44 36.1533 204.44 37.22ZM202.06 36.5C202.047 35.66 201.747 34.9867 201.16 34.48C200.573 33.9733 199.847 33.72 198.98 33.72C198.193 33.72 197.52 33.9733 196.96 34.48C196.4 34.9733 196.067 35.6467 195.96 36.5H202.06ZM208.964 33.58C209.297 33.02 209.737 32.5867 210.284 32.28C210.844 31.96 211.504 31.8 212.264 31.8V34.16H211.684C210.79 34.16 210.11 34.3867 209.644 34.84C209.19 35.2933 208.964 36.08 208.964 37.2V43H206.684V31.98H208.964V33.58ZM217.019 33.84V39.94C217.019 40.3533 217.113 40.6533 217.299 40.84C217.499 41.0133 217.833 41.1 218.299 41.1H219.699V43H217.899C216.873 43 216.086 42.76 215.539 42.28C214.993 41.8 214.719 41.02 214.719 39.94V33.84H213.419V31.98H214.719V29.24H217.019V31.98H219.699V33.84H217.019ZM221.041 37.44C221.041 36.3333 221.267 35.3533 221.721 34.5C222.187 33.6467 222.814 32.9867 223.601 32.52C224.401 32.04 225.281 31.8 226.241 31.8C227.107 31.8 227.861 31.9733 228.501 32.32C229.154 32.6533 229.674 33.0733 230.061 33.58V31.98H232.361V43H230.061V41.36C229.674 41.88 229.147 42.3133 228.481 42.66C227.814 43.0067 227.054 43.18 226.201 43.18C225.254 43.18 224.387 42.94 223.601 42.46C222.814 41.9667 222.187 41.2867 221.721 40.42C221.267 39.54 221.041 38.5467 221.041 37.44ZM230.061 37.48C230.061 36.72 229.901 36.06 229.581 35.5C229.274 34.94 228.867 34.5133 228.361 34.22C227.854 33.9267 227.307 33.78 226.721 33.78C226.134 33.78 225.587 33.9267 225.081 34.22C224.574 34.5 224.161 34.92 223.841 35.48C223.534 36.0267 223.381 36.68 223.381 37.44C223.381 38.2 223.534 38.8667 223.841 39.44C224.161 40.0133 224.574 40.4533 225.081 40.76C225.601 41.0533 226.147 41.2 226.721 41.2C227.307 41.2 227.854 41.0533 228.361 40.76C228.867 40.4667 229.274 40.04 229.581 39.48C229.901 38.9067 230.061 38.24 230.061 37.48ZM236.515 30.52C236.102 30.52 235.755 30.38 235.475 30.1C235.195 29.82 235.055 29.4733 235.055 29.06C235.055 28.6467 235.195 28.3 235.475 28.02C235.755 27.74 236.102 27.6 236.515 27.6C236.915 27.6 237.255 27.74 237.535 28.02C237.815 28.3 237.955 28.6467 237.955 29.06C237.955 29.4733 237.815 29.82 237.535 30.1C237.255 30.38 236.915 30.52 236.515 30.52ZM237.635 31.98V43H235.355V31.98H237.635ZM246.189 31.8C247.056 31.8 247.829 31.98 248.509 32.34C249.202 32.7 249.742 33.2333 250.129 33.94C250.516 34.6467 250.709 35.5 250.709 36.5V43H248.449V36.84C248.449 35.8533 248.202 35.1 247.709 34.58C247.216 34.0467 246.542 33.78 245.689 33.78C244.836 33.78 244.156 34.0467 243.649 34.58C243.156 35.1 242.909 35.8533 242.909 36.84V43H240.629V31.98H242.909V33.24C243.282 32.7867 243.756 32.4333 244.329 32.18C244.916 31.9267 245.536 31.8 246.189 31.8ZM263.593 43.18C262.553 43.18 261.613 42.9467 260.773 42.48C259.933 42 259.273 41.3333 258.793 40.48C258.313 39.6133 258.073 38.6133 258.073 37.48C258.073 36.36 258.319 35.3667 258.813 34.5C259.306 33.6333 259.979 32.9667 260.833 32.5C261.686 32.0333 262.639 31.8 263.693 31.8C264.746 31.8 265.699 32.0333 266.553 32.5C267.406 32.9667 268.079 33.6333 268.573 34.5C269.066 35.3667 269.313 36.36 269.313 37.48C269.313 38.6 269.059 39.5933 268.553 40.46C268.046 41.3267 267.353 42 266.473 42.48C265.606 42.9467 264.646 43.18 263.593 43.18ZM263.593 41.2C264.179 41.2 264.726 41.06 265.233 40.78C265.753 40.5 266.173 40.08 266.493 39.52C266.813 38.96 266.973 38.28 266.973 37.48C266.973 36.68 266.819 36.0067 266.513 35.46C266.206 34.9 265.799 34.48 265.293 34.2C264.786 33.92 264.239 33.78 263.653 33.78C263.066 33.78 262.519 33.92 262.013 34.2C261.519 34.48 261.126 34.9 260.833 35.46C260.539 36.0067 260.393 36.68 260.393 37.48C260.393 38.6667 260.693 39.5867 261.293 40.24C261.906 40.88 262.673 41.2 263.593 41.2ZM276.186 33.84H274.146V43H271.846V33.84H270.546V31.98H271.846V31.2C271.846 29.9333 272.18 29.0133 272.846 28.44C273.526 27.8533 274.586 27.56 276.026 27.56V29.46C275.333 29.46 274.846 29.5933 274.566 29.86C274.286 30.1133 274.146 30.56 274.146 31.2V31.98H276.186V33.84ZM286.062 33.84V39.94C286.062 40.3533 286.156 40.6533 286.342 40.84C286.542 41.0133 286.876 41.1 287.342 41.1H288.742V43H286.942C285.916 43 285.129 42.76 284.582 42.28C284.036 41.8 283.762 41.02 283.762 39.94V33.84H282.462V31.98H283.762V29.24H286.062V31.98H288.742V33.84H286.062ZM296.544 31.8C297.384 31.8 298.13 31.98 298.784 32.34C299.45 32.7 299.97 33.2333 300.344 33.94C300.73 34.6467 300.924 35.5 300.924 36.5V43H298.664V36.84C298.664 35.8533 298.417 35.1 297.924 34.58C297.43 34.0467 296.757 33.78 295.904 33.78C295.05 33.78 294.37 34.0467 293.864 34.58C293.37 35.1 293.124 35.8533 293.124 36.84V43H290.844V28.2H293.124V33.26C293.51 32.7933 293.997 32.4333 294.584 32.18C295.184 31.9267 295.837 31.8 296.544 31.8ZM313.932 37.22C313.932 37.6333 313.905 38.0067 313.852 38.34H305.432C305.499 39.22 305.825 39.9267 306.412 40.46C306.999 40.9933 307.719 41.26 308.572 41.26C309.799 41.26 310.665 40.7467 311.172 39.72H313.632C313.299 40.7333 312.692 41.5667 311.812 42.22C310.945 42.86 309.865 43.18 308.572 43.18C307.519 43.18 306.572 42.9467 305.732 42.48C304.905 42 304.252 41.3333 303.772 40.48C303.305 39.6133 303.072 38.6133 303.072 37.48C303.072 36.3467 303.299 35.3533 303.752 34.5C304.219 33.6333 304.865 32.9667 305.692 32.5C306.532 32.0333 307.492 31.8 308.572 31.8C309.612 31.8 310.539 32.0267 311.352 32.48C312.165 32.9333 312.799 33.5733 313.252 34.4C313.705 35.2133 313.932 36.1533 313.932 37.22ZM311.552 36.5C311.539 35.66 311.239 34.9867 310.652 34.48C310.065 33.9733 309.339 33.72 308.472 33.72C307.685 33.72 307.012 33.9733 306.452 34.48C305.892 34.9733 305.559 35.6467 305.452 36.5H311.552ZM323.651 33.6C324.038 33.0933 324.564 32.6667 325.231 32.32C325.898 31.9733 326.651 31.8 327.491 31.8C328.451 31.8 329.324 32.04 330.111 32.52C330.911 32.9867 331.538 33.6467 331.991 34.5C332.444 35.3533 332.671 36.3333 332.671 37.44C332.671 38.5467 332.444 39.54 331.991 40.42C331.538 41.2867 330.911 41.9667 330.111 42.46C329.324 42.94 328.451 43.18 327.491 43.18C326.651 43.18 325.904 43.0133 325.251 42.68C324.598 42.3333 324.064 41.9067 323.651 41.4V48.24H321.371V31.98H323.651V33.6ZM330.351 37.44C330.351 36.68 330.191 36.0267 329.871 35.48C329.564 34.92 329.151 34.5 328.631 34.22C328.124 33.9267 327.578 33.78 326.991 33.78C326.418 33.78 325.871 33.9267 325.351 34.22C324.844 34.5133 324.431 34.94 324.111 35.5C323.804 36.06 323.651 36.72 323.651 37.48C323.651 38.24 323.804 38.9067 324.111 39.48C324.431 40.04 324.844 40.4667 325.351 40.76C325.871 41.0533 326.418 41.2 326.991 41.2C327.578 41.2 328.124 41.0533 328.631 40.76C329.151 40.4533 329.564 40.0133 329.871 39.44C330.191 38.8667 330.351 38.2 330.351 37.44ZM337.206 33.58C337.539 33.02 337.979 32.5867 338.526 32.28C339.086 31.96 339.746 31.8 340.506 31.8V34.16H339.926C339.032 34.16 338.352 34.3867 337.886 34.84C337.432 35.2933 337.206 36.08 337.206 37.2V43H334.926V31.98H337.206V33.58ZM347.382 43.18C346.342 43.18 345.402 42.9467 344.562 42.48C343.722 42 343.062 41.3333 342.582 40.48C342.102 39.6133 341.862 38.6133 341.862 37.48C341.862 36.36 342.108 35.3667 342.602 34.5C343.095 33.6333 343.768 32.9667 344.622 32.5C345.475 32.0333 346.428 31.8 347.482 31.8C348.535 31.8 349.488 32.0333 350.342 32.5C351.195 32.9667 351.868 33.6333 352.362 34.5C352.855 35.3667 353.102 36.36 353.102 37.48C353.102 38.6 352.848 39.5933 352.342 40.46C351.835 41.3267 351.142 42 350.262 42.48C349.395 42.9467 348.435 43.18 347.382 43.18ZM347.382 41.2C347.968 41.2 348.515 41.06 349.022 40.78C349.542 40.5 349.962 40.08 350.282 39.52C350.602 38.96 350.762 38.28 350.762 37.48C350.762 36.68 350.608 36.0067 350.302 35.46C349.995 34.9 349.588 34.48 349.082 34.2C348.575 33.92 348.028 33.78 347.442 33.78C346.855 33.78 346.308 33.92 345.802 34.2C345.308 34.48 344.915 34.9 344.622 35.46C344.328 36.0067 344.182 36.68 344.182 37.48C344.182 38.6667 344.482 39.5867 345.082 40.24C345.695 40.88 346.462 41.2 347.382 41.2ZM359.795 31.8C360.649 31.8 361.402 31.9733 362.055 32.32C362.722 32.6533 363.242 33.0733 363.615 33.58V31.98H365.915V43.18C365.915 44.1933 365.702 45.0933 365.275 45.88C364.849 46.68 364.229 47.3067 363.415 47.76C362.615 48.2133 361.655 48.44 360.535 48.44C359.042 48.44 357.802 48.0867 356.815 47.38C355.829 46.6867 355.269 45.74 355.135 44.54H357.395C357.569 45.1133 357.935 45.5733 358.495 45.92C359.069 46.28 359.749 46.46 360.535 46.46C361.455 46.46 362.195 46.18 362.755 45.62C363.329 45.06 363.615 44.2467 363.615 43.18V41.34C363.229 41.86 362.702 42.3 362.035 42.66C361.382 43.0067 360.635 43.18 359.795 43.18C358.835 43.18 357.955 42.94 357.155 42.46C356.369 41.9667 355.742 41.2867 355.275 40.42C354.822 39.54 354.595 38.5467 354.595 37.44C354.595 36.3333 354.822 35.3533 355.275 34.5C355.742 33.6467 356.369 32.9867 357.155 32.52C357.955 32.04 358.835 31.8 359.795 31.8ZM363.615 37.48C363.615 36.72 363.455 36.06 363.135 35.5C362.829 34.94 362.422 34.5133 361.915 34.22C361.409 33.9267 360.862 33.78 360.275 33.78C359.689 33.78 359.142 33.9267 358.635 34.22C358.129 34.5 357.715 34.92 357.395 35.48C357.089 36.0267 356.935 36.68 356.935 37.44C356.935 38.2 357.089 38.8667 357.395 39.44C357.715 40.0133 358.129 40.4533 358.635 40.76C359.155 41.0533 359.702 41.2 360.275 41.2C360.862 41.2 361.409 41.0533 361.915 40.76C362.422 40.4667 362.829 40.04 363.135 39.48C363.455 38.9067 363.615 38.24 363.615 37.48ZM371.19 33.58C371.523 33.02 371.963 32.5867 372.51 32.28C373.07 31.96 373.73 31.8 374.49 31.8V34.16H373.91C373.017 34.16 372.337 34.3867 371.87 34.84C371.417 35.2933 371.19 36.08 371.19 37.2V43H368.91V31.98H371.19V33.58ZM386.686 37.22C386.686 37.6333 386.659 38.0067 386.606 38.34H378.186C378.253 39.22 378.579 39.9267 379.166 40.46C379.753 40.9933 380.473 41.26 381.326 41.26C382.553 41.26 383.419 40.7467 383.926 39.72H386.386C386.053 40.7333 385.446 41.5667 384.566 42.22C383.699 42.86 382.619 43.18 381.326 43.18C380.273 43.18 379.326 42.9467 378.486 42.48C377.659 42 377.006 41.3333 376.526 40.48C376.059 39.6133 375.826 38.6133 375.826 37.48C375.826 36.3467 376.053 35.3533 376.506 34.5C376.973 33.6333 377.619 32.9667 378.446 32.5C379.286 32.0333 380.246 31.8 381.326 31.8C382.366 31.8 383.293 32.0267 384.106 32.48C384.919 32.9333 385.553 33.5733 386.006 34.4C386.459 35.2133 386.686 36.1533 386.686 37.22ZM384.306 36.5C384.293 35.66 383.993 34.9867 383.406 34.48C382.819 33.9733 382.093 33.72 381.226 33.72C380.439 33.72 379.766 33.9733 379.206 34.48C378.646 34.9733 378.313 35.6467 378.206 36.5H384.306ZM392.93 43.18C392.063 43.18 391.283 43.0267 390.59 42.72C389.91 42.4 389.37 41.9733 388.97 41.44C388.57 40.8933 388.356 40.2867 388.33 39.62H390.69C390.73 40.0867 390.95 40.48 391.35 40.8C391.763 41.1067 392.276 41.26 392.89 41.26C393.53 41.26 394.023 41.14 394.37 40.9C394.73 40.6467 394.91 40.3267 394.91 39.94C394.91 39.5267 394.71 39.22 394.31 39.02C393.923 38.82 393.303 38.6 392.45 38.36C391.623 38.1333 390.95 37.9133 390.43 37.7C389.91 37.4867 389.456 37.16 389.07 36.72C388.696 36.28 388.51 35.7 388.51 34.98C388.51 34.3933 388.683 33.86 389.03 33.38C389.376 32.8867 389.87 32.5 390.51 32.22C391.163 31.94 391.91 31.8 392.75 31.8C394.003 31.8 395.01 32.12 395.77 32.76C396.543 33.3867 396.956 34.2467 397.01 35.34H394.73C394.69 34.8467 394.49 34.4533 394.13 34.16C393.77 33.8667 393.283 33.72 392.67 33.72C392.07 33.72 391.61 33.8333 391.29 34.06C390.97 34.2867 390.81 34.5867 390.81 34.96C390.81 35.2533 390.916 35.5 391.13 35.7C391.343 35.9 391.603 36.06 391.91 36.18C392.216 36.2867 392.67 36.4267 393.27 36.6C394.07 36.8133 394.723 37.0333 395.23 37.26C395.75 37.4733 396.196 37.7933 396.57 38.22C396.943 38.6467 397.136 39.2133 397.15 39.92C397.15 40.5467 396.976 41.1067 396.63 41.6C396.283 42.0933 395.79 42.48 395.15 42.76C394.523 43.04 393.783 43.18 392.93 43.18ZM403.613 43.18C402.747 43.18 401.967 43.0267 401.273 42.72C400.593 42.4 400.053 41.9733 399.653 41.44C399.253 40.8933 399.04 40.2867 399.013 39.62H401.373C401.413 40.0867 401.633 40.48 402.033 40.8C402.447 41.1067 402.96 41.26 403.573 41.26C404.213 41.26 404.707 41.14 405.053 40.9C405.413 40.6467 405.593 40.3267 405.593 39.94C405.593 39.5267 405.393 39.22 404.993 39.02C404.607 38.82 403.987 38.6 403.133 38.36C402.307 38.1333 401.633 37.9133 401.113 37.7C400.593 37.4867 400.14 37.16 399.753 36.72C399.38 36.28 399.193 35.7 399.193 34.98C399.193 34.3933 399.367 33.86 399.713 33.38C400.06 32.8867 400.553 32.5 401.193 32.22C401.847 31.94 402.593 31.8 403.433 31.8C404.687 31.8 405.693 32.12 406.453 32.76C407.227 33.3867 407.64 34.2467 407.693 35.34H405.413C405.373 34.8467 405.173 34.4533 404.813 34.16C404.453 33.8667 403.967 33.72 403.353 33.72C402.753 33.72 402.293 33.8333 401.973 34.06C401.653 34.2867 401.493 34.5867 401.493 34.96C401.493 35.2533 401.6 35.5 401.813 35.7C402.027 35.9 402.287 36.06 402.593 36.18C402.9 36.2867 403.353 36.4267 403.953 36.6C404.753 36.8133 405.407 37.0333 405.913 37.26C406.433 37.4733 406.88 37.7933 407.253 38.22C407.627 38.6467 407.82 39.2133 407.833 39.92C407.833 40.5467 407.66 41.1067 407.313 41.6C406.967 42.0933 406.473 42.48 405.833 42.76C405.207 43.04 404.467 43.18 403.613 43.18ZM416.652 30.52C416.239 30.52 415.892 30.38 415.612 30.1C415.332 29.82 415.192 29.4733 415.192 29.06C415.192 28.6467 415.332 28.3 415.612 28.02C415.892 27.74 416.239 27.6 416.652 27.6C417.052 27.6 417.392 27.74 417.672 28.02C417.952 28.3 418.092 28.6467 418.092 29.06C418.092 29.4733 417.952 29.82 417.672 30.1C417.392 30.38 417.052 30.52 416.652 30.52ZM417.772 31.98V43H415.492V31.98H417.772ZM426.326 31.8C427.192 31.8 427.966 31.98 428.646 32.34C429.339 32.7 429.879 33.2333 430.266 33.94C430.652 34.6467 430.846 35.5 430.846 36.5V43H428.586V36.84C428.586 35.8533 428.339 35.1 427.846 34.58C427.352 34.0467 426.679 33.78 425.826 33.78C424.972 33.78 424.292 34.0467 423.786 34.58C423.292 35.1 423.046 35.8533 423.046 36.84V43H420.766V31.98H423.046V33.24C423.419 32.7867 423.892 32.4333 424.466 32.18C425.052 31.9267 425.672 31.8 426.326 31.8ZM452.289 31.8C453.156 31.8 453.929 31.98 454.609 32.34C455.303 32.7 455.843 33.2333 456.229 33.94C456.629 34.6467 456.829 35.5 456.829 36.5V43H454.569V36.84C454.569 35.8533 454.323 35.1 453.829 34.58C453.336 34.0467 452.663 33.78 451.809 33.78C450.956 33.78 450.276 34.0467 449.769 34.58C449.276 35.1 449.029 35.8533 449.029 36.84V43H446.769V36.84C446.769 35.8533 446.523 35.1 446.029 34.58C445.536 34.0467 444.863 33.78 444.009 33.78C443.156 33.78 442.476 34.0467 441.969 34.58C441.476 35.1 441.229 35.8533 441.229 36.84V43H438.949V31.98H441.229V33.24C441.603 32.7867 442.076 32.4333 442.649 32.18C443.223 31.9267 443.836 31.8 444.489 31.8C445.369 31.8 446.156 31.9867 446.849 32.36C447.543 32.7333 448.076 33.2733 448.449 33.98C448.783 33.3133 449.303 32.7867 450.009 32.4C450.716 32 451.476 31.8 452.289 31.8ZM469.65 31.98L462.89 48.18H460.53L462.77 42.82L458.43 31.98H460.97L464.07 40.38L467.29 31.98H469.65ZM478.846 33.6C479.233 33.0933 479.76 32.6667 480.426 32.32C481.093 31.9733 481.846 31.8 482.686 31.8C483.646 31.8 484.52 32.04 485.306 32.52C486.106 32.9867 486.733 33.6467 487.186 34.5C487.64 35.3533 487.866 36.3333 487.866 37.44C487.866 38.5467 487.64 39.54 487.186 40.42C486.733 41.2867 486.106 41.9667 485.306 42.46C484.52 42.94 483.646 43.18 482.686 43.18C481.846 43.18 481.1 43.0133 480.446 42.68C479.793 42.3333 479.26 41.9067 478.846 41.4V48.24H476.566V31.98H478.846V33.6ZM485.546 37.44C485.546 36.68 485.386 36.0267 485.066 35.48C484.76 34.92 484.346 34.5 483.826 34.22C483.32 33.9267 482.773 33.78 482.186 33.78C481.613 33.78 481.066 33.9267 480.546 34.22C480.04 34.5133 479.626 34.94 479.306 35.5C479 36.06 478.846 36.72 478.846 37.48C478.846 38.24 479 38.9067 479.306 39.48C479.626 40.04 480.04 40.4667 480.546 40.76C481.066 41.0533 481.613 41.2 482.186 41.2C482.773 41.2 483.32 41.0533 483.826 40.76C484.346 40.4533 484.76 40.0133 485.066 39.44C485.386 38.8667 485.546 38.2 485.546 37.44ZM492.401 33.58C492.734 33.02 493.174 32.5867 493.721 32.28C494.281 31.96 494.941 31.8 495.701 31.8V34.16H495.121C494.228 34.16 493.548 34.3867 493.081 34.84C492.628 35.2933 492.401 36.08 492.401 37.2V43H490.121V31.98H492.401V33.58ZM502.577 43.18C501.537 43.18 500.597 42.9467 499.757 42.48C498.917 42 498.257 41.3333 497.777 40.48C497.297 39.6133 497.057 38.6133 497.057 37.48C497.057 36.36 497.304 35.3667 497.797 34.5C498.29 33.6333 498.964 32.9667 499.817 32.5C500.67 32.0333 501.624 31.8 502.677 31.8C503.73 31.8 504.684 32.0333 505.537 32.5C506.39 32.9667 507.064 33.6333 507.557 34.5C508.05 35.3667 508.297 36.36 508.297 37.48C508.297 38.6 508.044 39.5933 507.537 40.46C507.03 41.3267 506.337 42 505.457 42.48C504.59 42.9467 503.63 43.18 502.577 43.18ZM502.577 41.2C503.164 41.2 503.71 41.06 504.217 40.78C504.737 40.5 505.157 40.08 505.477 39.52C505.797 38.96 505.957 38.28 505.957 37.48C505.957 36.68 505.804 36.0067 505.497 35.46C505.19 34.9 504.784 34.48 504.277 34.2C503.77 33.92 503.224 33.78 502.637 33.78C502.05 33.78 501.504 33.92 500.997 34.2C500.504 34.48 500.11 34.9 499.817 35.46C499.524 36.0067 499.377 36.68 499.377 37.48C499.377 38.6667 499.677 39.5867 500.277 40.24C500.89 40.88 501.657 41.2 502.577 41.2ZM511.711 30.52C511.297 30.52 510.951 30.38 510.671 30.1C510.391 29.82 510.251 29.4733 510.251 29.06C510.251 28.6467 510.391 28.3 510.671 28.02C510.951 27.74 511.297 27.6 511.711 27.6C512.111 27.6 512.451 27.74 512.731 28.02C513.011 28.3 513.151 28.6467 513.151 29.06C513.151 29.4733 513.011 29.82 512.731 30.1C512.451 30.38 512.111 30.52 511.711 30.52ZM512.831 45.16C512.831 46.24 512.557 47.02 512.011 47.5C511.477 47.9933 510.697 48.24 509.671 48.24H508.491V46.32H509.271C509.737 46.32 510.064 46.2267 510.251 46.04C510.451 45.8667 510.551 45.5733 510.551 45.16V31.98H512.831V45.16ZM525.924 37.22C525.924 37.6333 525.898 38.0067 525.844 38.34H517.424C517.491 39.22 517.818 39.9267 518.404 40.46C518.991 40.9933 519.711 41.26 520.564 41.26C521.791 41.26 522.658 40.7467 523.164 39.72H525.624C525.291 40.7333 524.684 41.5667 523.804 42.22C522.938 42.86 521.858 43.18 520.564 43.18C519.511 43.18 518.564 42.9467 517.724 42.48C516.898 42 516.244 41.3333 515.764 40.48C515.298 39.6133 515.064 38.6133 515.064 37.48C515.064 36.3467 515.291 35.3533 515.744 34.5C516.211 33.6333 516.858 32.9667 517.684 32.5C518.524 32.0333 519.484 31.8 520.564 31.8C521.604 31.8 522.531 32.0267 523.344 32.48C524.158 32.9333 524.791 33.5733 525.244 34.4C525.698 35.2133 525.924 36.1533 525.924 37.22ZM523.544 36.5C523.531 35.66 523.231 34.9867 522.644 34.48C522.058 33.9733 521.331 33.72 520.464 33.72C519.678 33.72 519.004 33.9733 518.444 34.48C517.884 34.9733 517.551 35.6467 517.444 36.5H523.544ZM527.408 37.48C527.408 36.3467 527.635 35.3533 528.088 34.5C528.555 33.6333 529.195 32.9667 530.008 32.5C530.821 32.0333 531.755 31.8 532.808 31.8C534.141 31.8 535.241 32.12 536.108 32.76C536.988 33.3867 537.581 34.2867 537.888 35.46H535.428C535.228 34.9133 534.908 34.4867 534.468 34.18C534.028 33.8733 533.475 33.72 532.808 33.72C531.875 33.72 531.128 34.0533 530.568 34.72C530.021 35.3733 529.748 36.2933 529.748 37.48C529.748 38.6667 530.021 39.5933 530.568 40.26C531.128 40.9267 531.875 41.26 532.808 41.26C534.128 41.26 535.001 40.68 535.428 39.52H537.888C537.568 40.64 536.968 41.5333 536.088 42.2C535.208 42.8533 534.115 43.18 532.808 43.18C531.755 43.18 530.821 42.9467 530.008 42.48C529.195 42 528.555 41.3333 528.088 40.48C527.635 39.6133 527.408 38.6133 527.408 37.48ZM542.82 33.84V39.94C542.82 40.3533 542.913 40.6533 543.1 40.84C543.3 41.0133 543.633 41.1 544.1 41.1H545.5V43H543.7C542.673 43 541.887 42.76 541.34 42.28C540.793 41.8 540.52 41.02 540.52 39.94V33.84H539.22V31.98H540.52V29.24H542.82V31.98H545.5V33.84H542.82ZM552.037 37.44C552.037 36.3333 552.264 35.3533 552.717 34.5C553.184 33.6467 553.81 32.9867 554.597 32.52C555.397 32.04 556.284 31.8 557.257 31.8C557.977 31.8 558.684 31.96 559.377 32.28C560.084 32.5867 560.644 33 561.057 33.52V28.2H563.357V43H561.057V41.34C560.684 41.8733 560.164 42.3133 559.497 42.66C558.844 43.0067 558.09 43.18 557.237 43.18C556.277 43.18 555.397 42.94 554.597 42.46C553.81 41.9667 553.184 41.2867 552.717 40.42C552.264 39.54 552.037 38.5467 552.037 37.44ZM561.057 37.48C561.057 36.72 560.897 36.06 560.577 35.5C560.27 34.94 559.864 34.5133 559.357 34.22C558.85 33.9267 558.304 33.78 557.717 33.78C557.13 33.78 556.584 33.9267 556.077 34.22C555.57 34.5 555.157 34.92 554.837 35.48C554.53 36.0267 554.377 36.68 554.377 37.44C554.377 38.2 554.53 38.8667 554.837 39.44C555.157 40.0133 555.57 40.4533 556.077 40.76C556.597 41.0533 557.144 41.2 557.717 41.2C558.304 41.2 558.85 41.0533 559.357 40.76C559.864 40.4667 560.27 40.04 560.577 39.48C560.897 38.9067 561.057 38.24 561.057 37.48ZM576.452 37.22C576.452 37.6333 576.425 38.0067 576.372 38.34H567.952C568.018 39.22 568.345 39.9267 568.932 40.46C569.518 40.9933 570.238 41.26 571.092 41.26C572.318 41.26 573.185 40.7467 573.692 39.72H576.152C575.818 40.7333 575.212 41.5667 574.332 42.22C573.465 42.86 572.385 43.18 571.092 43.18C570.038 43.18 569.092 42.9467 568.252 42.48C567.425 42 566.772 41.3333 566.292 40.48C565.825 39.6133 565.592 38.6133 565.592 37.48C565.592 36.3467 565.818 35.3533 566.272 34.5C566.738 33.6333 567.385 32.9667 568.212 32.5C569.052 32.0333 570.012 31.8 571.092 31.8C572.132 31.8 573.058 32.0267 573.872 32.48C574.685 32.9333 575.318 33.5733 575.772 34.4C576.225 35.2133 576.452 36.1533 576.452 37.22ZM574.072 36.5C574.058 35.66 573.758 34.9867 573.172 34.48C572.585 33.9733 571.858 33.72 570.992 33.72C570.205 33.72 569.532 33.9733 568.972 34.48C568.412 34.9733 568.078 35.6467 567.972 36.5H574.072ZM582.955 40.96L586.075 31.98H588.495L584.295 43H581.575L577.395 31.98H579.835L582.955 40.96ZM600.319 37.22C600.319 37.6333 600.292 38.0067 600.239 38.34H591.819C591.885 39.22 592.212 39.9267 592.799 40.46C593.385 40.9933 594.105 41.26 594.959 41.26C596.185 41.26 597.052 40.7467 597.559 39.72H600.019C599.685 40.7333 599.079 41.5667 598.199 42.22C597.332 42.86 596.252 43.18 594.959 43.18C593.905 43.18 592.959 42.9467 592.119 42.48C591.292 42 590.639 41.3333 590.159 40.48C589.692 39.6133 589.459 38.6133 589.459 37.48C589.459 36.3467 589.685 35.3533 590.139 34.5C590.605 33.6333 591.252 32.9667 592.079 32.5C592.919 32.0333 593.879 31.8 594.959 31.8C595.999 31.8 596.925 32.0267 597.739 32.48C598.552 32.9333 599.185 33.5733 599.639 34.4C600.092 35.2133 600.319 36.1533 600.319 37.22ZM597.939 36.5C597.925 35.66 597.625 34.9867 597.039 34.48C596.452 33.9733 595.725 33.72 594.859 33.72C594.072 33.72 593.399 33.9733 592.839 34.48C592.279 34.9733 591.945 35.6467 591.839 36.5H597.939ZM604.843 28.2V43H602.563V28.2H604.843ZM612.616 43.18C611.576 43.18 610.636 42.9467 609.796 42.48C608.956 42 608.296 41.3333 607.816 40.48C607.336 39.6133 607.096 38.6133 607.096 37.48C607.096 36.36 607.343 35.3667 607.836 34.5C608.329 33.6333 609.003 32.9667 609.856 32.5C610.709 32.0333 611.663 31.8 612.716 31.8C613.769 31.8 614.723 32.0333 615.576 32.5C616.429 32.9667 617.103 33.6333 617.596 34.5C618.089 35.3667 618.336 36.36 618.336 37.48C618.336 38.6 618.083 39.5933 617.576 40.46C617.069 41.3267 616.376 42 615.496 42.48C614.629 42.9467 613.669 43.18 612.616 43.18ZM612.616 41.2C613.203 41.2 613.749 41.06 614.256 40.78C614.776 40.5 615.196 40.08 615.516 39.52C615.836 38.96 615.996 38.28 615.996 37.48C615.996 36.68 615.843 36.0067 615.536 35.46C615.229 34.9 614.823 34.48 614.316 34.2C613.809 33.92 613.263 33.78 612.676 33.78C612.089 33.78 611.543 33.92 611.036 34.2C610.543 34.48 610.149 34.9 609.856 35.46C609.563 36.0067 609.416 36.68 609.416 37.48C609.416 38.6667 609.716 39.5867 610.316 40.24C610.929 40.88 611.696 41.2 612.616 41.2ZM622.87 33.6C623.257 33.0933 623.783 32.6667 624.45 32.32C625.117 31.9733 625.87 31.8 626.71 31.8C627.67 31.8 628.543 32.04 629.33 32.52C630.13 32.9867 630.757 33.6467 631.21 34.5C631.663 35.3533 631.89 36.3333 631.89 37.44C631.89 38.5467 631.663 39.54 631.21 40.42C630.757 41.2867 630.13 41.9667 629.33 42.46C628.543 42.94 627.67 43.18 626.71 43.18C625.87 43.18 625.123 43.0133 624.47 42.68C623.817 42.3333 623.283 41.9067 622.87 41.4V48.24H620.59V31.98H622.87V33.6ZM629.57 37.44C629.57 36.68 629.41 36.0267 629.09 35.48C628.783 34.92 628.37 34.5 627.85 34.22C627.343 33.9267 626.797 33.78 626.21 33.78C625.637 33.78 625.09 33.9267 624.57 34.22C624.063 34.5133 623.65 34.94 623.33 35.5C623.023 36.06 622.87 36.72 622.87 37.48C622.87 38.24 623.023 38.9067 623.33 39.48C623.65 40.04 624.063 40.4667 624.57 40.76C625.09 41.0533 625.637 41.2 626.21 41.2C626.797 41.2 627.343 41.0533 627.85 40.76C628.37 40.4533 628.783 40.0133 629.09 39.44C629.41 38.8667 629.57 38.2 629.57 37.44ZM647.485 31.8C648.351 31.8 649.125 31.98 649.805 32.34C650.498 32.7 651.038 33.2333 651.425 33.94C651.825 34.6467 652.025 35.5 652.025 36.5V43H649.765V36.84C649.765 35.8533 649.518 35.1 649.025 34.58C648.531 34.0467 647.858 33.78 647.005 33.78C646.151 33.78 645.471 34.0467 644.965 34.58C644.471 35.1 644.225 35.8533 644.225 36.84V43H641.965V36.84C641.965 35.8533 641.718 35.1 641.225 34.58C640.731 34.0467 640.058 33.78 639.205 33.78C638.351 33.78 637.671 34.0467 637.165 34.58C636.671 35.1 636.425 35.8533 636.425 36.84V43H634.145V31.98H636.425V33.24C636.798 32.7867 637.271 32.4333 637.845 32.18C638.418 31.9267 639.031 31.8 639.685 31.8C640.565 31.8 641.351 31.9867 642.045 32.36C642.738 32.7333 643.271 33.2733 643.645 33.98C643.978 33.3133 644.498 32.7867 645.205 32.4C645.911 32 646.671 31.8 647.485 31.8ZM665.026 37.22C665.026 37.6333 664.999 38.0067 664.946 38.34H656.526C656.592 39.22 656.919 39.9267 657.506 40.46C658.092 40.9933 658.812 41.26 659.666 41.26C660.892 41.26 661.759 40.7467 662.266 39.72H664.726C664.392 40.7333 663.786 41.5667 662.906 42.22C662.039 42.86 660.959 43.18 659.666 43.18C658.612 43.18 657.666 42.9467 656.826 42.48C655.999 42 655.346 41.3333 654.866 40.48C654.399 39.6133 654.166 38.6133 654.166 37.48C654.166 36.3467 654.392 35.3533 654.846 34.5C655.312 33.6333 655.959 32.9667 656.786 32.5C657.626 32.0333 658.586 31.8 659.666 31.8C660.706 31.8 661.632 32.0267 662.446 32.48C663.259 32.9333 663.892 33.5733 664.346 34.4C664.799 35.2133 665.026 36.1533 665.026 37.22ZM662.646 36.5C662.632 35.66 662.332 34.9867 661.746 34.48C661.159 33.9733 660.432 33.72 659.566 33.72C658.779 33.72 658.106 33.9733 657.546 34.48C656.986 34.9733 656.652 35.6467 656.546 36.5H662.646ZM672.83 31.8C673.696 31.8 674.47 31.98 675.15 32.34C675.843 32.7 676.383 33.2333 676.77 33.94C677.156 34.6467 677.35 35.5 677.35 36.5V43H675.09V36.84C675.09 35.8533 674.843 35.1 674.35 34.58C673.856 34.0467 673.183 33.78 672.33 33.78C671.476 33.78 670.796 34.0467 670.29 34.58C669.796 35.1 669.55 35.8533 669.55 36.84V43H667.27V31.98H669.55V33.24C669.923 32.7867 670.396 32.4333 670.97 32.18C671.556 31.9267 672.176 31.8 672.83 31.8ZM682.918 33.84V39.94C682.918 40.3533 683.011 40.6533 683.198 40.84C683.398 41.0133 683.731 41.1 684.198 41.1H685.598V43H683.798C682.771 43 681.984 42.76 681.438 42.28C680.891 41.8 680.618 41.02 680.618 39.94V33.84H679.318V31.98H680.618V29.24H682.918V31.98H685.598V33.84H682.918ZM691.439 28.9C692.799 28.9 693.886 29.2733 694.699 30.02C695.526 30.7667 695.939 31.7867 695.939 33.08C695.939 34.4267 695.513 35.44 694.659 36.12C693.806 36.8 692.673 37.14 691.259 37.14L691.179 38.72H689.199L689.099 35.58H689.759C691.053 35.58 692.039 35.4067 692.719 35.06C693.413 34.7133 693.759 34.0533 693.759 33.08C693.759 32.3733 693.553 31.82 693.139 31.42C692.739 31.02 692.179 30.82 691.459 30.82C690.739 30.82 690.173 31.0133 689.759 31.4C689.346 31.7867 689.139 32.3267 689.139 33.02H686.999C686.999 32.22 687.179 31.5067 687.539 30.88C687.899 30.2533 688.413 29.7667 689.079 29.42C689.759 29.0733 690.546 28.9 691.439 28.9ZM690.159 43.14C689.746 43.14 689.399 43 689.119 42.72C688.839 42.44 688.699 42.0933 688.699 41.68C688.699 41.2667 688.839 40.92 689.119 40.64C689.399 40.36 689.746 40.22 690.159 40.22C690.559 40.22 690.899 40.36 691.179 40.64C691.459 40.92 691.599 41.2667 691.599 41.68C691.599 42.0933 691.459 42.44 691.179 42.72C690.899 43 690.559 43.14 690.159 43.14Z" fill="black"/>
<path d="M709 28.9287L709 43.0708M709 43.0708L716.071 35.9998M709 43.0708L701.929 35.9998" stroke="black" stroke-linecap="round" stroke-linejoin="round"/>
</svg>
