<svg xmlns="http://www.w3.org/2000/svg" width="241" height="52" viewBox="0 0 241 52" fill="none">
  <path d="M10.7352 35.5173L0.176025 0.895931L7.72744 0.959925L14.4789 23.1342L21.3264 0.959925H27.8219L34.6374 23.1342L41.4208 0.959925H48.9722L38.4131 35.5173H32.3975L24.5581 11.7431L16.7507 35.5173H10.7352Z" fill="white"/>
  <path d="M62.4727 36.4772C59.9769 36.4772 57.8651 36.0079 56.1372 35.0693C54.4093 34.1094 53.0974 32.8401 52.2015 31.2616C51.3269 29.683 50.8896 27.9445 50.8896 26.046C50.8896 24.3821 51.1669 22.8889 51.7215 21.5663C52.2762 20.2224 53.1294 19.0705 54.2813 18.1106C55.4332 17.1293 56.9265 16.3294 58.761 15.7108C60.1475 15.2628 61.7688 14.8575 63.6246 14.4949C65.5018 14.1322 67.5283 13.8016 69.7041 13.503C71.9013 13.183 74.1945 12.8417 76.5836 12.479L73.8318 14.0469C73.8531 11.6578 73.3199 9.8979 72.2319 8.76732C71.144 7.63674 69.3095 7.07145 66.7284 7.07145C65.1712 7.07145 63.6673 7.43409 62.2167 8.15937C60.7662 8.88464 59.7529 10.1325 59.177 11.9031L52.1375 9.69525C52.9908 6.77281 54.612 4.42632 57.0011 2.65579C59.4116 0.885264 62.654 0 66.7284 0C69.8001 0 72.4986 0.501294 74.8237 1.50388C77.1702 2.50647 78.9088 4.14901 80.0393 6.4315C80.658 7.64741 81.0313 8.89531 81.1592 10.1752C81.2872 11.4338 81.3512 12.8097 81.3512 14.3029V35.5173H74.5998V28.0298L75.7197 29.2457C74.1625 31.7415 72.3386 33.5761 70.2481 34.7493C68.1789 35.9012 65.5871 36.4772 62.4727 36.4772ZM64.0086 30.3337C65.7578 30.3337 67.251 30.0243 68.4882 29.4057C69.7255 28.7871 70.7067 28.0298 71.432 27.1339C72.1786 26.238 72.6799 25.3954 72.9359 24.6061C73.3412 23.6248 73.5652 22.5049 73.6078 21.2464C73.6718 19.9665 73.7038 18.9319 73.7038 18.1426L76.0716 18.8465C73.7465 19.2092 71.752 19.5292 70.0881 19.8065C68.4242 20.0838 66.995 20.3504 65.8004 20.6064C64.6059 20.8411 63.5499 21.1077 62.6327 21.4063C61.7368 21.7263 60.9795 22.0996 60.3609 22.5263C59.7422 22.9529 59.2623 23.4435 58.921 23.9981C58.601 24.5528 58.441 25.2034 58.441 25.95C58.441 26.8033 58.6543 27.5605 59.081 28.2218C59.5076 28.8618 60.1262 29.3737 60.9368 29.7577C61.7688 30.1417 62.7927 30.3337 64.0086 30.3337Z" fill="white"/>
  <path d="M106.288 36.4772C102.918 36.4772 100.091 35.6772 97.809 34.0774C95.5265 32.4775 93.8093 30.3017 92.6574 27.5499C91.5054 24.7767 90.9295 21.673 90.9295 18.2386C90.9295 14.7615 91.5054 11.6471 92.6574 8.89531C93.8093 6.14352 95.4945 3.97836 97.713 2.39981C99.9528 0.799937 102.715 0 106 0C109.264 0 112.091 0.799937 114.48 2.39981C116.89 3.97836 118.757 6.14352 120.079 8.89531C121.402 11.6258 122.063 14.7402 122.063 18.2386C122.063 21.6943 121.412 24.7981 120.111 27.5499C118.81 30.3017 116.975 32.4775 114.608 34.0774C112.24 35.6772 109.467 36.4772 106.288 36.4772ZM89.6176 50.8761V0.959925H96.4331V25.214H97.393V50.8761H89.6176ZM105.104 29.5657C107.11 29.5657 108.763 29.0644 110.064 28.0618C111.365 27.0592 112.325 25.7047 112.944 23.9981C113.584 22.2703 113.904 20.3504 113.904 18.2386C113.904 16.1481 113.584 14.2496 112.944 12.543C112.304 10.8152 111.312 9.44993 109.968 8.44735C108.624 7.42342 106.918 6.91146 104.848 6.91146C102.886 6.91146 101.286 7.39143 100.049 8.35135C98.8115 9.28995 97.8943 10.6125 97.297 12.319C96.721 14.0042 96.4331 15.9774 96.4331 18.2386C96.4331 20.4784 96.721 22.4516 97.297 24.1581C97.8943 25.8647 98.8222 27.1979 100.081 28.1578C101.361 29.0964 103.035 29.5657 105.104 29.5657Z" fill="white"/>
  <path d="M145.723 36.4772C142.352 36.4772 139.526 35.6772 137.243 34.0774C134.961 32.4775 133.244 30.3017 132.092 27.5499C130.94 24.7767 130.364 21.673 130.364 18.2386C130.364 14.7615 130.94 11.6471 132.092 8.89531C133.244 6.14352 134.929 3.97836 137.147 2.39981C139.387 0.799937 142.15 0 145.435 0C148.699 0 151.525 0.799937 153.914 2.39981C156.325 3.97836 158.191 6.14352 159.514 8.89531C160.836 11.6258 161.498 14.7402 161.498 18.2386C161.498 21.6943 160.847 24.7981 159.546 27.5499C158.244 30.3017 156.41 32.4775 154.042 34.0774C151.674 35.6772 148.901 36.4772 145.723 36.4772ZM129.052 50.8761V0.959925H135.868V25.214H136.827V50.8761H129.052ZM144.539 29.5657C146.544 29.5657 148.197 29.0644 149.498 28.0618C150.8 27.0592 151.76 25.7047 152.378 23.9981C153.018 22.2703 153.338 20.3504 153.338 18.2386C153.338 16.1481 153.018 14.2496 152.378 12.543C151.738 10.8152 150.746 9.44993 149.402 8.44735C148.059 7.42342 146.352 6.91146 144.283 6.91146C142.32 6.91146 140.72 7.39143 139.483 8.35135C138.246 9.28995 137.329 10.6125 136.731 12.319C136.155 14.0042 135.868 15.9774 135.868 18.2386C135.868 20.4784 136.155 22.4516 136.731 24.1581C137.329 25.8647 138.257 27.1979 139.515 28.1578C140.795 29.0964 142.47 29.5657 144.539 29.5657Z" fill="white"/>
  <path d="M183.077 51.836C181.158 51.836 179.312 51.5373 177.542 50.9401C175.793 50.3428 174.214 49.4788 172.806 48.3483C171.398 47.239 170.246 45.8951 169.35 44.3166L176.454 40.7968C177.115 42.0554 178.043 42.9833 179.238 43.5806C180.454 44.1992 181.744 44.5086 183.109 44.5086C184.709 44.5086 186.138 44.2206 187.397 43.6446C188.656 43.09 189.626 42.2581 190.309 41.1488C191.013 40.0609 191.343 38.6957 191.301 37.0531V27.2299H192.261V0.959925H199.012V37.1811C199.012 38.0557 198.969 38.8877 198.884 39.6769C198.82 40.4875 198.703 41.2768 198.532 42.0447C198.02 44.2846 197.039 46.1191 195.588 47.5483C194.138 48.9989 192.335 50.0761 190.181 50.7801C188.048 51.484 185.68 51.836 183.077 51.836ZM182.405 36.4772C179.227 36.4772 176.454 35.6772 174.086 34.0774C171.718 32.4775 169.884 30.3017 168.582 27.5499C167.281 24.7981 166.631 21.6943 166.631 18.2386C166.631 14.7402 167.281 11.6258 168.582 8.89531C169.905 6.14352 171.772 3.97836 174.182 2.39981C176.593 0.799937 179.43 0 182.693 0C185.978 0 188.73 0.799937 190.949 2.39981C193.189 3.97836 194.884 6.14352 196.036 8.89531C197.188 11.6471 197.764 14.7615 197.764 18.2386C197.764 21.673 197.188 24.7767 196.036 27.5499C194.884 30.3017 193.167 32.4775 190.885 34.0774C188.602 35.6772 185.776 36.4772 182.405 36.4772ZM183.589 29.5657C185.658 29.5657 187.322 29.0964 188.581 28.1578C189.861 27.1979 190.789 25.8647 191.365 24.1581C191.962 22.4516 192.261 20.4784 192.261 18.2386C192.261 15.9774 191.962 14.0042 191.365 12.319C190.789 10.6125 189.882 9.28995 188.645 8.35135C187.408 7.39143 185.808 6.91146 183.845 6.91146C181.776 6.91146 180.07 7.42342 178.726 8.44735C177.382 9.44993 176.39 10.8152 175.75 12.543C175.11 14.2496 174.79 16.1481 174.79 18.2386C174.79 20.3504 175.099 22.2703 175.718 23.9981C176.358 25.7047 177.328 27.0592 178.63 28.0618C179.931 29.0644 181.584 29.5657 183.589 29.5657Z" fill="white"/>
  <path d="M223.248 36.4772C219.792 36.4772 216.774 35.6986 214.192 34.1414C211.611 32.5841 209.606 30.4403 208.177 27.7099C206.769 24.9581 206.065 21.801 206.065 18.2386C206.065 14.6122 206.79 11.4338 208.241 8.70332C209.691 5.97287 211.707 3.8397 214.288 2.30382C216.87 0.76794 219.856 0 223.248 0C226.725 0 229.754 0.778606 232.335 2.33582C234.916 3.89303 236.921 6.04753 238.351 8.79932C239.78 11.5298 240.494 14.6762 240.494 18.2386C240.494 21.8223 239.769 24.9901 238.319 27.7419C236.889 30.4723 234.884 32.6161 232.303 34.1734C229.722 35.7092 226.703 36.4772 223.248 36.4772ZM223.248 29.2457C226.32 29.2457 228.602 28.2218 230.095 26.174C231.588 24.1261 232.335 21.481 232.335 18.2386C232.335 14.8895 231.578 12.2231 230.063 10.2392C228.549 8.23403 226.277 7.23144 223.248 7.23144C221.179 7.23144 219.472 7.70074 218.128 8.63933C216.806 9.55659 215.824 10.8472 215.184 12.511C214.544 14.1536 214.224 16.0628 214.224 18.2386C214.224 21.5877 214.982 24.2648 216.496 26.27C218.032 28.2538 220.283 29.2457 223.248 29.2457Z" fill="white"/>
</svg>