<svg xmlns="http://www.w3.org/2000/svg" width="40" height="40" viewBox="0 0 40 40" fill="none">
  <g clip-path="url(#clip0_1427_8284)">
    <path d="M33.1498 34.7672C36.8388 31.2781 39.1408 26.3378 39.1408 20.8595C39.1408 10.2884 30.5712 1.71875 20.0001 1.71875C9.42899 1.71875 0.859375 10.2884 0.859375 20.8595C0.859375 31.4305 9.42899 40.0002 20.0001 40.0002C20.8284 40.0002 21.6445 39.9474 22.4452 39.8454L33.1498 34.7672Z" fill="#816AE2"/>
    <path d="M31.003 28.5596C30.835 27.9423 30.7758 27.3005 30.828 26.663L31.1405 23.7188C31.2931 21.8716 31.0116 20.0208 30.1938 18.3574C28.0809 14.0595 28.5656 13.7477 28.5 9.48211C28.5 8.61078 27.7936 7.9043 26.9222 7.9043C26.0508 7.9043 25.3444 8.6107 25.3444 9.48211C25.3444 26.8284 25.3766 25.5555 25.2697 26.0641V28.3355C25.2697 30.2492 23.7127 31.8063 21.799 31.8063C20.528 31.8063 16.1448 31.8063 13.1621 31.8063C14.489 33.6516 16.3042 35.0964 18.4108 35.9713C18.4238 35.9767 18.4369 35.9822 18.4499 35.9877C20.0775 36.6752 21.8948 38.0469 22.1984 39.7488L22.2278 39.8704C26.5138 39.3735 30.3678 37.4615 33.3106 34.6128L31.003 28.5596Z" fill="#F9BA8F"/>
    <path d="M7.3019 7.95967L6.82135 7.51444C6.08049 6.82803 4.91276 6.87256 4.22635 7.61334C3.53994 8.3542 3.58448 9.52194 4.32526 10.2083L7.3019 12.9664V7.95967Z" fill="#F9BA8F"/>
    <path d="M5.3019 8.82727C4.84744 8.40617 4.65627 7.80414 4.73385 7.23047C4.54838 7.32539 4.37565 7.45148 4.22635 7.6125C3.53994 8.35336 3.58448 9.52109 4.32526 10.2075L7.3019 12.9655V10.6805L5.3019 8.82727Z" fill="#FCAD6D"/>
    <path d="M31.1467 28.9375C30.4949 33.4317 26.627 36.8843 21.9521 36.8843C21.145 36.8843 20.362 36.7812 19.6155 36.5879C20.8532 37.3447 21.9667 38.4508 22.1984 39.7497L22.2277 39.8713C26.5138 39.3744 30.3677 37.4623 33.3106 34.6137L31.1467 28.9375Z" fill="#FD995B"/>
    <path d="M22.6261 31.8809H9.95152C8.4527 31.8809 7.2334 30.6615 7.2334 29.1627V2.7182C7.2334 1.21938 8.4527 0 9.95152 0H22.6261C24.125 0 25.3443 1.21938 25.3443 2.7182V29.1627C25.3443 30.6615 24.1249 31.8809 22.6261 31.8809Z" fill="#2A428C"/>
    <path d="M9.95152 0C8.4527 0 7.2334 1.21938 7.2334 2.71812V29.1627C7.2334 30.6615 8.45277 31.8809 9.95152 31.8809H13.73C12.8914 31.0254 13.8695 30.1897 13.8695 30.1897C12.4893 29.8276 12.6064 28.377 12.6064 28.377C12.6064 28.377 12.6064 6.20937 12.6064 4.82266C12.6064 3.43594 14.015 3.0857 14.015 3.0857C13.4602 2.53086 14.015 1.94781 14.015 1.94781V1.00836C13.5032 0.683984 13.604 0.242344 13.7154 0L9.95152 0Z" fill="#142766"/>
    <path d="M14.2866 1.94734H14.0152C13.7557 1.94734 13.5454 1.73703 13.5454 1.47758C13.5454 1.21813 13.7557 1.00781 14.0152 1.00781H14.2866C14.546 1.00781 14.7563 1.21813 14.7563 1.47758C14.7563 1.73703 14.546 1.94734 14.2866 1.94734Z" fill="#3C58A0"/>
    <path d="M18.4979 1.94734H15.8899C15.6305 1.94734 15.4202 1.73703 15.4202 1.47758C15.4202 1.21813 15.6305 1.00781 15.8899 1.00781H18.4979C18.7574 1.00781 18.9677 1.21813 18.9677 1.47758C18.9677 1.73703 18.7574 1.94734 18.4979 1.94734Z" fill="#3C58A0"/>
    <path d="M22.6262 1.69141H20.7213C20.3661 1.69141 20.0783 1.9793 20.0783 2.33437C20.0783 2.74773 19.7401 3.08602 19.3267 3.08602H13.2512C12.8378 3.08602 12.4996 2.74781 12.4996 2.33437C12.4996 1.9793 12.2117 1.69141 11.8566 1.69141H9.95159C9.3844 1.69141 8.92456 2.15125 8.92456 2.71844V29.163C8.92456 29.7302 9.3844 30.19 9.95159 30.19H22.6262C23.1934 30.19 23.6532 29.7302 23.6532 29.163C23.6532 26.4427 23.6532 3.44445 23.6532 2.71844C23.6532 2.15125 23.1934 1.69141 22.6262 1.69141Z" fill="#73C3F9"/>
    <path d="M13.8695 30.19C13.6742 29.3473 14.6517 29.1504 14.6517 29.1504C14.6517 29.1504 15.2734 23.7044 14.6517 23.0827C14.03 22.4609 14.6517 21.8738 14.6517 21.8738C14.6517 21.8738 15.3309 16.4854 14.6517 15.8061C13.9725 15.1269 14.6517 14.5973 14.6517 14.5973V8.52953C13.4351 7.76141 14.075 6.65617 14.075 6.65617V4.91594C13.1557 3.99664 14.0147 3.08633 14.015 3.08602H13.2511C12.8378 3.08602 12.4995 2.74781 12.4995 2.33438C12.4995 1.9793 12.2116 1.69141 11.8565 1.69141H9.95159C9.3844 1.69141 8.92456 2.15117 8.92456 2.71844V29.163C8.92456 29.7302 9.3844 30.1901 9.95159 30.1901H13.8695V30.19Z" fill="#4FABF7"/>
    <path d="M12.4678 6.65617H20.1099C20.5905 6.65617 20.98 6.26664 20.98 5.78609C20.98 5.30555 20.5905 4.91602 20.1099 4.91602H12.4678C11.9873 4.91602 11.5977 5.30555 11.5977 5.78609C11.5977 6.26672 11.9873 6.65617 12.4678 6.65617Z" fill="#E9EFFF"/>
    <path d="M12.468 4.91602H14.0752V6.65625H12.468C11.9874 6.65625 11.5979 6.26672 11.5979 5.78617C11.5978 5.30547 11.9874 4.91602 12.468 4.91602Z" fill="#9BD8F9"/>
    <path d="M21.6542 14.597H10.9235C10.4931 14.597 10.1409 14.2448 10.1409 13.8144V9.31195C10.1409 8.88148 10.4931 8.5293 10.9235 8.5293H21.6542C22.0847 8.5293 22.4369 8.88148 22.4369 9.31195V13.8144C22.4369 14.2448 22.0847 14.597 21.6542 14.597Z" fill="#E9EFFF"/>
    <path d="M21.6542 21.8744H10.9235C10.4931 21.8744 10.1409 21.5222 10.1409 21.0917V16.5893C10.1409 16.1588 10.4931 15.8066 10.9235 15.8066H21.6542C22.0847 15.8066 22.4369 16.1588 22.4369 16.5893V21.0917C22.4369 21.5222 22.0847 21.8744 21.6542 21.8744Z" fill="#E9EFFF"/>
    <path d="M21.6542 29.1498H10.9235C10.4931 29.1498 10.1409 28.7976 10.1409 28.3671V23.8647C10.1409 23.4342 10.4931 23.082 10.9235 23.082H21.6542C22.0847 23.082 22.4369 23.4342 22.4369 23.8647V28.3671C22.4369 28.7976 22.0847 29.1498 21.6542 29.1498Z" fill="#E9EFFF"/>
    <path d="M21.6542 14.597H10.9235C10.4931 14.597 10.1409 14.2448 10.1409 13.8144V9.31195C10.1409 8.88148 10.4931 8.5293 10.9235 8.5293H21.6542C22.0847 8.5293 22.4369 8.88148 22.4369 9.31195V13.8144C22.4369 14.2448 22.0847 14.597 21.6542 14.597Z" fill="#E9EFFF"/>
    <path d="M21.6542 21.8744H10.9235C10.4931 21.8744 10.1409 21.5222 10.1409 21.0917V16.5893C10.1409 16.1588 10.4931 15.8066 10.9235 15.8066H21.6542C22.0847 15.8066 22.4369 16.1588 22.4369 16.5893V21.0917C22.4369 21.5222 22.0847 21.8744 21.6542 21.8744Z" fill="#E9EFFF"/>
    <path d="M21.6542 29.1498H10.9235C10.4931 29.1498 10.1409 28.7976 10.1409 28.3671V23.8647C10.1409 23.4342 10.4931 23.082 10.9235 23.082H21.6542C22.0847 23.082 22.4369 23.4342 22.4369 23.8647V28.3671C22.4369 28.7976 22.0847 29.1498 21.6542 29.1498Z" fill="#E9EFFF"/>
    <path d="M13.869 13.8143V9.31195C13.869 8.88148 14.2212 8.5293 14.6517 8.5293H10.9235C10.4931 8.5293 10.1409 8.88148 10.1409 9.31195V13.8143C10.1409 14.2448 10.4931 14.597 10.9235 14.597H14.6517C14.2212 14.597 13.869 14.2448 13.869 13.8143Z" fill="#D3DCFB"/>
    <path d="M13.869 21.0917V16.5893C13.869 16.1588 14.2212 15.8066 14.6517 15.8066H10.9235C10.4931 15.8066 10.1409 16.1588 10.1409 16.5893V21.0917C10.1409 21.5222 10.4931 21.8744 10.9235 21.8744H14.6517C14.2212 21.8744 13.869 21.5222 13.869 21.0917Z" fill="#D3DCFB"/>
    <path d="M13.869 28.3671V23.8647C13.869 23.4342 14.2212 23.082 14.6517 23.082H10.9235C10.4931 23.082 10.1409 23.4342 10.1409 23.8647V28.3671C10.1409 28.7976 10.4931 29.1498 10.9235 29.1498H14.6517C14.2212 29.1498 13.869 28.7976 13.869 28.3671Z" fill="#D3DCFB"/>
    <path d="M15.8657 11.0449H12.7275C12.4039 11.0449 12.1416 10.7827 12.1416 10.459C12.1416 10.1353 12.4039 9.87305 12.7275 9.87305H15.8657C16.1893 9.87305 16.4517 10.1353 16.4517 10.459C16.4517 10.7826 16.1893 11.0449 15.8657 11.0449Z" fill="#3C58A0"/>
    <path d="M19.8501 13.252H12.7275C12.4039 13.252 12.1416 12.9897 12.1416 12.666C12.1416 12.3423 12.4039 12.0801 12.7275 12.0801H19.8501C20.1737 12.0801 20.4361 12.3423 20.4361 12.666C20.4361 12.9897 20.1737 13.252 19.8501 13.252Z" fill="#BEC8F7"/>
    <path d="M18.3138 11.0449H17.8711C17.5475 11.0449 17.2852 10.7827 17.2852 10.459C17.2852 10.1353 17.5475 9.87305 17.8711 9.87305H18.3138C18.6374 9.87305 18.8998 10.1353 18.8998 10.459C18.8998 10.7826 18.6375 11.0449 18.3138 11.0449Z" fill="#BEC8F7"/>
    <path d="M15.8657 18.3223H12.7275C12.4039 18.3223 12.1416 18.06 12.1416 17.7363C12.1416 17.4127 12.4039 17.1504 12.7275 17.1504H15.8657C16.1893 17.1504 16.4517 17.4127 16.4517 17.7363C16.4517 18.06 16.1893 18.3223 15.8657 18.3223Z" fill="#3C58A0"/>
    <path d="M19.8501 20.5293H12.7275C12.4039 20.5293 12.1416 20.267 12.1416 19.9434C12.1416 19.6197 12.4039 19.3574 12.7275 19.3574H19.8501C20.1737 19.3574 20.4361 19.6197 20.4361 19.9434C20.4361 20.267 20.1737 20.5293 19.8501 20.5293Z" fill="#BEC8F7"/>
    <path d="M18.3138 18.3223H17.8711C17.5475 18.3223 17.2852 18.06 17.2852 17.7363C17.2852 17.4127 17.5475 17.1504 17.8711 17.1504H18.3138C18.6374 17.1504 18.8998 17.4127 18.8998 17.7363C18.8998 18.06 18.6375 18.3223 18.3138 18.3223Z" fill="#BEC8F7"/>
    <path d="M15.8657 25.5996H12.7275C12.4039 25.5996 12.1416 25.3373 12.1416 25.0137C12.1416 24.69 12.4039 24.4277 12.7275 24.4277H15.8657C16.1893 24.4277 16.4517 24.69 16.4517 25.0137C16.4517 25.3373 16.1893 25.5996 15.8657 25.5996Z" fill="#3C58A0"/>
    <path d="M19.8501 27.8047H12.7275C12.4039 27.8047 12.1416 27.5424 12.1416 27.2188C12.1416 26.8951 12.4039 26.6328 12.7275 26.6328H19.8501C20.1737 26.6328 20.4361 26.8951 20.4361 27.2188C20.4361 27.5424 20.1737 27.8047 19.8501 27.8047Z" fill="#BEC8F7"/>
    <path d="M18.3138 25.5996H17.8711C17.5475 25.5996 17.2852 25.3373 17.2852 25.0137C17.2852 24.69 17.5475 24.4277 17.8711 24.4277H18.3138C18.6374 24.4277 18.8998 24.69 18.8998 25.0137C18.8998 25.3373 18.6375 25.5996 18.3138 25.5996Z" fill="#BEC8F7"/>
    <path d="M9.97423 17.6431C9.37025 18.2949 8.35228 18.3337 7.70048 17.7297L5.0054 15.2325C4.35361 14.6286 4.31478 13.6106 4.91876 12.9588C5.52275 12.307 6.54072 12.2681 7.19251 12.8721L9.88759 15.3693C10.5394 15.9733 10.5782 16.9913 9.97423 17.6431Z" fill="#F9BA8F"/>
    <path d="M8.80923 16.5959L6.11415 14.0987C5.66337 13.681 5.50626 13.0654 5.65165 12.5098C5.37993 12.5882 5.12501 12.7375 4.91876 12.9601C4.31478 13.6119 4.35361 14.6299 5.0054 15.2338L7.70048 17.731C8.35228 18.3349 9.37025 18.2962 9.97423 17.6444C10.1605 17.4434 10.2852 17.2073 10.35 16.9595C9.82603 17.1107 9.23845 16.9936 8.80923 16.5959Z" fill="#FCAD6D"/>
    <path d="M9.97423 26.4204C9.37025 27.0722 8.35228 27.111 7.70048 26.5071L5.0054 24.0099C4.35361 23.406 4.31478 22.3879 4.91876 21.7361C5.52275 21.0843 6.54072 21.0455 7.19251 21.6495L9.88759 24.1467C10.5394 24.7506 10.5782 25.7686 9.97423 26.4204Z" fill="#F9BA8F"/>
    <path d="M8.80923 25.3732L6.11415 22.876C5.66337 22.4584 5.50626 21.8427 5.65165 21.2871C5.37993 21.3655 5.12501 21.5148 4.91876 21.7374C4.31478 22.3892 4.35361 23.4073 5.0054 24.0112L7.70048 26.5084C8.35228 27.1123 9.37025 27.0735 9.97423 26.4217C10.1605 26.2207 10.2852 25.9847 10.35 25.7369C9.82603 25.8881 9.23845 25.7709 8.80923 25.3732Z" fill="#FCAD6D"/>
    <path d="M9.97423 22.0317C9.37025 22.6835 8.35228 22.7224 7.70048 22.1184L5.0054 19.6212C4.35361 19.0173 4.31478 17.9992 4.91876 17.3474C5.52275 16.6956 6.54072 16.6568 7.19251 17.2608L9.88759 19.758C10.5394 20.3619 10.5782 21.3799 9.97423 22.0317Z" fill="#F9BA8F"/>
    <path d="M8.80923 20.9845L6.11415 18.4873C5.66337 18.0697 5.50626 17.4541 5.65165 16.8984C5.37993 16.9769 5.12493 17.1262 4.91876 17.3487C4.31478 18.0005 4.35361 19.0185 5.0054 19.6225L7.70048 22.1197C8.35228 22.7237 9.37025 22.6848 9.97423 22.033C10.1605 21.832 10.2852 21.596 10.35 21.3482C9.82603 21.4995 9.23845 21.3823 8.80923 20.9845Z" fill="#FCAD6D"/>
    <path d="M32.9742 6.78711C31.9352 8.10867 30.9976 10.0074 31.7472 12.0795C33.1535 15.9664 35.3931 19.2662 34.3513 25.0121C33.8787 27.6193 35.4297 28.7122 37.2651 29.1283C38.4666 26.625 39.1408 23.8206 39.1408 20.8584C39.1409 15.2937 36.7654 10.2845 32.9742 6.78711Z" fill="#9181F2"/>
  </g>
  <defs>
    <clipPath id="clip0_1427_8284">
      <rect width="40" height="40" fill="white"/>
    </clipPath>
  </defs>
</svg>