<svg width="672" height="165" viewBox="0 0 672 165" fill="none" xmlns="http://www.w3.org/2000/svg">
<rect width="672" height="164.775" fill="white"/>
<path d="M179.826 68.4414H146.484C138.056 68.4414 131.851 74.3692 131.851 83.0752C131.851 91.6885 138.056 97.6162 146.484 97.6162H164.452V89.373H144.91V76.499H179.826V113.176H147.596C129.165 113.176 115.735 101.043 115.735 83.0752C115.735 65.1076 129.165 52.9746 147.596 52.9746H179.826V68.4414ZM224.86 52.9746C228.01 52.9746 230.418 54.4572 232.085 57.4209L254.93 98.8447C250.21 100.823 245.391 102.638 240.45 104.312L240.235 103.914H211.987L218.841 91.04H233.382L223.101 71.6836L201.059 113.176H183.184L213.932 57.4209C215.599 54.4572 218.007 52.9747 221.156 52.9746H224.86ZM262.833 113.176H245.236L244.604 112.004C249.947 110.967 255.152 109.798 260.239 108.473L262.833 113.176ZM282.177 113.176H266.062V106.871C271.56 105.277 276.924 103.486 282.177 101.463V113.176ZM331.235 72.9688C331.315 73.7876 331.356 74.6251 331.356 75.4805C331.356 84.6495 326.54 91.8733 319.038 95.4854L334.228 113.176H313.111L301.071 97.8936H290.779C304.824 91.6418 318.141 83.5428 331.235 72.9688ZM403.797 87.2432C403.797 102.617 392.22 113.176 376.29 113.176H362.953C347.023 113.176 335.446 102.617 335.446 87.2432V69.4766C340.897 64.8354 346.319 59.7516 351.747 54.1777V86.0391C351.747 92.9851 356.563 97.6162 363.231 97.6162H376.012C382.68 97.6162 387.496 92.9851 387.496 86.0391V52.9746H403.797V87.2432ZM445.283 52.9746C463.621 52.9747 477.051 65.1076 477.051 83.0752C477.051 101.043 463.621 113.176 445.283 113.176H410.645V52.9746H445.283ZM426.853 97.6162H446.395C454.823 97.6162 460.843 91.6885 460.843 83.0752C460.843 74.3692 454.823 68.4414 446.395 68.4414H426.853V97.6162ZM307.554 52.9746C311.899 52.9746 315.869 53.8756 319.268 55.5283C314.489 60.1741 309.718 64.4677 304.923 68.4414H282.177V84.8438C276.898 88.1113 271.539 91.0762 266.062 93.7773V52.9746H307.554Z" fill="#1F509A"/>
<path d="M325.613 28.5522C325.074 28.3326 324.123 28.5522 324.123 28.5522C324.123 28.5522 323.987 27.9226 324.123 27.5597C324.258 27.1994 324.439 27.0141 324.768 26.8153C325.156 26.5814 325.499 26.8049 325.91 26.6167C326.238 26.4668 326.318 26.1993 326.655 26.0708C327.108 25.8982 327.424 25.9632 327.897 26.0708C328.558 26.2216 329.386 26.9641 329.386 26.9641L333.259 29.8922C333.259 29.8922 334.779 30.9095 335.89 31.1825C337.534 31.586 338.582 31.2974 340.21 30.8351C342.283 30.2464 344.977 28.0559 344.977 28.0559C344.977 28.0559 348.516 27.7426 350.687 27.113C355.05 25.8474 357.434 24.841 360.766 21.3066C364.097 17.7723 365.511 15.7044 367.32 11.8774C367.707 15.1166 367.735 16.9312 367.568 20.1652C367.402 23.3992 366.982 25.9038 365.979 26.8649C364.976 27.826 364.244 28.1561 362.702 28.4033C361.16 28.6506 357.042 28.4033 357.042 28.4033C357.042 28.4033 359.537 29.3609 361.213 29.644C362.478 29.8579 364.49 29.8922 364.49 29.8922C363.311 32.2467 362.273 33.5021 359.822 35.6489C359.822 35.6489 357.01 35.9639 355.254 35.6489C353.217 35.2835 350.339 33.6638 350.339 33.6638C350.339 33.6638 352.073 35.2276 353.318 36.046C354.688 36.9463 357.042 37.9814 357.042 37.9814C354.724 39.7777 353.244 40.5476 350.14 41.3065L347.261 39.7184C346.136 39.0982 344.381 37.1378 344.381 37.1378C344.381 37.1378 345.186 38.4379 345.771 39.2221C346.634 40.3781 348.204 42.0013 348.204 42.0013C344.577 42.9665 342.524 43.3019 338.82 43.4901L336.586 40.2147C336.586 40.2147 336.55 40.8816 336.586 41.3065C337.088 47.2622 339.638 56.2962 339.366 56.294H337.976L336.437 51.7282L336.586 55.9962L334.302 55.3014L333.805 50.3387L333.011 54.6563L330.528 52.7704L331.372 50.3387L330.23 51.8771C330.23 51.8771 329.533 50.5581 329.287 49.6439C328.818 47.9033 329.287 45.0285 329.287 45.0285L330.23 40.4132L329.138 37.9814C329.138 37.9814 328.971 39.0617 328.741 39.7184C328.136 41.4453 325.96 43.4901 325.96 43.4901C322.415 43.2817 320.433 43.0516 316.924 42.0013L320.747 37.1378C320.747 37.1378 318.946 38.8538 317.619 39.7184C316.5 40.4475 314.59 41.3065 314.59 41.3065C311.817 40.3946 310.374 39.6817 308.036 37.9814C308.036 37.9814 309.509 37.2939 310.419 36.7904C312.278 35.7625 314.937 33.7631 314.937 33.7631L308.632 35.9467H304.958C302.808 33.7346 301.789 32.4506 300.489 30.041C300.489 30.041 302.379 29.9615 303.567 29.7433C305.142 29.454 307.49 28.5522 307.49 28.5522C307.49 28.5522 304.985 28.8235 303.418 28.5522C301.549 28.2285 298.9 26.7656 298.9 26.7656C298.9 26.7656 297.605 22.3718 297.361 19.4704C297.107 16.4546 297.708 11.7285 297.708 11.7285C297.708 11.7285 298.948 14.6754 300.042 16.3935C301.761 19.0911 303.014 20.4893 305.504 22.4977C308.192 24.6658 309.977 25.6591 313.249 26.7656C315.811 27.6318 320.052 28.0559 320.052 28.0559C320.052 28.0559 322.285 30.262 324.123 30.8351C325.352 31.2182 327.4 31.1825 327.4 31.1825C327.4 31.1825 327.075 30.1084 326.655 29.5448C326.32 29.0939 326.133 28.7645 325.613 28.5522Z" fill="#1F509A"/>
<g clip-path="url(#clip0_1897_6527)">
<path d="M61.7495 38.1172V51.0215C61.6901 51.0211 61.6303 51.0195 61.5708 51.0195C46.4264 51.0197 34.1491 63.297 34.1489 78.4414C34.1489 93.586 46.4263 105.863 61.5708 105.863C74.4286 105.863 85.2174 97.0137 88.1831 85.0732H101.434C96.7039 111.995 65.3912 143.586 63.9575 145.025C63.2967 145.679 62.4338 146.011 61.5708 146.011C60.7077 146.011 59.8449 145.679 59.1841 145.025C57.6331 143.468 21.1105 106.622 21.1099 78.5762C21.1099 56.2621 39.2568 38.1153 61.5708 38.1152C61.6303 38.1152 61.69 38.1169 61.7495 38.1172Z" fill="#1F509A"/>
<g clip-path="url(#clip1_1897_6527)">
<path d="M61.3814 56.8789C60.9211 56.8789 60.4641 56.8934 60.011 56.9218L42.1048 68.8371C40.6769 71.7142 39.874 74.9565 39.874 78.3863C39.874 84.6768 42.5746 90.3366 46.8798 94.2695C46.8798 94.2695 53.889 99.0906 61.3814 99.0906C71.4063 99.0906 81.8346 90.2645 81.8346 78.3863C81.8346 64.3024 68.4345 58.0621 68.4345 58.0621C66.225 57.2954 63.8518 56.8789 61.3814 56.8789Z" fill="#008CDF"/>
<path d="M82.6782 75.3647L77.4642 74.7695C77.4642 86.6477 67.835 96.2769 55.9568 96.2769C52.7128 96.2769 49.6381 95.5553 46.8799 94.2692C48.5497 95.7947 50.461 97.0603 52.5498 98.0022L53.8162 97.9316L55.4221 99.0567C57.3145 99.6013 59.3139 99.8933 61.3816 99.8933C73.2598 99.8933 82.8889 90.2642 82.8889 78.386C82.8889 77.3604 82.8171 76.3518 82.6782 75.3647Z" fill="#0069D0"/>
<path d="M70.4814 58.8931C69.8171 58.5825 69.1342 58.305 68.4349 58.0625L66.5327 59.7354C66.0118 60.1808 65.8872 60.9492 66.2703 61.5443C66.6387 62.1165 67.3835 62.3161 68.0103 62.0514L68.3953 61.8887C68.868 61.6891 69.4218 61.7613 69.8051 62.1027C70.4824 62.7061 70.3644 63.7725 69.6044 64.2222L65.1375 66.8653C64.265 67.3816 63.7109 68.3201 63.729 69.3337C63.7478 70.3866 64.3378 71.2441 65.5234 71.3533C67.9767 71.5793 67.6235 68.9799 69.0645 68.9799H74.0067C74.7589 68.9799 75.4113 69.5424 75.4765 70.2919C75.5508 71.1458 74.8796 71.8618 74.0411 71.8618H68.1149C65.8098 71.8618 63.7997 73.6381 63.7305 75.9422C63.659 78.3263 65.5703 80.2815 67.9383 80.2815H68.5411C69.6905 80.2815 70.6224 81.2133 70.6224 82.3628V89.7592C70.6224 89.9788 70.661 90.1953 70.7335 90.3973L72.474 90.3598L77.8935 81.5464L78.59 76.4954L80.3568 73.9373C80.3569 73.9374 76.9415 61.9127 70.4814 58.8931Z" fill="#98DB7C"/>
<path d="M82.678 75.3649C81.6511 68.0528 76.9317 61.915 70.481 58.8926C74.7678 62.8242 77.464 68.4944 77.464 74.7697C77.464 80.9286 74.8818 86.4759 70.7331 90.3968C70.9874 91.1234 71.7086 91.6279 72.5467 91.5082C73.0812 91.4318 73.5351 91.0722 73.8014 90.6025L78.9345 81.5513C79.389 80.75 79.506 79.8009 79.2599 78.9132L78.8619 77.4777C78.7311 77.006 79.1169 76.5508 79.6037 76.6025L79.8868 76.6325C80.6487 76.7133 81.4099 76.4728 81.9871 75.9688L82.678 75.3649Z" fill="#77CC7D"/>
<path d="M61.1812 58.7804L60.0116 56.9219C52.145 57.4154 45.431 62.133 42.1055 68.8371L43.4608 78.1999C43.6128 79.2508 44.2379 80.1742 45.1571 80.7059C45.6859 81.0117 45.9172 81.6542 45.7049 82.2269L45.2422 83.4752C44.8258 84.5985 45.1772 85.8621 46.1137 86.6091L47.3494 87.595C47.7721 87.9322 48.1101 88.3636 48.3365 88.8548L51.5475 95.8228L53.4244 97.1473L54.7497 96.2436L54.2691 94.2351C53.998 93.102 54.1432 91.9092 54.6783 90.8744L56.7625 86.8437C57.3365 85.7334 56.8096 84.3712 55.6378 83.9364L53.9255 83.3009C53.3816 83.0991 53.0208 82.5802 53.0208 82.0001V81.8665C53.0208 81.1001 52.3995 80.4789 51.6332 80.4789H48.6566C47.9271 80.4789 47.2105 80.2873 46.5784 79.9231L45.8523 79.5048C45.3007 79.187 44.9255 78.6336 44.8345 78.0036L44.7881 77.6827C44.6713 76.8753 45.0371 76.0742 45.7236 75.6334L46.1503 75.3594C46.6672 75.0275 47.3408 75.075 47.8061 75.4761L48.1864 75.804C48.6495 76.2032 49.3711 75.9666 49.5079 75.3707L49.9135 73.6033C50.1296 72.6617 50.8199 71.9002 51.736 71.5929L54.7295 70.589C55.5845 70.3022 55.9431 69.2891 55.459 68.5285L54.0982 66.3901C53.7242 65.8025 52.9727 65.5831 52.3413 65.8773L51.2175 66.4012C50.6362 66.6722 49.9119 66.556 49.5195 66.0486C49.0134 65.3942 49.2168 64.4539 49.9309 64.0619L52.7553 62.5112C53.6922 61.9968 54.8665 62.2756 55.472 63.1563L55.7345 63.538C56.1226 64.1028 56.764 64.4401 57.4493 64.4401H58.7202C59.5628 64.4401 60.3222 63.9322 60.6439 63.1536L61.4003 61.3228C61.7443 60.49 61.6626 59.5421 61.1812 58.7804Z" fill="#98DB7C"/>
<path d="M52.5501 98.0039C53.475 98.4212 54.4335 98.7738 55.4224 99.0585L54.7494 96.245C53.6563 96.1842 52.5907 96.0427 51.5474 95.8242L52.5501 98.0039Z" fill="#77CC7D"/>
</g>
</g>
<path d="M121.628 138.035C120.486 138.035 119.51 137.842 118.701 137.455C117.892 137.06 117.271 136.498 116.84 135.769C116.408 135.041 116.192 134.174 116.192 133.166C116.192 132.375 116.327 131.678 116.597 131.076C116.867 130.474 117.24 129.97 117.716 129.565C118.202 129.152 118.764 128.842 119.402 128.635C120.041 128.428 120.724 128.325 121.452 128.325C121.875 128.325 122.302 128.365 122.734 128.446C123.165 128.527 123.588 128.644 124.001 128.797L124.433 128.972L124.123 130.334L123.61 130.226C123.233 130.145 122.864 130.082 122.504 130.038C122.154 129.984 121.821 129.957 121.506 129.957C120.823 129.957 120.216 130.073 119.686 130.307C119.164 130.541 118.75 130.896 118.445 131.373C118.148 131.84 118 132.443 118 133.18C118 133.908 118.144 134.52 118.431 135.014C118.719 135.5 119.137 135.868 119.686 136.12C120.234 136.363 120.895 136.484 121.668 136.484C121.929 136.484 122.203 136.466 122.491 136.43C122.779 136.394 123.066 136.34 123.354 136.268V134.111H120.791V132.56H125.121V137.172C124.806 137.334 124.455 137.482 124.069 137.617C123.682 137.743 123.282 137.842 122.868 137.914C122.455 137.995 122.041 138.035 121.628 138.035ZM169.838 137.9L173.506 128.46H175.556L179.252 137.9H177.309L174.545 130.348H174.504L171.672 137.9H169.838ZM172.117 136.026V134.475H176.918V136.026H172.117ZM331.704 137.9V128.46H335.925C336.608 128.46 337.197 128.576 337.692 128.81C338.195 129.035 338.586 129.363 338.865 129.795C339.144 130.226 339.283 130.748 339.283 131.359C339.283 131.872 339.189 132.321 339 132.708C338.811 133.086 338.546 133.4 338.204 133.652C337.863 133.895 337.454 134.079 336.977 134.205C336.51 134.331 335.993 134.394 335.426 134.394H333.47V137.9H331.704ZM337.8 137.9L335.507 134.111L337.179 133.76L339.769 137.9H337.8ZM333.47 132.843H335.777C336.325 132.843 336.748 132.717 337.044 132.465C337.35 132.213 337.503 131.849 337.503 131.373C337.503 130.905 337.35 130.564 337.044 130.348C336.748 130.123 336.316 130.011 335.75 130.011H333.47V132.843ZM515.501 138.035C514.656 138.035 513.923 137.887 513.303 137.59C512.682 137.293 512.201 136.853 511.859 136.268C511.527 135.684 511.36 134.969 511.36 134.124V128.46H513.127V133.827C513.127 134.762 513.338 135.419 513.761 135.796C514.193 136.174 514.791 136.363 515.555 136.363C516.328 136.363 516.921 136.174 517.335 135.796C517.749 135.419 517.955 134.762 517.955 133.827V128.46H519.655V134.124C519.655 134.969 519.48 135.684 519.129 136.268C518.787 136.853 518.306 137.293 517.686 137.59C517.065 137.887 516.337 138.035 515.501 138.035ZM554.277 137.9V128.46H557.797C558.795 128.46 559.667 128.644 560.414 129.013C561.16 129.372 561.74 129.903 562.154 130.604C562.567 131.305 562.774 132.168 562.774 133.193C562.774 134.174 562.567 135.019 562.154 135.729C561.74 136.43 561.151 136.97 560.387 137.347C559.623 137.716 558.719 137.9 557.676 137.9H554.277ZM556.044 136.349H557.743C558.445 136.349 559.034 136.228 559.51 135.985C559.987 135.733 560.346 135.374 560.589 134.906C560.841 134.439 560.967 133.868 560.967 133.193C560.967 132.474 560.845 131.881 560.603 131.413C560.369 130.937 560.014 130.586 559.537 130.361C559.061 130.127 558.463 130.011 557.743 130.011H556.044V136.349Z" fill="#E38E49"/>
<path d="M127.016 137.9V128.46H128.783V137.9H127.016ZM134.041 138.035C133.529 138.035 133.043 137.999 132.584 137.927C132.126 137.855 131.699 137.766 131.303 137.658L130.494 137.428L130.777 136.08L131.748 136.242C132.081 136.304 132.459 136.358 132.881 136.403C133.304 136.439 133.686 136.457 134.028 136.457C134.666 136.457 135.143 136.358 135.457 136.161C135.781 135.954 135.943 135.653 135.943 135.257C135.943 135.059 135.889 134.888 135.781 134.744C135.682 134.592 135.48 134.443 135.174 134.299C134.868 134.156 134.41 133.994 133.798 133.814C133.043 133.589 132.441 133.364 131.991 133.14C131.55 132.915 131.231 132.64 131.033 132.317C130.845 131.993 130.75 131.575 130.75 131.063C130.75 130.415 130.912 129.894 131.236 129.498C131.568 129.093 132.014 128.797 132.571 128.608C133.137 128.419 133.767 128.325 134.459 128.325C134.864 128.325 135.282 128.356 135.713 128.419C136.154 128.482 136.586 128.572 137.008 128.689L137.575 128.837L137.318 130.172L136.523 130.064C136.217 130.02 135.893 129.979 135.552 129.943C135.21 129.898 134.877 129.876 134.554 129.876C133.888 129.876 133.385 129.975 133.043 130.172C132.71 130.361 132.544 130.653 132.544 131.049C132.544 131.247 132.598 131.413 132.706 131.548C132.823 131.674 133.043 131.795 133.367 131.912C133.69 132.029 134.167 132.177 134.796 132.357C135.543 132.555 136.132 132.775 136.563 133.018C137.004 133.261 137.318 133.549 137.507 133.881C137.696 134.205 137.79 134.605 137.79 135.082C137.79 135.756 137.624 136.313 137.291 136.754C136.959 137.186 136.509 137.509 135.943 137.725C135.376 137.932 134.742 138.035 134.041 138.035ZM144.846 138.008C144.477 138.008 144.126 137.941 143.794 137.806C143.461 137.662 143.191 137.446 142.984 137.159C142.778 136.871 142.674 136.511 142.674 136.08C142.674 135.504 142.858 135.05 143.227 134.717C143.596 134.376 144.117 134.138 144.792 134.003L146.855 133.571V133.544C146.855 133.149 146.734 132.861 146.491 132.681C146.248 132.501 145.875 132.411 145.372 132.411C145.084 132.411 144.787 132.429 144.481 132.465C144.185 132.501 143.906 132.546 143.645 132.6L143.335 132.667L143.052 131.548L143.389 131.427C143.839 131.265 144.257 131.143 144.643 131.063C145.039 130.982 145.43 130.941 145.817 130.941C146.626 130.941 147.282 131.157 147.786 131.589C148.289 132.02 148.541 132.672 148.541 133.544V136.053C148.541 136.331 148.604 136.52 148.73 136.619C148.865 136.709 149.139 136.772 149.553 136.808L149.458 137.927C149.341 137.954 149.229 137.972 149.121 137.981C149.013 137.999 148.919 138.008 148.838 138.008C148.37 138.008 147.997 137.905 147.718 137.698C147.449 137.482 147.246 137.222 147.111 136.916L146.801 137.199C146.504 137.469 146.181 137.671 145.83 137.806C145.488 137.941 145.16 138.008 144.846 138.008ZM145.358 136.592C145.538 136.592 145.731 136.556 145.938 136.484C146.145 136.412 146.352 136.304 146.558 136.161L146.855 135.958V134.569L145.034 135.082C144.774 135.154 144.589 135.257 144.481 135.392C144.374 135.527 144.32 135.684 144.32 135.864C144.32 136.098 144.409 136.277 144.589 136.403C144.769 136.529 145.025 136.592 145.358 136.592ZM150.627 137.9V131.049H151.922L152.043 131.75L152.488 131.508C152.821 131.328 153.154 131.188 153.486 131.09C153.819 130.991 154.147 130.941 154.471 130.941C155.019 130.941 155.465 131.045 155.806 131.251C156.148 131.458 156.4 131.737 156.561 132.088C156.732 132.438 156.818 132.834 156.818 133.274V137.9H155.118V133.692C155.118 133.297 155.019 132.996 154.822 132.789C154.624 132.582 154.3 132.479 153.851 132.479C153.662 132.479 153.477 132.506 153.298 132.56C153.127 132.605 152.947 132.672 152.758 132.762L152.327 132.951V137.9H150.627ZM161.279 138.008C160.785 138.008 160.349 137.914 159.971 137.725C159.602 137.527 159.292 137.262 159.04 136.929C158.789 136.597 158.595 136.219 158.46 135.796C158.335 135.374 158.272 134.933 158.272 134.475C158.272 133.998 158.335 133.549 158.46 133.126C158.595 132.703 158.793 132.33 159.054 132.007C159.315 131.674 159.629 131.413 159.998 131.224C160.376 131.036 160.807 130.941 161.293 130.941C161.535 130.941 161.796 130.973 162.075 131.036C162.354 131.089 162.619 131.175 162.871 131.292L163.275 131.467V127.947L164.975 127.515V137.9H163.693L163.558 137.064L163.14 137.347C162.844 137.545 162.538 137.707 162.223 137.833C161.909 137.95 161.594 138.008 161.279 138.008ZM159.998 134.461C159.998 134.893 160.061 135.266 160.187 135.581C160.322 135.886 160.519 136.12 160.78 136.282C161.041 136.444 161.369 136.525 161.765 136.525C161.918 136.525 162.084 136.502 162.264 136.457C162.444 136.403 162.628 136.318 162.817 136.201L163.275 135.918V132.843L162.817 132.64C162.646 132.569 162.471 132.515 162.291 132.479C162.12 132.434 161.949 132.411 161.778 132.411C161.428 132.411 161.117 132.488 160.848 132.64C160.578 132.784 160.367 133.009 160.214 133.315C160.07 133.612 159.998 133.994 159.998 134.461ZM180.327 137.9V131.049H181.568L181.744 131.885L182.256 131.521C182.517 131.341 182.796 131.202 183.092 131.103C183.389 130.995 183.672 130.941 183.942 130.941C184.041 130.941 184.14 130.959 184.239 130.995C184.347 131.022 184.45 131.072 184.549 131.143V132.492C184.27 132.501 184 132.528 183.74 132.573C183.488 132.618 183.2 132.703 182.876 132.829L182.027 133.14V137.9H180.327ZM188.531 138.008C187.856 138.008 187.344 137.86 186.993 137.563C186.643 137.267 186.467 136.785 186.467 136.12V132.533H184.997V131.346L186.467 131.049V129.458L188.167 128.945V131.049H190.298V132.533H188.167V135.581C188.167 135.904 188.221 136.147 188.329 136.309C188.445 136.471 188.711 136.552 189.124 136.552C189.241 136.552 189.363 136.547 189.488 136.538C189.614 136.529 189.749 136.516 189.893 136.498L190.244 136.457L190.432 137.685L190.122 137.766C189.871 137.828 189.601 137.882 189.313 137.927C189.034 137.981 188.774 138.008 188.531 138.008ZM191.667 137.9V131.049H193.367V137.9H191.667ZM192.517 129.714C192.319 129.714 192.135 129.664 191.964 129.565C191.793 129.467 191.658 129.336 191.56 129.174C191.461 129.013 191.411 128.833 191.411 128.635C191.411 128.446 191.461 128.271 191.56 128.109C191.658 127.947 191.793 127.821 191.964 127.731C192.135 127.632 192.319 127.583 192.517 127.583C192.724 127.583 192.908 127.632 193.07 127.731C193.241 127.821 193.376 127.947 193.475 128.109C193.574 128.271 193.623 128.446 193.623 128.635C193.623 128.833 193.574 129.013 193.475 129.174C193.376 129.336 193.241 129.467 193.07 129.565C192.908 129.664 192.724 129.714 192.517 129.714ZM195.924 137.9V132.533H194.441V131.346L195.924 131.049V129.889C195.924 129.35 196.028 128.918 196.234 128.594C196.441 128.262 196.725 128.019 197.084 127.866C197.444 127.713 197.857 127.637 198.325 127.637C198.559 127.637 198.806 127.659 199.067 127.704C199.327 127.749 199.588 127.808 199.849 127.88L199.997 127.92L199.768 129.228L199.593 129.201C199.449 129.183 199.314 129.165 199.188 129.147C199.062 129.129 198.945 129.12 198.837 129.12C198.451 129.12 198.15 129.192 197.934 129.336C197.727 129.48 197.624 129.727 197.624 130.078V131.049H199.701V132.533H197.624V137.9H195.924ZM200.968 137.9V131.049H202.668V137.9H200.968ZM201.818 129.714C201.62 129.714 201.436 129.664 201.265 129.565C201.094 129.467 200.959 129.336 200.861 129.174C200.762 129.013 200.712 128.833 200.712 128.635C200.712 128.446 200.762 128.271 200.861 128.109C200.959 127.947 201.094 127.821 201.265 127.731C201.436 127.632 201.62 127.583 201.818 127.583C202.025 127.583 202.209 127.632 202.371 127.731C202.542 127.821 202.677 127.947 202.776 128.109C202.875 128.271 202.924 128.446 202.924 128.635C202.924 128.833 202.875 129.013 202.776 129.174C202.677 129.336 202.542 129.467 202.371 129.565C202.209 129.664 202.025 129.714 201.818 129.714ZM207.731 138.008C207.066 138.008 206.468 137.873 205.937 137.604C205.407 137.325 204.989 136.925 204.683 136.403C204.377 135.873 204.225 135.23 204.225 134.475C204.225 133.719 204.382 133.081 204.697 132.56C205.02 132.029 205.447 131.629 205.978 131.359C206.508 131.081 207.097 130.941 207.745 130.941C208.059 130.941 208.361 130.973 208.648 131.036C208.945 131.089 209.215 131.166 209.457 131.265L209.835 131.413L209.525 132.654L209.066 132.546C208.869 132.501 208.671 132.47 208.473 132.452C208.275 132.434 208.091 132.425 207.92 132.425C207.533 132.425 207.192 132.506 206.895 132.667C206.598 132.82 206.364 133.05 206.194 133.355C206.032 133.652 205.951 134.025 205.951 134.475C205.951 134.915 206.036 135.288 206.207 135.594C206.378 135.9 206.612 136.129 206.908 136.282C207.214 136.435 207.56 136.511 207.947 136.511C208.127 136.511 208.32 136.502 208.527 136.484C208.743 136.457 208.963 136.421 209.188 136.376L209.606 136.282L209.93 137.496L209.579 137.644C209.273 137.77 208.958 137.86 208.635 137.914C208.32 137.977 208.019 138.008 207.731 138.008ZM211.173 137.9V131.049H212.873V137.9H211.173ZM212.023 129.714C211.825 129.714 211.641 129.664 211.47 129.565C211.299 129.467 211.164 129.336 211.066 129.174C210.967 129.013 210.917 128.833 210.917 128.635C210.917 128.446 210.967 128.271 211.066 128.109C211.164 127.947 211.299 127.821 211.47 127.731C211.641 127.632 211.825 127.583 212.023 127.583C212.23 127.583 212.414 127.632 212.576 127.731C212.747 127.821 212.882 127.947 212.981 128.109C213.08 128.271 213.129 128.446 213.129 128.635C213.129 128.833 213.08 129.013 212.981 129.174C212.882 129.336 212.747 129.467 212.576 129.565C212.414 129.664 212.23 129.714 212.023 129.714ZM216.455 138.008C216.087 138.008 215.736 137.941 215.403 137.806C215.071 137.662 214.801 137.446 214.594 137.159C214.387 136.871 214.284 136.511 214.284 136.08C214.284 135.504 214.468 135.05 214.837 134.717C215.205 134.376 215.727 134.138 216.401 134.003L218.465 133.571V133.544C218.465 133.149 218.343 132.861 218.101 132.681C217.858 132.501 217.485 132.411 216.981 132.411C216.694 132.411 216.397 132.429 216.091 132.465C215.794 132.501 215.516 132.546 215.255 132.6L214.945 132.667L214.662 131.548L214.999 131.427C215.448 131.265 215.866 131.143 216.253 131.063C216.649 130.982 217.04 130.941 217.426 130.941C218.236 130.941 218.892 131.157 219.395 131.589C219.899 132.02 220.151 132.672 220.151 133.544V136.053C220.151 136.331 220.214 136.52 220.34 136.619C220.474 136.709 220.749 136.772 221.162 136.808L221.068 137.927C220.951 137.954 220.839 137.972 220.731 137.981C220.623 137.999 220.528 138.008 220.447 138.008C219.98 138.008 219.607 137.905 219.328 137.698C219.058 137.482 218.856 137.222 218.721 136.916L218.411 137.199C218.114 137.469 217.79 137.671 217.44 137.806C217.098 137.941 216.77 138.008 216.455 138.008ZM216.968 136.592C217.148 136.592 217.341 136.556 217.548 136.484C217.755 136.412 217.961 136.304 218.168 136.161L218.465 135.958V134.569L216.644 135.082C216.383 135.154 216.199 135.257 216.091 135.392C215.983 135.527 215.929 135.684 215.929 135.864C215.929 136.098 216.019 136.277 216.199 136.403C216.379 136.529 216.635 136.592 216.968 136.592ZM224.139 138.008C223.437 138.008 222.934 137.846 222.628 137.523C222.322 137.199 222.17 136.776 222.17 136.255V127.947L223.869 127.515V135.877C223.869 136.084 223.927 136.246 224.044 136.363C224.17 136.471 224.377 136.525 224.665 136.525C224.737 136.525 224.817 136.525 224.907 136.525C224.997 136.516 225.087 136.507 225.177 136.498L225.137 137.806C224.975 137.869 224.804 137.918 224.624 137.954C224.453 137.99 224.291 138.008 224.139 138.008ZM230.153 137.9V131.049H231.852V137.9H230.153ZM231.002 129.714C230.804 129.714 230.62 129.664 230.449 129.565C230.278 129.467 230.144 129.336 230.045 129.174C229.946 129.013 229.896 128.833 229.896 128.635C229.896 128.446 229.946 128.271 230.045 128.109C230.144 127.947 230.278 127.821 230.449 127.731C230.62 127.632 230.804 127.583 231.002 127.583C231.209 127.583 231.393 127.632 231.555 127.731C231.726 127.821 231.861 127.947 231.96 128.109C232.059 128.271 232.108 128.446 232.108 128.635C232.108 128.833 232.059 129.013 231.96 129.174C231.861 129.336 231.726 129.467 231.555 129.565C231.393 129.664 231.209 129.714 231.002 129.714ZM233.735 137.9V131.049H235.03L235.151 131.75L235.596 131.508C235.929 131.328 236.262 131.188 236.594 131.09C236.927 130.991 237.255 130.941 237.579 130.941C238.127 130.941 238.572 131.045 238.914 131.251C239.256 131.458 239.507 131.737 239.669 132.088C239.84 132.438 239.926 132.834 239.926 133.274V137.9H238.226V133.692C238.226 133.297 238.127 132.996 237.929 132.789C237.732 132.582 237.408 132.479 236.958 132.479C236.77 132.479 236.585 132.506 236.405 132.56C236.235 132.605 236.055 132.672 235.866 132.762L235.434 132.951V137.9H233.735ZM244.441 138.008C243.767 138.008 243.254 137.86 242.903 137.563C242.553 137.267 242.377 136.785 242.377 136.12V132.533H240.907V131.346L242.377 131.049V129.458L244.077 128.945V131.049H246.208V132.533H244.077V135.581C244.077 135.904 244.131 136.147 244.239 136.309C244.356 136.471 244.621 136.552 245.034 136.552C245.151 136.552 245.273 136.547 245.399 136.538C245.524 136.529 245.659 136.516 245.803 136.498L246.154 136.457L246.343 137.685L246.032 137.766C245.781 137.828 245.511 137.882 245.223 137.927C244.944 137.981 244.684 138.008 244.441 138.008ZM250.725 138.008C250.059 138.008 249.448 137.873 248.891 137.604C248.333 137.334 247.884 136.938 247.542 136.417C247.209 135.886 247.043 135.243 247.043 134.488C247.043 133.949 247.133 133.463 247.313 133.032C247.492 132.591 247.744 132.218 248.068 131.912C248.392 131.598 248.76 131.359 249.174 131.197C249.596 131.027 250.046 130.941 250.522 130.941C251.206 130.941 251.781 131.089 252.249 131.386C252.716 131.683 253.067 132.092 253.301 132.614C253.544 133.135 253.665 133.728 253.665 134.394V134.933H248.81C248.873 135.302 248.998 135.603 249.187 135.837C249.376 136.071 249.619 136.246 249.916 136.363C250.212 136.471 250.545 136.525 250.914 136.525C251.147 136.525 251.39 136.507 251.642 136.471C251.894 136.426 252.145 136.367 252.397 136.295L253.004 136.12L253.463 137.24L252.937 137.496C252.577 137.667 252.208 137.797 251.831 137.887C251.453 137.968 251.084 138.008 250.725 138.008ZM248.864 133.692H252.046C251.975 133.279 251.813 132.96 251.561 132.735C251.309 132.501 250.963 132.384 250.522 132.384C250.235 132.384 249.979 132.438 249.754 132.546C249.538 132.645 249.354 132.793 249.201 132.991C249.048 133.189 248.936 133.423 248.864 133.692ZM256.987 138.008C256.285 138.008 255.782 137.846 255.476 137.523C255.17 137.199 255.018 136.776 255.018 136.255V127.947L256.717 127.515V135.877C256.717 136.084 256.775 136.246 256.892 136.363C257.018 136.471 257.225 136.525 257.513 136.525C257.585 136.525 257.665 136.525 257.755 136.525C257.845 136.516 257.935 136.507 258.025 136.498L257.985 137.806C257.823 137.869 257.652 137.918 257.472 137.954C257.301 137.99 257.139 138.008 256.987 138.008ZM261.122 138.008C260.421 138.008 259.917 137.846 259.612 137.523C259.306 137.199 259.153 136.776 259.153 136.255V127.947L260.853 127.515V135.877C260.853 136.084 260.911 136.246 261.028 136.363C261.154 136.471 261.361 136.525 261.648 136.525C261.72 136.525 261.801 136.525 261.891 136.525C261.981 136.516 262.071 136.507 262.161 136.498L262.12 137.806C261.958 137.869 261.788 137.918 261.608 137.954C261.437 137.99 261.275 138.008 261.122 138.008ZM263.356 137.9V131.049H265.056V137.9H263.356ZM264.206 129.714C264.008 129.714 263.824 129.664 263.653 129.565C263.482 129.467 263.347 129.336 263.248 129.174C263.149 129.013 263.1 128.833 263.1 128.635C263.1 128.446 263.149 128.271 263.248 128.109C263.347 127.947 263.482 127.821 263.653 127.731C263.824 127.632 264.008 127.583 264.206 127.583C264.413 127.583 264.597 127.632 264.759 127.731C264.93 127.821 265.065 127.947 265.163 128.109C265.262 128.271 265.312 128.446 265.312 128.635C265.312 128.833 265.262 129.013 265.163 129.174C265.065 129.336 264.93 129.467 264.759 129.565C264.597 129.664 264.413 129.714 264.206 129.714ZM270 140.719C269.668 140.719 269.299 140.688 268.894 140.625C268.49 140.562 268.103 140.476 267.734 140.368L267.276 140.234L267.573 138.993L268.031 139.074C268.301 139.119 268.593 139.159 268.908 139.195C269.222 139.231 269.51 139.249 269.771 139.249C270.346 139.249 270.791 139.155 271.106 138.966C271.43 138.786 271.592 138.449 271.592 137.954V137.132L271.201 137.293C270.949 137.401 270.684 137.487 270.405 137.55C270.126 137.604 269.865 137.631 269.623 137.631C269.137 137.631 268.705 137.541 268.328 137.361C267.959 137.181 267.644 136.938 267.384 136.633C267.123 136.318 266.925 135.958 266.79 135.554C266.664 135.149 266.602 134.726 266.602 134.286C266.602 133.71 266.714 133.171 266.939 132.667C267.172 132.155 267.51 131.741 267.95 131.427C268.4 131.103 268.953 130.941 269.609 130.941C269.924 130.941 270.238 131 270.553 131.116C270.868 131.233 271.174 131.395 271.47 131.602L271.875 131.885L272.037 131.049H273.291V137.86C273.291 138.525 273.152 139.069 272.873 139.492C272.603 139.914 272.221 140.225 271.727 140.422C271.232 140.62 270.657 140.719 270 140.719ZM268.328 134.299C268.328 134.695 268.4 135.028 268.544 135.297C268.696 135.558 268.908 135.756 269.178 135.891C269.447 136.017 269.757 136.08 270.108 136.08C270.279 136.08 270.454 136.062 270.634 136.026C270.814 135.99 270.989 135.945 271.16 135.891L271.592 135.742V133.072L271.214 132.856C270.998 132.73 270.796 132.64 270.607 132.587C270.427 132.533 270.256 132.506 270.095 132.506C269.717 132.506 269.393 132.582 269.124 132.735C268.863 132.879 268.665 133.086 268.53 133.355C268.395 133.625 268.328 133.94 268.328 134.299ZM278.528 138.008C277.863 138.008 277.252 137.873 276.694 137.604C276.137 137.334 275.687 136.938 275.345 136.417C275.013 135.886 274.846 135.243 274.846 134.488C274.846 133.949 274.936 133.463 275.116 133.032C275.296 132.591 275.548 132.218 275.871 131.912C276.195 131.598 276.564 131.359 276.977 131.197C277.4 131.027 277.85 130.941 278.326 130.941C279.009 130.941 279.585 131.089 280.052 131.386C280.52 131.683 280.871 132.092 281.104 132.614C281.347 133.135 281.469 133.728 281.469 134.394V134.933H276.613C276.676 135.302 276.802 135.603 276.991 135.837C277.18 136.071 277.422 136.246 277.719 136.363C278.016 136.471 278.349 136.525 278.717 136.525C278.951 136.525 279.194 136.507 279.445 136.471C279.697 136.426 279.949 136.367 280.201 136.295L280.808 136.12L281.266 137.24L280.74 137.496C280.381 137.667 280.012 137.797 279.634 137.887C279.257 137.968 278.888 138.008 278.528 138.008ZM276.667 133.692H279.85C279.778 133.279 279.616 132.96 279.365 132.735C279.113 132.501 278.767 132.384 278.326 132.384C278.038 132.384 277.782 132.438 277.557 132.546C277.342 132.645 277.157 132.793 277.004 132.991C276.851 133.189 276.739 133.423 276.667 133.692ZM282.889 137.9V131.049H284.183L284.305 131.75L284.75 131.508C285.082 131.328 285.415 131.188 285.748 131.09C286.08 130.991 286.409 130.941 286.732 130.941C287.281 130.941 287.726 131.045 288.068 131.251C288.409 131.458 288.661 131.737 288.823 132.088C288.994 132.438 289.079 132.834 289.079 133.274V137.9H287.38V133.692C287.38 133.297 287.281 132.996 287.083 132.789C286.885 132.582 286.561 132.479 286.112 132.479C285.923 132.479 285.739 132.506 285.559 132.56C285.388 132.605 285.208 132.672 285.019 132.762L284.588 132.951V137.9H282.889ZM294.039 138.008C293.374 138.008 292.776 137.873 292.246 137.604C291.715 137.325 291.297 136.925 290.991 136.403C290.686 135.873 290.533 135.23 290.533 134.475C290.533 133.719 290.69 133.081 291.005 132.56C291.329 132.029 291.756 131.629 292.286 131.359C292.817 131.081 293.406 130.941 294.053 130.941C294.368 130.941 294.669 130.973 294.957 131.036C295.253 131.089 295.523 131.166 295.766 131.265L296.143 131.413L295.833 132.654L295.375 132.546C295.177 132.501 294.979 132.47 294.781 132.452C294.583 132.434 294.399 132.425 294.228 132.425C293.842 132.425 293.5 132.506 293.203 132.667C292.907 132.82 292.673 133.05 292.502 133.355C292.34 133.652 292.259 134.025 292.259 134.475C292.259 134.915 292.345 135.288 292.515 135.594C292.686 135.9 292.92 136.129 293.217 136.282C293.522 136.435 293.869 136.511 294.255 136.511C294.435 136.511 294.628 136.502 294.835 136.484C295.051 136.457 295.271 136.421 295.496 136.376L295.914 136.282L296.238 137.496L295.887 137.644C295.581 137.77 295.267 137.86 294.943 137.914C294.628 137.977 294.327 138.008 294.039 138.008ZM300.629 138.008C299.964 138.008 299.352 137.873 298.795 137.604C298.237 137.334 297.788 136.938 297.446 136.417C297.113 135.886 296.947 135.243 296.947 134.488C296.947 133.949 297.037 133.463 297.217 133.032C297.397 132.591 297.648 132.218 297.972 131.912C298.296 131.598 298.664 131.359 299.078 131.197C299.501 131.027 299.95 130.941 300.427 130.941C301.11 130.941 301.685 131.089 302.153 131.386C302.621 131.683 302.971 132.092 303.205 132.614C303.448 133.135 303.569 133.728 303.569 134.394V134.933H298.714C298.777 135.302 298.903 135.603 299.091 135.837C299.28 136.071 299.523 136.246 299.82 136.363C300.116 136.471 300.449 136.525 300.818 136.525C301.052 136.525 301.294 136.507 301.546 136.471C301.798 136.426 302.05 136.367 302.301 136.295L302.908 136.12L303.367 137.24L302.841 137.496C302.481 137.667 302.113 137.797 301.735 137.887C301.357 137.968 300.989 138.008 300.629 138.008ZM298.768 133.692H301.951C301.879 133.279 301.717 132.96 301.465 132.735C301.213 132.501 300.867 132.384 300.427 132.384C300.139 132.384 299.883 132.438 299.658 132.546C299.442 132.645 299.258 132.793 299.105 132.991C298.952 133.189 298.84 133.423 298.768 133.692ZM309.444 137.9V132.533H307.96V131.346L309.444 131.049V129.889C309.444 129.35 309.547 128.918 309.754 128.594C309.961 128.262 310.244 128.019 310.603 127.866C310.963 127.713 311.377 127.637 311.844 127.637C312.078 127.637 312.325 127.659 312.586 127.704C312.847 127.749 313.107 127.808 313.368 127.88L313.517 127.92L313.287 129.228L313.112 129.201C312.968 129.183 312.833 129.165 312.707 129.147C312.581 129.129 312.465 129.12 312.357 129.12C311.97 129.12 311.669 129.192 311.453 129.336C311.246 129.48 311.143 129.727 311.143 130.078V131.049H313.22V132.533H311.143V137.9H309.444ZM317.337 138.008C316.636 138.008 316.025 137.86 315.503 137.563C314.991 137.258 314.591 136.839 314.303 136.309C314.024 135.778 313.885 135.167 313.885 134.475C313.885 133.773 314.029 133.157 314.316 132.627C314.613 132.097 315.022 131.683 315.544 131.386C316.065 131.089 316.672 130.941 317.364 130.941C318.066 130.941 318.673 131.094 319.185 131.4C319.698 131.696 320.093 132.11 320.372 132.64C320.651 133.171 320.79 133.782 320.79 134.475C320.79 135.167 320.646 135.783 320.358 136.322C320.071 136.853 319.666 137.267 319.145 137.563C318.632 137.86 318.03 138.008 317.337 138.008ZM317.351 136.538C317.702 136.538 318.003 136.457 318.254 136.295C318.506 136.134 318.7 135.9 318.834 135.594C318.978 135.279 319.05 134.906 319.05 134.475C319.05 134.034 318.983 133.661 318.848 133.355C318.713 133.05 318.515 132.816 318.254 132.654C318.003 132.492 317.702 132.411 317.351 132.411C317 132.411 316.695 132.492 316.434 132.654C316.173 132.816 315.971 133.05 315.827 133.355C315.683 133.661 315.611 134.034 315.611 134.475C315.611 134.906 315.683 135.279 315.827 135.594C315.971 135.9 316.173 136.134 316.434 136.295C316.695 136.457 317 136.538 317.351 136.538ZM322.335 137.9V131.049H323.576L323.751 131.885L324.264 131.521C324.524 131.341 324.803 131.202 325.1 131.103C325.397 130.995 325.68 130.941 325.95 130.941C326.049 130.941 326.147 130.959 326.246 130.995C326.354 131.022 326.458 131.072 326.557 131.143V132.492C326.278 132.501 326.008 132.528 325.747 132.573C325.496 132.618 325.208 132.703 324.884 132.829L324.034 133.14V137.9H322.335ZM344.066 138.008C343.401 138.008 342.79 137.873 342.232 137.604C341.675 137.334 341.225 136.938 340.883 136.417C340.551 135.886 340.384 135.243 340.384 134.488C340.384 133.949 340.474 133.463 340.654 133.032C340.834 132.591 341.086 132.218 341.409 131.912C341.733 131.598 342.102 131.359 342.515 131.197C342.938 131.027 343.387 130.941 343.864 130.941C344.547 130.941 345.123 131.089 345.59 131.386C346.058 131.683 346.409 132.092 346.642 132.614C346.885 133.135 347.006 133.728 347.006 134.394V134.933H342.151C342.214 135.302 342.34 135.603 342.529 135.837C342.718 136.071 342.96 136.246 343.257 136.363C343.554 136.471 343.886 136.525 344.255 136.525C344.489 136.525 344.732 136.507 344.983 136.471C345.235 136.426 345.487 136.367 345.739 136.295L346.346 136.12L346.804 137.24L346.278 137.496C345.919 137.667 345.55 137.797 345.172 137.887C344.795 137.968 344.426 138.008 344.066 138.008ZM342.205 133.692H345.388C345.316 133.279 345.154 132.96 344.903 132.735C344.651 132.501 344.305 132.384 343.864 132.384C343.576 132.384 343.32 132.438 343.095 132.546C342.879 132.645 342.695 132.793 342.542 132.991C342.389 133.189 342.277 133.423 342.205 133.692ZM350.148 137.981L347.315 131.049H349.203L350.984 135.85H351.011L352.777 131.049H354.544L351.726 137.981H350.148ZM358.528 138.008C357.863 138.008 357.251 137.873 356.694 137.604C356.136 137.334 355.687 136.938 355.345 136.417C355.012 135.886 354.846 135.243 354.846 134.488C354.846 133.949 354.936 133.463 355.116 133.032C355.296 132.591 355.547 132.218 355.871 131.912C356.195 131.598 356.563 131.359 356.977 131.197C357.399 131.027 357.849 130.941 358.326 130.941C359.009 130.941 359.584 131.089 360.052 131.386C360.519 131.683 360.87 132.092 361.104 132.614C361.347 133.135 361.468 133.728 361.468 134.394V134.933H356.613C356.676 135.302 356.802 135.603 356.99 135.837C357.179 136.071 357.422 136.246 357.719 136.363C358.015 136.471 358.348 136.525 358.717 136.525C358.95 136.525 359.193 136.507 359.445 136.471C359.697 136.426 359.949 136.367 360.2 136.295L360.807 136.12L361.266 137.24L360.74 137.496C360.38 137.667 360.011 137.797 359.634 137.887C359.256 137.968 358.888 138.008 358.528 138.008ZM356.667 133.692H359.85C359.778 133.279 359.616 132.96 359.364 132.735C359.112 132.501 358.766 132.384 358.326 132.384C358.038 132.384 357.782 132.438 357.557 132.546C357.341 132.645 357.157 132.793 357.004 132.991C356.851 133.189 356.739 133.423 356.667 133.692ZM362.888 137.9V131.049H364.183L364.304 131.75L364.749 131.508C365.082 131.328 365.415 131.188 365.747 131.09C366.08 130.991 366.408 130.941 366.732 130.941C367.28 130.941 367.725 131.045 368.067 131.251C368.409 131.458 368.66 131.737 368.822 132.088C368.993 132.438 369.079 132.834 369.079 133.274V137.9H367.379V133.692C367.379 133.297 367.28 132.996 367.082 132.789C366.885 132.582 366.561 132.479 366.111 132.479C365.923 132.479 365.738 132.506 365.558 132.56C365.388 132.605 365.208 132.672 365.019 132.762L364.587 132.951V137.9H362.888ZM373.014 138.008C372.25 138.008 371.683 137.797 371.315 137.374C370.955 136.943 370.775 136.376 370.775 135.675V131.049H372.475V135.257C372.475 135.68 372.573 135.99 372.771 136.188C372.969 136.376 373.261 136.471 373.648 136.471C373.819 136.471 373.981 136.448 374.133 136.403C374.295 136.349 374.457 136.286 374.619 136.215L375.104 135.985V131.049H376.804V137.9H375.509L375.32 136.781L375.671 137.051L374.929 137.455C374.596 137.635 374.268 137.775 373.945 137.873C373.63 137.963 373.32 138.008 373.014 138.008ZM382.038 138.008C381.372 138.008 380.761 137.873 380.204 137.604C379.646 137.334 379.197 136.938 378.855 136.417C378.522 135.886 378.356 135.243 378.356 134.488C378.356 133.949 378.446 133.463 378.626 133.032C378.805 132.591 379.057 132.218 379.381 131.912C379.705 131.598 380.073 131.359 380.487 131.197C380.909 131.027 381.359 130.941 381.835 130.941C382.519 130.941 383.094 131.089 383.562 131.386C384.029 131.683 384.38 132.092 384.614 132.614C384.857 133.135 384.978 133.728 384.978 134.394V134.933H380.123C380.186 135.302 380.311 135.603 380.5 135.837C380.689 136.071 380.932 136.246 381.229 136.363C381.525 136.471 381.858 136.525 382.227 136.525C382.46 136.525 382.703 136.507 382.955 136.471C383.207 136.426 383.458 136.367 383.71 136.295L384.317 136.12L384.776 137.24L384.25 137.496C383.89 137.667 383.521 137.797 383.144 137.887C382.766 137.968 382.397 138.008 382.038 138.008ZM380.177 133.692H383.359C383.288 133.279 383.126 132.96 382.874 132.735C382.622 132.501 382.276 132.384 381.835 132.384C381.548 132.384 381.291 132.438 381.067 132.546C380.851 132.645 380.667 132.793 380.514 132.991C380.361 133.189 380.249 133.423 380.177 133.692ZM391.877 138.008C391.509 138.008 391.158 137.941 390.825 137.806C390.493 137.662 390.223 137.446 390.016 137.159C389.809 136.871 389.706 136.511 389.706 136.08C389.706 135.504 389.89 135.05 390.259 134.717C390.628 134.376 391.149 134.138 391.823 134.003L393.887 133.571V133.544C393.887 133.149 393.765 132.861 393.523 132.681C393.28 132.501 392.907 132.411 392.403 132.411C392.116 132.411 391.819 132.429 391.513 132.465C391.216 132.501 390.938 132.546 390.677 132.6L390.367 132.667L390.084 131.548L390.421 131.427C390.87 131.265 391.288 131.143 391.675 131.063C392.071 130.982 392.462 130.941 392.848 130.941C393.658 130.941 394.314 131.157 394.817 131.589C395.321 132.02 395.573 132.672 395.573 133.544V136.053C395.573 136.331 395.636 136.52 395.762 136.619C395.896 136.709 396.171 136.772 396.584 136.808L396.49 137.927C396.373 137.954 396.261 137.972 396.153 137.981C396.045 137.999 395.95 138.008 395.869 138.008C395.402 138.008 395.029 137.905 394.75 137.698C394.48 137.482 394.278 137.222 394.143 136.916L393.833 137.199C393.536 137.469 393.213 137.671 392.862 137.806C392.52 137.941 392.192 138.008 391.877 138.008ZM392.39 136.592C392.57 136.592 392.763 136.556 392.97 136.484C393.177 136.412 393.383 136.304 393.59 136.161L393.887 135.958V134.569L392.066 135.082C391.805 135.154 391.621 135.257 391.513 135.392C391.405 135.527 391.351 135.684 391.351 135.864C391.351 136.098 391.441 136.277 391.621 136.403C391.801 136.529 392.057 136.592 392.39 136.592ZM399.803 138.008C399.039 138.008 398.473 137.797 398.104 137.374C397.744 136.943 397.565 136.376 397.565 135.675V131.049H399.264V135.257C399.264 135.68 399.363 135.99 399.561 136.188C399.758 136.376 400.051 136.471 400.437 136.471C400.608 136.471 400.77 136.448 400.923 136.403C401.085 136.349 401.247 136.286 401.408 136.215L401.894 135.985V131.049H403.593V137.9H402.298L402.11 136.781L402.46 137.051L401.719 137.455C401.386 137.635 401.058 137.775 400.734 137.873C400.419 137.963 400.109 138.008 399.803 138.008ZM408.544 140.719C408.211 140.719 407.843 140.688 407.438 140.625C407.033 140.562 406.647 140.476 406.278 140.368L405.82 140.234L406.116 138.993L406.575 139.074C406.845 139.119 407.137 139.159 407.452 139.195C407.766 139.231 408.054 139.249 408.315 139.249C408.89 139.249 409.335 139.155 409.65 138.966C409.974 138.786 410.135 138.449 410.135 137.954V137.132L409.744 137.293C409.493 137.401 409.227 137.487 408.949 137.55C408.67 137.604 408.409 137.631 408.166 137.631C407.681 137.631 407.249 137.541 406.872 137.361C406.503 137.181 406.188 136.938 405.928 136.633C405.667 136.318 405.469 135.958 405.334 135.554C405.208 135.149 405.145 134.726 405.145 134.286C405.145 133.71 405.258 133.171 405.482 132.667C405.716 132.155 406.053 131.741 406.494 131.427C406.944 131.103 407.496 130.941 408.153 130.941C408.468 130.941 408.782 131 409.097 131.116C409.412 131.233 409.717 131.395 410.014 131.602L410.419 131.885L410.58 131.049H411.835V137.86C411.835 138.525 411.695 139.069 411.417 139.492C411.147 139.914 410.765 140.225 410.27 140.422C409.776 140.62 409.2 140.719 408.544 140.719ZM406.872 134.299C406.872 134.695 406.944 135.028 407.087 135.297C407.24 135.558 407.452 135.756 407.721 135.891C407.991 136.017 408.301 136.08 408.652 136.08C408.823 136.08 408.998 136.062 409.178 136.026C409.358 135.99 409.533 135.945 409.704 135.891L410.135 135.742V133.072L409.758 132.856C409.542 132.73 409.34 132.64 409.151 132.587C408.971 132.533 408.8 132.506 408.638 132.506C408.261 132.506 407.937 132.582 407.667 132.735C407.407 132.879 407.209 133.086 407.074 133.355C406.939 133.625 406.872 133.94 406.872 134.299ZM413.727 137.9V131.049H415.036L415.157 131.75L415.602 131.508C415.935 131.328 416.258 131.188 416.573 131.09C416.897 130.991 417.216 130.941 417.531 130.941C418.043 130.941 418.466 131.04 418.798 131.238C419.131 131.436 419.378 131.71 419.54 132.061C419.702 132.411 419.783 132.816 419.783 133.274V137.9H418.084V133.692C418.084 133.288 417.985 132.987 417.787 132.789C417.598 132.582 417.301 132.479 416.897 132.479C416.726 132.479 416.56 132.501 416.398 132.546C416.236 132.591 416.074 132.649 415.912 132.721L415.427 132.951V137.9H413.727ZM422.44 137.9V133.692C422.44 133.288 422.341 132.987 422.143 132.789C421.954 132.582 421.653 132.479 421.24 132.479C421.069 132.479 420.902 132.501 420.741 132.546C420.588 132.591 420.43 132.649 420.269 132.721L419.662 133.005L419.284 131.899L420.026 131.508C420.358 131.328 420.682 131.188 420.997 131.09C421.321 130.991 421.64 130.941 421.954 130.941C422.467 130.941 422.889 131.04 423.222 131.238C423.555 131.436 423.802 131.71 423.964 132.061C424.126 132.411 424.207 132.816 424.207 133.274V137.9H422.44ZM429.347 138.008C428.682 138.008 428.071 137.873 427.513 137.604C426.956 137.334 426.506 136.938 426.164 136.417C425.832 135.886 425.665 135.243 425.665 134.488C425.665 133.949 425.755 133.463 425.935 133.032C426.115 132.591 426.367 132.218 426.69 131.912C427.014 131.598 427.383 131.359 427.796 131.197C428.219 131.027 428.668 130.941 429.145 130.941C429.828 130.941 430.404 131.089 430.871 131.386C431.339 131.683 431.69 132.092 431.923 132.614C432.166 133.135 432.287 133.728 432.287 134.394V134.933H427.432C427.495 135.302 427.621 135.603 427.81 135.837C427.999 136.071 428.241 136.246 428.538 136.363C428.835 136.471 429.168 136.525 429.536 136.525C429.77 136.525 430.013 136.507 430.264 136.471C430.516 136.426 430.768 136.367 431.02 136.295L431.627 136.12L432.085 137.24L431.559 137.496C431.2 137.667 430.831 137.797 430.453 137.887C430.076 137.968 429.707 138.008 429.347 138.008ZM427.486 133.692H430.669C430.597 133.279 430.435 132.96 430.184 132.735C429.932 132.501 429.586 132.384 429.145 132.384C428.857 132.384 428.601 132.438 428.376 132.546C428.16 132.645 427.976 132.793 427.823 132.991C427.67 133.189 427.558 133.423 427.486 133.692ZM433.708 137.9V131.049H435.002L435.124 131.75L435.569 131.508C435.901 131.328 436.234 131.188 436.567 131.09C436.899 130.991 437.228 130.941 437.551 130.941C438.1 130.941 438.545 131.045 438.886 131.251C439.228 131.458 439.48 131.737 439.642 132.088C439.813 132.438 439.898 132.834 439.898 133.274V137.9H438.199V133.692C438.199 133.297 438.1 132.996 437.902 132.789C437.704 132.582 437.38 132.479 436.931 132.479C436.742 132.479 436.558 132.506 436.378 132.56C436.207 132.605 436.027 132.672 435.838 132.762L435.407 132.951V137.9H433.708ZM444.413 138.008C443.739 138.008 443.227 137.86 442.876 137.563C442.525 137.267 442.35 136.785 442.35 136.12V132.533H440.88V131.346L442.35 131.049V129.458L444.049 128.945V131.049H446.18V132.533H444.049V135.581C444.049 135.904 444.103 136.147 444.211 136.309C444.328 136.471 444.593 136.552 445.007 136.552C445.124 136.552 445.245 136.547 445.371 136.538C445.497 136.529 445.632 136.516 445.776 136.498L446.126 136.457L446.315 137.685L446.005 137.766C445.753 137.828 445.483 137.882 445.196 137.927C444.917 137.981 444.656 138.008 444.413 138.008ZM449.118 138.008C448.749 138.008 448.398 137.941 448.066 137.806C447.733 137.662 447.463 137.446 447.256 137.159C447.05 136.871 446.946 136.511 446.946 136.08C446.946 135.504 447.131 135.05 447.499 134.717C447.868 134.376 448.389 134.138 449.064 134.003L451.127 133.571V133.544C451.127 133.149 451.006 132.861 450.763 132.681C450.52 132.501 450.147 132.411 449.644 132.411C449.356 132.411 449.059 132.429 448.754 132.465C448.457 132.501 448.178 132.546 447.917 132.6L447.607 132.667L447.324 131.548L447.661 131.427C448.111 131.265 448.529 131.143 448.915 131.063C449.311 130.982 449.702 130.941 450.089 130.941C450.898 130.941 451.554 131.157 452.058 131.589C452.561 132.02 452.813 132.672 452.813 133.544V136.053C452.813 136.331 452.876 136.52 453.002 136.619C453.137 136.709 453.411 136.772 453.825 136.808L453.73 137.927C453.613 137.954 453.501 137.972 453.393 137.981C453.285 137.999 453.191 138.008 453.11 138.008C452.642 138.008 452.269 137.905 451.99 137.698C451.721 137.482 451.518 137.222 451.383 136.916L451.073 137.199C450.777 137.469 450.453 137.671 450.102 137.806C449.761 137.941 449.432 138.008 449.118 138.008ZM449.63 136.592C449.81 136.592 450.003 136.556 450.21 136.484C450.417 136.412 450.624 136.304 450.831 136.161L451.127 135.958V134.569L449.306 135.082C449.046 135.154 448.861 135.257 448.754 135.392C448.646 135.527 448.592 135.684 448.592 135.864C448.592 136.098 448.682 136.277 448.861 136.403C449.041 136.529 449.298 136.592 449.63 136.592ZM457.36 138.008C456.686 138.008 456.173 137.86 455.823 137.563C455.472 137.267 455.297 136.785 455.297 136.12V132.533H453.827V131.346L455.297 131.049V129.458L456.996 128.945V131.049H459.127V132.533H456.996V135.581C456.996 135.904 457.05 136.147 457.158 136.309C457.275 136.471 457.54 136.552 457.954 136.552C458.071 136.552 458.192 136.547 458.318 136.538C458.444 136.529 458.579 136.516 458.722 136.498L459.073 136.457L459.262 137.685L458.952 137.766C458.7 137.828 458.43 137.882 458.143 137.927C457.864 137.981 457.603 138.008 457.36 138.008ZM460.497 137.9V131.049H462.196V137.9H460.497ZM461.347 129.714C461.149 129.714 460.964 129.664 460.794 129.565C460.623 129.467 460.488 129.336 460.389 129.174C460.29 129.013 460.241 128.833 460.241 128.635C460.241 128.446 460.29 128.271 460.389 128.109C460.488 127.947 460.623 127.821 460.794 127.731C460.964 127.632 461.149 127.583 461.347 127.583C461.553 127.583 461.738 127.632 461.9 127.731C462.07 127.821 462.205 127.947 462.304 128.109C462.403 128.271 462.453 128.446 462.453 128.635C462.453 128.833 462.403 129.013 462.304 129.174C462.205 129.336 462.07 129.467 461.9 129.565C461.738 129.664 461.553 129.714 461.347 129.714ZM467.195 138.008C466.494 138.008 465.882 137.86 465.361 137.563C464.848 137.258 464.448 136.839 464.16 136.309C463.882 135.778 463.742 135.167 463.742 134.475C463.742 133.773 463.886 133.157 464.174 132.627C464.471 132.097 464.88 131.683 465.401 131.386C465.923 131.089 466.53 130.941 467.222 130.941C467.923 130.941 468.53 131.094 469.043 131.4C469.555 131.696 469.951 132.11 470.229 132.64C470.508 133.171 470.648 133.782 470.648 134.475C470.648 135.167 470.504 135.783 470.216 136.322C469.928 136.853 469.524 137.267 469.002 137.563C468.49 137.86 467.887 138.008 467.195 138.008ZM467.208 136.538C467.559 136.538 467.86 136.457 468.112 136.295C468.364 136.134 468.557 135.9 468.692 135.594C468.836 135.279 468.908 134.906 468.908 134.475C468.908 134.034 468.84 133.661 468.705 133.355C468.571 133.05 468.373 132.816 468.112 132.654C467.86 132.492 467.559 132.411 467.208 132.411C466.858 132.411 466.552 132.492 466.291 132.654C466.031 132.816 465.828 133.05 465.684 133.355C465.54 133.661 465.469 134.034 465.469 134.475C465.469 134.906 465.54 135.279 465.684 135.594C465.828 135.9 466.031 136.134 466.291 136.295C466.552 136.457 466.858 136.538 467.208 136.538ZM472.193 137.9V131.049H473.487L473.609 131.75L474.054 131.508C474.386 131.328 474.719 131.188 475.052 131.09C475.385 130.991 475.713 130.941 476.036 130.941C476.585 130.941 477.03 131.045 477.372 131.251C477.713 131.458 477.965 131.737 478.127 132.088C478.298 132.438 478.383 132.834 478.383 133.274V137.9H476.684V133.692C476.684 133.297 476.585 132.996 476.387 132.789C476.189 132.582 475.866 132.479 475.416 132.479C475.227 132.479 475.043 132.506 474.863 132.56C474.692 132.605 474.512 132.672 474.324 132.762L473.892 132.951V137.9H472.193ZM485.654 138.008C485.285 138.008 484.934 137.941 484.602 137.806C484.269 137.662 483.999 137.446 483.792 137.159C483.586 136.871 483.482 136.511 483.482 136.08C483.482 135.504 483.666 135.05 484.035 134.717C484.404 134.376 484.925 134.138 485.6 134.003L487.663 133.571V133.544C487.663 133.149 487.542 132.861 487.299 132.681C487.056 132.501 486.683 132.411 486.179 132.411C485.892 132.411 485.595 132.429 485.289 132.465C484.993 132.501 484.714 132.546 484.453 132.6L484.143 132.667L483.86 131.548L484.197 131.427C484.646 131.265 485.065 131.143 485.451 131.063C485.847 130.982 486.238 130.941 486.625 130.941C487.434 130.941 488.09 131.157 488.594 131.589C489.097 132.02 489.349 132.672 489.349 133.544V136.053C489.349 136.331 489.412 136.52 489.538 136.619C489.673 136.709 489.947 136.772 490.36 136.808L490.266 137.927C490.149 137.954 490.037 137.972 489.929 137.981C489.821 137.999 489.727 138.008 489.646 138.008C489.178 138.008 488.805 137.905 488.526 137.698C488.256 137.482 488.054 137.222 487.919 136.916L487.609 137.199C487.312 137.469 486.989 137.671 486.638 137.806C486.296 137.941 485.968 138.008 485.654 138.008ZM486.166 136.592C486.346 136.592 486.539 136.556 486.746 136.484C486.953 136.412 487.16 136.304 487.366 136.161L487.663 135.958V134.569L485.842 135.082C485.582 135.154 485.397 135.257 485.289 135.392C485.181 135.527 485.128 135.684 485.128 135.864C485.128 136.098 485.217 136.277 485.397 136.403C485.577 136.529 485.833 136.592 486.166 136.592ZM491.435 137.9V131.049H492.73L492.851 131.75L493.296 131.508C493.629 131.328 493.962 131.188 494.294 131.09C494.627 130.991 494.955 130.941 495.279 130.941C495.827 130.941 496.272 131.045 496.614 131.251C496.956 131.458 497.208 131.737 497.369 132.088C497.54 132.438 497.626 132.834 497.626 133.274V137.9H495.926V133.692C495.926 133.297 495.827 132.996 495.63 132.789C495.432 132.582 495.108 132.479 494.659 132.479C494.47 132.479 494.285 132.506 494.106 132.56C493.935 132.605 493.755 132.672 493.566 132.762L493.135 132.951V137.9H491.435ZM502.087 138.008C501.593 138.008 501.156 137.914 500.779 137.725C500.41 137.527 500.1 137.262 499.848 136.929C499.597 136.597 499.403 136.219 499.268 135.796C499.142 135.374 499.08 134.933 499.08 134.475C499.08 133.998 499.142 133.549 499.268 133.126C499.403 132.703 499.601 132.33 499.862 132.007C500.122 131.674 500.437 131.413 500.806 131.224C501.183 131.036 501.615 130.941 502.101 130.941C502.343 130.941 502.604 130.973 502.883 131.036C503.162 131.089 503.427 131.175 503.679 131.292L504.083 131.467V127.947L505.783 127.515V137.9H504.501L504.366 137.064L503.948 137.347C503.652 137.545 503.346 137.707 503.031 137.833C502.716 137.95 502.402 138.008 502.087 138.008ZM500.806 134.461C500.806 134.893 500.869 135.266 500.995 135.581C501.13 135.886 501.327 136.12 501.588 136.282C501.849 136.444 502.177 136.525 502.573 136.525C502.725 136.525 502.892 136.502 503.072 136.457C503.251 136.403 503.436 136.318 503.625 136.201L504.083 135.918V132.843L503.625 132.64C503.454 132.569 503.278 132.515 503.099 132.479C502.928 132.434 502.757 132.411 502.586 132.411C502.235 132.411 501.925 132.488 501.656 132.64C501.386 132.784 501.174 133.009 501.022 133.315C500.878 133.612 500.806 133.994 500.806 134.461ZM521.451 137.9V131.049H522.692L522.868 131.885L523.38 131.521C523.641 131.341 523.92 131.202 524.216 131.103C524.513 130.995 524.796 130.941 525.066 130.941C525.165 130.941 525.264 130.959 525.363 130.995C525.471 131.022 525.574 131.072 525.673 131.143V132.492C525.394 132.501 525.124 132.528 524.864 132.573C524.612 132.618 524.324 132.703 524 132.829L523.151 133.14V137.9H521.451ZM530.56 138.008C530.272 138.008 529.967 137.954 529.643 137.846C529.328 137.73 529.014 137.563 528.699 137.347L528.146 136.97L528.483 135.796L529.09 136.161C529.27 136.268 529.45 136.345 529.629 136.39C529.809 136.435 529.985 136.457 530.155 136.457C530.515 136.457 530.821 136.381 531.073 136.228C531.324 136.075 531.513 135.85 531.639 135.554C531.774 135.257 531.841 134.893 531.841 134.461C531.841 134.03 531.769 133.666 531.626 133.369C531.491 133.072 531.288 132.852 531.019 132.708C530.758 132.555 530.439 132.479 530.061 132.479C529.908 132.479 529.746 132.497 529.576 132.533C529.405 132.56 529.22 132.609 529.023 132.681L528.564 132.843V136.363L528.362 136.646L528.146 137.9H526.865V127.947L528.564 127.515V132.141L528.065 131.696L528.969 131.292C529.202 131.184 529.459 131.098 529.737 131.036C530.025 130.973 530.295 130.941 530.547 130.941C531.14 130.941 531.661 131.094 532.111 131.4C532.57 131.696 532.925 132.11 533.177 132.64C533.437 133.171 533.568 133.782 533.568 134.475C533.568 135.158 533.437 135.769 533.177 136.309C532.925 136.839 532.57 137.258 532.111 137.563C531.661 137.86 531.144 138.008 530.56 138.008ZM536.559 138.008C536.19 138.008 535.839 137.941 535.507 137.806C535.174 137.662 534.904 137.446 534.697 137.159C534.491 136.871 534.387 136.511 534.387 136.08C534.387 135.504 534.572 135.05 534.94 134.717C535.309 134.376 535.83 134.138 536.505 134.003L538.568 133.571V133.544C538.568 133.149 538.447 132.861 538.204 132.681C537.961 132.501 537.588 132.411 537.085 132.411C536.797 132.411 536.5 132.429 536.195 132.465C535.898 132.501 535.619 132.546 535.358 132.6L535.048 132.667L534.765 131.548L535.102 131.427C535.552 131.265 535.97 131.143 536.356 131.063C536.752 130.982 537.143 130.941 537.53 130.941C538.339 130.941 538.995 131.157 539.499 131.589C540.002 132.02 540.254 132.672 540.254 133.544V136.053C540.254 136.331 540.317 136.52 540.443 136.619C540.578 136.709 540.852 136.772 541.266 136.808L541.171 137.927C541.054 137.954 540.942 137.972 540.834 137.981C540.726 137.999 540.632 138.008 540.551 138.008C540.083 138.008 539.71 137.905 539.431 137.698C539.162 137.482 538.959 137.222 538.824 136.916L538.514 137.199C538.218 137.469 537.894 137.671 537.543 137.806C537.202 137.941 536.873 138.008 536.559 138.008ZM537.071 136.592C537.251 136.592 537.444 136.556 537.651 136.484C537.858 136.412 538.065 136.304 538.272 136.161L538.568 135.958V134.569L536.748 135.082C536.487 135.154 536.302 135.257 536.195 135.392C536.087 135.527 536.033 135.684 536.033 135.864C536.033 136.098 536.123 136.277 536.302 136.403C536.482 136.529 536.739 136.592 537.071 136.592ZM542.34 137.9V131.049H543.635L543.756 131.75L544.202 131.508C544.534 131.328 544.867 131.188 545.2 131.09C545.532 130.991 545.86 130.941 546.184 130.941C546.733 130.941 547.178 131.045 547.519 131.251C547.861 131.458 548.113 131.737 548.275 132.088C548.445 132.438 548.531 132.834 548.531 133.274V137.9H546.831V133.692C546.831 133.297 546.733 132.996 546.535 132.789C546.337 132.582 546.013 132.479 545.564 132.479C545.375 132.479 545.191 132.506 545.011 132.56C544.84 132.605 544.66 132.672 544.471 132.762L544.04 132.951V137.9H542.34ZM567.733 138.008C567.068 138.008 566.456 137.873 565.899 137.604C565.341 137.334 564.892 136.938 564.55 136.417C564.217 135.886 564.051 135.243 564.051 134.488C564.051 133.949 564.141 133.463 564.321 133.032C564.501 132.591 564.752 132.218 565.076 131.912C565.4 131.598 565.768 131.359 566.182 131.197C566.605 131.027 567.054 130.941 567.531 130.941C568.214 130.941 568.79 131.089 569.257 131.386C569.725 131.683 570.075 132.092 570.309 132.614C570.552 133.135 570.673 133.728 570.673 134.394V134.933H565.818C565.881 135.302 566.007 135.603 566.196 135.837C566.384 136.071 566.627 136.246 566.924 136.363C567.221 136.471 567.553 136.525 567.922 136.525C568.156 136.525 568.398 136.507 568.65 136.471C568.902 136.426 569.154 136.367 569.405 136.295L570.012 136.12L570.471 137.24L569.945 137.496C569.585 137.667 569.217 137.797 568.839 137.887C568.461 137.968 568.093 138.008 567.733 138.008ZM565.872 133.692H569.055C568.983 133.279 568.821 132.96 568.569 132.735C568.317 132.501 567.971 132.384 567.531 132.384C567.243 132.384 566.987 132.438 566.762 132.546C566.546 132.645 566.362 132.793 566.209 132.991C566.056 133.189 565.944 133.423 565.872 133.692ZM573.814 137.981L570.982 131.049H572.87L574.65 135.85H574.677L576.444 131.049H578.211L575.392 137.981H573.814ZM582.195 138.008C581.529 138.008 580.918 137.873 580.36 137.604C579.803 137.334 579.353 136.938 579.012 136.417C578.679 135.886 578.513 135.243 578.513 134.488C578.513 133.949 578.603 133.463 578.782 133.032C578.962 132.591 579.214 132.218 579.538 131.912C579.861 131.598 580.23 131.359 580.644 131.197C581.066 131.027 581.516 130.941 581.992 130.941C582.676 130.941 583.251 131.089 583.719 131.386C584.186 131.683 584.537 132.092 584.771 132.614C585.013 133.135 585.135 133.728 585.135 134.394V134.933H580.279C580.342 135.302 580.468 135.603 580.657 135.837C580.846 136.071 581.089 136.246 581.385 136.363C581.682 136.471 582.015 136.525 582.383 136.525C582.617 136.525 582.86 136.507 583.112 136.471C583.363 136.426 583.615 136.367 583.867 136.295L584.474 136.12L584.932 137.24L584.406 137.496C584.047 137.667 583.678 137.797 583.301 137.887C582.923 137.968 582.554 138.008 582.195 138.008ZM580.333 133.692H583.516C583.444 133.279 583.283 132.96 583.031 132.735C582.779 132.501 582.433 132.384 581.992 132.384C581.705 132.384 581.448 132.438 581.224 132.546C581.008 132.645 580.823 132.793 580.671 132.991C580.518 133.189 580.405 133.423 580.333 133.692ZM588.456 138.008C587.755 138.008 587.252 137.846 586.946 137.523C586.64 137.199 586.487 136.776 586.487 136.255V127.947L588.187 127.515V135.877C588.187 136.084 588.245 136.246 588.362 136.363C588.488 136.471 588.695 136.525 588.982 136.525C589.054 136.525 589.135 136.525 589.225 136.525C589.315 136.516 589.405 136.507 589.495 136.498L589.454 137.806C589.293 137.869 589.122 137.918 588.942 137.954C588.771 137.99 588.609 138.008 588.456 138.008ZM593.542 138.008C592.841 138.008 592.23 137.86 591.708 137.563C591.196 137.258 590.796 136.839 590.508 136.309C590.229 135.778 590.09 135.167 590.09 134.475C590.09 133.773 590.234 133.157 590.521 132.627C590.818 132.097 591.227 131.683 591.749 131.386C592.27 131.089 592.877 130.941 593.569 130.941C594.271 130.941 594.878 131.094 595.39 131.4C595.903 131.696 596.298 132.11 596.577 132.64C596.856 133.171 596.995 133.782 596.995 134.475C596.995 135.167 596.851 135.783 596.564 136.322C596.276 136.853 595.871 137.267 595.35 137.563C594.837 137.86 594.235 138.008 593.542 138.008ZM593.556 136.538C593.907 136.538 594.208 136.457 594.46 136.295C594.711 136.134 594.905 135.9 595.04 135.594C595.183 135.279 595.255 134.906 595.255 134.475C595.255 134.034 595.188 133.661 595.053 133.355C594.918 133.05 594.72 132.816 594.46 132.654C594.208 132.492 593.907 132.411 593.556 132.411C593.205 132.411 592.9 132.492 592.639 132.654C592.378 132.816 592.176 133.05 592.032 133.355C591.888 133.661 591.816 134.034 591.816 134.475C591.816 134.906 591.888 135.279 592.032 135.594C592.176 135.9 592.378 136.134 592.639 136.295C592.9 136.457 593.205 136.538 593.556 136.538ZM598.54 140.827V131.049H599.821L599.97 131.885L600.374 131.602C600.689 131.386 601.004 131.224 601.319 131.116C601.642 131 601.948 130.941 602.236 130.941C602.82 130.941 603.337 131.094 603.787 131.4C604.245 131.696 604.6 132.11 604.852 132.64C605.113 133.171 605.243 133.782 605.243 134.475C605.243 134.996 605.167 135.473 605.014 135.904C604.87 136.336 604.663 136.709 604.394 137.024C604.133 137.338 603.818 137.581 603.449 137.752C603.081 137.923 602.672 138.008 602.222 138.008C601.97 138.008 601.701 137.977 601.413 137.914C601.134 137.851 600.878 137.766 600.644 137.658L600.24 137.469V140.53L598.54 140.827ZM601.737 136.471C602.114 136.471 602.433 136.394 602.694 136.242C602.964 136.08 603.166 135.85 603.301 135.554C603.445 135.257 603.517 134.902 603.517 134.488C603.517 134.048 603.449 133.679 603.315 133.382C603.18 133.086 602.977 132.865 602.708 132.721C602.447 132.569 602.128 132.492 601.75 132.492C601.588 132.492 601.413 132.524 601.224 132.587C601.044 132.649 600.846 132.744 600.631 132.87L600.24 133.099V136.107L600.698 136.268C600.896 136.331 601.08 136.381 601.251 136.417C601.422 136.453 601.584 136.471 601.737 136.471ZM606.798 137.9V131.049H608.107L608.228 131.75L608.673 131.508C609.006 131.328 609.329 131.188 609.644 131.09C609.968 130.991 610.287 130.941 610.602 130.941C611.114 130.941 611.537 131.04 611.869 131.238C612.202 131.436 612.449 131.71 612.611 132.061C612.773 132.411 612.854 132.816 612.854 133.274V137.9H611.155V133.692C611.155 133.288 611.056 132.987 610.858 132.789C610.669 132.582 610.372 132.479 609.968 132.479C609.797 132.479 609.631 132.501 609.469 132.546C609.307 132.591 609.145 132.649 608.983 132.721L608.498 132.951V137.9H606.798ZM615.511 137.9V133.692C615.511 133.288 615.412 132.987 615.214 132.789C615.025 132.582 614.724 132.479 614.311 132.479C614.14 132.479 613.973 132.501 613.812 132.546C613.659 132.591 613.501 132.649 613.339 132.721L612.733 133.005L612.355 131.899L613.097 131.508C613.429 131.328 613.753 131.188 614.068 131.09C614.391 130.991 614.711 130.941 615.025 130.941C615.538 130.941 615.96 131.04 616.293 131.238C616.626 131.436 616.873 131.71 617.035 132.061C617.197 132.411 617.278 132.816 617.278 133.274V137.9H615.511ZM622.418 138.008C621.753 138.008 621.142 137.873 620.584 137.604C620.027 137.334 619.577 136.938 619.235 136.417C618.903 135.886 618.736 135.243 618.736 134.488C618.736 133.949 618.826 133.463 619.006 133.032C619.186 132.591 619.438 132.218 619.761 131.912C620.085 131.598 620.454 131.359 620.867 131.197C621.29 131.027 621.739 130.941 622.216 130.941C622.899 130.941 623.475 131.089 623.942 131.386C624.41 131.683 624.76 132.092 624.994 132.614C625.237 133.135 625.358 133.728 625.358 134.394V134.933H620.503C620.566 135.302 620.692 135.603 620.881 135.837C621.07 136.071 621.312 136.246 621.609 136.363C621.906 136.471 622.238 136.525 622.607 136.525C622.841 136.525 623.084 136.507 623.335 136.471C623.587 136.426 623.839 136.367 624.091 136.295L624.698 136.12L625.156 137.24L624.63 137.496C624.27 137.667 623.902 137.797 623.524 137.887C623.147 137.968 622.778 138.008 622.418 138.008ZM620.557 133.692H623.74C623.668 133.279 623.506 132.96 623.254 132.735C623.003 132.501 622.657 132.384 622.216 132.384C621.928 132.384 621.672 132.438 621.447 132.546C621.231 132.645 621.047 132.793 620.894 132.991C620.741 133.189 620.629 133.423 620.557 133.692ZM626.778 137.9V131.049H628.073L628.195 131.75L628.64 131.508C628.972 131.328 629.305 131.188 629.638 131.09C629.97 130.991 630.299 130.941 630.622 130.941C631.171 130.941 631.616 131.045 631.957 131.251C632.299 131.458 632.551 131.737 632.713 132.088C632.884 132.438 632.969 132.834 632.969 133.274V137.9H631.27V133.692C631.27 133.297 631.171 132.996 630.973 132.789C630.775 132.582 630.451 132.479 630.002 132.479C629.813 132.479 629.629 132.506 629.449 132.56C629.278 132.605 629.098 132.672 628.909 132.762L628.478 132.951V137.9H626.778ZM637.484 138.008C636.81 138.008 636.297 137.86 635.947 137.563C635.596 137.267 635.421 136.785 635.421 136.12V132.533H633.951V131.346L635.421 131.049V129.458L637.12 128.945V131.049H639.251V132.533H637.12V135.581C637.12 135.904 637.174 136.147 637.282 136.309C637.399 136.471 637.664 136.552 638.078 136.552C638.195 136.552 638.316 136.547 638.442 136.538C638.568 136.529 638.703 136.516 638.846 136.498L639.197 136.457L639.386 137.685L639.076 137.766C638.824 137.828 638.554 137.882 638.267 137.927C637.988 137.981 637.727 138.008 637.484 138.008Z" fill="#606060"/>
<path d="M582.342 112.974H566.227L557.335 74.2604L546.87 107.232C545.758 111.122 543.073 112.974 539.275 112.974H534.367C530.477 112.974 527.883 111.122 526.772 107.232L516.306 73.6121L507.416 112.974H491.393L503.618 59.627C504.637 54.6258 507.416 52.7734 511.49 52.7734H518.251C522.049 52.7734 524.735 54.6258 525.938 58.6083L536.868 94.636L547.703 58.6083C548.907 54.6258 551.501 52.7734 555.298 52.7734H562.059C566.134 52.7734 568.912 54.6258 570.024 59.627L582.342 112.974ZM628.542 98.0628H609.278V83.7073H628.82C633.173 83.7073 636.414 80.5583 636.414 76.0201C636.414 71.2967 633.173 68.2403 628.82 68.2403H604.647V112.974H588.532V52.7734H628.542C642.527 52.7734 652.53 61.9424 652.53 75.4644C652.53 88.8938 642.527 98.0628 628.542 98.0628Z" fill="#E38E49"/>
<defs>
<clipPath id="clip0_1897_6527">
<rect width="107.895" height="107.895" fill="white" transform="translate(7.62305 38.1152)"/>
</clipPath>
<clipPath id="clip1_1897_6527">
<rect width="43.0147" height="43.0147" fill="white" transform="translate(39.874 56.8789)"/>
</clipPath>
</defs>
</svg>
