<svg xmlns="http://www.w3.org/2000/svg" width="28" height="28" viewBox="0 0 28 28" fill="none">
  <path d="M7.99133 8.21908L5.01855 16.5887C5.00091 16.6352 4.99575 16.6848 5.0035 16.7335C5.01124 16.7821 5.03168 16.8284 5.06311 16.8686C5.09455 16.9087 5.13609 16.9416 5.18433 16.9644C5.23257 16.9873 5.28613 16.9995 5.3406 17H6.17298C6.24727 16.9998 6.3195 16.9779 6.37888 16.9376C6.43827 16.8973 6.48162 16.8408 6.50246 16.7764L6.9682 15.4352H11.0384L10.9814 15.3525L11.4918 16.7764C11.5126 16.8408 11.556 16.8973 11.6153 16.9376C11.6747 16.9779 11.747 16.9998 11.8212 17H12.6536C12.7081 17.0003 12.762 16.9889 12.8107 16.9667C12.8593 16.9446 12.9015 16.9123 12.9337 16.8726C12.9658 16.8329 12.9871 16.7868 12.9957 16.7382C13.0043 16.6897 13 16.6399 12.9831 16.5931L10.0103 8.22355C9.98914 8.15938 9.9457 8.10304 9.88639 8.06281C9.82709 8.02257 9.75505 8.00056 9.68085 8H8.31338C8.24099 8.00133 8.1709 8.02321 8.11309 8.06254C8.05527 8.10187 8.01267 8.15664 7.99133 8.21908ZM7.46366 14.0939L8.99711 9.78614L10.543 14.0939H7.46366Z" fill="white"/>
  <path d="M16.5333 8H15.4667C15.2089 8 15 8.14019 15 8.31312V16.6869C15 16.8598 15.2089 17 15.4667 17H16.5333C16.7911 17 17 16.8598 17 16.6869V8.31312C17 8.14019 16.7911 8 16.5333 8Z" fill="white"/>
  <path d="M12.2741 20.6136H5.33214C4.81587 20.6136 4.32075 20.4085 3.95569 20.0433C3.59063 19.6781 3.38554 19.1828 3.38554 18.6664V6.33364C3.38554 5.81719 3.59063 5.3219 3.95569 4.95671C4.32075 4.59153 4.81587 4.38637 5.33214 4.38637H17.6606C18.1769 4.38637 18.672 4.59153 19.0371 4.95671C19.4021 5.3219 19.6072 5.81719 19.6072 6.33364V12.5C19.6116 12.6302 19.6672 12.7534 19.7619 12.8428C19.8566 12.9322 19.9828 12.9805 20.113 12.9773C20.5192 12.976 20.9201 13.0692 21.2843 13.2493C21.3598 13.2881 21.4442 13.3066 21.5291 13.3031C21.6139 13.2996 21.6964 13.2741 21.7685 13.2291C21.8406 13.1842 21.8998 13.1213 21.9404 13.0466C21.9809 12.9719 22.0015 12.888 21.9999 12.8031V6.33364C21.9999 5.76394 21.8876 5.19982 21.6695 4.67358C21.4513 4.14733 21.1316 3.66927 20.7285 3.26676C20.3255 2.86426 19.8471 2.54519 19.3207 2.32783C18.7942 2.11046 18.2301 1.99906 17.6606 2.00001H5.33214C4.18319 2.00001 3.08129 2.45658 2.26886 3.2693C1.45642 4.08201 1 5.18429 1 6.33364V18.6664C1 19.8157 1.45642 20.918 2.26886 21.7307C3.08129 22.5434 4.18319 23 5.33214 23H13.276C13.3736 23.0001 13.4691 22.9713 13.5503 22.9172C13.6316 22.8631 13.6949 22.7861 13.7325 22.6959C13.77 22.6058 13.78 22.5065 13.7611 22.4107C13.7423 22.3149 13.6955 22.2268 13.6267 22.1576C13.2555 21.8169 12.9548 21.4067 12.7416 20.9501C12.7075 20.8529 12.6443 20.7685 12.5607 20.7084C12.4771 20.6482 12.3771 20.6151 12.2741 20.6136Z" fill="white"/>
  <path d="M23.4917 22.0589L25.8363 21.2179C25.8846 21.2005 25.926 21.1704 25.9552 21.1313C25.9844 21.0922 26 21.0461 26 20.9988C26 20.9516 25.9844 20.9054 25.9552 20.8664C25.926 20.8273 25.8846 20.7971 25.8363 20.7797L23.4917 19.9388C23.0766 19.7894 22.6996 19.5641 22.384 19.2768C22.0684 18.9895 21.8209 18.6464 21.6568 18.2686L20.7329 16.1484C20.7137 16.1046 20.6805 16.067 20.6376 16.0405C20.5947 16.0141 20.5441 16 20.4922 16C20.4404 16 20.3898 16.0141 20.3468 16.0405C20.3039 16.067 20.2707 16.1046 20.2516 16.1484L19.3277 18.2686C19.164 18.6466 18.9166 18.9899 18.6009 19.2772C18.2853 19.5646 17.9081 19.7897 17.4928 19.9388L15.1637 20.7797C15.1154 20.7971 15.074 20.8273 15.0448 20.8664C15.0156 20.9054 15 20.9516 15 20.9988C15 21.0461 15.0156 21.0922 15.0448 21.1313C15.074 21.1704 15.1154 21.2005 15.1637 21.2179L17.4928 22.0589C17.9081 22.2079 18.2853 22.4331 18.6009 22.7204C18.9166 23.0077 19.164 23.3511 19.3277 23.7291L20.2516 25.8492C20.2703 25.8935 20.3033 25.9316 20.3463 25.9585C20.3892 25.9854 20.4401 25.9999 20.4922 26C20.5444 25.9999 20.5952 25.9854 20.6382 25.9585C20.6811 25.9316 20.7141 25.8935 20.7329 25.8492L21.6568 23.7291C21.8209 23.3513 22.0684 23.0081 22.384 22.7208C22.6996 22.4336 23.0766 22.2083 23.4917 22.0589Z" fill="white"/>
</svg>