<svg width="195" height="48" viewBox="0 0 195 48" fill="none" xmlns="http://www.w3.org/2000/svg">
<path fill-rule="evenodd" clip-rule="evenodd" d="M148.182 20.1613C149.763 18.8146 151.337 17.3392 152.912 15.7218V24.9661C152.912 26.9817 154.309 28.3255 156.244 28.3255H159.953C161.888 28.3255 163.286 26.9817 163.286 24.9661V15.3716H168.016V25.3154C168.016 29.7767 164.656 32.8405 160.034 32.8405H156.164C151.541 32.8405 148.182 29.7767 148.182 25.3154V20.1613ZM143.488 16.1127C142.501 15.6329 141.349 15.3716 140.088 15.3716H128.048V27.2123C129.637 26.4286 131.192 25.5686 132.724 24.6205V19.8597H139.325C140.717 18.7066 142.101 17.4609 143.488 16.1127ZM135.222 28.4061C139.297 26.5921 143.161 24.2423 146.96 21.1744C146.983 21.4117 146.995 21.6544 146.995 21.9023C146.995 24.5629 145.598 26.6592 143.421 27.7073L147.828 32.8405H141.701L138.207 28.4061H135.222ZM132.724 29.442C131.2 30.0292 129.644 30.5495 128.048 31.012V32.8405H132.724V29.442ZM124.818 28.6827L118.188 16.6616C117.705 15.8016 117.006 15.3716 116.092 15.3716H115.017C114.104 15.3716 113.405 15.8016 112.921 16.6616L103.998 32.8405H109.185L115.582 20.8004L118.565 26.4173H114.345L112.357 30.153H120.554L120.616 30.2693C122.05 29.7834 123.448 29.2569 124.818 28.6827ZM121.822 32.5012C123.372 32.2004 124.883 31.861 126.359 31.4765L127.111 32.8405H122.005L121.822 32.5012ZM103.024 32.8405H93.6715C88.3234 32.8405 84.4265 29.3199 84.4265 24.1061C84.4265 18.8922 88.3234 15.3716 93.6715 15.3716H103.024V19.8597H93.349C90.9034 19.8597 89.1027 21.5798 89.1027 24.1061C89.1027 26.6054 90.9034 28.3255 93.349 28.3255H98.5628V25.9336H92.8922V22.1979H103.024V32.8405ZM180.054 32.8405H170.003V15.3716H180.054C185.375 15.3716 189.272 18.8922 189.272 24.1061C189.272 29.3199 185.375 32.8405 180.054 32.8405ZM174.706 28.3255H180.377C182.822 28.3255 184.569 26.6054 184.569 24.1061C184.569 21.5798 182.822 19.8597 180.377 19.8597H174.706V28.3255Z" fill="white"/>
<path d="M145.023 8.2852C144.866 8.22148 144.59 8.2852 144.59 8.2852C144.59 8.2852 144.551 8.10251 144.59 7.99718C144.63 7.89265 144.682 7.83888 144.778 7.78117C144.89 7.7133 144.99 7.77818 145.109 7.72357C145.204 7.68006 145.227 7.60244 145.325 7.56516C145.457 7.51505 145.548 7.53391 145.685 7.56516C145.877 7.60889 146.118 7.82437 146.118 7.82437L147.241 8.67402C147.241 8.67402 147.682 8.96924 148.005 9.04844C148.482 9.16555 148.786 9.08178 149.258 8.94764C149.86 8.77682 150.642 8.14119 150.642 8.14119C150.642 8.14119 151.669 8.05028 152.299 7.86757C153.565 7.50031 154.257 7.20827 155.223 6.18268C156.19 5.15709 156.6 4.55705 157.125 3.44652C157.238 4.38646 157.246 4.91302 157.197 5.85146C157.149 6.7899 157.027 7.51667 156.736 7.79557C156.445 8.07447 156.233 8.17024 155.785 8.242C155.338 8.31375 154.143 8.242 154.143 8.242C154.143 8.242 154.867 8.51985 155.353 8.60202C155.72 8.66407 156.304 8.67402 156.304 8.67402C155.962 9.35726 155.661 9.72155 154.95 10.3445C154.95 10.3445 154.134 10.4359 153.624 10.3445C153.033 10.2385 152.198 9.76848 152.198 9.76848C152.198 9.76848 152.701 10.2223 153.062 10.4597C153.46 10.721 154.143 11.0214 154.143 11.0214C153.47 11.5426 153.041 11.766 152.14 11.9862L151.304 11.5254C150.978 11.3454 150.469 10.7765 150.469 10.7765C150.469 10.7765 150.702 11.1538 150.872 11.3814C151.122 11.7168 151.578 12.1878 151.578 12.1878C150.526 12.4679 149.93 12.5652 148.855 12.6198L148.207 11.6694C148.207 11.6694 148.196 11.8629 148.207 11.9862C148.352 13.7144 149.093 16.3359 149.014 16.3353H148.61L148.164 15.0104L148.207 16.2489L147.544 16.0472L147.4 14.6072L147.169 15.86L146.449 15.3128L146.694 14.6072L146.363 15.0536C146.363 15.0536 146.16 14.6708 146.089 14.4055C145.953 13.9005 146.089 13.0663 146.089 13.0663L146.363 11.727L146.046 11.0214C146.046 11.0214 145.997 11.3348 145.93 11.5254C145.755 12.0265 145.123 12.6198 145.123 12.6198C144.095 12.5594 143.52 12.4926 142.501 12.1878L143.611 10.7765C143.611 10.7765 143.088 11.2745 142.703 11.5254C142.378 11.737 141.824 11.9862 141.824 11.9862C141.019 11.7216 140.601 11.5147 139.922 11.0214C139.922 11.0214 140.35 10.8218 140.614 10.6757C141.153 10.3775 141.925 9.79729 141.925 9.79729L140.095 10.4309H139.029C138.405 9.78902 138.109 9.41644 137.732 8.71722C137.732 8.71722 138.281 8.69414 138.626 8.63082C139.082 8.54688 139.764 8.2852 139.764 8.2852C139.764 8.2852 139.037 8.36392 138.582 8.2852C138.04 8.19125 137.271 7.76677 137.271 7.76677C137.271 7.76677 136.895 6.49176 136.825 5.64985C136.751 4.77473 136.925 3.40332 136.925 3.40332C136.925 3.40332 137.285 4.25844 137.603 4.757C138.101 5.53979 138.465 5.9455 139.187 6.5283C139.967 7.15744 140.486 7.44568 141.435 7.76677C142.178 8.01812 143.409 8.14119 143.409 8.14119C143.409 8.14119 144.057 8.78133 144.59 8.94764C144.947 9.0588 145.541 9.04844 145.541 9.04844C145.541 9.04844 145.447 8.73676 145.325 8.57322C145.228 8.44238 145.174 8.34679 145.023 8.2852Z" fill="white"/>
<g clip-path="url(#clip0_1204_5593)">
<path fill-rule="evenodd" clip-rule="evenodd" d="M17.8669 11.0605L17.9189 11.0607V14.8052C17.9016 14.8051 17.8843 14.805 17.8669 14.805C13.4722 14.805 9.90964 18.3676 9.90964 22.7623C9.90964 27.157 13.4722 30.7195 17.8669 30.7195C21.5982 30.7195 24.7296 28.1513 25.59 24.6862H29.4349C28.0627 32.4984 18.9756 41.6659 18.5596 42.0838C18.3678 42.2736 18.1174 42.3694 17.8669 42.3694C17.6164 42.3694 17.366 42.2736 17.1742 42.0838C16.7241 41.6317 6.12607 30.9397 6.12607 22.8014C6.12607 16.3263 11.3918 11.0605 17.8669 11.0605Z" fill="white"/>
<g clip-path="url(#clip1_1204_5593)">
<path d="M17.8117 16.5054C17.6782 16.5054 17.5456 16.5096 17.4141 16.5178L12.2181 19.9754C11.8037 20.8103 11.5708 21.7511 11.5708 22.7463C11.5708 24.5717 12.3544 26.2141 13.6037 27.3553C13.6037 27.3553 15.6376 28.7543 17.8117 28.7543C20.7207 28.7543 23.7468 26.1931 23.7468 22.7463C23.7468 18.6595 19.8584 16.8487 19.8584 16.8487C19.2173 16.6262 18.5286 16.5054 17.8117 16.5054Z" fill="#008CDF"/>
<path d="M23.9917 21.8695L22.4787 21.6968C22.4787 25.1436 19.6845 27.9378 16.2377 27.9378C15.2964 27.9378 14.4042 27.7284 13.6038 27.3551C14.0883 27.7978 14.643 28.1651 15.2491 28.4384L15.6166 28.4179L16.0826 28.7444C16.6317 28.9024 17.2119 28.9872 17.8119 28.9872C21.2587 28.9872 24.0528 26.193 24.0528 22.7462C24.0528 22.4486 24.032 22.1559 23.9917 21.8695Z" fill="#0069D0"/>
<path d="M20.4524 17.0896C20.2597 16.9995 20.0615 16.919 19.8586 16.8486L19.3066 17.3341C19.1554 17.4633 19.1193 17.6863 19.2305 17.859C19.3374 18.025 19.5535 18.0829 19.7354 18.0061L19.8471 17.9589C19.9843 17.901 20.145 17.922 20.2562 18.021C20.4527 18.1961 20.4185 18.5055 20.1979 18.636L18.9017 19.403C18.6486 19.5528 18.4878 19.8252 18.493 20.1193C18.4985 20.4248 18.6697 20.6736 19.0137 20.7053C19.7256 20.7709 19.6231 20.0166 20.0413 20.0166H21.4754C21.6937 20.0166 21.883 20.1799 21.9019 20.3973C21.9235 20.6451 21.7287 20.8529 21.4854 20.8529H19.7657C19.0968 20.8529 18.5135 21.3683 18.4935 22.0369C18.4727 22.7288 19.0273 23.2961 19.7145 23.2961H19.8894C20.2229 23.2961 20.4933 23.5665 20.4933 23.9001V26.0463C20.4933 26.11 20.5045 26.1729 20.5256 26.2315L21.0307 26.2206L22.6033 23.6632L22.8054 22.1975L23.3181 21.4552C23.3181 21.4552 22.327 17.9659 20.4524 17.0896Z" fill="#98DB7C"/>
<path d="M23.9915 21.8697C23.6935 19.7479 22.324 17.9669 20.4522 17.0898C21.6961 18.2307 22.4785 19.8761 22.4785 21.6971C22.4785 23.4842 21.7292 25.0939 20.5253 26.2317C20.5991 26.4425 20.8084 26.5889 21.0516 26.5542C21.2067 26.532 21.3384 26.4277 21.4157 26.2914L22.9052 23.6649C23.0371 23.4324 23.071 23.157 22.9996 22.8994L22.8842 22.4829C22.8462 22.346 22.9581 22.2139 23.0994 22.2289L23.1816 22.2376C23.4026 22.261 23.6235 22.1912 23.791 22.045L23.9915 21.8697Z" fill="#77CC7D"/>
<path d="M17.7535 17.0569L17.4141 16.5176C15.1314 16.6608 13.1831 18.0297 12.2181 19.9751L12.6114 22.692C12.6555 22.997 12.8369 23.2649 13.1036 23.4192C13.2571 23.5079 13.3242 23.6944 13.2626 23.8606L13.1283 24.2228C13.0075 24.5487 13.1095 24.9154 13.3812 25.1322L13.7398 25.4183C13.8624 25.5161 13.9605 25.6413 14.0262 25.7838L14.958 27.8058L15.5026 28.1901L15.8872 27.9279L15.7477 27.3451C15.6691 27.0163 15.7112 26.6702 15.8665 26.3699L16.4713 25.2002C16.6378 24.8781 16.4849 24.4828 16.1449 24.3566L15.648 24.1722C15.4902 24.1137 15.3855 23.9631 15.3855 23.7948V23.756C15.3855 23.5336 15.2052 23.3533 14.9829 23.3533H14.1191C13.9074 23.3533 13.6995 23.2977 13.5161 23.192L13.3054 23.0707C13.1453 22.9784 13.0364 22.8179 13.01 22.6351L12.9965 22.5419C12.9627 22.3076 13.0688 22.0752 13.268 21.9473L13.3918 21.8678C13.5418 21.7715 13.7373 21.7852 13.8723 21.9016L13.9827 21.9968C14.117 22.1126 14.3264 22.044 14.3661 21.871L14.4838 21.3582C14.5466 21.0849 14.7469 20.864 15.0127 20.7748L15.8813 20.4835C16.1294 20.4003 16.2335 20.1063 16.093 19.8856L15.6981 19.265C15.5896 19.0945 15.3715 19.0309 15.1883 19.1163L14.8622 19.2683C14.6935 19.3469 14.4834 19.3132 14.3695 19.166C14.2226 18.9761 14.2817 18.7032 14.4889 18.5895L15.3085 18.1395C15.5803 17.9902 15.9211 18.0711 16.0968 18.3267L16.173 18.4374C16.2856 18.6013 16.4717 18.6992 16.6706 18.6992H17.0394C17.2839 18.6992 17.5042 18.5518 17.5976 18.3259L17.817 17.7946C17.9169 17.553 17.8932 17.2779 17.7535 17.0569Z" fill="#98DB7C"/>
<path d="M15.2489 28.4387C15.5173 28.5597 15.7954 28.662 16.0824 28.7447L15.8871 27.9283C15.5699 27.9106 15.2607 27.8696 14.9579 27.8062L15.2489 28.4387Z" fill="#77CC7D"/>
</g>
</g>
<path d="M35.2937 40.2823C34.9624 40.2823 34.6793 40.2262 34.4445 40.114C34.2097 39.9992 34.0296 39.8361 33.9044 39.6248C33.7792 39.4135 33.7166 39.1617 33.7166 38.8695C33.7166 38.6399 33.7557 38.4377 33.834 38.2629C33.9122 38.0881 34.0205 37.942 34.1588 37.8246C34.2997 37.7045 34.4628 37.6145 34.648 37.5545C34.8332 37.4945 35.0315 37.4645 35.2429 37.4645C35.3655 37.4645 35.4894 37.4762 35.6147 37.4997C35.7399 37.5232 35.8625 37.5571 35.9825 37.6015L36.1078 37.6524L36.0178 38.0476L35.869 38.0163C35.7595 37.9928 35.6525 37.9746 35.5481 37.9615C35.4464 37.9459 35.3498 37.938 35.2585 37.938C35.0602 37.938 34.8841 37.972 34.7302 38.0398C34.5789 38.1076 34.4588 38.2107 34.3701 38.349C34.284 38.4846 34.241 38.6595 34.241 38.8734C34.241 39.0847 34.2827 39.2622 34.3662 39.4057C34.4497 39.5465 34.571 39.6535 34.7302 39.7266C34.8893 39.797 35.0811 39.8322 35.3055 39.8322C35.3811 39.8322 35.4607 39.827 35.5442 39.8166C35.6277 39.8061 35.7112 39.7905 35.7947 39.7696V39.1434H35.0511V38.6934H36.3074V40.0318C36.216 40.0788 36.1143 40.1218 36.0021 40.161C35.8899 40.1975 35.7738 40.2262 35.6538 40.2471C35.5338 40.2706 35.4138 40.2823 35.2937 40.2823ZM36.8574 40.2432V37.5036H37.37V40.2432H36.8574ZM38.8959 40.2823C38.7471 40.2823 38.6062 40.2719 38.4732 40.251C38.3401 40.2301 38.2162 40.204 38.1014 40.1727L37.8666 40.1062L37.9488 39.7148L38.2305 39.7618C38.3271 39.7801 38.4367 39.7957 38.5593 39.8088C38.6819 39.8192 38.7928 39.8244 38.8919 39.8244C39.0772 39.8244 39.2155 39.7957 39.3068 39.7383C39.4007 39.6783 39.4477 39.5909 39.4477 39.4761C39.4477 39.4187 39.432 39.3691 39.4007 39.3274C39.372 39.283 39.3133 39.24 39.2246 39.1982C39.1359 39.1565 39.0028 39.1095 38.8254 39.0573C38.6062 38.9921 38.4314 38.9269 38.301 38.8617C38.1731 38.7964 38.0805 38.7169 38.0231 38.6229C37.9683 38.529 37.9409 38.4077 37.9409 38.259C37.9409 38.0711 37.9879 37.9198 38.0818 37.805C38.1784 37.6876 38.3075 37.6015 38.4693 37.5467C38.6336 37.4919 38.8163 37.4645 39.0172 37.4645C39.1346 37.4645 39.2559 37.4736 39.3811 37.4919C39.509 37.5102 39.6342 37.5362 39.7568 37.5702L39.9212 37.6132L39.8469 38.0007L39.616 37.9694C39.5273 37.9563 39.4333 37.9446 39.3342 37.9341C39.235 37.9211 39.1385 37.9146 39.0446 37.9146C38.8515 37.9146 38.7054 37.9433 38.6062 38.0007C38.5097 38.0555 38.4614 38.1402 38.4614 38.255C38.4614 38.3124 38.4771 38.3607 38.5084 38.3999C38.5423 38.4364 38.6062 38.4716 38.7002 38.5055C38.7941 38.5394 38.9324 38.5825 39.115 38.6347C39.3316 38.6921 39.5025 38.756 39.6277 38.8264C39.7555 38.8969 39.8469 38.9804 39.9017 39.0769C39.9564 39.1708 39.9838 39.2869 39.9838 39.4252C39.9838 39.6209 39.9356 39.7827 39.839 39.9105C39.7425 40.0357 39.612 40.1297 39.4477 40.1923C39.2833 40.2523 39.0994 40.2823 38.8959 40.2823ZM42.0311 40.2745C41.9241 40.2745 41.8224 40.2549 41.7258 40.2158C41.6293 40.174 41.551 40.1114 41.491 40.0279C41.431 39.9444 41.401 39.8401 41.401 39.7148C41.401 39.5478 41.4545 39.4161 41.5615 39.3196C41.6684 39.2204 41.8198 39.1513 42.0154 39.1121L42.6142 38.9869V38.9791C42.6142 38.8643 42.579 38.7808 42.5085 38.7286C42.4381 38.6764 42.3298 38.6503 42.1837 38.6503C42.1002 38.6503 42.0141 38.6555 41.9254 38.666C41.8393 38.6764 41.7584 38.6895 41.6828 38.7051L41.5928 38.7247L41.5106 38.3999L41.6084 38.3646C41.7389 38.3177 41.8602 38.2824 41.9724 38.259C42.0872 38.2355 42.2007 38.2237 42.3129 38.2237C42.5477 38.2237 42.7381 38.2864 42.8843 38.4116C43.0304 38.5368 43.1034 38.726 43.1034 38.9791V39.707C43.1034 39.7879 43.1217 39.8427 43.1582 39.8714C43.1973 39.8975 43.2769 39.9157 43.3969 39.9262L43.3695 40.251C43.3356 40.2588 43.303 40.264 43.2717 40.2666C43.2404 40.2719 43.213 40.2745 43.1895 40.2745C43.0538 40.2745 42.9456 40.2445 42.8647 40.1845C42.7864 40.1218 42.7277 40.0462 42.6886 39.9575L42.5986 40.0397C42.5125 40.1179 42.4185 40.1766 42.3168 40.2158C42.2176 40.2549 42.1224 40.2745 42.0311 40.2745ZM42.1798 39.8635C42.232 39.8635 42.2881 39.8531 42.3481 39.8322C42.4081 39.8114 42.4681 39.7801 42.5281 39.7383L42.6142 39.6796V39.2765L42.0859 39.4252C42.0102 39.4461 41.9567 39.4761 41.9254 39.5152C41.8941 39.5544 41.8785 39.6 41.8785 39.6522C41.8785 39.72 41.9045 39.7722 41.9567 39.8088C42.0089 39.8453 42.0833 39.8635 42.1798 39.8635ZM43.7088 40.2432V38.255H44.0845L44.1197 38.4586L44.2489 38.3881C44.3454 38.3359 44.442 38.2955 44.5385 38.2668C44.635 38.2381 44.7303 38.2237 44.8242 38.2237C44.9833 38.2237 45.1125 38.2537 45.2116 38.3138C45.3108 38.3738 45.3838 38.4546 45.4308 38.5564C45.4804 38.6582 45.5052 38.773 45.5052 38.9008V40.2432H45.012V39.0221C45.012 38.9073 44.9833 38.8199 44.9259 38.7599C44.8685 38.6999 44.7746 38.6699 44.6442 38.6699C44.5894 38.6699 44.5359 38.6777 44.4837 38.6934C44.4341 38.7064 44.3819 38.726 44.3272 38.7521L44.2019 38.8069V40.2432H43.7088ZM46.7998 40.2745C46.6563 40.2745 46.5297 40.2471 46.4201 40.1923C46.3132 40.1349 46.2232 40.0579 46.1501 39.9614C46.077 39.8648 46.021 39.7553 45.9818 39.6326C45.9453 39.51 45.927 39.3822 45.927 39.2491C45.927 39.1108 45.9453 38.9804 45.9818 38.8577C46.021 38.7351 46.0784 38.6268 46.154 38.5329C46.2297 38.4364 46.321 38.3607 46.428 38.3059C46.5375 38.2511 46.6628 38.2237 46.8037 38.2237C46.8741 38.2237 46.9498 38.2329 47.0307 38.2511C47.1115 38.2668 47.1885 38.2916 47.2616 38.3255L47.379 38.3764V37.3549L47.8721 37.2297V40.2432H47.5003L47.4612 40.0005L47.3398 40.0827C47.2537 40.1401 47.165 40.1871 47.0737 40.2236C46.9824 40.2575 46.8911 40.2745 46.7998 40.2745ZM46.428 39.2452C46.428 39.3704 46.4462 39.4787 46.4828 39.57C46.5219 39.6587 46.5793 39.7266 46.655 39.7735C46.7306 39.8205 46.8259 39.844 46.9407 39.844C46.985 39.844 47.0333 39.8375 47.0855 39.8244C47.1376 39.8088 47.1911 39.784 47.2459 39.75L47.379 39.6679V38.7756L47.2459 38.7169C47.1963 38.696 47.1455 38.6803 47.0933 38.6699C47.0437 38.6568 46.9941 38.6503 46.9446 38.6503C46.8428 38.6503 46.7528 38.6725 46.6745 38.7169C46.5963 38.7586 46.5349 38.8238 46.4906 38.9125C46.4488 38.9986 46.428 39.1095 46.428 39.2452ZM49.2833 40.2432L50.3478 37.5036H50.9426L52.015 40.2432H51.4514L50.6491 38.0515H50.6374L49.8155 40.2432H49.2833ZM49.9447 39.6992V39.2491H51.3379V39.6992H49.9447ZM52.3272 40.2432V38.255H52.6872L52.7381 38.4977L52.8868 38.392C52.9625 38.3398 53.0433 38.2994 53.1294 38.2707C53.2155 38.2394 53.2977 38.2237 53.376 38.2237C53.4047 38.2237 53.4334 38.229 53.4621 38.2394C53.4934 38.2472 53.5234 38.2616 53.5521 38.2824V38.6738C53.4712 38.6764 53.393 38.6842 53.3173 38.6973C53.2442 38.7103 53.1608 38.7351 53.0668 38.7716L52.8203 38.8617V40.2432H52.3272ZM54.7076 40.2745C54.5119 40.2745 54.3632 40.2314 54.2615 40.1453C54.1597 40.0592 54.1088 39.9196 54.1088 39.7266V38.6855H53.6822V38.3411L54.1088 38.255V37.7932L54.6019 37.6445V38.255H55.2203V38.6855H54.6019V39.57C54.6019 39.6639 54.6176 39.7344 54.6489 39.7814C54.6828 39.8283 54.7598 39.8518 54.8798 39.8518C54.9137 39.8518 54.949 39.8505 54.9855 39.8479C55.022 39.8453 55.0611 39.8414 55.1029 39.8361L55.2046 39.8244L55.2594 40.1805L55.1694 40.204C55.0964 40.2223 55.0181 40.2379 54.9346 40.251C54.8537 40.2666 54.7781 40.2745 54.7076 40.2745ZM55.6178 40.2432V38.255H56.1109V40.2432H55.6178ZM55.8644 37.8676C55.807 37.8676 55.7535 37.8533 55.7039 37.8246C55.6543 37.7959 55.6152 37.758 55.5865 37.7111C55.5578 37.6641 55.5434 37.6119 55.5434 37.5545C55.5434 37.4997 55.5578 37.4488 55.5865 37.4019C55.6152 37.3549 55.6543 37.3184 55.7039 37.2923C55.7535 37.2636 55.807 37.2493 55.8644 37.2493C55.9244 37.2493 55.9779 37.2636 56.0248 37.2923C56.0744 37.3184 56.1135 37.3549 56.1422 37.4019C56.1709 37.4488 56.1853 37.4997 56.1853 37.5545C56.1853 37.6119 56.1709 37.6641 56.1422 37.7111C56.1135 37.758 56.0744 37.7959 56.0248 37.8246C55.9779 37.8533 55.9244 37.8676 55.8644 37.8676ZM56.853 40.2432V38.6855H56.4225V38.3411L56.853 38.255V37.9185C56.853 37.7619 56.883 37.6367 56.9431 37.5428C57.0031 37.4462 57.0852 37.3758 57.1896 37.3314C57.294 37.2871 57.414 37.2649 57.5497 37.2649C57.6175 37.2649 57.6892 37.2714 57.7649 37.2845C57.8406 37.2975 57.9162 37.3145 57.9919 37.3353L58.0349 37.3471L57.9684 37.7267L57.9175 37.7189C57.8758 37.7137 57.8367 37.7084 57.8001 37.7032C57.7636 37.698 57.7297 37.6954 57.6984 37.6954C57.5862 37.6954 57.4988 37.7163 57.4362 37.758C57.3762 37.7998 57.3462 37.8715 57.3462 37.9733V38.255H57.9488V38.6855H57.3462V40.2432H56.853ZM58.3167 40.2432V38.255H58.8098V40.2432H58.3167ZM58.5633 37.8676C58.5059 37.8676 58.4524 37.8533 58.4028 37.8246C58.3533 37.7959 58.3141 37.758 58.2854 37.7111C58.2567 37.6641 58.2424 37.6119 58.2424 37.5545C58.2424 37.4997 58.2567 37.4488 58.2854 37.4019C58.3141 37.3549 58.3533 37.3184 58.4028 37.2923C58.4524 37.2636 58.5059 37.2493 58.5633 37.2493C58.6233 37.2493 58.6768 37.2636 58.7237 37.2923C58.7733 37.3184 58.8125 37.3549 58.8412 37.4019C58.8699 37.4488 58.8842 37.4997 58.8842 37.5545C58.8842 37.6119 58.8699 37.6641 58.8412 37.7111C58.8125 37.758 58.7733 37.7959 58.7237 37.8246C58.6768 37.8533 58.6233 37.8676 58.5633 37.8676ZM60.2791 40.2745C60.0861 40.2745 59.9126 40.2353 59.7586 40.1571C59.6047 40.0762 59.4834 39.9601 59.3947 39.8088C59.3059 39.6548 59.2616 39.4683 59.2616 39.2491C59.2616 39.0299 59.3072 38.8447 59.3986 38.6934C59.4925 38.5394 59.6164 38.4233 59.7704 38.3451C59.9243 38.2642 60.0952 38.2237 60.283 38.2237C60.3744 38.2237 60.4618 38.2329 60.5453 38.2511C60.6314 38.2668 60.7096 38.289 60.7801 38.3177L60.8897 38.3607L60.7996 38.7208L60.6666 38.6895C60.6092 38.6764 60.5518 38.6673 60.4944 38.6621C60.437 38.6568 60.3835 38.6542 60.3339 38.6542C60.2217 38.6542 60.1226 38.6777 60.0365 38.7247C59.9504 38.769 59.8826 38.8356 59.833 38.9243C59.786 39.0104 59.7625 39.1187 59.7625 39.2491C59.7625 39.377 59.7873 39.4852 59.8369 39.5739C59.8865 39.6626 59.9543 39.7292 60.0404 39.7735C60.1291 39.8179 60.2296 39.8401 60.3417 39.8401C60.3939 39.8401 60.45 39.8375 60.51 39.8322C60.5727 39.8244 60.6366 39.814 60.7018 39.8009L60.8231 39.7735L60.917 40.1258L60.8153 40.1688C60.7266 40.2053 60.6353 40.2314 60.5413 40.2471C60.45 40.2653 60.3626 40.2745 60.2791 40.2745ZM61.278 40.2432V38.255H61.7711V40.2432H61.278ZM61.5246 37.8676C61.4672 37.8676 61.4137 37.8533 61.3641 37.8246C61.3145 37.7959 61.2754 37.758 61.2467 37.7111C61.218 37.6641 61.2037 37.6119 61.2037 37.5545C61.2037 37.4997 61.218 37.4488 61.2467 37.4019C61.2754 37.3549 61.3145 37.3184 61.3641 37.2923C61.4137 37.2636 61.4672 37.2493 61.5246 37.2493C61.5846 37.2493 61.6381 37.2636 61.685 37.2923C61.7346 37.3184 61.7737 37.3549 61.8024 37.4019C61.8311 37.4488 61.8455 37.4997 61.8455 37.5545C61.8455 37.6119 61.8311 37.6641 61.8024 37.7111C61.7737 37.758 61.7346 37.7959 61.685 37.8246C61.6381 37.8533 61.5846 37.8676 61.5246 37.8676ZM62.8107 40.2745C62.7037 40.2745 62.602 40.2549 62.5054 40.2158C62.4089 40.174 62.3306 40.1114 62.2706 40.0279C62.2106 39.9444 62.1806 39.8401 62.1806 39.7148C62.1806 39.5478 62.2341 39.4161 62.3411 39.3196C62.448 39.2204 62.5994 39.1513 62.795 39.1121L63.3938 38.9869V38.9791C63.3938 38.8643 63.3586 38.7808 63.2881 38.7286C63.2177 38.6764 63.1094 38.6503 62.9633 38.6503C62.8798 38.6503 62.7937 38.6555 62.705 38.666C62.6189 38.6764 62.538 38.6895 62.4624 38.7051L62.3724 38.7247L62.2902 38.3999L62.388 38.3646C62.5185 38.3177 62.6398 38.2824 62.752 38.259C62.8668 38.2355 62.9803 38.2237 63.0925 38.2237C63.3273 38.2237 63.5177 38.2864 63.6639 38.4116C63.81 38.5368 63.883 38.726 63.883 38.9791V39.707C63.883 39.7879 63.9013 39.8427 63.9378 39.8714C63.9769 39.8975 64.0565 39.9157 64.1765 39.9262L64.1491 40.251C64.1152 40.2588 64.0826 40.264 64.0513 40.2666C64.02 40.2719 63.9926 40.2745 63.9691 40.2745C63.8334 40.2745 63.7252 40.2445 63.6443 40.1845C63.566 40.1218 63.5073 40.0462 63.4682 39.9575L63.3782 40.0397C63.2921 40.1179 63.1981 40.1766 63.0964 40.2158C62.9972 40.2549 62.902 40.2745 62.8107 40.2745ZM62.9594 39.8635C63.0116 39.8635 63.0677 39.8531 63.1277 39.8322C63.1877 39.8114 63.2477 39.7801 63.3077 39.7383L63.3938 39.6796V39.2765L62.8655 39.4252C62.7898 39.4461 62.7363 39.4761 62.705 39.5152C62.6737 39.5544 62.6581 39.6 62.6581 39.6522C62.6581 39.72 62.6841 39.7722 62.7363 39.8088C62.7885 39.8453 62.8629 39.8635 62.9594 39.8635ZM65.0402 40.2745C64.8367 40.2745 64.6906 40.2275 64.6019 40.1336C64.5132 40.0397 64.4688 39.917 64.4688 39.7657V37.3549L64.962 37.2297V39.6561C64.962 39.7161 64.9789 39.7631 65.0128 39.797C65.0494 39.8283 65.1094 39.844 65.1929 39.844C65.2137 39.844 65.2372 39.844 65.2633 39.844C65.2894 39.8414 65.3155 39.8388 65.3416 39.8361L65.3298 40.2158C65.2829 40.234 65.2333 40.2484 65.1811 40.2588C65.1315 40.2693 65.0846 40.2745 65.0402 40.2745ZM66.7854 40.2432V38.255H67.2785V40.2432H66.7854ZM67.0319 37.8676C66.9745 37.8676 66.921 37.8533 66.8715 37.8246C66.8219 37.7959 66.7827 37.758 66.754 37.7111C66.7254 37.6641 66.711 37.6119 66.711 37.5545C66.711 37.4997 66.7254 37.4488 66.754 37.4019C66.7827 37.3549 66.8219 37.3184 66.8715 37.2923C66.921 37.2636 66.9745 37.2493 67.0319 37.2493C67.0919 37.2493 67.1454 37.2636 67.1924 37.2923C67.2419 37.3184 67.2811 37.3549 67.3098 37.4019C67.3385 37.4488 67.3528 37.4997 67.3528 37.5545C67.3528 37.6119 67.3385 37.6641 67.3098 37.7111C67.2811 37.758 67.2419 37.7959 67.1924 37.8246C67.1454 37.8533 67.0919 37.8676 67.0319 37.8676ZM67.8249 40.2432V38.255H68.2006L68.2358 38.4586L68.365 38.3881C68.4615 38.3359 68.5581 38.2955 68.6546 38.2668C68.7511 38.2381 68.8464 38.2237 68.9403 38.2237C69.0994 38.2237 69.2286 38.2537 69.3277 38.3138C69.4269 38.3738 69.4999 38.4546 69.5469 38.5564C69.5965 38.6582 69.6213 38.773 69.6213 38.9008V40.2432H69.1281V39.0221C69.1281 38.9073 69.0994 38.8199 69.042 38.7599C68.9846 38.6999 68.8907 38.6699 68.7603 38.6699C68.7055 38.6699 68.652 38.6777 68.5998 38.6934C68.5502 38.7064 68.4981 38.726 68.4433 38.7521L68.318 38.8069V40.2432H67.8249ZM70.9315 40.2745C70.7358 40.2745 70.5871 40.2314 70.4854 40.1453C70.3836 40.0592 70.3327 39.9196 70.3327 39.7266V38.6855H69.9062V38.3411L70.3327 38.255V37.7932L70.8259 37.6445V38.255H71.4442V38.6855H70.8259V39.57C70.8259 39.6639 70.8415 39.7344 70.8728 39.7814C70.9067 39.8283 70.9837 39.8518 71.1037 39.8518C71.1376 39.8518 71.1729 39.8505 71.2094 39.8479C71.2459 39.8453 71.2851 39.8414 71.3268 39.8361L71.4286 39.8244L71.4833 40.1805L71.3933 40.204C71.3203 40.2223 71.242 40.2379 71.1585 40.251C71.0776 40.2666 71.002 40.2745 70.9315 40.2745ZM72.755 40.2745C72.5619 40.2745 72.3845 40.2353 72.2227 40.1571C72.0609 40.0788 71.9305 39.964 71.8313 39.8127C71.7348 39.6587 71.6865 39.4722 71.6865 39.253C71.6865 39.0965 71.7126 38.9556 71.7648 38.8303C71.817 38.7025 71.8901 38.5942 71.984 38.5055C72.0779 38.4142 72.1849 38.3451 72.3049 38.2981C72.4275 38.2485 72.558 38.2237 72.6963 38.2237C72.8945 38.2237 73.0615 38.2668 73.1972 38.3529C73.3329 38.439 73.4346 38.5577 73.5025 38.709C73.5729 38.8604 73.6081 39.0326 73.6081 39.2256V39.3822H72.1992C72.2175 39.4891 72.254 39.5765 72.3088 39.6444C72.3636 39.7122 72.434 39.7631 72.5201 39.797C72.6062 39.8283 72.7028 39.844 72.8098 39.844C72.8776 39.844 72.948 39.8388 73.0211 39.8283C73.0941 39.8153 73.1672 39.7983 73.2403 39.7774L73.4164 39.7266L73.5494 40.0514L73.3968 40.1258C73.2924 40.1753 73.1855 40.2132 73.0759 40.2393C72.9663 40.2627 72.8593 40.2745 72.755 40.2745ZM72.2149 39.0221H73.1385C73.1176 38.9021 73.0707 38.8095 72.9976 38.7443C72.9246 38.6764 72.8241 38.6425 72.6963 38.6425C72.6128 38.6425 72.5384 38.6582 72.4732 38.6895C72.4106 38.7182 72.3571 38.7612 72.3127 38.8186C72.2684 38.876 72.2358 38.9438 72.2149 39.0221ZM74.572 40.2745C74.3685 40.2745 74.2224 40.2275 74.1337 40.1336C74.045 40.0397 74.0006 39.917 74.0006 39.7657V37.3549L74.4937 37.2297V39.6561C74.4937 39.7161 74.5107 39.7631 74.5446 39.797C74.5811 39.8283 74.6412 39.844 74.7246 39.844C74.7455 39.844 74.769 39.844 74.7951 39.844C74.8212 39.8414 74.8473 39.8388 74.8734 39.8361L74.8616 40.2158C74.8147 40.234 74.7651 40.2484 74.7129 40.2588C74.6633 40.2693 74.6164 40.2745 74.572 40.2745ZM75.7721 40.2745C75.5686 40.2745 75.4225 40.2275 75.3338 40.1336C75.2451 40.0397 75.2007 39.917 75.2007 39.7657V37.3549L75.6938 37.2297V39.6561C75.6938 39.7161 75.7108 39.7631 75.7447 39.797C75.7812 39.8283 75.8412 39.844 75.9247 39.844C75.9456 39.844 75.9691 39.844 75.9952 39.844C76.0213 39.8414 76.0473 39.8388 76.0734 39.8361L76.0617 40.2158C76.0147 40.234 75.9652 40.2484 75.913 40.2588C75.8634 40.2693 75.8164 40.2745 75.7721 40.2745ZM76.4203 40.2432V38.255H76.9135V40.2432H76.4203ZM76.6669 37.8676C76.6095 37.8676 76.556 37.8533 76.5064 37.8246C76.4569 37.7959 76.4177 37.758 76.389 37.7111C76.3603 37.6641 76.346 37.6119 76.346 37.5545C76.346 37.4997 76.3603 37.4488 76.389 37.4019C76.4177 37.3549 76.4569 37.3184 76.5064 37.2923C76.556 37.2636 76.6095 37.2493 76.6669 37.2493C76.7269 37.2493 76.7804 37.2636 76.8274 37.2923C76.8769 37.3184 76.9161 37.3549 76.9448 37.4019C76.9735 37.4488 76.9878 37.4997 76.9878 37.5545C76.9878 37.6119 76.9735 37.6641 76.9448 37.7111C76.9161 37.758 76.8769 37.7959 76.8274 37.8246C76.7804 37.8533 76.7269 37.8676 76.6669 37.8676ZM78.3483 41.0611C78.2517 41.0611 78.1448 41.052 78.0274 41.0337C77.91 41.0155 77.7978 40.9907 77.6908 40.9594L77.5577 40.9202L77.6438 40.5602L77.7769 40.5836C77.8552 40.5967 77.94 40.6084 78.0313 40.6189C78.1226 40.6293 78.2061 40.6345 78.2817 40.6345C78.4487 40.6345 78.5779 40.6071 78.6692 40.5523C78.7631 40.5002 78.8101 40.4023 78.8101 40.2588V40.0201L78.6966 40.0671C78.6235 40.0984 78.5466 40.1231 78.4657 40.1414C78.3848 40.1571 78.3091 40.1649 78.2387 40.1649C78.0978 40.1649 77.9726 40.1388 77.863 40.0866C77.756 40.0344 77.6647 39.964 77.589 39.8753C77.5134 39.784 77.456 39.6796 77.4168 39.5622C77.3803 39.4448 77.362 39.3222 77.362 39.1943C77.362 39.0273 77.3947 38.8708 77.4599 38.7247C77.5277 38.576 77.6256 38.4559 77.7534 38.3646C77.8839 38.2707 78.0443 38.2237 78.2348 38.2237C78.3261 38.2237 78.4174 38.2407 78.5087 38.2746C78.6001 38.3085 78.6888 38.3555 78.7749 38.4155L78.8923 38.4977L78.9392 38.255H79.3032V40.2314C79.3032 40.4245 79.2628 40.5823 79.1819 40.705C79.1036 40.8276 78.9927 40.9176 78.8492 40.975C78.7057 41.0324 78.5387 41.0611 78.3483 41.0611ZM77.863 39.1982C77.863 39.313 77.8839 39.4096 77.9256 39.4878C77.97 39.5635 78.0313 39.6209 78.1095 39.66C78.1878 39.6966 78.2778 39.7148 78.3796 39.7148C78.4292 39.7148 78.48 39.7096 78.5322 39.6992C78.5844 39.6887 78.6353 39.6757 78.6848 39.66L78.8101 39.617V38.8421L78.7005 38.7795C78.6379 38.7429 78.5792 38.7169 78.5244 38.7012C78.4722 38.6855 78.4226 38.6777 78.3757 38.6777C78.2661 38.6777 78.1722 38.6999 78.0939 38.7443C78.0182 38.786 77.9608 38.846 77.9217 38.9243C77.8826 39.0025 77.863 39.0939 77.863 39.1982ZM80.823 40.2745C80.6299 40.2745 80.4525 40.2353 80.2907 40.1571C80.129 40.0788 79.9985 39.964 79.8994 39.8127C79.8028 39.6587 79.7546 39.4722 79.7546 39.253C79.7546 39.0965 79.7806 38.9556 79.8328 38.8303C79.885 38.7025 79.9581 38.5942 80.052 38.5055C80.1459 38.4142 80.2529 38.3451 80.3729 38.2981C80.4955 38.2485 80.626 38.2237 80.7643 38.2237C80.9626 38.2237 81.1295 38.2668 81.2652 38.3529C81.4009 38.439 81.5026 38.5577 81.5705 38.709C81.6409 38.8604 81.6761 39.0326 81.6761 39.2256V39.3822H80.2672C80.2855 39.4891 80.322 39.5765 80.3768 39.6444C80.4316 39.7122 80.5021 39.7631 80.5881 39.797C80.6742 39.8283 80.7708 39.844 80.8778 39.844C80.9456 39.844 81.016 39.8388 81.0891 39.8283C81.1621 39.8153 81.2352 39.7983 81.3083 39.7774L81.4844 39.7266L81.6174 40.0514L81.4648 40.1258C81.3604 40.1753 81.2535 40.2132 81.1439 40.2393C81.0343 40.2627 80.9273 40.2745 80.823 40.2745ZM80.2829 39.0221H81.2065C81.1856 38.9021 81.1387 38.8095 81.0656 38.7443C80.9926 38.6764 80.8921 38.6425 80.7643 38.6425C80.6808 38.6425 80.6064 38.6582 80.5412 38.6895C80.4786 38.7182 80.4251 38.7612 80.3807 38.8186C80.3364 38.876 80.3038 38.9438 80.2829 39.0221ZM82.0882 40.2432V38.255H82.4639L82.4991 38.4586L82.6283 38.3881C82.7248 38.3359 82.8213 38.2955 82.9179 38.2668C83.0144 38.2381 83.1096 38.2237 83.2036 38.2237C83.3627 38.2237 83.4919 38.2537 83.591 38.3138C83.6902 38.3738 83.7632 38.4546 83.8102 38.5564C83.8598 38.6582 83.8845 38.773 83.8845 38.9008V40.2432H83.3914V39.0221C83.3914 38.9073 83.3627 38.8199 83.3053 38.7599C83.2479 38.6999 83.154 38.6699 83.0235 38.6699C82.9688 38.6699 82.9153 38.6777 82.8631 38.6934C82.8135 38.7064 82.7613 38.726 82.7065 38.7521L82.5813 38.8069V40.2432H82.0882ZM85.324 40.2745C85.1309 40.2745 84.9574 40.2353 84.8034 40.1571C84.6495 40.0762 84.5282 39.9601 84.4395 39.8088C84.3508 39.6548 84.3064 39.4683 84.3064 39.2491C84.3064 39.0299 84.3521 38.8447 84.4434 38.6934C84.5373 38.5394 84.6613 38.4233 84.8152 38.3451C84.9691 38.2642 85.14 38.2237 85.3279 38.2237C85.4192 38.2237 85.5066 38.2329 85.5901 38.2511C85.6762 38.2668 85.7545 38.289 85.8249 38.3177L85.9345 38.3607L85.8445 38.7208L85.7114 38.6895C85.654 38.6764 85.5966 38.6673 85.5392 38.6621C85.4818 38.6568 85.4283 38.6542 85.3787 38.6542C85.2666 38.6542 85.1674 38.6777 85.0813 38.7247C84.9952 38.769 84.9274 38.8356 84.8778 38.9243C84.8308 39.0104 84.8074 39.1187 84.8074 39.2491C84.8074 39.377 84.8321 39.4852 84.8817 39.5739C84.9313 39.6626 84.9991 39.7292 85.0852 39.7735C85.1739 39.8179 85.2744 39.8401 85.3866 39.8401C85.4388 39.8401 85.4949 39.8375 85.5549 39.8322C85.6175 39.8244 85.6814 39.814 85.7466 39.8009L85.868 39.7735L85.9619 40.1258L85.8601 40.1688C85.7714 40.2053 85.6801 40.2314 85.5862 40.2471C85.4949 40.2653 85.4074 40.2745 85.324 40.2745ZM87.2361 40.2745C87.043 40.2745 86.8656 40.2353 86.7038 40.1571C86.5421 40.0788 86.4116 39.964 86.3125 39.8127C86.2159 39.6587 86.1677 39.4722 86.1677 39.253C86.1677 39.0965 86.1938 38.9556 86.246 38.8303C86.2981 38.7025 86.3712 38.5942 86.4651 38.5055C86.559 38.4142 86.666 38.3451 86.786 38.2981C86.9087 38.2485 87.0391 38.2237 87.1774 38.2237C87.3757 38.2237 87.5427 38.2668 87.6783 38.3529C87.814 38.439 87.9158 38.5577 87.9836 38.709C88.054 38.8604 88.0893 39.0326 88.0893 39.2256V39.3822H86.6804C86.6986 39.4891 86.7352 39.5765 86.7899 39.6444C86.8447 39.7122 86.9152 39.7631 87.0013 39.797C87.0874 39.8283 87.1839 39.844 87.2909 39.844C87.3587 39.844 87.4292 39.8388 87.5022 39.8283C87.5753 39.8153 87.6483 39.7983 87.7214 39.7774L87.8975 39.7266L88.0306 40.0514L87.8779 40.1258C87.7736 40.1753 87.6666 40.2132 87.557 40.2393C87.4474 40.2627 87.3405 40.2745 87.2361 40.2745ZM86.696 39.0221H87.6196C87.5988 38.9021 87.5518 38.8095 87.4787 38.7443C87.4057 38.6764 87.3052 38.6425 87.1774 38.6425C87.0939 38.6425 87.0195 38.6582 86.9543 38.6895C86.8917 38.7182 86.8382 38.7612 86.7939 38.8186C86.7495 38.876 86.7169 38.9438 86.696 39.0221ZM89.7939 40.2432V38.6855H89.3634V38.3411L89.7939 38.255V37.9185C89.7939 37.7619 89.8239 37.6367 89.8839 37.5428C89.9439 37.4462 90.0261 37.3758 90.1305 37.3314C90.2348 37.2871 90.3548 37.2649 90.4905 37.2649C90.5583 37.2649 90.6301 37.2714 90.7058 37.2845C90.7814 37.2975 90.8571 37.3145 90.9327 37.3353L90.9758 37.3471L90.9093 37.7267L90.8584 37.7189C90.8166 37.7137 90.7775 37.7084 90.741 37.7032C90.7045 37.698 90.6705 37.6954 90.6392 37.6954C90.527 37.6954 90.4396 37.7163 90.377 37.758C90.317 37.7998 90.287 37.8715 90.287 37.9733V38.255H90.8897V38.6855H90.287V40.2432H89.7939ZM92.0845 40.2745C91.881 40.2745 91.7036 40.2314 91.5523 40.1453C91.4035 40.0566 91.2874 39.9353 91.2039 39.7814C91.1231 39.6274 91.0826 39.45 91.0826 39.2491C91.0826 39.0456 91.1244 38.8669 91.2079 38.7129C91.294 38.559 91.4127 38.439 91.564 38.3529C91.7153 38.2668 91.8914 38.2237 92.0923 38.2237C92.2958 38.2237 92.472 38.2681 92.6207 38.3568C92.7694 38.4429 92.8842 38.5629 92.9651 38.7169C93.046 38.8708 93.0864 39.0482 93.0864 39.2491C93.0864 39.45 93.0447 39.6287 92.9612 39.7853C92.8777 39.9392 92.7603 40.0592 92.6089 40.1453C92.4602 40.2314 92.2854 40.2745 92.0845 40.2745ZM92.0884 39.8479C92.1902 39.8479 92.2776 39.8244 92.3506 39.7774C92.4237 39.7305 92.4798 39.6626 92.5189 39.5739C92.5607 39.4826 92.5815 39.3743 92.5815 39.2491C92.5815 39.1213 92.562 39.013 92.5228 38.9243C92.4837 38.8356 92.4263 38.7677 92.3506 38.7208C92.2776 38.6738 92.1902 38.6503 92.0884 38.6503C91.9867 38.6503 91.898 38.6738 91.8223 38.7208C91.7466 38.7677 91.6879 38.8356 91.6462 38.9243C91.6044 39.013 91.5836 39.1213 91.5836 39.2491C91.5836 39.3743 91.6044 39.4826 91.6462 39.5739C91.6879 39.6626 91.7466 39.7305 91.8223 39.7774C91.898 39.8244 91.9867 39.8479 92.0884 39.8479ZM93.5347 40.2432V38.255H93.8948L93.9457 38.4977L94.0944 38.392C94.1701 38.3398 94.2509 38.2994 94.337 38.2707C94.4231 38.2394 94.5053 38.2237 94.5836 38.2237C94.6123 38.2237 94.641 38.229 94.6697 38.2394C94.701 38.2472 94.731 38.2616 94.7597 38.2824V38.6738C94.6788 38.6764 94.6006 38.6842 94.5249 38.6973C94.4518 38.7103 94.3683 38.7351 94.2744 38.7716L94.0279 38.8617V40.2432H93.5347ZM96.2533 40.2432V37.5036H97.4783C97.6766 37.5036 97.8474 37.5376 97.9909 37.6054C98.1371 37.6706 98.2505 37.7658 98.3314 37.8911C98.4123 38.0163 98.4528 38.1676 98.4528 38.3451C98.4528 38.4938 98.4254 38.6242 98.3706 38.7364C98.3158 38.846 98.2388 38.9373 98.1397 39.0104C98.0405 39.0808 97.9218 39.1343 97.7835 39.1708C97.6479 39.2074 97.4978 39.2256 97.3335 39.2256H96.766V40.2432H96.2533ZM98.0223 40.2432L97.3569 39.1434L97.8422 39.0417L98.5936 40.2432H98.0223ZM96.766 38.7756H97.4352C97.5944 38.7756 97.717 38.739 97.8031 38.666C97.8918 38.5929 97.9362 38.4873 97.9362 38.349C97.9362 38.2133 97.8918 38.1142 97.8031 38.0515C97.717 37.9863 97.5918 37.9537 97.4274 37.9537H96.766V38.7756ZM99.8407 40.2745C99.6476 40.2745 99.4702 40.2353 99.3084 40.1571C99.1467 40.0788 99.0162 39.964 98.9171 39.8127C98.8205 39.6587 98.7723 39.4722 98.7723 39.253C98.7723 39.0965 98.7983 38.9556 98.8505 38.8303C98.9027 38.7025 98.9758 38.5942 99.0697 38.5055C99.1636 38.4142 99.2706 38.3451 99.3906 38.2981C99.5132 38.2485 99.6437 38.2237 99.782 38.2237C99.9803 38.2237 100.147 38.2668 100.283 38.3529C100.419 38.439 100.52 38.5577 100.588 38.709C100.659 38.8604 100.694 39.0326 100.694 39.2256V39.3822H99.2849C99.3032 39.4891 99.3397 39.5765 99.3945 39.6444C99.4493 39.7122 99.5198 39.7631 99.6059 39.797C99.692 39.8283 99.7885 39.844 99.8955 39.844C99.9633 39.844 100.034 39.8388 100.107 39.8283C100.18 39.8153 100.253 39.7983 100.326 39.7774L100.502 39.7266L100.635 40.0514L100.483 40.1258C100.378 40.1753 100.271 40.2132 100.162 40.2393C100.052 40.2627 99.945 40.2745 99.8407 40.2745ZM99.3006 39.0221H100.224C100.203 38.9021 100.156 38.8095 100.083 38.7443C100.01 38.6764 99.9098 38.6425 99.782 38.6425C99.6985 38.6425 99.6241 38.6582 99.5589 38.6895C99.4963 38.7182 99.4428 38.7612 99.3984 38.8186C99.3541 38.876 99.3215 38.9438 99.3006 39.0221ZM101.605 40.2666L100.783 38.255H101.331L101.848 39.6483H101.856L102.368 38.255H102.881L102.063 40.2666H101.605ZM104.037 40.2745C103.844 40.2745 103.667 40.2353 103.505 40.1571C103.343 40.0788 103.213 39.964 103.113 39.8127C103.017 39.6587 102.969 39.4722 102.969 39.253C102.969 39.0965 102.995 38.9556 103.047 38.8303C103.099 38.7025 103.172 38.5942 103.266 38.5055C103.36 38.4142 103.467 38.3451 103.587 38.2981C103.71 38.2485 103.84 38.2237 103.978 38.2237C104.177 38.2237 104.344 38.2668 104.479 38.3529C104.615 38.439 104.717 38.5577 104.785 38.709C104.855 38.8604 104.89 39.0326 104.89 39.2256V39.3822H103.481C103.5 39.4891 103.536 39.5765 103.591 39.6444C103.646 39.7122 103.716 39.7631 103.802 39.797C103.888 39.8283 103.985 39.844 104.092 39.844C104.16 39.844 104.23 39.8388 104.303 39.8283C104.376 39.8153 104.449 39.7983 104.522 39.7774L104.699 39.7266L104.832 40.0514L104.679 40.1258C104.575 40.1753 104.468 40.2132 104.358 40.2393C104.248 40.2627 104.141 40.2745 104.037 40.2745ZM103.497 39.0221H104.421C104.4 38.9021 104.353 38.8095 104.28 38.7443C104.207 38.6764 104.106 38.6425 103.978 38.6425C103.895 38.6425 103.821 38.6582 103.755 38.6895C103.693 38.7182 103.639 38.7612 103.595 38.8186C103.551 38.876 103.518 38.9438 103.497 39.0221ZM105.302 40.2432V38.255H105.678L105.713 38.4586L105.842 38.3881C105.939 38.3359 106.035 38.2955 106.132 38.2668C106.229 38.2381 106.324 38.2237 106.418 38.2237C106.577 38.2237 106.706 38.2537 106.805 38.3138C106.904 38.3738 106.977 38.4546 107.024 38.5564C107.074 38.6582 107.099 38.773 107.099 38.9008V40.2432H106.606V39.0221C106.606 38.9073 106.577 38.8199 106.519 38.7599C106.462 38.6999 106.368 38.6699 106.238 38.6699C106.183 38.6699 106.129 38.6777 106.077 38.6934C106.028 38.7064 105.975 38.726 105.921 38.7521L105.795 38.8069V40.2432H105.302ZM108.241 40.2745C108.019 40.2745 107.855 40.2132 107.748 40.0905C107.643 39.9653 107.591 39.8009 107.591 39.5974V38.255H108.084V39.4761C108.084 39.5987 108.113 39.6887 108.17 39.7461C108.228 39.8009 108.312 39.8283 108.425 39.8283C108.474 39.8283 108.521 39.8218 108.565 39.8088C108.612 39.7931 108.659 39.7748 108.706 39.754L108.847 39.6874V38.255H109.34V40.2432H108.965L108.91 39.9183L109.012 39.9966L108.796 40.114C108.7 40.1662 108.605 40.2066 108.511 40.2353C108.419 40.2614 108.329 40.2745 108.241 40.2745ZM110.859 40.2745C110.666 40.2745 110.489 40.2353 110.327 40.1571C110.165 40.0788 110.035 39.964 109.936 39.8127C109.839 39.6587 109.791 39.4722 109.791 39.253C109.791 39.0965 109.817 38.9556 109.869 38.8303C109.921 38.7025 109.994 38.5942 110.088 38.5055C110.182 38.4142 110.289 38.3451 110.409 38.2981C110.532 38.2485 110.662 38.2237 110.8 38.2237C110.999 38.2237 111.166 38.2668 111.301 38.3529C111.437 38.439 111.539 38.5577 111.607 38.709C111.677 38.8604 111.712 39.0326 111.712 39.2256V39.3822H110.303C110.322 39.4891 110.358 39.5765 110.413 39.6444C110.468 39.7122 110.538 39.7631 110.624 39.797C110.71 39.8283 110.807 39.844 110.914 39.844C110.982 39.844 111.052 39.8388 111.125 39.8283C111.198 39.8153 111.271 39.7983 111.344 39.7774L111.521 39.7266L111.654 40.0514L111.501 40.1258C111.397 40.1753 111.29 40.2132 111.18 40.2393C111.071 40.2627 110.964 40.2745 110.859 40.2745ZM110.319 39.0221H111.243C111.222 38.9021 111.175 38.8095 111.102 38.7443C111.029 38.6764 110.928 38.6425 110.8 38.6425C110.717 38.6425 110.643 38.6582 110.577 38.6895C110.515 38.7182 110.461 38.7612 110.417 38.8186C110.373 38.876 110.34 38.9438 110.319 39.0221ZM113.714 40.2745C113.607 40.2745 113.506 40.2549 113.409 40.2158C113.313 40.174 113.234 40.1114 113.174 40.0279C113.114 39.9444 113.084 39.8401 113.084 39.7148C113.084 39.5478 113.138 39.4161 113.245 39.3196C113.352 39.2204 113.503 39.1513 113.699 39.1121L114.298 38.9869V38.9791C114.298 38.8643 114.262 38.7808 114.192 38.7286C114.121 38.6764 114.013 38.6503 113.867 38.6503C113.784 38.6503 113.697 38.6555 113.609 38.666C113.523 38.6764 113.442 38.6895 113.366 38.7051L113.276 38.7247L113.194 38.3999L113.292 38.3646C113.422 38.3177 113.544 38.2824 113.656 38.259C113.77 38.2355 113.884 38.2237 113.996 38.2237C114.231 38.2237 114.421 38.2864 114.568 38.4116C114.714 38.5368 114.787 38.726 114.787 38.9791V39.707C114.787 39.7879 114.805 39.8427 114.842 39.8714C114.881 39.8975 114.96 39.9157 115.08 39.9262L115.053 40.251C115.019 40.2588 114.986 40.264 114.955 40.2666C114.924 40.2719 114.896 40.2745 114.873 40.2745C114.737 40.2745 114.629 40.2445 114.548 40.1845C114.47 40.1218 114.411 40.0462 114.372 39.9575L114.282 40.0397C114.196 40.1179 114.102 40.1766 114 40.2158C113.901 40.2549 113.806 40.2745 113.714 40.2745ZM113.863 39.8635C113.915 39.8635 113.971 39.8531 114.031 39.8322C114.091 39.8114 114.151 39.7801 114.211 39.7383L114.298 39.6796V39.2765L113.769 39.4252C113.694 39.4461 113.64 39.4761 113.609 39.5152C113.577 39.5544 113.562 39.6 113.562 39.6522C113.562 39.72 113.588 39.7722 113.64 39.8088C113.692 39.8453 113.767 39.8635 113.863 39.8635ZM116.014 40.2745C115.793 40.2745 115.628 40.2132 115.521 40.0905C115.417 39.9653 115.365 39.8009 115.365 39.5974V38.255H115.858V39.4761C115.858 39.5987 115.887 39.6887 115.944 39.7461C116.001 39.8009 116.086 39.8283 116.198 39.8283C116.248 39.8283 116.295 39.8218 116.339 39.8088C116.386 39.7931 116.433 39.7748 116.48 39.754L116.621 39.6874V38.255H117.114V40.2432H116.738L116.684 39.9183L116.785 39.9966L116.57 40.114C116.474 40.1662 116.378 40.2066 116.284 40.2353C116.193 40.2614 116.103 40.2745 116.014 40.2745ZM118.551 41.0611C118.454 41.0611 118.347 41.052 118.23 41.0337C118.112 41.0155 118 40.9907 117.893 40.9594L117.76 40.9202L117.846 40.5602L117.979 40.5836C118.058 40.5967 118.142 40.6084 118.234 40.6189C118.325 40.6293 118.409 40.6345 118.484 40.6345C118.651 40.6345 118.78 40.6071 118.872 40.5523C118.966 40.5002 119.013 40.4023 119.013 40.2588V40.0201L118.899 40.0671C118.826 40.0984 118.749 40.1231 118.668 40.1414C118.587 40.1571 118.512 40.1649 118.441 40.1649C118.3 40.1649 118.175 40.1388 118.065 40.0866C117.958 40.0344 117.867 39.964 117.791 39.8753C117.716 39.784 117.658 39.6796 117.619 39.5622C117.583 39.4448 117.564 39.3222 117.564 39.1943C117.564 39.0273 117.597 38.8708 117.662 38.7247C117.73 38.576 117.828 38.4559 117.956 38.3646C118.086 38.2707 118.247 38.2237 118.437 38.2237C118.529 38.2237 118.62 38.2407 118.711 38.2746C118.802 38.3085 118.891 38.3555 118.977 38.4155L119.095 38.4977L119.142 38.255H119.506V40.2314C119.506 40.4245 119.465 40.5823 119.384 40.705C119.306 40.8276 119.195 40.9176 119.052 40.975C118.908 41.0324 118.741 41.0611 118.551 41.0611ZM118.065 39.1982C118.065 39.313 118.086 39.4096 118.128 39.4878C118.172 39.5635 118.234 39.6209 118.312 39.66C118.39 39.6966 118.48 39.7148 118.582 39.7148C118.632 39.7148 118.682 39.7096 118.735 39.6992C118.787 39.6887 118.838 39.6757 118.887 39.66L119.013 39.617V38.8421L118.903 38.7795C118.84 38.7429 118.782 38.7169 118.727 38.7012C118.675 38.6855 118.625 38.6777 118.578 38.6777C118.469 38.6777 118.375 38.6999 118.296 38.7443C118.221 38.786 118.163 38.846 118.124 38.9243C118.085 39.0025 118.065 39.0939 118.065 39.1982ZM120.055 40.2432V38.255H120.434L120.47 38.4586L120.599 38.3881C120.695 38.3359 120.789 38.2955 120.881 38.2668C120.975 38.2381 121.067 38.2237 121.158 38.2237C121.307 38.2237 121.43 38.2524 121.526 38.3098C121.623 38.3672 121.695 38.4468 121.742 38.5486C121.789 38.6503 121.812 38.7677 121.812 38.9008V40.2432H121.319V39.0221C121.319 38.9047 121.29 38.8173 121.233 38.7599C121.178 38.6999 121.092 38.6699 120.975 38.6699C120.925 38.6699 120.877 38.6764 120.83 38.6895C120.783 38.7025 120.736 38.7195 120.689 38.7403L120.548 38.8069V40.2432H120.055ZM122.583 40.2432V39.0221C122.583 38.9047 122.554 38.8173 122.497 38.7599C122.442 38.6999 122.355 38.6699 122.235 38.6699C122.185 38.6699 122.137 38.6764 122.09 38.6895C122.046 38.7025 122 38.7195 121.953 38.7403L121.777 38.8225L121.667 38.5016L121.882 38.3881C121.979 38.3359 122.073 38.2955 122.164 38.2668C122.258 38.2381 122.351 38.2237 122.442 38.2237C122.591 38.2237 122.713 38.2524 122.81 38.3098C122.907 38.3672 122.978 38.4468 123.025 38.5486C123.072 38.6503 123.096 38.7677 123.096 38.9008V40.2432H122.583ZM124.587 40.2745C124.394 40.2745 124.217 40.2353 124.055 40.1571C123.893 40.0788 123.763 39.964 123.664 39.8127C123.567 39.6587 123.519 39.4722 123.519 39.253C123.519 39.0965 123.545 38.9556 123.597 38.8303C123.649 38.7025 123.722 38.5942 123.816 38.5055C123.91 38.4142 124.017 38.3451 124.137 38.2981C124.26 38.2485 124.39 38.2237 124.529 38.2237C124.727 38.2237 124.894 38.2668 125.03 38.3529C125.165 38.439 125.267 38.5577 125.335 38.709C125.405 38.8604 125.441 39.0326 125.441 39.2256V39.3822H124.032C124.05 39.4891 124.086 39.5765 124.141 39.6444C124.196 39.7122 124.266 39.7631 124.353 39.797C124.439 39.8283 124.535 39.844 124.642 39.844C124.71 39.844 124.78 39.8388 124.854 39.8283C124.927 39.8153 125 39.7983 125.073 39.7774L125.249 39.7266L125.382 40.0514L125.229 40.1258C125.125 40.1753 125.018 40.2132 124.908 40.2393C124.799 40.2627 124.692 40.2745 124.587 40.2745ZM124.047 39.0221H124.971C124.95 38.9021 124.903 38.8095 124.83 38.7443C124.757 38.6764 124.657 38.6425 124.529 38.6425C124.445 38.6425 124.371 38.6582 124.306 38.6895C124.243 38.7182 124.19 38.7612 124.145 38.8186C124.101 38.876 124.068 38.9438 124.047 39.0221ZM125.853 40.2432V38.255H126.228L126.264 38.4586L126.393 38.3881C126.489 38.3359 126.586 38.2955 126.682 38.2668C126.779 38.2381 126.874 38.2237 126.968 38.2237C127.127 38.2237 127.256 38.2537 127.355 38.3138C127.455 38.3738 127.528 38.4546 127.575 38.5564C127.624 38.6582 127.649 38.773 127.649 38.9008V40.2432H127.156V39.0221C127.156 38.9073 127.127 38.8199 127.07 38.7599C127.012 38.6999 126.918 38.6699 126.788 38.6699C126.733 38.6699 126.68 38.6777 126.628 38.6934C126.578 38.7064 126.526 38.726 126.471 38.7521L126.346 38.8069V40.2432H125.853ZM128.959 40.2745C128.764 40.2745 128.615 40.2314 128.513 40.1453C128.411 40.0592 128.36 39.9196 128.36 39.7266V38.6855H127.934V38.3411L128.36 38.255V37.7932L128.854 37.6445V38.255H129.472V38.6855H128.854V39.57C128.854 39.6639 128.869 39.7344 128.901 39.7814C128.934 39.8283 129.011 39.8518 129.131 39.8518C129.165 39.8518 129.201 39.8505 129.237 39.8479C129.274 39.8453 129.313 39.8414 129.355 39.8361L129.456 39.8244L129.511 40.1805L129.421 40.204C129.348 40.2223 129.27 40.2379 129.186 40.251C129.105 40.2666 129.03 40.2745 128.959 40.2745ZM130.324 40.2745C130.217 40.2745 130.116 40.2549 130.019 40.2158C129.923 40.174 129.844 40.1114 129.784 40.0279C129.724 39.9444 129.694 39.8401 129.694 39.7148C129.694 39.5478 129.748 39.4161 129.855 39.3196C129.962 39.2204 130.113 39.1513 130.309 39.1121L130.907 38.9869V38.9791C130.907 38.8643 130.872 38.7808 130.802 38.7286C130.731 38.6764 130.623 38.6503 130.477 38.6503C130.393 38.6503 130.307 38.6555 130.219 38.666C130.133 38.6764 130.052 38.6895 129.976 38.7051L129.886 38.7247L129.804 38.3999L129.902 38.3646C130.032 38.3177 130.153 38.2824 130.266 38.259C130.38 38.2355 130.494 38.2237 130.606 38.2237C130.841 38.2237 131.031 38.2864 131.177 38.4116C131.324 38.5368 131.397 38.726 131.397 38.9791V39.707C131.397 39.7879 131.415 39.8427 131.451 39.8714C131.491 39.8975 131.57 39.9157 131.69 39.9262L131.663 40.251C131.629 40.2588 131.596 40.264 131.565 40.2666C131.534 40.2719 131.506 40.2745 131.483 40.2745C131.347 40.2745 131.239 40.2445 131.158 40.1845C131.08 40.1218 131.021 40.0462 130.982 39.9575L130.892 40.0397C130.806 40.1179 130.712 40.1766 130.61 40.2158C130.511 40.2549 130.416 40.2745 130.324 40.2745ZM130.473 39.8635C130.525 39.8635 130.581 39.8531 130.641 39.8322C130.701 39.8114 130.761 39.7801 130.821 39.7383L130.907 39.6796V39.2765L130.379 39.4252C130.303 39.4461 130.25 39.4761 130.219 39.5152C130.187 39.5544 130.172 39.6 130.172 39.6522C130.172 39.72 130.198 39.7722 130.25 39.8088C130.302 39.8453 130.377 39.8635 130.473 39.8635ZM132.716 40.2745C132.52 40.2745 132.372 40.2314 132.27 40.1453C132.168 40.0592 132.117 39.9196 132.117 39.7266V38.6855H131.691V38.3411L132.117 38.255V37.7932L132.61 37.6445V38.255H133.229V38.6855H132.61V39.57C132.61 39.6639 132.626 39.7344 132.657 39.7814C132.691 39.8283 132.768 39.8518 132.888 39.8518C132.922 39.8518 132.957 39.8505 132.994 39.8479C133.031 39.8453 133.07 39.8414 133.111 39.8361L133.213 39.8244L133.268 40.1805L133.178 40.204C133.105 40.2223 133.027 40.2379 132.943 40.251C132.862 40.2666 132.787 40.2745 132.716 40.2745ZM133.626 40.2432V38.255H134.119V40.2432H133.626ZM133.873 37.8676C133.816 37.8676 133.762 37.8533 133.712 37.8246C133.663 37.7959 133.624 37.758 133.595 37.7111C133.566 37.6641 133.552 37.6119 133.552 37.5545C133.552 37.4997 133.566 37.4488 133.595 37.4019C133.624 37.3549 133.663 37.3184 133.712 37.2923C133.762 37.2636 133.816 37.2493 133.873 37.2493C133.933 37.2493 133.986 37.2636 134.033 37.2923C134.083 37.3184 134.122 37.3549 134.151 37.4019C134.179 37.4488 134.194 37.4997 134.194 37.5545C134.194 37.6119 134.179 37.6641 134.151 37.7111C134.122 37.758 134.083 37.7959 134.033 37.8246C133.986 37.8533 133.933 37.8676 133.873 37.8676ZM135.57 40.2745C135.366 40.2745 135.189 40.2314 135.038 40.1453C134.889 40.0566 134.773 39.9353 134.689 39.7814C134.608 39.6274 134.568 39.45 134.568 39.2491C134.568 39.0456 134.61 38.8669 134.693 38.7129C134.779 38.559 134.898 38.439 135.049 38.3529C135.201 38.2668 135.377 38.2237 135.578 38.2237C135.781 38.2237 135.957 38.2681 136.106 38.3568C136.255 38.4429 136.37 38.5629 136.451 38.7169C136.531 38.8708 136.572 39.0482 136.572 39.2491C136.572 39.45 136.53 39.6287 136.447 39.7853C136.363 39.9392 136.246 40.0592 136.094 40.1453C135.946 40.2314 135.771 40.2745 135.57 40.2745ZM135.574 39.8479C135.676 39.8479 135.763 39.8244 135.836 39.7774C135.909 39.7305 135.965 39.6626 136.004 39.5739C136.046 39.4826 136.067 39.3743 136.067 39.2491C136.067 39.1213 136.047 39.013 136.008 38.9243C135.969 38.8356 135.912 38.7677 135.836 38.7208C135.763 38.6738 135.676 38.6503 135.574 38.6503C135.472 38.6503 135.383 38.6738 135.308 38.7208C135.232 38.7677 135.173 38.8356 135.132 38.9243C135.09 39.013 135.069 39.1213 135.069 39.2491C135.069 39.3743 135.09 39.4826 135.132 39.5739C135.173 39.6626 135.232 39.7305 135.308 39.7774C135.383 39.8244 135.472 39.8479 135.574 39.8479ZM137.02 40.2432V38.255H137.396L137.431 38.4586L137.56 38.3881C137.657 38.3359 137.753 38.2955 137.85 38.2668C137.946 38.2381 138.042 38.2237 138.136 38.2237C138.295 38.2237 138.424 38.2537 138.523 38.3138C138.622 38.3738 138.695 38.4546 138.742 38.5564C138.792 38.6582 138.817 38.773 138.817 38.9008V40.2432H138.323V39.0221C138.323 38.9073 138.295 38.8199 138.237 38.7599C138.18 38.6999 138.086 38.6699 137.956 38.6699C137.901 38.6699 137.847 38.6777 137.795 38.6934C137.746 38.7064 137.693 38.726 137.639 38.7521L137.513 38.8069V40.2432H137.02ZM140.926 40.2745C140.819 40.2745 140.718 40.2549 140.621 40.2158C140.524 40.174 140.446 40.1114 140.386 40.0279C140.326 39.9444 140.296 39.8401 140.296 39.7148C140.296 39.5478 140.35 39.4161 140.457 39.3196C140.564 39.2204 140.715 39.1513 140.911 39.1121L141.509 38.9869V38.9791C141.509 38.8643 141.474 38.7808 141.404 38.7286C141.333 38.6764 141.225 38.6503 141.079 38.6503C140.995 38.6503 140.909 38.6555 140.821 38.666C140.734 38.6764 140.654 38.6895 140.578 38.7051L140.488 38.7247L140.406 38.3999L140.504 38.3646C140.634 38.3177 140.755 38.2824 140.868 38.259C140.982 38.2355 141.096 38.2237 141.208 38.2237C141.443 38.2237 141.633 38.2864 141.779 38.4116C141.926 38.5368 141.999 38.726 141.999 38.9791V39.707C141.999 39.7879 142.017 39.8427 142.053 39.8714C142.092 39.8975 142.172 39.9157 142.292 39.9262L142.265 40.251C142.231 40.2588 142.198 40.264 142.167 40.2666C142.136 40.2719 142.108 40.2745 142.085 40.2745C141.949 40.2745 141.841 40.2445 141.76 40.1845C141.682 40.1218 141.623 40.0462 141.584 39.9575L141.494 40.0397C141.408 40.1179 141.314 40.1766 141.212 40.2158C141.113 40.2549 141.018 40.2745 140.926 40.2745ZM141.075 39.8635C141.127 39.8635 141.183 39.8531 141.243 39.8322C141.303 39.8114 141.363 39.7801 141.423 39.7383L141.509 39.6796V39.2765L140.981 39.4252C140.905 39.4461 140.852 39.4761 140.821 39.5152C140.789 39.5544 140.774 39.6 140.774 39.6522C140.774 39.72 140.8 39.7722 140.852 39.8088C140.904 39.8453 140.978 39.8635 141.075 39.8635ZM142.604 40.2432V38.255H142.98L143.015 38.4586L143.144 38.3881C143.241 38.3359 143.337 38.2955 143.434 38.2668C143.53 38.2381 143.625 38.2237 143.719 38.2237C143.878 38.2237 144.008 38.2537 144.107 38.3138C144.206 38.3738 144.279 38.4546 144.326 38.5564C144.376 38.6582 144.4 38.773 144.4 38.9008V40.2432H143.907V39.0221C143.907 38.9073 143.878 38.8199 143.821 38.7599C143.764 38.6999 143.67 38.6699 143.539 38.6699C143.485 38.6699 143.431 38.6777 143.379 38.6934C143.329 38.7064 143.277 38.726 143.222 38.7521L143.097 38.8069V40.2432H142.604ZM145.695 40.2745C145.551 40.2745 145.425 40.2471 145.315 40.1923C145.208 40.1349 145.118 40.0579 145.045 39.9614C144.972 39.8648 144.916 39.7553 144.877 39.6326C144.84 39.51 144.822 39.3822 144.822 39.2491C144.822 39.1108 144.84 38.9804 144.877 38.8577C144.916 38.7351 144.974 38.6268 145.049 38.5329C145.125 38.4364 145.216 38.3607 145.323 38.3059C145.433 38.2511 145.558 38.2237 145.699 38.2237C145.769 38.2237 145.845 38.2329 145.926 38.2511C146.007 38.2668 146.084 38.2916 146.157 38.3255L146.274 38.3764V37.3549L146.767 37.2297V40.2432H146.395L146.356 40.0005L146.235 40.0827C146.149 40.1401 146.06 40.1871 145.969 40.2236C145.878 40.2575 145.786 40.2745 145.695 40.2745ZM145.323 39.2452C145.323 39.3704 145.341 39.4787 145.378 39.57C145.417 39.6587 145.474 39.7266 145.55 39.7735C145.626 39.8205 145.721 39.844 145.836 39.844C145.88 39.844 145.928 39.8375 145.981 39.8244C146.033 39.8088 146.086 39.784 146.141 39.75L146.274 39.6679V38.7756L146.141 38.7169C146.092 38.696 146.041 38.6803 145.988 38.6699C145.939 38.6568 145.889 38.6503 145.84 38.6503C145.738 38.6503 145.648 38.6725 145.57 38.7169C145.491 38.7586 145.43 38.8238 145.386 38.9125C145.344 38.9986 145.323 39.1095 145.323 39.2452ZM149.587 40.2823C149.342 40.2823 149.129 40.2393 148.949 40.1532C148.769 40.0671 148.63 39.9392 148.531 39.7696C148.434 39.6 148.386 39.3926 148.386 39.1474V37.5036H148.899V39.0613C148.899 39.3326 148.96 39.5231 149.082 39.6326C149.208 39.7422 149.381 39.797 149.603 39.797C149.827 39.797 150 39.7422 150.12 39.6326C150.24 39.5231 150.3 39.3326 150.3 39.0613V37.5036H150.793V39.1474C150.793 39.3926 150.742 39.6 150.64 39.7696C150.541 39.9392 150.401 40.0671 150.221 40.1532C150.041 40.2393 149.83 40.2823 149.587 40.2823ZM151.314 40.2432V38.255H151.674L151.725 38.4977L151.874 38.392C151.949 38.3398 152.03 38.2994 152.116 38.2707C152.202 38.2394 152.285 38.2237 152.363 38.2237C152.392 38.2237 152.42 38.229 152.449 38.2394C152.48 38.2472 152.51 38.2616 152.539 38.2824V38.6738C152.458 38.6764 152.38 38.6842 152.304 38.6973C152.231 38.7103 152.148 38.7351 152.054 38.7716L151.807 38.8617V40.2432H151.314ZM153.957 40.2745C153.874 40.2745 153.785 40.2588 153.691 40.2275C153.6 40.1936 153.508 40.1453 153.417 40.0827L153.257 39.9731L153.354 39.6326L153.531 39.7383C153.583 39.7696 153.635 39.7918 153.687 39.8048C153.739 39.8179 153.79 39.8244 153.84 39.8244C153.944 39.8244 154.033 39.8022 154.106 39.7579C154.179 39.7135 154.234 39.6483 154.27 39.5622C154.309 39.4761 154.329 39.3704 154.329 39.2452C154.329 39.12 154.308 39.0143 154.266 38.9282C154.227 38.8421 154.169 38.7782 154.09 38.7364C154.015 38.6921 153.922 38.6699 153.812 38.6699C153.768 38.6699 153.721 38.6751 153.671 38.6855C153.622 38.6934 153.568 38.7077 153.511 38.7286L153.378 38.7756V39.797L153.319 39.8792L153.257 40.2432H152.885V37.3549L153.378 37.2297V38.5721L153.233 38.4429L153.495 38.3255C153.563 38.2942 153.638 38.2694 153.718 38.2511C153.802 38.2329 153.88 38.2237 153.953 38.2237C154.125 38.2237 154.277 38.2681 154.407 38.3568C154.54 38.4429 154.643 38.5629 154.716 38.7169C154.792 38.8708 154.83 39.0482 154.83 39.2491C154.83 39.4474 154.792 39.6248 154.716 39.7814C154.643 39.9353 154.54 40.0566 154.407 40.1453C154.277 40.2314 154.127 40.2745 153.957 40.2745ZM155.698 40.2745C155.591 40.2745 155.489 40.2549 155.393 40.2158C155.296 40.174 155.218 40.1114 155.158 40.0279C155.098 39.9444 155.068 39.8401 155.068 39.7148C155.068 39.5478 155.121 39.4161 155.228 39.3196C155.335 39.2204 155.487 39.1513 155.682 39.1121L156.281 38.9869V38.9791C156.281 38.8643 156.246 38.7808 156.175 38.7286C156.105 38.6764 155.997 38.6503 155.85 38.6503C155.767 38.6503 155.681 38.6555 155.592 38.666C155.506 38.6764 155.425 38.6895 155.35 38.7051L155.26 38.7247L155.177 38.3999L155.275 38.3646C155.406 38.3177 155.527 38.2824 155.639 38.259C155.754 38.2355 155.867 38.2237 155.98 38.2237C156.214 38.2237 156.405 38.2864 156.551 38.4116C156.697 38.5368 156.77 38.726 156.77 38.9791V39.707C156.77 39.7879 156.788 39.8427 156.825 39.8714C156.864 39.8975 156.944 39.9157 157.064 39.9262L157.036 40.251C157.002 40.2588 156.97 40.264 156.938 40.2666C156.907 40.2719 156.88 40.2745 156.856 40.2745C156.721 40.2745 156.612 40.2445 156.531 40.1845C156.453 40.1218 156.394 40.0462 156.355 39.9575L156.265 40.0397C156.179 40.1179 156.085 40.1766 155.984 40.2158C155.884 40.2549 155.789 40.2745 155.698 40.2745ZM155.847 39.8635C155.899 39.8635 155.955 39.8531 156.015 39.8322C156.075 39.8114 156.135 39.7801 156.195 39.7383L156.281 39.6796V39.2765L155.753 39.4252C155.677 39.4461 155.623 39.4761 155.592 39.5152C155.561 39.5544 155.545 39.6 155.545 39.6522C155.545 39.72 155.571 39.7722 155.623 39.8088C155.676 39.8453 155.75 39.8635 155.847 39.8635ZM157.376 40.2432V38.255H157.751L157.786 38.4586L157.916 38.3881C158.012 38.3359 158.109 38.2955 158.205 38.2668C158.302 38.2381 158.397 38.2237 158.491 38.2237C158.65 38.2237 158.779 38.2537 158.878 38.3138C158.978 38.3738 159.051 38.4546 159.098 38.5564C159.147 38.6582 159.172 38.773 159.172 38.9008V40.2432H158.679V39.0221C158.679 38.9073 158.65 38.8199 158.593 38.7599C158.535 38.6999 158.441 38.6699 158.311 38.6699C158.256 38.6699 158.203 38.6777 158.15 38.6934C158.101 38.7064 158.049 38.726 157.994 38.7521L157.869 38.8069V40.2432H157.376ZM160.839 40.2432V37.5036H161.861C162.15 37.5036 162.404 37.5571 162.62 37.6641C162.837 37.7685 163.005 37.9224 163.125 38.1259C163.245 38.3294 163.305 38.5799 163.305 38.8773C163.305 39.1617 163.245 39.407 163.125 39.6131C163.005 39.8166 162.834 39.9731 162.612 40.0827C162.39 40.1897 162.128 40.2432 161.826 40.2432H160.839ZM161.352 39.7931H161.845C162.049 39.7931 162.22 39.7579 162.358 39.6874C162.496 39.6144 162.6 39.51 162.671 39.3743C162.744 39.2387 162.781 39.073 162.781 38.8773C162.781 38.6686 162.745 38.4964 162.675 38.3607C162.607 38.2224 162.504 38.1207 162.366 38.0555C162.227 37.9876 162.054 37.9537 161.845 37.9537H161.352V39.7931ZM164.744 40.2745C164.551 40.2745 164.373 40.2353 164.212 40.1571C164.05 40.0788 163.919 39.964 163.82 39.8127C163.724 39.6587 163.676 39.4722 163.676 39.253C163.676 39.0965 163.702 38.9556 163.754 38.8303C163.806 38.7025 163.879 38.5942 163.973 38.5055C164.067 38.4142 164.174 38.3451 164.294 38.2981C164.417 38.2485 164.547 38.2237 164.685 38.2237C164.884 38.2237 165.051 38.2668 165.186 38.3529C165.322 38.439 165.424 38.5577 165.491 38.709C165.562 38.8604 165.597 39.0326 165.597 39.2256V39.3822H164.188C164.206 39.4891 164.243 39.5765 164.298 39.6444C164.353 39.7122 164.423 39.7631 164.509 39.797C164.595 39.8283 164.692 39.844 164.799 39.844C164.867 39.844 164.937 39.8388 165.01 39.8283C165.083 39.8153 165.156 39.7983 165.229 39.7774L165.405 39.7266L165.538 40.0514L165.386 40.1258C165.281 40.1753 165.174 40.2132 165.065 40.2393C164.955 40.2627 164.848 40.2745 164.744 40.2745ZM164.204 39.0221H165.127C165.107 38.9021 165.06 38.8095 164.987 38.7443C164.914 38.6764 164.813 38.6425 164.685 38.6425C164.602 38.6425 164.527 38.6582 164.462 38.6895C164.4 38.7182 164.346 38.7612 164.302 38.8186C164.257 38.876 164.225 38.9438 164.204 39.0221ZM166.509 40.2666L165.687 38.255H166.235L166.751 39.6483H166.759L167.272 38.255H167.784L166.967 40.2666H166.509ZM168.94 40.2745C168.747 40.2745 168.57 40.2353 168.408 40.1571C168.246 40.0788 168.116 39.964 168.017 39.8127C167.92 39.6587 167.872 39.4722 167.872 39.253C167.872 39.0965 167.898 38.9556 167.95 38.8303C168.002 38.7025 168.075 38.5942 168.169 38.5055C168.263 38.4142 168.37 38.3451 168.49 38.2981C168.613 38.2485 168.743 38.2237 168.882 38.2237C169.08 38.2237 169.247 38.2668 169.383 38.3529C169.518 38.439 169.62 38.5577 169.688 38.709C169.758 38.8604 169.794 39.0326 169.794 39.2256V39.3822H168.385C168.403 39.4891 168.439 39.5765 168.494 39.6444C168.549 39.7122 168.619 39.7631 168.706 39.797C168.792 39.8283 168.888 39.844 168.995 39.844C169.063 39.844 169.133 39.8388 169.207 39.8283C169.28 39.8153 169.353 39.7983 169.426 39.7774L169.602 39.7266L169.735 40.0514L169.582 40.1258C169.478 40.1753 169.371 40.2132 169.261 40.2393C169.152 40.2627 169.045 40.2745 168.94 40.2745ZM168.4 39.0221H169.324C169.303 38.9021 169.256 38.8095 169.183 38.7443C169.11 38.6764 169.01 38.6425 168.882 38.6425C168.798 38.6425 168.724 38.6582 168.659 38.6895C168.596 38.7182 168.543 38.7612 168.498 38.8186C168.454 38.876 168.421 38.9438 168.4 39.0221ZM170.757 40.2745C170.554 40.2745 170.408 40.2275 170.319 40.1336C170.23 40.0397 170.186 39.917 170.186 39.7657V37.3549L170.679 37.2297V39.6561C170.679 39.7161 170.696 39.7631 170.73 39.797C170.767 39.8283 170.827 39.844 170.91 39.844C170.931 39.844 170.954 39.844 170.981 39.844C171.007 39.8414 171.033 39.8388 171.059 39.8361L171.047 40.2158C171 40.234 170.951 40.2484 170.898 40.2588C170.849 40.2693 170.802 40.2745 170.757 40.2745ZM172.233 40.2745C172.03 40.2745 171.852 40.2314 171.701 40.1453C171.552 40.0566 171.436 39.9353 171.353 39.7814C171.272 39.6274 171.231 39.45 171.231 39.2491C171.231 39.0456 171.273 38.8669 171.357 38.7129C171.443 38.559 171.561 38.439 171.713 38.3529C171.864 38.2668 172.04 38.2237 172.241 38.2237C172.445 38.2237 172.621 38.2681 172.769 38.3568C172.918 38.4429 173.033 38.5629 173.114 38.7169C173.195 38.8708 173.235 39.0482 173.235 39.2491C173.235 39.45 173.193 39.6287 173.11 39.7853C173.026 39.9392 172.909 40.0592 172.758 40.1453C172.609 40.2314 172.434 40.2745 172.233 40.2745ZM172.237 39.8479C172.339 39.8479 172.426 39.8244 172.499 39.7774C172.572 39.7305 172.629 39.6626 172.668 39.5739C172.709 39.4826 172.73 39.3743 172.73 39.2491C172.73 39.1213 172.711 39.013 172.672 38.9243C172.632 38.8356 172.575 38.7677 172.499 38.7208C172.426 38.6738 172.339 38.6503 172.237 38.6503C172.135 38.6503 172.047 38.6738 171.971 38.7208C171.895 38.7677 171.837 38.8356 171.795 38.9243C171.753 39.013 171.732 39.1213 171.732 39.2491C171.732 39.3743 171.753 39.4826 171.795 39.5739C171.837 39.6626 171.895 39.7305 171.971 39.7774C172.047 39.8244 172.135 39.8479 172.237 39.8479ZM173.684 41.0924V38.255H174.055L174.098 38.4977L174.216 38.4155C174.307 38.3529 174.398 38.3059 174.49 38.2746C174.584 38.2407 174.672 38.2237 174.756 38.2237C174.925 38.2237 175.075 38.2681 175.206 38.3568C175.339 38.4429 175.442 38.5629 175.515 38.7169C175.591 38.8708 175.629 39.0482 175.629 39.2491C175.629 39.4004 175.606 39.5387 175.562 39.6639C175.52 39.7892 175.46 39.8975 175.382 39.9888C175.306 40.0801 175.215 40.1505 175.108 40.2001C175.001 40.2497 174.882 40.2745 174.752 40.2745C174.679 40.2745 174.601 40.2653 174.517 40.2471C174.436 40.2288 174.362 40.204 174.294 40.1727L174.177 40.1179V41.0063L173.684 41.0924ZM174.611 39.8283C174.721 39.8283 174.813 39.8061 174.889 39.7618C174.967 39.7148 175.026 39.6483 175.065 39.5622C175.107 39.4761 175.128 39.373 175.128 39.253C175.128 39.1252 175.108 39.0182 175.069 38.9321C175.03 38.846 174.971 38.7821 174.893 38.7403C174.817 38.696 174.725 38.6738 174.615 38.6738C174.568 38.6738 174.517 38.6829 174.462 38.7012C174.41 38.7195 174.353 38.7469 174.29 38.7834L174.177 38.8499V39.7227L174.31 39.7696C174.367 39.7879 174.421 39.8022 174.47 39.8127C174.52 39.8231 174.567 39.8283 174.611 39.8283ZM176.08 40.2432V38.255H176.459L176.495 38.4586L176.624 38.3881C176.72 38.3359 176.814 38.2955 176.906 38.2668C177 38.2381 177.092 38.2237 177.184 38.2237C177.332 38.2237 177.455 38.2524 177.551 38.3098C177.648 38.3672 177.72 38.4468 177.767 38.5486C177.814 38.6503 177.837 38.7677 177.837 38.9008V40.2432H177.344V39.0221C177.344 38.9047 177.315 38.8173 177.258 38.7599C177.203 38.6999 177.117 38.6699 177 38.6699C176.95 38.6699 176.902 38.6764 176.855 38.6895C176.808 38.7025 176.761 38.7195 176.714 38.7403L176.573 38.8069V40.2432H176.08ZM178.608 40.2432V39.0221C178.608 38.9047 178.579 38.8173 178.522 38.7599C178.467 38.6999 178.38 38.6699 178.26 38.6699C178.21 38.6699 178.162 38.6764 178.115 38.6895C178.071 38.7025 178.025 38.7195 177.978 38.7403L177.802 38.8225L177.692 38.5016L177.908 38.3881C178.004 38.3359 178.098 38.2955 178.189 38.2668C178.283 38.2381 178.376 38.2237 178.467 38.2237C178.616 38.2237 178.739 38.2524 178.835 38.3098C178.932 38.3672 179.003 38.4468 179.05 38.5486C179.097 38.6503 179.121 38.7677 179.121 38.9008V40.2432H178.608ZM180.612 40.2745C180.419 40.2745 180.242 40.2353 180.08 40.1571C179.918 40.0788 179.788 39.964 179.689 39.8127C179.592 39.6587 179.544 39.4722 179.544 39.253C179.544 39.0965 179.57 38.9556 179.622 38.8303C179.674 38.7025 179.748 38.5942 179.841 38.5055C179.935 38.4142 180.042 38.3451 180.162 38.2981C180.285 38.2485 180.415 38.2237 180.554 38.2237C180.752 38.2237 180.919 38.2668 181.055 38.3529C181.19 38.439 181.292 38.5577 181.36 38.709C181.43 38.8604 181.466 39.0326 181.466 39.2256V39.3822H180.057C180.075 39.4891 180.112 39.5765 180.166 39.6444C180.221 39.7122 180.292 39.7631 180.378 39.797C180.464 39.8283 180.56 39.844 180.667 39.844C180.735 39.844 180.806 39.8388 180.879 39.8283C180.952 39.8153 181.025 39.7983 181.098 39.7774L181.274 39.7266L181.407 40.0514L181.254 40.1258C181.15 40.1753 181.043 40.2132 180.933 40.2393C180.824 40.2627 180.717 40.2745 180.612 40.2745ZM180.072 39.0221H180.996C180.975 38.9021 180.928 38.8095 180.855 38.7443C180.782 38.6764 180.682 38.6425 180.554 38.6425C180.47 38.6425 180.396 38.6582 180.331 38.6895C180.268 38.7182 180.215 38.7612 180.17 38.8186C180.126 38.876 180.093 38.9438 180.072 39.0221ZM181.878 40.2432V38.255H182.253L182.289 38.4586L182.418 38.3881C182.514 38.3359 182.611 38.2955 182.707 38.2668C182.804 38.2381 182.899 38.2237 182.993 38.2237C183.152 38.2237 183.281 38.2537 183.38 38.3138C183.48 38.3738 183.553 38.4546 183.6 38.5564C183.649 38.6582 183.674 38.773 183.674 38.9008V40.2432H183.181V39.0221C183.181 38.9073 183.152 38.8199 183.095 38.7599C183.037 38.6999 182.943 38.6699 182.813 38.6699C182.758 38.6699 182.705 38.6777 182.653 38.6934C182.603 38.7064 182.551 38.726 182.496 38.7521L182.371 38.8069V40.2432H181.878ZM184.984 40.2745C184.789 40.2745 184.64 40.2314 184.538 40.1453C184.436 40.0592 184.386 39.9196 184.386 39.7266V38.6855H183.959V38.3411L184.386 38.255V37.7932L184.879 37.6445V38.255H185.497V38.6855H184.879V39.57C184.879 39.6639 184.894 39.7344 184.926 39.7814C184.96 39.8283 185.036 39.8518 185.156 39.8518C185.19 39.8518 185.226 39.8505 185.262 39.8479C185.299 39.8453 185.338 39.8414 185.38 39.8361L185.481 39.8244L185.536 40.1805L185.446 40.204C185.373 40.2223 185.295 40.2379 185.211 40.251C185.13 40.2666 185.055 40.2745 184.984 40.2745Z" fill="white"/>
<path d="M59.9756 32.7829H55.2994L52.7193 21.549L49.6825 31.1166C49.3598 32.2454 48.5805 32.7829 47.4786 32.7829H46.0542C44.9256 32.7829 44.173 32.2454 43.8505 31.1166L40.8135 21.3609L38.2336 32.7829H33.5841L37.1317 17.3027C37.4272 15.8515 38.2336 15.314 39.416 15.314H41.378C42.4799 15.314 43.2592 15.8515 43.6085 17.0071L46.7799 27.4616L49.9243 17.0071C50.2736 15.8515 51.0262 15.314 52.1281 15.314H54.0899C55.2725 15.314 56.0787 15.8515 56.4013 17.3027L59.9756 32.7829ZM73.3819 28.456H67.792V24.2903H73.4626C74.7257 24.2903 75.6663 23.3766 75.6663 22.0597C75.6663 20.689 74.7257 19.8021 73.4626 19.8021H66.4482V32.7829H61.7718V15.314H73.3819C77.4402 15.314 80.3427 17.9746 80.3427 21.8984C80.3427 25.7953 77.4402 28.456 73.3819 28.456Z" fill="white"/>
<defs>
<clipPath id="clip0_1204_5593">
<rect width="31.3089" height="31.3089" fill="white" transform="translate(2.21198 11.0605)"/>
</clipPath>
<clipPath id="clip1_1204_5593">
<rect width="12.482" height="12.482" fill="white" transform="translate(11.5709 16.5054)"/>
</clipPath>
</defs>
</svg>
