<svg width="47" height="51" viewBox="0 0 47 51" fill="none" xmlns="http://www.w3.org/2000/svg">
<g clip-path="url(#clip0_37_854)">
<path d="M46.3302 22.6233C46.2354 21.6462 46.0713 20.6771 45.8392 19.7233C45.5172 18.5255 45.084 17.3605 44.5452 16.2433C43.8859 14.9222 43.0776 13.6808 42.1362 12.5433C41.7362 12.0523 41.2882 11.6063 40.8422 11.1153C41.2274 9.31632 40.9248 7.43831 39.9942 5.8513C38.2163 5.68297 36.4354 6.13987 34.9582 7.1433C34.8692 7.0983 34.7352 7.0543 34.6462 7.0093C34.2002 6.8313 33.7092 6.6523 33.2182 6.4743C32.7272 6.3403 32.2372 6.1623 31.7462 6.0743C31.2552 5.9403 30.7202 5.85131 30.1852 5.7623C30.0962 5.7623 30.0072 5.7173 29.9172 5.7173C29.1426 3.41409 27.5121 1.49684 25.3632 0.362305C23.1522 1.6754 21.5009 3.75522 20.7232 6.2063C20.7207 6.26812 20.7054 6.32874 20.6782 6.3843C20.4552 6.4293 20.2782 6.5183 20.0532 6.5623C19.7636 6.64651 19.4803 6.75076 19.2052 6.8743C18.9372 7.0083 18.6252 7.0973 18.3572 7.2313C17.7772 7.4993 17.2422 7.7663 16.6572 8.0793C16.1222 8.3913 15.5862 8.7043 15.0962 9.0603C15.0474 9.03734 15.0023 9.00736 14.9622 8.9713C11.7516 7.79979 8.20832 7.94354 5.1032 9.3713C4.77174 12.8045 5.69033 16.2421 7.6902 19.0523C7.5562 19.4093 7.4672 19.7213 7.3332 20.0783C6.93535 21.3441 6.65155 22.6429 6.4852 23.9593C6.4402 24.1373 6.4402 24.3593 6.3962 24.5393C3.4573 26.0696 1.22262 28.6755 0.158203 31.8133C2.34581 34.4978 5.47106 36.2517 8.9022 36.7203C9.49382 37.7918 10.182 38.807 10.9582 39.7533C11.2702 40.1533 11.6272 40.5113 11.9842 40.9133C11.1106 43.4264 11.1899 46.1728 12.2072 48.6313C15.1019 48.7733 17.956 47.9059 20.2822 46.1773L21.6202 46.5773C22.9909 46.9377 24.3969 47.1473 25.8132 47.2023H27.6382C29.0564 49.0739 31.1571 50.3087 33.4822 50.6373C35.1489 49.0041 36.1502 46.8105 36.2922 44.4813V44.3473V44.2133C36.8272 43.8133 37.3632 43.4133 37.8982 42.9643C38.9487 42.0114 39.8777 40.9326 40.6642 39.7523C40.7532 39.6633 40.7982 39.5293 40.8872 39.4403C42.7606 39.4938 44.5824 38.8225 45.9732 37.5663C45.7406 35.6598 44.8014 33.9099 43.3412 32.6623L43.2962 32.6173L43.2512 32.5723L43.2062 32.5273C43.2062 32.3493 43.2512 32.1703 43.2512 31.9473C43.2884 31.6066 43.3035 31.2639 43.2962 30.9213V29.6273C43.303 29.5367 43.2879 29.4458 43.2522 29.3623L43.2072 29.0943L43.1622 28.8263C43.1172 28.4693 43.0282 28.1573 42.9842 27.8003C42.6737 26.4809 42.162 25.2171 41.4672 24.0533C40.7684 22.926 39.9121 21.9043 38.9242 21.0193C37.9675 20.1706 36.8841 19.4765 35.7132 18.9623C34.5999 18.4454 33.4095 18.1141 32.1892 17.9813C31.5976 17.9072 31.0013 17.8775 30.4052 17.8923H29.5132C29.2012 17.9373 28.8882 17.9813 28.6212 18.0263C27.4566 18.2465 26.3397 18.6692 25.3212 19.2753C24.3557 19.8558 23.4953 20.5952 22.7762 21.4623C22.0835 22.2667 21.5396 23.1881 21.1702 24.1833C20.8138 25.112 20.603 26.0902 20.5452 27.0833V28.1543C20.5381 28.2751 20.5533 28.3961 20.5902 28.5113C20.6321 28.9802 20.7219 29.4437 20.8582 29.8943C21.1124 30.762 21.5187 31.5777 22.0582 32.3033C22.5492 32.9696 23.153 33.545 23.8422 34.0033C24.475 34.428 25.1663 34.7585 25.8942 34.9843C26.5405 35.1987 27.2213 35.2896 27.9012 35.2523H28.8382C28.9134 35.2417 28.9878 35.2267 29.0612 35.2073C29.1502 35.2073 29.1952 35.1623 29.2842 35.1623C29.4182 35.1173 29.5962 35.0733 29.7302 35.0283C29.9982 34.9393 30.2652 34.8053 30.5302 34.7163C30.7646 34.603 30.9885 34.4691 31.1992 34.3163C31.2442 34.2713 31.3332 34.2273 31.3772 34.1823C31.4309 34.142 31.476 34.0913 31.5097 34.0332C31.5433 33.9751 31.565 33.9108 31.5733 33.8442C31.5816 33.7776 31.5764 33.7099 31.558 33.6454C31.5396 33.5808 31.5084 33.5206 31.4662 33.4683C31.3798 33.3833 31.2705 33.3254 31.1517 33.3016C31.0329 33.2778 30.9097 33.2892 30.7972 33.3343C30.7522 33.3793 30.7082 33.3793 30.6192 33.4233C30.4338 33.5169 30.2395 33.5916 30.0392 33.6463C29.8162 33.6913 29.5932 33.7803 29.3702 33.8243C29.2362 33.8243 29.1472 33.8693 29.0132 33.8693H28.0762C28.0134 33.8757 27.9504 33.8598 27.8982 33.8243C27.3763 33.7378 26.8669 33.588 26.3812 33.3783C25.8684 33.1503 25.4001 32.8331 24.9982 32.4413C24.5556 32.0423 24.1793 31.5754 23.8832 31.0583C23.5843 30.5333 23.3875 29.9565 23.3032 29.3583C23.2438 29.0497 23.2286 28.7342 23.2582 28.4213V28.1533V27.9303C23.2662 27.7634 23.2961 27.5983 23.3472 27.4393C23.583 26.0606 24.2553 24.7941 25.2652 23.8263C25.5163 23.566 25.8016 23.3409 26.1132 23.1573C26.4054 22.9458 26.7196 22.7665 27.0502 22.6223C27.3823 22.4767 27.7254 22.3573 28.0762 22.2653C28.4247 22.1628 28.7843 22.103 29.1472 22.0873C29.3252 22.0873 29.5042 22.0423 29.6822 22.0423H30.2172C30.6073 22.0764 30.9948 22.1359 31.3772 22.2203C32.1571 22.3966 32.9081 22.6821 33.6082 23.0683C34.6918 23.6656 35.6245 24.5026 36.3351 25.5154C37.0457 26.5283 37.5153 27.6902 37.7082 28.9123C37.7532 29.1353 37.7532 29.3123 37.7972 29.5373V30.6973C37.7972 30.9203 37.7522 31.1433 37.7522 31.3663C37.7072 31.5893 37.7072 31.8123 37.6632 32.0353L37.5292 32.7043C37.4402 33.1503 37.2612 33.5523 37.1292 33.9983C36.8178 34.8439 36.3861 35.6401 35.8472 36.3623C34.2242 38.6032 31.7917 40.1234 29.0662 40.6003C28.6257 40.689 28.1775 40.7339 27.7282 40.7343H27.0142C26.7753 40.7416 26.5363 40.7265 26.3002 40.6893C25.3338 40.6016 24.3778 40.4225 23.4452 40.1543C22.5183 39.8906 21.6212 39.5317 20.7682 39.0833C19.0685 38.1685 17.5674 36.9251 16.3522 35.4253C15.7653 34.6674 15.2431 33.8616 14.7912 33.0163C14.365 32.1742 14.0214 31.2927 13.7652 30.3843C13.5049 29.4838 13.3551 28.555 13.3192 27.6183V26.6823V26.2363C13.3216 25.7573 13.3664 25.2794 13.4532 24.8083C13.4982 24.3173 13.5872 23.8713 13.6762 23.3803C13.7652 22.8893 13.8992 22.4433 14.0332 21.9523C14.2862 21.0346 14.6143 20.1392 15.0142 19.2753C15.7671 17.6427 16.7928 16.1503 18.0472 14.8623C18.3532 14.5562 18.6811 14.2728 19.0282 14.0143C19.2732 13.7796 19.5412 13.5702 19.8282 13.3893C20.1846 13.1548 20.5572 12.9459 20.9432 12.7643C21.1212 12.6753 21.3002 12.5863 21.5232 12.4963C21.7315 12.407 21.9399 12.3176 22.1482 12.2283C22.5482 12.0503 22.9482 11.9163 23.3482 11.7823C23.4372 11.7373 23.5712 11.7373 23.6602 11.6933C23.7492 11.6493 23.8832 11.6483 23.9722 11.6043C24.1859 11.5658 24.3953 11.5061 24.5972 11.4263C24.6862 11.3813 24.8202 11.3813 24.9092 11.3373C24.9982 11.3373 25.1322 11.2923 25.2212 11.2923C25.3102 11.2923 25.4442 11.2473 25.5332 11.2473L25.7112 11.2023L25.8892 11.1573C25.9782 11.1573 26.1122 11.1123 26.2012 11.1123C26.3352 11.1123 26.4242 11.0673 26.5582 11.0673C26.6472 11.0673 26.8262 11.0223 26.9152 11.0223C26.9923 11.0292 27.0698 11.0136 27.1382 10.9773H27.4582C27.579 10.9844 27.7 10.9692 27.8152 10.9323H29.6442C30.4368 10.975 31.2262 11.0645 32.0082 11.2003C33.4993 11.4594 34.943 11.9408 36.2912 12.6283C37.5443 13.2337 38.7139 13.9984 39.7712 14.9033C39.8162 14.9483 39.9052 14.9923 39.9492 15.0813C39.9942 15.1263 40.0832 15.1703 40.1272 15.2593C40.2612 15.3483 40.3502 15.4823 40.4842 15.5713C40.6182 15.6603 40.7072 15.7943 40.8412 15.8833C40.9302 16.0173 41.0642 16.1063 41.1532 16.2403C41.5782 16.679 41.9789 17.1407 42.3532 17.6233C43.0179 18.4892 43.6005 19.4152 44.0932 20.3893C44.1382 20.4343 44.1382 20.4783 44.1822 20.5673C44.2272 20.6123 44.2272 20.6563 44.2712 20.7453C44.3133 20.8582 44.3734 20.9636 44.4492 21.0573C44.4942 21.1463 44.5382 21.2803 44.5832 21.3693C44.6282 21.4583 44.6722 21.5923 44.7172 21.6813C44.8952 22.0813 45.0292 22.4813 45.1632 22.8813C45.3862 23.5063 45.5202 24.0413 45.6542 24.4873C45.6789 24.5752 45.731 24.6528 45.803 24.709C45.875 24.7651 45.963 24.7967 46.0542 24.7993C46.1046 24.7986 46.1543 24.7874 46.2001 24.7665C46.246 24.7455 46.287 24.7153 46.3206 24.6777C46.3541 24.6401 46.3795 24.596 46.3951 24.548C46.4107 24.5001 46.4162 24.4495 46.4112 24.3993C46.3752 23.8723 46.3752 23.2923 46.3302 22.6233Z" fill="url(#paint0_linear_37_854)"/>
</g>
<defs>
<linearGradient id="paint0_linear_37_854" x1="23.2856" y1="5.03788" x2="23.2856" y2="50.939" gradientUnits="userSpaceOnUse">
<stop stop-color="#FCEE1F"/>
<stop offset="1" stop-color="#F15B2A"/>
</linearGradient>
<clipPath id="clip0_37_854">
<rect width="46.2548" height="50.275" fill="white" transform="translate(0.158203 0.362305)"/>
</clipPath>
</defs>
</svg>
