<svg width="28" height="28" viewBox="0 0 28 28" fill="none" xmlns="http://www.w3.org/2000/svg">
<path d="M7.875 15.75H2.625C2.14175 15.75 1.75 16.1418 1.75 16.625V25.375C1.75 25.8582 2.14175 26.25 2.625 26.25H7.875C8.35825 26.25 8.75 25.8582 8.75 25.375V16.625C8.75 16.1418 8.35825 15.75 7.875 15.75Z" fill="white"/>
<path d="M25.375 8.75H20.125C19.6418 8.75 19.25 9.14175 19.25 9.625V25.375C19.25 25.8582 19.6418 26.25 20.125 26.25H25.375C25.8582 26.25 26.25 25.8582 26.25 25.375V9.625C26.25 9.14175 25.8582 8.75 25.375 8.75Z" fill="white"/>
<path d="M16.625 1.75H11.375C10.8918 1.75 10.5 2.14175 10.5 2.625V25.375C10.5 25.8582 10.8918 26.25 11.375 26.25H16.625C17.1082 26.25 17.5 25.8582 17.5 25.375V2.625C17.5 2.14175 17.1082 1.75 16.625 1.75Z" fill="white"/>
</svg>
