<svg width="24" height="24" viewBox="0 0 24 24" fill="none" xmlns="http://www.w3.org/2000/svg">
<path d="M6.75 13.5H2.25C1.83579 13.5 1.5 13.8358 1.5 14.25V21.75C1.5 22.1642 1.83579 22.5 2.25 22.5H6.75C7.16421 22.5 7.5 22.1642 7.5 21.75V14.25C7.5 13.8358 7.16421 13.5 6.75 13.5Z" fill="#1925FF"/>
<path d="M21.75 7.5H17.25C16.8358 7.5 16.5 7.83579 16.5 8.25V21.75C16.5 22.1642 16.8358 22.5 17.25 22.5H21.75C22.1642 22.5 22.5 22.1642 22.5 21.75V8.25C22.5 7.83579 22.1642 7.5 21.75 7.5Z" fill="#1925FF"/>
<path d="M14.25 1.5H9.75C9.33579 1.5 9 1.83579 9 2.25V21.75C9 22.1642 9.33579 22.5 9.75 22.5H14.25C14.6642 22.5 15 22.1642 15 21.75V2.25C15 1.83579 14.6642 1.5 14.25 1.5Z" fill="#1925FF"/>
</svg>
