<svg width="166" height="32" viewBox="0 0 166 32" fill="none" xmlns="http://www.w3.org/2000/svg">
<g id="Group 1">
<g id="XMLID_3_">
<path id="XMLID_6_" d="M53.0929 13.239H37.4619L38.5645 15.1325L40.8337 19.0311H46.9645C46.3616 20.9642 45.19 22.6442 43.6518 23.8751C42.9479 24.4409 42.1652 24.9099 41.3259 25.2673L36.598 17.1376L34.3288 13.2415L33.3812 11.6111L31.7568 8.82182V8.81934L31.331 8.08479L30.0906 5.9556L28.3948 3.03974L26.6991 5.9556L24.9934 8.88386L23.406 11.6111V11.6136L22.4584 13.244L21.6585 14.6188V14.6213L20.0071 17.4577L18.4196 20.1875L16.7607 17.3287L14.3808 13.239L10.1401 5.95063H13.3151L17.5533 13.2366L18.3482 14.6014L19.1432 13.2366L21.7496 8.75482L20.1154 5.95063L16.7731 0.208252H0L3.33984 5.95063L7.57802 13.2366L13.3594 23.1728L15.0158 26.0241L18.3802 31.8062L21.7816 25.9621L23.3346 23.2919L23.3666 23.2348V23.2324L26.768 17.3882L27.4989 16.1326L28.3554 14.661L29.9798 17.4528L32.3229 21.4804L34.7619 25.6718L38.4242 31.9675C40.5285 31.8435 42.5245 31.305 44.3286 30.429C45.1457 30.0319 45.9259 29.5703 46.6569 29.0418C49.918 26.6991 52.2635 23.148 53.0462 19.0311C53.2332 18.0483 53.3292 17.0359 53.3292 16.001C53.3292 15.0556 53.2504 14.1324 53.0929 13.239Z" fill="url(#paint0_linear_1379_574)"/>
<path id="XMLID_5_" d="M30.3268 23.508L29.3744 21.8701L29.3694 21.8627C29.0052 21.3564 28.6877 20.813 28.4243 20.2397V20.2373L28.3923 20.1802L25.0353 25.9499L24.991 26.0268L26.0567 27.8557L28.4662 32H35.2665L35.168 31.8337L30.3268 23.508Z" fill="#06C9FF"/>
<path id="XMLID_4_" d="M33.3246 6.11958L33.6643 6.70772C34.5971 6.31811 35.5988 6.06995 36.6497 5.98558C36.918 5.96324 37.1887 5.95332 37.4644 5.95332C40.2627 5.95332 42.7929 7.11718 44.6043 8.99077L47.5897 5.95332L48.7588 4.76464C46.4502 2.40217 43.4155 0.764327 40.024 0.210934C40.0215 0.208453 40.0191 0.208453 40.0142 0.208453C39.1823 0.0694843 38.3307 0 37.4619 0C37.265 0 37.0706 0.00496316 36.8761 0.0124079C36.2067 0.0347422 35.5496 0.101745 34.9047 0.208453C33.4108 0.451648 31.9833 0.908259 30.6616 1.54354L33.2262 5.95332L33.3246 6.11958Z" fill="#06C9FF"/>
</g>
<g id="wappgo">
<path d="M63.4378 24.6736L58.7449 9.28637L62.1011 9.31482L65.1017 19.1701L68.145 9.31482H71.0319L74.061 19.1701L77.0759 9.31482H80.4321L75.7391 24.6736H73.0655L69.5814 14.1073L66.1114 24.6736H63.4378Z" fill="#1E1E1E"/>
<path d="M86.4323 25.1003C85.323 25.1003 84.3844 24.8917 83.6165 24.4745C82.8486 24.0479 82.2655 23.4838 81.8673 22.7822C81.4786 22.0806 81.2842 21.308 81.2842 20.4642C81.2842 19.7247 81.4075 19.061 81.654 18.4732C81.9005 17.8759 82.2797 17.364 82.7917 16.9373C83.3036 16.5012 83.9673 16.1457 84.7826 15.8708C85.3989 15.6717 86.1194 15.4915 86.9442 15.3304C87.7786 15.1692 88.6792 15.0222 89.6463 14.8895C90.6228 14.7473 91.642 14.5956 92.7038 14.4344L91.4808 15.1313C91.4903 14.0694 91.2532 13.2873 90.7697 12.7848C90.2862 12.2823 89.4709 12.0311 88.3237 12.0311C87.6316 12.0311 86.9632 12.1922 86.3185 12.5146C85.6738 12.8369 85.2235 13.3915 84.9675 14.1784L81.8389 13.1972C82.2181 11.8983 82.9386 10.8554 84.0005 10.0685C85.0718 9.28163 86.5129 8.88818 88.3237 8.88818C89.6889 8.88818 90.8882 9.11098 91.9216 9.55658C92.9645 10.0022 93.7372 10.7322 94.2397 11.7466C94.5146 12.287 94.6805 12.8417 94.7374 13.4105C94.7943 13.9699 94.8227 14.5814 94.8227 15.245V24.6736H91.8221V21.3459L92.3198 21.8863C91.6277 22.9955 90.8171 23.8109 89.888 24.3323C88.9684 24.8443 87.8165 25.1003 86.4323 25.1003ZM87.1149 22.3698C87.8923 22.3698 88.556 22.2323 89.1059 21.9574C89.6557 21.6825 90.0919 21.3459 90.4142 20.9477C90.746 20.5495 90.9688 20.175 91.0826 19.8242C91.2627 19.3881 91.3623 18.8904 91.3812 18.331C91.4097 17.7622 91.4239 17.3023 91.4239 16.9516L92.4763 17.2644C91.4429 17.4256 90.5564 17.5678 89.8169 17.6911C89.0774 17.8143 88.4422 17.9328 87.9113 18.0466C87.3804 18.1509 86.9111 18.2694 86.5034 18.4021C86.1052 18.5443 85.7686 18.7102 85.4937 18.8999C85.2187 19.0895 85.0054 19.3075 84.8537 19.554C84.7115 19.8005 84.6404 20.0897 84.6404 20.4215C84.6404 20.8007 84.7352 21.1373 84.9248 21.4312C85.1145 21.7156 85.3894 21.9432 85.7497 22.1138C86.1194 22.2845 86.5745 22.3698 87.1149 22.3698Z" fill="#1E1E1E"/>
<path d="M105.906 25.1003C104.408 25.1003 103.152 24.7447 102.137 24.0337C101.123 23.3226 100.36 22.3556 99.8477 21.1326C99.3357 19.9001 99.0798 18.5206 99.0798 16.9942C99.0798 15.4489 99.3357 14.0647 99.8477 12.8417C100.36 11.6186 101.109 10.6563 102.095 9.95477C103.09 9.24371 104.318 8.88818 105.778 8.88818C107.228 8.88818 108.485 9.24371 109.546 9.95477C110.618 10.6563 111.447 11.6186 112.035 12.8417C112.623 14.0552 112.917 15.4394 112.917 16.9942C112.917 18.5301 112.628 19.9096 112.049 21.1326C111.471 22.3556 110.656 23.3226 109.603 24.0337C108.551 24.7447 107.319 25.1003 105.906 25.1003ZM98.4967 31.4998V9.31482H101.526V20.0944H101.952V31.4998H98.4967ZM105.38 22.0285C106.271 22.0285 107.006 21.8057 107.584 21.3601C108.162 20.9145 108.589 20.3125 108.864 19.554C109.148 18.7861 109.291 17.9328 109.291 16.9942C109.291 16.0651 109.148 15.2213 108.864 14.4629C108.579 13.6949 108.139 13.0882 107.541 12.6426C106.944 12.1875 106.186 11.9599 105.266 11.9599C104.394 11.9599 103.683 12.1733 103.133 12.5999C102.583 13.017 102.175 13.6049 101.91 14.3633C101.654 15.1123 101.526 15.9893 101.526 16.9942C101.526 17.9897 101.654 18.8667 101.91 19.6251C102.175 20.3836 102.588 20.9761 103.147 21.4028C103.716 21.8199 104.46 22.0285 105.38 22.0285Z" fill="#1E1E1E"/>
<path d="M123.432 25.1003C121.934 25.1003 120.678 24.7447 119.664 24.0337C118.649 23.3226 117.886 22.3556 117.374 21.1326C116.862 19.9001 116.606 18.5206 116.606 16.9942C116.606 15.4489 116.862 14.0647 117.374 12.8417C117.886 11.6186 118.635 10.6563 119.621 9.95477C120.617 9.24371 121.844 8.88818 123.304 8.88818C124.755 8.88818 126.011 9.24371 127.073 9.95477C128.144 10.6563 128.974 11.6186 129.562 12.8417C130.149 14.0552 130.443 15.4394 130.443 16.9942C130.443 18.5301 130.154 19.9096 129.576 21.1326C128.998 22.3556 128.182 23.3226 127.13 24.0337C126.077 24.7447 124.845 25.1003 123.432 25.1003ZM116.023 31.4998V9.31482H119.052V20.0944H119.479V31.4998H116.023ZM122.906 22.0285C123.797 22.0285 124.532 21.8057 125.11 21.3601C125.689 20.9145 126.115 20.3125 126.39 19.554C126.675 18.7861 126.817 17.9328 126.817 16.9942C126.817 16.0651 126.675 15.2213 126.39 14.4629C126.106 13.6949 125.665 13.0882 125.068 12.6426C124.47 12.1875 123.712 11.9599 122.792 11.9599C121.92 11.9599 121.209 12.1733 120.659 12.5999C120.109 13.017 119.702 13.6049 119.436 14.3633C119.18 15.1123 119.052 15.9893 119.052 16.9942C119.052 17.9897 119.18 18.8667 119.436 19.6251C119.702 20.3836 120.114 20.9761 120.673 21.4028C121.242 21.8199 121.986 22.0285 122.906 22.0285Z" fill="#1E1E1E"/>
<path d="M140.034 31.9264C139.181 31.9264 138.361 31.7937 137.574 31.5282C136.797 31.2627 136.095 30.8788 135.469 30.3763C134.844 29.8833 134.332 29.286 133.933 28.5844L137.091 27.0201C137.384 27.5795 137.797 27.9919 138.328 28.2574C138.868 28.5323 139.442 28.6698 140.049 28.6698C140.76 28.6698 141.395 28.5418 141.954 28.2858C142.514 28.0393 142.945 27.6695 143.248 27.1765C143.561 26.693 143.708 26.0863 143.689 25.3562V20.9904H144.116V9.31482H147.116V25.4131C147.116 25.8018 147.098 26.1716 147.06 26.5224C147.031 26.8826 146.979 27.2334 146.903 27.5747C146.676 28.5702 146.24 29.3856 145.595 30.0208C144.95 30.6655 144.149 31.1442 143.191 31.4571C142.243 31.77 141.191 31.9264 140.034 31.9264ZM139.736 25.1003C138.323 25.1003 137.091 24.7447 136.038 24.0337C134.986 23.3226 134.171 22.3556 133.592 21.1326C133.014 19.9096 132.725 18.5301 132.725 16.9942C132.725 15.4394 133.014 14.0552 133.592 12.8417C134.18 11.6186 135.01 10.6563 136.081 9.95477C137.152 9.24371 138.413 8.88818 139.864 8.88818C141.324 8.88818 142.547 9.24371 143.533 9.95477C144.528 10.6563 145.282 11.6186 145.794 12.8417C146.306 14.0647 146.562 15.4489 146.562 16.9942C146.562 18.5206 146.306 19.9001 145.794 21.1326C145.282 22.3556 144.519 23.3226 143.504 24.0337C142.49 24.7447 141.234 25.1003 139.736 25.1003ZM140.262 22.0285C141.182 22.0285 141.921 21.8199 142.48 21.4028C143.049 20.9761 143.462 20.3836 143.718 19.6251C143.983 18.8667 144.116 17.9897 144.116 16.9942C144.116 15.9893 143.983 15.1123 143.718 14.3633C143.462 13.6049 143.059 13.017 142.509 12.5999C141.959 12.1733 141.248 11.9599 140.376 11.9599C139.456 11.9599 138.698 12.1875 138.1 12.6426C137.503 13.0882 137.062 13.6949 136.778 14.4629C136.493 15.2213 136.351 16.0651 136.351 16.9942C136.351 17.9328 136.489 18.7861 136.763 19.554C137.048 20.3125 137.479 20.9145 138.058 21.3601C138.636 21.8057 139.371 22.0285 140.262 22.0285Z" fill="#1E1E1E"/>
<path d="M157.888 25.1003C156.352 25.1003 155.01 24.7542 153.863 24.0621C152.716 23.37 151.825 22.4172 151.19 21.2037C150.564 19.9807 150.251 18.5775 150.251 16.9942C150.251 15.3825 150.573 13.9699 151.218 12.7563C151.863 11.5428 152.759 10.5947 153.906 9.9121C155.053 9.22949 156.38 8.88818 157.888 8.88818C159.433 8.88818 160.779 9.23423 161.927 9.92632C163.074 10.6184 163.965 11.576 164.6 12.799C165.235 14.0125 165.553 15.4109 165.553 16.9942C165.553 18.587 165.231 19.9949 164.586 21.2179C163.951 22.4314 163.06 23.3842 161.912 24.0763C160.765 24.759 159.424 25.1003 157.888 25.1003ZM157.888 21.8863C159.253 21.8863 160.268 21.4312 160.931 20.5211C161.595 19.6109 161.927 18.4353 161.927 16.9942C161.927 15.5057 161.59 14.3207 160.917 13.4389C160.244 12.5478 159.234 12.1022 157.888 12.1022C156.968 12.1022 156.21 12.3107 155.612 12.7279C155.025 13.1356 154.589 13.7091 154.304 14.4486C154.02 15.1787 153.878 16.0272 153.878 16.9942C153.878 18.4827 154.214 19.6725 154.887 20.5637C155.57 21.4454 156.57 21.8863 157.888 21.8863Z" fill="#1E1E1E"/>
</g>
</g>
<defs>
<linearGradient id="paint0_linear_1379_574" x1="26.6647" y1="32.1838" x2="26.6647" y2="-3.00078" gradientUnits="userSpaceOnUse">
<stop stop-color="#1925FF"/>
<stop offset="1" stop-color="#1925FF"/>
</linearGradient>
</defs>
</svg>
