<svg id="Group_39" data-name="Group 39" xmlns="http://www.w3.org/2000/svg" width="36.403" height="54.263" viewBox="0 0 36.403 54.263">
  <g id="Group_33" data-name="Group 33" transform="translate(5.999 27.806)">
    <path id="Path_335" data-name="Path 335" d="M249.849,399.26a3.12,3.12,0,0,0-1.516-2.466c-.031-.019-.068.026-.039.05a2.681,2.681,0,0,1,.764,2.773,4.983,4.983,0,0,1-1.732,2.63,15.876,15.876,0,0,1-4.2,2.459c-.5.18-1.022.291-1.527.448a.081.081,0,0,0-.056.1.082.082,0,0,0,.077.059,10.372,10.372,0,0,0,3.614-.746,8.936,8.936,0,0,0,3.257-2.04A4.338,4.338,0,0,0,249.849,399.26Z" transform="translate(-221.186 -381.12)" fill="#fff"/>
    <path id="Path_336" data-name="Path 336" d="M268.7,405.567a.017.017,0,0,0-.032.013,3.434,3.434,0,0,1-.829,2.688A7.994,7.994,0,0,1,266.8,409.3a12.553,12.553,0,0,0-1.115.934.219.219,0,0,0,.213.367,5.352,5.352,0,0,0,2.852-1.993,2.876,2.876,0,0,0,.52-1.545A2.352,2.352,0,0,0,268.7,405.567Z" transform="translate(-242.643 -388.929)" fill="#fff"/>
    <path id="Path_337" data-name="Path 337" d="M63.547,404.706c-.481-.141-.933-.263-1.4-.449q-.805-.319-1.595-.68a19.208,19.208,0,0,1-2.685-1.523,5.742,5.742,0,0,1-2.022-2.226,2.77,2.77,0,0,1,.312-3.141c.014-.014,0-.042-.021-.03a3.034,3.034,0,0,0-1.141,2.451,4.439,4.439,0,0,0,1.611,3.112,10.922,10.922,0,0,0,6.936,2.563.038.038,0,0,0,.032-.046A.037.037,0,0,0,63.547,404.706Z" transform="translate(-54.991 -380.998)" fill="#fff"/>
    <path id="Path_338" data-name="Path 338" d="M73,389.145a5.952,5.952,0,0,1-2.059-2.849,2.77,2.77,0,0,1,.347-1.847,3.625,3.625,0,0,1,.553-.685c.043-.045.089-.088.135-.129-.029-.061-.058-.124-.084-.187a.754.754,0,0,1-.091-.4,2.335,2.335,0,0,0-1.038.817,2.979,2.979,0,0,0-.609,2.082c.117,1.573,1.47,2.63,2.759,3.308a.071.071,0,0,0,.086-.021.071.071,0,0,0,0-.089Z" transform="translate(-68.491 -368.886)" fill="#fff"/>
    <path id="Path_339" data-name="Path 339" d="M82.632,263.125c-.228-.232-.583-.291-.817-.516s-.576-.376-.824-.63a4.663,4.663,0,0,1-1.081-1.989,4.092,4.092,0,0,1,1.679-4.174.033.033,0,0,0,0-.046.032.032,0,0,0-.037-.01,3.957,3.957,0,0,0-2.457,4.211,3.446,3.446,0,0,0,1.189,2.293,6.6,6.6,0,0,0,1.173.806,1.762,1.762,0,0,0,1.143.157.061.061,0,0,0,.043-.076A.063.063,0,0,0,82.632,263.125Z" transform="translate(-76.436 -255.541)" fill="#fff"/>
    <path id="Path_340" data-name="Path 340" d="M258.822,257.418a4.305,4.305,0,0,0-1.447-2.465,6.323,6.323,0,0,0-1.279-.775,4.986,4.986,0,0,0-1.418-.4.022.022,0,0,0-.012.042,5.9,5.9,0,0,1,2.144,1.3,4.073,4.073,0,0,1,1.22,2.224c.277,1.44-.452,3.335-2.008,3.634-.126.024-.071.21.052.191a3.407,3.407,0,0,0,2.135-1.141A3.307,3.307,0,0,0,258.822,257.418Z" transform="translate(-232.871 -253.778)" fill="#fff"/>
  </g>
  <g id="Group_34" data-name="Group 34" transform="translate(0.624 28.677)">
    <path id="Path_341" data-name="Path 341" d="M14.783,312.785a4.361,4.361,0,0,0-1.9-1.789c-1.683-.909-3.789-.953-5.246-2.284a2.359,2.359,0,0,1-.792-2.172,2.2,2.2,0,0,1,1.54-1.745,2.446,2.446,0,0,1,2.36.581c.737.684.624,1.594.684,2.5.009.129.176.229.275.115a2.443,2.443,0,0,0,.1-2.459,3.058,3.058,0,0,0-2.22-1.823,3.287,3.287,0,0,0-3.853,3.466c.116,2.23,2.365,3.33,4.213,3.9a12.132,12.132,0,0,1,3.233,1.205,3.937,3.937,0,0,1,1.1,1.136,4.35,4.35,0,0,1,.545,1.509.019.019,0,0,0,.023.009.022.022,0,0,0,.009-.009A2.116,2.116,0,0,0,14.783,312.785Z" transform="translate(-5.717 -299.049)" fill="#ff0"/>
    <path id="Path_342" data-name="Path 342" d="M111.914,269.172a21.962,21.962,0,0,0-2.829.021c-.947.019-1.907-.046-2.85-.121-1.71-.135-3.854-.383-5.165-1.469a2.654,2.654,0,0,1-.943-2.1,1.921,1.921,0,0,1,.588-1.753,4.646,4.646,0,0,1,.764-.632,6.339,6.339,0,0,1,1.3-.818c.4-.2.829-.4,1.263-.564a9.183,9.183,0,0,0-1.687.3,5.332,5.332,0,0,0-2.1,1.164,2.845,2.845,0,0,0-1.007,1.831v.068a3.658,3.658,0,0,0,.644,2.582c1.117,1.549,3.446,1.933,5.334,2.172a17.032,17.032,0,0,0,3.512.11,8.877,8.877,0,0,0,3.226-.65C112.034,269.27,111.989,269.181,111.914,269.172Z" transform="translate(-89.016 -261.73)" fill="#ff0"/>
    <path id="Path_343" data-name="Path 343" d="M177.126,290.509a16.553,16.553,0,0,0-.149-2.277c-.011-.084-.024-.168-.037-.252a8.8,8.8,0,0,1-3.255,5.588c-2.015,1.675-4.522,2.63-6.764,3.944a15.887,15.887,0,0,0-3.055,2.279,6.134,6.134,0,0,0-1.948,3.26,3.3,3.3,0,0,0,1.2,3.011,4.756,4.756,0,0,0,3.445.971c3.382-.228,6.205-2.668,7.919-5.451a16.455,16.455,0,0,0,1.992-5.23c.2-.952.34-1.917.468-2.882.088-.674.169-1.343.194-2.016C177.13,291.145,177.124,290.831,177.126,290.509Z" transform="translate(-144.843 -285.104)" fill="#ff0"/>
    <path id="Path_344" data-name="Path 344" d="M70.657,418.509c-.982.062-1.94.253-2.909.375a28.935,28.935,0,0,1-3.318.173,25.558,25.558,0,0,1-6.294-.767,20.393,20.393,0,0,1-5.639-2.258,6.827,6.827,0,0,1-2.053-1.888,3.574,3.574,0,0,1-.61-2.843c.01-.056-.081-.1-.109-.042a3.515,3.515,0,0,0-.194,2.418,4.919,4.919,0,0,0,1.618,2.436A15.245,15.245,0,0,0,57,418.931a25.048,25.048,0,0,0,6.889.96,14.235,14.235,0,0,0,3.528-.286,15.047,15.047,0,0,0,3.295-.918.094.094,0,0,0-.056-.177Z" transform="translate(-44.642 -394.85)" fill="#ff0"/>
    <path id="Path_345" data-name="Path 345" d="M302.292,390.8a3.534,3.534,0,0,0-.955-1.852,2.686,2.686,0,0,0-1.716-.79.089.089,0,0,0-.062.15c.187.183.422.3.595.494s.369.423.539.645a4.388,4.388,0,0,1,.764,1.442,4.257,4.257,0,0,1-.661,3.335.067.067,0,0,0,.011.08.066.066,0,0,0,.08.011A3.437,3.437,0,0,0,302.292,390.8Z" transform="translate(-267.481 -374.306)" fill="#ff0"/>
    <path id="Path_346" data-name="Path 346" d="M229.26,273.6a.009.009,0,0,0-.005.011h.005a1.869,1.869,0,0,1,1.379,1.283,2.064,2.064,0,0,1-.273,1.685,3.962,3.962,0,0,1-1.161,1.111,7.94,7.94,0,0,1-.764.512c-.253.129-.513.165-.693.4a.144.144,0,0,0,0,.2.142.142,0,0,0,.059.035c.379.084.679-.162,1.048-.207a3.363,3.363,0,0,0,1.038-.37,3.121,3.121,0,0,0,1.511-1.68A2.214,2.214,0,0,0,229.26,273.6Z" transform="translate(-203.489 -272.299)" fill="#ff0"/>
    <path id="Path_347" data-name="Path 347" d="M139.827,279.151a2.03,2.03,0,0,0-2.591.438c-.154.2-.452.822-.172,1.051a.831.831,0,0,0,.958.141.1.1,0,0,0,.031-.142.1.1,0,0,0-.082-.047,1.111,1.111,0,0,1-.5-.09c-.383-.17.147-.718.273-.81a1.462,1.462,0,0,1,1.131-.225.8.8,0,0,1,.59.777,1.455,1.455,0,0,1-.553,1.085,4.829,4.829,0,0,1-2.073.972,13.451,13.451,0,0,1-2.54.486,13.231,13.231,0,0,1-4.792-.313,1.55,1.55,0,0,1-1.175-1.882c.185-.861,1.054-1.158,1.774-1.407.016-.005.021-.035,0-.037a1.981,1.981,0,0,0-1.933,1.235,1.941,1.941,0,0,0,.637,2.35,4.278,4.278,0,0,0,1.527.593,11.764,11.764,0,0,0,1.931.322,13.761,13.761,0,0,0,3.98-.288,7.049,7.049,0,0,0,3.273-1.407A1.889,1.889,0,0,0,139.827,279.151Z" transform="translate(-114.67 -276.97)" fill="#ff0"/>
  </g>
  <g id="Group_35" data-name="Group 35" transform="translate(0 25.031)">
    <path id="Path_348" data-name="Path 348" d="M94.306,258.15a3.669,3.669,0,0,1-1.964,3.009,14.693,14.693,0,0,1-3.449,1.433,23.987,23.987,0,0,1-14.824-.2c-1.725-.574-3.879-1.486-4.428-3.279a2.9,2.9,0,0,1,0-2.034,3.939,3.939,0,0,1,1.091-1.534,6.287,6.287,0,0,1,.584-.479,3.628,3.628,0,0,0-1.9,4.556c.771,2.054,3.026,2.946,4.94,3.576a24.549,24.549,0,0,0,14.619.091,11.562,11.562,0,0,0,3.921-1.828,3.824,3.824,0,0,0,1.5-3.324.043.043,0,1,0-.085.009Z" transform="translate(-61.641 -252.154)" fill="#fff"/>
    <path id="Path_349" data-name="Path 349" d="M151.973,232.512a11.991,11.991,0,0,0-1.454-1.388,14.891,14.891,0,0,0-1.61-1.083,12.437,12.437,0,0,0-4.064-1.361,23.663,23.663,0,0,0-9.671.747c-.021.005-.012.032.009.03a37.943,37.943,0,0,1,4.725-.486,23.515,23.515,0,0,1,4.728.393,20.116,20.116,0,0,1,3.81,1.1,11.17,11.17,0,0,1,3.513,2.059C151.969,232.531,151.982,232.519,151.973,232.512Z" transform="translate(-120.416 -228.456)" fill="#fff"/>
    <path id="Path_350" data-name="Path 350" d="M221.186,304.834a14.931,14.931,0,0,0-.043-1.578c0-.027-.032-.026-.034,0-.024.471-.047.934-.077,1.4a14.311,14.311,0,0,1-.237,1.5c-.157.918-.321,1.813-.545,2.708a31.516,31.516,0,0,1-1.855,5.322,12.476,12.476,0,0,1-2.843,4.174,7.074,7.074,0,0,1-1.881,1.172,8.354,8.354,0,0,1-2.192.621c-.043,0-.043.085,0,.085a5.227,5.227,0,0,0,1-.034,6.945,6.945,0,0,0,1.015-.285,10.077,10.077,0,0,0,2.014-1.031,9.959,9.959,0,0,0,3.429-3.906,20.343,20.343,0,0,0,1.91-5.559,22.283,22.283,0,0,0,.352-3.032C221.233,305.879,221.17,305.359,221.186,304.834Z" transform="translate(-188.379 -295.043)" fill="#fff"/>
    <path id="Path_351" data-name="Path 351" d="M84.042,333.977a18.7,18.7,0,0,1-5.516-1.28,9.13,9.13,0,0,1-2.2-1.395,9.706,9.706,0,0,1-1.683-2.1,23.567,23.567,0,0,1-2.473-5.029,20.366,20.366,0,0,1-.74-2.791c-.191-.966-.239-1.957-.42-2.921a.033.033,0,0,0-.064,0,11.944,11.944,0,0,0,.1,2.8,24.53,24.53,0,0,0,.559,2.958,20.705,20.705,0,0,0,2.248,5.566,7.746,7.746,0,0,0,4.154,3.684,14.8,14.8,0,0,0,2.918.589,27.827,27.827,0,0,0,3.114.036C84.1,334.083,84.1,333.984,84.042,333.977Z" transform="translate(-63.165 -308.576)" fill="#fff"/>
    <path id="Path_352" data-name="Path 352" d="M137.52,373.12l.347.154.189.085.224.11.261.13.287.162c.206.11.421.253.655.4l.358.256c.122.09.244.192.373.293s.251.219.383.336.253.25.383.383l.184.219.094.11.087.118c.058.08.117.161.177.242l.161.262a2.447,2.447,0,0,1,.153.277c.051.1.1.193.139.293l.122.309.095.329c.008.027.016.055.023.082l.016.085c.01.057.02.11.031.172a1.523,1.523,0,0,1,.027.174l.013.177.013.179v.439c0,.03-.008.062-.011.094a5.046,5.046,0,0,1-1.262,2.751,9.13,9.13,0,0,1-1.138,1.1,11.841,11.841,0,0,1-1.309.909,16.939,16.939,0,0,1-2.926,1.35,23.48,23.48,0,0,1-3.086.849,27.086,27.086,0,0,1-3.055.438,27.4,27.4,0,0,1-2.878.11c-.229,0-.454,0-.677-.01s-.436-.012-.655-.026c-.436-.023-.845-.055-1.243-.092-.794-.071-1.518-.175-2.155-.285s-1.188-.231-1.636-.34-.8-.21-1.04-.278l-.363-.11.374.066.449.073c.178.024.381.058.609.089.457.065,1.012.128,1.65.187s1.358.1,2.144.126c.392.011.8.016,1.224.012h.646c.218,0,.436-.013.663-.021.9-.035,1.842-.11,2.814-.219a29.658,29.658,0,0,0,2.969-.513,25.288,25.288,0,0,0,2.976-.844c.244-.085.485-.18.727-.272l.357-.148.178-.074.176-.08a14.838,14.838,0,0,0,1.363-.689l.316-.2.16-.1.156-.1c.1-.069.209-.135.309-.207l.3-.219a8.418,8.418,0,0,0,1.065-.966,5.773,5.773,0,0,0,.788-1.116l.074-.148a1.083,1.083,0,0,0,.069-.149c.039-.1.083-.2.118-.3s.06-.206.089-.308.037-.2.058-.3a.685.685,0,0,1,.013-.076l.007-.084c0-.057.009-.11.012-.169l.007-.083v-.373a1.4,1.4,0,0,0-.017-.15c-.005-.05-.012-.1-.019-.149l-.009-.076a.345.345,0,0,0-.016-.072c-.021-.1-.043-.2-.064-.29s-.06-.187-.091-.279a2.628,2.628,0,0,0-.109-.27,2.258,2.258,0,0,0-.13-.256,6.453,6.453,0,0,0-1.267-1.661,10.7,10.7,0,0,0-1.273-1.046l-.267-.187-.241-.157-.208-.135-.178-.11Z" transform="translate(-105.911 -357.27)" fill="#fff"/>
    <path id="Path_353" data-name="Path 353" d="M94.735,473.349l-.092-.029c-.007,0-.009.008,0,.009l.093.029S94.74,473.351,94.735,473.349Z" transform="translate(-84.313 -446.491)" fill="#4d4d4d"/>
    <path id="Path_354" data-name="Path 354" d="M44.048,382.668a4.867,4.867,0,0,1-.465-.2c-.242-.11-.508-.145-.744-.278a10.2,10.2,0,0,0-.975-.433,8.214,8.214,0,0,1-2.138-1.272,4.927,4.927,0,0,1-1.891-4.062,6.276,6.276,0,0,1,2.26-4.188,7.743,7.743,0,0,1,1.785-1.156c-.044-.08-.085-.164-.123-.244a10.954,10.954,0,0,0-2.031,1.1,6.223,6.223,0,0,0-2.678,4.292,5.25,5.25,0,0,0,1.816,4.594,7.683,7.683,0,0,0,2.19,1.3,8.333,8.333,0,0,0,1.455.41c.49.114,1.026.117,1.508.251C44.079,382.791,44.112,382.682,44.048,382.668Z" transform="translate(-32.961 -355.231)" fill="#fff"/>
    <path id="Path_355" data-name="Path 355" d="M9.908,313.47a3.778,3.778,0,0,0-2.17-2.082,33.874,33.874,0,0,0-3.253-1.205c-1.934-.7-3.927-1.972-3.7-4.316a2.965,2.965,0,0,1,1.746-2.347,2.793,2.793,0,0,1,2.892.271,2.793,2.793,0,0,1,1.191,2.273.028.028,0,1,0,.057,0A3.41,3.41,0,0,0,5.9,303.73a3.076,3.076,0,0,0-2.371-1.057A3.62,3.62,0,0,0,0,306.425c-.012,2.176,1.777,3.6,3.583,4.414,1.052.474,2.182.752,3.251,1.186.908.368,2.029.917,2.23,1.98a1.053,1.053,0,0,1-.385,1.073.945.945,0,0,1-.609.219.958.958,0,0,1-.9-.645.177.177,0,0,1-.011.039,1.044,1.044,0,0,0,.527,1.018,1.867,1.867,0,0,0,1.233.045A1.794,1.794,0,0,0,9.908,313.47Z" transform="translate(0.001 -294.541)" fill="#fff"/>
    <path id="Path_356" data-name="Path 356" d="M113.7,247.389a5.079,5.079,0,0,0-2.629-2.33,14.041,14.041,0,0,0-3.512-1.205,19.244,19.244,0,0,0-7.384.045c-2.073.385-5.011.9-5.867,3.555-.406,1.252-.153,3.08.95,3.667a2.2,2.2,0,0,1-.345-.462,3.482,3.482,0,0,1-.362-1.1,2.64,2.64,0,0,1,.141-1.6,4.417,4.417,0,0,1,2.65-2.3,17.784,17.784,0,0,1,3.546-.822,21.765,21.765,0,0,1,3.59-.252,14.943,14.943,0,0,1,6.96,1.753,3.3,3.3,0,0,1,2,2.923,2.361,2.361,0,0,1-.1.692,2.883,2.883,0,0,1-.3.73,3.358,3.358,0,0,1-1.357,1.339C113.475,251.928,114.524,249.306,113.7,247.389Z" transform="translate(-83.86 -241.866)" fill="#fff"/>
  </g>
  <path id="Path_357" data-name="Path 357" d="M150.228,116.283a3.986,3.986,0,0,1-1.032,4.948,23.794,23.794,0,0,1-3.212,2.584,19.79,19.79,0,0,0,6.229-1.765,6.752,6.752,0,0,0,2.991-3.1s1.245-.775.387-4.3-4.816-5.559-4.816-5.559c-1.887-1.393-3.66-2.987-2.974-6.893-2.739,3.49-2.542,6.734.023,10.637S149.634,115.157,150.228,116.283Z" transform="translate(-129.916 -91.002)" fill="#fff"/>
  <g id="Group_38" data-name="Group 38" transform="translate(11.313)">
    <g id="Group_36" data-name="Group 36" transform="translate(2.725 6.094)">
      <path id="Path_358" data-name="Path 358" d="M134.924,73.451a17.754,17.754,0,0,0-2.523-3.076,10.013,10.013,0,0,1-1.855-10.6,11.205,11.205,0,0,1,2.012-2.951,12.922,12.922,0,0,1,1.12-1.055c.082-.068-.023-.187-.109-.141a9.673,9.673,0,0,0-4,12.425,12.111,12.111,0,0,0,2.169,3.221,20,20,0,0,1,2.521,3.1,4.523,4.523,0,0,1,.457,3.7,6.9,6.9,0,0,1-2.631,3.184c-.429.329-.843.669-1.288.974-.011.008,0,.026.011.019a14.578,14.578,0,0,0,3.122-2.27,7.1,7.1,0,0,0,1.758-3.009A5,5,0,0,0,134.924,73.451Z" transform="translate(-128.677 -55.616)" fill="#fff"/>
      <path id="Path_359" data-name="Path 359" d="M175.126,146.662a7.426,7.426,0,0,0-3.262-4.506c-.846-.589-1.746-1.1-2.561-1.731a6.7,6.7,0,0,1-2.083-2.28c-.013-.03-.064-.009-.053.022a6.755,6.755,0,0,0,.452,1.1,6.139,6.139,0,0,0,.742.977,13.46,13.46,0,0,0,2.126,1.77,8.889,8.889,0,0,1,3.581,4.151,6.6,6.6,0,0,1-.34,5.014,7.153,7.153,0,0,1-1.452,1.94,9.693,9.693,0,0,1-2.188,1.306.11.11,0,0,0,.055.206,5.147,5.147,0,0,0,2.229-1,6.524,6.524,0,0,0,2.756-6.966Z" transform="translate(-162.967 -129.089)" fill="#fff"/>
    </g>
    <g id="Group_37" data-name="Group 37">
      <path id="Path_360" data-name="Path 360" d="M150.338,21.468c-1.654-2.082-4.425-2.948-5.987-5.112a6.061,6.061,0,0,1,.453-7.307,18.41,18.41,0,0,1,3.726-2.878,4.953,4.953,0,0,0,2.3-3.3A2.6,2.6,0,0,0,149.292.1a1.889,1.889,0,0,0-2.355,1.132c-.025.091.116.157.158.066a1.708,1.708,0,0,1,3.071.031c.821,1.343-.109,2.921-1.117,3.85A37.42,37.42,0,0,1,145.4,7.551a7.879,7.879,0,0,0-2.4,2.8,6.408,6.408,0,0,0,.824,7.2c1.7,2.019,4.456,2.895,5.956,5.108,1.278,1.886.609,3.978-.37,5.807-1.073,2.008-3.335,3.068-5.214,4.177a.034.034,0,0,0,.026.062,13.846,13.846,0,0,0,3.566-1.681,9.507,9.507,0,0,0,2.824-2.565,6.492,6.492,0,0,0,1.056-3.551A5.574,5.574,0,0,0,150.338,21.468Z" transform="translate(-138.05 -0.001)" fill="#46230f"/>
      <path id="Path_361" data-name="Path 361" d="M180.084,201.026a4.527,4.527,0,0,0-1.152-2.282,5.469,5.469,0,0,0-.941-.821,5.639,5.639,0,0,0-.56-.344,1.672,1.672,0,0,0-.671-.169c-.021,0-.043.022-.023.039.257.219.515.438.78.657a3.085,3.085,0,0,1,.741.825,6.881,6.881,0,0,1,.837,2.091,5.713,5.713,0,0,1-1.221,4.476c-.075.1.067.219.161.162A4.549,4.549,0,0,0,180.084,201.026Z" transform="translate(-168.762 -175.781)" fill="#46230f"/>
      <path id="Path_362" data-name="Path 362" d="M121.055,278.356c-.04-.053-.143-.054-.16.019-.444,1.809-2.534,2.3-4.261,2.661a21.78,21.78,0,0,1-6.121.237c-1.81-.141-3.882-.335-5.26-1.526a2.871,2.871,0,0,1-1.032-1.909,2.377,2.377,0,0,1,1.106-1.911c.022-.018,0-.043-.025-.039a1.993,1.993,0,0,0-1.459,1.442,2.632,2.632,0,0,0,.363,2.372c1.125,1.734,3.612,2.121,5.611,2.333a25.969,25.969,0,0,0,7.412-.219,8.1,8.1,0,0,0,3.2-1.171A1.626,1.626,0,0,0,121.055,278.356Z" transform="translate(-103.701 -245.659)" fill="#356d5c"/>
    </g>
  </g>
</svg>
