<svg width="44" height="43" viewBox="0 0 44 43" fill="none" xmlns="http://www.w3.org/2000/svg">
<path d="M21.9888 0.164062C11.0988 0.164062 11.7788 4.88606 11.7788 4.88606L11.7908 9.77806H22.1818V11.2471H7.6638C7.6638 11.2471 0.695801 10.4571 0.695801 21.4471C0.695801 32.4371 6.7778 32.0471 6.7778 32.0471H10.4078V26.9471C10.3636 26.1451 10.4874 25.3428 10.7712 24.5914C11.0549 23.84 11.4925 23.1562 12.0558 22.5837C12.6191 22.0112 13.2957 21.5626 14.0424 21.2666C14.789 20.9707 15.5892 20.8339 16.3918 20.8651H26.6988C26.6988 20.8651 32.4898 20.9581 32.4898 15.2651V5.85606C32.4898 5.85606 33.3678 0.164062 21.9888 0.164062ZM16.2578 3.45406C16.689 3.4551 17.1066 3.60555 17.4394 3.8798C17.7722 4.15405 17.9997 4.53516 18.0831 4.95825C18.1665 5.38134 18.1007 5.82027 17.897 6.20033C17.6932 6.58038 17.364 6.87808 16.9654 7.04274C16.5669 7.2074 16.1236 7.22886 15.711 7.10345C15.2984 6.97805 14.942 6.71353 14.7024 6.35493C14.4629 5.99632 14.3551 5.5658 14.3973 5.13663C14.4394 4.70746 14.629 4.30617 14.9338 4.00106C15.1075 3.82712 15.314 3.68924 15.5412 3.59537C15.7684 3.50149 16.012 3.45347 16.2578 3.45406Z" fill="url(#paint0_linear_37_641)"/>
<path d="M22.2969 42.8358C33.1869 42.8358 32.5069 38.1138 32.5069 38.1138L32.4949 33.2218H22.1069V31.7528H36.6219C36.6219 31.7528 43.5899 32.5428 43.5899 21.5528C43.5899 10.5628 37.5069 10.9568 37.5069 10.9568H33.8779V16.0568C33.9221 16.859 33.7983 17.6615 33.5144 18.413C33.2305 19.1645 32.7928 19.8484 32.2292 20.421C31.6657 20.9935 30.9889 21.4421 30.242 21.7379C29.4951 22.0337 28.6946 22.1703 27.8919 22.1388H17.5919C17.5919 22.1388 11.8009 22.0458 11.8009 27.7388V37.1468C11.8009 37.1468 10.9169 42.8358 22.2969 42.8358ZM28.0279 39.5458C27.5961 39.5452 27.1778 39.3949 26.8444 39.1206C26.5109 38.8462 26.2829 38.4648 26.1991 38.0412C26.1152 37.6176 26.1809 37.178 26.3848 36.7974C26.5886 36.4167 26.9181 36.1185 27.3172 35.9535C27.7163 35.7885 28.1602 35.7669 28.5733 35.8925C28.9865 36.018 29.3434 36.2829 29.5832 36.642C29.823 37.0011 29.9309 37.4322 29.8886 37.862C29.8462 38.2917 29.6562 38.6935 29.3509 38.9988C29.1772 39.1726 28.9709 39.3103 28.7439 39.4042C28.5169 39.4981 28.2736 39.5462 28.0279 39.5458Z" fill="url(#paint1_linear_37_641)"/>
<defs>
<linearGradient id="paint0_linear_37_641" x1="4.83106" y1="3.89457" x2="26.0664" y2="25.1435" gradientUnits="userSpaceOnUse">
<stop stop-color="#387EB8"/>
<stop offset="1" stop-color="#366994"/>
</linearGradient>
<linearGradient id="paint1_linear_37_641" x1="17.8597" y1="17.4269" x2="40.6838" y2="39.2109" gradientUnits="userSpaceOnUse">
<stop stop-color="#FFE052"/>
<stop offset="1" stop-color="#FFC331"/>
</linearGradient>
</defs>
</svg>
