<svg width="167" height="32" viewBox="0 0 167 32" fill="none" xmlns="http://www.w3.org/2000/svg">
<path d="M53.5929 13.239H37.9619L39.0645 15.1325L41.3337 19.0311H47.4645C46.8616 20.9642 45.69 22.6442 44.1518 23.8751C43.4479 24.4409 42.6652 24.9099 41.8259 25.2673L37.098 17.1376L34.8288 13.2415L33.8812 11.6111L32.2568 8.82182V8.81934L31.831 8.08479L30.5906 5.9556L28.8948 3.03974L27.1991 5.9556L25.4934 8.88386L23.906 11.6111V11.6136L22.9584 13.244L22.1585 14.6188V14.6213L20.5071 17.4577L18.9196 20.1875L17.2607 17.3287L14.8808 13.239L10.6401 5.95063H13.8151L18.0533 13.2366L18.8482 14.6014L19.6432 13.2366L22.2496 8.75482L20.6154 5.95063L17.2731 0.208252H0.5L3.83984 5.95063L8.07802 13.2366L13.8594 23.1728L15.5158 26.0241L18.8802 31.8062L22.2816 25.9621L23.8346 23.2919L23.8666 23.2348V23.2324L27.268 17.3882L27.9989 16.1326L28.8554 14.661L30.4798 17.4528L32.8229 21.4804L35.2619 25.6718L38.9242 31.9675C41.0285 31.8435 43.0245 31.305 44.8286 30.429C45.6457 30.0319 46.4259 29.5703 47.1569 29.0418C50.418 26.6991 52.7635 23.148 53.5462 19.0311C53.7332 18.0483 53.8292 17.0359 53.8292 16.001C53.8292 15.0556 53.7504 14.1324 53.5929 13.239Z" fill="url(#paint0_linear_1029_1226)"/>
<path d="M30.8269 23.508L29.8744 21.8701L29.8695 21.8627C29.5052 21.3564 29.1877 20.813 28.9244 20.2397V20.2373L28.8924 20.1802L25.5353 25.9499L25.491 26.0268L26.5567 27.8557L28.9662 32H35.7665L35.668 31.8337L30.8269 23.508Z" fill="#06C9FF"/>
<path d="M33.8246 6.11958L34.1642 6.70772C35.097 6.31811 36.0987 6.06995 37.1497 5.98558C37.4179 5.96324 37.6887 5.95332 37.9643 5.95332C40.7627 5.95332 43.2928 7.11718 45.1043 8.99077L48.0897 5.95332L49.2588 4.76464C46.9502 2.40217 43.9155 0.764327 40.524 0.210934C40.5215 0.208453 40.519 0.208453 40.5141 0.208453C39.6822 0.0694843 38.8307 0 37.9619 0C37.765 0 37.5705 0.00496316 37.3761 0.0124079C36.7067 0.0347422 36.0495 0.101745 35.4047 0.208453C33.9107 0.451648 32.4832 0.908259 31.1616 1.54354L33.7261 5.95332L33.8246 6.11958Z" fill="#06C9FF"/>
<path d="M63.9379 24.6736L59.2449 9.28637L62.6011 9.31482L65.6017 19.1701L68.6451 9.31482H71.532L74.5611 19.1701L77.5759 9.31482H80.9321L76.2391 24.6736H73.5656L70.0814 14.1073L66.6114 24.6736H63.9379Z" fill="white"/>
<path d="M86.9323 25.1003C85.8231 25.1003 84.8845 24.8917 84.1165 24.4745C83.3486 24.0479 82.7655 23.4838 82.3673 22.7822C81.9786 22.0806 81.7843 21.308 81.7843 20.4642C81.7843 19.7247 81.9075 19.061 82.154 18.4732C82.4005 17.8759 82.7798 17.364 83.2917 16.9373C83.8037 16.5012 84.4673 16.1457 85.2827 15.8708C85.8989 15.6717 86.6195 15.4915 87.4443 15.3304C88.2786 15.1692 89.1793 15.0222 90.1463 14.8895C91.1228 14.7473 92.142 14.5956 93.2038 14.4344L91.9808 15.1313C91.9903 14.0694 91.7533 13.2873 91.2698 12.7848C90.7862 12.2823 89.9709 12.0311 88.8237 12.0311C88.1316 12.0311 87.4632 12.1922 86.8186 12.5146C86.1739 12.8369 85.7235 13.3915 85.4675 14.1784L82.3389 13.1972C82.7181 11.8983 83.4387 10.8554 84.5005 10.0685C85.5718 9.28163 87.0129 8.88818 88.8237 8.88818C90.189 8.88818 91.3883 9.11098 92.4217 9.55658C93.4646 10.0022 94.2372 10.7322 94.7397 11.7466C95.0147 12.287 95.1806 12.8417 95.2375 13.4105C95.2943 13.9699 95.3228 14.5814 95.3228 15.245V24.6736H92.3221V21.3459L92.8199 21.8863C92.1278 22.9955 91.3172 23.8109 90.3881 24.3323C89.4684 24.8443 88.3165 25.1003 86.9323 25.1003ZM87.6149 22.3698C88.3924 22.3698 89.056 22.2323 89.6059 21.9574C90.1558 21.6825 90.5919 21.3459 90.9142 20.9477C91.2461 20.5495 91.4689 20.175 91.5826 19.8242C91.7628 19.3881 91.8623 18.8904 91.8813 18.331C91.9097 17.7622 91.9239 17.3023 91.9239 16.9516L92.9763 17.2644C91.9429 17.4256 91.0564 17.5678 90.3169 17.6911C89.5774 17.8143 88.9422 17.9328 88.4113 18.0466C87.8804 18.1509 87.4111 18.2694 87.0034 18.4021C86.6052 18.5443 86.2687 18.7102 85.9937 18.8999C85.7188 19.0895 85.5055 19.3075 85.3538 19.554C85.2116 19.8005 85.1405 20.0897 85.1405 20.4215C85.1405 20.8007 85.2353 21.1373 85.4249 21.4312C85.6145 21.7156 85.8894 21.9432 86.2497 22.1138C86.6195 22.2845 87.0745 22.3698 87.6149 22.3698Z" fill="white"/>
<path d="M106.406 25.1003C104.908 25.1003 103.652 24.7447 102.637 24.0337C101.623 23.3226 100.86 22.3556 100.348 21.1326C99.8358 19.9001 99.5798 18.5206 99.5798 16.9942C99.5798 15.4489 99.8358 14.0647 100.348 12.8417C100.86 11.6186 101.609 10.6563 102.595 9.95477C103.59 9.24371 104.818 8.88818 106.278 8.88818C107.728 8.88818 108.985 9.24371 110.047 9.95477C111.118 10.6563 111.947 11.6186 112.535 12.8417C113.123 14.0552 113.417 15.4394 113.417 16.9942C113.417 18.5301 113.128 19.9096 112.549 21.1326C111.971 22.3556 111.156 23.3226 110.103 24.0337C109.051 24.7447 107.819 25.1003 106.406 25.1003ZM98.9967 31.4998V9.31482H102.026V20.0944H102.452V31.4998H98.9967ZM105.88 22.0285C106.771 22.0285 107.506 21.8057 108.084 21.3601C108.662 20.9145 109.089 20.3125 109.364 19.554C109.648 18.7861 109.791 17.9328 109.791 16.9942C109.791 16.0651 109.648 15.2213 109.364 14.4629C109.079 13.6949 108.639 13.0882 108.041 12.6426C107.444 12.1875 106.686 11.9599 105.766 11.9599C104.894 11.9599 104.183 12.1733 103.633 12.5999C103.083 13.017 102.675 13.6049 102.41 14.3633C102.154 15.1123 102.026 15.9893 102.026 16.9942C102.026 17.9897 102.154 18.8667 102.41 19.6251C102.675 20.3836 103.088 20.9761 103.647 21.4028C104.216 21.8199 104.96 22.0285 105.88 22.0285Z" fill="white"/>
<path d="M123.932 25.1003C122.434 25.1003 121.178 24.7447 120.164 24.0337C119.149 23.3226 118.386 22.3556 117.874 21.1326C117.362 19.9001 117.106 18.5206 117.106 16.9942C117.106 15.4489 117.362 14.0647 117.874 12.8417C118.386 11.6186 119.135 10.6563 120.121 9.95477C121.117 9.24371 122.344 8.88818 123.804 8.88818C125.255 8.88818 126.511 9.24371 127.573 9.95477C128.644 10.6563 129.474 11.6186 130.062 12.8417C130.649 14.0552 130.943 15.4394 130.943 16.9942C130.943 18.5301 130.654 19.9096 130.076 21.1326C129.498 22.3556 128.682 23.3226 127.63 24.0337C126.577 24.7447 125.345 25.1003 123.932 25.1003ZM116.523 31.4998V9.31482H119.552V20.0944H119.979V31.4998H116.523ZM123.406 22.0285C124.297 22.0285 125.032 21.8057 125.61 21.3601C126.189 20.9145 126.615 20.3125 126.89 19.554C127.175 18.7861 127.317 17.9328 127.317 16.9942C127.317 16.0651 127.175 15.2213 126.89 14.4629C126.606 13.6949 126.165 13.0882 125.568 12.6426C124.97 12.1875 124.212 11.9599 123.292 11.9599C122.42 11.9599 121.709 12.1733 121.159 12.5999C120.609 13.017 120.202 13.6049 119.936 14.3633C119.68 15.1123 119.552 15.9893 119.552 16.9942C119.552 17.9897 119.68 18.8667 119.936 19.6251C120.202 20.3836 120.614 20.9761 121.173 21.4028C121.742 21.8199 122.487 22.0285 123.406 22.0285Z" fill="white"/>
<path d="M140.534 31.9264C139.681 31.9264 138.861 31.7937 138.074 31.5282C137.297 31.2627 136.595 30.8788 135.969 30.3763C135.344 29.8833 134.832 29.286 134.434 28.5844L137.591 27.0201C137.885 27.5795 138.297 27.9919 138.828 28.2574C139.368 28.5323 139.942 28.6698 140.549 28.6698C141.26 28.6698 141.895 28.5418 142.454 28.2858C143.014 28.0393 143.445 27.6695 143.748 27.1765C144.061 26.693 144.208 26.0863 144.189 25.3562V20.9904H144.616V9.31482H147.617V25.4131C147.617 25.8018 147.598 26.1716 147.56 26.5224C147.531 26.8826 147.479 27.2334 147.403 27.5747C147.176 28.5702 146.74 29.3856 146.095 30.0208C145.45 30.6655 144.649 31.1442 143.691 31.4571C142.743 31.77 141.691 31.9264 140.534 31.9264ZM140.236 25.1003C138.823 25.1003 137.591 24.7447 136.538 24.0337C135.486 23.3226 134.671 22.3556 134.092 21.1326C133.514 19.9096 133.225 18.5301 133.225 16.9942C133.225 15.4394 133.514 14.0552 134.092 12.8417C134.68 11.6186 135.51 10.6563 136.581 9.95477C137.652 9.24371 138.913 8.88818 140.364 8.88818C141.824 8.88818 143.047 9.24371 144.033 9.95477C145.028 10.6563 145.782 11.6186 146.294 12.8417C146.806 14.0647 147.062 15.4489 147.062 16.9942C147.062 18.5206 146.806 19.9001 146.294 21.1326C145.782 22.3556 145.019 23.3226 144.004 24.0337C142.99 24.7447 141.734 25.1003 140.236 25.1003ZM140.762 22.0285C141.682 22.0285 142.421 21.8199 142.98 21.4028C143.549 20.9761 143.962 20.3836 144.218 19.6251C144.483 18.8667 144.616 17.9897 144.616 16.9942C144.616 15.9893 144.483 15.1123 144.218 14.3633C143.962 13.6049 143.559 13.017 143.009 12.5999C142.459 12.1733 141.748 11.9599 140.876 11.9599C139.956 11.9599 139.198 12.1875 138.6 12.6426C138.003 13.0882 137.562 13.6949 137.278 14.4629C136.993 15.2213 136.851 16.0651 136.851 16.9942C136.851 17.9328 136.989 18.7861 137.264 19.554C137.548 20.3125 137.979 20.9145 138.558 21.3601C139.136 21.8057 139.871 22.0285 140.762 22.0285Z" fill="white"/>
<path d="M158.388 25.1003C156.852 25.1003 155.51 24.7542 154.363 24.0621C153.216 23.37 152.325 22.4172 151.69 21.2037C151.064 19.9807 150.751 18.5775 150.751 16.9942C150.751 15.3825 151.073 13.9699 151.718 12.7563C152.363 11.5428 153.259 10.5947 154.406 9.9121C155.553 9.22949 156.88 8.88818 158.388 8.88818C159.933 8.88818 161.28 9.23423 162.427 9.92632C163.574 10.6184 164.465 11.576 165.1 12.799C165.735 14.0125 166.053 15.4109 166.053 16.9942C166.053 18.587 165.731 19.9949 165.086 21.2179C164.451 22.4314 163.56 23.3842 162.412 24.0763C161.265 24.759 159.924 25.1003 158.388 25.1003ZM158.388 21.8863C159.753 21.8863 160.768 21.4312 161.431 20.5211C162.095 19.6109 162.427 18.4353 162.427 16.9942C162.427 15.5057 162.09 14.3207 161.417 13.4389C160.744 12.5478 159.734 12.1022 158.388 12.1022C157.468 12.1022 156.71 12.3107 156.113 12.7279C155.525 13.1356 155.089 13.7091 154.804 14.4486C154.52 15.1787 154.378 16.0272 154.378 16.9942C154.378 18.4827 154.714 19.6725 155.387 20.5637C156.07 21.4454 157.07 21.8863 158.388 21.8863Z" fill="white"/>
<defs>
<linearGradient id="paint0_linear_1029_1226" x1="27.1647" y1="32.1838" x2="27.1647" y2="-3.00078" gradientUnits="userSpaceOnUse">
<stop stop-color="#1925FF"/>
<stop offset="1" stop-color="#1925FF"/>
</linearGradient>
</defs>
</svg>
