<svg width="40" height="40" viewBox="0 0 40 40" fill="none" xmlns="http://www.w3.org/2000/svg">
<path d="M11.6598 24.802L9.4126 27.0492L12.9508 30.5875L15.198 28.3403C13.9233 27.3966 12.6567 26.1504 11.6598 24.802Z" fill="#35A5AC"/>
<path d="M-0.00341797 34.6896L6.8663 27.8199L12.1728 33.1264L5.30311 39.9961L-0.00341797 34.6896Z" fill="#35A5AC"/>
<path d="M18.3116 9.30896C17.1723 10.7969 16.4941 12.6557 16.4941 14.6701C16.4941 19.5422 20.4578 23.5059 25.3299 23.5059C29.8047 23.5059 33.5128 20.1621 34.0879 15.842H24.8445L18.3116 9.30896Z" fill="#35A5AC"/>
<path d="M34.088 13.4981C33.8802 11.9369 33.2631 10.5034 32.3485 9.30884L28.1592 13.4981H34.088Z" fill="#35A5AC"/>
<path d="M30.691 7.65165C29.2031 6.51235 27.3443 5.83423 25.3298 5.83423C23.3154 5.83423 21.4566 6.51235 19.9688 7.65165L25.3298 13.0128L30.691 7.65165Z" fill="#35A5AC"/>
<path d="M25.3299 0C17.2279 0 10.6599 6.56797 10.6599 14.67C10.6599 22.772 17.2279 29.34 25.3299 29.34C33.4319 29.34 39.9999 22.772 39.9999 14.67C39.9999 6.56797 33.4319 0 25.3299 0ZM25.3299 25.8495C19.1655 25.8495 14.1504 20.8345 14.1504 14.67C14.1504 8.50555 19.1655 3.49039 25.3299 3.49039C31.4944 3.49039 36.5095 8.50547 36.5095 14.67C36.5094 20.8345 31.4944 25.8495 25.3299 25.8495Z" fill="#35A5AC"/>
</svg>
