<svg xmlns="http://www.w3.org/2000/svg" width="28.584" height="28.584" viewBox="0 0 28.584 28.584">
  <g id="Group_2533" data-name="Group 2533" transform="translate(-14.5 -14.5)">
    <path id="Path_1310" data-name="Path 1310" d="M17.594,17.594A10.559,10.559,0,0,1,33.256,31.718l2.517,2.517-1.538,1.573-2.517-2.552A10.559,10.559,0,0,1,17.594,17.594ZM23.572,30.6a.7.7,0,0,1-.35,1.363,7.71,7.71,0,0,1-1.748-.734,7.129,7.129,0,0,1-2.587-9.754.69.69,0,0,1,1.189.7,5.747,5.747,0,0,0,2.1,7.831A5.431,5.431,0,0,0,23.572,30.6Zm1.294.385a.676.676,0,0,1,.979,0,.717.717,0,0,1,0,1.014.744.744,0,0,1-.979,0A.717.717,0,0,1,24.866,30.984Zm17.48,8.041a2.348,2.348,0,1,1-3.321,3.321l-5.209-5.174,3.356-3.356Zm-6.573-1.853,3.566,3.566-.524.524-3.566-3.531C34.795,37.277,35.319,36.717,35.774,37.172Zm3.566,4.65.524-.524.28.245c.454.454-.07.979-.524.524ZM19.027,19.027a8.529,8.529,0,1,1,0,12.061A8.546,8.546,0,0,1,19.027,19.027Z" fill="#fff" fill-rule="evenodd"/>
  </g>
</svg>
