<svg width="24" height="24" viewBox="0 0 24 24" fill="none" xmlns="http://www.w3.org/2000/svg">
<path d="M11.9861 0.748017C11.9319 0.750564 11.8789 0.764844 11.8308 0.789843C11.8308 0.789843 7.37732 3.01126 1.82374 3.75174C1.73354 3.76419 1.65095 3.80904 1.59139 3.87791C1.53182 3.94678 1.49934 4.03496 1.50001 4.12601V11.9981C1.50001 16.8206 4.14025 19.6812 6.74342 21.272C9.34657 22.8629 11.9443 23.2459 11.9443 23.2459C11.9812 23.2514 12.0188 23.2514 12.0557 23.2459C12.0557 23.2459 14.6534 22.8629 17.2566 21.272C19.8598 19.6812 22.5 16.8206 22.5 11.9981V4.12601C22.5007 4.03496 22.4682 3.94678 22.4086 3.87791C22.3491 3.80904 22.2665 3.76419 22.1763 3.75174C16.6227 3.01126 12.1692 0.789843 12.1692 0.789843C12.1127 0.760601 12.0497 0.746198 11.9861 0.748017Z" fill="#FF6B6B"/>
<path d="M12 5.24951C8.27652 5.24951 5.25146 8.27454 5.25146 11.998C5.25146 15.7215 8.27652 18.7502 12 18.7502C15.7235 18.7502 18.7485 15.7215 18.7485 11.998C18.7485 8.27454 15.7235 5.24951 12 5.24951Z" fill="#DBE9EE"/>
<path d="M10.8376 8.25026C10.7449 8.25937 10.6589 8.30266 10.5964 8.37171C10.5338 8.44076 10.4992 8.53062 10.4993 8.62379V10.501H8.62573C8.52628 10.5006 8.43075 10.5398 8.36015 10.6098C8.28955 10.6799 8.24967 10.7751 8.24927 10.8745V13.1252C8.24967 13.2247 8.28955 13.3199 8.36015 13.39C8.43075 13.46 8.52628 13.4992 8.62573 13.4988H10.4993V15.376C10.4995 15.4253 10.5094 15.4741 10.5285 15.5195C10.5475 15.565 10.5754 15.6062 10.6104 15.6409C10.6454 15.6756 10.687 15.7031 10.7326 15.7217C10.7783 15.7404 10.8272 15.7498 10.8765 15.7495H13.1235C13.223 15.7499 13.3185 15.7107 13.3891 15.6407C13.4597 15.5706 13.4996 15.4754 13.5 15.376V13.4988H15.3743C15.4737 13.4992 15.5693 13.46 15.6398 13.39C15.7104 13.3199 15.7503 13.2247 15.7507 13.1252V10.8745C15.7503 10.7751 15.7104 10.6799 15.6398 10.6098C15.5693 10.5398 15.4737 10.5006 15.3743 10.501H13.5V8.62379C13.4996 8.52434 13.4597 8.42909 13.3891 8.35904C13.3185 8.28899 13.223 8.24988 13.1235 8.25026H10.8765C10.8635 8.24959 10.8506 8.24959 10.8376 8.25026Z" fill="#FF6B6B"/>
</svg>
