<svg width="80" height="80" viewBox="0 0 80 80" fill="none" xmlns="http://www.w3.org/2000/svg">
<g clip-path="url(#clip0_1429_8852)">
<path d="M77.5812 20.2875C75.4812 12.5578 67.4422 4.51719 59.7109 2.41719C54.9703 1.23594 48.6203 0.01875 40 0C31.3797 0.0203125 25.0297 1.2375 20.2891 2.41875C12.5594 4.51719 4.51875 12.5578 2.41875 20.2875C1.2375 25.0281 0.0203125 31.3781 0 40C0.021875 48.6203 1.23906 54.9703 2.42031 59.7109C4.52031 67.4422 12.5609 75.4812 20.2906 77.5812C25.0312 78.7625 31.3844 79.9797 40.0016 80.0016C48.6203 79.9797 54.9719 78.7625 59.7125 77.5812C67.4437 75.4812 75.4828 67.4422 77.5828 59.7109C78.7641 54.9703 79.9813 48.6172 80.0016 40C79.9797 31.3781 78.7625 25.0281 77.5812 20.2875ZM53.8312 52.6906C52.1802 52.6872 50.5469 52.3502 49.0293 51.6999C47.5118 51.0496 46.1412 50.0993 45 48.9062L31.3344 34.5312C30.659 33.824 29.8475 33.2607 28.9488 32.8751C28.0501 32.4895 27.0826 32.2896 26.1047 32.2875C24.0604 32.2875 22.0999 33.0996 20.6544 34.5451C19.2089 35.9906 18.3969 37.9511 18.3969 39.9953C18.3969 42.0396 19.2089 44.0001 20.6544 45.4456C22.0999 46.8911 24.0604 47.7031 26.1047 47.7031H29.6484L27.7406 45.7953C27.2826 45.3261 27.028 44.6954 27.0319 44.0397C27.0358 43.3841 27.2979 42.7564 27.7614 42.2926C28.2249 41.8289 28.8525 41.5665 29.5081 41.5623C30.1638 41.5582 30.7947 41.8125 31.2641 42.2703L37.1063 48.125C37.5719 48.5934 37.8332 49.227 37.8332 49.8875C37.8332 50.548 37.5719 51.1816 37.1063 51.65L31.2641 57.4906C31.0348 57.7313 30.7598 57.9237 30.455 58.0565C30.1503 58.1893 29.8221 58.2598 29.4898 58.2639C29.1574 58.2679 28.8276 58.2055 28.5197 58.0801C28.2119 57.9548 27.9322 57.7692 27.6971 57.5341C27.4621 57.2991 27.2764 57.0194 27.1511 56.7115C27.0258 56.4037 26.9633 56.0739 26.9674 55.7415C26.9714 55.4091 27.0419 55.0809 27.1747 54.7762C27.3075 54.4715 27.4999 54.1964 27.7406 53.9672L29.0094 52.6984H26.1047C22.7389 52.6984 19.511 51.3614 17.1311 48.9814C14.7511 46.6015 13.4141 43.3736 13.4141 40.0078C13.4141 36.642 14.7511 33.4141 17.1311 31.0342C19.511 28.6542 22.7389 27.3172 26.1047 27.3172C27.7579 27.3204 29.3933 27.658 30.9126 28.3097C32.4319 28.9614 33.8036 29.9137 34.9453 31.1094L48.6078 45.4688C49.2832 46.176 50.0947 46.7393 50.9934 47.1249C51.8921 47.5105 52.8596 47.7104 53.8375 47.7125C55.8817 47.7125 57.8423 46.9004 59.2878 45.4549C60.7332 44.0094 61.5453 42.0489 61.5453 40.0047C61.5453 37.9604 60.7332 35.9999 59.2878 34.5544C57.8423 33.1089 55.8817 32.2969 53.8375 32.2969H50.2938L52.2031 34.2062C52.6609 34.6756 52.9153 35.3065 52.9111 35.9622C52.9069 36.6178 52.6445 37.2454 52.1808 37.7089C51.7171 38.1724 51.0894 38.4346 50.4337 38.4384C49.7781 38.4423 49.1473 38.1877 48.6781 37.7297L42.8359 31.8875C42.3708 31.4192 42.1097 30.7859 42.1097 30.1258C42.1097 29.4657 42.3708 28.8324 42.8359 28.3641L48.6781 22.5219C48.9084 22.2857 49.1833 22.0977 49.4869 21.9685C49.7904 21.8394 50.1166 21.7719 50.4464 21.7698C50.7763 21.7677 51.1033 21.8311 51.4084 21.9563C51.7136 22.0815 51.9908 22.2661 52.2241 22.4993C52.4574 22.7325 52.6421 23.0097 52.7675 23.3148C52.8928 23.6199 52.9564 23.9468 52.9544 24.2767C52.9525 24.6065 52.8851 24.9327 52.7561 25.2363C52.6271 25.5399 52.4392 25.8149 52.2031 26.0453L50.9375 27.3094H53.8422C57.208 27.3094 60.4359 28.6464 62.8158 31.0264C65.1958 33.4063 66.5328 36.6342 66.5328 40C66.5328 43.3658 65.1958 46.5937 62.8158 48.9736C60.4359 51.3536 57.208 52.6906 53.8422 52.6906H53.8312Z" fill="url(#paint0_linear_1429_8852)"/>
</g>
<defs>
<linearGradient id="paint0_linear_1429_8852" x1="40.0008" y1="0" x2="40.0008" y2="80.0016" gradientUnits="userSpaceOnUse">
<stop stop-color="#DCF1FF"/>
<stop offset="1" stop-color="#06C9FF"/>
</linearGradient>
<clipPath id="clip0_1429_8852">
<rect width="80" height="80" fill="white"/>
</clipPath>
</defs>
</svg>
