<svg width="24" height="24" viewBox="0 0 24 24" fill="none" xmlns="http://www.w3.org/2000/svg">
<g clip-path="url(#clip0_708_4865)">
<path d="M20.4375 3.82597C16.5456 3.82597 12.5123 0.218426 12.4724 0.182285C12.2043 -0.0607617 11.7957 -0.0607617 11.5276 0.182285C11.4875 0.218707 7.46475 3.82597 3.5625 3.82597C3.17419 3.82597 2.85938 4.14079 2.85938 4.5291V12.9496C2.85938 19.7711 7.93294 22.4968 11.7492 23.9538C11.83 23.9846 11.915 24 12 24C12.085 24 12.17 23.9846 12.2508 23.9538C17.6018 21.911 21.1406 18.7244 21.1406 12.9496V4.5291C21.1406 4.14079 20.8258 3.82597 20.4375 3.82597Z" fill="url(#paint0_linear_708_4865)"/>
<path d="M12 7.07812C9.28608 7.07812 7.07812 9.28608 7.07812 12C7.07812 14.7139 9.28608 16.9219 12 16.9219C14.7139 16.9219 16.9219 14.7139 16.9219 12C16.9219 9.28608 14.7139 7.07812 12 7.07812ZM13.9034 11.794L11.794 13.9034C11.6568 14.0407 11.4768 14.1094 11.2969 14.1094C11.1169 14.1094 10.937 14.0407 10.7997 13.9034L10.0966 13.2003C9.822 12.9257 9.822 12.4805 10.0966 12.2059C10.3711 11.9313 10.8164 11.9313 11.091 12.2059L11.2969 12.4118L12.9091 10.7997C13.1837 10.5251 13.6289 10.5251 13.9035 10.7997C14.178 11.0743 14.178 11.5194 13.9034 11.794Z" fill="url(#paint1_linear_708_4865)"/>
</g>
<defs>
<linearGradient id="paint0_linear_708_4865" x1="12" y1="24" x2="12" y2="-1.14441e-05" gradientUnits="userSpaceOnUse">
<stop stop-color="#00B59C"/>
<stop offset="1" stop-color="#9CFFAC"/>
</linearGradient>
<linearGradient id="paint1_linear_708_4865" x1="12" y1="16.9219" x2="12" y2="7.07812" gradientUnits="userSpaceOnUse">
<stop stop-color="#C3FFE8"/>
<stop offset="0.9973" stop-color="#F0FFF4"/>
</linearGradient>
<clipPath id="clip0_708_4865">
<rect width="24" height="24" fill="white"/>
</clipPath>
</defs>
</svg>
