<svg width="80" height="80" viewBox="0 0 80 80" fill="none" xmlns="http://www.w3.org/2000/svg">
<g clip-path="url(#clip0_181_3288)">
<path fill-rule="evenodd" clip-rule="evenodd" d="M7.4981 36.1804C6.18586 36.1804 4.87361 35.8524 3.74883 35.1963C0.18703 33.1342 -1.07835 28.5413 0.983749 24.9326C2.34286 22.6362 4.82675 21.2302 7.4981 21.2302C8.81035 21.2302 10.0757 21.5583 11.2474 22.2144C14.8092 24.2765 16.0277 28.8694 13.9656 32.4312C12.6533 34.7276 10.1695 36.1804 7.4981 36.1804ZM28.9158 38.1019C27.6036 38.1019 26.3382 37.727 25.1665 37.0709C21.6047 35.0088 20.3862 30.4159 22.4483 26.8541C23.7605 24.5577 26.2444 23.1049 28.9158 23.1049C30.228 23.1049 31.5403 23.4798 32.6651 24.1359C34.3991 25.1201 35.6176 26.7135 36.1331 28.6819C36.6955 30.6034 36.4143 32.6186 35.4301 34.3527C34.071 36.6491 31.5871 38.1019 28.9158 38.1019ZM27.1818 14.9971C25.8695 14.9971 24.5573 14.6221 23.4325 13.966C19.8238 11.9039 18.6053 7.31107 20.6674 3.74927C22.0265 1.45284 24.5104 0 27.1818 0C28.494 0 29.7594 0.328061 30.931 0.984183C34.4928 3.04628 35.7113 7.63913 33.6492 11.2478C32.337 13.5442 29.8531 14.9971 27.1818 14.9971ZM56.0043 17.1529C54.692 17.1529 53.4266 16.778 52.255 16.1219C50.521 15.1377 49.3024 13.4974 48.7869 11.5759C48.2714 9.65437 48.5526 7.63913 49.5368 5.9051C50.849 3.60867 53.3329 2.15583 56.0043 2.15583C57.3165 2.15583 58.6287 2.53076 59.7535 3.18688C61.4876 4.17106 62.7529 5.7645 63.2685 7.73287C63.784 9.65437 63.5028 11.6696 62.5186 13.4036C61.1595 15.7001 58.6756 17.1529 56.0043 17.1529Z" fill="#4066EF"/>
<path fill-rule="evenodd" clip-rule="evenodd" d="M33.7435 28.2601C33.3217 28.2601 32.8999 28.0726 32.6187 27.7445C32.15 27.1353 32.2906 26.2448 32.8999 25.7762L50.334 12.2788C50.9432 11.8102 51.8337 11.9039 52.3023 12.5131C52.771 13.1224 52.6773 14.0129 52.068 14.4815L34.587 27.9789C34.3527 28.1663 34.0246 28.2601 33.7435 28.2601ZM28.4476 25.9168C27.7446 25.9168 27.1354 25.3544 27.0885 24.6514L26.2449 13.6848C26.198 12.8881 26.7604 12.2319 27.5103 12.1851C28.307 12.0914 28.9631 12.7006 29.01 13.4505L29.8536 24.4171C29.9005 25.2138 29.3381 25.8699 28.5882 25.9168C28.5413 25.9168 28.4945 25.9168 28.4476 25.9168Z" fill="#4066EF"/>
<path fill-rule="evenodd" clip-rule="evenodd" d="M20.433 73.3919C19.9643 73.3919 19.4957 73.1576 19.2145 72.6889C18.8396 72.0328 19.0739 71.1892 19.7769 70.8143L31.3059 64.2999C31.962 63.925 32.8524 64.1593 33.2274 64.8623C33.6023 65.5184 33.368 66.362 32.665 66.737L21.136 73.2513C20.9017 73.345 20.6673 73.3919 20.433 73.3919ZM53.9889 67.5337C53.286 67.5337 52.6298 66.9244 52.6298 66.1746L51.3176 42.5073C51.2707 41.7575 51.88 41.1013 52.6298 41.0545C53.4266 41.0076 54.0827 41.6169 54.1295 42.3667L55.3949 66.034C55.4418 66.8307 54.8325 67.4868 54.0827 67.4868C54.0358 67.4868 54.0358 67.5337 53.9889 67.5337ZM36.836 60.5038C36.6017 60.5038 36.3205 60.4101 36.0862 60.2226C35.4301 59.8008 35.2895 58.9104 35.7113 58.3011L47.7558 40.5858C48.1776 39.9765 49.068 39.7891 49.7242 40.2109C50.3334 40.6795 50.5209 41.5231 50.0522 42.1792L38.0077 59.8477C37.7265 60.2695 37.3047 60.5038 36.836 60.5038Z" fill="#4066EF"/>
<path fill-rule="evenodd" clip-rule="evenodd" d="M13.5435 53.4739C12.9811 53.4739 12.4656 53.1459 12.2313 52.6303C11.9501 51.8805 12.2782 51.0838 12.9811 50.8026L46.1622 37.3052C46.8651 37.024 47.6619 37.3521 47.9899 38.1019C48.2711 38.8049 47.9431 39.6016 47.1932 39.8828L14.0591 53.3802C13.8716 53.4271 13.6841 53.4739 13.5435 53.4739Z" fill="#4066EF"/>
<path fill-rule="evenodd" clip-rule="evenodd" d="M70.1108 52.3023C69.7827 52.3023 69.4547 52.1617 69.2204 51.9742L56.2385 41.2888C55.6761 40.8201 55.5824 39.9297 56.051 39.3204C56.5666 38.7112 57.457 38.6174 58.0194 39.133L71.0013 49.8184C71.5636 50.287 71.6574 51.1775 71.1887 51.7867C70.9075 52.1148 70.4857 52.3023 70.1108 52.3023Z" fill="#4066EF"/>
<path fill-rule="evenodd" clip-rule="evenodd" d="M40.0695 63.5501C39.4602 63.5501 38.8978 63.1752 38.7104 62.5659C38.5229 61.8161 38.9447 61.0193 39.6945 60.8319L69.5481 52.396C70.2979 52.2086 71.0478 52.6304 71.2821 53.3802C71.4696 54.1301 71.0478 54.8799 70.2979 55.1142L40.4444 63.5032C40.3507 63.5501 40.2101 63.5501 40.0695 63.5501Z" fill="#4066EF"/>
<path fill-rule="evenodd" clip-rule="evenodd" d="M20.9951 75.3134C20.2452 75.3134 19.636 74.751 19.5891 74.0012C19.5422 73.2513 20.1515 72.5483 20.9482 72.5483L50.2394 70.8611C51.0361 70.7674 51.6922 71.3767 51.7391 72.1734C51.7859 72.9232 51.1767 73.5794 50.4268 73.6262L21.0888 75.3134C21.0419 75.3134 21.0419 75.3134 20.9951 75.3134ZM14.7619 71.5641C14.2464 71.5641 13.7309 71.2361 13.4965 70.7205L9.09115 61.0662C8.80996 60.3632 9.09115 59.5665 9.79414 59.2384C10.4971 58.9103 11.3407 59.2384 11.6688 59.9414L16.0273 69.5958C16.3554 70.2987 16.0742 71.0955 15.3712 71.4235C15.1837 71.5173 14.9494 71.5641 14.7619 71.5641Z" fill="#4066EF"/>
<path fill-rule="evenodd" clip-rule="evenodd" d="M22.8703 31.4469C22.8235 31.4469 22.7766 31.4469 22.7297 31.4469L13.4503 30.6502C12.6536 30.5565 12.0912 29.9004 12.1381 29.1037C12.2318 28.3538 12.8879 27.7914 13.6846 27.8383L22.9641 28.6819C23.7608 28.7287 24.3232 29.4317 24.2295 30.1816C24.1826 30.9314 23.5733 31.4469 22.8703 31.4469ZM11.6225 25.6356C11.2945 25.6356 10.9664 25.495 10.6852 25.2607C10.1228 24.7451 10.076 23.8547 10.5915 23.2923L21.9799 11.0134C22.5423 10.451 23.4327 10.4042 23.9951 10.9197C24.5575 11.4352 24.5575 12.3257 24.042 12.8881L12.6536 25.1669C12.3724 25.495 11.9975 25.6356 11.6225 25.6356ZM49.9588 10.5916C49.9119 10.5916 49.8651 10.5916 49.8182 10.5916L33.134 9.32627C32.3841 9.2794 31.8217 8.67015 31.8217 7.96716C31.8217 7.92029 31.8217 7.87343 31.8217 7.82656C31.9155 7.07671 32.5716 6.46745 33.3214 6.56118L50.0525 7.77969C50.8024 7.87343 51.3179 8.48268 51.3179 9.18567V9.2794C51.271 10.0293 50.6618 10.5916 49.9588 10.5916Z" fill="#4066EF"/>
<path fill-rule="evenodd" clip-rule="evenodd" d="M74.1884 21.5114C70.9547 21.5114 68.377 18.8869 68.377 15.7C68.377 12.5132 70.9547 9.88867 74.1884 9.88867C77.3753 9.88867 79.9998 12.5132 79.9998 15.7C79.9998 18.8869 77.3753 21.5114 74.1884 21.5114ZM68.7051 38.3831C65.9869 38.3831 63.7842 36.1804 63.7842 33.4622C63.7842 30.6971 65.9869 28.4944 68.7051 28.4944C71.4702 28.4944 73.6729 30.6971 73.6729 33.4622C73.6729 36.1804 71.4702 38.3831 68.7051 38.3831Z" fill="#4066EF"/>
<path fill-rule="evenodd" clip-rule="evenodd" d="M56.66 79.6251C52.3952 79.6251 48.9271 76.157 48.9271 71.8922C48.9271 67.5806 52.3952 64.1125 56.66 64.1125C60.9716 64.1125 64.4397 67.5806 64.4397 71.8922C64.4397 76.157 60.9716 79.6251 56.66 79.6251ZM35.8515 69.174C32.6178 69.174 30.0402 66.5964 30.0402 63.3626C30.0402 60.1758 32.6178 57.5513 35.8515 57.5513C39.0384 57.5513 41.6629 60.1758 41.6629 63.3626C41.6629 66.5964 39.0384 69.174 35.8515 69.174ZM16.5897 80C13.4028 80 10.7783 77.3755 10.7783 74.1886C10.7783 70.9549 13.4028 68.3773 16.5897 68.3773C19.8234 68.3773 22.4011 70.9549 22.4011 74.1886C22.4011 77.3755 19.8234 80 16.5897 80Z" fill="#303263"/>
<path fill-rule="evenodd" clip-rule="evenodd" d="M7.73286 62.4722C3.46807 62.4722 0 59.0041 0 54.7393C0 50.4276 3.46807 46.9596 7.73286 46.9596C12.0445 46.9596 15.5126 50.4276 15.5126 54.7393C15.5126 59.0041 12.0445 62.4722 7.73286 62.4722ZM52.396 43.8664C48.225 43.8664 44.8037 40.4452 44.8037 36.2742C44.8037 32.1031 48.225 28.7288 52.396 28.7288C56.5671 28.7288 59.9414 32.1031 59.9414 36.2742C59.9414 40.4452 56.5671 43.8664 52.396 43.8664ZM74.1886 58.348C70.9549 58.348 68.3773 55.7704 68.3773 52.5366C68.3773 49.3497 70.9549 46.7252 74.1886 46.7252C77.3755 46.7252 80 49.3497 80 52.5366C80 55.7704 77.3755 58.348 74.1886 58.348Z" fill="#303263"/>
</g>
<defs>
<clipPath id="clip0_181_3288">
<rect width="80" height="80" fill="white"/>
</clipPath>
</defs>
</svg>
