<svg width="151" height="141" viewBox="0 0 151 141" fill="none" xmlns="http://www.w3.org/2000/svg">
<g opacity="0.15">
<path fill-rule="evenodd" clip-rule="evenodd" d="M17.4555 153.326C10.6042 139.691 6.75 124.288 6.75 108C6.75 91.7122 10.6042 76.3088 17.4555 62.6738C34.0942 29.5178 68.4113 6.75 108 6.75C147.589 6.75 181.906 29.5178 198.545 62.6738C205.396 76.3088 209.25 91.7122 209.25 108C209.25 124.288 205.396 139.691 198.545 153.326C181.906 186.482 147.589 209.25 108 209.25C68.4113 209.25 34.0942 186.482 17.4555 153.326ZM26.9055 74.4323C22.6193 84.7733 20.25 96.1133 20.25 108C20.25 119.887 22.6193 131.227 26.9055 141.568C37.9283 137.295 50.922 133.866 65.2657 131.557C64.5232 124.011 64.125 116.12 64.125 108C64.125 99.8798 64.5232 91.989 65.2657 84.4425C50.922 82.134 37.9283 78.705 26.9055 74.4323ZM182.932 62.343C171.76 44.0573 154.089 30.1792 133.144 23.9152C134.082 25.3732 134.993 26.919 135.871 28.5525C141.628 39.3053 146.232 53.9932 148.999 71.064C161.608 69.0187 173.09 66.042 182.932 62.343ZM82.8563 23.9152C61.911 30.1792 44.2395 44.0573 33.0683 62.343C42.9098 66.0488 54.3915 69.0187 67.0005 71.064C69.768 53.9932 74.3715 39.3053 80.1293 28.5525C81.0068 26.919 81.918 25.3732 82.8563 23.9152ZM189.094 141.568C193.381 131.227 195.75 119.887 195.75 108C195.75 96.1133 193.381 84.7733 189.094 74.4323C178.072 78.705 165.078 82.134 150.734 84.4425C151.477 91.989 151.875 99.8798 151.875 108C151.875 116.12 151.477 124.011 150.734 131.557C165.078 133.866 178.072 137.295 189.094 141.568ZM33.0683 153.657C44.2395 171.943 61.911 185.821 82.8563 192.085C81.918 190.627 81.0068 189.081 80.1293 187.447C74.3715 176.695 69.768 162.007 67.0005 144.936C54.3915 146.981 42.9098 149.958 33.0683 153.657ZM133.144 192.085C154.089 185.821 171.76 171.943 182.932 153.657C173.09 149.958 161.608 146.981 148.999 144.936C146.232 162.007 141.628 176.695 135.871 187.447C134.993 189.081 134.082 190.627 133.144 192.085ZM108 20.25C105.401 20.25 102.971 21.4852 100.636 23.4697C97.5037 26.1292 94.6418 30.051 92.0295 34.9313C86.8725 44.5568 82.8225 57.645 80.352 72.8392C89.1945 73.764 98.4555 74.25 108 74.25C117.545 74.25 126.806 73.7573 135.648 72.8392C133.178 57.645 129.127 44.5568 123.97 34.9313C121.358 30.051 118.496 26.1292 115.364 23.4697C113.029 21.4852 110.599 20.25 108 20.25ZM108 195.75C110.599 195.75 113.029 194.515 115.364 192.53C118.496 189.871 121.358 185.949 123.97 181.069C129.127 171.443 133.178 158.355 135.648 143.161C126.806 142.243 117.545 141.75 108 141.75C98.4555 141.75 89.1945 142.243 80.352 143.161C82.8225 158.355 86.8725 171.443 92.0295 181.069C94.6418 185.949 97.5037 189.871 100.636 192.53C102.971 194.515 105.401 195.75 108 195.75ZM137.362 129.782C138.024 122.803 138.375 115.506 138.375 108C138.375 100.494 138.024 93.1973 137.362 86.2178C127.973 87.2168 118.132 87.75 108 87.75C97.8682 87.75 88.0268 87.2168 78.6375 86.2178C77.976 93.1973 77.625 100.494 77.625 108C77.625 115.506 77.976 122.803 78.6375 129.782C88.0268 128.783 97.8682 128.25 108 128.25C118.132 128.25 127.973 128.783 137.362 129.782Z" fill="#1925FF"/>
</g>
</svg>
