<svg width="49" height="57" viewBox="0 0 49 57" fill="none" xmlns="http://www.w3.org/2000/svg">
<g clip-path="url(#clip0_37_875)">
<path d="M2.67684 29.8266V23.6686H4.01884V30.2966C4.08136 30.8309 4.03545 31.3724 3.88384 31.8886C3.73249 32.4045 3.47878 32.8847 3.13784 33.3006C2.50401 33.8473 1.69184 34.1429 0.854844 34.1316L0.714844 33.1316C1.25479 33.1318 1.77566 32.9319 2.17684 32.5706C2.53684 32.1516 2.67684 31.5796 2.67684 29.8266ZM12.6828 29.0366C12.6828 29.7876 12.6828 30.4586 12.7428 31.0366H11.5518L11.4688 29.8516C11.2197 30.2732 10.8633 30.6214 10.436 30.8606C10.0086 31.0998 9.52554 31.2216 9.03584 31.2136C7.87484 31.2136 6.49284 30.5826 6.49284 28.0136V23.7386H7.83684V27.7436C7.83684 29.1356 8.26784 30.0666 9.47884 30.0666C9.72805 30.0692 9.97528 30.0221 10.206 29.928C10.4368 29.8339 10.6464 29.6946 10.8227 29.5184C10.9989 29.3421 11.1381 29.1325 11.2323 28.9017C11.3264 28.671 11.3735 28.4238 11.3708 28.1746V23.6886H12.7128V29.0056L12.6828 29.0366ZM15.2258 26.1116C15.2258 25.1806 15.2258 24.4196 15.1658 23.7286H16.3658L16.4258 24.9806C16.6932 24.5281 17.0784 24.1568 17.5404 23.9063C18.0024 23.6559 18.5238 23.5357 19.0488 23.5586C20.8308 23.5586 22.1728 25.0506 22.1728 27.2736C22.1728 29.8966 20.5608 31.1986 18.8188 31.1986C18.3729 31.2186 17.9294 31.1231 17.5312 30.9215C17.133 30.7198 16.7936 30.4188 16.5458 30.0476V34.0516H15.2258V26.1116ZM16.5478 28.0636C16.5514 28.2453 16.5715 28.4264 16.6078 28.6046C16.7214 29.0487 16.9796 29.4423 17.3418 29.7234C17.704 30.0044 18.1494 30.1568 18.6078 30.1566C20.0198 30.1566 20.8508 29.0056 20.8508 27.3326C20.8508 25.8706 20.0698 24.6196 18.6578 24.6196C18.0988 24.6646 17.5755 24.9124 17.1864 25.3163C16.7973 25.7201 16.5691 26.2522 16.5448 26.8126L16.5478 28.0636ZM24.5688 23.7226L26.1808 28.0376C26.3508 28.5186 26.5308 29.0986 26.6518 29.5296C26.7918 29.0886 26.9418 28.5296 27.1228 28.0076L28.5848 23.7226H29.9968L27.9968 28.9296C26.9968 31.4296 26.3848 32.7246 25.4638 33.5056C24.9999 33.9293 24.4342 34.2259 23.8218 34.3666L23.4918 33.2456C23.9199 33.1047 24.3173 32.8838 24.6628 32.5946C25.1512 32.1964 25.5387 31.6886 25.7938 31.1126C25.8484 31.0129 25.8856 30.9047 25.9038 30.7926C25.8924 30.6719 25.8621 30.5538 25.8138 30.4426L23.0908 23.7046H24.5528L24.5688 23.7226ZM33.5578 21.6226V23.7226H35.4798V24.7226H33.5538V28.6676C33.5538 29.5676 33.8138 30.0896 34.5538 30.0896C34.817 30.0939 35.0796 30.0637 35.3348 29.9996L35.3948 30.9996C35.0122 31.1321 34.6085 31.1931 34.2038 31.1796C33.9357 31.1964 33.667 31.1549 33.4164 31.0581C33.1658 30.9612 32.9391 30.8113 32.7518 30.6186C32.3444 30.0738 32.1583 29.395 32.2308 28.7186V24.7136H31.0908V23.7136H32.2518V21.9316L33.5578 21.6226ZM37.9518 27.6156C37.9247 27.9551 37.9716 28.2965 38.0893 28.6161C38.207 28.9357 38.3927 29.226 38.6335 29.4669C38.8744 29.7077 39.1647 29.8934 39.4843 30.0111C39.8039 30.1288 40.1453 30.1757 40.4848 30.1486C41.1708 30.1637 41.8523 30.0342 42.4848 29.7686L42.7148 30.7686C41.9377 31.0888 41.1021 31.2425 40.2618 31.2196C39.7718 31.2539 39.2801 31.1816 38.8206 31.0077C38.3612 30.8338 37.9449 30.5624 37.6004 30.2122C37.2558 29.862 36.9913 29.4413 36.825 28.979C36.6586 28.5168 36.5945 28.024 36.6368 27.5346C36.6368 25.3346 37.9488 23.5896 40.0908 23.5896C42.4908 23.5896 43.0908 25.6896 43.0908 27.0336C43.1037 27.2404 43.1037 27.4478 43.0908 27.6546H37.9178L37.9518 27.6156ZM41.8768 26.6156C41.9156 26.3479 41.8965 26.075 41.8208 25.8153C41.7452 25.5556 41.6147 25.3152 41.4382 25.1102C41.2618 24.9052 41.0434 24.7404 40.7979 24.627C40.5523 24.5135 40.2853 24.4541 40.0148 24.4526C39.4646 24.4923 38.9491 24.7362 38.5693 25.1363C38.1895 25.5364 37.9729 26.064 37.9618 26.6156H41.8768ZM45.1338 26.0006C45.1338 25.1396 45.1338 24.4006 45.0738 23.7176H46.2738V25.1516H46.3338C46.4602 24.7104 46.7205 24.3195 47.0789 24.0328C47.4372 23.7462 47.8757 23.578 48.3338 23.5516C48.46 23.535 48.5877 23.535 48.7138 23.5516V24.8036C48.5607 24.7858 48.406 24.7858 48.2528 24.8036C47.7987 24.8211 47.3664 25.0032 47.0367 25.3161C46.7069 25.6289 46.5023 26.0509 46.4608 26.5036C46.4234 26.7085 46.4033 26.9162 46.4008 27.1246V31.0196H45.0798V26.0136L45.1338 26.0006Z" fill="white"/>
<path d="M44.5429 3.60946C44.584 4.28202 44.4239 4.95158 44.0831 5.53285C43.7423 6.11412 43.2362 6.5808 42.6293 6.87345C42.0224 7.16609 41.3421 7.27146 40.675 7.17612C40.008 7.08079 39.3845 6.78907 38.8838 6.33812C38.3831 5.88717 38.028 5.2974 37.8637 4.64394C37.6994 3.99048 37.7333 3.30289 37.9611 2.66876C38.1889 2.03463 38.6003 1.48267 39.1429 1.08317C39.6855 0.683664 40.3348 0.454709 41.0079 0.425464C41.4493 0.401205 41.8912 0.464443 42.308 0.611541C42.7249 0.758638 43.1086 0.986694 43.437 1.28259C43.7654 1.57849 44.0321 1.9364 44.2218 2.33573C44.4114 2.73506 44.5212 3.16794 44.5429 3.60946Z" fill="#767677"/>
<path d="M24.7428 42.8245C15.7318 42.8245 7.8118 39.5905 3.7168 34.8145C5.30562 39.1111 8.17263 42.818 11.9319 45.4359C15.6912 48.0539 20.1623 49.4573 24.7433 49.4573C29.3243 49.4573 33.7954 48.0539 37.5547 45.4359C41.314 42.818 44.181 39.1111 45.7698 34.8145C41.6848 39.5905 33.7948 42.8245 24.7428 42.8245Z" fill="#F37726"/>
<path d="M24.7428 11.7686C33.7538 11.7686 41.6738 15.0026 45.7688 19.7786C44.18 15.4819 41.313 11.7751 37.5537 9.15714C33.7944 6.53918 29.3234 5.13574 24.7423 5.13574C20.1613 5.13574 15.6902 6.53918 11.9309 9.15714C8.17166 11.7751 5.30464 15.4819 3.71582 19.7786C7.81182 14.9926 15.6918 11.7686 24.7428 11.7686Z" fill="#F37726"/>
<path d="M12.339 52.1185C12.3951 53.1684 12.0588 54.2016 11.3954 55.0173C10.7319 55.8329 9.78881 56.3725 8.74948 56.5313C7.71016 56.69 6.64894 56.4565 5.77225 55.8762C4.89557 55.2958 4.26611 54.4101 4.00633 53.3913C3.74654 52.3725 3.875 51.2935 4.36671 50.3642C4.85842 49.4349 5.67823 48.7217 6.66667 48.3634C7.6551 48.0051 8.74149 48.0272 9.71449 48.4256C10.6875 48.8239 11.4775 49.5699 11.931 50.5185C12.1696 51.0203 12.3082 51.5637 12.339 52.1185Z" fill="#9E9E9E"/>
<path d="M4.74187 10.6795C4.25633 10.6929 3.77766 10.5624 3.36607 10.3045C2.95448 10.0465 2.62834 9.67267 2.42867 9.22988C2.22899 8.78709 2.1647 8.29514 2.24388 7.81591C2.32306 7.33668 2.54217 6.89155 2.87365 6.53652C3.20514 6.18148 3.6342 5.93239 4.10688 5.82056C4.57956 5.70873 5.07476 5.73916 5.53019 5.90802C5.98562 6.07688 6.38096 6.37664 6.66648 6.76959C6.952 7.16254 7.11496 7.63114 7.13487 8.11646C7.15382 8.77269 6.91316 9.40991 6.46512 9.88977C6.01709 10.3696 5.39786 10.6534 4.74187 10.6795Z" fill="#616262"/>
</g>
<defs>
<clipPath id="clip0_37_875">
<rect width="47.999" height="56.1594" fill="white" transform="translate(0.714844 0.42041)"/>
</clipPath>
</defs>
</svg>
