<svg width="51" height="49" viewBox="0 0 51 49" fill="none" xmlns="http://www.w3.org/2000/svg">
<g clip-path="url(#clip0_37_883)">
<path d="M16.1076 48.0686C15.5288 48.0702 14.9573 47.94 14.4363 47.6879C13.9153 47.4358 13.4585 47.0685 13.1006 46.6136L1.78561 32.5506C1.41518 32.0954 1.15523 31.5605 1.02615 30.988C0.897067 30.4154 0.902361 29.8208 1.04161 29.2506L5.07861 11.6976C5.20646 11.1301 5.46205 10.5993 5.82595 10.1454C6.18985 9.69159 6.65247 9.32673 7.17861 9.07861L23.5436 1.25561C24.0672 1.00034 24.6421 0.867676 25.2246 0.867676C25.8071 0.867676 26.382 1.00034 26.9056 1.25561L43.2646 9.04661C43.7908 9.29473 44.2534 9.65959 44.6173 10.1134C44.9812 10.5673 45.2368 11.0981 45.3646 11.6656L49.4056 29.2206C49.5373 29.7912 49.5388 30.3842 49.41 30.9555C49.2812 31.5268 49.0254 32.0617 48.6616 32.5206L37.3476 46.5816C36.9848 47.031 36.527 47.3945 36.0071 47.646C35.4872 47.8976 34.9181 48.031 34.3406 48.0366L16.1076 48.0686Z" fill="#326DE6"/>
<path d="M25.1914 1.67576C25.6493 1.67562 26.1017 1.7749 26.5174 1.96676L42.8754 9.75776C43.2937 9.96142 43.6615 10.2555 43.9522 10.6186C44.2429 10.9818 44.4493 11.4051 44.5564 11.8578L48.5974 29.4128C48.7094 29.8719 48.7122 30.3509 48.6056 30.8113C48.4989 31.2716 48.2859 31.7006 47.9834 32.0638L36.6684 46.1288C36.3784 46.4932 36.0095 46.7871 35.5894 46.9884C35.1694 47.1897 34.7092 47.293 34.2434 47.2908H16.1114C15.6455 47.2928 15.1852 47.1891 14.7651 46.9875C14.3451 46.7859 13.9763 46.4916 13.6864 46.1268L2.36643 32.0658C2.07779 31.6949 1.87336 31.2657 1.76733 30.8079C1.6613 30.3501 1.65621 29.8747 1.75243 29.4148L5.79343 11.8598C5.89701 11.4056 6.10204 10.9807 6.39316 10.617C6.68428 10.2534 7.05394 9.96027 7.47443 9.75976L23.8334 1.93376C24.267 1.76712 24.7269 1.68041 25.1914 1.67576ZM25.1914 0.156762C24.5002 0.164768 23.8186 0.319159 23.1914 0.609762L6.82843 8.43276C6.19698 8.7289 5.64153 9.16537 5.20445 9.70885C4.76737 10.2523 4.46022 10.8885 4.30643 11.5688L0.265425 29.1238C0.104416 29.8066 0.10228 30.5172 0.259181 31.201C0.416083 31.8848 0.727834 32.5234 1.17043 33.0678L12.4854 47.1308C12.9158 47.6684 13.4622 48.1018 14.0837 48.3984C14.7052 48.6951 15.3858 48.8473 16.0744 48.8438H34.2114C34.9001 48.8473 35.5807 48.6951 36.2022 48.3984C36.8237 48.1018 37.3701 47.6684 37.8004 47.1308L49.1114 33.0678C49.5556 32.5243 49.8683 31.8857 50.0252 31.2016C50.1822 30.5175 50.1792 29.8065 50.0164 29.1238L45.9794 11.5688C45.8256 10.8885 45.5185 10.2523 45.0814 9.70885C44.6443 9.16537 44.0889 8.7289 43.4574 8.43276L27.1634 0.608762C26.5475 0.314377 25.8741 0.160692 25.1914 0.156762Z" fill="white"/>
<path d="M41.5834 28.0236H41.5514C41.5194 28.0236 41.4864 28.0236 41.4864 27.9916C41.4214 27.9916 41.3574 27.9596 41.2924 27.9596C41.0895 27.9236 40.8843 27.9019 40.6784 27.8946C40.5698 27.8984 40.4611 27.8876 40.3554 27.8626H40.3234C39.7329 27.8264 39.1477 27.7288 38.5774 27.5716C38.4968 27.5399 38.4235 27.4919 38.3623 27.4307C38.301 27.3694 38.2531 27.2962 38.2214 27.2156C38.2214 27.1836 38.1894 27.1836 38.1894 27.1506L37.7694 27.0216C37.968 25.501 37.8914 23.9571 37.5434 22.4636C37.1905 20.9575 36.578 19.5244 35.7334 18.2286L36.0564 17.9376V17.8726C36.0503 17.6967 36.1078 17.5245 36.2184 17.3876C36.6711 17.0095 37.1582 16.6747 37.6734 16.3876C37.7734 16.3226 37.8674 16.2876 37.9644 16.2256C38.1546 16.13 38.3383 16.0221 38.5144 15.9026C38.5464 15.8706 38.6144 15.8376 38.6764 15.7736C38.7084 15.7416 38.7414 15.7416 38.7414 15.7086C38.9561 15.5396 39.0989 15.2955 39.1408 15.0255C39.1827 14.7555 39.1208 14.4797 38.9674 14.2536C38.8797 14.1404 38.7667 14.0493 38.6375 13.9875C38.5084 13.9257 38.3666 13.8949 38.2234 13.8976C37.9647 13.905 37.7153 13.9958 37.5124 14.1566L37.4474 14.2216C37.3824 14.2536 37.3474 14.3216 37.2854 14.3506C37.1368 14.4934 36.9966 14.6446 36.8654 14.8036C36.7984 14.8868 36.7226 14.9625 36.6394 15.0296C36.2508 15.4622 35.8174 15.8524 35.3464 16.1936C35.2617 16.2554 35.1603 16.2903 35.0554 16.2936C34.9891 16.2988 34.9225 16.2878 34.8614 16.2616H34.7964L34.4084 16.5206C33.9904 16.0858 33.5476 15.6754 33.0824 15.2916C31.1332 13.7674 28.7871 12.8354 26.3234 12.6066L26.2914 12.1866L26.2264 12.1216C26.0902 12.0192 25.9977 11.8692 25.9674 11.7016C25.9558 11.1179 25.9892 10.5341 26.0674 9.95556V9.92356C26.0734 9.81333 26.0953 9.70454 26.1324 9.60056C26.1644 9.40656 26.1974 9.21256 26.2324 8.98656V8.69556C26.2495 8.49018 26.2017 8.28462 26.0959 8.10777C25.9902 7.93091 25.8316 7.79165 25.6426 7.70955C25.4536 7.62745 25.2436 7.60664 25.0421 7.65005C24.8406 7.69346 24.6578 7.7989 24.5194 7.95156C24.4235 8.04975 24.3483 8.1662 24.2984 8.29401C24.2484 8.42182 24.2246 8.55838 24.2284 8.69556V8.95456C24.2274 9.16336 24.2612 9.37086 24.3284 9.56856C24.3604 9.66856 24.3604 9.76256 24.3934 9.89156V9.92356C24.4878 10.5005 24.5213 11.0857 24.4934 11.6696C24.4631 11.8372 24.3706 11.9872 24.2344 12.0896L24.1694 12.1546L24.1374 12.5746C23.5511 12.6292 22.9683 12.7156 22.3914 12.8336C19.9424 13.3694 17.712 14.6314 15.9914 16.4546L15.6684 16.2286H15.5894C15.5244 16.2286 15.4604 16.2606 15.3954 16.2606C15.2905 16.2573 15.1891 16.2224 15.1044 16.1606C14.6333 15.8061 14.2 15.404 13.8114 14.9606C13.7444 14.8774 13.6686 14.8016 13.5854 14.7346C13.4542 14.5756 13.314 14.4244 13.1654 14.2816C13.1334 14.2496 13.0654 14.2166 13.0034 14.1526C12.9714 14.1206 12.9384 14.1206 12.9384 14.0876C12.7382 13.9221 12.4871 13.8306 12.2274 13.8286C12.0842 13.8259 11.9424 13.8567 11.8133 13.9185C11.6841 13.9803 11.5712 14.0714 11.4834 14.1846C11.33 14.4107 11.2681 14.6865 11.31 14.9565C11.3519 15.2265 11.4947 15.4706 11.7094 15.6396C11.7414 15.6396 11.7414 15.6716 11.7744 15.6716C11.8394 15.7036 11.8744 15.7716 11.9364 15.8006C12.1125 15.9201 12.2962 16.028 12.4864 16.1236C12.5899 16.165 12.6877 16.2194 12.7774 16.2856C13.2926 16.5727 13.7797 16.9075 14.2324 17.2856C14.2938 17.3492 14.3402 17.4258 14.3683 17.5097C14.3963 17.5936 14.4052 17.6828 14.3944 17.7706V17.8356L14.7174 18.1266C14.652 18.2052 14.5975 18.2923 14.5554 18.3856C12.9541 20.9239 12.3122 23.9508 12.7454 26.9206L12.3254 27.0496C12.3254 27.0816 12.2934 27.0816 12.2934 27.1146C12.2192 27.2706 12.0934 27.3963 11.9374 27.4706C11.3677 27.6306 10.7822 27.7281 10.1914 27.7616H10.1594C10.0507 27.7562 9.94189 27.767 9.8364 27.7936C9.63047 27.8009 9.4253 27.8226 9.2224 27.8586C9.1574 27.8586 9.0934 27.8906 9.0284 27.8906C9.0104 27.8879 8.99202 27.8894 8.97468 27.8949C8.95734 27.9005 8.94151 27.9099 8.9284 27.9226C8.66068 27.9758 8.42382 28.1303 8.26715 28.3538C8.11049 28.5774 8.0461 28.8527 8.0874 29.1226C8.14643 29.3476 8.28208 29.545 8.471 29.6808C8.65992 29.8166 8.89027 29.8823 9.1224 29.8666C9.20997 29.8719 9.29778 29.8611 9.3814 29.8346C9.4134 29.8346 9.4464 29.8346 9.4464 29.8026C9.5114 29.8026 9.5754 29.7706 9.6404 29.7706C9.84149 29.7149 10.0365 29.6392 10.2224 29.5446C10.3224 29.5126 10.4164 29.4446 10.5134 29.4156H10.5454C11.0862 29.1925 11.6499 29.0298 12.2264 28.9306H12.2914C12.4451 28.9383 12.5923 28.9951 12.7114 29.0926C12.7434 29.0926 12.7434 29.1246 12.7764 29.1246L13.2294 29.0596C14.0104 31.4591 15.4839 33.5739 17.4644 35.1376C17.9072 35.4796 18.3715 35.7929 18.8544 36.0756L18.6604 36.4956C18.6604 36.5276 18.6924 36.5276 18.6924 36.5606C18.7375 36.6379 18.7666 36.7236 18.7777 36.8124C18.7889 36.9013 18.782 36.9915 18.7574 37.0776C18.526 37.6095 18.2444 38.1181 17.9164 38.5966V38.6286C17.8514 38.7286 17.7874 38.7906 17.7224 38.8876C17.5934 39.0496 17.4964 39.2106 17.3664 39.4046C17.3259 39.4538 17.2923 39.5083 17.2664 39.5666C17.2632 39.5912 17.2519 39.614 17.2344 39.6316C17.1702 39.7503 17.1301 39.8806 17.1165 40.0149C17.1029 40.1491 17.116 40.2848 17.155 40.414C17.1941 40.5432 17.2583 40.6634 17.344 40.7677C17.4297 40.872 17.5352 40.9582 17.6544 41.0216C17.7741 41.0849 17.907 41.1192 18.0424 41.1216C18.2434 41.112 18.4385 41.0503 18.6085 40.9427C18.7786 40.8351 18.9177 40.6851 19.0124 40.5076C19.0156 40.483 19.0269 40.4601 19.0444 40.4426C19.0703 40.3843 19.1039 40.3298 19.1444 40.2806C19.2188 40.0899 19.2835 39.8957 19.3384 39.6986L19.4384 39.4076C19.6017 38.8445 19.8295 38.3022 20.1174 37.7916C20.2233 37.6528 20.3703 37.551 20.5374 37.5006C20.5694 37.5006 20.5694 37.5006 20.6024 37.4686L20.8284 37.0486C22.2728 37.6038 23.807 37.8888 25.3544 37.8896C26.3017 37.8958 27.2462 37.7874 28.1674 37.5666C28.7371 37.4392 29.2984 37.2772 29.8484 37.0816L30.0424 37.4376C30.0744 37.4376 30.0744 37.4376 30.1074 37.4696C30.1945 37.4842 30.2773 37.5178 30.3499 37.5681C30.4225 37.6184 30.4831 37.6841 30.5274 37.7606C30.7961 38.2804 31.0231 38.8208 31.2064 39.3766V39.4066L31.3064 39.6976C31.3564 39.8961 31.4213 40.0907 31.5004 40.2796C31.5324 40.3446 31.5654 40.3796 31.6004 40.4416C31.6036 40.4662 31.6149 40.489 31.6324 40.5066C31.7219 40.6883 31.8598 40.8418 32.031 40.9501C32.2021 41.0585 32.3999 41.1175 32.6024 41.1206C32.7378 41.1182 32.8707 41.0839 32.9904 41.0206C33.1064 40.9614 33.2092 40.8793 33.2925 40.7793C33.3759 40.6792 33.4381 40.5633 33.4754 40.4386C33.5508 40.1701 33.5277 39.8835 33.4104 39.6306C33.4104 39.5986 33.3784 39.5986 33.3784 39.5656C33.3525 39.5073 33.3189 39.4528 33.2784 39.4036C33.1786 39.219 33.0592 39.0456 32.9224 38.8866C32.8574 38.7866 32.7934 38.7246 32.7284 38.6276V38.5956C32.3883 38.1247 32.1059 37.6147 31.8874 37.0766C31.8472 36.9048 31.8583 36.725 31.9194 36.5596C31.9194 36.5276 31.9514 36.5276 31.9514 36.4946L31.7894 36.1066C34.4617 34.5077 36.4611 31.9912 37.4144 29.0266L37.8024 29.0916C37.8344 29.0916 37.8344 29.0596 37.8674 29.0596C37.9896 28.9675 38.1351 28.9114 38.2874 28.8976H38.3524C38.9275 28.9968 39.4899 29.1591 40.0294 29.3816H40.0614C40.1614 29.4136 40.2554 29.4816 40.3524 29.5106C40.5383 29.6052 40.7333 29.6809 40.9344 29.7366C40.9994 29.7366 41.0634 29.7686 41.1284 29.7686C41.1464 29.7659 41.1648 29.7674 41.1821 29.7729C41.1995 29.7785 41.2153 29.7879 41.2284 29.8006C41.312 29.8271 41.3998 29.8379 41.4874 29.8326C41.7162 29.8332 41.9394 29.7616 42.1253 29.628C42.3111 29.4944 42.45 29.3057 42.5224 29.0886C42.4937 28.8362 42.3884 28.5987 42.2207 28.408C42.053 28.2172 41.831 28.0824 41.5844 28.0216L41.5834 28.0236ZM26.6144 26.4396L25.1914 27.1186L23.7684 26.4396L23.4124 24.9206L24.3824 23.6916H25.9664L26.9364 24.9206L26.6144 26.4396ZM35.0524 23.0776C35.3031 24.1466 35.3794 25.2492 35.2784 26.3426L30.3294 24.9206C30.1142 24.8591 29.9307 24.7176 29.8165 24.5252C29.7024 24.3327 29.6662 24.1039 29.7154 23.8856C29.7472 23.7517 29.8141 23.6288 29.9094 23.5296L33.8234 20.0066C34.3949 20.9578 34.8099 21.9947 35.0524 23.0776ZM32.2724 18.0666L28.0374 21.0736C27.8579 21.1862 27.6432 21.2287 27.4343 21.1929C27.2255 21.1571 27.0371 21.0455 26.9054 20.8796C26.8195 20.7782 26.7634 20.6549 26.7434 20.5236L26.4524 15.2536C28.6541 15.5072 30.706 16.4987 32.2724 18.0666ZM22.8964 15.4156C23.2524 15.3506 23.5754 15.2866 23.9314 15.2216L23.6404 20.3946C23.6292 20.6195 23.5327 20.8317 23.3705 20.988C23.2083 21.1442 22.9926 21.2328 22.7674 21.2356C22.6315 21.2371 22.4976 21.2026 22.3794 21.1356L18.0794 18.0646C19.4013 16.7421 21.0719 15.8227 22.8964 15.4136V15.4156ZM16.5294 20.0066L20.3764 23.4336C20.5466 23.5808 20.6524 23.7889 20.6711 24.0132C20.6898 24.2375 20.6199 24.4602 20.4764 24.6336C20.384 24.7653 20.2456 24.8577 20.0884 24.8926L15.0774 26.3476C14.8715 24.133 15.3803 21.9108 16.5294 20.0066ZM15.6564 28.7676L20.7964 27.8946C21.0033 27.8817 21.2081 27.9429 21.374 28.0674C21.5398 28.1918 21.6559 28.3713 21.7014 28.5736C21.7403 28.7454 21.7292 28.9248 21.6694 29.0906L19.6974 33.8426C17.8333 32.636 16.4144 30.8546 15.6564 28.7676ZM27.4564 35.2016C26.7136 35.3692 25.9549 35.4561 25.1934 35.4606C24.0852 35.4544 22.9843 35.2801 21.9284 34.9436L24.4824 30.3206C24.6037 30.1711 24.7723 30.0674 24.9603 30.0263C25.1484 29.9853 25.3448 30.0093 25.5174 30.0946C25.6684 30.1872 25.8002 30.3081 25.9054 30.4506L28.3944 34.9446C28.1034 35.0446 27.7804 35.1066 27.4564 35.2036V35.2016ZM33.7564 30.7076C32.9625 31.9652 31.9048 33.0352 30.6564 33.8436L28.6194 28.9616C28.5685 28.7682 28.5858 28.5632 28.6683 28.3811C28.7508 28.199 28.8935 28.0508 29.0724 27.9616C29.2139 27.8943 29.3688 27.8601 29.5254 27.8616L34.6984 28.7346C34.4988 29.4401 34.1813 30.1068 33.7594 30.7066L33.7564 30.7076Z" fill="white"/>
</g>
<defs>
<clipPath id="clip0_37_883">
<rect width="50" height="48.688" fill="white" transform="translate(0.143066 0.155762)"/>
</clipPath>
</defs>
</svg>
