<svg xmlns="http://www.w3.org/2000/svg" width="28" height="28" viewBox="0 0 28 28" fill="none">
  <g clip-path="url(#clip0_645_201)">
    <path d="M24.0001 9.99997H21V11.793L22.8536 13.6465C22.9473 13.7403 23.0001 13.8672 23.0001 14V15.0918C23.5813 15.2984 24.0001 15.8479 24.0001 16.5001C24.0001 17.3285 23.3285 18.0001 22.5001 18.0001C21.6716 18.0001 21 17.3285 21 16.5001C21 15.8479 21.4188 15.2984 22 15.0918V14.2071L20.1465 12.3535C20.0528 12.2598 20 12.1328 20 12V9.99997H19V15.0918C19.5813 15.2984 20 15.8479 20 16.5001C20 17.3285 19.3284 18.0001 18.5 18.0001C17.6716 18.0001 17 17.3285 17 16.5001C17 15.8479 17.4187 15.2984 18 15.0918V9.99997H17V12C17 12.1328 16.9472 12.2598 16.8535 12.3535L15 14.2071V15.0918C15.5812 15.2984 16 15.8479 16 16.5001C16 17.3285 15.3284 18.0001 14.4999 18.0001C13.6715 18.0001 12.9999 17.3285 12.9999 16.5001C12.9999 15.8479 13.4187 15.2984 13.9999 15.0918V14C13.9999 13.8672 14.0527 13.7403 14.1464 13.6465L16 11.793V9.99997H12.9999C10.7907 9.99997 8.99988 11.7908 8.99988 14V19.0001C8.99988 21.2092 10.7907 23.0001 12.9999 23.0001H18.6377L24.3595 27.7683C24.545 27.9226 24.7725 28.0002 25.0001 28.0002C25.2061 28.0002 25.4122 27.9367 25.588 27.8093C25.9581 27.5402 26.0987 27.0539 25.9288 26.6286L24.4589 22.9539C26.4492 22.7236 28.0001 21.0521 28.0001 19.0001V14C28.0001 11.7908 26.2093 9.99997 24.0001 9.99997Z" fill="white"/>
    <path d="M11.9895 9.10285C11.9916 9.06812 11.9998 9.03517 11.9998 8.99989C11.9998 7.34557 10.6541 5.99985 8.99979 5.99985C7.34548 5.99985 5.99976 7.34557 5.99976 8.99989C5.99976 10.4671 7.05989 11.6865 8.45346 11.9447C9.10551 10.5091 10.4078 9.42873 11.9895 9.10285Z" fill="white"/>
    <path d="M7.99974 14C7.99974 13.6207 8.0504 13.2546 8.13085 12.8992C6.34072 12.5015 4.99989 10.9098 4.99989 8.99993C4.99989 6.79074 6.7908 4.99988 8.99994 4.99988C11.2091 4.99988 13 6.79074 13 8.99993H13.9998H16.0542C16.0542 8.8139 16.0464 8.62737 16.0303 8.43938L17.4966 7.59952C17.7281 7.4672 17.897 7.24796 17.9659 6.99063C18.0347 6.7333 17.9981 6.45888 17.8643 6.22841L15.8462 2.7645C15.5689 2.2894 14.9605 2.12729 14.4854 2.39975L13.0063 3.24644C12.6909 3.03257 12.353 2.84116 12 2.6771V0.99983C12 0.447577 11.5522 -0.000183105 11 -0.000183105H6.99991C6.44766 -0.000183105 5.9999 0.447577 5.9999 0.99983V2.6771C5.64687 2.84116 5.30897 3.03257 4.99354 3.24644L3.51452 2.39975C3.03843 2.12826 2.43149 2.2894 2.15366 2.7645L0.135565 6.22841C0.00177444 6.45888 -0.0348471 6.7333 0.0340015 6.99063C0.10285 7.24796 0.271797 7.4672 0.503246 7.59952L1.96957 8.43938C1.95346 8.62737 1.94565 8.8139 1.94565 8.99993C1.94565 9.18597 1.95346 9.3725 1.96957 9.56049L0.503246 10.4003C0.271797 10.5327 0.10285 10.7519 0.0340015 11.0092C-0.0348471 11.2666 0.00177444 11.541 0.135565 11.7715L2.15366 15.2354C2.43101 15.71 3.03795 15.8721 3.51452 15.6001L4.99354 14.7539C5.30897 14.9678 5.64687 15.1587 5.9999 15.3228V17C5.9999 17.5523 6.44766 18 6.99991 18H7.99974V14Z" fill="white"/>
  </g>
  <defs>
    <clipPath id="clip0_645_201">
      <rect width="28" height="28" fill="white"/>
    </clipPath>
  </defs>
</svg>