<svg width="24" height="24" viewBox="0 0 24 24" fill="none" xmlns="http://www.w3.org/2000/svg">
<g clip-path="url(#clip0_708_4875)">
<path d="M9.64061 13.9705L8.45833 12.7883L0.409985 20.218C-0.121859 20.7089 -0.138547 21.5437 0.373281 22.0555C0.885109 22.5674 1.71991 22.5507 2.21088 22.0188L9.64061 13.9705Z" fill="#873F30"/>
<path d="M2.17537 22.056C1.68051 22.5509 0.872903 22.5551 0.37345 22.0556C0.2257 21.9079 0.1222 21.7334 0.0626221 21.5478C0.504044 21.6914 1.00767 21.5864 1.3559 21.2381C1.36814 21.2259 1.38033 21.2129 1.39218 21.2003L8.82206 13.1519L9.64073 13.9705L2.2109 22.019C2.19904 22.0315 2.18723 22.0441 2.17537 22.056Z" fill="#6C3328"/>
<path d="M10.8049 9.98688L8.0824 13.2344L9.19455 14.3465L12.4421 11.624L10.8049 9.98688Z" fill="#873F30"/>
<path d="M10.8049 9.98688L9.92521 11.0363L10.1892 11.3002C10.3835 11.4945 10.3835 11.8095 10.1892 12.0038L8.52051 13.6724L9.19457 14.3465L12.4421 11.624L10.8049 9.98688Z" fill="#6C3328"/>
<path d="M8.53325 14.9752L7.45367 13.8956C7.14158 13.5835 7.14158 13.0775 7.45367 12.7654C7.76577 12.4533 8.27183 12.4533 8.58392 12.7654L9.6635 13.845C9.9756 14.1571 9.9756 14.6631 9.6635 14.9752C9.35141 15.2873 8.84535 15.2873 8.53325 14.9752Z" fill="#BA5D4F"/>
<path d="M9.66315 14.9752C9.50696 15.1313 9.3023 15.2092 9.0984 15.2093C8.89374 15.2093 8.68908 15.1313 8.5329 14.9752L7.7146 14.1569C7.87079 14.313 8.07544 14.391 8.27972 14.3905C8.48401 14.3909 8.68866 14.313 8.84485 14.1569C9.15718 13.8445 9.1568 13.3386 8.84485 13.0266L9.66315 13.8449C9.97547 14.1573 9.97552 14.6628 9.66315 14.9752Z" fill="#A34F41"/>
<path d="M12.2156 2.56451L14.6127 4.96161L10.8493 8.72496L8.45223 6.32786L12.2156 2.56451Z" fill="#BA5D4F"/>
<path d="M16.0999 13.9791L13.7028 11.582L17.4661 7.81862L19.8632 10.2157L16.0999 13.9791Z" fill="#A34F41"/>
<path d="M7.77777 7.15393L7.69452 7.07068C7.37877 6.75493 7.37877 6.24301 7.69452 5.92721L11.8137 1.80798C12.1295 1.49223 12.6414 1.49223 12.9572 1.80798L13.0405 1.89123C13.3562 2.20698 13.3562 2.7189 13.0405 3.0347L8.92123 7.15393C8.60548 7.46968 8.09356 7.46968 7.77777 7.15393Z" fill="#873F30"/>
<path d="M15.275 14.6511L15.3582 14.7344C15.674 15.0501 16.1859 15.0501 16.5017 14.7344L20.6209 10.6151C20.9367 10.2994 20.9367 9.78747 20.6209 9.47167L20.5377 9.38842C20.2219 9.07267 19.71 9.07267 19.3942 9.38842L15.275 13.5077C14.9592 13.8235 14.9592 14.3354 15.275 14.6511Z" fill="#6C3328"/>
<path d="M15.653 4.08093L18.3449 6.77285L12.6611 12.4566L9.96923 9.76471L15.653 4.08093Z" fill="#FCC16D"/>
<path d="M11.2969 11.0973L16.9807 5.41351L18.3431 6.77598L12.6594 12.4598L11.2969 11.0973Z" fill="#FCA62F"/>
<path d="M15.666 3.96776L15.0065 3.69814C14.7804 3.6057 14.5209 3.65792 14.3483 3.83065L9.71719 8.46172C9.54445 8.63445 9.49224 8.8939 9.58467 9.11998L9.8543 9.77951C9.96361 10.0469 10.3101 10.1167 10.5143 9.9124L15.7989 4.62781C16.0032 4.42353 15.9335 4.07708 15.666 3.96776Z" fill="#873F30"/>
<path d="M18.4612 6.76288L18.7308 7.42241C18.8232 7.64849 18.771 7.90799 18.5983 8.08067L13.9672 12.7117C13.7945 12.8845 13.535 12.9367 13.3089 12.8443L12.6494 12.5746C12.382 12.4653 12.3122 12.1189 12.5165 11.9146L17.8011 6.62999C18.0054 6.42571 18.3519 6.49546 18.4612 6.76288Z" fill="#6C3328"/>
<path d="M20.9026 19.7239H11.0831V18.3459C11.0831 18.0614 11.3138 17.8308 11.5982 17.8308H20.3874C20.6719 17.8308 20.9026 18.0614 20.9026 18.3459V19.7239Z" fill="#BA5D4F"/>
<path d="M20.9024 18.346V19.7239H19.8249V18.346C19.8249 18.0617 19.5941 17.8309 19.3098 17.8309H20.3874C20.6717 17.8309 20.9024 18.0617 20.9024 18.346Z" fill="#A34F41"/>
<path d="M23.0667 22.4287H8.91902C8.54374 22.4287 8.29446 22.0403 8.45069 21.6991L8.95085 20.6071C9.38407 19.6611 10.329 19.0546 11.3695 19.0546H20.6163C21.6567 19.0546 22.6016 19.6611 23.0349 20.6071L23.535 21.6991C23.6913 22.0403 23.4419 22.4287 23.0667 22.4287Z" fill="#873F30"/>
<path d="M23.0669 22.4287H21.6895C22.0645 22.4287 22.3138 22.0403 22.1577 21.6993L21.6576 20.6068C21.2243 19.6611 20.2792 19.0543 19.2391 19.0543H20.616C21.6565 19.0543 22.6017 19.6611 23.0349 20.6068L23.5351 21.6993C23.6912 22.0404 23.4419 22.4287 23.0669 22.4287Z" fill="#6C3328"/>
<path d="M22.3164 16.9779C22.2247 16.9779 22.1331 16.9428 22.0634 16.8726C21.9245 16.7329 21.9252 16.507 22.0649 16.368L22.451 15.9842C22.5908 15.8453 22.8167 15.846 22.9556 15.9857C23.0945 16.1255 23.0938 16.3514 22.9541 16.4903L22.568 16.8741C22.4984 16.9433 22.4074 16.9779 22.3164 16.9779Z" fill="#FCC16D"/>
<path d="M21.1905 16.1799C21.1617 16.1799 21.1325 16.1764 21.1034 16.1691C20.9123 16.1211 20.7962 15.9273 20.8441 15.7362L20.978 15.2023C21.026 15.0112 21.2199 14.8951 21.4109 14.943C21.602 14.991 21.718 15.1848 21.6701 15.3759L21.5362 15.9098C21.4956 16.0718 21.3502 16.1799 21.1905 16.1799Z" fill="#FCC16D"/>
<path d="M23.108 18.1085C22.9474 18.1085 22.8016 17.9993 22.7618 17.8364C22.7149 17.645 22.8321 17.4518 23.0236 17.4051L23.5584 17.2742C23.7499 17.2274 23.9429 17.3446 23.9898 17.536C24.0366 17.7275 23.9194 17.9206 23.728 17.9674L23.1931 18.0982C23.1646 18.1051 23.1361 18.1085 23.108 18.1085Z" fill="#FCC16D"/>
</g>
<defs>
<clipPath id="clip0_708_4875">
<rect width="24" height="24" fill="white"/>
</clipPath>
</defs>
</svg>
