<svg width="28" height="28" viewBox="0 0 28 28" fill="none" xmlns="http://www.w3.org/2000/svg">
<path d="M13.9999 9.76923C13.6781 9.77195 13.3576 9.81164 13.0448 9.88753C13.2633 10.0923 13.4384 10.3389 13.5596 10.6127C13.6809 10.8864 13.7459 11.1818 13.7508 11.4812C13.7556 11.7806 13.7002 12.0779 13.5879 12.3554C13.4755 12.633 13.3086 12.8851 13.0968 13.0969C12.8851 13.3086 12.633 13.4756 12.3554 13.588C12.0778 13.7003 11.7805 13.7557 11.4811 13.7508C11.1817 13.746 10.8864 13.681 10.6126 13.5597C10.3388 13.4385 10.0922 13.2634 9.88748 13.0449C9.69035 13.8993 9.76387 14.7938 10.0979 15.6046C10.4319 16.4153 11.0098 17.1021 11.7515 17.5697C12.4933 18.0373 13.3621 18.2625 14.2376 18.2143C15.1131 18.166 15.952 17.8466 16.6378 17.3003C17.3237 16.754 17.8226 16.0079 18.0655 15.1653C18.3083 14.3228 18.283 13.4256 17.9932 12.598C17.7033 11.7705 17.1632 11.0536 16.4477 10.5468C15.7322 10.0399 14.8768 9.76817 13.9999 9.76923Z" fill="white"/>
<path d="M27.198 12.0644L25.7903 10.6562C22.6609 7.53383 18.4207 5.78027 14 5.78027C9.5793 5.78027 5.33912 7.53383 2.20971 10.6562L0.802031 12.0644C0.547764 12.3185 0.346062 12.6203 0.208446 12.9524C0.070831 13.2845 0 13.6405 0 14C0 14.3595 0.070831 14.7154 0.208446 15.0475C0.346062 15.3797 0.547764 15.6814 0.802031 15.9355L2.20971 17.3437C5.33915 20.466 9.57932 22.2195 14 22.2195C18.4207 22.2195 22.6608 20.466 25.7903 17.3437L27.198 15.9355C27.4522 15.6814 27.6539 15.3797 27.7916 15.0475C27.9292 14.7154 28 14.3595 28 14C28 13.6405 27.9292 13.2845 27.7916 12.9524C27.6539 12.6203 27.4522 12.3185 27.198 12.0644ZM14 19.724C12.9099 19.7251 11.8423 19.4145 10.9228 18.829C10.0034 18.2435 9.27042 17.4074 8.81032 16.4192C8.35022 15.431 8.18214 14.3319 8.32589 13.2513C8.46963 12.1708 8.91921 11.1538 9.62166 10.3203C9.79976 10.0385 10.0384 9.79987 10.3202 9.62175C11.0245 9.02967 11.8613 8.6162 12.7596 8.41641C13.6578 8.21662 14.5909 8.23639 15.4799 8.47405C16.3688 8.71172 17.1873 9.16027 17.866 9.78165C18.5447 10.403 19.0635 11.1789 19.3784 12.0435C19.6934 12.9081 19.7952 13.8359 19.6751 14.7482C19.5551 15.6605 19.2169 16.5305 18.6891 17.2842C18.1612 18.0379 17.4594 18.6533 16.6431 19.078C15.8268 19.5027 14.9202 19.7243 14 19.724Z" fill="white"/>
<path d="M14 3.79628C13.802 3.79622 13.6122 3.71754 13.4722 3.57754C13.3321 3.43753 13.2535 3.24766 13.2534 3.04966V1.05869C13.2534 0.860673 13.3321 0.670768 13.4721 0.530751C13.6121 0.390734 13.802 0.312073 14 0.312073C14.198 0.312073 14.388 0.390734 14.528 0.530751C14.668 0.670768 14.7466 0.860673 14.7466 1.05869V3.04966C14.7466 3.24766 14.6679 3.43753 14.5279 3.57754C14.3879 3.71754 14.198 3.79622 14 3.79628Z" fill="white"/>
<path d="M19.9721 4.79174C19.845 4.79151 19.72 4.75882 19.609 4.69676C19.498 4.6347 19.4047 4.54533 19.3379 4.43712C19.2711 4.3289 19.233 4.20543 19.2273 4.07839C19.2216 3.95135 19.2484 3.82496 19.3052 3.71119L20.3007 1.72021C20.3895 1.54342 20.5448 1.40906 20.7325 1.34666C20.9202 1.28425 21.125 1.29889 21.302 1.38737C21.4789 1.47584 21.6135 1.63091 21.6762 1.81853C21.739 2.00616 21.7246 2.211 21.6365 2.38809L20.641 4.37906C20.5788 4.50316 20.4833 4.6075 20.3652 4.68039C20.247 4.75328 20.1109 4.79183 19.9721 4.79174Z" fill="white"/>
<path d="M8.02827 4.79174C7.88946 4.79183 7.75337 4.75328 7.63523 4.68039C7.5171 4.6075 7.4216 4.50316 7.35942 4.37906L6.36393 2.38809C6.27575 2.211 6.26144 2.00616 6.32416 1.81853C6.38687 1.63091 6.52147 1.47584 6.69841 1.38737C6.87536 1.29889 7.08017 1.28425 7.2679 1.34666C7.45563 1.40906 7.61092 1.54342 7.69968 1.72021L8.69516 3.71119C8.75197 3.82496 8.77879 3.95135 8.77308 4.07839C8.76737 4.20543 8.72932 4.3289 8.66253 4.43712C8.59574 4.54533 8.50243 4.6347 8.39143 4.69676C8.28044 4.75882 8.15543 4.79151 8.02827 4.79174Z" fill="white"/>
<path d="M14 27.6879C13.802 27.6879 13.6122 27.6092 13.4722 27.4692C13.3321 27.3292 13.2535 27.1393 13.2534 26.9413V24.9504C13.2534 24.7523 13.3321 24.5624 13.4721 24.4224C13.6121 24.2824 13.802 24.2037 14 24.2037C14.198 24.2037 14.388 24.2824 14.528 24.4224C14.668 24.5624 14.7466 24.7523 14.7466 24.9504V26.9413C14.7466 27.1393 14.6679 27.3292 14.5279 27.4692C14.3879 27.6092 14.198 27.6879 14 27.6879Z" fill="white"/>
<path d="M20.9692 26.6925C20.8304 26.6926 20.6943 26.654 20.5762 26.5811C20.458 26.5083 20.3625 26.4039 20.3003 26.2798L19.3049 24.2888C19.2167 24.1118 19.2024 23.9069 19.2651 23.7193C19.3278 23.5317 19.4624 23.3766 19.6393 23.2881C19.8163 23.1997 20.0211 23.185 20.2088 23.2474C20.3965 23.3098 20.5518 23.4442 20.6406 23.621L21.6361 25.6119C21.6929 25.7257 21.7197 25.8521 21.714 25.9791C21.7083 26.1062 21.6702 26.2297 21.6034 26.3379C21.5367 26.4461 21.4433 26.5355 21.3323 26.5975C21.2214 26.6596 21.0963 26.6923 20.9692 26.6925Z" fill="white"/>
<path d="M7.03121 26.6925C6.90405 26.6923 6.77904 26.6596 6.66805 26.5975C6.55705 26.5355 6.46374 26.4461 6.39695 26.3379C6.33016 26.2297 6.29211 26.1062 6.2864 25.9791C6.28069 25.8521 6.30751 25.7257 6.36431 25.6119L7.3598 23.621C7.44856 23.4442 7.60385 23.3098 7.79158 23.2474C7.9793 23.185 8.18412 23.1997 8.36107 23.2881C8.53801 23.3766 8.67261 23.5317 8.73532 23.7193C8.79803 23.9069 8.78373 24.1118 8.69555 24.2888L7.70006 26.2798C7.63788 26.4039 7.54238 26.5083 7.42425 26.5811C7.30611 26.654 7.17002 26.6926 7.03121 26.6925Z" fill="white"/>
</svg>
