<svg width="32" height="32" viewBox="0 0 32 32" fill="none" xmlns="http://www.w3.org/2000/svg">
<path d="M7.11062 14.7514L21.351 0.511215C21.6804 0.181592 22.1201 0 22.5889 0C23.0577 0 23.4973 0.181592 23.8267 0.511215L24.8754 1.55966C25.5578 2.24284 25.5578 3.35321 24.8754 4.03535L12.9174 15.9934L24.8887 27.9646C25.2181 28.2943 25.3999 28.7337 25.3999 29.2022C25.3999 29.6713 25.2181 30.1107 24.8887 30.4406L23.84 31.4888C23.5104 31.8184 23.0709 32 22.6021 32C22.1333 32 21.6937 31.8184 21.3643 31.4888L7.11062 17.2356C6.78048 16.905 6.59915 16.4635 6.60019 15.9941C6.59915 15.523 6.78048 15.0818 7.11062 14.7514Z" fill="white"/>
</svg>