<svg width="24" height="24" viewBox="0 0 24 24" fill="none" xmlns="http://www.w3.org/2000/svg">
<rect width="24" height="24" fill="#1E1E1E"/>
<g id="About" clip-path="url(#clip0_0_1)">
<rect width="1440" height="6872" transform="translate(-845 -1239)" fill="white"/>
<g id="Frame 1958">
<g id="Frame 1957">
<g id="Frame 1955">
<g id="Frame 1953">
<g id="Frame 1950">
<g id="light-bulb" clip-path="url(#clip1_0_1)">
<g id="Group">
<path id="XMLID_49_" d="M14.7362 20.9728V21.6741C14.7362 22.2321 14.3264 22.6963 13.793 22.7753L13.6202 23.4123C13.5264 23.758 13.2152 24 12.8547 24H11.1412C10.7807 24 10.4696 23.758 10.3757 23.4123L10.2078 22.7753C9.66956 22.6914 9.25968 22.2321 9.25968 21.6691V20.9679C9.25968 20.5926 9.56092 20.2914 9.93623 20.2914H14.0597C14.435 20.2963 14.7362 20.5975 14.7362 20.9728ZM17.9115 11.521C17.9115 13.116 17.2794 14.563 16.2523 15.6247C15.472 16.4346 14.9683 17.4667 14.8004 18.5679C14.7264 19.042 14.3165 19.3926 13.8325 19.3926H10.1634C9.68437 19.3926 9.26956 19.0469 9.20042 18.5728C9.02759 17.4716 8.51894 16.4247 7.7387 15.6198C6.73129 14.5728 6.10413 13.1506 6.08931 11.5852C6.05475 8.2963 8.67203 5.63457 11.9609 5.60988C15.2449 5.58519 17.9115 8.24198 17.9115 11.521ZM12.6671 7.94074C12.6671 7.57531 12.3708 7.27407 12.0004 7.27407C9.64981 7.27407 7.73376 9.18519 7.73376 11.5407C7.73376 11.9062 8.03005 12.2074 8.40042 12.2074C8.76586 12.2074 9.06709 11.9111 9.06709 11.5407C9.06709 9.92099 10.3856 8.60741 12.0004 8.60741C12.3708 8.60741 12.6671 8.31111 12.6671 7.94074ZM12.0004 3.66914C12.3659 3.66914 12.6671 3.37284 12.6671 3.00247V0.666667C12.6671 0.301235 12.3708 0 12.0004 0C11.6301 0 11.3338 0.296296 11.3338 0.666667V3.00247C11.3338 3.37284 11.635 3.66914 12.0004 3.66914ZM4.15351 11.516C4.15351 11.1506 3.85721 10.8494 3.48684 10.8494H1.15104C0.78561 10.8494 0.484375 11.1457 0.484375 11.516C0.484375 11.8815 0.780671 12.1827 1.15104 12.1827H3.48684C3.85721 12.1827 4.15351 11.8864 4.15351 11.516ZM22.8498 10.8494H20.514C20.1486 10.8494 19.8473 11.1457 19.8473 11.516C19.8473 11.8815 20.1436 12.1827 20.514 12.1827H22.8498C23.2152 12.1827 23.5165 11.8864 23.5165 11.516C23.5165 11.1506 23.2202 10.8494 22.8498 10.8494ZM5.51154 17.0667L3.85721 18.721C3.59549 18.9827 3.59549 19.4025 3.85721 19.6642C3.98561 19.7926 4.15845 19.8568 4.32635 19.8568C4.49425 19.8568 4.66709 19.7926 4.79549 19.6642L6.44981 18.0099C6.71154 17.7481 6.71154 17.3284 6.44981 17.0667C6.19302 16.8049 5.76833 16.8049 5.51154 17.0667ZM18.0202 6.16296C18.1881 6.16296 18.3609 6.09877 18.4893 5.97037L20.1436 4.31605C20.4054 4.05432 20.4054 3.63457 20.1436 3.37284C19.8819 3.11111 19.4622 3.11111 19.2004 3.37284L17.5461 5.02716C17.2844 5.28889 17.2844 5.70864 17.5461 5.97037C17.6794 6.09877 17.8473 6.16296 18.0202 6.16296ZM5.51154 5.96543C5.63993 6.09383 5.81277 6.15802 5.98067 6.15802C6.14857 6.15802 6.32141 6.09383 6.44981 5.96543C6.71154 5.7037 6.71154 5.28395 6.44981 5.02222L4.79549 3.3679C4.53376 3.10617 4.114 3.10617 3.85228 3.3679C3.59055 3.62963 3.59055 4.04938 3.85228 4.31111L5.51154 5.96543ZM18.4893 17.0667C18.2276 16.8049 17.8078 16.8049 17.5461 17.0667C17.2844 17.3284 17.2844 17.7481 17.5461 18.0099L19.2004 19.6642C19.3288 19.7926 19.5017 19.8568 19.6696 19.8568C19.8375 19.8568 20.0103 19.7926 20.1387 19.6642C20.4004 19.4025 20.4004 18.9827 20.1387 18.721L18.4893 17.0667Z" fill="#1925FF"/>
</g>
</g>
</g>
</g>
</g>
</g>
</g>
</g>
<defs>
<clipPath id="clip0_0_1">
<rect width="1440" height="6872" fill="white" transform="translate(-845 -1239)"/>
</clipPath>
<clipPath id="clip1_0_1">
<rect width="24" height="24" fill="white"/>
</clipPath>
</defs>
</svg>
