<svg width="177" height="27" viewBox="0 0 177 27" fill="none" xmlns="http://www.w3.org/2000/svg">
<path d="M43.584 11.1761H30.7526L31.6577 12.7239L33.5205 15.9107H38.5532C38.0583 17.4909 37.0965 18.8641 35.8338 19.8703C35.256 20.3328 34.6135 20.7162 33.9245 21.0083L30.0434 14.3629L28.1806 11.1781L27.4027 9.84541L26.0693 7.56538V7.56335L25.7197 6.96291L24.7015 5.22246L23.3094 2.83896L21.9174 5.22246L20.5172 7.61609L19.2141 9.84541V9.84745L18.4363 11.1802L17.7796 12.304V12.306L16.424 14.6246L15.1208 16.856L13.759 14.5191L11.8054 11.1761L8.32421 5.2184H10.9306L14.4097 11.1741L15.0622 12.2898L15.7148 11.1741L17.8544 7.51061L16.5129 5.2184L13.7692 0.524429H0.000244141L2.7419 5.2184L6.22101 11.1741L10.9669 19.2962L12.3267 21.627L15.0885 26.3534L17.8807 21.5763L19.1555 19.3936L19.1818 19.3469V19.345L21.974 14.5678L22.574 13.5414L23.2771 12.3385L24.6105 14.6206L26.534 17.9128L28.5361 21.339L31.5425 26.4853C33.2699 26.3839 34.9084 25.9437 36.3894 25.2276C37.0602 24.903 37.7006 24.5257 38.3007 24.0937C40.9777 22.1787 42.9031 19.276 43.5457 15.9107C43.6992 15.1073 43.778 14.2798 43.778 13.4338C43.778 12.661 43.7133 11.9064 43.584 11.1761Z" fill="white"/>
<path d="M24.895 19.5703L24.1132 18.2314L24.1091 18.2254C23.8101 17.8115 23.5495 17.3673 23.3333 16.8987V16.8967L23.307 16.85L20.5513 21.5663L20.5149 21.6292L21.3897 23.1242L23.3677 26.5118H28.95L28.8692 26.3759L24.895 19.5703Z" fill="#9C9C9C"/>
<path d="M27.356 5.3565L27.6348 5.83727C28.4006 5.51879 29.2228 5.31594 30.0855 5.24697C30.3058 5.22871 30.528 5.2206 30.7543 5.2206C33.0514 5.2206 35.1285 6.17197 36.6154 7.70349L39.0661 5.2206L40.0258 4.24894C38.1307 2.3178 35.6395 0.978983 32.8555 0.526625C32.8534 0.524597 32.8515 0.524597 32.8474 0.524597C32.1645 0.411001 31.4655 0.354202 30.7523 0.354202C30.5906 0.354202 30.431 0.358259 30.2714 0.364345C29.7219 0.382601 29.1825 0.437371 28.6531 0.524597C27.4267 0.723391 26.2549 1.09664 25.1699 1.61593L27.2752 5.2206L27.356 5.3565Z" fill="#9C9C9C"/>
<mask id="mask0_15_83" style="mask-type:luminance" maskUnits="userSpaceOnUse" x="50" y="3" width="127" height="21">
<path d="M177 3.84189H50.7427V23.084H177V3.84189Z" fill="white"/>
</mask>
<g mask="url(#mask0_15_83)">
<path d="M56.6235 22.0712L51.1599 4.22834H55.2018L58.9371 17.4575L63.0069 4.22834H66.2961L70.3939 17.4575L74.129 4.22834H78.1709L72.7074 22.0712H68.3311L64.6516 10.2949L60.9999 22.0712H56.6235ZM92.6658 22.0712L91.4951 18.8595H83.7177L82.547 22.0712H78.3937L85.2229 4.22834H89.9897L96.847 22.0712H92.6658ZM84.9442 15.5713H90.2963L87.6203 8.2812L84.9442 15.5713ZM106.853 4.22834C108.73 4.22834 110.31 4.8061 111.592 5.96163C112.874 7.11718 113.516 8.53611 113.516 10.2184C113.516 11.9008 112.874 13.3197 111.592 14.4752C110.31 15.6307 108.73 16.2085 106.853 16.2085H103.425V22.0712H99.5779V4.22834H106.853ZM106.853 12.9204C107.671 12.9204 108.349 12.6654 108.888 12.1557C109.427 11.6289 109.697 10.9831 109.697 10.2184C109.697 9.43675 109.427 8.79099 108.888 8.2812C108.349 7.77141 107.671 7.51652 106.853 7.51652H103.425V12.9204H106.853ZM124.132 4.22834C126.009 4.22834 127.588 4.8061 128.87 5.96163C130.153 7.11718 130.794 8.53611 130.794 10.2184C130.794 11.9008 130.153 13.3197 128.87 14.4752C127.588 15.6307 126.009 16.2085 124.132 16.2085H120.703V22.0712H116.856V4.22834H124.132ZM124.132 12.9204C124.949 12.9204 125.628 12.6654 126.167 12.1557C126.706 11.6289 126.975 10.9831 126.975 10.2184C126.975 9.43675 126.706 8.79099 126.167 8.2812C125.628 7.77141 124.949 7.51652 124.132 7.51652H120.703V12.9204H124.132ZM153.149 12.487V13.8635C153.149 16.4125 152.257 18.4771 150.473 20.0574C148.689 21.6379 146.384 22.428 143.56 22.428C140.549 22.428 138.05 21.5359 136.061 19.7516C134.091 17.9503 133.106 15.7582 133.106 13.1752C133.106 10.5753 134.082 8.37468 136.033 6.5734C138.003 4.77212 140.438 3.87148 143.337 3.87148C145.158 3.87148 146.821 4.25383 148.326 5.01851C149.832 5.76622 151.002 6.76881 151.839 8.02631L148.549 9.75961C148.085 9.02891 147.379 8.43415 146.431 7.97532C145.502 7.51652 144.461 7.28711 143.309 7.28711C141.45 7.28711 139.917 7.84788 138.709 8.96944C137.52 10.074 136.925 11.4759 136.925 13.1752C136.925 14.8576 137.529 16.251 138.737 17.3555C139.964 18.4431 141.58 18.9869 143.588 18.9869C145.074 18.9869 146.301 18.6896 147.267 18.0947C148.252 17.483 148.921 16.6504 149.274 15.5968H143.364V12.487H153.149ZM173.14 19.7516C171.17 21.5359 168.773 22.428 165.948 22.428C163.123 22.428 160.726 21.5359 158.756 19.7516C156.805 17.9503 155.829 15.7497 155.829 13.1498C155.829 10.5498 156.805 8.35768 158.756 6.5734C160.726 4.77212 163.123 3.87148 165.948 3.87148C168.773 3.87148 171.17 4.77212 173.14 6.5734C175.11 8.35768 176.094 10.5498 176.094 13.1498C176.094 15.7497 175.11 17.9503 173.14 19.7516ZM161.46 17.3555C162.668 18.4431 164.164 18.9869 165.948 18.9869C167.731 18.9869 169.228 18.4431 170.436 17.3555C171.643 16.251 172.248 14.8491 172.248 13.1498C172.248 11.4504 171.643 10.0485 170.436 8.94394C169.228 7.83939 167.731 7.28711 165.948 7.28711C164.164 7.28711 162.668 7.83939 161.46 8.94394C160.252 10.0485 159.648 11.4504 159.648 13.1498C159.648 14.8491 160.252 16.251 161.46 17.3555Z" fill="white"/>
</g>
</svg>
