<svg width="28" height="28" viewBox="0 0 28 28" fill="none" xmlns="http://www.w3.org/2000/svg">
<g clip-path="url(#clip0_167_1800)">
<path d="M21.6019 6.38129H6.39773C4.41596 6.38129 2.81006 7.98752 2.81006 9.96895V20.1492C2.81006 22.1306 4.41596 23.7369 6.39773 23.7369H9.13559V27.47C9.13559 27.4935 9.16212 27.5072 9.18127 27.4935L14.7863 23.7778L16.192 23.7516H20.1361L21.6019 23.7369C23.5833 23.7369 25.1896 22.1306 25.1896 20.1492V9.96895C25.1896 7.98752 23.5833 6.38129 21.6019 6.38129ZM8.61462 11.7744C8.61462 10.7828 9.41841 9.97869 10.4103 9.97869C11.4019 9.97869 12.2056 10.7828 12.2056 11.7744C12.2056 12.7663 11.4019 13.5701 10.4103 13.5701C9.41841 13.5701 8.61462 12.7663 8.61462 11.7744ZM13.917 20.7474C11.6407 20.7474 9.76035 19.1523 9.47282 17.0862H18.3615C18.0737 19.1523 16.1937 20.7474 13.917 20.7474ZM17.6118 13.5701C16.6203 13.5701 15.8162 12.7663 15.8162 11.7744C15.8162 10.7828 16.6203 9.97869 17.6118 9.97869C18.6037 9.97869 19.4075 10.7828 19.4075 11.7744C19.4075 12.7663 18.6037 13.5701 17.6118 13.5701Z" fill="white"/>
<path d="M25.9312 18.3662V11.9399H26.8206C27.4719 11.9399 27.9999 12.468 27.9999 13.1193V17.1873C27.9999 17.8385 27.4719 18.3666 26.8206 18.3666H25.9312V18.3662Z" fill="white"/>
<path d="M0 17.1873V13.1193C0 12.468 0.528023 11.9399 1.17932 11.9399H2.06876V18.3666H1.17932C0.528023 18.3662 0 17.8382 0 17.1873Z" fill="white"/>
<path d="M15.6621 1.74429C15.6621 2.53129 15.1384 3.19803 14.4213 3.41468V4.9225H13.4136V3.41468C12.6965 3.19803 12.1729 2.53129 12.1729 1.74429C12.1729 0.782629 12.9555 0 13.9175 0C14.8795 0 15.6621 0.782629 15.6621 1.74429Z" fill="white"/>
</g>
<defs>
<clipPath id="clip0_167_1800">
<rect width="28" height="28" fill="white"/>
</clipPath>
</defs>
</svg>
