<svg xmlns="http://www.w3.org/2000/svg" width="40" height="40" viewBox="0 0 40 40" fill="none">
  <path d="M13.6919 38.3066L13.7688 38.3836C13.7688 38.3836 13.7688 38.3836 13.6919 38.3066Z" fill="#1D2943"/>
  <path d="M28.9231 3.23122C28.9231 3.23122 28.8462 3.23122 28.8462 3.1543C28.8462 3.1543 28.9231 3.1543 28.9231 3.23122Z" fill="#1D2943"/>
  <path d="M11.6152 9.69141L25.6152 1.69141L11.6152 9.69141Z" fill="#4C5C75"/>
  <path d="M29.2306 28.7688C29.2306 29.3073 28.846 29.9996 28.3844 30.3073L14.3844 38.3073C14.1537 38.4611 13.9229 38.4611 13.769 38.3842C13.769 38.3842 13.6921 38.3842 13.6921 38.3073L10.9998 36.7688C10.846 36.6919 10.769 36.4611 10.769 36.2304V11.2304C10.769 10.6919 11.1537 9.9996 11.6152 9.6919L25.6152 1.6919C25.846 1.53806 26.0767 1.53806 26.2306 1.61498L28.9229 3.15344C28.9229 3.15344 28.9229 3.15344 28.846 3.15344C28.846 3.15344 28.9229 3.15344 28.9229 3.23036C29.0767 3.30729 29.2306 3.46113 29.2306 3.76883V28.7688Z" fill="#1D2943"/>
  <path d="M13.6919 38.3066L13.7688 38.3836C13.7688 38.3836 13.7688 38.3836 13.6919 38.3066Z" fill="#1D2943"/>
  <path d="M28.9231 3.23122C28.9231 3.23122 28.8462 3.23122 28.8462 3.1543C28.8462 3.1543 28.9231 3.1543 28.9231 3.23122Z" fill="#1D2943"/>
  <path d="M28.9229 3.23036C28.769 3.15344 28.5383 3.15344 28.3075 3.30729L14.3844 11.3073C13.9229 11.615 13.4614 12.3073 13.5383 12.8457L13.6152 37.8457C13.6152 38.1534 13.6921 38.3073 13.846 38.3842L11.0767 36.7688C10.9229 36.6919 10.846 36.4611 10.846 36.2304L10.769 11.2304C10.769 10.6919 11.1537 9.9996 11.6152 9.6919L25.6152 1.6919C25.846 1.53806 26.0767 1.53806 26.2306 1.61498L28.9229 3.23036Z" fill="#4C5C75"/>
  <path d="M28.3074 3.22973C28.8458 2.99896 29.2304 3.22973 29.2304 3.76819V28.7682C29.2304 29.3067 28.8458 29.999 28.3843 30.3067L14.3843 38.3067C13.9227 38.6143 13.5381 38.3836 13.4612 37.7682L13.3843 12.7682C13.3843 12.2297 13.7689 11.5374 14.2304 11.2297L28.3074 3.22973Z" fill="#1D2943"/>
  <path d="M14.5383 35.6146L14.4614 14.0762L28.2307 6.07617L28.3076 27.6146L14.5383 35.6146Z" fill="white"/>
  <path d="M23.5382 7.2294C23.692 7.15247 23.8459 7.2294 23.8459 7.38324C23.8459 7.53709 23.692 7.76786 23.5382 7.9217L18.3844 10.9217C18.2305 10.9986 18.0767 10.9217 18.0767 10.7679C18.0767 10.614 18.2305 10.3832 18.3844 10.2294L23.5382 7.2294Z" fill="#4C5C75"/>
  <path d="M24.3844 6.69229C24.5382 6.61536 24.692 6.69229 24.692 6.84613C24.692 7.0769 24.5382 7.30767 24.3844 7.38459C24.2305 7.46152 24.0767 7.38459 24.0767 7.23075C24.0767 6.99998 24.2305 6.76921 24.3844 6.69229Z" fill="#4C5C75"/>
  <path d="M23.692 31.1541C23.9997 31.0003 24.2305 31.1541 24.2305 31.4618C24.2305 31.7695 23.9997 32.1541 23.7689 32.308L19.7689 34.6156C19.4612 34.7695 19.2305 34.6156 19.2305 34.3079C19.2305 34.0003 19.4612 33.6156 19.7689 33.4618L23.692 31.1541Z" fill="#4C5C75"/>
  <path d="M26.3075 3.61538C26.3075 3.69231 26.2306 3.76923 26.1537 3.84615C25.6922 4.07692 24.9998 4.07692 24.5383 3.84615C24.4614 3.76923 24.3845 3.76923 24.3075 3.69231C24.0768 3.46154 24.1537 3.15385 24.5383 2.92308C24.9998 2.69231 25.6922 2.69231 26.1537 2.92308C26.4614 3.07692 26.5383 3.38462 26.3075 3.61538Z" fill="#EDEEF2"/>
  <path d="M26.3076 3.61523C26.3076 3.69216 26.2307 3.76908 26.1538 3.846C25.6922 4.07677 24.9999 4.07677 24.5384 3.846C24.4615 3.76908 24.3845 3.76908 24.3076 3.69216C24.3845 3.61523 24.3845 3.61523 24.5384 3.53831C24.9999 3.30754 25.6922 3.30754 26.1538 3.53831C26.2307 3.53831 26.3076 3.61523 26.3076 3.61523Z" fill="#111D33"/>
  <path d="M12.0768 13.7696C12.3845 13.9234 12.5383 14.3081 12.5383 14.6158V17.6158C12.5383 17.9234 12.3075 18.0773 12.0768 17.9234C11.846 17.7696 11.6152 17.385 11.6152 17.0773V14.0773C11.6152 13.6927 11.846 13.6158 12.0768 13.7696Z" fill="white"/>
  <path d="M12.0768 18.6912C12.3845 18.8451 12.5383 19.2297 12.5383 19.5374V22.5374C12.5383 22.8451 12.3075 22.9989 12.0768 22.8451C11.846 22.6912 11.6152 22.3066 11.6152 21.9989V18.9989C11.6152 18.6912 11.846 18.5374 12.0768 18.6912Z" fill="white"/>
  <path d="M24.9997 11.3066C25.5382 12.1528 25.692 13.3066 25.2305 14.9989L25.9228 13.8451C26.1536 14.9989 25.8459 16.3066 24.9997 17.6143L26.3844 16.1528C26.4613 17.6913 25.8459 19.2297 24.4613 20.7682L25.9997 19.6913C25.769 21.6913 24.2305 23.6913 21.8459 25.5374L23.4613 24.7682C22.5382 26.2297 21.2305 27.3836 19.5382 27.6913C18.2305 27.7682 17.4613 26.9989 17.0767 25.0759L17.769 25.4605C16.9997 24.0759 16.9997 22.5374 17.9228 20.6913C17.9228 21.3066 18.0767 21.6913 18.3074 21.7682C18.4613 19.922 19.0767 18.1528 20.3844 16.6913C20.3844 17.2297 20.3844 17.6913 20.5382 17.9989C20.5382 16.922 20.9997 15.7682 21.769 14.9989C21.769 15.3066 21.8459 15.5374 22.0767 15.5374C22.4613 14.1528 23.5382 12.7682 24.9997 11.3066Z" fill="#78E75A"/>
  <path d="M24.6152 13.0762C23.3844 17.8454 20.6921 28.3069 16.6152 30.3069C16.1537 30.5377 16.1537 29.6916 16.6152 29.4608C20.3844 27.8454 23.3844 17.3069 24.6152 13.0762Z" fill="#50B069"/>
</svg>