<svg width="17" height="20" viewBox="0 0 17 20" fill="none" xmlns="http://www.w3.org/2000/svg">
<g id="Frame 13">
<path id="Vector 16" d="M8.24795 0.258362C5.15002 2.85589 3.37165 4.15766 0.0961914 6.09756C0.413796 12.5821 2.17161 15.9325 8.27686 19.7416C13.8863 16.0787 15.7833 13.1585 16.4575 6.06866C13.0881 4.16493 11.2938 2.89201 8.24795 0.258362Z" fill="url(#paint0_linear_129_653)"/>
<g id="Group 6">
<path id="Vector" d="M11.4692 10.4937C8.62496 10.8916 8.11932 11.397 7.74009 14.3433C7.72745 14.44 7.56312 14.44 7.55048 14.3433C7.17125 11.397 6.66562 10.9023 3.82141 10.4937C3.70764 10.4829 3.70764 10.3432 3.82141 10.3324C6.66562 9.93455 7.17125 9.43991 7.55048 6.49359C7.56312 6.39681 7.72745 6.39681 7.74009 6.49359C8.11932 9.43991 8.62496 9.92379 11.4692 10.3324C11.5703 10.3432 11.5703 10.4722 11.4692 10.4937Z" fill="white"/>
<path id="Vector_2" d="M12.6788 7.11123C11.8055 7.26206 11.556 7.50985 11.4063 8.39326C11.3939 8.49022 11.2317 8.49022 11.2192 8.39326C11.0695 7.50985 10.82 7.26206 9.94668 7.10046C9.84687 7.07891 9.84687 6.96041 9.94668 6.93886C10.8075 6.78803 11.0695 6.54025 11.2192 5.65683C11.2317 5.55987 11.3939 5.55987 11.4063 5.65683C11.556 6.54025 11.8055 6.78803 12.6788 6.94963C12.7786 6.97118 12.7786 7.10046 12.6788 7.11123Z" fill="white"/>
</g>
</g>
<defs>
<linearGradient id="paint0_linear_129_653" x1="8.27686" y1="0.258362" x2="8.30576" y2="17.0533" gradientUnits="userSpaceOnUse">
<stop stop-color="#FFAA38"/>
<stop offset="1" stop-color="#FE4D0E"/>
</linearGradient>
</defs>
</svg>
