<svg xmlns="http://www.w3.org/2000/svg" width="25.453" height="19.524" viewBox="0 0 25.453 19.524">
  <g id="Group_3659" data-name="Group 3659" transform="translate(4895 99.967)">
    <path id="Path_8762" data-name="Path 8762" d="M15.021,3.5C9.359,3.5,4.855,7.114,4.855,11.783c0,2.759,1.894,4.718,3.557,5.919v3.8a.58.58,0,0,0,.262.486h0a.58.58,0,0,0,.549.043h0a13.29,13.29,0,0,0,3.823-2.812,13.077,13.077,0,0,0,2.27.26,11.133,11.133,0,0,0,6.967-2.1,6.952,6.952,0,0,0,2.693-5.59c0-4.734-4.325-8.284-9.958-8.284Zm0,1.158c5.062,0,8.8,3.077,8.8,7.126A5.777,5.777,0,0,1,21.508,16.5a10.03,10.03,0,0,1-6.19,1.822,13.4,13.4,0,0,1-2.366-.289h0a.582.582,0,0,0-.539.183h0A11.545,11.545,0,0,1,9.568,20.5V17.413a.581.581,0,0,0-.25-.477c-1.528-1.052-3.306-2.791-3.306-5.153,0-3.97,3.916-7.128,9.01-7.128Z" transform="translate(-4899.855 -103.467)" fill="#fff"/>
    <path id="Path_8766" data-name="Path 8766" d="M26.351,11.825a.579.579,0,0,0-.348,1.1h0a5.593,5.593,0,0,1,2.423,1.337,2.7,2.7,0,0,1,.73,1.965c0,1.369-1.312,2.522-2.12,3.079a.579.579,0,0,0-.252.477v1.811a4.143,4.143,0,0,1-1.359-1.009h0a.583.583,0,0,0-.542-.183h0c-.182.035-.359.083-.534.13h0a3.49,3.49,0,0,1-.836.157A5.351,5.351,0,0,1,20,19.613h0a.58.58,0,1,0-.688.934h0a6.559,6.559,0,0,0,4.195,1.3,4.26,4.26,0,0,0,1.138-.2h0l.17-.044a5.733,5.733,0,0,0,1.553,1.1,3.93,3.93,0,0,0,.874.309h0a.576.576,0,0,0,.693-.568V20.069a5.01,5.01,0,0,0,2.371-3.842,3.883,3.883,0,0,0-.992-2.7,6.621,6.621,0,0,0-2.966-1.7h0Z" transform="translate(-4899.855 -103.467)" fill="#ff0"/>
  </g>
</svg>
