<svg xmlns="http://www.w3.org/2000/svg" width="27.966" height="28.658" viewBox="0 0 27.966 28.658">
  <g id="Group_3661" data-name="Group 3661" transform="translate(4911.239 75.814)">
    <g id="Group_3660" data-name="Group 3660" transform="translate(-14 -7)">
      <path id="Path_8763" data-name="Path 8763" d="M27.857,25.566l.919.525.026-.053a10.452,10.452,0,0,0,1.97-6.147A10.586,10.586,0,1,0,20.213,30.452a9.665,9.665,0,0,0,2.916-.42l.053-.026-.21-1.051-.079.026a9.71,9.71,0,0,1-2.732.42,9.508,9.508,0,1,1,7.7-3.888Z" transform="translate(-4903.546 -73.722)" fill="#fff"/>
      <path id="Path_8764" data-name="Path 8764" d="M23.446,5.53A12.647,12.647,0,0,0,14.488,1.8a12,12,0,0,0-3.389.473l-.053.026.184.972.079-.026A12.054,12.054,0,0,1,14.488,2.8,11.677,11.677,0,1,1,2.8,14.462,11.535,11.535,0,0,1,4.952,7.711L5,7.632l-.867-.5-.026.053a12.442,12.442,0,0,0-2.312,7.3A12.662,12.662,0,1,0,23.446,5.53Z" transform="translate(-4897.795 -68.266)" fill="#fff"/>
      <path id="Path_8765" data-name="Path 8765" d="M41.937,40.106l-2.18-2.049s-1.13,1.261-1.629,1.077a8.331,8.331,0,0,1-2.785-3.494c-.236-.5,1.419-1.366,1.419-1.366L35.238,31.7s-2.417,1.208-2.259,2.627A9.919,9.919,0,0,0,38.6,41.682C40.1,42.418,41.937,40.106,41.937,40.106Z" transform="translate(-4920.778 -90.311)" fill="#ff0"/>
    </g>
    <path id="Path_8767" data-name="Path 8767" d="M41.537,432.5a1.537,1.537,0,1,0,1.537,1.537A1.538,1.538,0,0,0,41.537,432.5Zm0,2.458a.922.922,0,1,1,.922-.922A.923.923,0,0,1,41.537,434.96Z" transform="translate(-4950.932 -482.731)" fill="#ff0"/>
    <path id="Path_8768" data-name="Path 8768" d="M412.458,32.5a2.458,2.458,0,1,0,2.458,2.458A2.461,2.461,0,0,0,412.458,32.5Zm0,4.3A1.844,1.844,0,1,1,414.3,34.96,1.846,1.846,0,0,1,412.458,36.8Z" transform="translate(-5298.19 -108.315)" fill="#ff0"/>
    <path id="Path_8769" data-name="Path 8769" d="M81.537,45.575A1.537,1.537,0,1,0,80,44.039,1.538,1.538,0,0,0,81.537,45.575Zm0-2.459a.922.922,0,1,1-.922.922A.923.923,0,0,1,81.537,43.117Z" transform="translate(-4988.474 -117.701)" fill="#ff0"/>
    <circle id="Ellipse_480" data-name="Ellipse 480" cx="0.461" cy="0.461" r="0.461" transform="translate(-4891.571 -75.199)" fill="#ff0"/>
    <circle id="Ellipse_481" data-name="Ellipse 481" cx="0.461" cy="0.461" r="0.461" transform="translate(-4885.425 -68.131)" fill="#ff0"/>
    <circle id="Ellipse_482" data-name="Ellipse 482" cx="0.461" cy="0.461" r="0.461" transform="translate(-4885.117 -52.38)" fill="#ff0"/>
    <circle id="Ellipse_483" data-name="Ellipse 483" cx="0.461" cy="0.461" r="0.461" transform="translate(-4889.728 -48.077)" fill="#ff0"/>
    <circle id="Ellipse_484" data-name="Ellipse 484" cx="0.461" cy="0.461" r="0.461" transform="translate(-4905.093 -48.692)" fill="#ff0"/>
    <circle id="Ellipse_485" data-name="Ellipse 485" cx="0.461" cy="0.461" r="0.461" transform="translate(-4911.239 -54.531)" fill="#ff0"/>
    <circle id="Ellipse_486" data-name="Ellipse 486" cx="0.461" cy="0.461" r="0.461" transform="translate(-4911.239 -70.589)" fill="#ff0"/>
  </g>
</svg>
