<svg width="24" height="24" viewBox="0 0 24 24" fill="none" xmlns="http://www.w3.org/2000/svg">
<path d="M3.70612 1.57434H16.9578V23.0089H3.70612V1.57434Z" fill="#E6E6E6"/>
<path d="M10.2058 7.12701C8.76058 7.12701 7.57872 8.30594 7.57872 9.7512C7.57872 11.1965 8.76058 12.3754 10.2058 12.3754C11.6511 12.3754 12.83 11.1965 12.83 9.7512C12.83 8.30594 11.6511 7.12701 10.2058 7.12701Z" fill="#37C871"/>
<path d="M4.95453 0.375C3.92347 0.375004 3.08032 1.21816 3.08032 2.24921V21.7508C3.08032 22.7819 3.92347 23.625 4.95453 23.625H10.397H13.1984C13.4047 23.6242 13.5715 23.457 13.5719 23.2507L16.9542 14.5396C17.1624 14.5404 17.3314 14.3714 17.3306 14.1631V2.24921C17.3306 1.21816 16.4853 0.375004 15.4542 0.375H4.95453ZM5.33099 1.87569H7.2052C7.41115 1.87651 7.5779 2.04326 7.57872 2.24921V2.62566C7.57872 2.8372 7.74363 2.99919 7.95518 2.99919H12.4565C12.668 2.99919 12.83 2.8372 12.83 2.62566V2.24921C12.8308 2.04326 12.9976 1.87651 13.2035 1.87569H15.0807C15.4904 1.87567 15.8307 2.2159 15.8307 2.62566V13.8006L11.5029 22.1243H10.3552H5.33099C4.92123 22.1243 4.58101 21.7841 4.58101 21.3743V2.62566C4.58101 2.21591 4.92123 1.87569 5.33099 1.87569Z" fill="#666666"/>
<path d="M6.83149 19.5002C6.78223 19.5001 6.73341 19.5096 6.68783 19.5282C6.64225 19.5469 6.6008 19.5744 6.56583 19.6091C6.53087 19.6438 6.5031 19.6851 6.48409 19.7305C6.46507 19.7759 6.45519 19.8247 6.45502 19.8739C6.45482 19.9234 6.46444 19.9725 6.48329 20.0182C6.50214 20.064 6.52985 20.1056 6.56485 20.1406C6.59985 20.1756 6.64143 20.2033 6.68719 20.2221C6.73296 20.241 6.78199 20.2506 6.83149 20.2504H12.03C12.0793 20.2502 12.128 20.2404 12.1735 20.2213C12.2189 20.2023 12.2602 20.1746 12.2949 20.1396C12.3296 20.1046 12.357 20.0632 12.3757 20.0176C12.3944 19.972 12.4039 19.9232 12.4037 19.8739C12.4034 19.7749 12.3639 19.6801 12.2939 19.6101C12.2239 19.5401 12.129 19.5006 12.03 19.5002H6.83149Z" fill="#666666"/>
<path d="M12.7773 13.7896C12.686 13.79 12.598 13.8237 12.5297 13.8844C12.4615 13.9451 12.4178 14.0286 12.4067 14.1192L11.5014 21.7149C11.3812 22.7247 12.1815 23.625 13.1984 23.625H16.3844H19.2136C20.2306 23.625 21.0279 22.7247 20.9077 21.7149L20.0053 14.1192C19.9942 14.0279 19.9499 13.9439 19.8809 13.8832C19.8119 13.8224 19.723 13.7891 19.6311 13.7896H12.7773Z" fill="#FFCC00"/>
<path d="M14.0591 15.3757C14.0098 15.3755 13.961 15.3851 13.9154 15.4037C13.8698 15.4224 13.8284 15.4499 13.7934 15.4846C13.7584 15.5193 13.7307 15.5605 13.7116 15.606C13.6926 15.6514 13.6828 15.7002 13.6826 15.7494C13.6826 17.1453 14.8145 18.2878 16.2044 18.2878C17.5942 18.2878 18.7261 17.1453 18.7261 15.7494C18.7258 15.6504 18.6863 15.5556 18.6163 15.4856C18.5463 15.4156 18.4514 15.3761 18.3524 15.3757C18.3032 15.3755 18.2543 15.3851 18.2088 15.4037C18.1632 15.4224 18.1217 15.4499 18.0868 15.4846C18.0518 15.5193 18.024 15.5605 18.005 15.606C17.986 15.6514 17.9761 15.7002 17.976 15.7494C17.976 16.7431 17.1858 17.5376 16.2044 17.5376C15.2229 17.5376 14.4327 16.7431 14.4328 15.7494C14.4324 15.6504 14.3929 15.5556 14.3229 15.4856C14.2529 15.4156 14.1581 15.3761 14.0591 15.3757Z" fill="#666666"/>
<path d="M10.9864 8.94265C10.9372 8.93863 10.8876 8.94438 10.8406 8.95958C10.7935 8.97479 10.75 8.99914 10.7124 9.03123L9.94007 9.68451L9.70756 9.47137C9.63441 9.4044 9.53772 9.36912 9.43863 9.37328C9.33954 9.37743 9.24613 9.42066 9.17885 9.49352C9.14527 9.5298 9.11918 9.57236 9.10211 9.61876C9.08503 9.66516 9.07731 9.71447 9.07937 9.76387C9.08142 9.81326 9.09324 9.86176 9.11411 9.90658C9.13498 9.95139 9.16451 9.99164 9.20099 10.025L9.67712 10.4596C9.74423 10.5214 9.83156 10.5566 9.92277 10.5586C10.014 10.5607 10.1028 10.5294 10.1726 10.4706L11.1968 9.60423C11.2345 9.57243 11.2655 9.53354 11.2881 9.48975C11.3107 9.44597 11.3244 9.39816 11.3285 9.34905C11.3327 9.29995 11.327 9.25052 11.312 9.20358C11.297 9.15665 11.2729 9.11313 11.2411 9.07551C11.2095 9.03772 11.1707 9.00653 11.127 8.98373C11.0833 8.96093 11.0355 8.94698 10.9864 8.94265Z" fill="#E6E6E6"/>
</svg>
