<svg width="50" height="47" viewBox="0 0 50 47" fill="none" xmlns="http://www.w3.org/2000/svg">
<g clip-path="url(#clip0_37_664)">
<path d="M21.3784 20.2717C19.3536 19.1027 17.7711 17.2982 16.8764 15.1381C15.9816 12.978 15.8246 10.5831 16.4298 8.32472C17.0349 6.06634 18.3683 4.07074 20.2232 2.64743C22.0781 1.22412 24.3508 0.452637 26.6889 0.452637C29.0269 0.452637 31.2996 1.22412 33.1545 2.64743C35.0094 4.07074 36.3428 6.06634 36.948 8.32472C37.5531 10.5831 37.3961 12.978 36.5014 15.1381C35.6067 17.2982 34.0242 19.1027 31.9994 20.2717L28.7994 14.7327C29.6048 14.2677 30.2343 13.5498 30.5903 12.6906C30.9462 11.8313 31.0086 10.8786 30.7679 9.98022C30.5272 9.08185 29.9968 8.28801 29.2589 7.72182C28.521 7.15563 27.6169 6.84874 26.6869 6.84874C25.7568 6.84874 24.8527 7.15563 24.1149 7.72182C23.377 8.28801 22.8466 9.08185 22.6058 9.98022C22.3651 10.8786 22.4276 11.8313 22.7835 12.6906C23.1394 13.5498 23.7689 14.2677 24.5744 14.7327L21.3784 20.2717Z" fill="#FF0101"/>
<path d="M44.1163 22.8377C46.1411 24.0067 47.7235 25.8112 48.6183 27.9713C49.513 30.1313 49.67 32.5263 49.0649 34.7847C48.4597 37.043 47.1263 39.0386 45.2714 40.4619C43.4165 41.8853 41.1438 42.6567 38.8058 42.6567C36.4677 42.6567 34.195 41.8853 32.3401 40.4619C30.4852 39.0386 29.1518 37.043 28.5467 34.7847C27.9415 32.5263 28.0985 30.1313 28.9932 27.9713C29.888 25.8112 31.4704 24.0067 33.4953 22.8377L36.6953 28.3767C35.8898 28.8417 35.2603 29.5595 34.9044 30.4188C34.5484 31.2781 34.486 32.2308 34.7267 33.1291C34.9674 34.0275 35.4979 34.8214 36.2357 35.3876C36.9736 35.9537 37.8777 36.2606 38.8078 36.2606C39.7378 36.2606 40.6419 35.9537 41.3798 35.3876C42.1176 34.8214 42.6481 34.0275 42.8888 33.1291C43.1295 32.2308 43.0671 31.2781 42.7111 30.4188C42.3552 29.5595 41.7257 28.8417 40.9203 28.3767L44.1163 22.8377Z" fill="#0101FF"/>
<path d="M25.413 32.0402C25.4129 34.378 24.6414 36.6505 23.2182 38.5052C21.7949 40.3598 19.7995 41.6931 17.5413 42.298C15.2831 42.903 12.8884 42.746 10.7285 41.8513C8.56869 40.9566 6.76443 39.3742 5.59559 37.3495C4.42675 35.3248 3.95864 32.9711 4.26387 30.6533C4.5691 28.3354 5.6306 26.1831 7.28375 24.5301C8.9369 22.877 11.0893 21.8157 13.4071 21.5106C15.725 21.2056 18.0787 21.6738 20.1033 22.8428L16.907 28.383C16.1016 27.9179 15.1652 27.7316 14.2431 27.853C13.321 27.9744 12.4647 28.3966 11.807 29.0542C11.1493 29.7119 10.727 30.5681 10.6056 31.4902C10.4842 32.4124 10.6704 33.3488 11.1354 34.1542C11.6004 34.9597 12.3182 35.5892 13.1774 35.9452C14.0367 36.3012 14.9894 36.3636 15.8878 36.1229C16.7862 35.8823 17.58 35.3519 18.1462 34.614C18.7125 33.8761 19.0194 32.9721 19.0194 32.042L25.413 32.0402Z" fill="#01FF01"/>
</g>
<defs>
<clipPath id="clip0_37_664">
<rect width="49.141" height="46.0943" fill="white" transform="translate(0.286133 0.452637)"/>
</clipPath>
</defs>
</svg>
