<svg width="60" height="23" viewBox="0 0 60 23" fill="none" xmlns="http://www.w3.org/2000/svg">
<g clip-path="url(#clip0_37_866)">
<path d="M10.208 16.2905V13.3814H11.225C11.4277 13.3814 11.5948 13.4165 11.7265 13.4866C11.8581 13.5557 11.9561 13.649 12.0205 13.7664C12.0849 13.8829 12.1171 14.0121 12.1171 14.1542C12.1171 14.2792 12.0948 14.3824 12.0503 14.4638C12.0068 14.5453 11.949 14.6097 11.877 14.657C11.806 14.7044 11.7288 14.7394 11.6455 14.7621V14.7905C11.7345 14.7962 11.824 14.8275 11.914 14.8843C12.0039 14.9411 12.0792 15.0225 12.1398 15.1286C12.2004 15.2347 12.2307 15.3644 12.2307 15.5178C12.2307 15.6636 12.1976 15.7948 12.1313 15.9113C12.065 16.0277 11.9604 16.1201 11.8174 16.1883C11.6744 16.2564 11.4883 16.2905 11.2591 16.2905H10.208ZM10.5603 15.978H11.2591C11.4892 15.978 11.6526 15.9335 11.7492 15.8445C11.8467 15.7545 11.8955 15.6456 11.8955 15.5178C11.8955 15.4193 11.8704 15.3284 11.8202 15.2451C11.77 15.1608 11.6985 15.0936 11.6057 15.0434C11.5129 14.9922 11.4031 14.9667 11.2762 14.9667H10.5603V15.978ZM10.5603 14.6598H11.2137C11.3197 14.6598 11.4154 14.639 11.5006 14.5973C11.5868 14.5557 11.655 14.497 11.7051 14.4212C11.7563 14.3455 11.7818 14.2564 11.7818 14.1542C11.7818 14.0263 11.7373 13.9179 11.6483 13.8289C11.5593 13.7389 11.4182 13.6939 11.225 13.6939H10.5603V14.6598ZM12.7641 16.2905V14.1087H13.0993V16.2905H12.7641ZM12.9345 13.7451C12.8692 13.7451 12.8129 13.7228 12.7655 13.6783C12.7191 13.6338 12.6959 13.5803 12.6959 13.5178C12.6959 13.4553 12.7191 13.4018 12.7655 13.3573C12.8129 13.3128 12.8692 13.2905 12.9345 13.2905C12.9999 13.2905 13.0558 13.3128 13.1022 13.3573C13.1495 13.4018 13.1732 13.4553 13.1732 13.5178C13.1732 13.5803 13.1495 13.6338 13.1022 13.6783C13.0558 13.7228 12.9999 13.7451 12.9345 13.7451ZM14.0485 13.3814V16.2905H13.7133V13.3814H14.0485ZM14.9978 13.3814V16.2905H14.6625V13.3814H14.9978ZM15.6117 16.2905V14.1087H15.947V16.2905H15.6117ZM15.7822 13.7451C15.7169 13.7451 15.6605 13.7228 15.6132 13.6783C15.5668 13.6338 15.5436 13.5803 15.5436 13.5178C15.5436 13.4553 15.5668 13.4018 15.6132 13.3573C15.6605 13.3128 15.7169 13.2905 15.7822 13.2905C15.8475 13.2905 15.9034 13.3128 15.9498 13.3573C15.9972 13.4018 16.0208 13.4553 16.0208 13.5178C16.0208 13.5803 15.9972 13.6338 15.9498 13.6783C15.9034 13.7228 15.8475 13.7451 15.7822 13.7451ZM16.8962 14.978V16.2905H16.561V14.1087H16.8848V14.4496H16.9132C16.9644 14.3388 17.042 14.2498 17.1462 14.1826C17.2504 14.1144 17.3848 14.0803 17.5496 14.0803C17.6973 14.0803 17.8266 14.1106 17.9374 14.1712C18.0482 14.2309 18.1344 14.3218 18.1959 14.4439C18.2575 14.5651 18.2882 14.7186 18.2882 14.9042V16.2905H17.953V14.9269C17.953 14.7555 17.9085 14.622 17.8195 14.5263C17.7305 14.4297 17.6083 14.3814 17.453 14.3814C17.346 14.3814 17.2504 14.4046 17.1661 14.451C17.0827 14.4974 17.0169 14.5651 16.9686 14.6542C16.9203 14.7432 16.8962 14.8511 16.8962 14.978ZM19.7815 17.1542C19.6196 17.1542 19.4804 17.1333 19.3639 17.0917C19.2474 17.0509 19.1503 16.997 19.0727 16.9297C18.996 16.8634 18.9349 16.7924 18.8894 16.7167L19.1565 16.5292C19.1868 16.5689 19.2251 16.6144 19.2716 16.6655C19.318 16.7176 19.3814 16.7626 19.4619 16.8005C19.5433 16.8393 19.6499 16.8587 19.7815 16.8587C19.9576 16.8587 20.103 16.8161 20.2176 16.7309C20.3322 16.6456 20.3894 16.5121 20.3894 16.3303V15.8871H20.361C20.3364 15.9269 20.3014 15.9761 20.2559 16.0348C20.2114 16.0926 20.147 16.1442 20.0627 16.1897C19.9794 16.2342 19.8667 16.2564 19.7247 16.2564C19.5485 16.2564 19.3904 16.2148 19.2502 16.1314C19.111 16.0481 19.0007 15.9269 18.9193 15.7678C18.8388 15.6087 18.7985 15.4155 18.7985 15.1883C18.7985 14.9648 18.8378 14.7702 18.9164 14.6044C18.995 14.4378 19.1044 14.309 19.2446 14.2181C19.3847 14.1262 19.5466 14.0803 19.7304 14.0803C19.8724 14.0803 19.9851 14.104 20.0684 14.1513C20.1527 14.1977 20.2171 14.2508 20.2616 14.3104C20.3071 14.3691 20.3421 14.4174 20.3667 14.4553H20.4008V14.1087H20.7247V16.353C20.7247 16.5405 20.6821 16.693 20.5968 16.8104C20.5126 16.9288 20.3989 17.0154 20.2559 17.0704C20.1139 17.1262 19.9557 17.1542 19.7815 17.1542ZM19.7701 15.9553C19.9046 15.9553 20.0182 15.9245 20.111 15.863C20.2038 15.8014 20.2744 15.7129 20.3227 15.5973C20.371 15.4818 20.3951 15.3436 20.3951 15.1826C20.3951 15.0254 20.3715 14.8866 20.3241 14.7664C20.2768 14.6461 20.2067 14.5519 20.1139 14.4837C20.0211 14.4155 19.9065 14.3814 19.7701 14.3814C19.6281 14.3814 19.5097 14.4174 19.415 14.4894C19.3213 14.5614 19.2507 14.658 19.2034 14.7792C19.157 14.9004 19.1338 15.0348 19.1338 15.1826C19.1338 15.3341 19.1574 15.4681 19.2048 15.5846C19.2531 15.7001 19.3241 15.791 19.4179 15.8573C19.5126 15.9226 19.63 15.9553 19.7701 15.9553ZM23.1054 16.3417C22.9671 16.3417 22.8416 16.3156 22.7289 16.2635C22.6162 16.2105 22.5268 16.1343 22.4605 16.0348C22.3942 15.9345 22.361 15.8133 22.361 15.6712C22.361 15.5462 22.3857 15.4449 22.4349 15.3672C22.4841 15.2886 22.55 15.2271 22.6323 15.1826C22.7147 15.1381 22.8056 15.1049 22.9051 15.0831C23.0055 15.0604 23.1063 15.0424 23.2076 15.0292C23.3402 15.0121 23.4477 14.9993 23.5301 14.9908C23.6134 14.9813 23.674 14.9657 23.7119 14.9439C23.7507 14.9222 23.7701 14.8843 23.7701 14.8303V14.8189C23.7701 14.6788 23.7318 14.5699 23.6551 14.4922C23.5793 14.4146 23.4643 14.3758 23.3099 14.3758C23.1499 14.3758 23.0244 14.4108 22.9335 14.4809C22.8426 14.5509 22.7787 14.6258 22.7417 14.7053L22.4235 14.5917C22.4804 14.4591 22.5561 14.3559 22.6508 14.282C22.7465 14.2072 22.8506 14.1551 22.9633 14.1258C23.0769 14.0955 23.1887 14.0803 23.2985 14.0803C23.3686 14.0803 23.4491 14.0888 23.54 14.1059C23.6319 14.122 23.7204 14.1556 23.8056 14.2067C23.8918 14.2579 23.9633 14.335 24.0201 14.4383C24.0769 14.5415 24.1054 14.6797 24.1054 14.853V16.2905H23.7701V15.9951H23.7531C23.7304 16.0424 23.6925 16.0931 23.6394 16.1471C23.5864 16.201 23.5159 16.247 23.4278 16.2848C23.3397 16.3227 23.2323 16.3417 23.1054 16.3417ZM23.1565 16.0405C23.2891 16.0405 23.4008 16.0145 23.4917 15.9624C23.5836 15.9103 23.6527 15.8431 23.6991 15.7607C23.7465 15.6783 23.7701 15.5917 23.7701 15.5008V15.1939C23.7559 15.211 23.7247 15.2266 23.6764 15.2408C23.629 15.2541 23.5741 15.2659 23.5116 15.2763C23.4501 15.2858 23.3899 15.2943 23.3312 15.3019C23.2734 15.3085 23.2266 15.3142 23.1906 15.3189C23.1035 15.3303 23.022 15.3488 22.9463 15.3743C22.8715 15.399 22.8109 15.4364 22.7644 15.4866C22.719 15.5358 22.6963 15.603 22.6963 15.6883C22.6963 15.8047 22.7394 15.8928 22.8255 15.9525C22.9126 16.0112 23.023 16.0405 23.1565 16.0405ZM25.0524 14.978V16.2905H24.7172V14.1087H25.0411V14.4496H25.0695C25.1206 14.3388 25.1983 14.2498 25.3024 14.1826C25.4066 14.1144 25.5411 14.0803 25.7059 14.0803C25.8536 14.0803 25.9828 14.1106 26.0936 14.1712C26.2044 14.2309 26.2906 14.3218 26.3522 14.4439C26.4137 14.5651 26.4445 14.7186 26.4445 14.9042V16.2905H26.1093V14.9269C26.1093 14.7555 26.0648 14.622 25.9757 14.5263C25.8867 14.4297 25.7646 14.3814 25.6093 14.3814C25.5023 14.3814 25.4066 14.4046 25.3223 14.451C25.239 14.4974 25.1732 14.5651 25.1249 14.6542C25.0766 14.7432 25.0524 14.8511 25.0524 14.978ZM27.8809 16.336C27.6991 16.336 27.5386 16.2901 27.3994 16.1982C27.2602 16.1054 27.1513 15.9747 27.0727 15.8062C26.9941 15.6366 26.9548 15.4364 26.9548 15.2053C26.9548 14.9761 26.9941 14.7773 27.0727 14.6087C27.1513 14.4401 27.2607 14.3099 27.4008 14.2181C27.541 14.1262 27.7029 14.0803 27.8866 14.0803C28.0287 14.0803 28.1409 14.104 28.2233 14.1513C28.3066 14.1977 28.37 14.2508 28.4136 14.3104C28.4581 14.3691 28.4927 14.4174 28.5173 14.4553H28.5457V13.3814H28.8809V16.2905H28.5571V15.9553H28.5173C28.4927 15.9951 28.4576 16.0453 28.4122 16.1059C28.3667 16.1655 28.3019 16.219 28.2176 16.2664C28.1333 16.3128 28.0211 16.336 27.8809 16.336ZM27.9264 16.0348C28.0609 16.0348 28.1745 15.9998 28.2673 15.9297C28.3601 15.8587 28.4306 15.7607 28.4789 15.6357C28.5272 15.5098 28.5514 15.3644 28.5514 15.1996C28.5514 15.0367 28.5277 14.8942 28.4804 14.7721C28.433 14.649 28.3629 14.5533 28.2701 14.4851C28.1773 14.416 28.0627 14.3814 27.9264 14.3814C27.7843 14.3814 27.666 14.4179 27.5713 14.4908C27.4775 14.5628 27.407 14.6608 27.3596 14.7848C27.3132 14.908 27.29 15.0462 27.29 15.1996C27.29 15.3549 27.3137 15.496 27.361 15.6229C27.4093 15.7489 27.4804 15.8492 27.5741 15.9241C27.6688 15.9979 27.7862 16.0348 27.9264 16.0348ZM30.7119 16.2905V13.3814H31.6948C31.9221 13.3814 32.1087 13.4203 32.2545 13.4979C32.4003 13.5746 32.5083 13.6802 32.5784 13.8147C32.6484 13.9491 32.6835 14.1021 32.6835 14.2735C32.6835 14.4449 32.6484 14.5969 32.5784 14.7294C32.5083 14.862 32.4008 14.9662 32.2559 15.0419C32.111 15.1168 31.9259 15.1542 31.7005 15.1542H30.9051V14.836H31.6892C31.8445 14.836 31.9695 14.8133 32.0642 14.7678C32.1598 14.7223 32.2289 14.658 32.2716 14.5746C32.3151 14.4903 32.3369 14.39 32.3369 14.2735C32.3369 14.157 32.3151 14.0552 32.2716 13.9681C32.228 13.881 32.1584 13.8137 32.0627 13.7664C31.9671 13.7181 31.8407 13.6939 31.6835 13.6939H31.0642V16.2905H30.7119ZM32.0812 14.9837L32.7971 16.2905H32.388L31.6835 14.9837H32.0812ZM34.1164 16.336C33.9061 16.336 33.7248 16.2896 33.5723 16.1968C33.4208 16.103 33.3039 15.9723 33.2215 15.8047C33.14 15.6362 33.0993 15.4401 33.0993 15.2167C33.0993 14.9932 33.14 14.7962 33.2215 14.6258C33.3039 14.4544 33.4184 14.3208 33.5652 14.2252C33.713 14.1286 33.8853 14.0803 34.0823 14.0803C34.1959 14.0803 34.3081 14.0992 34.4189 14.1371C34.5297 14.175 34.6306 14.2366 34.7215 14.3218C34.8124 14.4061 34.8848 14.5178 34.9388 14.657C34.9928 14.7962 35.0198 14.9676 35.0198 15.1712V15.3133H33.338V15.0235H34.6789C34.6789 14.9004 34.6542 14.7905 34.605 14.6939C34.5567 14.5973 34.4876 14.5211 34.3976 14.4652C34.3086 14.4094 34.2035 14.3814 34.0823 14.3814C33.9488 14.3814 33.8332 14.4146 33.7357 14.4809C33.6391 14.5462 33.5648 14.6314 33.5127 14.7365C33.4606 14.8417 33.4345 14.9544 33.4345 15.0746V15.2678C33.4345 15.4326 33.463 15.5723 33.5198 15.6868C33.5775 15.8005 33.6576 15.8871 33.7598 15.9468C33.8621 16.0055 33.9809 16.0348 34.1164 16.0348C34.2044 16.0348 34.284 16.0225 34.355 15.9979C34.427 15.9723 34.489 15.9345 34.5411 15.8843C34.5932 15.8331 34.6334 15.7697 34.6618 15.6939L34.9857 15.7848C34.9516 15.8947 34.8943 15.9913 34.8138 16.0746C34.7333 16.157 34.6339 16.2214 34.5155 16.2678C34.3971 16.3133 34.2641 16.336 34.1164 16.336ZM37.2474 14.1087L36.4406 16.2905H36.0997L35.2929 14.1087H35.6565L36.2588 15.8473H36.2815L36.8838 14.1087H37.2474ZM38.5265 16.336C38.3163 16.336 38.135 16.2896 37.9825 16.1968C37.831 16.103 37.714 15.9723 37.6316 15.8047C37.5502 15.6362 37.5095 15.4401 37.5095 15.2167C37.5095 14.9932 37.5502 14.7962 37.6316 14.6258C37.714 14.4544 37.8286 14.3208 37.9754 14.2252C38.1231 14.1286 38.2955 14.0803 38.4924 14.0803C38.6061 14.0803 38.7183 14.0992 38.8291 14.1371C38.9399 14.175 39.0407 14.2366 39.1316 14.3218C39.2225 14.4061 39.295 14.5178 39.349 14.657C39.4029 14.7962 39.4299 14.9676 39.4299 15.1712V15.3133H37.7481V15.0235H39.089C39.089 14.9004 39.0644 14.7905 39.0152 14.6939C38.9669 14.5973 38.8977 14.5211 38.8078 14.4652C38.7188 14.4094 38.6136 14.3814 38.4924 14.3814C38.3589 14.3814 38.2434 14.4146 38.1458 14.4809C38.0492 14.5462 37.9749 14.6314 37.9228 14.7365C37.8707 14.8417 37.8447 14.9544 37.8447 15.0746V15.2678C37.8447 15.4326 37.8731 15.5723 37.9299 15.6868C37.9877 15.8005 38.0677 15.8871 38.17 15.9468C38.2723 16.0055 38.3911 16.0348 38.5265 16.0348C38.6146 16.0348 38.6941 16.0225 38.7652 15.9979C38.8371 15.9723 38.8992 15.9345 38.9512 15.8843C39.0033 15.8331 39.0436 15.7697 39.072 15.6939L39.3958 15.7848C39.3617 15.8947 39.3045 15.9913 39.224 16.0746C39.1435 16.157 39.044 16.2214 38.9257 16.2678C38.8073 16.3133 38.6742 16.336 38.5265 16.336ZM40.2751 14.978V16.2905H39.9399V14.1087H40.2637V14.4496H40.2921C40.3433 14.3388 40.4209 14.2498 40.5251 14.1826C40.6293 14.1144 40.7637 14.0803 40.9285 14.0803C41.0762 14.0803 41.2055 14.1106 41.3163 14.1712C41.4271 14.2309 41.5133 14.3218 41.5748 14.4439C41.6364 14.5651 41.6671 14.7186 41.6671 14.9042V16.2905H41.3319V14.9269C41.3319 14.7555 41.2874 14.622 41.1984 14.5263C41.1094 14.4297 40.9872 14.3814 40.8319 14.3814C40.7249 14.3814 40.6293 14.4046 40.545 14.451C40.4617 14.4974 40.3958 14.5651 40.3475 14.6542C40.2992 14.7432 40.2751 14.8511 40.2751 14.978ZM43.6547 15.3985V14.1087H43.9899V16.2905H43.6547V15.9212H43.632C43.5809 16.032 43.5013 16.1262 43.3934 16.2039C43.2854 16.2806 43.149 16.3189 42.9843 16.3189C42.8479 16.3189 42.7267 16.2891 42.6206 16.2294C42.5146 16.1688 42.4312 16.0779 42.3706 15.9567C42.31 15.8346 42.2797 15.6807 42.2797 15.4951V14.1087H42.6149V15.4723C42.6149 15.6314 42.6595 15.7583 42.7485 15.853C42.8384 15.9477 42.953 15.9951 43.0922 15.9951C43.1756 15.9951 43.2603 15.9738 43.3465 15.9312C43.4336 15.8885 43.5065 15.8232 43.5652 15.7351C43.6249 15.6471 43.6547 15.5348 43.6547 15.3985ZM45.5187 16.336C45.3085 16.336 45.1271 16.2896 44.9747 16.1968C44.8232 16.103 44.7062 15.9723 44.6238 15.8047C44.5424 15.6362 44.5017 15.4401 44.5017 15.2167C44.5017 14.9932 44.5424 14.7962 44.6238 14.6258C44.7062 14.4544 44.8208 14.3208 44.9676 14.2252C45.1153 14.1286 45.2876 14.0803 45.4846 14.0803C45.5983 14.0803 45.7105 14.0992 45.8213 14.1371C45.9321 14.175 46.0329 14.2366 46.1238 14.3218C46.2147 14.4061 46.2872 14.5178 46.3412 14.657C46.3951 14.7962 46.4221 14.9676 46.4221 15.1712V15.3133H44.7403V15.0235H46.0812C46.0812 14.9004 46.0566 14.7905 46.0073 14.6939C45.9591 14.5973 45.8899 14.5211 45.8 14.4652C45.7109 14.4094 45.6058 14.3814 45.4846 14.3814C45.3511 14.3814 45.2356 14.4146 45.138 14.4809C45.0414 14.5462 44.9671 14.6314 44.915 14.7365C44.8629 14.8417 44.8369 14.9544 44.8369 15.0746V15.2678C44.8369 15.4326 44.8653 15.5723 44.9221 15.6868C44.9799 15.8005 45.0599 15.8871 45.1622 15.9468C45.2644 16.0055 45.3833 16.0348 45.5187 16.0348C45.6068 16.0348 45.6863 16.0225 45.7573 15.9979C45.8293 15.9723 45.8913 15.9345 45.9434 15.8843C45.9955 15.8331 46.0358 15.7697 46.0642 15.6939L46.388 15.7848C46.3539 15.8947 46.2966 15.9913 46.2162 16.0746C46.1357 16.157 46.0362 16.2214 45.9179 16.2678C45.7995 16.3133 45.6664 16.336 45.5187 16.336Z" fill="black"/>
<path d="M16.6557 18.3814H17.0762L18.0648 20.7962H18.0989L19.0876 18.3814H19.508V21.2905H19.1785V19.0803H19.1501L18.241 21.2905H17.9228L17.0137 19.0803H16.9853V21.2905H16.6557V18.3814ZM20.8109 21.3417C20.6727 21.3417 20.5472 21.3156 20.4345 21.2635C20.3218 21.2105 20.2323 21.1343 20.166 21.0348C20.0997 20.9345 20.0666 20.8133 20.0666 20.6712C20.0666 20.5462 20.0912 20.4449 20.1405 20.3672C20.1897 20.2886 20.2555 20.2271 20.3379 20.1826C20.4203 20.1381 20.5112 20.1049 20.6106 20.0831C20.711 20.0604 20.8119 20.0424 20.9132 20.0292C21.0458 20.0121 21.1533 19.9993 21.2356 19.9908C21.319 19.9813 21.3796 19.9657 21.4175 19.9439C21.4563 19.9222 21.4757 19.8843 21.4757 19.8303V19.8189C21.4757 19.6788 21.4373 19.5699 21.3606 19.4922C21.2849 19.4146 21.1698 19.3758 21.0155 19.3758C20.8554 19.3758 20.73 19.4108 20.639 19.4809C20.5481 19.5509 20.4842 19.6258 20.4473 19.7053L20.1291 19.5917C20.1859 19.4591 20.2617 19.3559 20.3564 19.282C20.452 19.2072 20.5562 19.1551 20.6689 19.1258C20.7825 19.0955 20.8943 19.0803 21.0041 19.0803C21.0742 19.0803 21.1547 19.0888 21.2456 19.1059C21.3374 19.122 21.426 19.1556 21.5112 19.2067C21.5974 19.2579 21.6689 19.335 21.7257 19.4383C21.7825 19.5415 21.8109 19.6797 21.8109 19.853V21.2905H21.4757V20.9951H21.4587C21.4359 21.0424 21.398 21.0931 21.345 21.1471C21.292 21.201 21.2214 21.247 21.1334 21.2848C21.0453 21.3227 20.9378 21.3417 20.8109 21.3417ZM20.8621 21.0405C20.9946 21.0405 21.1064 21.0145 21.1973 20.9624C21.2891 20.9103 21.3583 20.8431 21.4047 20.7607C21.452 20.6783 21.4757 20.5917 21.4757 20.5008V20.1939C21.4615 20.211 21.4302 20.2266 21.3819 20.2408C21.3346 20.2541 21.2797 20.2659 21.2172 20.2763C21.1556 20.2858 21.0955 20.2943 21.0368 20.3019C20.979 20.3085 20.9321 20.3142 20.8962 20.3189C20.809 20.3303 20.7276 20.3488 20.6518 20.3743C20.577 20.399 20.5164 20.4364 20.47 20.4866C20.4246 20.5358 20.4018 20.603 20.4018 20.6883C20.4018 20.8047 20.4449 20.8928 20.5311 20.9525C20.6182 21.0112 20.7285 21.0405 20.8621 21.0405ZM22.758 19.978V21.2905H22.4228V19.1087H22.7466V19.4496H22.7751C22.8262 19.3388 22.9038 19.2498 23.008 19.1826C23.1122 19.1144 23.2466 19.0803 23.4114 19.0803C23.5591 19.0803 23.6884 19.1106 23.7992 19.1712C23.91 19.2309 23.9962 19.3218 24.0577 19.4439C24.1193 19.5651 24.1501 19.7186 24.1501 19.9042V21.2905H23.8148V19.9269C23.8148 19.7555 23.7703 19.622 23.6813 19.5263C23.5923 19.4297 23.4701 19.3814 23.3148 19.3814C23.2078 19.3814 23.1122 19.4046 23.0279 19.451C22.9446 19.4974 22.8788 19.5651 22.8305 19.6542C22.7822 19.7432 22.758 19.8511 22.758 19.978ZM25.4047 21.3417C25.2664 21.3417 25.1409 21.3156 25.0283 21.2635C24.9156 21.2105 24.8261 21.1343 24.7598 21.0348C24.6935 20.9345 24.6604 20.8133 24.6604 20.6712C24.6604 20.5462 24.685 20.4449 24.7342 20.3672C24.7835 20.2886 24.8493 20.2271 24.9317 20.1826C25.014 20.1381 25.105 20.1049 25.2044 20.0831C25.3048 20.0604 25.4056 20.0424 25.5069 20.0292C25.6395 20.0121 25.747 19.9993 25.8294 19.9908C25.9127 19.9813 25.9733 19.9657 26.0112 19.9439C26.05 19.9222 26.0694 19.8843 26.0694 19.8303V19.8189C26.0694 19.6788 26.0311 19.5699 25.9544 19.4922C25.8786 19.4146 25.7636 19.3758 25.6092 19.3758C25.4492 19.3758 25.3237 19.4108 25.2328 19.4809C25.1419 19.5509 25.078 19.6258 25.041 19.7053L24.7229 19.5917C24.7797 19.4591 24.8554 19.3559 24.9501 19.282C25.0458 19.2072 25.1499 19.1551 25.2626 19.1258C25.3763 19.0955 25.488 19.0803 25.5979 19.0803C25.6679 19.0803 25.7484 19.0888 25.8393 19.1059C25.9312 19.122 26.0197 19.1556 26.105 19.2067C26.1911 19.2579 26.2626 19.335 26.3194 19.4383C26.3763 19.5415 26.4047 19.6797 26.4047 19.853V21.2905H26.0694V20.9951H26.0524C26.0297 21.0424 25.9918 21.0931 25.9388 21.1471C25.8857 21.201 25.8152 21.247 25.7271 21.2848C25.639 21.3227 25.5316 21.3417 25.4047 21.3417ZM25.4558 21.0405C25.5884 21.0405 25.7001 21.0145 25.791 20.9624C25.8829 20.9103 25.952 20.8431 25.9984 20.7607C26.0458 20.6783 26.0694 20.5917 26.0694 20.5008V20.1939C26.0552 20.211 26.024 20.2266 25.9757 20.2408C25.9283 20.2541 25.8734 20.2659 25.8109 20.2763C25.7494 20.2858 25.6892 20.2943 25.6305 20.3019C25.5728 20.3085 25.5259 20.3142 25.4899 20.3189C25.4028 20.3303 25.3213 20.3488 25.2456 20.3743C25.1708 20.399 25.1102 20.4364 25.0638 20.4866C25.0183 20.5358 24.9956 20.603 24.9956 20.6883C24.9956 20.8047 25.0387 20.8928 25.1248 20.9525C25.212 21.0112 25.3223 21.0405 25.4558 21.0405ZM27.8972 22.1542C27.7353 22.1542 27.5961 22.1333 27.4796 22.0917C27.3631 22.0509 27.2661 21.997 27.1884 21.9297C27.1117 21.8634 27.0506 21.7924 27.0052 21.7167L27.2722 21.5292C27.3025 21.5689 27.3409 21.6144 27.3873 21.6655C27.4337 21.7176 27.4971 21.7626 27.5776 21.8005C27.6591 21.8393 27.7656 21.8587 27.8972 21.8587C28.0734 21.8587 28.2187 21.8161 28.3333 21.7309C28.4479 21.6456 28.5052 21.5121 28.5052 21.3303V20.8871H28.4768C28.4521 20.9269 28.4171 20.9761 28.3716 21.0348C28.3271 21.0926 28.2627 21.1442 28.1785 21.1897C28.0951 21.2342 27.9824 21.2564 27.8404 21.2564C27.6643 21.2564 27.5061 21.2148 27.366 21.1314C27.2268 21.0481 27.1164 20.9269 27.035 20.7678C26.9545 20.6087 26.9143 20.4155 26.9143 20.1883C26.9143 19.9648 26.9536 19.7702 27.0322 19.6044C27.1108 19.4378 27.2201 19.309 27.3603 19.2181C27.5004 19.1262 27.6624 19.0803 27.8461 19.0803C27.9881 19.0803 28.1008 19.104 28.1841 19.1513C28.2684 19.1977 28.3328 19.2508 28.3773 19.3104C28.4228 19.3691 28.4578 19.4174 28.4824 19.4553H28.5165V19.1087H28.8404V21.353C28.8404 21.5405 28.7978 21.693 28.7126 21.8104C28.6283 21.9288 28.5146 22.0154 28.3716 22.0704C28.2296 22.1262 28.0715 22.1542 27.8972 22.1542ZM27.8859 20.9553C28.0203 20.9553 28.134 20.9245 28.2268 20.863C28.3196 20.8014 28.3901 20.7129 28.4384 20.5973C28.4867 20.4818 28.5109 20.3436 28.5109 20.1826C28.5109 20.0254 28.4872 19.8866 28.4398 19.7664C28.3925 19.6461 28.3224 19.5519 28.2296 19.4837C28.1368 19.4155 28.0222 19.3814 27.8859 19.3814C27.7438 19.3814 27.6254 19.4174 27.5307 19.4894C27.437 19.5614 27.3664 19.658 27.3191 19.7792C27.2727 19.9004 27.2495 20.0348 27.2495 20.1826C27.2495 20.3341 27.2732 20.4681 27.3205 20.5846C27.3688 20.7001 27.4398 20.791 27.5336 20.8573C27.6283 20.9226 27.7457 20.9553 27.8859 20.9553ZM30.3688 21.336C30.1586 21.336 29.9772 21.2896 29.8248 21.1968C29.6733 21.103 29.5563 20.9723 29.4739 20.8047C29.3925 20.6362 29.3518 20.4401 29.3518 20.2167C29.3518 19.9932 29.3925 19.7962 29.4739 19.6258C29.5563 19.4544 29.6709 19.3208 29.8177 19.2252C29.9654 19.1286 30.1377 19.0803 30.3347 19.0803C30.4484 19.0803 30.5606 19.0992 30.6714 19.1371C30.7822 19.175 30.883 19.2366 30.9739 19.3218C31.0648 19.4061 31.1373 19.5178 31.1913 19.657C31.2452 19.7962 31.2722 19.9676 31.2722 20.1712V20.3133H29.5904V20.0235H30.9313C30.9313 19.9004 30.9067 19.7905 30.8574 19.6939C30.8091 19.5973 30.74 19.5211 30.6501 19.4652C30.561 19.4094 30.4559 19.3814 30.3347 19.3814C30.2012 19.3814 30.0857 19.4146 29.9881 19.4809C29.8915 19.5462 29.8172 19.6314 29.7651 19.7365C29.713 19.8417 29.687 19.9544 29.687 20.0746V20.2678C29.687 20.4326 29.7154 20.5723 29.7722 20.6868C29.83 20.8005 29.91 20.8871 30.0123 20.9468C30.1145 21.0055 30.2334 21.0348 30.3688 21.0348C30.4569 21.0348 30.5364 21.0225 30.6074 20.9979C30.6794 20.9723 30.7414 20.9345 30.7935 20.8843C30.8456 20.8331 30.8859 20.7697 30.9143 20.6939L31.2381 20.7848C31.204 20.8947 31.1467 20.9913 31.0663 21.0746C30.9858 21.157 30.8863 21.2214 30.768 21.2678C30.6496 21.3133 30.5165 21.336 30.3688 21.336ZM31.7822 21.2905V19.1087H32.106V19.4496H32.1344C32.1799 19.3331 32.2533 19.2427 32.3546 19.1783C32.4559 19.113 32.5776 19.0803 32.7197 19.0803C32.8636 19.0803 32.9834 19.113 33.079 19.1783C33.1756 19.2427 33.2509 19.3331 33.3049 19.4496H33.3276C33.3835 19.3369 33.4673 19.2474 33.579 19.1812C33.6908 19.1139 33.8248 19.0803 33.981 19.0803C34.1761 19.0803 34.3357 19.1414 34.4597 19.2635C34.5838 19.3848 34.6458 19.5737 34.6458 19.8303V21.2905H34.3106V19.8303C34.3106 19.6693 34.2665 19.5543 34.1785 19.4851C34.0904 19.416 33.9867 19.3814 33.8674 19.3814C33.714 19.3814 33.5951 19.4278 33.5109 19.5206C33.4266 19.6125 33.3844 19.729 33.3844 19.8701V21.2905H33.0435V19.7962C33.0435 19.6722 33.0033 19.5723 32.9228 19.4965C32.8423 19.4198 32.7386 19.3814 32.6117 19.3814C32.5246 19.3814 32.4431 19.4046 32.3674 19.451C32.2926 19.4974 32.232 19.5618 32.1856 19.6442C32.1401 19.7257 32.1174 19.8199 32.1174 19.9269V21.2905H31.7822ZM36.1735 21.336C35.9633 21.336 35.7819 21.2896 35.6295 21.1968C35.4779 21.103 35.361 20.9723 35.2786 20.8047C35.1972 20.6362 35.1564 20.4401 35.1564 20.2167C35.1564 19.9932 35.1972 19.7962 35.2786 19.6258C35.361 19.4544 35.4756 19.3208 35.6224 19.2252C35.7701 19.1286 35.9424 19.0803 36.1394 19.0803C36.253 19.0803 36.3653 19.0992 36.4761 19.1371C36.5868 19.175 36.6877 19.2366 36.7786 19.3218C36.8695 19.4061 36.942 19.5178 36.9959 19.657C37.0499 19.7962 37.0769 19.9676 37.0769 20.1712V20.3133H35.3951V20.0235H36.736C36.736 19.9004 36.7114 19.7905 36.6621 19.6939C36.6138 19.5973 36.5447 19.5211 36.4547 19.4652C36.3657 19.4094 36.2606 19.3814 36.1394 19.3814C36.0059 19.3814 35.8904 19.4146 35.7928 19.4809C35.6962 19.5462 35.6219 19.6314 35.5698 19.7365C35.5177 19.8417 35.4917 19.9544 35.4917 20.0746V20.2678C35.4917 20.4326 35.5201 20.5723 35.5769 20.6868C35.6347 20.8005 35.7147 20.8871 35.817 20.9468C35.9192 21.0055 36.0381 21.0348 36.1735 21.0348C36.2616 21.0348 36.3411 21.0225 36.4121 20.9979C36.4841 20.9723 36.5461 20.9345 36.5982 20.8843C36.6503 20.8331 36.6905 20.7697 36.7189 20.6939L37.0428 20.7848C37.0087 20.8947 36.9514 20.9913 36.8709 21.0746C36.7904 21.157 36.691 21.2214 36.5726 21.2678C36.4543 21.3133 36.3212 21.336 36.1735 21.336ZM37.9221 19.978V21.2905H37.5868V19.1087H37.9107V19.4496H37.9391C37.9903 19.3388 38.0679 19.2498 38.1721 19.1826C38.2762 19.1144 38.4107 19.0803 38.5755 19.0803C38.7232 19.0803 38.8525 19.1106 38.9633 19.1712C39.0741 19.2309 39.1602 19.3218 39.2218 19.4439C39.2833 19.5651 39.3141 19.7186 39.3141 19.9042V21.2905H38.9789V19.9269C38.9789 19.7555 38.9344 19.622 38.8454 19.5263C38.7564 19.4297 38.6342 19.3814 38.4789 19.3814C38.3719 19.3814 38.2762 19.4046 38.192 19.451C38.1086 19.4974 38.0428 19.5651 37.9945 19.6542C37.9462 19.7432 37.9221 19.8511 37.9221 19.978ZM40.8756 19.1087V19.3928H39.7449V19.1087H40.8756ZM40.0744 18.586H40.4096V20.6655C40.4096 20.7602 40.4234 20.8312 40.4508 20.8786C40.4792 20.925 40.5152 20.9562 40.5588 20.9723C40.6033 20.9875 40.6502 20.9951 40.6994 20.9951C40.7364 20.9951 40.7667 20.9932 40.7903 20.9894C40.814 20.9847 40.8329 20.9809 40.8471 20.978L40.9153 21.2792C40.8926 21.2877 40.8609 21.2962 40.8202 21.3047C40.7794 21.3142 40.7278 21.3189 40.6653 21.3189C40.5706 21.3189 40.4778 21.2986 40.3869 21.2579C40.297 21.2171 40.2221 21.1551 40.1625 21.0718C40.1038 20.9884 40.0744 20.8833 40.0744 20.7564V18.586Z" fill="black"/>
<path d="M25.35 5.49802H29.106L27.126 2.29802L23.483 8.07802H21.824L26.255 1.15402C26.3528 1.01656 26.4821 0.904488 26.6321 0.827155C26.782 0.749822 26.9483 0.709473 27.117 0.709473C27.2857 0.709473 27.452 0.749822 27.6019 0.827155C27.7519 0.904488 27.8812 1.01656 27.979 1.15402L32.423 8.09702H30.76L29.985 6.80402H26.185L25.349 5.49802H25.35ZM42.561 6.79102V0.767023H41.155V7.37802C41.154 7.46861 41.1712 7.55848 41.2055 7.6423C41.2399 7.72612 41.2907 7.8022 41.355 7.86602C41.422 7.93527 41.5026 7.98994 41.5918 8.02659C41.6809 8.06324 41.7766 8.08109 41.873 8.07902H48.285L49.116 6.78602H42.561V6.79102ZM19.3 5.71602C19.9546 5.71602 20.5823 5.456 21.0451 4.99316C21.508 4.53032 21.768 3.90258 21.768 3.24802C21.768 2.59347 21.508 1.96572 21.0451 1.50288C20.5823 1.04004 19.9546 0.780023 19.3 0.780023H13.15V8.09202H14.556V2.07202H19.2C19.3555 2.07175 19.5095 2.10238 19.653 2.16215C19.7965 2.22191 19.9268 2.30962 20.0361 2.42016C20.1454 2.5307 20.2317 2.66188 20.2899 2.80606C20.3481 2.95025 20.377 3.10456 20.375 3.26002C20.3763 3.57373 20.2536 3.87522 20.0334 4.09873C19.8133 4.32223 19.5137 4.44959 19.2 4.45302H15.244L19.444 8.11002H21.481L18.669 5.71602H19.3ZM4.50001 8.07902C3.53024 8.07902 2.6002 7.69379 1.91447 7.00806C1.22874 6.32233 0.843506 5.39229 0.843506 4.42252C0.843506 3.45276 1.22874 2.52271 1.91447 1.83699C2.6002 1.15126 3.53024 0.766023 4.50001 0.766023H8.74401C9.71377 0.766023 10.6438 1.15126 11.3295 1.83699C12.0153 2.52271 12.4005 3.45276 12.4005 4.42252C12.4005 5.39229 12.0153 6.32233 11.3295 7.00806C10.6438 7.69379 9.71377 8.07902 8.74401 8.07902H4.50001ZM8.66201 6.79102C8.97674 6.79749 9.2896 6.74109 9.58226 6.62512C9.87492 6.50915 10.1415 6.33594 10.3664 6.11565C10.5912 5.89535 10.7699 5.63239 10.8919 5.34218C11.0138 5.05196 11.0766 4.74032 11.0766 4.42552C11.0766 4.11072 11.0138 3.79909 10.8919 3.50887C10.7699 3.21866 10.5912 2.9557 10.3664 2.7354C10.1415 2.5151 9.87492 2.34189 9.58226 2.22592C9.2896 2.10995 8.97674 2.05355 8.66201 2.06002H4.60001C4.28533 2.05275 3.97236 2.10833 3.67943 2.22352C3.3865 2.33872 3.1195 2.5112 2.89407 2.73088C2.66864 2.95055 2.4893 3.213 2.36657 3.50285C2.24384 3.7927 2.18018 4.10413 2.17931 4.41889C2.17845 4.73365 2.2404 5.04542 2.36153 5.33595C2.48267 5.62647 2.66056 5.8899 2.88478 6.11081C3.109 6.33172 3.37505 6.50566 3.66734 6.62247C3.95963 6.73927 4.27229 6.79657 4.58701 6.79102H8.66201ZM35.362 8.07902C34.3922 8.07902 33.4622 7.69379 32.7765 7.00806C32.0907 6.32233 31.7055 5.39229 31.7055 4.42252C31.7055 3.45276 32.0907 2.52271 32.7765 1.83699C33.4622 1.15126 34.3922 0.766023 35.362 0.766023H40.411L39.58 2.05902H35.444C34.816 2.05902 34.2137 2.30851 33.7696 2.75259C33.3255 3.19668 33.076 3.79899 33.076 4.42702C33.076 5.05506 33.3255 5.65737 33.7696 6.10145C34.2137 6.54554 34.816 6.79502 35.444 6.79502H40.506L39.675 8.08802H35.361L35.362 8.07902ZM52.555 6.79102C52.0402 6.78835 51.5401 6.61947 51.1291 6.30954C50.7181 5.99961 50.4182 5.5652 50.274 5.07102H56.281L57.112 3.77802H50.27C50.4142 3.28321 50.7148 2.84837 51.1266 2.53852C51.5385 2.22867 52.0396 2.06045 52.555 2.05902H56.686L57.517 0.767023H52.468C51.4982 0.767023 50.5682 1.15226 49.8825 1.83799C49.1967 2.52371 48.8115 3.45376 48.8115 4.42352C48.8115 5.39329 49.1967 6.32333 49.8825 7.00906C50.5682 7.69479 51.4982 8.08002 52.468 8.08002H56.812L57.644 6.78602H52.555V6.79102Z" fill="#ED1C24"/>
<path d="M58.261 1.54084C58.261 1.41347 58.2987 1.28896 58.3695 1.18305C58.4403 1.07715 58.5409 0.994605 58.6586 0.945862C58.7762 0.897119 58.9057 0.884366 59.0306 0.909214C59.1556 0.934063 59.2703 0.995398 59.3604 1.08546C59.4504 1.17553 59.5118 1.29028 59.5366 1.4152C59.5615 1.54013 59.5487 1.66961 59.5 1.78729C59.4513 1.90496 59.3687 2.00554 59.2628 2.07631C59.1569 2.14707 59.0324 2.18484 58.905 2.18484C58.8204 2.18497 58.7366 2.1684 58.6584 2.13609C58.5803 2.10377 58.5092 2.05634 58.4493 1.99651C58.3895 1.93668 58.342 1.86564 58.3097 1.78744C58.2774 1.70925 58.2609 1.62545 58.261 1.54084ZM58.91 2.37184C59.0718 2.37184 59.23 2.32387 59.3645 2.23398C59.499 2.1441 59.6039 2.01635 59.6658 1.86688C59.7277 1.71741 59.7438 1.55293 59.7123 1.39426C59.6807 1.23558 59.6028 1.08983 59.4884 0.975427C59.374 0.861028 59.2283 0.783121 59.0696 0.751558C58.9109 0.719995 58.7464 0.736194 58.5969 0.798107C58.4475 0.860019 58.3197 0.964864 58.2299 1.09938C58.14 1.2339 58.092 1.39206 58.092 1.55384C58.0926 1.77062 58.1789 1.97838 58.3322 2.13167C58.4854 2.28496 58.6932 2.37131 58.91 2.37184ZM58.823 1.05284C58.9056 1.04335 58.9892 1.05363 59.067 1.08284C59.1195 1.10168 59.1646 1.13674 59.1959 1.18294C59.2272 1.22914 59.243 1.28409 59.241 1.33984C59.242 1.36386 59.2376 1.3878 59.228 1.40984C59.2081 1.47292 59.1685 1.52795 59.115 1.56684C59.102 1.56684 59.102 1.57984 59.072 1.57984L59.285 1.96684H59.085L58.8979 1.60984H58.785V1.98384H58.598V1.05384L58.823 1.05284ZM58.8929 1.48384C58.9218 1.48856 58.9514 1.48579 58.9789 1.47581C59.0064 1.46583 59.0309 1.44897 59.05 1.42684C59.0617 1.39942 59.0661 1.36947 59.063 1.33984C59.0611 1.31681 59.0538 1.29456 59.0416 1.27491C59.0295 1.25527 59.0128 1.23879 58.993 1.22684C58.936 1.21414 58.8773 1.20976 58.819 1.21384H58.775V1.47084H58.891V1.48384H58.8929Z" fill="#ED1C24"/>
<path d="M1.03638 10.8306H58.6614" stroke="black" stroke-width="0.5"/>
</g>
<defs>
<clipPath id="clip0_37_866">
<rect width="58.884" height="21.5811" fill="white" transform="translate(0.843506 0.709473)"/>
</clipPath>
</defs>
</svg>
