<svg width="18" height="19" viewBox="0 0 18 19" fill="none" xmlns="http://www.w3.org/2000/svg">
<path d="M16.5 13.1898V15.4398C16.5009 15.6487 16.4581 15.8555 16.3744 16.0468C16.2907 16.2382 16.168 16.41 16.0141 16.5512C15.8602 16.6924 15.6784 16.7999 15.4806 16.8669C15.2827 16.9338 15.073 16.9586 14.865 16.9398C12.5571 16.6891 10.3403 15.9004 8.39251 14.6373C6.58038 13.4858 5.04401 11.9495 3.89251 10.1373C2.62499 8.18073 1.83619 5.95307 1.59001 3.63483C1.57127 3.42743 1.59592 3.2184 1.66239 3.02105C1.72886 2.8237 1.83569 2.64235 1.97609 2.48854C2.11648 2.33474 2.28736 2.21186 2.47785 2.12772C2.66834 2.04358 2.87427 2.00002 3.08251 1.99983H5.33251C5.69649 1.99625 6.04935 2.12514 6.32533 2.36248C6.60131 2.59982 6.78157 2.92941 6.83251 3.28983C6.92748 4.00988 7.1036 4.71687 7.35751 5.39733C7.45842 5.66577 7.48026 5.95751 7.42044 6.23799C7.36062 6.51846 7.22166 6.77591 7.02001 6.97983L6.06751 7.93233C7.13518 9.80999 8.68985 11.3647 10.5675 12.4323L11.52 11.4798C11.7239 11.2782 11.9814 11.1392 12.2619 11.0794C12.5423 11.0196 12.8341 11.0414 13.1025 11.1423C13.783 11.3962 14.49 11.5724 15.21 11.6673C15.5743 11.7187 15.9071 11.9022 16.1449 12.1829C16.3828 12.4637 16.5091 12.822 16.5 13.1898Z" stroke="white" stroke-linecap="round" stroke-linejoin="round"/>
</svg>
