<svg xmlns="http://www.w3.org/2000/svg" width="20" height="20" viewBox="0 0 20 20" fill="none">
  <g clip-path="url(#clip0_660_176)">
    <path fill-rule="evenodd" clip-rule="evenodd" d="M19.4994 16.4228C19.5 18.1825 18.0262 19.5894 16.269 19.4956C12.6884 19.3043 8.78083 17.5507 5.61649 14.3862C2.44986 11.2215 0.695796 7.31211 0.504908 3.73037C0.411279 1.97356 1.81737 0.5 3.57668 0.5H5.56707C6.05044 0.5 6.33763 0.909035 6.44714 1.38006L7.31252 5.13955C7.42303 5.61962 7.27593 6.12261 6.92419 6.4675L6.01325 7.36067C5.36173 7.99949 5.2578 9.01212 5.76664 9.76951C6.33623 10.6173 7.01012 11.44 7.78376 12.215C8.5576 12.9889 9.38089 13.663 10.2294 14.2326C10.9868 14.7412 11.9992 14.6372 12.6378 13.9858L13.5313 13.0746C13.8762 12.7228 14.3792 12.5757 14.8592 12.6863L18.6187 13.5516C19.0897 13.6611 19.4988 13.9482 19.4988 14.4317L19.4994 16.4228Z" fill="black"/>
  </g>
  <defs>
    <clipPath id="clip0_660_176">
      <rect width="20" height="20" fill="white"/>
    </clipPath>
  </defs>
</svg>