<svg width="80" height="80" viewBox="0 0 80 80" fill="none" xmlns="http://www.w3.org/2000/svg">
<path d="M70.3783 41.939L71.5752 47.1344C71.5783 47.1187 71.5783 47.1015 71.5783 47.0844V40.9359C71.1939 41.2844 70.7924 41.6094 70.3721 41.914C70.3736 41.9219 70.3768 41.9312 70.3783 41.939Z" fill="#FEF9D3"/>
<path d="M65.7188 0H5.85938C2.62812 0 0 2.62812 0 5.85938V69.0188C0 72.25 2.62812 74.8781 5.85938 74.8781H62.8406C62.4842 74.1294 62.2588 73.3416 62.0813 72.5344L57.9484 54.6156C57.8031 53.9859 58.1969 53.3562 58.8281 53.2109L60.6891 52.7828L58.8031 44.6078C58.8016 44.6 58.8 44.5906 58.7984 44.5828C55.9266 44.0828 53.3438 42.7672 51.3438 40.8609V48.8875H52.5484C53.1953 48.8875 53.7203 49.4109 53.7203 50.0594C53.7203 50.7062 53.1953 51.2313 52.5484 51.2313H8.44219C7.79531 51.2313 7.27031 50.7062 7.27031 50.0594C7.27031 49.4109 7.79531 48.8875 8.44219 48.8875H9.29062V25.0766C9.29062 24.4297 9.81563 23.9047 10.4625 23.9047H18.9219C19.5688 23.9047 20.0938 24.4297 20.0938 25.0766V48.8875H24.9156V28.2016C24.9156 27.5547 25.4406 27.0297 26.0875 27.0297H34.5469C35.1938 27.0297 35.7188 27.5547 35.7188 28.2016V48.8875H40.5406V18.8266C40.5406 18.1797 41.0656 17.6547 41.7125 17.6547H50.1719C50.8203 17.6547 51.3438 18.1797 51.3438 18.8266V21.1922C53.3016 19.2438 55.7938 17.8672 58.5844 17.225C59.7172 16.9625 60.875 16.8312 62.025 16.8312C64.6469 16.8312 67.1125 17.4953 69.2344 18.6766C70.0734 19.1437 70.8594 19.6922 71.5781 20.3125V5.85938C71.5781 2.62812 68.95 0 65.7188 0ZM13.8312 57.0156H26.8969C27.5438 57.0156 28.0688 57.5406 28.0688 58.1875C28.0688 58.8344 27.5438 59.3594 26.8969 59.3594H13.8312C13.1828 59.3594 12.6594 58.8344 12.6594 58.1875C12.6594 57.5406 13.1828 57.0156 13.8312 57.0156ZM13.8312 61.7031H26.8969C27.5438 61.7031 28.0688 62.2281 28.0688 62.875C28.0688 63.5219 27.5438 64.0469 26.8969 64.0469H13.8312C13.1828 64.0469 12.6594 63.5219 12.6594 62.875C12.6594 62.2281 13.1828 61.7031 13.8312 61.7031ZM46.3609 9.59062L44.475 13.1891C44.2734 13.575 43.875 13.8172 43.4406 13.8172C43.4391 13.8172 43.4375 13.8172 43.4375 13.8172C43.0031 13.8172 42.6047 13.5781 42.4016 13.1938L41.8672 12.1844L30.8625 17.9641C30.5828 18.1109 30.2531 18.1391 29.9531 18.0406L22.0312 15.4453L13.3313 20.6906C13.1422 20.8047 12.9328 20.8594 12.7281 20.8594C12.3297 20.8594 11.9422 20.6578 11.7234 20.2922C11.3891 19.7391 11.5672 19.0188 12.1219 18.6844L21.2812 13.1609C21.5719 12.9859 21.9266 12.9453 22.25 13.0516L30.2109 15.6578L40.7719 10.1125L40.1547 8.94844C39.9469 8.55625 39.9797 8.07969 40.2375 7.71875C40.4937 7.35781 40.9344 7.17344 41.3719 7.24219L45.4781 7.88437C46.2672 7.98906 46.7359 8.875 46.3609 9.59062Z" fill="#FEF9D3"/>
<path d="M75.955 27.5375C75.2894 24.65 73.7269 22.161 71.5784 20.3125C70.8597 19.6922 70.0737 19.1438 69.2347 18.6766C67.1128 17.4954 64.6472 16.8313 62.0253 16.8313C60.8753 16.8313 59.7175 16.9625 58.5847 17.225C55.7941 17.8672 53.3019 19.2438 51.3441 21.1922C50.6409 21.8907 50.0065 22.6641 49.4519 23.5032C49.2925 23.7438 49.1425 23.9875 49.0003 24.2344C47.2456 27.2625 46.7066 30.7344 47.4831 34.1016C47.7987 35.4704 48.3159 36.7485 49.0003 37.9125C49.6425 39.0047 50.4331 39.9938 51.3441 40.861C53.3441 42.7672 55.9269 44.0829 58.7987 44.5829C59.6472 44.7329 60.5222 44.8094 61.4144 44.8094C62.5644 44.8094 63.7206 44.6766 64.8534 44.4157C66.4222 44.0532 67.8972 43.4594 69.2347 42.6625C69.6269 42.4313 70.0065 42.1813 70.3722 41.9141C70.7925 41.6094 71.1941 41.2844 71.5784 40.936C72.4909 40.1157 73.3003 39.1766 73.9862 38.1375C76.0956 34.9438 76.7956 31.1797 75.955 27.5375ZM63.7222 39.5047C63.0019 39.6719 62.2659 39.7563 61.5347 39.7563C57.23 39.7563 53.5753 36.9407 52.6456 32.9125C51.5425 28.1235 54.7144 23.2875 59.7175 22.1344C60.4362 21.9688 61.1722 21.8844 61.905 21.8844C66.2081 21.8844 69.8644 24.6985 70.7925 28.7282C71.8972 33.5172 68.7253 38.3516 63.7222 39.5047Z" fill="#CDEAF2"/>
<path d="M71.5744 47.1344L70.3775 41.9391C70.376 41.9313 70.3729 41.9219 70.3713 41.9141C70.0057 42.1813 69.626 42.4313 69.2338 42.6625C67.8963 43.4594 66.4213 44.0531 64.8525 44.4156C63.7197 44.6766 62.5635 44.8094 61.4135 44.8094C60.5213 44.8094 59.6463 44.7328 58.7979 44.5828C58.7994 44.5906 58.801 44.6 58.8025 44.6078L60.6885 52.7828L72.2619 50.1141L71.5744 47.1344Z" fill="#ABB7DD"/>
<path d="M26.8967 57.0156H13.8311C13.1826 57.0156 12.6592 57.5406 12.6592 58.1875C12.6592 58.8344 13.1826 59.3594 13.8311 59.3594H26.8967C27.5436 59.3594 28.0686 58.8344 28.0686 58.1875C28.0686 57.5406 27.5436 57.0156 26.8967 57.0156Z" fill="#ABB7DD"/>
<path d="M26.8967 61.7031H13.8311C13.1826 61.7031 12.6592 62.2281 12.6592 62.875C12.6592 63.5219 13.1826 64.0469 13.8311 64.0469H26.8967C27.5436 64.0469 28.0686 63.5219 28.0686 62.875C28.0686 62.2281 27.5436 61.7031 26.8967 61.7031Z" fill="#ABB7DD"/>
<path d="M49.452 23.5031C50.0066 22.664 50.641 21.8906 51.3441 21.1922V18.8265C51.3441 18.1797 50.8207 17.6547 50.1723 17.6547H41.7129C41.066 17.6547 40.541 18.1797 40.541 18.8265V48.8875H51.3441V40.8609C50.4332 39.9937 49.6426 39.0047 49.0004 37.9125C48.316 36.7484 47.7988 35.4703 47.4832 34.1015C46.7066 30.7344 47.2457 27.2625 49.0004 24.2344C49.1426 23.9875 49.2926 23.7437 49.452 23.5031Z" fill="#F89D88"/>
<path d="M34.5473 27.0297H26.0879C25.441 27.0297 24.916 27.5547 24.916 28.2015V48.8875H35.7191V28.2015C35.7191 27.5547 35.1941 27.0297 34.5473 27.0297Z" fill="#F89D88"/>
<path d="M18.9223 23.9047H10.4629C9.81602 23.9047 9.29102 24.4297 9.29102 25.0765V48.8875H20.0941V25.0765C20.0941 24.4297 19.5691 23.9047 18.9223 23.9047Z" fill="#F89D88"/>
<path d="M70.7917 28.7281C69.8636 24.6985 66.2073 21.8844 61.9042 21.8844C61.1714 21.8844 60.4355 21.9688 59.7167 22.1344C54.7136 23.2875 51.5417 28.1235 52.6448 32.9125C53.5745 36.9406 57.2292 39.7563 61.5339 39.7563C62.2651 39.7563 63.0011 39.6719 63.7214 39.5047C68.7245 38.3516 71.8964 33.5172 70.7917 28.7281Z" fill="#BCBEC0"/>
<path d="M12.728 20.8594C12.9327 20.8594 13.1421 20.8047 13.3312 20.6907L22.0312 15.4454L29.9531 18.0407C30.253 18.1391 30.5827 18.111 30.8624 17.9641L41.8671 12.1844L42.4015 13.1938C42.6046 13.5782 43.0031 13.8172 43.4374 13.8172C43.4374 13.8172 43.439 13.8172 43.4405 13.8172C43.8749 13.8172 44.2734 13.575 44.4749 13.1891L46.3609 9.59067C46.7359 8.87504 46.2671 7.9891 45.4781 7.88442L41.3718 7.24223C40.9343 7.17348 40.4937 7.35786 40.2374 7.71879C39.9796 8.07973 39.9468 8.55629 40.1546 8.94848L40.7718 10.1125L30.2109 15.6579L22.2499 13.0516C21.9265 12.9454 21.5718 12.986 21.2812 13.161L12.1218 18.6844C11.5671 19.0188 11.389 19.7391 11.7234 20.2922C11.9421 20.6579 12.3296 20.8594 12.728 20.8594Z" fill="#BCBEC0"/>
<path d="M52.5486 48.8875H8.44238C7.79551 48.8875 7.27051 49.4109 7.27051 50.0593C7.27051 50.7062 7.79551 51.2312 8.44238 51.2312H52.5486C53.1955 51.2312 53.7205 50.7062 53.7205 50.0593C53.7205 49.4109 53.1955 48.8875 52.5486 48.8875Z" fill="#BCBEC0"/>
<path d="M79.7669 68.9515L75.5278 50.5624C75.3831 49.942 74.7452 49.5399 74.1231 49.6843L58.8278 53.2109C58.1966 53.3562 57.8028 53.9859 57.9481 54.6156L62.0809 72.5343C62.2584 73.3415 62.4839 74.1293 62.8403 74.8781C64.3091 77.9703 67.4247 80 70.97 80C71.6513 80 72.3356 79.9218 73.0044 79.7671C77.8513 78.65 80.8856 73.7984 79.7669 68.9515Z" fill="#C6E1B6"/>
<path opacity="0.5" d="M71.5785 5.85938V20.3125C70.8598 19.6922 70.0738 19.1437 69.2348 18.6766C67.1129 17.4953 64.6473 16.8312 62.0254 16.8312C60.8754 16.8312 59.7176 16.9625 58.5848 17.225C58.5098 17.2422 58.4348 17.2609 58.3598 17.2797C57.6098 14.3547 56.7379 11.4656 55.5551 8.68906C54.2144 5.54219 52.4441 2.525 50.1582 0H65.7191C68.9504 0 71.5785 2.62812 71.5785 5.85938Z" fill="#FDEDBA"/>
<path opacity="0.5" d="M73.9859 38.1375C73.3 39.1766 72.4906 40.1157 71.5781 40.936C71.1938 41.2844 70.7922 41.6094 70.3719 41.9141C70.0063 42.1813 69.6266 42.4313 69.2344 42.6625C67.8969 43.4594 66.4219 44.0532 64.8531 44.4157C64.7687 44.4344 64.6844 44.4532 64.5984 44.4704C64.2266 42.8329 63.8531 41.1954 63.4812 39.5579C63.5609 39.5407 63.6422 39.5235 63.7219 39.5047C68.725 38.3516 71.8969 33.5172 70.7922 28.7282C69.8641 24.6985 66.2078 21.8844 61.9047 21.8844C61.1719 21.8844 60.4359 21.9688 59.7172 22.1344C59.6531 22.1485 59.5906 22.1641 59.5281 22.1797C59.1547 20.5438 58.7766 18.9063 58.3594 17.2797C58.4344 17.261 58.5094 17.2422 58.5844 17.225C59.7172 16.9625 60.875 16.8313 62.025 16.8313C64.6469 16.8313 67.1125 17.4954 69.2344 18.6766C70.0734 19.1438 70.8594 19.6922 71.5781 20.3125C73.7266 22.161 75.2891 24.65 75.9547 27.5375C76.7953 31.1797 76.0953 34.9438 73.9859 38.1375Z" fill="#B2CFE2"/>
<path opacity="0.5" d="M63.7221 39.5047C63.6424 39.5235 63.5611 39.5406 63.4814 39.5578C62.2189 34.0047 60.9549 28.4531 59.6924 22.9C59.6377 22.6594 59.583 22.4188 59.5283 22.1797C59.5908 22.1641 59.6533 22.1485 59.7174 22.1344C60.4361 21.9688 61.1721 21.8844 61.9049 21.8844C66.208 21.8844 69.8643 24.6985 70.7924 28.7281C71.8971 33.5172 68.7252 38.3516 63.7221 39.5047Z" fill="#A7A9AC"/>
<path opacity="0.5" d="M70.3783 41.939C70.3768 41.9312 70.3736 41.9219 70.3721 41.914C70.7924 41.6094 71.1939 41.2844 71.5783 40.9359V47.0844C71.5783 47.1015 71.5783 47.1187 71.5752 47.1344L70.3783 41.939Z" fill="#FDEDBA"/>
<path opacity="0.5" d="M73.0049 79.7672C72.5877 79.8641 72.1643 79.9312 71.7393 79.9672C71.7924 76.3219 70.9877 72.5625 70.1721 68.975C68.8486 63.1531 67.5236 57.3328 66.2002 51.5125L72.2627 50.1141L74.1236 49.6844C74.7455 49.5406 75.383 49.9422 75.5283 50.5625L79.7674 68.9516C80.8861 73.7984 77.8518 78.65 73.0049 79.7672Z" fill="#8EC975"/>
<path opacity="0.5" d="M66.2002 51.5125C66.2002 51.5109 66.2002 51.5109 66.2002 51.5109C65.6658 49.1641 65.133 46.8172 64.5986 44.4703C64.6846 44.4531 64.7689 44.4344 64.8533 44.4156C66.4221 44.0531 67.8971 43.4594 69.2346 42.6625C69.6268 42.4313 70.0064 42.1813 70.3721 41.9141C70.3736 41.9219 70.3768 41.9313 70.3783 41.9391L71.5752 47.1344L72.2627 50.1141L66.2002 51.5125Z" fill="#899ACE"/>
</svg>
