<svg xmlns="http://www.w3.org/2000/svg" width="32" height="32" viewBox="0 0 32 32" fill="none">
  <path d="M24.8894 14.7514L10.649 0.511215C10.3196 0.181592 9.87994 0 9.41113 0C8.94232 0 8.50265 0.181592 8.17329 0.511215L7.12458 1.55966C6.44218 2.24284 6.44218 3.35321 7.12458 4.03535L19.0826 15.9934L7.11131 27.9646C6.78195 28.2943 6.6001 28.7337 6.6001 29.2022C6.6001 29.6713 6.78195 30.1107 7.11131 30.4406L8.16002 31.4888C8.48964 31.8184 8.92905 32 9.39786 32C9.86667 32 10.3063 31.8184 10.6357 31.4888L24.8894 17.2356C25.2195 16.905 25.4009 16.4635 25.3998 15.9941C25.4009 15.523 25.2195 15.0818 24.8894 14.7514Z" fill="white"/>
</svg>