<svg width="68" height="68" viewBox="0 0 68 68" fill="none" xmlns="http://www.w3.org/2000/svg">
<g clip-path="url(#clip0_43_1902)">
<path d="M32.5393 2.92139C14.5683 2.92139 0 17.4897 0 35.4607C0 39.0829 0.592609 42.5665 1.68486 45.8206L18.4118 64.7812C22.6846 66.8438 27.4769 68 32.5393 68C50.5103 68 65.0787 53.4317 65.0787 35.4607C65.0787 17.4897 50.5103 2.92139 32.5393 2.92139Z" fill="#1D2E79"/>
<path d="M44.131 64.2307L39.8421 59.9417L42.4319 53.4145C42.6566 52.8481 42.5232 52.2022 42.0922 51.7712L31.2135 40.876L28.2486 39.489L26.8306 40.8096L39.2222 53.2212L36.6324 59.7484C36.4077 60.3148 36.5412 60.9607 36.9721 61.3917L41.9711 66.3906C42.5675 66.987 43.5347 66.987 44.131 66.3906C44.7275 65.7941 44.7275 64.8271 44.131 64.2307Z" fill="#27A6FF"/>
<path d="M43.0513 68C44.5366 68 45.7407 66.7959 45.7407 65.3105C45.7407 63.8252 44.5366 62.6211 43.0513 62.6211C41.5659 62.6211 40.3618 63.8252 40.3618 65.3105C40.3618 66.7959 41.5659 68 43.0513 68Z" fill="#58D4FA"/>
<path d="M66.3904 41.9711L61.3914 36.9722C60.9604 36.5412 60.3146 36.4077 59.7481 36.6325L53.2209 39.2223L42.6112 28.5957L41.1533 30.0001L41.8526 32.1588L51.771 42.0924C52.202 42.5234 52.8479 42.6568 53.4143 42.4321L59.9415 39.8423L64.2304 44.1312C64.8269 44.7276 65.794 44.7276 66.3905 44.1312C66.9868 43.5347 66.9868 42.5677 66.3904 41.9711Z" fill="#FFC242"/>
<path d="M56.6305 54.4709L38.988 36.8115L37.2132 36.9616L36.645 38.7884L54.4704 56.6309C55.0669 57.2273 56.0339 57.2273 56.6304 56.6309C57.227 56.0344 57.227 55.0674 56.6305 54.4709Z" fill="#02C0FC"/>
<path d="M55.7148 58.4043C57.2002 58.4043 58.4043 57.2002 58.4043 55.7148C58.4043 54.2295 57.2002 53.0254 55.7148 53.0254C54.2295 53.0254 53.0254 54.2295 53.0254 55.7148C53.0254 57.2002 54.2295 58.4043 55.7148 58.4043Z" fill="#64F9EA"/>
<path d="M65.3105 45.7405C66.7959 45.7405 68 44.5364 68 43.051C68 41.5657 66.7959 40.3616 65.3105 40.3616C63.8252 40.3616 62.6211 41.5657 62.6211 43.051C62.6211 44.5364 63.8252 45.7405 65.3105 45.7405Z" fill="#FEF156"/>
<path d="M29.3553 41.2898C36.7704 41.2898 42.7815 35.2787 42.7815 27.8636C42.7815 20.4486 36.7704 14.4375 29.3553 14.4375C21.9403 14.4375 15.9292 20.4486 15.9292 27.8636C15.9292 35.2787 21.9403 41.2898 29.3553 41.2898Z" fill="#3F57A0"/>
<path d="M29.3556 33.5019C32.4695 33.5019 34.9939 30.9776 34.9939 27.8636C34.9939 24.7497 32.4695 22.2253 29.3556 22.2253C26.2416 22.2253 23.7173 24.7497 23.7173 27.8636C23.7173 30.9776 26.2416 33.5019 29.3556 33.5019Z" fill="#02C0FC"/>
<path d="M40.5269 20.6877C39.4761 21.7385 39.5381 23.4972 40.7127 24.4645C41.7339 25.3054 43.2411 25.1896 44.1766 24.2542L44.5466 23.8843C43.496 24.935 43.5578 26.6938 44.7324 27.6611C45.7536 28.5021 47.2608 28.3863 48.1963 27.4509L49.3612 26.286C48.414 27.2332 48.414 28.7831 49.3612 29.7303L49.525 29.8941C50.4722 30.8413 52.0221 30.8413 52.9693 29.8941C54.9474 27.916 60.3254 22.538 61.0867 21.7767C64.5232 18.3402 64.1026 15.4575 65.3657 14.1945L66.079 13.4833C68.6386 10.9311 68.6407 6.78605 66.0836 4.2314L65.1136 3.26213C62.1999 1.90931 57.888 1.67781 55.265 3.90242L43.7054 13.7007L40.5269 20.6877Z" fill="#FFC7AB"/>
<path d="M7.76808 42.9114L5.66526 40.3616L2.69862 40.9861C1.87399 42.4551 1.51991 44.145 1.68513 45.8206C2.18504 47.3099 2.79106 48.7504 3.49178 50.1348L7.66289 48.0181L8.25417 44.7664C8.23279 44.1333 8.07514 43.4994 7.76808 42.9114Z" fill="#58D4FA"/>
<path d="M28.0616 28.6919C26.9573 27.5877 25.1673 27.5877 24.0632 28.6918L22.1206 30.6345C21.0165 31.7385 21.0164 33.5287 22.1206 34.6329C23.2247 35.737 25.0148 35.737 26.1189 34.6329L28.0616 32.6903C29.1658 31.5861 29.1658 29.796 28.0616 28.6919Z" fill="#E8F8FC"/>
<path d="M28.2032 51.7914C27.3037 50.8007 25.8745 50.6199 24.7781 51.2435C25.7937 50.1559 25.7741 48.4521 24.7137 47.3919C23.8158 46.494 22.4563 46.3427 21.4 46.9336L21.6332 46.7003C22.6592 45.6742 22.7685 43.8965 21.7959 42.8196C20.9616 41.8956 19.668 41.6725 18.608 42.1436L14.3916 43.0552L8.48242 50.5196L9.43376 58.3707C10.1262 59.069 10.8507 59.7355 11.6038 60.3691H13.456V61.8171C15.0104 62.9445 16.6671 63.9393 18.4119 64.7814C19.2251 64.3126 19.9916 63.7321 20.6871 63.0365L24.1054 59.6182L23.9296 58.4145L25.7555 57.9682L28.0476 55.6761C29.1038 54.6196 29.2074 52.8976 28.2032 51.7914Z" fill="#E8F8FC"/>
<path d="M11.1852 33.7151C10.208 32.9355 8.78368 33.0957 8.00407 34.0729L4.92773 37.929L6.30686 40.1437L8.6259 40.5527L11.543 36.8964C12.3226 35.9192 12.1626 34.4949 11.1852 33.7151Z" fill="#ADE9F7"/>
<path d="M5.66498 43.9669C7.40918 43.9669 8.82313 42.553 8.82313 40.8088C8.82313 39.0646 7.40918 37.6506 5.66498 37.6506C3.92079 37.6506 2.50684 39.0646 2.50684 40.8088C2.50684 42.553 3.92079 43.9669 5.66498 43.9669Z" fill="#27A6FF"/>
<path d="M63.7657 1.91428C61.2164 -0.635057 57.0842 -0.63851 54.5306 1.90644C54.0982 2.33888 53.5321 2.61234 52.9245 2.68207L45.4071 3.79716C42.5797 4.21658 40.2866 6.3109 39.6632 9.03834L41.0208 10.4322L41.0412 12.957C39.3544 14.6438 31.3252 22.673 30.2324 23.7658C29.1817 24.8166 29.2436 26.5754 30.4184 27.5427C31.4397 28.3837 32.9467 28.2677 33.8821 27.3323L40.5269 20.6876L55.8713 5.34323C58.366 2.84861 62.4724 2.03859 65.4421 3.59064L63.7657 1.91428Z" fill="#FFAA7B"/>
<path d="M39.712 8.84309L41.8531 8.27346C43.303 7.88777 44.3293 9.66892 43.2684 10.7298L41.0412 12.957C40.6427 12.4383 39.3423 11.802 39.526 9.88686C39.5601 9.52986 39.6237 9.1815 39.712 8.84309Z" fill="#F7965B"/>
<path d="M20.7474 36.1869C19.6526 34.9912 17.7947 34.9603 16.6606 36.0944L5.20303 47.552C4.47575 48.2793 3.87252 49.0835 3.39307 49.9384C4.6006 52.3646 6.10098 54.6192 7.84986 56.6546L10.2415 55.9648V51.3495L14.2547 46.497L18.6083 42.1434L20.5964 40.1553C21.6491 39.1024 21.7528 37.285 20.7474 36.1869Z" fill="#ADE9F7"/>
<path d="M21.2625 38.1583C22.7356 38.1583 23.9298 36.9641 23.9298 35.491C23.9298 34.0179 22.7356 32.8237 21.2625 32.8237C19.7894 32.8237 18.5952 34.0179 18.5952 35.491C18.5952 36.9641 19.7894 38.1583 21.2625 38.1583Z" fill="#02C0FC"/>
<path d="M19.0115 52.8743L11.5566 60.3292C12.1866 60.8612 12.8366 61.37 13.5061 61.8535L19.8799 55.4796L24.0617 59.6615L25.7985 57.9247L20.7482 52.8743C20.2689 52.3948 19.4911 52.3948 19.0115 52.8743Z" fill="#3FEADD"/>
<path d="M12.7302 46.5928L8.96699 50.356C8.68914 50.6339 8.56098 51.0279 8.62221 51.416L9.21946 55.1982L7.81006 56.6076C8.3433 57.2307 8.89886 57.8338 9.47699 58.4145L11.3987 56.4929C11.6765 56.215 11.8047 55.821 11.7433 55.433L11.1462 51.6507L14.4672 48.3297C14.9467 47.8501 14.9467 47.0725 14.4672 46.5929C13.9876 46.1133 13.2098 46.1132 12.7302 46.5928Z" fill="#02C0FC"/>
</g>
<defs>
<clipPath id="clip0_43_1902">
<rect width="68" height="68" fill="white"/>
</clipPath>
</defs>
</svg>
