<svg width="24" height="24" viewBox="0 0 24 24" fill="none" xmlns="http://www.w3.org/2000/svg">
<g clip-path="url(#clip0_708_4464)">
<path d="M13.5394 20.2847C13.5562 20.2817 13.5727 20.2772 13.5889 20.2716C13.5917 20.2707 13.5945 20.2698 13.5972 20.2687C13.614 20.2626 13.6305 20.2553 13.6463 20.2466C13.6469 20.2463 13.6474 20.2461 13.648 20.2458C13.6505 20.2444 13.6528 20.2428 13.6553 20.2413C13.6621 20.2373 13.6689 20.2331 13.6755 20.2286C13.6801 20.2255 13.6845 20.2221 13.6888 20.2188C13.6936 20.2152 13.6984 20.2116 13.7031 20.2077C13.7088 20.2031 13.7141 20.198 13.7196 20.1929C13.722 20.1906 13.7245 20.1886 13.7269 20.1863C13.7287 20.1844 13.7303 20.1828 13.732 20.181C13.7324 20.1806 13.7328 20.1802 13.7331 20.18C18.8873 15.0228 18.2307 12.1748 18.2003 12.0561C18.1513 11.8656 17.957 11.7506 17.7664 11.7995C17.5757 11.8484 17.4608 12.0427 17.5098 12.2334C17.5112 12.239 12.1062 16.7366 12.1062 16.7366C12.0108 16.5646 11.7937 16.5026 11.6216 16.5982C11.4495 16.6938 11.3875 16.9108 11.4832 17.0828L13.159 20.0997C13.1592 20.1 13.1594 20.1004 13.1596 20.1007L13.1633 20.1074C13.164 20.1087 13.1651 20.11 13.1659 20.1114C13.1722 20.1224 13.1792 20.1331 13.1868 20.1436C13.1892 20.1468 13.1915 20.1502 13.1939 20.1532C13.202 20.1636 13.2106 20.1737 13.22 20.1832C13.2211 20.1842 13.2219 20.1856 13.2229 20.1866C13.2237 20.1873 13.2247 20.1878 13.2255 20.1887C13.237 20.2 13.2492 20.2101 13.2619 20.2195C13.265 20.2218 13.268 20.2242 13.2713 20.2264C13.285 20.236 13.2992 20.2446 13.3139 20.2521C13.3158 20.2531 13.3177 20.2538 13.3195 20.2548C13.3344 20.262 13.3497 20.2681 13.3652 20.2731C13.3666 20.2736 13.368 20.2741 13.3694 20.2746C13.3856 20.2796 13.4019 20.2833 13.4186 20.2858C13.4218 20.2863 13.425 20.2868 13.4282 20.2871C13.4447 20.2894 13.4611 20.2906 13.4776 20.2905C13.4802 20.2905 13.4826 20.2902 13.4851 20.2901C13.5005 20.2896 13.5159 20.2882 13.5312 20.2857C13.5341 20.2855 13.5367 20.2852 13.5394 20.2847Z" fill="#EE5253"/>
<path d="M7.40194 12.3784C7.49761 12.2063 7.4355 11.9892 7.26347 11.8938C7.26347 11.8938 11.7649 6.48964 11.7713 6.49109L11.7667 6.48992L11.944 5.79954C11.8252 5.76898 8.97746 5.11268 3.82032 10.267C3.81999 10.2673 3.81961 10.2677 3.81933 10.2679C3.8175 10.2697 3.81582 10.2714 3.81408 10.2732C3.81164 10.2756 3.80972 10.2781 3.80738 10.2806C3.80232 10.2859 3.79725 10.2912 3.79252 10.297C3.78863 10.3017 3.78507 10.3065 3.78146 10.3113C3.77822 10.3157 3.7748 10.3201 3.77171 10.3246C3.76721 10.3312 3.76308 10.3379 3.75905 10.3448C3.75764 10.3474 3.75591 10.3497 3.7545 10.3521C3.75417 10.3527 3.75403 10.3532 3.75371 10.3538C3.74494 10.3697 3.73772 10.386 3.73163 10.4027C3.7306 10.4056 3.72957 10.4084 3.72863 10.4113C3.72314 10.4276 3.71864 10.4439 3.71564 10.4606C3.71508 10.4634 3.71485 10.4662 3.71442 10.469C3.71203 10.484 3.71058 10.4993 3.71021 10.5145C3.71007 10.5171 3.70978 10.5198 3.70974 10.5224C3.70964 10.5389 3.71086 10.5552 3.71307 10.5716C3.71349 10.5749 3.71396 10.5782 3.71442 10.5815C3.7171 10.5981 3.72071 10.6144 3.72567 10.6306C3.7261 10.632 3.72666 10.6335 3.72708 10.6348C3.7321 10.6505 3.73828 10.6655 3.74546 10.6804C3.74639 10.6824 3.74719 10.6842 3.74817 10.6861C3.75558 10.7008 3.76425 10.7149 3.77382 10.7287C3.77611 10.732 3.77841 10.7351 3.78075 10.7382C3.79022 10.7508 3.80035 10.7629 3.81164 10.7745C3.81239 10.7754 3.81291 10.7762 3.81375 10.7771C3.81474 10.778 3.81605 10.7789 3.81708 10.78C3.82669 10.7893 3.83672 10.798 3.84703 10.8061C3.85017 10.8085 3.85346 10.8108 3.85674 10.8131C3.86719 10.8208 3.87788 10.8278 3.88889 10.8341C3.8903 10.8349 3.89152 10.8359 3.89292 10.8367L3.89958 10.8404C3.89991 10.8406 3.90019 10.8407 3.90052 10.8409L6.91725 12.5168C7.08933 12.6124 7.30636 12.5505 7.40194 12.3784Z" fill="#FF6B6B"/>
<path d="M5.9948 14.3023C5.89566 14.2032 5.86383 14.0552 5.91351 13.924C6.85256 11.4459 10.4448 7.00241 12.5688 4.87832C15.963 1.48415 19.587 -0.10965 23.648 0.00584989C23.8369 0.0112405 23.9887 0.163116 23.9941 0.351975C24.1097 4.41285 22.5159 8.03685 19.1216 11.4312C16.9976 13.5552 12.5542 17.1475 10.0761 18.0865C9.94495 18.1362 9.79692 18.1043 9.69778 18.0052L5.9948 14.3023Z" fill="#E4E8EB"/>
<path d="M23.9941 0.351949C23.9887 0.163043 23.8368 0.0112147 23.6479 0.00582405C23.4268 -0.000504077 23.2072 -0.000785327 22.9886 0.0031053C22.9215 3.79834 21.3227 7.21342 18.1133 10.4229C15.9893 12.5469 11.5459 16.1392 9.06779 17.0782C8.93668 17.1279 8.7886 17.0961 8.68946 16.9969L5.99452 14.3021C5.99462 14.3021 5.99466 14.3022 5.99476 14.3023L9.69769 18.0051C9.79683 18.1043 9.94487 18.1361 10.076 18.0864C12.5541 17.1474 16.9975 13.5551 19.1215 11.4311C22.5159 8.03687 24.1096 4.41287 23.9941 0.351949Z" fill="#CAD0D7"/>
<path d="M6.70842 12.3274C6.36652 12.9109 6.09201 13.4531 5.91351 13.924C5.86383 14.0552 5.89566 14.2032 5.9948 14.3024L9.69773 18.0052C9.79687 18.1043 9.94491 18.1361 10.0761 18.0865C10.547 17.908 11.0891 17.6335 11.6727 17.2916L6.70842 12.3274Z" fill="#576574"/>
<path d="M0.256647 23.7435C-0.0678214 23.4191 -0.0843214 22.8591 0.206116 22.0316C0.413819 21.4398 0.776772 20.706 1.28471 19.8507C2.15935 18.378 3.29855 16.837 3.81376 16.3219C4.3298 15.8057 5.0161 15.5215 5.74594 15.5215C6.47579 15.5215 7.16208 15.8057 7.67818 16.3219C8.74355 17.3873 8.74355 19.1208 7.67823 20.1863C7.16284 20.7016 5.62191 21.8408 4.14933 22.7154C3.29396 23.2233 2.56027 23.5862 1.96852 23.794C1.14099 24.0844 0.581022 24.068 0.256647 23.7435Z" fill="#FF6B6B"/>
<path d="M7.67818 16.3219C7.50516 16.1488 7.31274 16.0025 7.10626 15.8837C7.7064 16.9278 7.56127 18.2866 6.66999 19.178C6.15465 19.6933 4.61368 20.8324 3.14115 21.7071C2.28577 22.2151 1.55204 22.578 0.960289 22.7858C0.586882 22.9169 0.268507 22.9849 0.00113231 22.9909C-0.00613331 23.316 0.0785698 23.5655 0.256601 23.7436C0.580976 24.068 1.14094 24.0844 1.96848 23.7941C2.56018 23.5863 3.29396 23.2233 4.14929 22.7154C5.62187 21.8408 7.16284 20.7016 7.67818 20.1863C8.74356 19.1208 8.74356 17.3872 7.67818 16.3219Z" fill="#EE5253"/>
<path d="M8.35027 15.6498C8.21105 15.5106 7.98539 15.5106 7.84622 15.6498L7.59427 15.9017L8.09832 16.4057L8.35027 16.1538C8.48939 16.0146 8.48939 15.7889 8.35027 15.6498Z" fill="#222F3E"/>
<path d="M7.00603 14.3056C6.86686 14.1664 6.6412 14.1664 6.50198 14.3056L6.25008 14.5575L6.75412 15.0616L7.00603 14.8096C7.14525 14.6705 7.14525 14.4449 7.00603 14.3056Z" fill="#222F3E"/>
<path d="M12.4378 11.5623C12.1236 11.2482 11.9505 10.8304 11.9505 10.3862C11.9505 9.94186 12.1235 9.52415 12.4377 9.21C12.7518 8.89593 13.1695 8.72287 13.6138 8.72278C14.0581 8.72278 14.4758 8.89579 14.7899 9.2099C15.104 9.52406 15.2771 9.94186 15.2771 10.3861C15.2772 10.8304 15.1041 11.2482 14.7899 11.5623C14.1414 12.2108 13.0863 12.2108 12.4378 11.5623Z" fill="#54A0FF"/>
<path d="M16.4705 7.52934C15.822 6.88087 15.822 5.82562 16.4705 5.17715C17.119 4.52868 18.1743 4.52868 18.8227 5.17715C19.1369 5.4913 19.31 5.90901 19.31 6.35333C19.31 6.79757 19.137 7.21537 18.8228 7.52952C18.1743 8.17794 17.1191 8.17794 16.4705 7.52934Z" fill="#54A0FF"/>
<path d="M19.31 6.35329C19.31 5.90896 19.1369 5.49126 18.8227 5.17711C18.6428 4.99725 18.4314 4.86735 18.2063 4.78729C18.269 4.96401 18.3017 5.15207 18.3018 5.34511C18.3018 5.78934 18.1287 6.20704 17.8146 6.5212C17.3464 6.98939 16.6663 7.11942 16.0802 6.91153C16.1602 7.13728 16.2902 7.34906 16.4706 7.52934C17.1191 8.17795 18.1744 8.17795 18.8228 7.52953C19.137 7.21532 19.31 6.79753 19.31 6.35329Z" fill="#2E86DE"/>
<path d="M15.2771 10.3861C15.2771 9.94186 15.104 9.52416 14.7899 9.21C14.61 9.03005 14.3986 8.90016 14.1734 8.82019C14.2361 8.99682 14.2689 9.18488 14.2689 9.37791C14.2689 9.82224 14.0959 10.2399 13.7817 10.5541C13.3135 11.0223 12.6334 11.1522 12.0473 10.9444C12.1273 11.1701 12.2573 11.3819 12.4377 11.5622C13.0862 12.2108 14.1415 12.2108 14.7899 11.5623C15.1041 11.2481 15.2771 10.8304 15.2771 10.3861Z" fill="#2E86DE"/>
<path d="M2.37849 21.6216C2.10066 21.3438 2.27836 20.9018 2.48878 20.506C2.66199 20.1804 2.9295 19.764 3.28388 19.2685C3.88861 18.4229 4.61002 17.5418 4.82185 17.3299C5.33143 16.8204 6.1605 16.8204 6.67008 17.3299C7.17966 17.8394 7.17966 18.6685 6.67008 19.1782C6.45821 19.3901 5.577 20.1115 4.73166 20.7161C4.2361 21.0705 3.8198 21.338 3.49407 21.5112C3.09835 21.7217 2.65636 21.8994 2.37849 21.6216Z" fill="#FECA57"/>
<path d="M23.648 0.00587363C22.2173 -0.034767 20.8412 0.137639 19.51 0.525202L23.4748 4.49003C23.8624 3.15883 24.0348 1.78258 23.9941 0.351999C23.9887 0.163139 23.8369 0.0112174 23.648 0.00587363Z" fill="#FF6B6B"/>
<path d="M10.2144 18.0319C10.2407 18.0213 10.267 18.0103 10.2938 17.9991C10.3052 17.9943 10.3166 17.9895 10.3282 17.9846C10.3593 17.9713 10.3907 17.9576 10.4223 17.9437C10.4283 17.941 10.434 17.9387 10.44 17.9359C10.4766 17.9197 10.5135 17.9029 10.5506 17.8857C10.5636 17.8797 10.5767 17.8736 10.5897 17.8674C10.615 17.8556 10.6405 17.8436 10.6661 17.8314C10.681 17.8242 10.6961 17.817 10.7111 17.8097C10.7371 17.7971 10.7633 17.7843 10.7895 17.7713C10.803 17.7646 10.8164 17.7582 10.8299 17.7514C10.8662 17.7332 10.9027 17.7147 10.9395 17.6959C10.9578 17.6865 10.9763 17.6768 10.9948 17.6672C11.0157 17.6563 11.0367 17.6455 11.0577 17.6344C11.0783 17.6235 11.099 17.6126 11.1198 17.6014C11.139 17.5912 11.1582 17.5809 11.1775 17.5705C11.1992 17.5588 11.2209 17.5471 11.2428 17.5352C11.2512 17.5306 11.2598 17.5258 11.2682 17.5211C11.3203 17.4926 11.3727 17.4633 11.4257 17.4335C11.4401 17.4255 11.4545 17.4173 11.469 17.4091C11.4956 17.394 11.5222 17.3787 11.549 17.3634C11.562 17.3559 11.5752 17.3483 11.5883 17.3406C11.6163 17.3244 11.6444 17.3081 11.6726 17.2916L10.6644 16.2835C10.0808 16.6253 9.53878 16.8999 9.06778 17.0783C8.93667 17.128 8.78859 17.0962 8.68945 16.997L5.99475 14.3024L9.69769 18.0052C9.79683 18.1044 9.94486 18.1362 10.076 18.0866C10.111 18.0733 10.1466 18.0593 10.1823 18.045C10.193 18.0406 10.2037 18.0362 10.2144 18.0319Z" fill="#222F3E"/>
<path d="M22.9886 0.00316996C22.9675 1.19858 22.794 2.35629 22.4666 3.48172L23.4748 4.49C23.4972 4.41336 23.5186 4.33648 23.5395 4.25951C23.5439 4.24297 23.5483 4.22628 23.5527 4.20978C23.6131 3.98403 23.6671 3.75701 23.7152 3.52869C23.7211 3.50094 23.7269 3.47319 23.7325 3.44544C23.7466 3.37667 23.7602 3.30781 23.7731 3.23872C23.7781 3.21204 23.7826 3.18514 23.7875 3.15851C23.8083 3.04283 23.8276 2.92695 23.8454 2.81065C23.8522 2.76608 23.8591 2.72154 23.8654 2.67692C23.8735 2.62011 23.8812 2.56329 23.8885 2.50629C23.8957 2.45051 23.9024 2.39464 23.9089 2.33876C23.9157 2.28031 23.9224 2.2219 23.9284 2.16336C23.9373 2.07739 23.9453 1.99128 23.9525 1.90494C23.9561 1.86158 23.9592 1.81808 23.9624 1.77462C23.9676 1.70286 23.9724 1.63109 23.9765 1.55919C23.9787 1.52169 23.981 1.48428 23.9828 1.44678C23.9881 1.3415 23.9922 1.23598 23.995 1.13009C23.9957 1.10309 23.9959 1.07586 23.9964 1.04876C23.9982 0.961248 23.9993 0.873592 23.9993 0.785701C23.9994 0.753404 23.9994 0.721014 23.9993 0.688717C23.9987 0.576779 23.9973 0.464561 23.9941 0.351967C23.9888 0.163061 23.8368 0.0112325 23.648 0.00584183C23.4268 -0.000439417 23.2072 -0.000720667 22.9886 0.00316996Z" fill="#EE5253"/>
</g>
<defs>
<clipPath id="clip0_708_4464">
<rect width="24" height="24" fill="white"/>
</clipPath>
</defs>
</svg>
