<svg width="67" height="37" viewBox="0 0 67 37" fill="none" xmlns="http://www.w3.org/2000/svg">
<g clip-path="url(#clip0_37_682)">
<mask id="mask0_37_682" style="mask-type:luminance" maskUnits="userSpaceOnUse" x="0" y="0" width="67" height="37">
<path d="M66.2856 0.746094H0.285645V36.2541H66.2856V0.746094Z" fill="white"/>
</mask>
<g mask="url(#mask0_37_682)">
<path d="M37.5446 36.2529H33.6266C33.6186 36.2437 33.6087 36.2364 33.5975 36.2314C33.5864 36.2264 33.5744 36.2238 33.5621 36.2238C33.5499 36.2238 33.5379 36.2264 33.5268 36.2314C33.5156 36.2364 33.5057 36.2437 33.4977 36.2529H33.3176C33.2266 36.1979 33.1256 36.2439 33.0316 36.2259C32.6626 36.1539 32.2856 36.1579 31.9126 36.1119L30.8857 35.9849C30.6667 35.9579 30.4436 35.9209 30.2246 35.8769C29.6586 35.7629 29.0876 35.6709 28.5246 35.5289C27.8311 35.3751 27.1494 35.1723 26.4846 34.9219C26.1646 34.7909 25.8456 34.6619 25.5336 34.5099C25.0118 34.2604 24.5693 33.8709 24.2556 33.3849C23.9545 32.9033 23.7038 32.3919 23.5076 31.8589C23.3516 31.4589 23.2186 31.0439 23.1026 30.6249C22.8125 29.5737 22.5907 28.5048 22.4386 27.4249C22.4106 27.2319 22.3796 27.0379 22.3656 26.8439C22.3516 26.6499 22.3466 26.4759 22.3186 26.3029C22.2606 25.9479 22.2376 25.5889 22.2126 25.2339C22.1676 24.6009 22.1666 23.9649 22.1606 23.3339C22.1606 22.8619 22.1606 22.3889 22.1826 21.9179C22.2106 21.3839 22.2676 20.8509 22.3116 20.3179C22.3176 20.2625 22.3086 20.2066 22.2856 20.1559C22.3116 20.1489 22.3686 20.1709 22.3356 20.1049C22.3289 19.9867 22.3393 19.8681 22.3666 19.7529C22.4226 19.4359 22.4596 19.1169 22.5116 18.7989C22.5766 18.3989 22.6436 17.9989 22.7246 17.5989C22.8746 16.8615 23.06 16.1332 23.2806 15.4139C23.4336 14.9139 23.5987 14.4199 23.7887 13.9339C24.0678 13.2116 24.3901 12.5066 24.7536 11.8229C25.0578 11.248 25.3916 10.6892 25.7536 10.1489C26.2434 9.41385 26.7983 8.7244 27.4117 8.08888C27.9217 7.56888 28.4366 7.05688 28.9886 6.58088C29.4226 6.20688 29.8636 5.84288 30.3176 5.49388L30.3447 5.47588C30.3982 5.42416 30.4576 5.37886 30.5217 5.34088L30.5506 5.32088L30.6256 5.26388L30.6536 5.24488L30.9146 5.04588L30.9426 5.02688L31.1716 4.86588L31.2006 4.84588C31.3156 4.73888 31.4716 4.69288 31.5846 4.58288L31.6126 4.56388L31.6617 4.53088L31.6906 4.51088L31.7406 4.47788L31.7686 4.46088L31.8186 4.42788L31.8456 4.41088L31.8967 4.37588L31.9226 4.36088L32.1006 4.24888L32.1296 4.22888L32.1786 4.19688L32.2056 4.17988L32.3056 4.11788L32.3336 4.10088L32.5126 3.99088L32.5396 3.97388L32.6396 3.91388L32.6666 3.89688L32.9476 3.73388L32.9766 3.71488C33.3516 3.50788 33.7187 3.28388 34.1037 3.09788C34.7667 2.77788 35.4356 2.46988 36.1216 2.19788C36.6926 1.97288 37.2716 1.77088 37.8606 1.59788C38.2066 1.49788 38.5526 1.39188 38.9076 1.31888C39.2076 1.25588 39.5077 1.16088 39.8147 1.10788C40.3253 1.01788 40.8383 0.940214 41.3537 0.87488C41.7537 0.82488 42.1486 0.79188 42.5476 0.77488C43.2361 0.729235 43.9271 0.735252 44.6146 0.79288C45.0016 0.83088 45.3926 0.84088 45.7776 0.90288C46.0526 0.94688 46.3316 0.96388 46.6026 1.03088C46.7756 1.07288 46.9616 1.07088 47.1246 1.12388C47.4416 1.22388 47.7686 1.28688 48.0846 1.38788C48.4176 1.49488 48.7517 1.59788 49.0777 1.72088C49.1877 1.74472 49.2954 1.77818 49.3996 1.82088C49.5644 1.91391 49.7371 1.99221 49.9156 2.05488C50.2729 2.20703 50.622 2.37759 50.9616 2.56588C51.1294 2.65168 51.2914 2.74821 51.4466 2.85488C51.9136 3.18088 52.3956 3.48188 52.8386 3.84288C53.1206 4.07288 53.3976 4.30888 53.6626 4.55588C54.0826 4.9446 54.4711 5.36592 54.8246 5.81588C55.4382 6.58594 55.9695 7.41814 56.4097 8.29888C56.5667 8.61888 56.7236 8.94088 56.8626 9.26788C56.9552 9.44778 57.0225 9.63959 57.0627 9.83788C57.062 9.84473 57.0629 9.85163 57.0653 9.8581C57.0676 9.86456 57.0714 9.87044 57.0762 9.8753C57.0811 9.88017 57.087 9.8839 57.0934 9.88625C57.0999 9.88859 57.1068 9.88949 57.1136 9.88888C57.1026 9.91888 57.0697 9.95388 57.1317 9.96588C57.1667 10.1599 57.2436 10.3429 57.2946 10.5319C57.2946 10.5649 57.2886 10.6009 57.3356 10.6099L57.3466 10.7099C57.3466 10.7429 57.3406 10.7799 57.3876 10.7879C57.4064 10.9462 57.4443 11.1017 57.5006 11.2509C57.5006 11.2609 57.5006 11.2699 57.5006 11.2799C57.5235 11.3639 57.5402 11.4494 57.5506 11.5359C57.5506 11.5709 57.5506 11.6079 57.5986 11.6119C57.5969 11.6715 57.6016 11.7312 57.6126 11.7899C57.6679 12.0254 57.7083 12.2642 57.7336 12.5049C57.7886 12.8439 57.8436 13.1819 57.8676 13.5259C57.8941 13.7406 57.9091 13.9566 57.9126 14.1729C57.9076 14.3179 57.9566 14.4569 57.9496 14.6079C57.9356 14.9029 57.9606 15.1989 57.9496 15.4949C57.9496 15.6329 57.8856 15.7819 57.9986 15.9079C57.9986 15.9079 57.9867 15.9289 57.9807 15.9399C57.9537 15.9469 57.8966 15.9259 57.9336 15.9919C57.8984 16.2305 57.8884 16.4722 57.9036 16.7129C57.8716 16.7189 57.8437 16.7269 57.8817 16.7639C57.8617 16.8409 57.9026 16.9369 57.8727 16.9919C57.833 17.0731 57.8255 17.1663 57.8516 17.2529C57.8016 17.2579 57.8046 17.2949 57.8056 17.3299L57.8256 17.4589C57.7756 17.4639 57.7796 17.5009 57.7796 17.5359C57.7718 17.6387 57.7701 17.7419 57.7746 17.8449C57.7256 17.8499 57.7287 17.8859 57.7287 17.9209C57.7083 18.1691 57.6695 18.4154 57.6126 18.6579C57.5633 18.8472 57.5318 19.0407 57.5186 19.2359C57.4696 19.2359 57.4706 19.2769 57.4706 19.3119C57.4496 19.4309 57.4276 19.5499 57.3976 19.6689C57.3346 19.9199 57.2746 20.1689 57.1976 20.4199C57.1396 20.6079 57.0876 20.7989 57.0336 20.9879C57.0096 21.0019 57.0016 21.0179 57.0266 21.0379L56.7496 21.8379C56.7496 21.8469 56.7496 21.8549 56.7496 21.8639C56.6973 21.9405 56.669 22.0311 56.6686 22.1239L56.6467 22.1479L56.5706 22.3279C56.5706 22.3359 56.5706 22.3449 56.5706 22.3529C56.4747 22.5529 56.3957 22.7606 56.3346 22.9739L56.3136 22.9969C56.2803 23.0432 56.2609 23.098 56.2576 23.1549L56.2366 23.1779C56.2137 23.2059 56.2025 23.2418 56.2056 23.2779C56.033 23.3008 55.8587 23.3095 55.6846 23.3039C55.6332 23.2932 55.5797 23.3031 55.5355 23.3315C55.4913 23.36 55.4601 23.4046 55.4486 23.4559C55.3815 23.6268 55.2917 23.7879 55.1816 23.9349C54.8999 24.3876 54.5415 24.7879 54.1227 25.1179C54.1056 25.1109 54.0996 25.1179 54.0947 25.1359L53.9666 25.2249C53.9486 25.2139 53.9456 25.2249 53.9406 25.2399L53.8916 25.2749C53.8746 25.2659 53.8686 25.2749 53.8646 25.2899C53.8436 25.2899 53.8136 25.2899 53.8046 25.2979C53.7124 25.3971 53.5881 25.4605 53.4536 25.4769C53.3986 25.4939 53.3346 25.4929 53.2986 25.5499L53.0096 25.6059C52.9406 25.6199 52.9096 25.5859 52.9466 25.5299C53.0306 25.3819 53.0467 25.2109 53.1187 25.0599C53.1347 25.0599 53.1436 25.0519 53.1406 25.0349C53.1026 24.9749 53.1497 24.9259 53.1617 24.8729C53.3146 24.4923 53.3552 24.0758 53.2786 23.6729C53.2601 23.5888 53.2202 23.5109 53.1627 23.4468C53.1053 23.3827 53.0322 23.3345 52.9506 23.3069C52.7781 23.2549 52.5969 23.2378 52.4177 23.2565C52.2385 23.2752 52.0647 23.3294 51.9066 23.4159C51.8886 23.4059 51.8846 23.4159 51.8796 23.4319C51.7606 23.4479 51.7136 23.5559 51.6366 23.6239C51.362 23.886 51.156 24.2115 51.0367 24.5719C51.0167 24.5929 50.9786 24.6029 50.9926 24.6449L50.9836 24.6969C50.9686 24.6969 50.9576 24.7029 50.9646 24.7209C50.9726 24.7609 50.9177 24.7849 50.9397 24.8279C50.9097 24.8339 50.9026 24.8509 50.9156 24.8769C50.9139 24.898 50.9109 24.9191 50.9066 24.9399C50.7894 25.2597 50.7823 25.6096 50.8866 25.9339C50.8806 25.9519 50.8866 25.9569 50.9066 25.9579C50.9414 26.0583 51.0021 26.1476 51.0826 26.2169C51.0826 26.2279 51.0706 26.2409 51.0746 26.2479C51.0786 26.2549 51.1006 26.2599 51.1156 26.2539C51.221 26.3726 51.3515 26.4662 51.4977 26.5279C51.5697 26.5679 51.5916 26.5939 51.5326 26.6679C51.4266 26.7989 51.3327 26.9409 51.2327 27.0759C51.017 27.3769 50.7811 27.6628 50.5266 27.9319C50.2576 28.2079 49.9656 28.4589 49.6966 28.7319C49.4653 28.9807 49.1988 29.1943 48.9056 29.3659C48.8322 29.4128 48.7499 29.444 48.6639 29.4576C48.5779 29.4712 48.4899 29.4669 48.4056 29.4449C48.3049 29.4157 48.2155 29.3564 48.1495 29.2748C48.0836 29.1933 48.0442 29.0935 48.0367 28.9889C48.0028 28.7971 47.995 28.6017 48.0136 28.4079C48.0564 28.019 48.1299 27.6341 48.2336 27.2569C48.3128 26.8953 48.413 26.5387 48.5336 26.1889C48.5496 26.1889 48.5586 26.1819 48.5556 26.1639C48.5525 26.0825 48.5718 26.0019 48.6116 25.9309C48.6276 25.9309 48.6367 25.9229 48.6337 25.9059C48.6304 25.8248 48.6498 25.7445 48.6897 25.6739C48.7047 25.6739 48.7146 25.6659 48.7106 25.6489C48.6586 25.5809 48.7287 25.5319 48.7437 25.4779C48.8317 25.1719 48.9297 24.8689 49.0237 24.5659L49.0426 24.5579L49.0246 24.5389L49.1006 24.3089C49.1166 24.3089 49.1256 24.3019 49.1216 24.2839C49.1185 24.2025 49.1379 24.1219 49.1776 24.0509C49.1936 24.0509 49.2026 24.0429 49.1996 24.0259C49.1965 23.9449 49.2159 23.8645 49.2556 23.7939C49.2706 23.7939 49.2806 23.7859 49.2766 23.7689C49.2316 23.6879 49.3106 23.6309 49.3206 23.5589C49.3346 23.4589 49.4266 23.3199 49.3896 23.2769C49.3306 23.2059 49.1896 23.2539 49.0896 23.2539C48.9896 23.2539 48.9016 23.2259 48.8176 23.2889C48.7996 23.2789 48.7956 23.2889 48.7906 23.3049C48.6966 23.2959 48.6627 23.3949 48.5907 23.4179C48.5727 23.4079 48.5686 23.4179 48.5636 23.4339L48.3636 23.5469C48.3456 23.5379 48.3406 23.5469 48.3356 23.5629C48.2546 23.5769 48.2007 23.6409 48.1357 23.6749C48.1167 23.6659 48.1126 23.6749 48.1116 23.6929L48.0836 23.7029C48.0656 23.6919 48.0616 23.7029 48.0566 23.7179L47.8566 23.8319C47.8386 23.8209 47.8347 23.8319 47.8297 23.8469C47.7357 23.8389 47.7006 23.9369 47.6296 23.9599C47.6106 23.9499 47.6066 23.9599 47.6006 23.9769L47.4007 24.0879C47.3817 24.0799 47.3776 24.0879 47.3766 24.1059L47.3486 24.1159C47.3306 24.1049 47.3266 24.1159 47.3216 24.1309L47.1166 24.2449C47.0986 24.2339 47.0946 24.2449 47.0896 24.2599C47.0046 24.2059 46.9896 24.1119 46.9556 24.0279C46.9556 24.0119 46.9557 24.0049 46.9377 24.0109C46.8156 23.8378 46.674 23.6795 46.5156 23.5389C46.5156 23.5229 46.5156 23.5149 46.4996 23.5259L46.4476 23.4869C46.4476 23.4749 46.4396 23.4619 46.4216 23.4729C46.3376 23.4349 46.2546 23.3919 46.1686 23.3599C45.7246 23.2166 45.2482 23.2068 44.7986 23.3319L44.7786 23.3139L44.7706 23.3329C44.5154 23.3982 44.2707 23.4992 44.0436 23.6329C43.9915 23.6755 43.9269 23.7001 43.8596 23.7029H43.8147C43.7647 23.7089 43.7486 23.7639 43.7066 23.7809C43.6877 23.7719 43.6826 23.7859 43.6776 23.7989C43.5963 23.836 43.5194 23.8823 43.4486 23.9369C43.4306 23.9279 43.4256 23.9369 43.4206 23.9539C43.3766 23.9699 43.3496 24.0109 43.3096 24.0359C43.0853 24.1722 42.8735 24.3281 42.6767 24.5019C42.6287 24.5019 42.6016 24.5199 42.6066 24.5719C42.4365 24.7151 42.2789 24.8727 42.1357 25.0429C42.0967 25.0429 42.0807 25.0519 42.1057 25.0899C42.0937 25.0899 42.0776 25.0949 42.0696 25.1039C41.6625 25.579 41.3285 26.1122 41.0786 26.6859C41.0626 26.6859 41.0536 26.6919 41.0586 26.7099L40.9756 26.9429C40.9606 26.9429 40.9496 26.9489 40.9576 26.9669C40.9656 26.9849 40.9526 27.0019 40.9496 27.0189C40.9346 27.0189 40.9236 27.0259 40.9306 27.0439C40.9386 27.0829 40.8826 27.1099 40.9086 27.1519C40.8766 27.1519 40.8716 27.1729 40.8766 27.1989C40.8693 27.2429 40.8617 27.2865 40.8537 27.3299C40.8237 27.3359 40.8176 27.3529 40.8306 27.3789C40.7956 27.5729 40.7597 27.7669 40.7307 27.9609C40.7208 28.0027 40.6972 28.04 40.6637 28.0669C40.3347 28.3939 39.9976 28.7119 39.6416 29.0099C39.2375 29.3886 38.7205 29.6246 38.1696 29.6819C37.8681 29.7238 37.5608 29.6858 37.2785 29.5715C36.9963 29.4572 36.7491 29.2708 36.5616 29.0309C36.357 28.7441 36.2105 28.42 36.1306 28.0769C36.0966 27.9529 36.1146 27.9019 36.2486 27.8639C36.9996 27.6475 37.7291 27.3623 38.4276 27.0119C38.4446 27.0119 38.4506 27.0119 38.4456 26.9929C38.4866 26.9389 38.5557 26.9399 38.6077 26.9089C38.6247 26.9089 38.6316 26.9089 38.6256 26.8899C38.7786 26.7659 38.9616 26.6899 39.1116 26.5539C39.3116 26.3976 39.4968 26.2232 39.6646 26.0329C39.6816 26.0329 39.6877 26.0329 39.6877 26.0129C39.7387 25.9319 39.7877 25.8509 39.8407 25.7709C40.0356 25.4751 40.1309 25.1247 40.1126 24.7709C40.1027 24.4228 39.9653 24.0904 39.7266 23.8369C39.3933 23.5006 38.9465 23.3009 38.4736 23.2769C38.1591 23.2601 37.8438 23.2847 37.5356 23.3499C37.1709 23.435 36.8201 23.5713 36.4937 23.7549C36.4757 23.7459 36.4717 23.7549 36.4657 23.7719L36.4166 23.8049C36.3986 23.7969 36.3936 23.8049 36.3886 23.8229C36.2069 23.9169 36.0412 24.0391 35.8976 24.1849C35.5732 24.4782 35.2748 24.7991 35.0056 25.1439C34.7531 25.4882 34.5354 25.8566 34.3557 26.2439C34.3397 26.2439 34.3306 26.2489 34.3356 26.2669C34.249 26.4675 34.1778 26.6744 34.1227 26.8859C34.1087 26.8859 34.0957 26.8919 34.1057 26.9109C34.0122 27.2366 33.9579 27.5723 33.9436 27.9109C33.9414 27.9341 33.9341 27.9566 33.9221 27.9766C33.9102 27.9967 33.894 28.0138 33.8746 28.0269C33.7376 28.1539 33.5936 28.2749 33.4626 28.4089C33.3798 28.4986 33.2902 28.5818 33.1946 28.6579C33.1796 28.6579 33.1696 28.6679 33.1726 28.6849L32.9886 28.8459C32.9716 28.8459 32.9657 28.8459 32.9677 28.8659C32.725 29.0961 32.4566 29.2974 32.1676 29.4659C32.1486 29.4579 32.1446 29.4659 32.1436 29.4839C31.9221 29.6015 31.6846 29.6864 31.4386 29.7359C31.2155 29.7856 30.9818 29.7469 30.7867 29.6279C30.4801 29.3961 30.2708 29.0585 30.1996 28.6809C30.1721 28.5117 30.1654 28.3397 30.1796 28.1689C30.1676 27.7989 30.2027 27.4309 30.2157 27.0619C30.2102 26.8721 30.2783 26.6876 30.4056 26.5469C31.3112 25.5932 32.0942 24.5304 32.7366 23.3829C33.2013 22.5438 33.516 21.6301 33.6666 20.6829C33.7036 20.4469 33.7196 20.2089 33.7516 19.9749C33.8323 19.4328 33.7798 18.8792 33.5986 18.3619C33.4926 18.0619 33.3126 17.9049 32.9166 18.0569C32.8249 18.1021 32.73 18.1406 32.6326 18.1719C32.4572 18.2069 32.2866 18.263 32.1246 18.3389C31.9963 18.3945 31.8648 18.4423 31.7307 18.4819C31.7008 18.4757 31.6698 18.4796 31.6425 18.493C31.6151 18.5064 31.593 18.5285 31.5797 18.5559C31.4019 18.628 31.2199 18.6891 31.0347 18.7389C31.0152 18.736 30.9954 18.739 30.9776 18.7473C30.9598 18.7557 30.9449 18.7691 30.9346 18.7859C30.8526 18.8489 30.7286 18.8309 30.6706 18.9439C30.3986 19.4679 30.1356 19.9959 29.9046 20.5439C29.8676 20.5559 29.8466 20.5779 29.8606 20.6189C29.8575 20.6355 29.8531 20.6519 29.8476 20.6679C29.7463 20.9179 29.6463 21.1679 29.5476 21.4179C29.5276 21.4409 29.4906 21.4539 29.5026 21.4949C29.4879 21.5741 29.462 21.6509 29.4256 21.7229C29.3463 21.9389 29.2663 22.1545 29.1856 22.3699C29.1376 22.3769 29.1326 22.4079 29.1416 22.4479C29.0266 22.7969 28.9106 23.1479 28.7976 23.4949C28.7423 23.6142 28.7042 23.7408 28.6846 23.8709C28.6616 23.8709 28.6316 23.8639 28.6246 23.8959C28.6176 23.9279 28.6246 23.9529 28.6586 23.9619C28.6236 24.0679 28.5866 24.1729 28.5586 24.2799C28.4896 24.5179 28.4196 24.7549 28.3586 24.9949C28.3086 25.1949 28.2707 25.3949 28.2287 25.6009C28.2145 25.5985 28.2 25.6016 28.1881 25.6096C28.1762 25.6176 28.1678 25.6299 28.1646 25.6439C28.1706 25.6759 28.2006 25.7039 28.1886 25.7439C28.1443 25.8788 28.1138 26.0178 28.0976 26.1589C28.0535 26.3396 28.0267 26.5241 28.0176 26.7099C28.0107 26.7089 28.0036 26.7093 27.9968 26.7111C27.99 26.7129 27.9836 26.716 27.978 26.7203C27.9724 26.7246 27.9677 26.7299 27.9642 26.736C27.9608 26.7422 27.9585 26.7489 27.9576 26.7559L27.9886 26.8889C27.9546 26.8889 27.9546 26.9119 27.9576 26.9369L27.9476 27.2819C27.9145 27.3035 27.8906 27.3366 27.8806 27.3749C27.9101 27.4907 27.9101 27.6121 27.8806 27.7279C27.8656 28.0379 27.8726 28.3479 27.8806 28.6589C27.884 29.0546 27.9631 29.4459 28.1136 29.8119C28.2626 30.2187 28.5254 30.5742 28.8707 30.8359C29.2103 31.0706 29.6109 31.2013 30.0237 31.2119C30.214 31.2103 30.4035 31.1872 30.5886 31.1429C31.0926 31.0404 31.5716 30.8403 31.9986 30.5539C32.3109 30.3668 32.6084 30.1561 32.8886 29.9239C33.0096 29.8239 33.1367 29.7239 33.2607 29.6239C33.2967 29.6469 33.3126 29.6399 33.3046 29.5949L33.9937 28.9869C34.0363 29.1786 34.0903 29.3676 34.1556 29.5529C34.3167 29.983 34.5936 30.3603 34.9556 30.6429C35.3279 30.9415 35.7767 31.1294 36.2506 31.1849C36.6694 31.2285 37.0923 31.21 37.5056 31.1299C38.1566 30.9866 38.7674 30.7 39.2936 30.2909C39.6087 30.0601 39.9117 29.8135 40.2016 29.5519L40.7416 29.0569C40.7486 29.2728 40.7916 29.4861 40.8687 29.6879C40.9824 30.0366 41.1677 30.3578 41.4126 30.6309C41.5231 30.7771 41.661 30.9004 41.8186 30.9939C42.1385 31.1744 42.5089 31.2447 42.8727 31.1939C43.3821 31.1108 43.8589 30.8891 44.2506 30.5529C44.8384 30.0365 45.3588 29.4482 45.7997 28.8019C45.8247 28.7659 45.8536 28.7329 45.8996 28.6769C45.8996 28.7769 45.8996 28.8439 45.8996 28.9119C45.8974 29.236 45.9222 29.5598 45.9736 29.8799C46.0111 30.0716 46.0664 30.2594 46.1386 30.4409C46.2004 30.6144 46.3034 30.7703 46.4387 30.8952C46.5741 31.0201 46.7378 31.1102 46.9156 31.1579C47.2623 31.2449 47.6283 31.2118 47.9536 31.0639C48.2531 30.9325 48.5326 30.7594 48.7836 30.5499C48.9346 30.4249 49.0997 30.3089 49.2437 30.1789C49.4497 29.9935 49.6553 29.8069 49.8606 29.6189C50.3593 29.1723 50.8337 28.6993 51.2816 28.2019C51.5286 27.9219 51.7526 27.6239 51.9816 27.3289C52.0096 27.3159 52.0656 27.3389 52.0526 27.2729C52.0561 27.2351 52.067 27.1984 52.0846 27.1649C52.1846 27.0179 52.2736 26.8649 52.3676 26.7209C52.3847 26.7185 52.4006 26.7109 52.4132 26.6991C52.4257 26.6872 52.4343 26.6718 52.4377 26.6549C52.4927 26.5719 52.5846 26.6069 52.6586 26.5899C52.9466 26.5239 53.2196 26.4129 53.5036 26.3369C53.5226 26.3469 53.5246 26.3369 53.5276 26.3199C53.5584 26.2975 53.5947 26.284 53.6326 26.2809C53.6476 26.2899 53.6506 26.2809 53.6456 26.2689C53.7076 26.2127 53.7871 26.1798 53.8707 26.1759L53.6826 26.4609C53.6391 26.4858 53.603 26.5219 53.5782 26.5656C53.5534 26.6092 53.5408 26.6587 53.5416 26.7089C53.5096 26.7089 53.5056 26.7369 53.5026 26.7619C53.4775 26.7699 53.4566 26.7876 53.4444 26.811C53.4322 26.8344 53.4298 26.8617 53.4377 26.8869C53.4167 26.9219 53.3687 26.9399 53.3727 26.9869C53.3017 26.9869 53.3197 27.0249 53.3427 27.0629C53.1763 27.3438 53.0316 27.637 52.9097 27.9399C52.8937 27.9399 52.8846 27.9459 52.8896 27.9639L52.8066 28.1969C52.7916 28.1969 52.7816 28.2029 52.7876 28.2209C52.7116 28.4009 52.6786 28.5949 52.6136 28.7799C52.5676 28.8727 52.5495 28.977 52.5616 29.0799C52.5126 29.0859 52.5266 29.1219 52.5276 29.1519C52.5286 29.1819 52.5216 29.2039 52.5196 29.2289C52.1746 29.6129 51.8406 30.0069 51.4836 30.3779C50.9347 30.976 50.3424 31.5328 49.7116 32.0439C49.4676 32.2319 49.2206 32.4159 48.9726 32.5989C48.6436 32.8409 48.2937 33.0519 47.9527 33.2749C47.9449 33.2785 47.9388 33.285 47.9356 33.2929C47.8381 33.359 47.7362 33.4185 47.6306 33.4709C47.3476 33.6139 47.0686 33.7639 46.7856 33.9059C46.279 34.1592 45.7633 34.3925 45.2386 34.6059C45.1086 34.6589 44.9736 34.6979 44.8386 34.7439C44.8322 34.7431 44.8256 34.7438 44.8194 34.7459C44.8132 34.748 44.8075 34.7513 44.8028 34.7558C44.798 34.7603 44.7943 34.7657 44.7918 34.7718C44.7894 34.7778 44.7883 34.7844 44.7887 34.7909C44.6906 34.8259 44.5904 34.8546 44.4886 34.8769C44.2056 34.9769 43.9176 35.0639 43.6306 35.1569C43.5946 35.1569 43.5576 35.1569 43.5526 35.2039L43.3736 35.2339C43.3376 35.2339 43.3006 35.2339 43.2956 35.2809H43.1956C43.1596 35.2809 43.1226 35.2809 43.1176 35.3279L42.9176 35.3589C42.8816 35.3589 42.8436 35.3589 42.8396 35.4059C42.6086 35.4299 42.3926 35.5179 42.1656 35.5559C42.1256 35.5279 42.1226 35.5559 42.1176 35.5859C42.075 35.5847 42.0323 35.5888 41.9906 35.5979C41.7206 35.6919 41.4316 35.6979 41.1576 35.7729C40.9576 35.8259 40.7576 35.8409 40.5576 35.8869C40.3376 35.9379 40.1126 35.9689 39.8886 36.0009C39.6646 36.0329 39.4386 36.0569 39.2126 36.0819C38.9866 36.1069 38.7696 36.1339 38.5466 36.1509C38.2226 36.1759 37.8976 36.1899 37.5756 36.2339M49.0146 20.3029C49.1886 20.3209 49.1146 20.1879 49.1146 20.1199C49.1246 19.9409 49.1146 19.9409 48.9456 19.9419C48.9026 19.9419 48.8596 19.9419 48.8167 19.9419C48.7036 19.9419 48.6566 19.8849 48.6566 19.7769C48.6566 19.6099 48.6566 19.4419 48.6566 19.2769C48.6566 18.7959 48.6566 18.3159 48.6566 17.8349C48.6566 17.7449 48.6807 17.7129 48.7717 17.7199C48.8627 17.7269 48.9516 17.7199 49.0426 17.7199C49.0746 17.7199 49.1207 17.7289 49.1207 17.6779C49.1207 17.5719 49.1556 17.4529 49.1046 17.3629C49.0726 17.3079 48.9607 17.3489 48.8857 17.3439C48.8428 17.3395 48.7995 17.3395 48.7567 17.3439C48.6757 17.3549 48.6566 17.3209 48.6566 17.2439C48.6616 17.0439 48.6566 16.8439 48.6566 16.6389C48.6566 16.5739 48.6386 16.5459 48.5696 16.5489C48.4754 16.5537 48.3809 16.5537 48.2867 16.5489C48.2157 16.5489 48.1866 16.5669 48.1866 16.6419C48.1916 16.7919 48.1866 16.9419 48.1866 17.0929C48.1866 17.3429 48.1866 17.3489 47.9306 17.3409C47.8216 17.3409 47.7936 17.3689 47.7976 17.4759C47.8056 17.7199 47.7977 17.7259 48.0387 17.7179C48.1507 17.7179 48.1907 17.7389 48.1897 17.8629C48.1827 18.5369 48.1897 19.2109 48.1897 19.8839C48.1792 19.9921 48.2114 20.1001 48.2794 20.1849C48.3474 20.2697 48.4458 20.3246 48.5536 20.3379C48.686 20.3579 48.8201 20.3636 48.9536 20.3549C48.9906 20.3599 49.0146 20.3479 49.0166 20.3069M41.6246 20.2419H41.6446L41.6256 20.2319C41.6253 20.2211 41.6284 20.2106 41.6345 20.2018C41.6407 20.1929 41.6495 20.1863 41.6597 20.1829C41.7755 20.1397 41.8796 20.0701 41.9637 19.9794C42.0477 19.8888 42.1094 19.7797 42.1436 19.6609C42.1896 19.6539 42.1856 19.6189 42.1866 19.5859C42.1886 19.5523 42.1926 19.5189 42.1986 19.4859C42.2616 19.2309 42.2617 19.2309 42.0067 19.2309C41.7837 19.2309 41.7846 19.2309 41.7276 19.4399C41.7033 19.5579 41.6434 19.6656 41.5559 19.7486C41.4685 19.8315 41.3578 19.8857 41.2386 19.9039C41.0946 19.9465 40.9404 19.9393 40.8009 19.8836C40.6615 19.828 40.5448 19.7269 40.4697 19.5969C40.3544 19.386 40.2869 19.1523 40.272 18.9125C40.2572 18.6726 40.2953 18.4324 40.3837 18.2089C40.4273 18.0774 40.5057 17.9603 40.6106 17.8699C40.6909 17.8005 40.7859 17.7503 40.8884 17.723C40.991 17.6957 41.0983 17.6921 41.2025 17.7125C41.3066 17.7328 41.4047 17.7765 41.4895 17.8403C41.5742 17.9042 41.6434 17.9864 41.6917 18.0809C41.7267 18.1599 41.7026 18.2809 41.7916 18.3129C41.8799 18.3304 41.9705 18.3331 42.0596 18.3209C42.0896 18.3209 42.1196 18.3209 42.1496 18.3209C42.2026 18.3209 42.2166 18.2999 42.2106 18.2519C42.1964 17.9791 42.0771 17.7225 41.8776 17.5359C41.7518 17.4339 41.6071 17.3577 41.4518 17.3117C41.2964 17.2657 41.1335 17.2508 40.9724 17.2679C40.8114 17.285 40.6552 17.3337 40.513 17.4113C40.3708 17.4889 40.2453 17.5937 40.1436 17.7199C39.9787 17.9608 39.8698 18.2355 39.8248 18.5239C39.7798 18.8124 39.7999 19.1072 39.8837 19.3869C39.9368 19.6732 40.0966 19.9287 40.3306 20.1019L40.3506 20.1229C40.533 20.2556 40.748 20.3365 40.9726 20.357C41.1973 20.3774 41.4233 20.3366 41.6266 20.2389M38.6046 17.3389C38.3132 17.2447 38.001 17.2357 37.7047 17.3129C37.6697 17.3129 37.6326 17.3129 37.6276 17.3599C37.5316 17.3802 37.4408 17.4202 37.3609 17.4774C37.2811 17.5345 37.2139 17.6075 37.1637 17.6919C37.1023 17.7772 37.0596 17.8745 37.0383 17.9774C37.017 18.0803 37.0177 18.1866 37.0402 18.2892C37.0628 18.3919 37.1067 18.4886 37.1691 18.5732C37.2316 18.6577 37.3112 18.7282 37.4026 18.7799C37.61 18.8851 37.8307 18.9614 38.0586 19.0069C38.2522 19.0376 38.4415 19.091 38.6227 19.1659C38.6769 19.1923 38.7233 19.2325 38.757 19.2826C38.7907 19.3327 38.8105 19.3908 38.8145 19.451C38.8184 19.5113 38.8064 19.5715 38.7795 19.6256C38.7527 19.6796 38.712 19.7256 38.6617 19.7589C38.5367 19.8426 38.3936 19.8954 38.2442 19.9128C38.0949 19.9302 37.9435 19.9117 37.8026 19.8589C37.7313 19.8416 37.6652 19.8075 37.6097 19.7595C37.5542 19.7115 37.511 19.6509 37.4836 19.5829C37.4526 19.5099 37.4836 19.3979 37.4076 19.3659C37.324 19.3468 37.2376 19.343 37.1526 19.3549H37.0146C36.9716 19.3549 36.9506 19.3729 36.9556 19.4169C36.955 19.5495 36.983 19.6807 37.0378 19.8015C37.0925 19.9223 37.1726 20.0299 37.2726 20.1169C37.5193 20.2695 37.8036 20.3504 38.0936 20.3504C38.3837 20.3504 38.668 20.2695 38.9146 20.1169C39.0432 20.0288 39.1442 19.906 39.2058 19.7628C39.2674 19.6196 39.2871 19.4618 39.2626 19.3079C39.2452 19.1706 39.1874 19.0415 39.0966 18.937C39.0059 18.8326 38.8862 18.7573 38.7526 18.7209C38.4308 18.6173 38.1037 18.5308 37.7726 18.4619C37.683 18.4428 37.6041 18.39 37.5522 18.3145C37.5003 18.239 37.4794 18.1464 37.4937 18.0559C37.5035 17.973 37.5398 17.8954 37.5973 17.8349C37.6548 17.7743 37.7303 17.734 37.8127 17.7199C37.9516 17.6956 38.0927 17.6863 38.2336 17.6919C38.3228 17.6951 38.409 17.7242 38.482 17.7755C38.5549 17.8268 38.6114 17.8981 38.6446 17.9809C38.6806 18.1159 38.7396 18.1809 38.8806 18.1489C38.8933 18.1476 38.906 18.1476 38.9186 18.1489C39.1496 18.1489 39.1527 18.1489 39.1187 17.9269C39.0968 17.7951 39.0395 17.6717 38.9528 17.57C38.8661 17.4684 38.7534 17.3923 38.6266 17.3499L38.6016 17.3279M44.4536 18.5569C44.4536 17.8619 44.4536 17.2059 44.4536 16.5499C44.4536 16.4439 44.5016 16.3069 44.4326 16.2409C44.3636 16.1749 44.2276 16.2329 44.1227 16.2189C44.0177 16.2049 43.9876 16.2429 43.9876 16.3509C43.9876 17.5179 43.9876 18.6859 43.9876 19.8509C43.9876 19.9659 43.9486 20.1229 44.0076 20.1849C44.0836 20.2639 44.2426 20.1999 44.3646 20.2119C44.4326 20.2189 44.4536 20.1919 44.4516 20.1249C44.4615 19.9276 44.4595 19.7299 44.4456 19.5329C44.4177 19.3799 44.435 19.2221 44.4954 19.0787C44.5558 18.9354 44.6567 18.8128 44.7856 18.7259C44.8676 18.6629 44.9016 18.6519 44.9586 18.7469C45.1826 19.1169 45.4356 19.4719 45.6346 19.8549C45.6796 19.9873 45.7732 20.0977 45.8965 20.1638C46.0197 20.2299 46.1635 20.2467 46.2986 20.2109C46.3336 20.2039 46.3827 20.2319 46.3987 20.1889C46.4147 20.1459 46.3776 20.1269 46.3606 20.0989C46.0006 19.5319 45.6606 18.9499 45.2856 18.3989C45.2456 18.3399 45.2556 18.3089 45.3026 18.2629C45.5776 17.9919 45.8507 17.7179 46.1227 17.4439C46.1635 17.4147 46.1956 17.3749 46.2157 17.3289C46.0825 17.3374 45.9488 17.3374 45.8156 17.3289C45.7543 17.3224 45.6924 17.3331 45.6367 17.3598C45.5811 17.3864 45.534 17.428 45.5006 17.4799C45.1816 17.8559 44.8076 18.1799 44.4486 18.5609M46.8976 18.7709C46.8976 19.1399 46.8976 19.5089 46.8976 19.8779C46.8976 19.9879 46.8486 20.1319 46.9196 20.1989C46.9906 20.2659 47.1326 20.2079 47.2426 20.2199C47.3526 20.2319 47.3626 20.1939 47.3626 20.0989C47.3586 19.2149 47.3586 18.3309 47.3626 17.4469C47.3626 17.3619 47.3476 17.3209 47.2526 17.3299C47.1715 17.338 47.0898 17.338 47.0087 17.3299C46.9157 17.3209 46.8946 17.3559 46.8956 17.4449C46.8956 17.8869 46.8956 18.3289 46.8956 18.7709M42.8486 18.7709C42.8486 19.1439 42.8486 19.5179 42.8486 19.8909C42.8486 19.9969 42.8016 20.1339 42.8696 20.1999C42.9376 20.2659 43.0696 20.2079 43.1796 20.2209C43.2896 20.2339 43.3157 20.1979 43.3147 20.0889C43.3147 19.2889 43.3147 18.4889 43.3147 17.6819C43.3147 17.5709 43.3516 17.4239 43.2956 17.3589C43.2396 17.2939 43.0776 17.3449 42.9646 17.3319C42.8746 17.3219 42.8486 17.3519 42.8496 17.4439C42.8496 17.8859 42.8496 18.3279 42.8496 18.7699M47.3606 16.5119C47.3606 16.2249 47.3607 16.2249 47.0777 16.2249C47.0443 16.2265 47.011 16.2265 46.9776 16.2249C46.9136 16.2179 46.8977 16.2469 46.8987 16.3069C46.8987 16.4399 46.8987 16.5729 46.8987 16.7069C46.8987 16.7719 46.9136 16.8069 46.9836 16.7959C47.0169 16.7939 47.0503 16.7939 47.0836 16.7959C47.3606 16.7959 47.3606 16.7959 47.3606 16.5159M43.3136 16.5219C43.3136 16.4539 43.3136 16.3849 43.3136 16.3169C43.3136 16.2489 43.2977 16.2299 43.2287 16.2279C42.8487 16.2129 42.8496 16.2109 42.8496 16.5869V16.5999C42.8496 16.7999 42.8496 16.7999 43.0436 16.7999C43.3136 16.7999 43.3136 16.7999 43.3136 16.5259" fill="#FA9A29"/>
<path d="M62.7017 23.6647C62.7387 23.6467 62.7547 23.5967 62.8017 23.6017C62.8437 23.6427 62.8487 23.6097 62.8537 23.5767L62.8797 23.5617L62.9087 23.5517L62.9317 23.5337C63.3165 23.3039 63.7719 23.2221 64.2127 23.3037C64.3377 23.3349 64.4521 23.3991 64.5437 23.4897C64.6057 23.5507 64.6787 23.5987 64.7367 23.6637C64.7359 23.6694 64.7364 23.6751 64.7382 23.6806C64.7399 23.686 64.7429 23.691 64.7468 23.6951C64.7508 23.6992 64.7556 23.7024 64.7609 23.7044C64.7663 23.7064 64.772 23.7072 64.7777 23.7067C64.7927 23.7467 64.7997 23.7927 64.8407 23.8177C64.8417 23.8219 64.8438 23.8256 64.8468 23.8286C64.8498 23.8316 64.8536 23.8337 64.8577 23.8347L64.8657 23.8627C64.8657 23.8697 64.8657 23.8777 64.8657 23.8847C64.9715 24.0984 65.0165 24.3372 64.9957 24.5747C64.9708 24.8788 64.9186 25.18 64.8397 25.4747C64.7397 25.8537 64.6257 26.2297 64.4947 26.6007C64.4347 26.7707 64.3557 26.9327 64.3047 27.1007C64.1767 27.5257 63.9827 27.9257 63.8547 28.3517C63.7377 28.6606 63.6787 28.9884 63.6807 29.3187C63.6874 29.3981 63.7182 29.4734 63.7689 29.5348C63.8197 29.5961 63.888 29.6404 63.9647 29.6617L63.9907 29.6827C64.0345 29.7021 64.0818 29.7121 64.1297 29.7121C64.1776 29.7121 64.2249 29.7021 64.2687 29.6827C64.4508 29.6311 64.6207 29.5437 64.7687 29.4257C64.7728 29.4252 64.7767 29.4235 64.7799 29.4208C64.783 29.4182 64.7854 29.4147 64.7867 29.4107C64.9011 29.3432 65.0066 29.2615 65.1007 29.1677L65.1227 29.1417C65.2837 29.004 65.4366 28.8571 65.5807 28.7017C65.7607 28.5177 65.9407 28.3327 66.1077 28.1367L66.1277 28.1157L66.2137 28.0157C66.2387 27.9877 66.2617 27.9807 66.2817 28.0207C66.2527 28.0417 66.2577 28.0737 66.2577 28.1027C66.2577 28.3601 66.2577 28.6174 66.2577 28.8747C66.2577 28.9047 66.2577 28.9357 66.2837 28.9567V29.0087C66.2597 28.9957 66.2437 29.0087 66.2287 29.0257C66.0817 29.1707 65.9427 29.3257 65.7927 29.4677C65.6427 29.6097 65.5137 29.7437 65.3637 29.8677C65.1377 30.0567 64.9057 30.2397 64.6767 30.4247C64.6694 30.4268 64.663 30.4314 64.6587 30.4377C64.5957 30.4767 64.5307 30.5137 64.4687 30.5537C64.1055 30.7995 63.7083 30.9909 63.2897 31.1217C62.9343 31.2441 62.5493 31.2511 62.1897 31.1417L62.1647 31.1207C62.0328 31.0785 61.9137 31.0035 61.8187 30.9027C61.6021 30.7303 61.4511 30.4889 61.3907 30.2187L61.3737 30.1937C61.3737 30.1757 61.3737 30.1577 61.3737 30.1387C61.4047 30.0987 61.3737 30.0947 61.3447 30.0897C61.3288 29.9694 61.3201 29.8481 61.3187 29.7267C61.3176 29.3733 61.3592 29.0211 61.4427 28.6777C61.4887 28.4667 61.5517 28.2607 61.6067 28.0527L61.6237 28.0277C61.6597 27.8507 61.7337 27.6847 61.7847 27.5127L61.8027 27.4847L61.8087 27.4357C61.8757 27.4167 61.8657 27.3537 61.8807 27.3057C61.8842 27.2848 61.8888 27.2641 61.8947 27.2437C62.0487 26.8047 62.2407 26.3797 62.3827 25.9367C62.4538 25.7511 62.5074 25.5593 62.5427 25.3637C62.5627 25.1997 62.5067 25.0247 62.4067 25.0137C62.2561 24.9895 62.102 25.0254 61.9777 25.1137C61.5505 25.4408 61.1566 25.8093 60.8017 26.2137C60.5257 26.5297 60.2557 26.8517 59.9847 27.1717C59.7932 27.3922 59.6562 27.6546 59.5847 27.9377C59.5356 28.1008 59.5021 28.2683 59.4847 28.4377C59.4757 28.6107 59.3847 28.7797 59.4487 28.9567C59.4167 28.9627 59.3877 28.9697 59.4257 29.0077C59.3755 29.3071 59.3511 29.6102 59.3527 29.9137C59.3407 30.1647 59.3527 30.4137 59.3527 30.6677C59.3553 30.6823 59.3548 30.6972 59.3509 30.7115C59.3471 30.7258 59.3402 30.7391 59.3306 30.7504C59.3211 30.7617 59.3091 30.7707 59.2956 30.7768C59.2822 30.7829 59.2675 30.786 59.2527 30.7857C59.1707 30.8007 59.0897 30.8197 59.0087 30.8377L58.9827 30.8587C58.8424 30.8709 58.704 30.8984 58.5697 30.9407L58.5437 30.9617C58.5103 30.9604 58.4768 30.9621 58.4437 30.9667C58.0817 31.0494 57.72 31.1327 57.3587 31.2167L57.3367 31.1977C57.3234 31.1539 57.3137 31.1091 57.3077 31.0637C57.2917 30.7637 57.2477 30.4637 57.2547 30.1637C57.2937 30.1277 57.2667 30.1187 57.2337 30.1117C57.2337 29.8027 57.2337 29.4947 57.2337 29.1857C57.2337 29.1597 57.2537 29.1217 57.2117 29.1087C57.1697 29.0957 57.1687 29.1307 57.1507 29.1467C57.0747 29.2187 57.0007 29.2927 56.9217 29.3627C56.4803 29.7783 56.009 30.161 55.5117 30.5077C55.1421 30.7704 54.7384 30.9813 54.3117 31.1347C54.0388 31.2308 53.7447 31.2499 53.4617 31.1897C53.3002 31.1365 53.1524 31.0484 53.0287 30.9317L52.9997 30.9107C52.8099 30.7444 52.6686 30.5298 52.5907 30.2897L52.5717 30.2657L52.5637 30.2137L52.5467 30.1877C52.5337 30.0747 52.4607 29.9717 52.4867 29.8517C52.5257 29.8147 52.4977 29.8067 52.4647 29.7997C52.4585 29.6105 52.4642 29.4212 52.4817 29.2327L52.4897 29.1557C52.5367 29.1487 52.5487 29.1247 52.5237 29.0837C52.5119 28.9807 52.5303 28.8765 52.5767 28.7837C52.6407 28.5987 52.6767 28.4047 52.7507 28.2247L52.7697 28.2007L52.8527 27.9667L52.8727 27.9427C52.995 27.6398 53.14 27.3467 53.3067 27.0657C53.3447 27.0507 53.3357 27.0177 53.3377 26.9897C53.3377 26.9397 53.3817 26.9207 53.4027 26.8897C53.4597 26.8667 53.4637 26.8157 53.4677 26.7647C53.4677 26.7397 53.4747 26.7157 53.5067 26.7117C53.578 26.6455 53.6273 26.5589 53.6477 26.4637L53.8357 26.1787C53.7522 26.1827 53.6727 26.2156 53.6107 26.2717C53.6076 26.2726 53.6048 26.2741 53.6024 26.2762C53.6 26.2783 53.598 26.2808 53.5967 26.2837C53.5588 26.2869 53.5225 26.3004 53.4917 26.3227L53.4677 26.3397C53.1837 26.4157 52.9107 26.5277 52.6227 26.5927C52.5487 26.6097 52.4567 26.5747 52.4017 26.6577C52.3537 26.6577 52.3277 26.6727 52.3317 26.7237C52.2377 26.8717 52.1457 27.0237 52.0487 27.1677C52.031 27.2013 52.0201 27.238 52.0167 27.2757C51.9777 27.2757 51.9447 27.2807 51.9457 27.3317C51.7177 27.6267 51.4937 27.9247 51.2457 28.2037C50.7978 28.7012 50.3234 29.1742 49.8247 29.6207C49.6247 29.8077 49.4137 29.9957 49.2077 30.1807C49.0637 30.3107 48.8987 30.4267 48.7477 30.5517C48.4965 30.7612 48.2171 30.9342 47.9177 31.0657C47.5923 31.2136 47.2264 31.2468 46.8797 31.1597C46.7018 31.1122 46.5381 31.022 46.4027 30.8971C46.2673 30.7722 46.1644 30.6163 46.1027 30.4427C46.0303 30.2613 45.9751 30.0735 45.9377 29.8817C45.8862 29.5617 45.8614 29.2379 45.8637 28.9137C45.8637 28.8457 45.8637 28.7777 45.8637 28.6787C45.8207 28.7337 45.7927 28.7677 45.7637 28.8027C45.3227 29.449 44.8023 30.0373 44.2147 30.5537C43.8229 30.8898 43.3462 31.1116 42.8367 31.1947C42.4729 31.2456 42.1025 31.1753 41.7827 30.9947C41.6251 30.9011 41.4873 30.7779 41.3767 30.6317C41.1317 30.3586 40.9465 30.0375 40.8327 29.6887C40.7555 29.4869 40.7126 29.2737 40.7057 29.0577C40.5117 29.2357 40.3387 29.3947 40.1657 29.5527C39.8758 29.8144 39.5728 30.061 39.2577 30.2917C38.7315 30.7008 38.1206 30.9875 37.4697 31.1307C37.0563 31.2107 36.6335 31.2293 36.2147 31.1857C35.7407 31.1302 35.2919 30.9424 34.9197 30.6437C34.5577 30.3611 34.2808 29.9838 34.1197 29.5537C34.0544 29.3685 34.0003 29.1795 33.9577 28.9877L33.2687 29.5957C33.2592 29.5952 33.2498 29.5977 33.2419 29.6029C33.2339 29.6081 33.2279 29.6158 33.2247 29.6247C33.1007 29.7247 32.9737 29.8247 32.8527 29.9247C32.5725 30.157 32.2749 30.3676 31.9627 30.5547C31.5357 30.8413 31.0567 31.0414 30.5527 31.1437C30.3676 31.1881 30.178 31.2112 29.9877 31.2127C29.575 31.202 29.1744 31.0713 28.8347 30.8367C28.4895 30.575 28.2267 30.2195 28.0777 29.8127C27.9271 29.4468 27.8481 29.0554 27.8447 28.6597C27.8447 28.3497 27.8327 28.0387 27.8447 27.7287C27.8742 27.6129 27.8742 27.4915 27.8447 27.3757C27.9147 27.3757 27.9227 27.3387 27.9117 27.2827L27.9217 26.9377C27.9487 26.9377 27.9787 26.9297 27.9527 26.8897L27.9227 26.7567C27.9497 26.7507 27.9977 26.7717 27.9827 26.7107C27.9916 26.5246 28.0184 26.3397 28.0627 26.1587C28.0789 26.0177 28.1094 25.8786 28.1537 25.7437C28.1657 25.7077 28.1367 25.6797 28.1297 25.6437C28.1577 25.6437 28.2007 25.6567 28.1947 25.6007C28.2377 25.4007 28.2747 25.1957 28.3257 24.9947C28.3857 24.7547 28.4567 24.5167 28.5257 24.2797C28.5567 24.1727 28.5937 24.0677 28.6257 23.9617C28.6377 23.9327 28.6727 23.9097 28.6507 23.8707C28.6703 23.7407 28.7084 23.6141 28.7637 23.4947C28.8767 23.1457 28.9927 22.7947 29.1077 22.4477C29.1567 22.4417 29.1527 22.4047 29.1517 22.3697L29.3917 21.7227C29.428 21.6507 29.4539 21.574 29.4687 21.4947C29.5177 21.4887 29.5147 21.4527 29.5137 21.4177L29.8137 20.6677C29.8191 20.6517 29.8235 20.6353 29.8267 20.6187C29.8747 20.6127 29.8697 20.5767 29.8707 20.5437C30.1017 19.9997 30.3647 19.4717 30.6367 18.9437C30.6957 18.8297 30.8197 18.8437 30.9007 18.7857C30.9407 18.7857 30.9917 18.8037 31.0007 18.7387C31.1859 18.6889 31.3679 18.6278 31.5457 18.5557C31.6027 18.5457 31.6697 18.5557 31.6967 18.4817C31.8308 18.4421 31.9624 18.3943 32.0907 18.3387C32.2527 18.2628 32.4232 18.2067 32.5987 18.1717C32.6961 18.1404 32.791 18.102 32.8827 18.0567C33.2827 17.9047 33.4587 18.0627 33.5647 18.3617C33.7458 18.879 33.7983 19.4326 33.7177 19.9747C33.6847 20.2087 33.6697 20.4477 33.6327 20.6827C33.4821 21.63 33.1674 22.5437 32.7027 23.3827C32.0603 24.5302 31.2773 25.5931 30.3717 26.5467C30.2443 26.6875 30.1762 26.872 30.1817 27.0617C30.1687 27.4307 30.1337 27.7987 30.1457 28.1687C30.1314 28.3396 30.1381 28.5115 30.1657 28.6807C30.2368 29.0584 30.4461 29.3961 30.7527 29.6277C30.9478 29.7469 31.1816 29.7856 31.4047 29.7357C31.6506 29.6863 31.8881 29.6014 32.1097 29.4837L32.1337 29.4657C32.4226 29.2972 32.691 29.0959 32.9337 28.8657L32.9547 28.8457L33.1387 28.6847L33.1607 28.6577C33.2562 28.5817 33.3458 28.4984 33.4287 28.4087C33.5597 28.2747 33.7037 28.1537 33.8407 28.0267C33.8601 28.0135 33.8764 27.9962 33.8883 27.976C33.9002 27.9557 33.9075 27.9331 33.9097 27.9097C33.924 27.5712 33.9783 27.2355 34.0717 26.9097L34.0887 26.8847C34.1439 26.6736 34.2151 26.467 34.3017 26.2667L34.3217 26.2437C34.5015 25.8565 34.7192 25.488 34.9717 25.1437C35.2408 24.7989 35.5393 24.4781 35.8637 24.1847C36.0074 24.0391 36.1731 23.9169 36.3547 23.8227L36.3827 23.8047L36.4317 23.7717L36.4597 23.7547C36.7861 23.571 37.1369 23.4347 37.5017 23.3497C37.8098 23.2846 38.1252 23.2601 38.4397 23.2767C38.9129 23.3005 39.3601 23.5002 39.6937 23.8367C39.9323 24.0903 40.0696 24.4227 40.0797 24.7707C40.0978 25.1245 40.0025 25.4748 39.8077 25.7707C39.7557 25.8507 39.7077 25.9327 39.6547 26.0127L39.6317 26.0327C39.4638 26.2231 39.2787 26.3975 39.0787 26.5537C38.9297 26.6847 38.7467 26.7657 38.5927 26.8897L38.5747 26.9087C38.5227 26.9397 38.4527 26.9387 38.4127 26.9927L38.3947 27.0117C37.6961 27.3622 36.9667 27.6474 36.2157 27.8637C36.0817 27.9007 36.0637 27.9527 36.0977 28.0767C36.1776 28.4201 36.324 28.7446 36.5287 29.0317C36.7162 29.2716 36.9635 29.4579 37.2457 29.5722C37.5279 29.6864 37.8351 29.7246 38.1367 29.6827C38.6876 29.6255 39.2046 29.3894 39.6087 29.0107C39.9637 28.7107 40.3017 28.3947 40.6307 28.0677C40.6642 28.0408 40.6878 28.0035 40.6977 27.9617C40.7307 27.7677 40.7667 27.5737 40.7977 27.3797C40.8257 27.3727 40.8517 27.3647 40.8207 27.3307L40.8437 27.1997C40.8707 27.1947 40.9017 27.1927 40.8757 27.1527C40.8497 27.1127 40.9057 27.0837 40.8977 27.0447L40.9167 27.0197L40.9247 26.9677L40.9427 26.9437L41.0257 26.7107L41.0457 26.6867C41.2955 26.1131 41.6295 25.5799 42.0367 25.1047C42.0437 25.0967 42.0597 25.0957 42.0717 25.0907C42.0812 25.0874 42.0894 25.081 42.0948 25.0724C42.1003 25.0639 42.1027 25.0538 42.1017 25.0437C42.245 24.8736 42.4026 24.716 42.5727 24.5727C42.582 24.573 42.5913 24.5714 42.6 24.568C42.6086 24.5646 42.6165 24.5594 42.6231 24.5529C42.6298 24.5464 42.635 24.5385 42.6385 24.5299C42.6421 24.5213 42.6438 24.512 42.6437 24.5027C42.8404 24.3289 43.0523 24.1729 43.2767 24.0367C43.3167 24.0117 43.3427 23.9707 43.3877 23.9547L43.4157 23.9377C43.4864 23.883 43.5633 23.8367 43.6447 23.7997L43.6737 23.7817C43.7157 23.7637 43.7317 23.7097 43.7817 23.7037V23.7227L43.7897 23.7027C43.857 23.6999 43.9216 23.6754 43.9737 23.6327C44.2007 23.499 44.4454 23.398 44.7007 23.3327H44.7287C45.1779 23.2079 45.6539 23.2176 46.0977 23.3607C46.1847 23.3927 46.2667 23.4357 46.3507 23.4737L46.3767 23.4877L46.4287 23.5267C46.4302 23.5299 46.4325 23.5328 46.4352 23.535C46.438 23.5373 46.4412 23.5389 46.4447 23.5397C46.6031 23.6807 46.7446 23.8394 46.8667 24.0127L46.8847 24.0297C46.9177 24.1137 46.9327 24.2077 47.0187 24.2617L47.0447 24.2467L47.2497 24.1327L47.2767 24.1177L47.3047 24.1077L47.3287 24.0897L47.5287 23.9787L47.5577 23.9617C47.6337 23.9387 47.6687 23.8397 47.7577 23.8487L47.7847 23.8337L47.9847 23.7197L48.0117 23.7047L48.0397 23.6947L48.0637 23.6767C48.1327 23.6417 48.1867 23.5767 48.2637 23.5647L48.2917 23.5487L48.4917 23.4357L48.5197 23.4197C48.5967 23.3967 48.6307 23.2987 48.7197 23.3067L48.7467 23.2917C48.8307 23.2287 48.9277 23.2557 49.0187 23.2567C49.1097 23.2577 49.2617 23.2087 49.3187 23.2797C49.3547 23.3237 49.2637 23.4627 49.2497 23.5617C49.2397 23.6337 49.1607 23.6897 49.2057 23.7717L49.1847 23.7967C49.145 23.8674 49.1256 23.9477 49.1287 24.0287L49.1077 24.0537C49.0677 24.1247 49.0483 24.2054 49.0517 24.2867L49.0297 24.3117L48.9537 24.5417V24.5687C48.8597 24.8687 48.7617 25.1757 48.6737 25.4817C48.6587 25.5357 48.5887 25.5817 48.6407 25.6527L48.6187 25.6777C48.579 25.7484 48.5596 25.8287 48.5627 25.9097L48.5417 25.9347C48.5019 26.0057 48.4825 26.0864 48.4857 26.1677L48.4647 26.1927C48.3439 26.5426 48.2438 26.8992 48.1647 27.2607C48.0609 27.6379 47.9873 28.0228 47.9447 28.4117C47.9262 28.6055 47.934 28.801 47.9677 28.9927C47.9752 29.0973 48.0146 29.1971 48.0806 29.2787C48.1466 29.3602 48.2359 29.4195 48.3367 29.4487C48.421 29.4707 48.5089 29.475 48.5949 29.4614C48.681 29.4478 48.7633 29.4166 48.8367 29.3697C49.1299 29.1982 49.3964 28.9846 49.6277 28.7357C49.8967 28.4607 50.1897 28.2107 50.4577 27.9357C50.7121 27.6667 50.948 27.3807 51.1637 27.0797C51.2637 26.9437 51.3577 26.8027 51.4637 26.6717C51.5237 26.5977 51.5007 26.5717 51.4287 26.5317C51.2826 26.47 51.152 26.3763 51.0467 26.2577C51.0458 26.2489 51.0422 26.2405 51.0362 26.2338C51.0303 26.2272 51.0224 26.2226 51.0137 26.2207C50.9329 26.1517 50.8721 26.0622 50.8377 25.9617L50.8177 25.9377C50.7134 25.6134 50.7204 25.2636 50.8377 24.9437C50.8421 24.923 50.8451 24.9019 50.8467 24.8807C50.8747 24.8737 50.9007 24.8667 50.8707 24.8317C50.8407 24.7967 50.9047 24.7647 50.8967 24.7247L50.9147 24.7007L50.9237 24.6487C50.9687 24.6427 50.9667 24.6087 50.9677 24.5757C51.087 24.2153 51.293 23.8898 51.5677 23.6277C51.6457 23.5597 51.6927 23.4517 51.8117 23.4357L51.8387 23.4197C51.9968 23.3333 52.1705 23.2792 52.3498 23.2604C52.529 23.2417 52.7101 23.2588 52.8827 23.3107C52.9643 23.3383 53.0373 23.3865 53.0948 23.4506C53.1522 23.5148 53.1922 23.5926 53.2107 23.6767C53.2873 24.0797 53.2467 24.4962 53.0937 24.8767C53.0807 24.9297 53.0347 24.9767 53.0717 25.0387L53.0507 25.0637C52.9777 25.2147 52.9627 25.3857 52.8787 25.5337C52.8467 25.5897 52.8727 25.6227 52.9417 25.6097L53.2307 25.5537C53.2907 25.5467 53.3567 25.5537 53.3857 25.4807C53.5202 25.4644 53.6445 25.401 53.7367 25.3017C53.7457 25.2907 53.7767 25.2957 53.7967 25.2937L53.8067 25.3257C53.8327 25.3167 53.8197 25.2947 53.8237 25.2787L53.8737 25.2437L53.8997 25.2287L54.0277 25.1397L54.0557 25.1217C54.4746 24.7918 54.8329 24.3915 55.1147 23.9387C55.2246 23.7917 55.3144 23.6306 55.3817 23.4597C55.3932 23.4085 55.4244 23.3638 55.4685 23.3354C55.5127 23.3069 55.5663 23.297 55.6177 23.3077C55.7918 23.3133 55.966 23.3046 56.1387 23.2817L56.2997 23.3237C56.1807 23.6387 56.0617 23.9537 55.9527 24.2717C55.8437 24.5897 55.7317 24.9037 55.6187 25.2177C55.4757 25.6177 55.3257 26.0067 55.1847 26.4017C55.0031 26.8835 54.8492 27.3754 54.7237 27.8747C54.7144 27.951 54.6851 28.0235 54.6387 28.0847C54.6337 28.0907 54.6267 28.0997 54.6277 28.1057C54.6777 28.3757 54.5767 28.6487 54.6837 28.9247C54.7134 29.0238 54.7654 29.1147 54.8358 29.1906C54.9061 29.2664 54.9929 29.3251 55.0894 29.3622C55.186 29.3993 55.2898 29.4137 55.3928 29.4044C55.4958 29.3952 55.5953 29.3624 55.6837 29.3087C55.9775 29.1479 56.243 28.9402 56.4697 28.6937C56.7107 28.4747 56.9447 28.2477 57.1827 28.0247C57.1987 28.0097 57.2097 27.9777 57.2427 27.9947C57.2507 27.9947 57.2507 28.0207 57.2647 28.0017L57.2467 27.9887C57.2887 27.8189 57.3171 27.646 57.3317 27.4717C57.3813 27.1537 57.4521 26.8393 57.5437 26.5307C57.5457 26.5138 57.5457 26.4967 57.5437 26.4797L57.5607 26.4537C57.5756 26.3383 57.6094 26.2262 57.6607 26.1217V26.0917L57.8727 25.4237L57.8947 25.3997L57.9767 25.1407C58.0267 25.1407 58.0247 25.1007 58.0237 25.0647C58.0237 25.0467 58.0237 25.0297 58.0237 25.0117L58.0457 24.9867C58.0787 24.8127 58.1877 24.6667 58.2307 24.4957L58.2527 24.4717L58.3097 24.3147L58.3297 24.2907L58.3867 24.1337L58.4067 24.1097L58.4887 23.9017L58.5107 23.8787C58.5857 23.5857 58.8347 23.6217 59.0497 23.5927C59.0857 23.5927 59.1227 23.5927 59.1287 23.5457C59.2245 23.5573 59.3217 23.5467 59.4127 23.5147C59.5757 23.4817 59.7387 23.4467 59.9007 23.4147H59.9297C60.0571 23.4002 60.1831 23.3757 60.3067 23.3417C60.4507 23.3067 60.5987 23.2857 60.7457 23.2627C60.8127 23.2527 60.8117 23.2887 60.7917 23.3407C60.7257 23.5147 60.6527 23.6877 60.6037 23.8667C60.4885 24.1398 60.3991 24.423 60.3367 24.7127C60.3344 24.7332 60.3265 24.7526 60.3137 24.7687C60.1737 24.9407 60.2137 25.1687 60.1317 25.3567V25.3617C60.0493 25.5998 59.9825 25.843 59.9317 26.0897C59.9317 26.1067 59.9207 26.1347 59.9487 26.1437C59.9767 26.1527 59.9897 26.1307 59.9997 26.1137C60.0368 26.0437 60.0921 25.985 60.1597 25.9437C60.1682 25.9416 60.1757 25.9365 60.1809 25.9294C60.186 25.9222 60.1884 25.9135 60.1877 25.9047C60.5217 25.5297 60.8637 25.1607 61.2277 24.8147C61.4987 24.5577 61.7637 24.2927 62.0577 24.0617C62.2337 23.9214 62.418 23.7918 62.6097 23.6737L62.6357 23.6587M30.4207 25.3967C30.4865 25.3488 30.5442 25.2908 30.5917 25.2247C31.5294 24.1327 32.2448 22.868 32.6977 21.5017C32.9052 20.9329 33.0115 20.3322 33.0117 19.7267C33.0177 19.5374 32.9702 19.3503 32.8747 19.1867C32.8558 19.1536 32.8298 19.1251 32.7984 19.1034C32.7671 19.0818 32.7312 19.0674 32.6936 19.0615C32.6559 19.0555 32.6175 19.0581 32.5809 19.069C32.5444 19.08 32.5108 19.099 32.4827 19.1247C32.3235 19.324 32.1892 19.542 32.0827 19.7737C31.8571 20.2665 31.6569 20.7705 31.4827 21.2837C31.2997 21.8167 31.1487 22.3597 31.0077 22.9057C30.9157 23.2637 30.8217 23.6227 30.7377 23.9827C30.6287 24.4497 30.5277 24.9187 30.4237 25.3827L30.4207 25.3967ZM42.9427 28.2567C42.9355 28.3679 42.9355 28.4795 42.9427 28.5907C42.9381 28.7504 42.977 28.9082 43.0554 29.0474C43.1339 29.1865 43.2487 29.3016 43.3877 29.3803C43.5267 29.459 43.6845 29.4983 43.8441 29.4939C44.0038 29.4896 44.1592 29.4418 44.2937 29.3557C44.5981 29.184 44.8589 28.9445 45.0557 28.6557C45.2544 28.3849 45.4272 28.096 45.5717 27.7927C45.9085 27.1452 46.1414 26.4487 46.2617 25.7287C46.3023 25.4873 46.318 25.2423 46.3087 24.9977C46.3112 24.74 46.2324 24.4882 46.0837 24.2777C46.0156 24.1864 45.9263 24.1131 45.8235 24.0642C45.7207 24.0152 45.6075 23.992 45.4937 23.9967C45.3054 23.9892 45.1182 24.0284 44.9487 24.1107C44.577 24.3293 44.2672 24.639 44.0487 25.0107C43.7053 25.5411 43.4291 26.1122 43.2267 26.7107C43.0461 27.2059 42.9491 27.7277 42.9397 28.2547M35.9497 27.0027C35.9527 27.0583 35.9527 27.1141 35.9497 27.1697C35.9387 27.2697 35.9647 27.2937 36.0687 27.2627C36.4167 27.1596 36.7521 27.0181 37.0687 26.8407C37.5831 26.6035 37.9919 26.1847 38.2167 25.6647C38.277 25.4915 38.3156 25.3115 38.3317 25.1287C38.3749 24.8745 38.3532 24.6134 38.2687 24.3697C38.2322 24.2632 38.1628 24.171 38.0707 24.1064C37.9785 24.0417 37.8683 24.0079 37.7557 24.0097C37.5921 24.0115 37.4311 24.0512 37.2853 24.1256C37.1396 24.2001 37.0131 24.3072 36.9157 24.4387C36.5768 24.8226 36.3311 25.2794 36.1977 25.7737C36.088 26.1761 36.0295 26.5907 36.0237 27.0077" fill="white"/>
<path d="M44.4531 18.5699C44.8131 18.1859 45.1871 17.8649 45.5051 17.4889C45.5384 17.4369 45.5855 17.3953 45.6411 17.3686C45.6968 17.3419 45.7588 17.3313 45.8201 17.3379C45.9533 17.3463 46.0869 17.3463 46.2201 17.3379C46.2 17.3839 46.1679 17.4236 46.1271 17.4529C45.8551 17.7269 45.5821 18.0009 45.3071 18.2719C45.2601 18.3179 45.2501 18.3489 45.2901 18.4079C45.6681 18.9639 46.0051 19.5449 46.3651 20.1079C46.3831 20.1359 46.4191 20.1659 46.4041 20.1979C46.3891 20.2299 46.3361 20.2119 46.3041 20.2199C46.1689 20.2557 46.0252 20.2388 45.9019 20.1727C45.7787 20.1067 45.6851 19.9963 45.6401 19.8639C45.4401 19.4809 45.1881 19.1259 44.9641 18.7559C44.9071 18.6609 44.8731 18.6719 44.7911 18.7349C44.6621 18.8218 44.5613 18.9444 44.5009 19.0877C44.4405 19.231 44.4232 19.3889 44.4511 19.5419C44.465 19.7389 44.4671 19.9366 44.4571 20.1339C44.4571 20.2009 44.4381 20.2279 44.3701 20.2209C44.2481 20.2089 44.0881 20.2729 44.0131 20.1939C43.9541 20.1319 43.9931 19.9739 43.9931 19.8589C43.9931 18.6919 43.9931 17.5239 43.9931 16.3589C43.9931 16.2509 44.0211 16.2139 44.1281 16.2269C44.2351 16.2399 44.3711 16.1829 44.4381 16.2489C44.5051 16.3149 44.4581 16.4489 44.4591 16.5579C44.4591 17.2139 44.4591 17.8709 44.4591 18.5649" fill="white"/>
<path d="M38.6271 17.3619C38.7537 17.4042 38.8663 17.4801 38.953 17.5816C39.0397 17.6831 39.0971 17.8063 39.1191 17.9379C39.1561 18.1599 39.1541 18.1599 38.9191 18.1599C38.9061 18.1585 38.8931 18.1585 38.8801 18.1599C38.7391 18.1909 38.6801 18.1269 38.6441 17.9919C38.6109 17.9091 38.5544 17.8378 38.4814 17.7865C38.4085 17.7352 38.3222 17.7061 38.2331 17.7029C38.0922 17.6973 37.9511 17.7067 37.8121 17.7309C37.7298 17.745 37.6542 17.7853 37.5968 17.8459C37.5393 17.9064 37.5029 17.984 37.4931 18.0669C37.4791 18.1574 37.5001 18.2498 37.552 18.3253C37.6038 18.4008 37.6826 18.4536 37.7721 18.4729C38.1031 18.5418 38.4302 18.6283 38.7521 18.7319C38.8856 18.7683 39.0053 18.8436 39.0961 18.9481C39.1869 19.0525 39.2446 19.1816 39.2621 19.3189C39.2866 19.4728 39.2668 19.6306 39.2052 19.7738C39.1436 19.917 39.0427 20.0398 38.9141 20.1279C38.6675 20.2805 38.3831 20.3614 38.0931 20.3614C37.803 20.3614 37.5187 20.2805 37.2721 20.1279C37.172 20.0409 37.0918 19.9333 37.0371 19.8125C36.9824 19.6917 36.9544 19.5605 36.9551 19.4279C36.9551 19.3839 36.9721 19.3649 37.0141 19.3659H37.1431C37.2277 19.3539 37.3137 19.3573 37.3971 19.3759C37.4731 19.4089 37.4431 19.5199 37.4731 19.5939C37.5005 19.662 37.5437 19.7225 37.5992 19.7705C37.6547 19.8185 37.7208 19.8526 37.7921 19.8699C37.9329 19.9227 38.0843 19.9412 38.2337 19.9238C38.3831 19.9064 38.5262 19.8536 38.6511 19.7699C38.7017 19.7368 38.7427 19.6909 38.7697 19.6368C38.7968 19.5827 38.8089 19.5223 38.8049 19.462C38.801 19.4016 38.781 19.3434 38.7471 19.2933C38.7132 19.2432 38.6666 19.203 38.6121 19.1769C38.431 19.102 38.2417 19.0486 38.0481 19.0179C37.8201 18.9724 37.5994 18.896 37.3921 18.7909C37.3006 18.7392 37.2211 18.6687 37.1586 18.5842C37.0962 18.4996 37.0522 18.4029 37.0297 18.3002C37.0071 18.1976 37.0065 18.0913 37.0277 17.9884C37.049 17.8855 37.0917 17.7882 37.1531 17.7029C37.2034 17.6185 37.2705 17.5455 37.3504 17.4884C37.4302 17.4312 37.5211 17.3912 37.6171 17.3709C37.6571 17.3779 37.6731 17.3479 37.6941 17.3239C37.9905 17.2467 38.3027 17.2557 38.5941 17.3499C38.5941 17.3649 38.6021 17.3739 38.6191 17.3719" fill="white"/>
<path d="M42.1417 19.6591C42.1075 19.7779 42.0459 19.887 41.9618 19.9777C41.8778 20.0684 41.7736 20.138 41.6577 20.1811C41.6474 20.1844 41.6385 20.191 41.6324 20.1998C41.6262 20.2087 41.6232 20.2193 41.6237 20.2301V20.2371C41.4204 20.3348 41.1944 20.3756 40.9697 20.3552C40.745 20.3348 40.5301 20.2539 40.3477 20.1211C40.3477 20.1041 40.3477 20.0991 40.3277 20.1001C40.0932 19.9271 39.9331 19.6716 39.8797 19.3851C39.7959 19.1054 39.7757 18.8106 39.8207 18.5221C39.8657 18.2337 39.9747 17.9589 40.1397 17.7181C40.2413 17.5919 40.3668 17.4871 40.5091 17.4095C40.6513 17.332 40.8074 17.2832 40.9685 17.2662C41.1296 17.2491 41.2925 17.2639 41.4478 17.3099C41.6031 17.3559 41.7479 17.4321 41.8737 17.5341C42.0732 17.7207 42.1926 17.9773 42.2067 18.2501C42.2127 18.2981 42.1997 18.3241 42.1457 18.3201C42.1157 18.3201 42.0857 18.3201 42.0557 18.3201C41.9666 18.3323 41.876 18.3296 41.7877 18.3121C41.6987 18.2791 41.7227 18.1591 41.6877 18.0801C41.6394 17.9856 41.5703 17.9034 41.4855 17.8396C41.4008 17.7757 41.3026 17.732 41.1985 17.7117C41.0944 17.6914 40.987 17.695 40.8845 17.7222C40.782 17.7495 40.687 17.7997 40.6067 17.8691C40.5018 17.9595 40.4234 18.0767 40.3797 18.2081C40.2913 18.4316 40.2531 18.6718 40.268 18.9117C40.2829 19.1516 40.3503 19.3852 40.4657 19.5961C40.5408 19.7262 40.6575 19.8272 40.797 19.8829C40.9365 19.9386 41.0907 19.9457 41.2347 19.9031C41.3538 19.885 41.4646 19.8308 41.552 19.7478C41.6394 19.6649 41.6994 19.5571 41.7237 19.4391C41.7817 19.2301 41.7797 19.2301 42.0027 19.2301C42.2577 19.2301 42.2577 19.2301 42.1947 19.4851C42.1886 19.5181 42.1846 19.5515 42.1827 19.5851C42.1617 19.6061 42.1267 19.6191 42.1397 19.6601" fill="white"/>
<path d="M48.9509 20.3511C48.8174 20.3599 48.6832 20.3542 48.5509 20.3341C48.443 20.3208 48.3446 20.2659 48.2766 20.1811C48.2087 20.0963 48.1765 19.9883 48.1869 19.8801C48.1869 19.2061 48.1869 18.5321 48.1869 17.8591C48.1869 17.7351 48.1479 17.7111 48.0359 17.7141C47.7969 17.7211 47.8019 17.7141 47.7949 17.4721C47.7949 17.3651 47.8199 17.3341 47.9279 17.3371C48.1839 17.3451 48.1839 17.3371 48.1839 17.0891C48.1839 16.9391 48.1839 16.7891 48.1839 16.6381C48.1839 16.5631 48.2089 16.5381 48.2839 16.5451C48.3782 16.5499 48.4727 16.5499 48.5669 16.5451C48.6359 16.5451 48.6549 16.5691 48.6539 16.6351C48.6539 16.8351 48.6539 17.0351 48.6539 17.2401C48.6539 17.3181 48.6719 17.3521 48.7539 17.3401C48.7968 17.3358 48.84 17.3358 48.8829 17.3401C48.9589 17.3451 49.0709 17.3041 49.1019 17.3591C49.1529 17.4481 49.1179 17.5671 49.1179 17.6741C49.1179 17.7251 49.0719 17.7161 49.0399 17.7161C48.9499 17.7161 48.8589 17.7221 48.7699 17.7161C48.6809 17.7101 48.6539 17.7411 48.6549 17.8311C48.6549 18.3121 48.6549 18.7921 48.6549 19.2731C48.6549 19.4401 48.6549 19.6081 48.6549 19.7731C48.6549 19.8811 48.7019 19.9401 48.8149 19.9381C48.8579 19.9381 48.9009 19.9381 48.9439 19.9381C49.1159 19.9381 49.1229 19.9381 49.1129 20.1161C49.1129 20.1831 49.1869 20.3161 49.0129 20.2991C48.9629 20.2761 48.9709 20.3311 48.9489 20.3471" fill="white"/>
<path d="M46.9017 18.7789C46.9017 18.3369 46.9017 17.8949 46.9017 17.4529C46.9017 17.3639 46.9217 17.3289 47.0147 17.3379C47.0959 17.346 47.1776 17.346 47.2587 17.3379C47.3587 17.3279 47.3698 17.3689 47.3698 17.4549C47.3698 18.3389 47.3698 19.2226 47.3698 20.1059C47.3698 20.2009 47.3487 20.2379 47.2497 20.2269C47.1507 20.2159 46.9967 20.2709 46.9267 20.2059C46.8567 20.1409 46.9047 19.9949 46.9047 19.8849C46.9047 19.5159 46.9047 19.1469 46.9047 18.7779" fill="white"/>
<path d="M42.8549 18.7767C42.8549 18.3347 42.8549 17.8927 42.8549 17.4507C42.8549 17.3587 42.8799 17.3287 42.9699 17.3387C43.0839 17.3517 43.236 17.2897 43.301 17.3657C43.366 17.4417 43.3199 17.5777 43.3209 17.6887C43.3209 18.4887 43.3209 19.2887 43.3209 20.0957C43.3209 20.2037 43.2929 20.2407 43.1859 20.2277C43.0789 20.2147 42.9429 20.2717 42.8759 20.2067C42.8089 20.1417 42.8559 20.0067 42.8549 19.8977C42.8549 19.5247 42.8549 19.1497 42.8549 18.7767Z" fill="white"/>
<path d="M47.365 16.5188C47.365 16.7988 47.365 16.7988 47.088 16.7988C47.0547 16.7969 47.0213 16.7969 46.988 16.7988C46.918 16.8068 46.901 16.7748 46.903 16.7098C46.903 16.5768 46.903 16.4448 46.903 16.3098C46.903 16.2508 46.918 16.2218 46.982 16.2278C47.0153 16.2296 47.0487 16.2296 47.082 16.2278C47.365 16.2278 47.365 16.2278 47.365 16.5148" fill="white"/>
<path d="M43.319 16.5249C43.319 16.7989 43.319 16.7989 43.049 16.7989C42.855 16.7989 42.855 16.7989 42.855 16.5989V16.5859C42.855 16.2099 42.855 16.2119 43.235 16.2269C43.304 16.2269 43.325 16.2509 43.32 16.3159C43.315 16.3809 43.32 16.4529 43.32 16.5209" fill="white"/>
<path d="M53.6547 26.4741C53.6343 26.5693 53.585 26.6559 53.5137 26.7221C53.5127 26.6719 53.5253 26.6224 53.5501 26.5787C53.5749 26.5351 53.6111 26.4989 53.6547 26.4741Z" fill="#0B0703"/>
<path d="M31.7189 18.5038C31.6919 18.5758 31.6259 18.5678 31.5679 18.5778C31.5812 18.5505 31.6033 18.5284 31.6307 18.515C31.658 18.5015 31.6891 18.4976 31.7189 18.5038Z" fill="#0B0703"/>
<path d="M53.4489 25.4868C53.4199 25.5588 53.3489 25.5528 53.2939 25.5598C53.3299 25.5028 53.3939 25.5048 53.4489 25.4868Z" fill="#0B0703"/>
<path d="M53.4758 26.7749C53.4758 26.8259 53.4678 26.8749 53.4108 26.8999C53.4029 26.8747 53.4054 26.8474 53.4175 26.824C53.4297 26.8006 53.4506 26.7829 53.4758 26.7749Z" fill="#0B0703"/>
<path d="M28.665 23.8921C28.687 23.9311 28.652 23.9531 28.64 23.9831C28.603 23.9741 28.601 23.9441 28.606 23.9171C28.611 23.8901 28.642 23.8941 28.665 23.8921Z" fill="#0B0703"/>
<path d="M31.0228 18.7608C31.0108 18.8258 30.9599 18.8038 30.9229 18.8078C30.9331 18.791 30.948 18.7776 30.9658 18.7693C30.9836 18.7609 31.0034 18.758 31.0228 18.7608Z" fill="#0B0703"/>
<path d="M42.675 24.5118C42.6752 24.5211 42.6734 24.5303 42.6699 24.5389C42.6663 24.5476 42.6611 24.5554 42.6544 24.5619C42.6478 24.5685 42.6399 24.5736 42.6313 24.577C42.6226 24.5804 42.6133 24.582 42.604 24.5818C42.604 24.5308 42.627 24.5108 42.675 24.5118Z" fill="#0B0703"/>
<path d="M27.9239 27.2969C27.9349 27.3519 27.9239 27.3969 27.8569 27.3899C27.8669 27.3516 27.8908 27.3185 27.9239 27.2969Z" fill="#0B0703"/>
<path d="M52.3418 26.7337C52.3418 26.6827 52.3628 26.6627 52.4118 26.6677C52.4084 26.6846 52.3999 26.7001 52.3873 26.7119C52.3748 26.7237 52.3589 26.7314 52.3418 26.7337Z" fill="#0B0703"/>
<path d="M29.1658 22.3911C29.1658 22.4261 29.1658 22.4621 29.1218 22.4691C29.1128 22.4301 29.1218 22.3981 29.1658 22.3911Z" fill="#0B0703"/>
<path d="M53.3469 27.0039C53.3469 27.0329 53.3539 27.0659 53.3169 27.0799C53.2939 27.0409 53.2769 27.0049 53.3469 27.0039Z" fill="#0B0703"/>
<path d="M51.9541 27.3408C51.9541 27.2908 51.9861 27.2838 52.0251 27.2848C52.0381 27.3498 51.9821 27.3268 51.9541 27.3408Z" fill="#0B0703"/>
<path d="M52.5339 29.0928C52.5589 29.1338 52.5459 29.1578 52.4999 29.1648C52.4999 29.1348 52.4859 29.0998 52.5339 29.0928Z" fill="#0B0703"/>
<path d="M57.5177 19.2471C57.5207 19.2552 57.5217 19.264 57.5208 19.2726C57.5198 19.2812 57.5169 19.2895 57.5123 19.2968C57.5076 19.3041 57.5014 19.3103 57.494 19.3148C57.4867 19.3194 57.4784 19.3222 57.4697 19.3231C57.4697 19.2881 57.4697 19.2511 57.5177 19.2471Z" fill="#FA9D30"/>
<path d="M29.8887 20.564C29.8887 20.597 29.8887 20.634 29.8447 20.64C29.8307 20.598 29.8517 20.576 29.8887 20.564Z" fill="#0B0703"/>
<path d="M27.996 26.7261C28.011 26.7871 27.963 26.7651 27.936 26.7721C27.9369 26.7651 27.9391 26.7584 27.9426 26.7523C27.9461 26.7461 27.9508 26.7408 27.9564 26.7365C27.962 26.7322 27.9684 26.7291 27.9752 26.7273C27.982 26.7255 27.9891 26.7251 27.996 26.7261Z" fill="#0B0703"/>
<path d="M57.8258 17.4688C57.8358 17.5098 57.8048 17.5268 57.7798 17.5458C57.7798 17.5108 57.7798 17.4737 57.8258 17.4688Z" fill="#FA9D30"/>
<path d="M57.774 17.856C57.784 17.897 57.751 17.912 57.728 17.932C57.728 17.897 57.728 17.861 57.774 17.856Z" fill="#FA9D30"/>
<path d="M51.027 24.5859C51.027 24.6189 51.027 24.6529 50.983 24.6589C50.969 24.6169 51.007 24.6069 51.027 24.5859Z" fill="#0B0703"/>
<path d="M37.6991 17.314C37.6781 17.337 37.6611 17.368 37.6221 17.361C37.6221 17.311 37.6641 17.314 37.6991 17.314Z" fill="#FA9D30"/>
<path d="M42.142 19.659C42.129 19.618 42.164 19.605 42.185 19.584C42.185 19.617 42.185 19.653 42.142 19.659Z" fill="#FA9D30"/>
<path d="M22.2891 20.1496C22.2891 20.1196 22.3131 20.1066 22.3391 20.0986C22.3721 20.1646 22.3161 20.1416 22.2891 20.1496Z" fill="#FA9D30"/>
<path d="M57.8517 17.2627C57.8617 17.3037 57.8317 17.3207 57.8057 17.3397C57.8057 17.3047 57.8057 17.2677 57.8517 17.2627Z" fill="#FA9D30"/>
<path d="M48.9487 20.3519C48.9697 20.3359 48.9617 20.2809 49.0127 20.3039C49.0127 20.3449 48.9867 20.3569 48.9487 20.3519Z" fill="#FA9D30"/>
<path d="M57.5469 11.5439C57.5709 11.5639 57.6059 11.5779 57.5949 11.6199C57.5459 11.6199 57.5469 11.5789 57.5469 11.5439Z" fill="#FA9D30"/>
<path d="M28.2061 25.6209C28.2121 25.6769 28.1691 25.6589 28.1421 25.6639C28.1452 25.6499 28.1536 25.6376 28.1655 25.6296C28.1774 25.6216 28.1919 25.6185 28.2061 25.6209Z" fill="#0B0703"/>
<path d="M29.5278 21.438C29.5278 21.473 29.5278 21.509 29.4828 21.515C29.4708 21.474 29.5078 21.461 29.5278 21.438Z" fill="#0B0703"/>
<path d="M57.2898 10.5381C57.3118 10.5591 57.3498 10.5731 57.3308 10.6161C57.2838 10.6081 57.2898 10.5711 57.2898 10.5381Z" fill="#FA9D30"/>
<path d="M57.109 9.89404C57.1198 9.90331 57.1273 9.91576 57.1306 9.9296C57.1338 9.94345 57.1325 9.95795 57.127 9.97104C57.065 9.95904 57.098 9.92404 57.109 9.89404Z" fill="#FA9D30"/>
<path d="M57.9829 15.9487C57.9829 15.9777 57.959 15.9907 57.936 16.0007C57.899 15.9357 57.9559 15.9557 57.9829 15.9487Z" fill="#FA9D30"/>
<path d="M57.3411 10.7178C57.3641 10.7388 57.4011 10.7528 57.3821 10.7958C57.3351 10.7878 57.3411 10.7508 57.3411 10.7178Z" fill="#FA9D30"/>
<path d="M27.9651 26.9038C27.9921 26.9438 27.9651 26.9468 27.9341 26.9518C27.9341 26.9268 27.9341 26.9048 27.9651 26.9038Z" fill="#0B0703"/>
<path d="M57.0578 9.84277C57.0838 9.85077 57.1108 9.85778 57.1088 9.89378C57.1019 9.89439 57.0951 9.89349 57.0886 9.89114C57.0821 9.8888 57.0762 9.88506 57.0714 9.8802C57.0665 9.87533 57.0628 9.86946 57.0604 9.863C57.0581 9.85653 57.0572 9.84962 57.0578 9.84277Z" fill="#FA9D30"/>
<path d="M51.0738 26.2271C51.0825 26.2289 51.0904 26.2335 51.0963 26.2402C51.1022 26.2468 51.1059 26.2552 51.1068 26.2641C51.0918 26.2701 51.0748 26.2761 51.0658 26.2581C51.0568 26.2401 51.0658 26.2371 51.0738 26.2271Z" fill="#0B0703"/>
<path d="M40.906 27.1621C40.931 27.2031 40.9 27.2041 40.874 27.2091C40.874 27.1831 40.874 27.1631 40.906 27.1621Z" fill="#0B0703"/>
<path d="M57.034 20.999C57.068 21.021 57.052 21.036 57.027 21.049C57.002 21.028 57.01 21.012 57.034 20.999Z" fill="#FA9D30"/>
<path d="M57.9041 16.7217C57.9041 16.7437 57.9101 16.7647 57.8821 16.7727C57.8441 16.7357 57.8721 16.7277 57.9041 16.7217Z" fill="#FA9D30"/>
<path d="M42.1328 25.0517C42.1338 25.0618 42.1314 25.0719 42.126 25.0804C42.1205 25.089 42.1124 25.0954 42.1028 25.0987C42.0778 25.0607 42.0938 25.0487 42.1328 25.0517Z" fill="#0B0703"/>
<path d="M50.9297 24.8418C50.9597 24.8768 50.9296 24.8848 50.9056 24.8908C50.8926 24.8648 50.8997 24.8468 50.9297 24.8418Z" fill="#0B0703"/>
<path d="M33.2368 29.634C33.24 29.6251 33.2461 29.6175 33.254 29.6122C33.2619 29.607 33.2713 29.6045 33.2808 29.6051C33.2888 29.6491 33.2728 29.657 33.2368 29.634Z" fill="#0B0703"/>
<path d="M40.8508 27.3408C40.8818 27.3758 40.8558 27.3828 40.8278 27.3898C40.8148 27.3638 40.8208 27.3468 40.8508 27.3408Z" fill="#0B0703"/>
<path d="M53.8888 25.2857C53.8888 25.3017 53.8978 25.3237 53.8728 25.3327L53.8628 25.3007C53.8628 25.2867 53.8728 25.2767 53.8898 25.2857" fill="#0B0703"/>
<path d="M28.6167 9.69002C28.6217 9.67702 28.6277 9.66502 28.6457 9.67102L28.6167 9.69002Z" fill="#FA9D30"/>
<path d="M47.8288 23.8438L47.8018 23.8588C47.8018 23.8468 47.8108 23.8328 47.8288 23.8438Z" fill="#0B0703"/>
<path d="M36.4137 23.8151L36.3857 23.8331C36.3857 23.8201 36.3957 23.8081 36.4137 23.8151Z" fill="#0B0703"/>
<path d="M43.446 23.9457L43.418 23.9627C43.423 23.9507 43.428 23.9367 43.446 23.9457Z" fill="#0B0703"/>
<path d="M47.5969 23.972L47.5679 23.989C47.5739 23.977 47.5779 23.962 47.5969 23.972Z" fill="#0B0703"/>
<path d="M49.252 23.8131L49.273 23.7881C49.273 23.8061 49.267 23.8121 49.252 23.8131Z" fill="#0B0703"/>
<path d="M43.7038 23.7909L43.6748 23.8089C43.6808 23.7959 43.6848 23.7819 43.7038 23.7909Z" fill="#0B0703"/>
<path d="M46.9169 24.0388L46.8989 24.0218C46.9159 24.0158 46.9209 24.0218 46.9169 24.0388Z" fill="#0B0703"/>
<path d="M49.1699 24.065L49.1909 24.04C49.1909 24.057 49.1849 24.064 49.1699 24.065Z" fill="#0B0703"/>
<path d="M47.3648 24.1017L47.3408 24.1197C47.3408 24.1047 47.3408 24.0927 47.3648 24.1017Z" fill="#0B0703"/>
<path d="M36.487 23.7661L36.459 23.783C36.464 23.771 36.469 23.7571 36.487 23.7661Z" fill="#0B0703"/>
<path d="M43.8249 23.7109L43.8169 23.7309V23.7119H43.8299" fill="#0B0703"/>
<path d="M28.3081 9.86869C28.3131 9.85669 28.3181 9.84468 28.3351 9.85168L28.3081 9.86869Z" fill="#FA9D30"/>
<path d="M49.0928 24.3228L49.1138 24.2979C49.1138 24.3149 49.1078 24.3218 49.0928 24.3228Z" fill="#0B0703"/>
<path d="M48.0597 23.7149L48.0327 23.7299C48.0377 23.7179 48.0417 23.7039 48.0597 23.7149Z" fill="#0B0703"/>
<path d="M49.0147 24.5797V24.5527L49.0327 24.5727L49.0137 24.5797" fill="#0B0703"/>
<path d="M48.1129 23.6877L48.0889 23.7057C48.0889 23.6907 48.0889 23.6787 48.1129 23.6877Z" fill="#0B0703"/>
<path d="M50.9709 24.7109L50.9519 24.7349C50.9449 24.7169 50.9519 24.7119 50.9709 24.7109Z" fill="#0B0703"/>
<path d="M53.1138 25.0699L53.1348 25.0449C53.1348 25.0629 53.1288 25.0689 53.1138 25.0699Z" fill="#0B0703"/>
<path d="M48.3449 23.5587L48.3169 23.5747C48.3169 23.5617 48.3269 23.5487 48.3449 23.5587Z" fill="#0B0703"/>
<path d="M54.1188 25.1339L54.0908 25.1519C54.0908 25.1389 54.1008 25.1269 54.1188 25.1339Z" fill="#0B0703"/>
<path d="M53.963 25.236L53.937 25.251C53.937 25.239 53.946 25.226 53.963 25.236Z" fill="#0B0703"/>
<path d="M46.4779 23.5488C46.4744 23.5479 46.4712 23.5463 46.4684 23.5441C46.4657 23.5418 46.4634 23.539 46.4619 23.5358C46.4789 23.5248 46.4819 23.5358 46.4779 23.5488Z" fill="#0B0703"/>
<path d="M46.4137 23.498L46.3877 23.484C46.4047 23.473 46.4087 23.484 46.4137 23.498Z" fill="#0B0703"/>
<path d="M48.6797 25.6891L48.7007 25.6641C48.7007 25.6821 48.6947 25.6881 48.6797 25.6891Z" fill="#0B0703"/>
<path d="M51.901 23.4307L51.874 23.4467C51.874 23.4347 51.883 23.4207 51.901 23.4307Z" fill="#0B0703"/>
<path d="M48.603 25.9459L48.624 25.9209C48.624 25.9379 48.618 25.9449 48.603 25.9459Z" fill="#0B0703"/>
<path d="M50.8769 25.9448L50.8969 25.9688C50.8809 25.9688 50.8719 25.9628 50.8769 25.9448Z" fill="#0B0703"/>
<path d="M39.6587 26.043L39.6817 26.0229C39.6817 26.0389 39.6767 26.047 39.6587 26.043Z" fill="#0B0703"/>
<path d="M48.5249 26.2037L48.5459 26.1787C48.5459 26.1957 48.5399 26.2027 48.5249 26.2037Z" fill="#0B0703"/>
<path d="M48.5768 23.4298L48.5488 23.4458C48.5488 23.4328 48.5588 23.4198 48.5768 23.4298Z" fill="#0B0703"/>
<path d="M34.3491 26.2539L34.3291 26.2769C34.3291 26.2589 34.3291 26.2539 34.3491 26.2539Z" fill="#0B0703"/>
<path d="M53.605 26.2947C53.6063 26.2918 53.6082 26.2893 53.6107 26.2872C53.6131 26.2851 53.6159 26.2836 53.619 26.2827C53.619 26.2977 53.619 26.3027 53.605 26.2947Z" fill="#0B0703"/>
<path d="M53.4761 26.349L53.5001 26.333C53.5001 26.346 53.4951 26.36 53.4761 26.349Z" fill="#0B0703"/>
<path d="M44.7638 23.3427H44.7358L44.7438 23.3237L44.7638 23.3417" fill="#0B0703"/>
<path d="M48.8077 23.3018L48.7808 23.3168C48.7808 23.3048 48.7897 23.2908 48.8077 23.3018Z" fill="#0B0703"/>
<path d="M41.0771 26.6948L41.0571 26.7188C41.0571 26.7008 41.0571 26.6958 41.0771 26.6948Z" fill="#0B0703"/>
<path d="M56.2539 23.1641C56.2539 23.1801 56.2479 23.1871 56.2319 23.1871L56.2539 23.1641Z" fill="#FA9D30"/>
<path d="M56.3321 22.9839C56.3321 22.9999 56.3261 23.0069 56.3101 23.0069L56.3321 22.9839Z" fill="#FA9D30"/>
<path d="M56.5689 22.3379L56.5879 22.3529L56.5669 22.3629C56.5669 22.3549 56.5669 22.3459 56.5669 22.3379" fill="#FA9D30"/>
<path d="M34.1148 26.8999L34.0978 26.9249C34.0888 26.9059 34.0978 26.9019 34.1148 26.8999Z" fill="#0B0703"/>
<path d="M38.6021 26.9199L38.6201 26.9009C38.6251 26.9179 38.6201 26.9239 38.6021 26.9199Z" fill="#0B0703"/>
<path d="M40.9737 26.9531L40.9557 26.9771C40.9477 26.9591 40.9557 26.9541 40.9737 26.9531Z" fill="#0B0703"/>
<path d="M38.4209 27.019L38.4389 27C38.4439 27.017 38.4389 27.023 38.4209 27.019Z" fill="#0B0703"/>
<path d="M56.667 22.1338C56.667 22.1498 56.66 22.1568 56.645 22.1578L56.667 22.1338Z" fill="#FA9D30"/>
<path d="M40.947 27.0288L40.9279 27.0538C40.9209 27.0358 40.928 27.0308 40.947 27.0288Z" fill="#0B0703"/>
<path d="M56.7491 21.8477L56.769 21.8627L56.748 21.8737V21.8477" fill="#FA9D30"/>
<path d="M41.627 20.2379V20.231L41.646 20.241H41.626" fill="#FA9D30"/>
<path d="M40.3281 20.1011C40.3431 20.1011 40.3521 20.1011 40.3481 20.1221L40.3281 20.1011Z" fill="#FA9D30"/>
<path d="M38.6261 17.3628C38.6091 17.3628 38.6021 17.3558 38.6011 17.3408L38.6261 17.3628Z" fill="#FA9D30"/>
<path d="M57.4961 11.2588L57.5141 11.2678L57.4971 11.2878C57.4971 11.2778 57.4971 11.2688 57.4971 11.2588" fill="#FA9D30"/>
<path d="M52.8817 27.958L52.8617 27.982C52.8567 27.964 52.8617 27.959 52.8817 27.958Z" fill="#0B0703"/>
<path d="M25.9888 11.4407C25.9888 11.4277 25.9998 11.4177 26.0158 11.4227L25.9888 11.4407Z" fill="#FA9D30"/>
<path d="M26.189 11.2878C26.194 11.2748 26.201 11.2628 26.218 11.2678L26.189 11.2878Z" fill="#FA9D30"/>
<path d="M52.7791 28.2148L52.76 28.2388C52.754 28.2208 52.7601 28.2158 52.7791 28.2148Z" fill="#0B0703"/>
<path d="M33.187 28.6758L33.165 28.7028C33.165 28.6858 33.172 28.6788 33.187 28.6758Z" fill="#0B0703"/>
<path d="M32.981 28.8639L32.96 28.8839C32.96 28.8669 32.96 28.8599 32.981 28.8639Z" fill="#0B0703"/>
<path d="M26.2969 11.2097C26.2969 11.1967 26.3079 11.1857 26.3249 11.1907L26.2969 11.2097Z" fill="#FA9D30"/>
<path d="M26.5811 11.0041C26.5861 10.9911 26.5921 10.9801 26.6091 10.9851L26.5811 11.0041Z" fill="#FA9D30"/>
<path d="M26.8379 10.8229C26.8429 10.8099 26.8499 10.7979 26.8669 10.8029L26.8379 10.8229Z" fill="#FA9D30"/>
<path d="M32.1558 29.4851L32.1318 29.5031C32.1318 29.4881 32.1368 29.4771 32.1558 29.4851Z" fill="#0B0703"/>
<path d="M27.251 10.5398C27.256 10.5268 27.262 10.5158 27.279 10.5208L27.251 10.5398Z" fill="#FA9D30"/>
<path d="M27.3281 10.488C27.3331 10.475 27.3391 10.463 27.3571 10.468L27.3281 10.488Z" fill="#FA9D30"/>
<path d="M27.4058 10.4347C27.4058 10.4217 27.4168 10.4107 27.4338 10.4177L27.4058 10.4347Z" fill="#FA9D30"/>
<path d="M27.4829 10.3848C27.4879 10.3728 27.4929 10.3608 27.5109 10.3678L27.4829 10.3848Z" fill="#FA9D30"/>
<path d="M27.564 10.333C27.564 10.321 27.572 10.308 27.59 10.317L27.564 10.333Z" fill="#FA9D30"/>
<path d="M27.7646 10.2048C27.7696 10.1918 27.7756 10.1798 27.7936 10.1848L27.7646 10.2048Z" fill="#FA9D30"/>
<path d="M27.8467 10.1529C27.8467 10.1409 27.8567 10.1289 27.8737 10.1359L27.8467 10.1529Z" fill="#FA9D30"/>
<path d="M27.9727 10.0748C27.9727 10.0618 27.9837 10.0508 28.0007 10.0578L27.9727 10.0748Z" fill="#FA9D30"/>
<path d="M28.1787 9.94681C28.1837 9.93481 28.1887 9.92281 28.2057 9.92981L28.1787 9.94681Z" fill="#FA9D30"/>
<path d="M47.0797 24.2569L47.0537 24.2719C47.0537 24.2599 47.0617 24.2459 47.0797 24.2569Z" fill="#0B0703"/>
<path d="M47.3127 24.127L47.2856 24.142C47.2906 24.13 47.2947 24.116 47.3127 24.127Z" fill="#0B0703"/>
<path d="M0.285879 23.787C0.244351 22.0876 0.686892 20.4114 1.56188 18.954C1.76173 18.6163 1.99166 18.2973 2.24888 18.001C2.53755 17.6742 2.85044 17.3697 3.18488 17.09C3.91051 16.5003 4.73307 16.0411 5.61588 15.733C6.19317 15.5412 6.78809 15.4072 7.39188 15.333C7.94 15.264 8.49279 15.2393 9.04488 15.259C9.73446 15.2876 10.4201 15.3773 11.0939 15.527C11.9936 15.7316 12.8692 16.031 13.7059 16.42C14.6489 16.8595 15.5404 17.4021 16.3639 18.038C16.7449 18.329 17.1079 18.638 17.4639 18.965C17.9717 19.4294 18.4289 19.9463 18.8279 20.507C19.0356 20.7908 19.2237 21.0885 19.3909 21.398C19.7889 22.1368 20.1045 22.9172 20.3319 23.725C20.3879 23.932 20.4519 24.137 20.5029 24.346C20.6309 24.868 20.7089 25.4 20.7949 25.93C20.8635 26.377 20.9083 26.8273 20.9289 27.279C20.9687 27.9412 20.9654 28.6053 20.9189 29.267C20.8969 29.567 20.8799 29.867 20.8439 30.167C20.7889 30.622 20.7319 31.076 20.6489 31.528C20.5739 31.928 20.4859 32.333 20.3789 32.728C20.2504 33.301 20.0237 33.8473 19.7089 34.343C19.5388 34.5706 19.3175 34.7549 19.0629 34.881C18.4387 35.2052 17.7742 35.445 17.0869 35.594C16.5979 35.712 16.1039 35.794 15.6079 35.868C15.3219 35.911 15.0299 35.92 14.7419 35.951C13.9389 36.0188 13.1319 36.0254 12.3279 35.971C11.9379 35.953 11.5479 35.905 11.1599 35.854C10.4962 35.7663 9.83902 35.6343 9.19288 35.459C8.5794 35.2935 7.97961 35.0809 7.39888 34.823C6.8167 34.5636 6.25796 34.2544 5.72888 33.899C5.08352 33.4561 4.49218 32.9393 3.96688 32.359C3.3566 31.7025 2.80858 30.9908 2.32988 30.233C1.80887 29.415 1.37738 28.5433 1.04288 27.633C0.696964 26.6978 0.466264 25.724 0.355879 24.733C0.311534 24.4196 0.288149 24.1035 0.285879 23.787Z" fill="#2D98CF"/>
<path d="M59.1977 23.555C59.1927 23.606 59.1557 23.603 59.1187 23.602C59.1377 23.575 59.1547 23.544 59.1977 23.555Z" fill="#0B0703"/>
<path d="M58.0891 25.0718C58.0891 25.1078 58.0891 25.1438 58.0421 25.1478C58.0341 25.1078 58.0721 25.0958 58.0891 25.0718Z" fill="#0B0703"/>
<path d="M60.2537 25.9097C60.2544 25.9184 60.2519 25.9272 60.2468 25.9343C60.2417 25.9415 60.2342 25.9466 60.2256 25.9487C60.2136 25.9357 60.2066 25.9197 60.2256 25.9077C60.2446 25.8957 60.2477 25.9077 60.2587 25.9077" fill="#0B0703"/>
<path d="M62.8577 23.5737C62.8577 23.6077 62.8477 23.6407 62.8057 23.5987C62.8127 23.5697 62.8377 23.5777 62.8577 23.5737Z" fill="#0B0703"/>
<path d="M60.4437 29.6587C60.438 29.6592 60.4323 29.6584 60.4269 29.6564C60.4216 29.6544 60.4168 29.6512 60.4128 29.6471C60.4089 29.643 60.4059 29.638 60.4042 29.6326C60.4024 29.6271 60.4019 29.6214 60.4027 29.6157C60.4337 29.6157 60.4497 29.6257 60.4437 29.6587Z" fill="#0B0703"/>
<path d="M58.4758 24.1187L58.4558 24.1427C58.4498 24.1237 58.4558 24.1187 58.4758 24.1187Z" fill="#0B0703"/>
<path d="M60.5317 29.8369C60.5317 29.8296 60.5317 29.8223 60.5317 29.8149L60.5508 29.8299L60.5317 29.8369Z" fill="#0B0703"/>
<path d="M58.5801 23.8868L58.5581 23.9098C58.5581 23.8918 58.5581 23.8858 58.5801 23.8868Z" fill="#0B0703"/>
<path d="M58.3977 24.2988L58.3777 24.3228C58.3717 24.3038 58.3777 24.2988 58.3977 24.2988Z" fill="#0B0703"/>
<path d="M58.3208 24.48L58.2988 24.504C58.2988 24.485 58.3038 24.48 58.3208 24.48Z" fill="#0B0703"/>
<path d="M62.7018 23.664L62.6758 23.679C62.6758 23.667 62.6828 23.651 62.7018 23.664Z" fill="#0B0703"/>
<path d="M58.1148 24.9937L58.0928 25.0186C58.0928 25.0006 58.0978 24.9947 58.1148 24.9937Z" fill="#0B0703"/>
<path d="M62.8829 23.5611L62.8569 23.5761C62.8569 23.5631 62.8629 23.5471 62.8829 23.5611Z" fill="#0B0703"/>
<path d="M62.9347 23.5329L62.9106 23.5509C62.9106 23.5349 62.9107 23.5219 62.9347 23.5329Z" fill="#0B0703"/>
<path d="M57.9609 25.4067L57.9399 25.4307C57.9399 25.4127 57.9449 25.4067 57.9609 25.4067Z" fill="#0B0703"/>
<path d="M57.727 26.0991V26.1291L57.708 26.1101L57.727 26.0991Z" fill="#0B0703"/>
<path d="M59.9987 23.4199H59.9697L59.9787 23.3999L59.9987 23.4189" fill="#0B0703"/>
<path d="M57.621 26.4609L57.604 26.4869C57.592 26.4669 57.604 26.4639 57.621 26.4609Z" fill="#0B0703"/>
<path d="M60.5248 29.7868C60.5207 29.7858 60.5169 29.7837 60.5139 29.7807C60.5109 29.7777 60.5088 29.7739 60.5078 29.7698C60.5258 29.7628 60.5308 29.7698 60.5248 29.7868Z" fill="#0B0703"/>
<path d="M43.0097 28.2628C43.0191 27.7358 43.1161 27.214 43.2967 26.7188C43.4992 26.1202 43.7753 25.5492 44.1187 25.0188C44.3372 24.647 44.647 24.3373 45.0187 24.1188C45.1882 24.0365 45.3754 23.9974 45.5637 24.0048C45.6775 24.0001 45.7907 24.0232 45.8935 24.0722C45.9963 24.1212 46.0856 24.1945 46.1537 24.2858C46.3025 24.4962 46.3812 24.7481 46.3787 25.0058C46.3881 25.2504 46.3723 25.4954 46.3317 25.7368C46.2117 26.4567 45.9792 27.1532 45.6427 27.8008C45.4982 28.104 45.3255 28.393 45.1267 28.6638C44.93 28.9527 44.6692 29.1922 44.3647 29.3638C44.2302 29.4499 44.0748 29.4977 43.9151 29.502C43.7555 29.5063 43.5977 29.467 43.4587 29.3883C43.3197 29.3096 43.2049 29.1945 43.1265 29.0554C43.0481 28.9163 43.0091 28.7584 43.0137 28.5988C43.0065 28.4876 43.0065 28.376 43.0137 28.2648" fill="#FA9A29"/>
<path d="M30.483 25.3928C30.583 24.9248 30.683 24.4558 30.797 23.9928C30.881 23.6328 30.975 23.2748 31.067 22.9158C31.208 22.3698 31.358 21.8268 31.542 21.2938C31.7161 20.7805 31.9164 20.2765 32.142 19.7838C32.2485 19.552 32.3828 19.334 32.542 19.1348C32.5701 19.1091 32.6037 19.09 32.6402 19.0791C32.6767 19.0681 32.7152 19.0655 32.7529 19.0715C32.7905 19.0774 32.8264 19.0918 32.8577 19.1135C32.8891 19.1352 32.9151 19.1636 32.934 19.1968C33.0296 19.3603 33.0771 19.5475 33.071 19.7368C33.0709 20.3422 32.9646 20.943 32.757 21.5118C32.304 22.878 31.5886 24.1427 30.651 25.2348C30.6035 25.3008 30.5457 25.3589 30.48 25.4068V25.3998L30.483 25.3928Z" fill="#FA9A29"/>
<path d="M36.0187 27.0108C36.0246 26.5938 36.083 26.1791 36.1927 25.7768C36.3262 25.2825 36.5719 24.8256 36.9107 24.4418C37.0081 24.3103 37.1347 24.2031 37.2804 24.1287C37.4261 24.0543 37.5871 24.0146 37.7507 24.0128C37.8633 24.0109 37.9736 24.0447 38.0657 24.1094C38.1579 24.1741 38.2272 24.2663 38.2637 24.3728C38.3483 24.6164 38.37 24.8775 38.3267 25.1318C38.3107 25.3148 38.2721 25.4952 38.2117 25.6688C38.0067 26.1782 37.626 26.5975 37.1387 26.8508C36.8221 27.0281 36.4867 27.1697 36.1387 27.2728C36.0387 27.3048 36.0087 27.2808 36.0197 27.1798C36.0228 27.1242 36.0228 27.0684 36.0197 27.0128" fill="#FA9A29"/>
<path d="M61.8047 27.4459C61.8277 27.4019 61.8137 27.3369 61.8767 27.3159C61.8607 27.3639 61.8717 27.4259 61.8047 27.4459Z" fill="#0B0703"/>
<path d="M59.451 28.9609C59.451 28.9839 59.461 29.0069 59.428 29.0119C59.39 28.9739 59.42 28.9669 59.451 28.9609Z" fill="#0B0703"/>
<path d="M57.2638 30.1731C57.2318 30.1661 57.2388 30.1431 57.2428 30.1211C57.2758 30.1281 57.3038 30.1371 57.2638 30.1731Z" fill="#0B0703"/>
<path d="M61.3699 30.1437C61.3329 30.1437 61.3369 30.1187 61.3409 30.0947C61.3689 30.0997 61.4009 30.1037 61.3699 30.1437Z" fill="#0B0703"/>
<path d="M52.4947 29.864C52.4637 29.857 52.4687 29.835 52.4727 29.812C52.5057 29.818 52.5337 29.827 52.4947 29.864Z" fill="#0B0703"/>
<path d="M30.4868 25.403V25.394H30.4938L30.4868 25.403Z" fill="#0B0703"/>
<path d="M61.7809 27.5177C61.7719 27.4987 61.7809 27.4937 61.7989 27.4897L61.7809 27.5177Z" fill="#0B0703"/>
<path d="M57.3058 27.9961L57.3238 28.0091C57.3098 28.0271 57.3098 28.0031 57.3018 28.0021V27.9971" fill="#0B0703"/>
<path d="M61.603 28.0587C61.591 28.0387 61.603 28.0357 61.62 28.0337L61.603 28.0587Z" fill="#0B0703"/>
<path d="M52.5728 30.2237C52.5578 30.2237 52.5438 30.2187 52.5558 30.1987L52.5728 30.2237Z" fill="#0B0703"/>
<path d="M61.3891 30.2237C61.3751 30.2237 61.3601 30.2237 61.3721 30.1987L61.3891 30.2237Z" fill="#0B0703"/>
<path d="M52.5968 30.2999C52.5808 30.2999 52.5688 30.2999 52.5778 30.2759L52.5968 30.2999Z" fill="#0B0703"/>
<path d="M59.0167 30.8428C59.0167 30.8588 59.0097 30.8688 58.9907 30.8638L59.0167 30.8428Z" fill="#0B0703"/>
<path d="M53.0368 30.9419C53.0188 30.9419 53.0128 30.9349 53.0078 30.9209L53.0368 30.9419Z" fill="#0B0703"/>
<path d="M58.5787 30.9409C58.5787 30.9569 58.5717 30.9669 58.5527 30.9619L58.5787 30.9409Z" fill="#0B0703"/>
<path d="M62.19 31.1441C62.171 31.1441 62.165 31.1391 62.165 31.1221L62.19 31.1441Z" fill="#0B0703"/>
<path d="M57.3657 31.2221C57.3467 31.2301 57.3417 31.2221 57.3437 31.2031L57.3657 31.2221Z" fill="#0B0703"/>
</g>
</g>
<defs>
<clipPath id="clip0_37_682">
<rect width="66" height="35.508" fill="white" transform="translate(0.285645 0.746094)"/>
</clipPath>
</defs>
</svg>
