<svg width="24" height="24" viewBox="0 0 24 24" fill="none" xmlns="http://www.w3.org/2000/svg">
<g clip-path="url(#clip0_708_4977)">
<path d="M23.859 7.35895C23.7262 7.18214 23.518 7.07812 23.2969 7.07812H18.2692C17.9334 5.08542 16.1961 3.5625 14.1094 3.5625C12.0227 3.5625 10.2853 5.08542 9.94955 7.07812H5.57916L4.66041 0.604359C4.61123 0.257672 4.31447 0 3.96427 0H0.703125C0.314812 0 0 0.314812 0 0.703125C0 1.09144 0.314812 1.40625 0.703125 1.40625H3.35391L4.27261 7.87988V7.88006L5.334 15.3566C5.44917 16.1627 5.84119 16.9024 6.44016 17.4511C5.97122 17.8383 5.67188 18.4239 5.67188 19.0781C5.67188 20.0495 6.33211 20.8692 7.22723 21.1132C7.13137 21.354 7.07812 21.6161 7.07812 21.8906C7.07812 23.0537 8.02439 24 9.1875 24C10.3506 24 11.2969 23.0537 11.2969 21.8906C11.2969 21.6442 11.254 21.4076 11.1759 21.1875H17.0428C16.9648 21.4076 16.9219 21.6442 16.9219 21.8906C16.9219 23.0537 17.8681 24 19.0312 24C20.1944 24 21.1406 23.0537 21.1406 21.8906C21.1406 20.7275 20.1944 19.7812 19.0312 19.7812H7.78125C7.39355 19.7812 7.07812 19.4658 7.07812 19.0781C7.07812 18.6904 7.39355 18.375 7.78125 18.375H18.316C19.8774 18.375 21.2674 17.3265 21.6956 15.8279L23.9722 7.97709C24.0338 7.7647 23.9918 7.53572 23.859 7.35895Z" fill="url(#paint0_linear_708_4977)"/>
<path d="M14.1094 2.85938C11.3955 2.85938 9.1875 5.06733 9.1875 7.78125C9.1875 10.4952 11.3955 12.7031 14.1094 12.7031C16.8233 12.7031 19.0312 10.4952 19.0312 7.78125C19.0312 5.06733 16.8233 2.85938 14.1094 2.85938ZM16.0128 7.57533L13.9034 9.6847C13.7662 9.822 13.5862 9.89062 13.4062 9.89062C13.2263 9.89062 13.0463 9.822 12.9091 9.68466L12.206 8.98153C11.9314 8.70694 11.9314 8.26177 12.206 7.98717C12.4805 7.71258 12.9257 7.71258 13.2003 7.98717L13.4063 8.19309L15.0185 6.58092C15.2931 6.30633 15.7383 6.30633 16.0129 6.58092C16.2874 6.85556 16.2874 7.30073 16.0128 7.57533Z" fill="url(#paint1_linear_708_4977)"/>
</g>
<defs>
<linearGradient id="paint0_linear_708_4977" x1="12" y1="24" x2="12" y2="0" gradientUnits="userSpaceOnUse">
<stop stop-color="#00B59C"/>
<stop offset="1" stop-color="#9CFFAC"/>
</linearGradient>
<linearGradient id="paint1_linear_708_4977" x1="14.1094" y1="12.7031" x2="14.1094" y2="2.85938" gradientUnits="userSpaceOnUse">
<stop stop-color="#C3FFE8"/>
<stop offset="0.9973" stop-color="#F0FFF4"/>
</linearGradient>
<clipPath id="clip0_708_4977">
<rect width="24" height="24" fill="white"/>
</clipPath>
</defs>
</svg>
