<svg width="156" height="116" viewBox="0 0 156 116" fill="none" xmlns="http://www.w3.org/2000/svg">
<path d="M158.438 121.469H58.0938C55.1838 121.469 52.8125 119.097 52.8125 116.188V110.906H132.031C140.27 110.906 148.282 104.648 150.278 96.6574L163.56 43.5281C163.956 41.949 163.597 40.2801 162.599 38.9967C161.601 37.7134 160.064 36.9688 158.438 36.9688H37.687L33.8528 19.7255C32.0519 11.624 25.3025 5.28125 18.4844 5.28125H10.5625C7.64725 5.28125 5.28125 7.64725 5.28125 10.5625C5.28125 13.4777 7.64725 15.8438 10.5625 15.8438H18.4844C19.7836 15.8438 22.6935 18.1886 23.5438 22.0175L28.1966 42.963C28.2388 43.264 28.3022 43.5492 28.392 43.8344L42.25 106.201V116.188C42.25 124.923 49.3586 132.031 58.0938 132.031H68.6562H137.312H158.438C161.353 132.031 163.719 129.665 163.719 126.75C163.719 123.835 161.353 121.469 158.438 121.469ZM151.672 47.5312L140.027 94.096C139.214 97.3651 135.401 100.344 132.031 100.344H51.7668L40.0319 47.5312H151.672Z" fill="#F1F1FF"/>
</svg>
