<svg width="151" height="122" viewBox="0 0 151 122" fill="none" xmlns="http://www.w3.org/2000/svg">
<g clip-path="url(#clip0_43_1832)">
<path d="M127.8 18.5002H106.2C103.215 18.5002 100.8 20.9159 100.8 23.9002C100.8 26.8846 103.215 29.3002 106.2 29.3002H127.8C130.784 29.3002 133.2 26.8846 133.2 23.9002C133.2 20.9159 130.784 18.5002 127.8 18.5002Z" fill="#F1F1FF"/>
<path d="M151.2 0.5H64.8002C52.8915 0.5 43.2002 10.1913 43.2002 22.1V194.9C43.2002 206.809 52.8915 216.5 64.8002 216.5H151.2C163.109 216.5 172.8 206.809 172.8 194.9V22.1C172.8 10.1913 163.109 0.5 151.2 0.5ZM162 194.9C162 200.865 157.166 205.7 151.2 205.7H64.8002C58.8349 205.7 54.0002 200.865 54.0002 194.9V22.1C54.0002 16.1347 58.8349 11.3 64.8002 11.3H151.2C157.166 11.3 162 16.1347 162 22.1V194.9Z" fill="#F1F1FF"/>
<path d="M88.2003 29.3002C91.1826 29.3002 93.6003 26.8826 93.6003 23.9002C93.6003 20.9179 91.1826 18.5002 88.2003 18.5002C85.218 18.5002 82.8003 20.9179 82.8003 23.9002C82.8003 26.8826 85.218 29.3002 88.2003 29.3002Z" fill="#F1F1FF"/>
</g>
<defs>
<clipPath id="clip0_43_1832">
<rect width="216" height="216" fill="white" transform="translate(0 0.5)"/>
</clipPath>
</defs>
</svg>
