<svg width="24" height="24" viewBox="0 0 24 24" fill="none" xmlns="http://www.w3.org/2000/svg">
<g clip-path="url(#clip0_708_4487)">
<path d="M12.0027 22.5744L12.4018 21.691C12.5087 21.4544 12.5012 21.1811 12.3779 20.9527C11.9399 20.1409 11.6897 19.2127 11.6862 18.2264C11.6747 15.0331 14.282 12.4135 17.4753 12.4104C20.6801 12.4074 23.2786 15.0059 23.2757 18.2107C23.2727 21.4041 20.6531 24.0113 17.4598 23.9999C16.4734 23.9964 15.5453 23.7462 14.7335 23.3081C14.5051 23.1848 14.2317 23.1773 13.9951 23.2842L13.1117 23.6834C12.794 23.8269 12.4205 23.7588 12.1739 23.5122C11.9272 23.2657 11.8591 22.8922 12.0027 22.5744Z" fill="#FFEE6E"/>
<path d="M16.0322 18.2108C16.0299 15.7765 17.5288 13.6925 19.6539 12.8321C18.9812 12.5598 18.2459 12.4097 17.4753 12.4105C14.282 12.4135 11.6747 15.0332 11.6862 18.2265C11.6897 19.2128 11.9399 20.1409 12.3779 20.9527C12.5012 21.1812 12.5087 21.4546 12.4019 21.6911L12.0027 22.5745C11.8591 22.8923 11.9273 23.2658 12.1739 23.5123C12.4204 23.7589 12.7939 23.827 13.1117 23.6835L13.9951 23.2843C14.2317 23.1774 14.505 23.1849 14.7335 23.3082C15.5452 23.7463 16.4734 23.9964 17.4597 24C18.2347 24.0028 18.9757 23.8509 19.6539 23.5742C17.5376 22.7109 16.0344 20.6291 16.0322 18.2108Z" fill="#FFDA45"/>
<path d="M20.0161 19.1107V16.8772C20.0161 15.4771 18.8811 14.342 17.4809 14.342C16.0808 14.342 14.9457 15.477 14.9457 16.8772V19.1107C14.479 19.1107 14.1007 19.489 14.1007 19.9557C14.1007 20.4224 14.479 20.8008 14.9457 20.8008H16.2133C16.2133 21.5009 16.7808 22.0684 17.4809 22.0684C18.181 22.0684 18.7485 21.5009 18.7485 20.8008H20.0161C20.4828 20.8008 20.8612 20.4224 20.8612 19.9557C20.8612 19.489 20.4828 19.1107 20.0161 19.1107Z" fill="#F5FAFC"/>
<path d="M16.6358 19.9557C16.6358 19.489 17.0141 19.1107 17.4809 19.1107V16.8772C17.4809 15.939 17.9909 15.1205 18.7484 14.682C18.3755 14.4662 17.9428 14.342 17.4809 14.342C16.0807 14.342 14.9456 15.477 14.9456 16.8772V19.1107C14.4789 19.1107 14.1006 19.489 14.1006 19.9557C14.1006 20.4224 14.4789 20.8008 14.9456 20.8008H16.2132C16.2132 21.5009 16.7807 22.0684 17.4808 22.0684C18.1809 22.0684 18.7484 21.5009 18.7484 20.8008H17.4808C17.0142 20.8008 16.6358 20.4224 16.6358 19.9557Z" fill="#E1F1FA"/>
<path d="M13.1518 17.0974L12.6862 16.0668C12.5615 15.7908 12.5702 15.4718 12.714 15.2053C13.2251 14.2582 13.5169 13.1754 13.521 12.0247C13.5344 8.2992 10.4926 5.2429 6.76707 5.23938C3.02822 5.23587 -0.00346578 8.26751 2.97365e-06 12.0064C0.00347172 15.732 3.05972 18.7738 6.78525 18.7605C7.93599 18.7564 9.0188 18.4645 9.96586 17.9534C10.2324 17.8096 10.5513 17.8009 10.8273 17.9256L11.858 18.3912C12.2287 18.5587 12.6645 18.4792 12.9521 18.1916C13.2398 17.9039 13.3193 17.4681 13.1518 17.0974Z" fill="#FF808C"/>
<path d="M3.86321 12.0064C3.86035 8.94284 5.89543 6.35459 8.68744 5.52129C8.07821 5.33885 7.43372 5.24004 6.76716 5.23938C3.02822 5.23587 -0.00346578 8.26751 2.97365e-06 12.0064C0.00347172 15.732 3.05972 18.7738 6.7853 18.7605C7.44952 18.7581 8.09082 18.6594 8.69672 18.4784C5.91239 17.6443 3.86602 15.0544 3.86321 12.0064Z" fill="#FF6E7C"/>
<path d="M9.47634 9.13989C7.9755 8.47286 6.76055 9.83073 6.76055 9.83073C6.76055 9.83073 5.54559 8.47286 4.04475 9.13989C2.5439 9.80692 2.5439 12.0224 3.87801 13.4995C4.80122 14.5216 5.82708 15.1443 6.37139 15.431C6.61519 15.5594 6.9059 15.5594 7.1497 15.431C7.69406 15.1443 8.71992 14.5215 9.64308 13.4995C10.9772 12.0225 10.9772 9.80692 9.47634 9.13989Z" fill="#F5FAFC"/>
<path d="M6.30436 12.2415C6.30436 11.3904 6.46618 10.5771 6.76065 9.83065C6.76065 9.83065 5.5456 8.47287 4.04475 9.1399C2.54391 9.80693 2.54391 12.0224 3.87797 13.4995C4.80118 14.5216 5.82704 15.1444 6.37135 15.431C6.60989 15.5567 6.89325 15.5591 7.13377 15.4388C6.60572 14.4924 6.30436 13.4022 6.30436 12.2415Z" fill="#E1F1FA"/>
<path d="M8.96934 13.552L9.50151 12.3741C9.64401 12.0587 9.63403 11.6942 9.46968 11.3896C8.88562 10.3072 8.55206 9.06975 8.54732 7.75468C8.53204 3.49693 12.0084 0.00403476 16.2661 3.51425e-06C20.5392 -0.00402774 24.004 3.46069 24 7.73372C23.996 11.9915 20.5032 15.4679 16.2454 15.4527C14.9303 15.448 13.6928 15.1144 12.6104 14.5303C12.3058 14.366 11.9413 14.3559 11.6259 14.4985L10.448 15.0307C10.0243 15.2221 9.52635 15.1312 9.19757 14.8024C8.86879 14.4737 8.7779 13.9757 8.96934 13.552Z" fill="#69A8FF"/>
<path d="M12.8934 7.73372C12.8901 4.21791 15.2353 1.24983 18.4467 0.310363C17.755 0.108003 17.0234 -0.000699735 16.2661 3.38962e-06C12.0084 0.00403464 8.53204 3.49693 8.54732 7.75468C8.55206 9.06975 8.88557 10.3072 9.46968 11.3896C9.63403 11.6942 9.64406 12.0587 9.50151 12.3741L8.96934 13.552C8.7779 13.9757 8.86879 14.4736 9.19753 14.8024C9.52631 15.1312 10.0243 15.2221 10.448 15.0306L11.6258 14.4984C11.9413 14.3559 12.3058 14.3659 12.6104 14.5303C13.6927 15.1144 14.9302 15.4479 16.2454 15.4526C17.0091 15.4553 17.7479 15.3452 18.4466 15.1389C15.2497 14.1952 12.8966 11.2278 12.8934 7.73372Z" fill="#549CFF"/>
<path d="M21.3854 6.93601C21.3854 6.03591 20.6557 5.30621 19.7556 5.30621H18.1479L19.039 4.02038C19.2481 3.71869 19.2361 3.30676 18.9898 3.03469C18.6967 2.71111 18.2037 2.69143 17.8864 2.97779C17.8864 2.97779 15.9566 4.71919 14.9903 5.59111C14.6479 5.90016 14.4525 6.3398 14.4525 6.80105V9.83897C14.4525 10.7391 15.1821 11.4688 16.0823 11.4688H19.7557C20.6558 11.4688 21.3855 10.7391 21.3855 9.83897V6.93601H21.3854Z" fill="#F5FAFC"/>
<path d="M18.1479 5.30622L19.039 4.02039C19.2481 3.71871 19.2361 3.30677 18.9898 3.03475C18.6967 2.71118 18.2037 2.69149 17.8864 2.97785C17.8864 2.97785 15.9566 4.71925 14.9903 5.59118C14.6479 5.90022 14.4525 6.33986 14.4525 6.80111V9.83903C14.4525 10.7391 15.1821 11.4688 16.0823 11.4688H18.1479C17.2478 11.4688 16.5182 10.7391 16.5182 9.83903V6.93602C16.5181 6.03588 17.2478 5.30622 18.1479 5.30622Z" fill="#E1F1FA"/>
<path d="M12.7019 11.4688H14.0299C14.5633 11.4688 14.9957 11.0364 14.9957 10.503V5.91546C14.9957 5.38207 14.5633 4.94965 14.0299 4.94965H12.7019C12.1685 4.94965 11.7361 5.38207 11.7361 5.91546V10.503C11.7361 11.0364 12.1685 11.4688 12.7019 11.4688Z" fill="#F5FAFC"/>
</g>
<defs>
<clipPath id="clip0_708_4487">
<rect width="24" height="24" fill="white"/>
</clipPath>
</defs>
</svg>
