<svg width="81" height="81" viewBox="0 0 81 81" fill="none" xmlns="http://www.w3.org/2000/svg">
<path d="M0 80.2948L1.71529 66.3388C6.79765 66.7212 10.4824 65.7016 12.7694 63.28C15.0565 60.8584 16.4541 57.6084 16.9624 53.5299C17.4706 49.4514 17.5976 45.0543 17.3435 40.3386H0V0H32.5906V47.9857C32.5906 59.7113 29.6047 68.5055 23.6329 74.3683C17.7882 80.2311 9.91059 82.2066 0 80.2948ZM48.4094 80.2948L50.1247 66.3388C55.2071 66.7212 58.8918 65.7016 61.1788 63.28C63.4659 60.8584 64.8635 57.6084 65.3718 53.5299C65.88 49.4514 66.0071 45.0543 65.7529 40.3386H48.4094V0H81V47.9857C81 59.7113 78.0141 68.5055 72.0424 74.3683C66.1976 80.2311 58.32 82.2066 48.4094 80.2948Z" fill="#E6E7E9"/>
</svg>
