<svg width="195" height="70" viewBox="0 0 195 70" fill="none" xmlns="http://www.w3.org/2000/svg">
<path d="M16.8844 38.8784H10.1495V11.868H0V5.10955H27.0104V11.868H16.8844V38.8784ZM36.3357 38.8784H29.9069V3.62598H36.3357V14.7645C37.1049 14.1837 37.8978 13.7755 38.714 13.54C39.5305 13.2888 40.3626 13.1632 41.2103 13.1632C42.7646 13.1632 44.2246 13.4615 45.5903 14.058C46.9561 14.6389 48.1413 15.4474 49.1461 16.4836C50.1665 17.504 50.9671 18.705 51.5481 20.0865C52.1446 21.4523 52.443 22.9124 52.443 24.4666V38.8784H45.9672V24.4666H46.0142C46.0142 23.8072 45.8885 23.1871 45.6373 22.6062C45.3862 22.0097 45.0408 21.4916 44.6011 21.052C44.1617 20.6125 43.6514 20.2671 43.0705 20.0159C42.4898 19.7647 41.8696 19.6391 41.2103 19.6391C40.5353 19.6391 39.8993 19.7647 39.3028 20.0159C38.7062 20.2671 38.1881 20.6125 37.7485 21.052C37.3091 21.4916 36.9637 22.0097 36.7125 22.6062C36.4611 23.1871 36.3357 23.8072 36.3357 24.4666V38.8784ZM67.0666 32.7087C67.318 32.7872 67.5692 32.8419 67.8203 32.8734C68.0714 32.8892 68.3225 32.897 68.5739 32.897C69.2019 32.897 69.8062 32.8108 70.3871 32.6381C70.9678 32.4654 71.5096 32.2221 72.0118 31.9081C72.5299 31.5783 72.9852 31.1859 73.3778 30.7306C73.7858 30.2596 74.1156 29.7415 74.3668 29.1763L79.0767 33.9096C78.4799 34.7575 77.7894 35.5187 77.0043 36.1939C76.2351 36.8688 75.3952 37.442 74.4847 37.9128C73.5898 38.3839 72.64 38.7371 71.6353 38.9727C70.6461 39.2238 69.6257 39.3495 68.5739 39.3495C66.7999 39.3495 65.128 39.0197 63.5578 38.3603C62.0038 37.7009 60.6378 36.7826 59.4606 35.6052C58.2987 34.4277 57.3804 33.0305 56.7052 31.4133C56.0302 29.7808 55.6926 27.991 55.6926 26.0443C55.6926 24.0506 56.0302 22.2295 56.7052 20.5811C57.3804 18.9326 58.2987 17.5276 59.4606 16.3658C60.6378 15.2041 62.0038 14.3014 63.5578 13.6577C65.128 13.0141 66.7999 12.6922 68.5739 12.6922C69.6257 12.6922 70.6539 12.8178 71.6586 13.069C72.6634 13.3202 73.6131 13.6813 74.508 14.1522C75.4185 14.6232 76.2665 15.2041 77.0513 15.8948C77.8363 16.5699 78.5272 17.3313 79.1237 18.1791L67.0666 32.7087ZM70.3635 19.4507C70.0651 19.3408 69.767 19.2702 69.4686 19.2388C69.186 19.2074 68.8879 19.1917 68.5739 19.1917C67.6946 19.1917 66.8625 19.3565 66.0777 19.6862C65.3085 20.0002 64.6333 20.4555 64.0526 21.052C63.4872 21.6486 63.04 22.3707 62.7102 23.2185C62.3806 24.0506 62.2157 24.9925 62.2157 26.0443C62.2157 26.2798 62.2235 26.5467 62.2394 26.845C62.2705 27.1433 62.31 27.4494 62.357 27.7634C62.4199 28.0617 62.4905 28.3521 62.5689 28.6347C62.6473 28.9173 62.7494 29.1685 62.8751 29.3883L70.3635 19.4507Z" fill="white"/>
<path d="M195 38.4695H171.357V4.70068H178.116V31.7111H195V38.4695Z" fill="#FF5500"/>
<path fill-rule="evenodd" clip-rule="evenodd" d="M132.378 8.08171C134.371 6.95445 135.709 6.20094 136.813 5.71156C137.865 5.24527 138.527 5.10311 139.127 5.10311C139.727 5.10311 140.389 5.24528 141.441 5.71156C142.545 6.20093 143.883 6.95444 145.875 8.08169L145.875 8.08174L148.46 9.54405L148.46 9.54408C150.655 10.7857 152.127 11.6218 153.191 12.3823C154.211 13.1108 154.642 13.6245 154.89 14.1156L154.89 14.1158C155.132 14.5965 155.277 15.207 155.235 16.3758C155.19 17.614 154.954 19.1984 154.591 21.5939L154.591 21.594L154.071 25.028C153.605 28.0996 153.289 30.1532 152.846 31.6777C152.426 33.1199 151.975 33.7826 151.42 34.2359C151.36 34.2849 151.298 34.3326 151.232 34.3789H157.317C157.477 33.9673 157.618 33.5414 157.746 33.1023C158.295 31.2132 158.658 28.8204 159.091 25.9619L159.116 25.7927L159.116 25.7925L159.637 22.3585L159.637 22.3584L159.658 22.2194L159.658 22.2193C159.994 20.0009 160.278 18.125 160.335 16.559C160.394 14.891 160.211 13.3337 159.445 11.8161C158.684 10.3087 157.537 9.21588 156.158 8.23005C154.847 7.29399 153.138 6.32703 151.09 5.16867L151.09 5.16863L150.973 5.10239L150.973 5.10236L148.388 3.64007L148.388 3.64002L148.284 3.58116C146.423 2.5283 144.868 1.64875 143.509 1.04621C142.072 0.409388 140.682 0 139.127 0C137.572 0 136.182 0.409391 134.745 1.04621C133.386 1.64866 131.831 2.52806 129.971 3.58072L129.866 3.64005L127.281 5.10238L127.281 5.10239L127.164 5.16842C125.116 6.3269 123.407 7.29392 122.096 8.23005C120.716 9.21589 119.569 10.3087 118.809 11.816C118.042 13.3336 117.859 14.891 117.919 16.559C117.975 18.1248 118.26 20.0004 118.596 22.2184L118.617 22.3584L118.617 22.3584L119.137 25.7926L119.137 25.7926L119.163 25.9609C119.596 28.8198 119.959 31.2129 120.508 33.1023C120.635 33.5414 120.777 33.9673 120.937 34.3789H126.717H127.022C126.956 34.3326 126.894 34.2849 126.834 34.2359L126.717 34.3789L126.834 34.2359C126.279 33.7825 125.827 33.1199 125.408 31.6777C124.965 30.1533 124.648 28.0996 124.183 25.0281L124.183 25.0281L123.663 21.5939L123.663 21.5939C123.3 19.1985 123.064 17.614 123.019 16.3758C122.977 15.2069 123.121 14.5965 123.364 14.1157L123.364 14.1157C123.612 13.6246 124.043 13.1108 125.063 12.3823C126.127 11.6218 127.599 10.7857 129.793 9.54405L132.378 8.08171L131.145 5.90095L132.378 8.08171Z" fill="#FF5500"/>
<path d="M113.343 29.2764C133.153 41.4686 144.361 41.4358 164.643 29.2764" stroke="#FF5500" stroke-width="4.83453"/>
<path d="M110.517 33.8611C110.683 30.5974 111.332 26.8547 114.67 24.7106" stroke="#FF5500" stroke-width="4.29736" stroke-linecap="round"/>
<path d="M167.581 33.8611C167.416 30.5974 166.766 26.8547 163.428 24.7106" stroke="#FF5500" stroke-width="4.29736" stroke-linecap="round"/>
<path d="M104.479 39.4823H82.9926V5.64062H89.1347V32.7093H104.479V39.4823Z" fill="#FF5500"/>
<path d="M3.73069 61.2776H7.31727V63.3911H0.992715V52.151H3.73069V61.2776ZM8.07882 58.9079C8.07882 57.9899 8.24961 57.184 8.59119 56.4901C8.94344 55.7963 9.41845 55.2626 10.0162 54.889C10.614 54.5154 11.2811 54.3286 12.0177 54.3286C12.6474 54.3286 13.1972 54.4567 13.6668 54.7129C14.1472 54.969 14.5155 55.3053 14.7716 55.7216V54.4567H17.5096V63.3911H14.7716V62.1262C14.5048 62.5425 14.1312 62.8787 13.6508 63.1349C13.1812 63.3911 12.6314 63.5192 12.0016 63.5192C11.2758 63.5192 10.614 63.3324 10.0162 62.9588C9.41845 62.5745 8.94344 62.0355 8.59119 61.3416C8.24961 60.6371 8.07882 59.8259 8.07882 58.9079ZM14.7716 58.9239C14.7716 58.2407 14.5795 57.7017 14.1952 57.3067C13.8216 56.9118 13.3626 56.7143 12.8182 56.7143C12.2738 56.7143 11.8095 56.9118 11.4252 57.3067C11.0516 57.691 10.8648 58.2247 10.8648 58.9079C10.8648 59.591 11.0516 60.1354 11.4252 60.5411C11.8095 60.936 12.2738 61.1335 12.8182 61.1335C13.3626 61.1335 13.8216 60.936 14.1952 60.5411C14.5795 60.1461 14.7716 59.6071 14.7716 58.9239ZM24.9343 54.3606C25.9804 54.3606 26.813 54.7022 27.4321 55.3853C28.0619 56.0578 28.3768 56.9865 28.3768 58.1714V63.3911H25.6548V58.5396C25.6548 57.9419 25.5001 57.4775 25.1905 57.1466C24.881 56.8157 24.4647 56.6503 23.9416 56.6503C23.4186 56.6503 23.0023 56.8157 22.6927 57.1466C22.3832 57.4775 22.2284 57.9419 22.2284 58.5396V63.3911H19.4904V54.4567H22.2284V55.6415C22.5059 55.2466 22.8795 54.937 23.3492 54.7129C23.8189 54.478 24.3472 54.3606 24.9343 54.3606ZM29.735 58.9079C29.735 57.9899 29.9058 57.184 30.2474 56.4901C30.5997 55.7963 31.0747 55.2626 31.6724 54.889C32.2702 54.5154 32.9373 54.3286 33.6739 54.3286C34.261 54.3286 34.7947 54.4513 35.275 54.6969C35.766 54.9424 36.1503 55.2733 36.4279 55.6896V51.5426H39.1658V63.3911H36.4279V62.1102C36.1717 62.5372 35.8034 62.8787 35.3231 63.1349C34.8534 63.3911 34.3037 63.5192 33.6739 63.5192C32.9373 63.5192 32.2702 63.3324 31.6724 62.9588C31.0747 62.5745 30.5997 62.0355 30.2474 61.3416C29.9058 60.6371 29.735 59.8259 29.735 58.9079ZM36.4279 58.9239C36.4279 58.2407 36.2357 57.7017 35.8514 57.3067C35.4778 56.9118 35.0188 56.7143 34.4744 56.7143C33.9301 56.7143 33.4657 56.9118 33.0814 57.3067C32.7078 57.691 32.521 58.2247 32.521 58.9079C32.521 59.591 32.7078 60.1354 33.0814 60.5411C33.4657 60.936 33.9301 61.1335 34.4744 61.1335C35.0188 61.1335 35.4778 60.936 35.8514 60.5411C36.2357 60.1461 36.4279 59.6071 36.4279 58.9239ZM51.5367 61.4057H47.3417L46.6692 63.3911H43.8032L47.8701 52.151H51.0404L55.1073 63.3911H52.2092L51.5367 61.4057ZM50.8322 59.2922L49.4392 55.1772L48.0622 59.2922H50.8322ZM59.9797 63.5192C59.2005 63.5192 58.5066 63.3858 57.8982 63.1189C57.2897 62.8521 56.8094 62.4891 56.4571 62.0301C56.1049 61.5605 55.9074 61.0374 55.8647 60.461H58.5707C58.6027 60.7706 58.7468 61.0214 59.003 61.2135C59.2592 61.4057 59.5741 61.5018 59.9477 61.5018C60.2892 61.5018 60.5508 61.4377 60.7322 61.3096C60.9244 61.1708 61.0204 60.9947 61.0204 60.7812C61.0204 60.525 60.887 60.3382 60.6201 60.2208C60.3533 60.0927 59.921 59.954 59.3232 59.8045C58.6828 59.6551 58.149 59.5003 57.7221 59.3402C57.2951 59.1694 56.9268 58.9079 56.6173 58.5556C56.3077 58.1927 56.1529 57.707 56.1529 57.0986C56.1529 56.5862 56.2917 56.1219 56.5692 55.7056C56.8574 55.2786 57.2737 54.9424 57.8181 54.6969C58.3732 54.4513 59.0297 54.3286 59.7875 54.3286C60.9084 54.3286 61.789 54.6061 62.4294 55.1612C63.0806 55.7163 63.4542 56.4528 63.5503 57.3708H61.0204C60.9777 57.0612 60.839 56.8157 60.6041 56.6342C60.38 56.4528 60.0811 56.3621 59.7075 56.3621C59.3873 56.3621 59.1417 56.4261 58.971 56.5542C58.8002 56.6716 58.7148 56.8371 58.7148 57.0505C58.7148 57.3067 58.8482 57.4989 59.1151 57.627C59.3926 57.7551 59.8196 57.8831 60.396 58.0112C61.0578 58.182 61.5968 58.3528 62.0131 58.5236C62.4294 58.6837 62.7924 58.9506 63.1019 59.3242C63.4222 59.6871 63.5876 60.1781 63.5983 60.7972C63.5983 61.3203 63.4488 61.79 63.15 62.2063C62.8618 62.6119 62.4401 62.9321 61.8851 63.167C61.3407 63.4018 60.7055 63.5192 59.9797 63.5192ZM68.908 63.5192C68.1288 63.5192 67.4349 63.3858 66.8265 63.1189C66.218 62.8521 65.7377 62.4891 65.3855 62.0301C65.0332 61.5605 64.8357 61.0374 64.793 60.461H67.499C67.531 60.7706 67.6751 61.0214 67.9313 61.2135C68.1875 61.4057 68.5024 61.5018 68.876 61.5018C69.2175 61.5018 69.4791 61.4377 69.6605 61.3096C69.8527 61.1708 69.9487 60.9947 69.9487 60.7812C69.9487 60.525 69.8153 60.3382 69.5484 60.2208C69.2816 60.0927 68.8493 59.954 68.2515 59.8045C67.6111 59.6551 67.0773 59.5003 66.6504 59.3402C66.2234 59.1694 65.8551 58.9079 65.5456 58.5556C65.236 58.1927 65.0812 57.707 65.0812 57.0986C65.0812 56.5862 65.22 56.1219 65.4975 55.7056C65.7857 55.2786 66.202 54.9424 66.7464 54.6969C67.3015 54.4513 67.958 54.3286 68.7158 54.3286C69.8367 54.3286 70.7173 54.6061 71.3578 55.1612C72.0089 55.7163 72.3825 56.4528 72.4786 57.3708H69.9487C69.906 57.0612 69.7673 56.8157 69.5324 56.6342C69.3083 56.4528 69.0094 56.3621 68.6358 56.3621C68.3156 56.3621 68.0701 56.4261 67.8993 56.5542C67.7285 56.6716 67.6431 56.8371 67.6431 57.0505C67.6431 57.3067 67.7765 57.4989 68.0434 57.627C68.3209 57.7551 68.7479 57.8831 69.3243 58.0112C69.9861 58.182 70.5252 58.3528 70.9415 58.5236C71.3578 58.6837 71.7207 58.9506 72.0302 59.3242C72.3505 59.6871 72.5159 60.1781 72.5266 60.7972C72.5266 61.3203 72.3772 61.79 72.0783 62.2063C71.7901 62.6119 71.3684 62.9321 70.8134 63.167C70.269 63.4018 69.6338 63.5192 68.908 63.5192ZM82.6237 58.7798C82.6237 59.036 82.6077 59.3028 82.5757 59.5804H76.3792C76.4219 60.1354 76.5981 60.5624 76.9076 60.8613C77.2278 61.1495 77.6175 61.2936 78.0765 61.2936C78.7596 61.2936 79.2346 61.0054 79.5015 60.429H82.4156C82.2661 61.0161 81.9939 61.5445 81.599 62.0141C81.2147 62.4838 80.729 62.8521 80.1419 63.1189C79.5549 63.3858 78.8984 63.5192 78.1725 63.5192C77.2972 63.5192 76.518 63.3324 75.8348 62.9588C75.1517 62.5852 74.618 62.0515 74.2337 61.3576C73.8494 60.6638 73.6573 59.8526 73.6573 58.9239C73.6573 57.9952 73.8441 57.184 74.2177 56.4901C74.602 55.7963 75.1357 55.2626 75.8188 54.889C76.502 54.5154 77.2866 54.3286 78.1725 54.3286C79.0372 54.3286 79.8057 54.5101 80.4782 54.873C81.1507 55.2359 81.6737 55.7536 82.0473 56.4261C82.4316 57.0986 82.6237 57.8831 82.6237 58.7798ZM79.8217 58.0593C79.8217 57.5896 79.6616 57.216 79.3414 56.9385C79.0211 56.6609 78.6209 56.5222 78.1405 56.5222C77.6815 56.5222 77.2919 56.6556 76.9717 56.9225C76.6621 57.1893 76.47 57.5683 76.3952 58.0593H79.8217ZM89.0477 61.0694V63.3911H87.6547C86.662 63.3911 85.8881 63.1509 85.3331 62.6706C84.778 62.1796 84.5005 61.3843 84.5005 60.2849V56.7303H83.4117V54.4567H84.5005V52.2791H87.2384V54.4567H89.0317V56.7303H87.2384V60.3169C87.2384 60.5838 87.3025 60.7759 87.4306 60.8933C87.5587 61.0107 87.7722 61.0694 88.071 61.0694H89.0477ZM96.7039 61.2776H100.29V63.3911H93.9659V52.151H96.7039V61.2776ZM102.973 53.528C102.493 53.528 102.098 53.3892 101.789 53.1117C101.49 52.8235 101.34 52.4713 101.34 52.055C101.34 51.628 101.49 51.2757 101.789 50.9982C102.098 50.71 102.493 50.5659 102.973 50.5659C103.443 50.5659 103.827 50.71 104.126 50.9982C104.436 51.2757 104.591 51.628 104.591 52.055C104.591 52.4713 104.436 52.8235 104.126 53.1117C103.827 53.3892 103.443 53.528 102.973 53.528ZM104.334 54.4567V63.3911H101.596V54.4567H104.334ZM105.774 58.9079C105.774 57.9899 105.945 57.184 106.287 56.4901C106.639 55.7963 107.114 55.2626 107.712 54.889C108.309 54.5154 108.976 54.3286 109.713 54.3286C110.343 54.3286 110.893 54.4567 111.362 54.7129C111.843 54.969 112.211 55.3053 112.467 55.7216V54.4567H115.205V63.3911H112.467V62.1262C112.2 62.5425 111.827 62.8787 111.346 63.1349C110.876 63.3911 110.327 63.5192 109.697 63.5192C108.971 63.5192 108.309 63.3324 107.712 62.9588C107.114 62.5745 106.639 62.0355 106.287 61.3416C105.945 60.6371 105.774 59.8259 105.774 58.9079ZM112.467 58.9239C112.467 58.2407 112.275 57.7017 111.891 57.3067C111.517 56.9118 111.058 56.7143 110.514 56.7143C109.969 56.7143 109.505 56.9118 109.121 57.3067C108.747 57.691 108.56 58.2247 108.56 58.9079C108.56 59.591 108.747 60.1354 109.121 60.5411C109.505 60.936 109.969 61.1335 110.514 61.1335C111.058 61.1335 111.517 60.936 111.891 60.5411C112.275 60.1461 112.467 59.6071 112.467 58.9239ZM120.82 63.5192C120.041 63.5192 119.347 63.3858 118.739 63.1189C118.13 62.8521 117.65 62.4891 117.298 62.0301C116.946 61.5605 116.748 61.0374 116.705 60.461H119.411C119.443 60.7706 119.587 61.0214 119.844 61.2135C120.1 61.4057 120.415 61.5018 120.788 61.5018C121.13 61.5018 121.391 61.4377 121.573 61.3096C121.765 61.1708 121.861 60.9947 121.861 60.7812C121.861 60.525 121.728 60.3382 121.461 60.2208C121.194 60.0927 120.762 59.954 120.164 59.8045C119.523 59.6551 118.99 59.5003 118.563 59.3402C118.136 59.1694 117.767 58.9079 117.458 58.5556C117.148 58.1927 116.994 57.707 116.994 57.0986C116.994 56.5862 117.132 56.1219 117.41 55.7056C117.698 55.2786 118.114 54.9424 118.659 54.6969C119.214 54.4513 119.87 54.3286 120.628 54.3286C121.749 54.3286 122.63 54.6061 123.27 55.1612C123.921 55.7163 124.295 56.4528 124.391 57.3708H121.861C121.818 57.0612 121.68 56.8157 121.445 56.6342C121.221 56.4528 120.922 56.3621 120.548 56.3621C120.228 56.3621 119.982 56.4261 119.812 56.5542C119.641 56.6716 119.555 56.8371 119.555 57.0505C119.555 57.3067 119.689 57.4989 119.956 57.627C120.233 57.7551 120.66 57.8831 121.237 58.0112C121.898 58.182 122.438 58.3528 122.854 58.5236C123.27 58.6837 123.633 58.9506 123.943 59.3242C124.263 59.6871 124.428 60.1781 124.439 60.7972C124.439 61.3203 124.29 61.79 123.991 62.2063C123.702 62.6119 123.281 62.9321 122.726 63.167C122.181 63.4018 121.546 63.5192 120.82 63.5192ZM130.181 63.5192C129.306 63.5192 128.516 63.3324 127.811 62.9588C127.117 62.5852 126.568 62.0515 126.162 61.3576C125.767 60.6638 125.57 59.8526 125.57 58.9239C125.57 58.0059 125.772 57.2 126.178 56.5062C126.584 55.8016 127.139 55.2626 127.843 54.889C128.548 54.5154 129.338 54.3286 130.213 54.3286C131.088 54.3286 131.878 54.5154 132.583 54.889C133.287 55.2626 133.842 55.8016 134.248 56.5062C134.654 57.2 134.856 58.0059 134.856 58.9239C134.856 59.8419 134.648 60.6531 134.232 61.3576C133.826 62.0515 133.266 62.5852 132.551 62.9588C131.846 63.3324 131.056 63.5192 130.181 63.5192ZM130.181 61.1495C130.704 61.1495 131.147 60.9574 131.51 60.5731C131.884 60.1888 132.07 59.6391 132.07 58.9239C132.07 58.2087 131.889 57.659 131.526 57.2747C131.174 56.8904 130.736 56.6983 130.213 56.6983C129.679 56.6983 129.236 56.8904 128.884 57.2747C128.532 57.6483 128.356 58.198 128.356 58.9239C128.356 59.6391 128.526 60.1888 128.868 60.5731C129.22 60.9574 129.658 61.1495 130.181 61.1495ZM141.753 54.3606C142.799 54.3606 143.631 54.7022 144.251 55.3853C144.88 56.0578 145.195 56.9865 145.195 58.1714V63.3911H142.473V58.5396C142.473 57.9419 142.319 57.4775 142.009 57.1466C141.699 56.8157 141.283 56.6503 140.76 56.6503C140.237 56.6503 139.821 56.8157 139.511 57.1466C139.202 57.4775 139.047 57.9419 139.047 58.5396V63.3911H136.309V54.4567H139.047V55.6415C139.324 55.2466 139.698 54.937 140.168 54.7129C140.637 54.478 141.166 54.3606 141.753 54.3606ZM155.52 58.7798C155.52 59.036 155.504 59.3028 155.472 59.5804H149.275C149.318 60.1354 149.494 60.5624 149.804 60.8613C150.124 61.1495 150.514 61.2936 150.973 61.2936C151.656 61.2936 152.131 61.0054 152.398 60.429H155.312C155.162 61.0161 154.89 61.5445 154.495 62.0141C154.111 62.4838 153.625 62.8521 153.038 63.1189C152.451 63.3858 151.795 63.5192 151.069 63.5192C150.193 63.5192 149.414 63.3324 148.731 62.9588C148.048 62.5852 147.514 62.0515 147.13 61.3576C146.746 60.6638 146.554 59.8526 146.554 58.9239C146.554 57.9952 146.74 57.184 147.114 56.4901C147.498 55.7963 148.032 55.2626 148.715 54.889C149.398 54.5154 150.183 54.3286 151.069 54.3286C151.933 54.3286 152.702 54.5101 153.374 54.873C154.047 55.2359 154.57 55.7536 154.944 56.4261C155.328 57.0986 155.52 57.8831 155.52 58.7798ZM152.718 58.0593C152.718 57.5896 152.558 57.216 152.238 56.9385C151.917 56.6609 151.517 56.5222 151.037 56.5222C150.578 56.5222 150.188 56.6556 149.868 56.9225C149.558 57.1893 149.366 57.5683 149.291 58.0593H152.718ZM159.702 55.9458C160.023 55.4547 160.423 55.0705 160.903 54.7929C161.384 54.5047 161.917 54.3606 162.504 54.3606V57.2587H161.752C161.069 57.2587 160.556 57.4081 160.215 57.707C159.873 57.9952 159.702 58.5076 159.702 59.2441V63.3911H156.964V54.4567H159.702V55.9458Z" fill="#E4E4E4"/>
</svg>
