<svg width="24" height="24" viewBox="0 0 24 24" fill="none" xmlns="http://www.w3.org/2000/svg">
<g clip-path="url(#clip0_132_3652)">
<path d="M9.6133 23.943C9.93078 24.0787 10.2999 23.9654 10.4854 23.6725L18.9229 10.2663C19.0595 10.0493 19.0678 9.7753 18.9441 9.55147C18.8205 9.32694 18.5843 9.18753 18.3282 9.18753H12.697L14.7913 0.876175C14.8758 0.54041 14.7048 0.193628 14.3869 0.0569876C14.071 -0.0789499 13.6995 0.0350033 13.5148 0.327503L5.0773 13.7338C4.94066 13.9507 4.93241 14.2247 5.05602 14.4485C5.17963 14.6731 5.41583 14.8125 5.67195 14.8125H11.3031L9.20886 23.1238C9.12439 23.4597 9.29535 23.8064 9.6133 23.943Z" fill="#1925FF"/>
</g>
<defs>
<clipPath id="clip0_132_3652">
<rect width="24" height="24" fill="white"/>
</clipPath>
</defs>
</svg>
