<svg xmlns="http://www.w3.org/2000/svg" width="24" height="24" viewBox="0 0 24 24" fill="none">
  <g clip-path="url(#clip0_74_47652)">
    <path d="M12.6872 23.4748C18.9351 23.4748 23.9999 18.4099 23.9999 12.1621C23.9999 5.91424 18.9351 0.849365 12.6872 0.849365C6.43938 0.849365 1.37451 5.91424 1.37451 12.1621C1.37451 18.4099 6.43938 23.4748 12.6872 23.4748Z" fill="url(#paint0_linear_74_47652)"/>
    <path d="M20.6528 6.21188C20.2646 5.92675 19.853 5.66519 19.4217 5.42769C19.1841 4.9963 18.9226 4.58472 18.6374 4.19654C17.054 2.04091 14.9407 0.85376 12.6872 0.85376C10.4337 0.85376 8.32051 2.04091 6.73702 4.19654C6.45185 4.58472 6.19034 4.99635 5.95284 5.42769C5.52145 5.66519 5.10987 5.9267 4.72168 6.21188C2.56606 7.79541 1.37891 9.90854 1.37891 12.1621C1.37891 14.4156 2.56606 16.5288 4.72168 18.1123C5.10987 18.3975 5.52149 18.659 5.95284 18.8965C6.19034 19.3278 6.45185 19.7395 6.73702 20.1276C8.32055 22.2833 10.4337 23.4704 12.6872 23.4704C14.9407 23.4704 17.054 22.2833 18.6374 20.1276C18.9226 19.7395 19.1841 19.3278 19.4217 18.8964C19.853 18.6589 20.2646 18.3974 20.6528 18.1123C22.8084 16.5288 23.9956 14.4156 23.9956 12.162C23.9956 9.90849 22.8084 7.79541 20.6528 6.21188ZM12.6872 22.9381C12.0662 22.9381 11.4079 22.013 10.8875 20.4344C11.4774 20.5038 12.0786 20.5397 12.6872 20.5397C13.2959 20.5397 13.8971 20.5038 14.487 20.4344C13.9665 22.013 13.3083 22.9381 12.6872 22.9381ZM12.6872 20.0074C12.0144 20.0074 11.3559 19.9619 10.7169 19.8755C10.3622 18.6215 10.1047 17.1162 9.9574 15.4727C10.8396 15.5358 11.7548 15.5683 12.6872 15.5683C13.6197 15.5683 14.5349 15.5358 15.4171 15.4727C15.2698 17.1162 15.0123 18.6215 14.6576 19.8755C14.0186 19.9619 13.3601 20.0074 12.6872 20.0074ZM12.6872 1.38614C13.3083 1.38614 13.9665 2.31127 14.487 3.88981C13.8971 3.82039 13.2959 3.78444 12.6872 3.78444C12.0786 3.78444 11.4774 3.82039 10.8875 3.88981C11.4079 2.31122 12.0662 1.38614 12.6872 1.38614ZM12.6872 4.31682C13.3601 4.31682 14.0186 4.36237 14.6576 4.44872C15.0123 5.70275 15.2698 7.20802 15.4171 8.8515C14.5349 8.78844 13.6197 8.75592 12.6872 8.75592C11.7548 8.75592 10.8396 8.78844 9.9574 8.8515C10.1047 7.20802 10.3622 5.70275 10.7169 4.44872C11.3559 4.36237 12.0144 4.31682 12.6872 4.31682ZM9.81335 12.1621C9.81335 11.2129 9.84757 10.2827 9.91354 9.3884C10.8079 9.32242 11.738 9.28821 12.6872 9.28821C13.6364 9.28821 14.5666 9.32242 15.4609 9.3884C15.5269 10.2827 15.5611 11.2129 15.5611 12.1621C15.5611 13.1113 15.5269 14.0414 15.4609 14.9357C14.5666 15.0017 13.6364 15.0359 12.6872 15.0359C11.7381 15.0359 10.8079 15.0017 9.91354 14.9357C9.84757 14.0415 9.81335 13.1113 9.81335 12.1621ZM9.3766 14.8919C7.73312 14.7446 6.2278 14.4871 4.97382 14.1324C4.88752 13.4934 4.84192 12.8349 4.84192 12.1621C4.84192 11.4892 4.88747 10.8308 4.97382 10.1917C6.2278 9.8371 7.73312 9.5796 9.3766 9.43225C9.31354 10.3144 9.28102 11.2297 9.28102 12.1621C9.28102 13.0945 9.31349 14.0098 9.3766 14.8919ZM15.9979 9.4323C17.6414 9.57959 19.1467 9.8371 20.4007 10.1918C20.487 10.8308 20.5326 11.4893 20.5326 12.1621C20.5326 12.835 20.487 13.4934 20.4007 14.1325C19.1467 14.4872 17.6414 14.7446 15.9979 14.892C16.061 14.0098 16.0935 13.0946 16.0935 12.1621C16.0935 11.2297 16.061 10.3145 15.9979 9.4323ZM15.9552 8.89414C15.815 7.28322 15.5707 5.79776 15.2343 4.53879C16.6225 4.78468 17.9063 5.22675 19.027 5.82237C19.6226 6.94308 20.0647 8.2268 20.3106 9.61503C19.0516 9.2787 17.5662 9.03432 15.9552 8.89414ZM9.41924 8.89414C7.80832 9.03432 6.32286 9.2787 5.06389 9.61503C5.30978 8.2268 5.75185 6.94308 6.34747 5.82237C7.46818 5.22675 8.75189 4.78468 10.1401 4.53879C9.8038 5.79776 9.55947 7.28322 9.41924 8.89414ZM4.41491 13.9618C2.83637 13.4414 1.91124 12.7831 1.91124 12.1621C1.91124 11.5411 2.83632 10.8828 4.41491 10.3624C4.34554 10.9522 4.30954 11.5534 4.30954 12.1621C4.30954 12.7707 4.34554 13.372 4.41491 13.9618ZM9.41924 15.4301C9.55942 17.041 9.8038 18.5265 10.1401 19.7854C8.75189 19.5395 7.46818 19.0975 6.34747 18.5019C5.75185 17.3811 5.30978 16.0974 5.06389 14.7092C6.32291 15.0455 7.80837 15.2899 9.41924 15.4301ZM15.9552 15.4301C17.5662 15.2899 19.0516 15.0455 20.3106 14.7092C20.0647 16.0974 19.6226 17.3811 19.027 18.5019C17.9063 19.0975 16.6226 19.5395 15.2343 19.7854C15.5707 18.5265 15.815 17.041 15.9552 15.4301ZM20.9596 10.3624C22.5381 10.8828 23.4632 11.5411 23.4632 12.1621C23.4632 12.7832 22.5381 13.4414 20.9596 13.9619C21.0289 13.372 21.0649 12.7708 21.0649 12.1621C21.0649 11.5534 21.029 10.9523 20.9596 10.3624ZM23.3375 10.9632C22.8166 10.519 21.9909 10.1197 20.8792 9.77809C20.6856 8.5523 20.3429 7.38449 19.8632 6.31484C21.6834 7.50002 22.9492 9.12755 23.3375 10.9632ZM18.5346 4.98614C17.4649 4.50647 16.2971 4.16378 15.0713 3.97014C14.7296 2.85837 14.3303 2.03268 13.8862 1.51178C15.7218 1.90011 17.3494 3.16595 18.5346 4.98614ZM11.4884 1.51183C11.0442 2.03272 10.6449 2.85842 10.3032 3.97018C9.07745 4.16378 7.90959 4.50647 6.83994 4.98614C8.02512 3.16595 9.65265 1.90011 11.4884 1.51183ZM5.51124 6.3148C5.03161 7.38444 4.68888 8.5523 4.49528 9.77809C3.38352 10.1197 2.55782 10.519 2.03693 10.9632C2.42521 9.12755 3.69109 7.50002 5.51124 6.3148ZM2.03693 13.361C2.55782 13.8052 3.38352 14.2045 4.49528 14.5461C4.68888 15.7719 5.03161 16.9398 5.51124 18.0094C3.69109 16.8242 2.42521 15.1967 2.03693 13.361ZM6.83989 19.3381C7.90954 19.8178 9.0774 20.1604 10.3032 20.354C10.6448 21.4658 11.0441 22.2915 11.4883 22.8124C9.65265 22.4241 8.02512 21.1582 6.83989 19.3381ZM13.8861 22.8124C14.3303 22.2915 14.7296 21.4658 15.0712 20.354C16.297 20.1604 17.4649 19.8177 18.5345 19.3381C17.3494 21.1582 15.7218 22.4241 13.8861 22.8124ZM19.8632 18.0094C20.3429 16.9398 20.6856 15.7719 20.8792 14.5462C21.991 14.2045 22.8166 13.8052 23.3375 13.3611C22.9492 15.1967 21.6834 16.8242 19.8632 18.0094Z" fill="url(#paint1_linear_74_47652)"/>
    <path d="M8.79659 1.53662C5.96422 2.57408 3.66257 4.71182 2.40869 7.43215C2.26008 7.75455 2.18652 8.10646 2.18652 8.46147C2.18652 9.1227 2.44921 9.75681 2.91674 10.2244L3.14794 10.4556C4.18408 11.4917 5.58935 12.0738 7.05466 12.0738C7.27358 12.0738 7.45104 11.8963 7.45104 11.6775C7.45104 11.4586 7.27358 11.2811 7.05466 11.2811H5.83626C5.27433 11.2811 4.81876 10.8256 4.81876 10.2636C4.81876 9.70166 5.27429 9.24608 5.83626 9.24608H6.78789C7.92897 9.24608 9.02332 8.79281 9.83015 7.98594L11.2995 6.51662C11.6194 6.19667 12.0534 6.01691 12.5059 6.01691C13.1605 6.01691 13.7573 5.64241 14.0421 5.053C14.391 4.33065 13.8648 3.49192 13.0626 3.49192H11.1668C10.6094 3.49192 10.1576 3.04011 10.1576 2.48269C10.1575 1.77935 9.45711 1.2947 8.79659 1.53662Z" fill="url(#paint2_linear_74_47652)"/>
    <path d="M23.7368 9.72455C23.5805 9.01316 22.9444 8.51001 22.2161 8.51001H20.6214H19.7689C18.32 8.51001 17.1455 9.68455 17.1455 11.1334V11.4526C17.1455 12.7253 18.1772 13.7569 19.4498 13.7569C20.0968 13.7569 20.6214 14.2815 20.6214 14.9286V17.988C20.6214 18.7853 21.6566 19.1029 22.0997 18.4401C23.0204 17.0627 23.6468 15.4715 23.8888 13.7569C23.962 13.2361 24.0001 12.7033 24.0001 12.1621C24.0001 11.3251 23.9091 10.5096 23.7368 9.72455Z" fill="url(#paint3_linear_74_47652)"/>
    <path d="M17.7478 2.04248C18.5108 3.56526 18.9409 5.2838 18.9409 7.103C18.9409 13.3508 13.876 18.4157 7.62814 18.4157C5.80894 18.4157 4.0904 17.9856 2.56763 17.2226C4.42504 20.9296 8.25864 23.4748 12.6873 23.4748C18.9351 23.4748 24 18.41 24 12.1621C24 7.73349 21.4548 3.89989 17.7478 2.04248Z" fill="url(#paint4_linear_74_47652)"/>
    <path d="M18.3969 7.48752C17.8297 6.92032 16.4197 7.38941 13.7355 9.89651L12.1669 9.7032L11.6602 9.18042C11.3893 8.9096 10.9503 8.9096 10.6794 9.18042C10.6147 9.24517 10.5661 9.31971 10.5325 9.39915L10.1291 8.99327C9.85827 8.72244 9.41921 8.72244 9.14839 8.99327C9.0578 9.08385 8.99827 9.19341 8.96825 9.30903L8.36157 9.23425C8.21691 9.21642 8.05088 9.28258 7.92543 9.40809L6.88703 10.4465C6.77743 10.5561 6.77794 10.714 6.88811 10.7614L10.0131 13.8152C9.10204 14.8751 8.26961 15.9231 7.63051 16.8263L6.07484 16.6151C6.01234 16.6067 5.94015 16.6351 5.88566 16.6895L5.40105 17.1742C5.3075 17.2677 5.29912 17.4019 5.3835 17.4561L6.55183 18.5898C6.35568 19.0189 6.30161 19.3228 6.43164 19.4528L10.1729 23.1941C10.9815 23.3776 11.8229 23.4749 12.6872 23.4749C18.6343 23.4749 23.5094 18.8857 23.9649 13.0555L18.3969 7.48752Z" fill="url(#paint5_linear_74_47652)"/>
    <path d="M9.63877 10.177C10.0218 10.177 10.3322 9.86648 10.3322 9.4835C10.3322 9.10051 10.0218 8.79004 9.63877 8.79004C9.25578 8.79004 8.94531 9.10051 8.94531 9.4835C8.94531 9.86648 9.25578 10.177 9.63877 10.177Z" fill="url(#paint6_linear_74_47652)"/>
    <path d="M9.63883 10.0623C9.95848 10.0623 10.2176 9.80321 10.2176 9.48356C10.2176 9.16391 9.95848 8.90479 9.63883 8.90479C9.31919 8.90479 9.06006 9.16391 9.06006 9.48356C9.06006 9.80321 9.31919 10.0623 9.63883 10.0623Z" fill="url(#paint7_linear_74_47652)"/>
    <path d="M10.2967 9.26416C10.2638 9.36322 10.2079 9.45635 10.1291 9.53522C9.85827 9.80604 9.41921 9.80604 9.14838 9.53522C9.06951 9.45635 9.0137 9.36322 8.98076 9.26416C8.90057 9.50534 8.95643 9.78185 9.14838 9.97381C9.41921 10.2446 9.85827 10.2446 10.1291 9.97381C10.321 9.78185 10.3769 9.50538 10.2967 9.26416Z" fill="url(#paint8_linear_74_47652)"/>
    <path d="M9.63877 10.177C10.0218 10.177 10.3322 9.86648 10.3322 9.4835C10.3322 9.10051 10.0218 8.79004 9.63877 8.79004C9.25578 8.79004 8.94531 9.10051 8.94531 9.4835C8.94531 9.86648 9.25578 10.177 9.63877 10.177Z" fill="url(#paint9_linear_74_47652)"/>
    <path d="M11.6601 10.1611C11.3893 10.4319 10.9503 10.4319 10.6794 10.1611C10.4086 9.89029 10.4086 9.45124 10.6794 9.18041C10.9503 8.90959 11.3893 8.90959 11.6601 9.18041C11.9309 9.45124 11.9309 9.89034 11.6601 10.1611Z" fill="url(#paint10_linear_74_47652)"/>
    <path d="M11.1698 10.2496C11.4895 10.2496 11.7486 9.99047 11.7486 9.67082C11.7486 9.35117 11.4895 9.09204 11.1698 9.09204C10.8502 9.09204 10.5911 9.35117 10.5911 9.67082C10.5911 9.99047 10.8502 10.2496 11.1698 10.2496Z" fill="url(#paint11_linear_74_47652)"/>
    <path d="M11.828 9.45142C11.795 9.55047 11.7392 9.6436 11.6603 9.72247C11.3895 9.9933 10.9505 9.9933 10.6796 9.72247C10.6008 9.6436 10.545 9.55047 10.512 9.45142C10.4318 9.69259 10.4877 9.96911 10.6796 10.1611C10.9505 10.4319 11.3895 10.4319 11.6603 10.1611C11.8523 9.96906 11.9082 9.69259 11.828 9.45142Z" fill="url(#paint12_linear_74_47652)"/>
    <path d="M11.6601 10.1611C11.3893 10.4319 10.9503 10.4319 10.6794 10.1611C10.4086 9.89029 10.4086 9.45124 10.6794 9.18041C10.9503 8.90959 11.3893 8.90959 11.6601 9.18041C11.9309 9.45124 11.9309 9.89034 11.6601 10.1611Z" fill="url(#paint13_linear_74_47652)"/>
    <path d="M16.401 16.9392C16.784 16.9392 17.0944 16.6287 17.0944 16.2457C17.0944 15.8627 16.784 15.5522 16.401 15.5522C16.018 15.5522 15.7075 15.8627 15.7075 16.2457C15.7075 16.6287 16.018 16.9392 16.401 16.9392Z" fill="url(#paint14_linear_74_47652)"/>
    <path d="M16.401 16.8245C16.7207 16.8245 16.9798 16.5654 16.9798 16.2458C16.9798 15.9261 16.7207 15.667 16.401 15.667C16.0814 15.667 15.8223 15.9261 15.8223 16.2458C15.8223 16.5654 16.0814 16.8245 16.401 16.8245Z" fill="url(#paint15_linear_74_47652)"/>
    <path d="M16.6203 15.5877C16.5212 15.6206 16.4281 15.6765 16.3492 15.7553C16.0784 16.0261 16.0784 16.4652 16.3492 16.736C16.4281 16.8149 16.5212 16.8707 16.6203 16.9036C16.3791 16.9838 16.1026 16.928 15.9106 16.736C15.6398 16.4652 15.6398 16.0261 15.9106 15.7553C16.1026 15.5633 16.3791 15.5075 16.6203 15.5877Z" fill="url(#paint16_linear_74_47652)"/>
    <path d="M16.401 16.9392C16.784 16.9392 17.0944 16.6287 17.0944 16.2457C17.0944 15.8627 16.784 15.5522 16.401 15.5522C16.018 15.5522 15.7075 15.8627 15.7075 16.2457C15.7075 16.6287 16.018 16.9392 16.401 16.9392Z" fill="url(#paint17_linear_74_47652)"/>
    <path d="M15.7234 14.2244C15.4526 14.4952 15.4526 14.9342 15.7234 15.2051C15.9942 15.4759 16.4333 15.4759 16.7041 15.2051C16.9749 14.9342 16.9749 14.4952 16.7041 14.2244C16.4333 13.9535 15.9942 13.9535 15.7234 14.2244Z" fill="url(#paint18_linear_74_47652)"/>
    <path d="M16.2138 15.2933C16.5334 15.2933 16.7926 15.0342 16.7926 14.7145C16.7926 14.3949 16.5334 14.1357 16.2138 14.1357C15.8941 14.1357 15.635 14.3949 15.635 14.7145C15.635 15.0342 15.8941 15.2933 16.2138 15.2933Z" fill="url(#paint19_linear_74_47652)"/>
    <path d="M16.433 14.0567C16.334 14.0896 16.2408 14.1455 16.162 14.2243C15.8911 14.4951 15.8911 14.9342 16.162 15.205C16.2408 15.2839 16.334 15.3397 16.433 15.3726C16.1919 15.4528 15.9153 15.3969 15.7234 15.205C15.4526 14.9342 15.4526 14.4951 15.7234 14.2243C15.9153 14.0323 16.1918 13.9765 16.433 14.0567Z" fill="url(#paint20_linear_74_47652)"/>
    <path d="M15.7234 14.2244C15.4526 14.4952 15.4526 14.9342 15.7234 15.2051C15.9942 15.4759 16.4333 15.4759 16.7041 15.2051C16.9749 14.9342 16.9749 14.4952 16.7041 14.2244C16.4333 13.9535 15.9942 13.9535 15.7234 14.2244Z" fill="url(#paint21_linear_74_47652)"/>
    <path d="M5.38348 17.4559L6.86988 18.411L8.35623 16.9246L6.07482 16.615C6.01232 16.6065 5.94014 16.6349 5.88564 16.6894L5.40103 17.174C5.30748 17.2676 5.29915 17.4017 5.38348 17.4559Z" fill="url(#paint22_linear_74_47652)"/>
    <path d="M5.54623 17.0292L5.40129 17.1742C5.30774 17.2677 5.29936 17.402 5.38374 17.4562L6.87014 18.4112L8.01682 17.2645L5.73541 16.9548C5.67292 16.9464 5.60073 16.9748 5.54623 17.0292Z" fill="url(#paint23_linear_74_47652)"/>
    <path d="M8.4284 20.5008L7.47339 19.0144L8.95974 17.5281L9.26934 19.8095C9.27781 19.872 9.24944 19.9442 9.19499 19.9987L8.71038 20.4833C8.61678 20.5768 8.48261 20.5852 8.4284 20.5008Z" fill="url(#paint24_linear_74_47652)"/>
    <path d="M8.85532 20.3383L8.71038 20.4832C8.61682 20.5768 8.48261 20.5851 8.4284 20.5008L7.47339 19.0144L8.62007 17.8677L8.92967 20.1491C8.93819 20.2116 8.90977 20.2838 8.85532 20.3383Z" fill="url(#paint25_linear_74_47652)"/>
    <path d="M6.88809 10.7614L11.6181 12.7999L14.4352 9.98279L8.36155 9.23432C8.21689 9.21648 8.05087 9.28265 7.92541 9.40815L6.88701 10.4466C6.77746 10.5561 6.77798 10.7139 6.88809 10.7614Z" fill="url(#paint26_linear_74_47652)"/>
    <path d="M7.25618 10.0773L6.88705 10.4464C6.77745 10.556 6.77796 10.7139 6.88813 10.7614L11.6181 12.7998L13.766 10.652L7.69232 9.90352C7.54766 9.88564 7.38168 9.9518 7.25618 10.0773Z" fill="url(#paint27_linear_74_47652)"/>
    <path d="M9.95933 10.1829L7.69232 9.90351C7.54766 9.88567 7.38168 9.95183 7.25618 10.0773L6.88705 10.4465C6.77745 10.5561 6.77796 10.714 6.88813 10.7614L8.63011 11.5121L9.95933 10.1829Z" fill="url(#paint28_linear_74_47652)"/>
    <path d="M6.88809 10.7614L11.6181 12.7999L12.5868 11.8311L7.34305 9.99048L6.88705 10.4465C6.77745 10.556 6.77797 10.7139 6.88809 10.7614Z" fill="url(#paint29_linear_74_47652)"/>
    <path d="M15.1232 18.9963L13.0847 14.2663L15.9018 11.4492L16.6503 17.5229C16.6682 17.6675 16.602 17.8335 16.4765 17.959L15.4381 18.9974C15.3285 19.107 15.1706 19.1064 15.1232 18.9963Z" fill="url(#paint30_linear_74_47652)"/>
    <path d="M15.8072 18.6282L15.4381 18.9973C15.3285 19.1069 15.1706 19.1064 15.1232 18.9962L13.0847 14.2663L15.2326 12.1184L15.981 18.1921C15.9989 18.3367 15.9327 18.5027 15.8072 18.6282Z" fill="url(#paint31_linear_74_47652)"/>
    <path d="M15.7015 15.925L15.9809 18.1921C15.9988 18.3367 15.9326 18.5027 15.8071 18.6282L15.438 18.9973C15.3284 19.1069 15.1705 19.1064 15.123 18.9962L14.3723 17.2543L15.7015 15.925Z" fill="url(#paint32_linear_74_47652)"/>
    <path d="M15.1232 18.9963L13.0847 14.2664L14.0535 13.2976L15.8941 18.5414L15.4381 18.9974C15.3285 19.107 15.1706 19.1065 15.1232 18.9963Z" fill="url(#paint33_linear_74_47652)"/>
    <path d="M15.0744 13.0926C11.7703 16.3967 7.06212 20.0829 6.43182 19.4526C5.80151 18.8223 9.48772 14.1142 12.7918 10.81C16.0959 7.50593 17.7667 6.85703 18.397 7.48734C19.0274 8.11769 18.3785 9.78852 15.0744 13.0926Z" fill="url(#paint34_linear_74_47652)"/>
    <path d="M14.8294 12.9962C11.6867 16.139 7.2599 19.6967 6.7239 19.1607C6.1879 18.6246 9.74559 14.1979 12.8883 11.0551C16.0311 7.91234 17.5688 7.24368 18.1048 7.77968C18.6409 8.31573 17.9722 9.85347 14.8294 12.9962Z" fill="url(#paint35_linear_74_47652)"/>
    <path d="M15.0742 13.0928C18.3783 9.78863 19.0272 8.11785 18.3969 7.48755L6.43164 19.4528C7.06199 20.0831 11.7701 16.3969 15.0742 13.0928Z" fill="url(#paint36_linear_74_47652)"/>
    <path d="M15.5828 8.71312C15.3805 8.88931 15.1682 9.07901 14.9455 9.28282C14.8885 9.33496 14.8937 9.41585 14.9553 9.42696C15.3363 9.49557 15.6802 9.66244 15.9512 9.93345C16.2222 10.2045 16.3891 10.5484 16.4577 10.9293C16.4688 10.9909 16.5497 10.9961 16.6018 10.9391C16.8056 10.7165 16.9953 10.5041 17.1715 10.3018C17.2914 10.164 17.3431 9.99077 17.3043 9.85091C17.2194 9.54536 17.0657 9.26964 16.8403 9.04428C16.6149 8.81887 16.3392 8.66522 16.0337 8.58037C15.8939 8.5415 15.7206 8.59317 15.5828 8.71312Z" fill="url(#paint37_linear_74_47652)"/>
    <path d="M17.1714 10.3017C17.0166 10.4801 16.8509 10.666 16.6745 10.8599C16.6505 10.8862 16.6265 10.9126 16.602 10.9394C16.5498 10.9963 16.4688 10.9912 16.4575 10.9295C16.3893 10.5483 16.2222 10.2043 15.9512 9.93327C15.9352 9.91727 15.9192 9.90174 15.9027 9.88716C15.7102 9.7088 15.4843 9.57986 15.2368 9.49798C15.4594 9.29516 15.6707 9.10598 15.8726 8.93045C16.0105 8.81045 16.1836 8.75869 16.3234 8.79774C16.4895 8.84386 16.6467 8.91021 16.7921 8.99774C16.8086 9.0128 16.8246 9.02833 16.8406 9.04433C17.066 9.26974 17.2194 9.54551 17.3041 9.85092C17.3432 9.99069 17.2914 10.1639 17.1714 10.3017Z" fill="url(#paint38_linear_74_47652)"/>
    <path d="M16.4577 10.9292C16.4688 10.9908 16.5497 10.996 16.6018 10.9391C16.8056 10.7164 16.9953 10.504 17.1715 10.3017C17.2914 10.164 17.3431 9.99068 17.3043 9.85083C17.2194 9.54527 17.0657 9.26955 16.8403 9.04419L15.9512 9.93337C16.2222 10.2044 16.3891 10.5483 16.4577 10.9292Z" fill="url(#paint39_linear_74_47652)"/>
    <path d="M7.54219 18.4419L7.44275 18.3424C7.3596 18.2593 7.38811 18.0994 7.50477 17.995L9.22219 16.4576C9.29762 16.39 9.39762 16.3794 9.45141 16.4332C9.5052 16.487 9.49456 16.587 9.42699 16.6624L7.88957 18.3798C7.7852 18.4964 7.62534 18.525 7.54219 18.4419Z" fill="url(#paint40_linear_74_47652)"/>
    <path d="M1.50372 21.9554C1.40499 21.9554 1.30998 21.9494 1.21939 21.9375C1.092 21.9207 1.00852 21.7957 1.04287 21.6719L1.13708 21.3318C1.16428 21.2337 1.25755 21.1686 1.35887 21.1785C1.54918 21.1971 1.78522 21.1766 2.05642 21.1173C2.16607 21.0933 2.27544 21.1598 2.30461 21.2682L2.39539 21.6053C2.42678 21.7219 2.3536 21.8401 2.23567 21.8663C1.96927 21.9255 1.72381 21.9554 1.50372 21.9554ZM3.19238 21.3354L3.06179 21.0121C3.01887 20.9058 3.06861 20.7852 3.17388 20.7399C3.41059 20.638 3.66118 20.5189 3.92254 20.3841C4.02485 20.3314 4.15082 20.3704 4.20499 20.472L4.36904 20.7796C4.42438 20.8834 4.38377 21.0125 4.27925 21.0665C3.99779 21.2117 3.72701 21.3403 3.47031 21.4505C3.36193 21.4971 3.23661 21.4449 3.19238 21.3354ZM0.339577 21.0657C0.220282 21.1163 0.0831059 21.0485 0.0525647 20.9226C0.0176471 20.7784 0 20.6209 0 20.4517C0 20.2737 0.0195294 20.0789 0.0582588 19.8706C0.0803294 19.7517 0.196988 19.6749 0.314588 19.7028L0.654165 19.7836C0.762635 19.8094 0.832565 19.9156 0.812612 20.0253C0.784282 20.1814 0.769976 20.3242 0.769976 20.4516C0.769976 20.5403 0.776894 20.6211 0.790494 20.6935C0.808894 20.7913 0.757741 20.8885 0.666118 20.9273L0.339577 21.0657ZM5.09167 20.3728L4.91398 20.0729C4.8552 19.9736 4.88687 19.8456 4.98551 19.7858C5.21817 19.6449 5.45798 19.4936 5.70198 19.3339C5.79864 19.2707 5.92833 19.2976 5.99233 19.3937L6.18546 19.684C6.2504 19.7816 6.22297 19.9132 6.1249 19.9774C5.87228 20.1427 5.62372 20.2995 5.38235 20.4456C5.28198 20.5064 5.15148 20.4738 5.09167 20.3728ZM7.16226 19.2668C7.06697 19.3348 6.93454 19.3128 6.86711 19.2171L7.16226 19.2668ZM0.892424 19.0233L0.567012 18.898C0.456706 18.8556 0.402353 18.7309 0.447388 18.6217C0.553741 18.3636 0.679294 18.0907 0.822447 17.8064C0.875341 17.7013 1.00419 17.6594 1.10852 17.7138L1.41765 17.875C1.51967 17.9283 1.55991 18.0537 1.50819 18.1565C1.376 18.4192 1.26033 18.6704 1.16254 18.907C1.11882 19.0128 0.999247 19.0644 0.892424 19.0233ZM1.81082 17.1635L1.50965 16.9879C1.40838 16.9289 1.37459 16.7987 1.43459 16.698C1.43652 16.6948 1.43845 16.6916 1.44033 16.6884C1.50038 16.5878 1.6312 16.5553 1.7312 16.6163L2.0288 16.7979C2.12744 16.8581 2.15901 16.9867 2.09976 17.0859C2.09906 17.0871 2.09831 17.0883 2.0976 17.0895C2.03845 17.1887 1.91064 17.2216 1.81082 17.1635ZM18.7546 7.30275L18.469 7.10284C18.3743 7.03653 18.3506 6.90613 18.4162 6.81098C18.5813 6.57178 18.7393 6.33545 18.8883 6.105C18.9511 6.00802 19.0802 5.98016 19.1777 6.04204L19.472 6.22891C19.571 6.29173 19.5996 6.42298 19.536 6.52138C19.3822 6.75917 19.2193 7.00279 19.0492 7.24929C18.9827 7.34571 18.8506 7.3699 18.7546 7.30275ZM19.9033 5.52228L19.6024 5.34618C19.5029 5.28797 19.4687 5.1603 19.5258 5.0602C19.6712 4.80543 19.8041 4.55837 19.9231 4.32209C19.9747 4.21941 20.099 4.17752 20.2025 4.22755L20.5164 4.37926C20.6224 4.43051 20.6661 4.55832 20.6132 4.66355C20.4873 4.91399 20.3467 5.17536 20.1932 5.4443C20.1349 5.54628 20.0047 5.58157 19.9033 5.52228ZM20.8507 3.61432L20.5259 3.48778C20.4192 3.44623 20.366 3.32708 20.4046 3.21931C20.5033 2.9435 20.574 2.69141 20.6157 2.46604C20.6359 2.35733 20.737 2.2835 20.8469 2.2963L21.1938 2.33686C21.3142 2.35093 21.3984 2.46336 21.377 2.58265C21.3275 2.85832 21.2434 3.16185 21.1257 3.48943C21.0856 3.60086 20.961 3.65729 20.8507 3.61432ZM17.9817 1.63432L17.8375 1.31682C17.7888 1.20962 17.8374 1.08279 17.9456 1.03616C18.2493 0.905241 18.5362 0.798746 18.8024 0.717899C18.9172 0.683076 19.0379 0.749899 19.0683 0.865947L19.1568 1.20341C19.1854 1.31244 19.1234 1.42491 19.0156 1.45785C18.7818 1.52924 18.528 1.62378 18.2571 1.7403C18.1518 1.78562 18.0292 1.73875 17.9817 1.63432ZM20.77 1.58039C20.6841 1.61343 20.5849 1.58835 20.5296 1.51484C20.5168 1.49785 20.503 1.48199 20.4882 1.46717C20.3743 1.35333 20.1862 1.29545 19.9289 1.29508H19.9216V0.525146V0.910135L19.9221 0.745994C19.9224 0.622041 20.0295 0.523876 20.1528 0.536441C20.5185 0.573711 20.813 0.703217 21.0326 0.922699C21.0995 0.98957 21.1584 1.06421 21.2089 1.14585C21.2779 1.25748 21.2265 1.40472 21.104 1.45183L20.77 1.58039Z" fill="url(#paint41_linear_74_47652)"/>
    <path d="M7.79041 4.35744C8.15359 4.35744 8.44801 4.06302 8.44801 3.69984C8.44801 3.33665 8.15359 3.04224 7.79041 3.04224C7.42723 3.04224 7.13281 3.33665 7.13281 3.69984C7.13281 4.06302 7.42723 4.35744 7.79041 4.35744Z" fill="url(#paint42_linear_74_47652)"/>
    <path d="M4.28675 9.22511C4.64993 9.22511 4.94435 8.93069 4.94435 8.56751C4.94435 8.20433 4.64993 7.90991 4.28675 7.90991C3.92357 7.90991 3.62915 8.20433 3.62915 8.56751C3.62915 8.93069 3.92357 9.22511 4.28675 9.22511Z" fill="url(#paint43_linear_74_47652)"/>
    <path d="M22.2172 10.907C22.5804 10.907 22.8748 10.6126 22.8748 10.2494C22.8748 9.88621 22.5804 9.5918 22.2172 9.5918C21.854 9.5918 21.5596 9.88621 21.5596 10.2494C21.5596 10.6126 21.854 10.907 22.2172 10.907Z" fill="url(#paint44_linear_74_47652)"/>
  </g>
  <defs>
    <linearGradient id="paint0_linear_74_47652" x1="7.20896" y1="6.68386" x2="20.9203" y2="20.3952" gradientUnits="userSpaceOnUse">
      <stop stop-color="#00AEFC"/>
      <stop offset="1" stop-color="#3F3CEE"/>
    </linearGradient>
    <linearGradient id="paint1_linear_74_47652" x1="14.4163" y1="24.617" x2="10.3457" y2="-4.70483" gradientUnits="userSpaceOnUse">
      <stop stop-color="#00AEFC" stop-opacity="0"/>
      <stop offset="1" stop-color="#18CFFC"/>
    </linearGradient>
    <linearGradient id="paint2_linear_74_47652" x1="9.13354" y1="7.62759" x2="26.9577" y2="20.2746" gradientUnits="userSpaceOnUse">
      <stop stop-color="#E5F3FF"/>
      <stop offset="1" stop-color="#B3CCFF"/>
    </linearGradient>
    <linearGradient id="paint3_linear_74_47652" x1="18.8634" y1="13.127" x2="26.851" y2="14.5322" gradientUnits="userSpaceOnUse">
      <stop stop-color="#E5F3FF"/>
      <stop offset="1" stop-color="#B3CCFF"/>
    </linearGradient>
    <linearGradient id="paint4_linear_74_47652" x1="16.4226" y1="9.9262" x2="24.7379" y2="-6.3194" gradientUnits="userSpaceOnUse">
      <stop stop-color="#3F3CEE" stop-opacity="0"/>
      <stop offset="1" stop-color="#2F43BC"/>
    </linearGradient>
    <linearGradient id="paint5_linear_74_47652" x1="17.6202" y1="18.6761" x2="11.8628" y2="12.9187" gradientUnits="userSpaceOnUse">
      <stop stop-color="#3F3CEE" stop-opacity="0"/>
      <stop offset="1" stop-color="#2F43BC"/>
    </linearGradient>
    <linearGradient id="paint6_linear_74_47652" x1="9.64621" y1="9.11059" x2="9.64621" y2="10.3806" gradientUnits="userSpaceOnUse">
      <stop stop-color="#F9F7FC"/>
      <stop offset="1" stop-color="#F0DDFC"/>
    </linearGradient>
    <linearGradient id="paint7_linear_74_47652" x1="9.6463" y1="9.79792" x2="9.6463" y2="8.91053" gradientUnits="userSpaceOnUse">
      <stop stop-color="#E9EDF5" stop-opacity="0"/>
      <stop offset="1" stop-color="white"/>
    </linearGradient>
    <linearGradient id="paint8_linear_74_47652" x1="9.47533" y1="9.68236" x2="11.4027" y2="9.10289" gradientUnits="userSpaceOnUse">
      <stop stop-color="#F0DDFC" stop-opacity="0"/>
      <stop offset="0.2889" stop-color="#C8B7E0" stop-opacity="0.289"/>
      <stop offset="0.5915" stop-color="#A595C8" stop-opacity="0.592"/>
      <stop offset="0.8395" stop-color="#8F81B8" stop-opacity="0.84"/>
      <stop offset="1" stop-color="#8779B3"/>
    </linearGradient>
    <linearGradient id="paint9_linear_74_47652" x1="9.70896" y1="9.12676" x2="9.59537" y2="9.76189" gradientUnits="userSpaceOnUse">
      <stop stop-color="#F0DDFC" stop-opacity="0"/>
      <stop offset="0.2889" stop-color="#C8B7E0" stop-opacity="0.289"/>
      <stop offset="0.5915" stop-color="#A595C8" stop-opacity="0.592"/>
      <stop offset="0.8395" stop-color="#8F81B8" stop-opacity="0.84"/>
      <stop offset="1" stop-color="#8779B3"/>
    </linearGradient>
    <linearGradient id="paint10_linear_74_47652" x1="11.177" y1="9.29785" x2="11.177" y2="10.5678" gradientUnits="userSpaceOnUse">
      <stop stop-color="#F9F7FC"/>
      <stop offset="1" stop-color="#F0DDFC"/>
    </linearGradient>
    <linearGradient id="paint11_linear_74_47652" x1="11.1771" y1="9.98509" x2="11.1771" y2="9.09773" gradientUnits="userSpaceOnUse">
      <stop stop-color="#E9EDF5" stop-opacity="0"/>
      <stop offset="1" stop-color="white"/>
    </linearGradient>
    <linearGradient id="paint12_linear_74_47652" x1="11.0064" y1="9.86953" x2="12.9337" y2="9.29009" gradientUnits="userSpaceOnUse">
      <stop stop-color="#F0DDFC" stop-opacity="0"/>
      <stop offset="0.2889" stop-color="#C8B7E0" stop-opacity="0.289"/>
      <stop offset="0.5915" stop-color="#A595C8" stop-opacity="0.592"/>
      <stop offset="0.8395" stop-color="#8F81B8" stop-opacity="0.84"/>
      <stop offset="1" stop-color="#8779B3"/>
    </linearGradient>
    <linearGradient id="paint13_linear_74_47652" x1="11.2398" y1="9.31398" x2="11.1261" y2="9.94915" gradientUnits="userSpaceOnUse">
      <stop stop-color="#F0DDFC" stop-opacity="0"/>
      <stop offset="0.2889" stop-color="#C8B7E0" stop-opacity="0.289"/>
      <stop offset="0.5915" stop-color="#A595C8" stop-opacity="0.592"/>
      <stop offset="0.8395" stop-color="#8F81B8" stop-opacity="0.84"/>
      <stop offset="1" stop-color="#8779B3"/>
    </linearGradient>
    <linearGradient id="paint14_linear_74_47652" x1="16.7755" y1="16.2398" x2="15.5055" y2="16.2398" gradientUnits="userSpaceOnUse">
      <stop stop-color="#F9F7FC"/>
      <stop offset="1" stop-color="#F0DDFC"/>
    </linearGradient>
    <linearGradient id="paint15_linear_74_47652" x1="16.0883" y1="16.2399" x2="16.9757" y2="16.2399" gradientUnits="userSpaceOnUse">
      <stop stop-color="#E9EDF5" stop-opacity="0"/>
      <stop offset="1" stop-color="white"/>
    </linearGradient>
    <linearGradient id="paint16_linear_74_47652" x1="16.2037" y1="16.4107" x2="16.7832" y2="14.4833" gradientUnits="userSpaceOnUse">
      <stop stop-color="#F0DDFC" stop-opacity="0"/>
      <stop offset="0.2889" stop-color="#C8B7E0" stop-opacity="0.289"/>
      <stop offset="0.5915" stop-color="#A595C8" stop-opacity="0.592"/>
      <stop offset="0.8395" stop-color="#8F81B8" stop-opacity="0.84"/>
      <stop offset="1" stop-color="#8779B3"/>
    </linearGradient>
    <linearGradient id="paint17_linear_74_47652" x1="16.7593" y1="16.1771" x2="16.1242" y2="16.2907" gradientUnits="userSpaceOnUse">
      <stop stop-color="#F0DDFC" stop-opacity="0"/>
      <stop offset="0.2889" stop-color="#C8B7E0" stop-opacity="0.289"/>
      <stop offset="0.5915" stop-color="#A595C8" stop-opacity="0.592"/>
      <stop offset="0.8395" stop-color="#8F81B8" stop-opacity="0.84"/>
      <stop offset="1" stop-color="#8779B3"/>
    </linearGradient>
    <linearGradient id="paint18_linear_74_47652" x1="16.5883" y1="14.709" x2="15.3183" y2="14.709" gradientUnits="userSpaceOnUse">
      <stop stop-color="#F9F7FC"/>
      <stop offset="1" stop-color="#F0DDFC"/>
    </linearGradient>
    <linearGradient id="paint19_linear_74_47652" x1="15.9011" y1="14.7088" x2="16.7884" y2="14.7089" gradientUnits="userSpaceOnUse">
      <stop stop-color="#E9EDF5" stop-opacity="0"/>
      <stop offset="1" stop-color="white"/>
    </linearGradient>
    <linearGradient id="paint20_linear_74_47652" x1="16.0165" y1="14.8799" x2="16.5959" y2="12.9526" gradientUnits="userSpaceOnUse">
      <stop stop-color="#F0DDFC" stop-opacity="0"/>
      <stop offset="0.2889" stop-color="#C8B7E0" stop-opacity="0.289"/>
      <stop offset="0.5915" stop-color="#A595C8" stop-opacity="0.592"/>
      <stop offset="0.8395" stop-color="#8F81B8" stop-opacity="0.84"/>
      <stop offset="1" stop-color="#8779B3"/>
    </linearGradient>
    <linearGradient id="paint21_linear_74_47652" x1="16.5721" y1="14.6463" x2="15.9369" y2="14.7599" gradientUnits="userSpaceOnUse">
      <stop stop-color="#F0DDFC" stop-opacity="0"/>
      <stop offset="0.2889" stop-color="#C8B7E0" stop-opacity="0.289"/>
      <stop offset="0.5915" stop-color="#A595C8" stop-opacity="0.592"/>
      <stop offset="0.8395" stop-color="#8F81B8" stop-opacity="0.84"/>
      <stop offset="1" stop-color="#8779B3"/>
    </linearGradient>
    <linearGradient id="paint22_linear_74_47652" x1="6.86584" y1="17.0035" x2="6.70298" y2="18.0922" gradientUnits="userSpaceOnUse">
      <stop stop-color="#FFDA45"/>
      <stop offset="0.3043" stop-color="#FFCE3E"/>
      <stop offset="0.8558" stop-color="#FFAE2B"/>
      <stop offset="1" stop-color="#FFA425"/>
    </linearGradient>
    <linearGradient id="paint23_linear_74_47652" x1="6.49109" y1="17.4429" x2="8.10705" y2="15.792" gradientUnits="userSpaceOnUse">
      <stop stop-color="#FFDA45" stop-opacity="0"/>
      <stop offset="1" stop-color="#B53759"/>
    </linearGradient>
    <linearGradient id="paint24_linear_74_47652" x1="8.88317" y1="19.0208" x2="7.79449" y2="19.1837" gradientUnits="userSpaceOnUse">
      <stop stop-color="#FFDA45"/>
      <stop offset="0.3043" stop-color="#FFCE3E"/>
      <stop offset="0.8558" stop-color="#FFAE2B"/>
      <stop offset="1" stop-color="#FFA425"/>
    </linearGradient>
    <linearGradient id="paint25_linear_74_47652" x1="8.444" y1="19.3958" x2="10.0949" y2="17.7798" gradientUnits="userSpaceOnUse">
      <stop stop-color="#FFDA45" stop-opacity="0"/>
      <stop offset="1" stop-color="#B53759"/>
    </linearGradient>
    <linearGradient id="paint26_linear_74_47652" x1="10.8715" y1="9.85996" x2="9.18207" y2="12.6839" gradientUnits="userSpaceOnUse">
      <stop stop-color="#FFDA45"/>
      <stop offset="0.3043" stop-color="#FFCE3E"/>
      <stop offset="0.8558" stop-color="#FFAE2B"/>
      <stop offset="1" stop-color="#FFA425"/>
    </linearGradient>
    <linearGradient id="paint27_linear_74_47652" x1="9.55231" y1="11.7025" x2="13.0253" y2="6.52678" gradientUnits="userSpaceOnUse">
      <stop stop-color="#FFDA45" stop-opacity="0"/>
      <stop offset="1" stop-color="#B53759"/>
    </linearGradient>
    <linearGradient id="paint28_linear_74_47652" x1="8.69157" y1="10.8052" x2="10.3698" y2="12.9099" gradientUnits="userSpaceOnUse">
      <stop stop-color="#F0DDFC" stop-opacity="0"/>
      <stop offset="0.2889" stop-color="#C8B7E0" stop-opacity="0.289"/>
      <stop offset="0.5915" stop-color="#A595C8" stop-opacity="0.592"/>
      <stop offset="0.8395" stop-color="#8F81B8" stop-opacity="0.84"/>
      <stop offset="1" stop-color="#8779B3"/>
    </linearGradient>
    <linearGradient id="paint29_linear_74_47652" x1="9.62859" y1="11.3339" x2="8.92705" y2="12.6367" gradientUnits="userSpaceOnUse">
      <stop stop-color="#FFDA45" stop-opacity="0"/>
      <stop offset="1" stop-color="#B53759"/>
    </linearGradient>
    <linearGradient id="paint30_linear_74_47652" x1="16.0262" y1="15.0145" x2="13.2023" y2="16.704" gradientUnits="userSpaceOnUse">
      <stop stop-color="#FFDA45"/>
      <stop offset="0.3043" stop-color="#FFCE3E"/>
      <stop offset="0.8558" stop-color="#FFAE2B"/>
      <stop offset="1" stop-color="#FFA425"/>
    </linearGradient>
    <linearGradient id="paint31_linear_74_47652" x1="14.5232" y1="16.1058" x2="19.6989" y2="12.6329" gradientUnits="userSpaceOnUse">
      <stop stop-color="#FFDA45" stop-opacity="0"/>
      <stop offset="1" stop-color="#B53759"/>
    </linearGradient>
    <linearGradient id="paint32_linear_74_47652" x1="15.2782" y1="17.3519" x2="13.1736" y2="15.6737" gradientUnits="userSpaceOnUse">
      <stop stop-color="#FFDA45" stop-opacity="0"/>
      <stop offset="1" stop-color="#B53759"/>
    </linearGradient>
    <linearGradient id="paint33_linear_74_47652" x1="14.5523" y1="16.2574" x2="13.2494" y2="16.959" gradientUnits="userSpaceOnUse">
      <stop stop-color="#FFDA45" stop-opacity="0"/>
      <stop offset="1" stop-color="#B53759"/>
    </linearGradient>
    <linearGradient id="paint34_linear_74_47652" x1="11.9525" y1="13.0093" x2="13.3808" y2="14.4376" gradientUnits="userSpaceOnUse">
      <stop stop-color="#E5F3FF"/>
      <stop offset="1" stop-color="#B3CCFF"/>
    </linearGradient>
    <linearGradient id="paint35_linear_74_47652" x1="12.9421" y1="13.942" x2="10.9098" y2="12.1274" gradientUnits="userSpaceOnUse">
      <stop stop-color="#E5F3FF" stop-opacity="0"/>
      <stop offset="1" stop-color="white"/>
    </linearGradient>
    <linearGradient id="paint36_linear_74_47652" x1="12.3128" y1="15.3078" x2="15.4753" y2="-6.76847" gradientUnits="userSpaceOnUse">
      <stop stop-color="#B3CCFF" stop-opacity="0"/>
      <stop offset="1" stop-color="#9FB0CB"/>
    </linearGradient>
    <linearGradient id="paint37_linear_74_47652" x1="15.6988" y1="8.886" x2="16.9427" y2="10.8405" gradientUnits="userSpaceOnUse">
      <stop stop-color="#8B788A"/>
      <stop offset="1" stop-color="#6E566E"/>
    </linearGradient>
    <linearGradient id="paint38_linear_74_47652" x1="16.3267" y1="9.86885" x2="15.9972" y2="8.72767" gradientUnits="userSpaceOnUse">
      <stop stop-color="#8B788A" stop-opacity="0"/>
      <stop offset="1" stop-color="#9E8C92"/>
    </linearGradient>
    <linearGradient id="paint39_linear_74_47652" x1="16.582" y1="10.1272" x2="17.3637" y2="8.1156" gradientUnits="userSpaceOnUse">
      <stop stop-color="#555A66" stop-opacity="0"/>
      <stop offset="1" stop-color="#555A66"/>
    </linearGradient>
    <linearGradient id="paint40_linear_74_47652" x1="8.43397" y1="17.3748" x2="8.60331" y2="17.5442" gradientUnits="userSpaceOnUse">
      <stop stop-color="#E5F3FF"/>
      <stop offset="1" stop-color="#B3CCFF"/>
    </linearGradient>
    <linearGradient id="paint41_linear_74_47652" x1="0" y1="11.2403" x2="21.3803" y2="11.2403" gradientUnits="userSpaceOnUse">
      <stop stop-color="#FF7044"/>
      <stop offset="1" stop-color="#F92814"/>
    </linearGradient>
    <linearGradient id="paint42_linear_74_47652" x1="7.73945" y1="3.64892" x2="8.46378" y2="4.3732" gradientUnits="userSpaceOnUse">
      <stop stop-color="#FF7044"/>
      <stop offset="1" stop-color="#F92814"/>
    </linearGradient>
    <linearGradient id="paint43_linear_74_47652" x1="4.00859" y1="8.28935" x2="4.79852" y2="9.07932" gradientUnits="userSpaceOnUse">
      <stop stop-color="#92F37F"/>
      <stop offset="1" stop-color="#4AB272"/>
    </linearGradient>
    <linearGradient id="paint44_linear_74_47652" x1="21.8113" y1="9.84351" x2="22.9446" y2="10.9768" gradientUnits="userSpaceOnUse">
      <stop stop-color="#92F37F"/>
      <stop offset="1" stop-color="#4AB272"/>
    </linearGradient>
    <clipPath id="clip0_74_47652">
      <rect width="24" height="24" fill="white"/>
    </clipPath>
  </defs>
</svg>