<svg width="24" height="24" viewBox="0 0 24 24" fill="none" xmlns="http://www.w3.org/2000/svg">
<path d="M23 9.77997C23 10.17 22.77 10.53 22.41 10.69L21 11.32L19.67 11.91L14.62 14.15C13.79 14.52 12.9 14.71 12 14.71C11.5 14.71 11.01 14.65 10.52 14.53C10.13 14.44 9.75 14.32 9.38 14.15L4.33 11.91L1.59 10.69C1.23 10.53 1 10.17 1 9.77997C1 9.37997 1.23 9.01997 1.59 8.85997L9.38 5.39997C11.04 4.65997 12.96 4.65997 14.62 5.39997L15.6 5.82997L22.41 8.85997C22.42 8.85997 22.42 8.86997 22.43 8.87997C22.48 8.89997 22.52 8.91997 22.56 8.94997C22.59 8.97997 22.63 8.99997 22.66 9.02997C22.7 9.04997 22.73 9.07997 22.75 9.11997C22.82 9.19997 22.88 9.28997 22.92 9.38997C22.95 9.44997 22.96 9.50997 22.98 9.56997C22.99 9.63997 23 9.70997 23 9.77997Z" fill="#944CF2"/>
<path d="M19.67 11.91V14.22C19.67 15.95 18.67 17.57 17.12 18.34C15.52 19.14 13.76 19.53 12 19.53C10.65 19.53 9.30002 19.3 8.02002 18.82C7.63002 18.69 7.25002 18.53 6.88002 18.34C5.33002 17.57 4.33002 15.95 4.33002 14.22V11.91L9.38002 14.15C9.75002 14.32 10.13 14.44 10.52 14.53C11.01 14.65 11.5 14.71 12 14.71C12.9 14.71 13.79 14.52 14.62 14.15L19.67 11.91Z" fill="#81CAFF"/>
<path d="M23 9.77997V17C23 17.55 22.55 18 22 18C21.45 18 21 17.55 21 17V11.32L22.41 10.69C22.77 10.53 23 10.17 23 9.77997Z" fill="#944CF2"/>
<path opacity="0.1" d="M23 9.77996V17C23 17.55 22.55 18 22 18C21.45 18 21 17.55 21 17V11.32L19.67 11.91V14.22C19.67 15.95 18.67 17.57 17.12 18.34C15.52 19.14 13.76 19.53 12 19.53C10.65 19.53 9.30002 19.3 8.02002 18.82L10.52 14.53L15.6 5.82996L22.41 8.85996C22.42 8.85996 22.42 8.86996 22.43 8.87996C22.48 8.89996 22.52 8.91996 22.56 8.94996C22.59 8.97996 22.63 8.99996 22.66 9.02996C22.7 9.04996 22.73 9.07996 22.75 9.11996C22.82 9.19996 22.88 9.28996 22.92 9.38996C22.95 9.44996 22.96 9.50996 22.98 9.56996C22.99 9.63996 23 9.70996 23 9.77996Z" fill="black"/>
</svg>
