<svg xmlns="http://www.w3.org/2000/svg" xmlns:xlink="http://www.w3.org/1999/xlink" width="1920" height="162" viewBox="0 0 1920 162">
  <defs>
    <clipPath id="clip-path">
      <rect id="Rectangle_3262" data-name="Rectangle 3262" width="1920" height="162" fill="#0024ff" stroke="rgba(0,0,0,0)" stroke-miterlimit="10" stroke-width="1"/>
    </clipPath>
  </defs>
  <g id="Up" clip-path="url(#clip-path)">
    <g id="Group_3634" data-name="Group 3634" transform="translate(0.09 -0.472)">
      <path id="Path_7214" data-name="Path 7214" d="M641.817,900.917l-12.377,4.468L639.5,913.87l10.056,8.48,2.321-12.948,2.316-12.953Z" transform="translate(-236.96 -735.271)" fill="#fff" stroke="rgba(0,0,0,0)" stroke-miterlimit="10" stroke-width="1"/>
      <path id="Path_7215" data-name="Path 7215" d="M104.018,892.1,89.49,901.891l15.744,7.685,15.739,7.68-1.216-17.47-1.216-17.475Z" transform="translate(-44.764 -729.893)" fill="#fff" stroke="rgba(0,0,0,0)" stroke-miterlimit="10" stroke-width="1"/>
      <path id="Path_7216" data-name="Path 7216" d="M361.463,889.234,346.93,882.29l1.256,16.059,1.256,16.059,13.278-9.115L376,896.178Z" transform="translate(-130.378 -738.445)" fill="#fff" stroke="rgba(0,0,0,0)" stroke-miterlimit="10" stroke-width="1"/>
      <path id="Path_7217" data-name="Path 7217" d="M896.58,899.347l-8.13-3.247,1.251,8.665,1.251,8.665,6.879-5.413,6.879-5.418Z" transform="translate(-335.674 -731.69)" fill="#fff" stroke="rgba(0,0,0,0)" stroke-miterlimit="10" stroke-width="1"/>
      <path id="Path_7218" data-name="Path 7218" d="M489.795,39.342,481.35,36.7l1.936,8.635,1.936,8.635,6.509-5.993,6.509-5.993Z" transform="translate(-181.835 127.713)" fill="#fff" stroke="rgba(0,0,0,0)" stroke-miterlimit="10" stroke-width="1"/>
      <path id="Path_7219" data-name="Path 7219" d="M363.842,24.509,351.91,31.453l11.977,6.859,11.977,6.864-.045-13.8-.045-13.8Z" transform="translate(-132.546 -12.568)" fill="#fff" stroke="rgba(0,0,0,0)" stroke-miterlimit="10" stroke-width="1"/>
      <path id="Path_7220" data-name="Path 7220" d="M760.753,15.645,746.45,7.67l.245,16.375.245,16.375L761,32.019l14.058-8.4Z" transform="translate(-280.526 0.334)" fill="#fff" stroke="rgba(0,0,0,0)" stroke-miterlimit="10" stroke-width="1"/>
      <path id="Path_7221" data-name="Path 7221" d="M551.606,11.235l-9.616.18,4.963,8.235,4.958,8.24,4.653-8.415,4.653-8.415Z" transform="translate(-204.533 30.781)" fill="#fff" stroke="rgba(0,0,0,0)" stroke-miterlimit="10" stroke-width="1"/>
      <path id="Path_7222" data-name="Path 7222" d="M820.133,27.176l-5,1.411,3.722,3.627,3.717,3.627L823.85,30.8l1.286-5.033Z" transform="translate(-308.788 37.191)" fill="#fff" stroke="rgba(0,0,0,0)" stroke-miterlimit="10" stroke-width="1"/>
      <path id="Path_7223" data-name="Path 7223" d="M1417.678,13.817l-5.1-3.587-.555,6.214-.56,6.214,5.663-2.627,5.658-2.627Z" transform="translate(-543.308 71.313)" fill="#fff" stroke="rgba(0,0,0,0)" stroke-miterlimit="10" stroke-width="1"/>
      <path id="Path_7224" data-name="Path 7224" d="M498.312,52.411,486.32,63.458l15.564,4.858,15.559,4.858-3.572-15.9L510.3,41.36Z" transform="translate(-182.578 113.576)" fill="#fff" stroke="rgba(0,0,0,0)" stroke-miterlimit="10" stroke-width="1"/>
      <path id="Path_7225" data-name="Path 7225" d="M674.578,71.682l-3.852-3.392-1.011,5.028-1.006,5.028,4.858-1.636,4.858-1.641Z" transform="translate(-253.36 64.075)" fill="#fff" stroke="rgba(0,0,0,0)" stroke-miterlimit="10" stroke-width="1"/>
      <path id="Path_7226" data-name="Path 7226" d="M555.093,32.56,540.93,32.1l6.684,12.492L554.3,57.085l7.474-12.032,7.479-12.037Z" transform="translate(-203.327 125.544)" fill="#fff" stroke="rgba(0,0,0,0)" stroke-miterlimit="10" stroke-width="1"/>
      <path id="Path_7227" data-name="Path 7227" d="M440.2,85.626l-12.392-1.4L432.8,95.662l4.983,11.432,7.409-10.036,7.4-10.031Z" transform="translate(-161.066 72.318)" fill="#fff" stroke="rgba(0,0,0,0)" stroke-miterlimit="10" stroke-width="1"/>
      <path id="Path_7228" data-name="Path 7228" d="M341.295,41.915l-7.955.025,4,6.874,4,6.874,3.957-6.9,3.952-6.9Z" transform="translate(-125.99 122.696)" fill="#fff" stroke="rgba(0,0,0,0)" stroke-miterlimit="10" stroke-width="1"/>
      <path id="Path_7229" data-name="Path 7229" d="M903,5.37l-5.888-.8,2.251,5.5,2.251,5.5,3.637-4.7,3.642-4.7Z" transform="translate(-339.587 54.141)" fill="#fff" stroke="rgba(0,0,0,0)" stroke-miterlimit="10" stroke-width="1"/>
      <path id="Path_7230" data-name="Path 7230" d="M385.213,125.25l-5.863.25,3.147,4.953,3.152,4.953,2.717-5.2,2.717-5.2Z" transform="translate(-143.626 18.029)" fill="#fff" stroke="rgba(0,0,0,0)" stroke-miterlimit="10" stroke-width="1"/>
      <path id="Path_7231" data-name="Path 7231" d="M891.885,45.11l-9.516,8.585,12.192,3.947,12.187,3.952-2.672-12.532L901.4,36.53Z" transform="translate(-332.214 124.294)" fill="#fff" stroke="rgba(0,0,0,0)" stroke-miterlimit="10" stroke-width="1"/>
      <path id="Path_7232" data-name="Path 7232" d="M1441.168,30.571l-14.3,10.566,16.3,7.1,16.3,7.1-2-17.67-2-17.67Z" transform="translate(-521.009 59.326)" fill="#fff" stroke="rgba(0,0,0,0)" stroke-miterlimit="10" stroke-width="1"/>
      <path id="Path_7233" data-name="Path 7233" d="M925.29,24.558l-4.713-4.648-1.666,6.4-1.671,6.4,6.384-1.756L930,29.2Z" transform="translate(-347.063 45.578)" fill="#fff" stroke="rgba(0,0,0,0)" stroke-miterlimit="10" stroke-width="1"/>
      <path id="Path_7234" data-name="Path 7234" d="M20.513,16.955,15.39,16.84l2.466,4.493,2.461,4.493,2.662-4.378,2.657-4.383Z" transform="translate(-7.735 -4.833)" fill="#fff" stroke="rgba(0,0,0,0)" stroke-miterlimit="10" stroke-width="1"/>
      <path id="Path_7235" data-name="Path 7235" d="M592.938,14.587l-4.513-2.9-.25,5.358L587.92,22.4l4.763-2.456,4.768-2.456Z" transform="translate(-222.773 -1.184)" fill="#fff" stroke="rgba(0,0,0,0)" stroke-miterlimit="10" stroke-width="1"/>
      <path id="Path_7236" data-name="Path 7236" d="M265.109,16.076,258,18.017l5.238,5.183,5.233,5.183,1.871-7.124,1.871-7.129Z" transform="translate(-128.97 24.415)" fill="#fff" stroke="rgba(0,0,0,0)" stroke-miterlimit="10" stroke-width="1"/>
      <path id="Path_7237" data-name="Path 7237" d="M326.187,79,314.31,80.091l6.884,9.741,6.879,9.736,4.993-10.826,4.993-10.831Z" transform="translate(-118.4 80.689)" fill="#fff" stroke="rgba(0,0,0,0)" stroke-miterlimit="10" stroke-width="1"/>
      <path id="Path_7238" data-name="Path 7238" d="M518.312,24.907l-4.292,2.927,4.683,2.251,4.678,2.251-.39-5.178-.39-5.178Z" transform="translate(-194.79 86.684)" fill="#fff" stroke="rgba(0,0,0,0)" stroke-miterlimit="10" stroke-width="1"/>
      <path id="Path_7239" data-name="Path 7239" d="M414.027,48.573,401.58,44l2.261,13.068,2.266,13.063,10.181-8.495,10.181-8.49Z" transform="translate(-151.187 106.034)" fill="#fff" stroke="rgba(0,0,0,0)" stroke-miterlimit="10" stroke-width="1"/>
      <path id="Path_7240" data-name="Path 7240" d="M709.8,136.781l-4.453-1.4,1.011,4.558,1.011,4.558,3.442-3.157,3.442-3.152Z" transform="translate(-267.33 -13.17)" fill="#fff" stroke="rgba(0,0,0,0)" stroke-miterlimit="10" stroke-width="1"/>
      <path id="Path_7241" data-name="Path 7241" d="M589.293,83.21,575.02,75.13l.14,16.4.135,16.4,14.138-8.32,14.133-8.32Z" transform="translate(-216.116 73.434)" fill="#fff" stroke="rgba(0,0,0,0)" stroke-miterlimit="10" stroke-width="1"/>
      <path id="Path_7242" data-name="Path 7242" d="M165.478,42.355l-5.908.355,3.262,4.943,3.262,4.943,2.647-5.3,2.652-5.3Z" transform="translate(-79.784 92.733)" fill="#fff" stroke="rgba(0,0,0,0)" stroke-miterlimit="10" stroke-width="1"/>
      <path id="Path_7243" data-name="Path 7243" d="M962.484,42.391l-6.594,2.421,5.393,4.5,5.4,4.5,1.2-6.924,1.2-6.924Z" transform="translate(-361.62 121.802)" fill="#fff" stroke="rgba(0,0,0,0)" stroke-miterlimit="10" stroke-width="1"/>
      <path id="Path_7244" data-name="Path 7244" d="M1355.475,58.627l-9.405-3.907,1.321,10.1,1.316,10.1,8.085-6.189,8.085-6.189Z" transform="translate(-487.632 69.838)" fill="#fff" stroke="rgba(0,0,0,0)" stroke-miterlimit="10" stroke-width="1"/>
      <path id="Path_7245" data-name="Path 7245" d="M1291.609,54.85l-16.379-7.86,1.386,18.116L1278,83.221,1293,72.965l14.994-10.256Z" transform="translate(-452.233 103.79)" fill="#fff" stroke="rgba(0,0,0,0)" stroke-miterlimit="10" stroke-width="1"/>
      <path id="Path_7246" data-name="Path 7246" d="M1423.438,46.311l-5.838,1.706,4.4,4.2,4.4,4.207,1.441-5.913,1.441-5.913Z" transform="translate(-523.376 91.278)" fill="#fff" stroke="rgba(0,0,0,0)" stroke-miterlimit="10" stroke-width="1"/>
      <path id="Path_7247" data-name="Path 7247" d="M1066.508,10.082,1060.52,6.6l-.02,6.929-.02,6.924,6.009-3.442,6.008-3.447Z" transform="translate(-401.38 29.42)" fill="#fff" stroke="rgba(0,0,0,0)" stroke-miterlimit="10" stroke-width="1"/>
      <path id="Path_7248" data-name="Path 7248" d="M1044.114,19.669l-15.294,6.359L1041.972,36.1l13.158,10.066,2.141-16.425,2.141-16.43Z" transform="translate(-386.288 -8.808)" fill="#fff" stroke="rgba(0,0,0,0)" stroke-miterlimit="10" stroke-width="1"/>
      <path id="Path_7249" data-name="Path 7249" d="M641.053,27.026,635.29,24.74l.9,6.134.906,6.134,4.858-3.847,4.863-3.852Z" transform="translate(-240.518 60.627)" fill="#fff" stroke="rgba(0,0,0,0)" stroke-miterlimit="10" stroke-width="1"/>
      <path id="Path_7250" data-name="Path 7250" d="M41.565,99.3,32.19,95.94l1.781,9.8,1.781,9.8,7.6-6.444,7.594-6.449Z" transform="translate(-16.131 72.352)" fill="#fff" stroke="rgba(0,0,0,0)" stroke-miterlimit="10" stroke-width="1"/>
      <path id="Path_7251" data-name="Path 7251" d="M736,83.766,726.63,81.74l2.927,9.13L732.483,100l6.444-7.1,6.439-7.1Z" transform="translate(-274.253 77.419)" fill="#fff" stroke="rgba(0,0,0,0)" stroke-miterlimit="10" stroke-width="1"/>
      <path id="Path_7252" data-name="Path 7252" d="M869.031,79.791,857.62,80.976l6.734,9.29,6.734,9.29,4.678-10.476L880.448,78.6Z" transform="translate(-323.114 80.432)" fill="#fff" stroke="rgba(0,0,0,0)" stroke-miterlimit="10" stroke-width="1"/>
      <path id="Path_7253" data-name="Path 7253" d="M1104.688,13.748,1091.51,8.58l2.116,14,2.111,13.993,11.066-8.83,11.061-8.825Z" transform="translate(-410.59 61.303)" fill="#fff" stroke="rgba(0,0,0,0)" stroke-miterlimit="10" stroke-width="1"/>
      <path id="Path_7254" data-name="Path 7254" d="M12.607,38.82.09,47.765l14,6.369,14,6.369L26.61,45.189,25.125,29.88Z" transform="translate(-0.09 68.913)" fill="#fff" stroke="rgba(0,0,0,0)" stroke-miterlimit="10" stroke-width="1"/>
      <path id="Path_7255" data-name="Path 7255" d="M1166.1,20.806l-15.334,2.481,9.816,12.037,9.811,12.042,5.523-14.518,5.518-14.518Z" transform="translate(-432.056 52.362)" fill="#fff" stroke="rgba(0,0,0,0)" stroke-miterlimit="10" stroke-width="1"/>
      <path id="Path_7256" data-name="Path 7256" d="M249.334,54.36l-6.984-.27,3.262,6.184,3.257,6.184,3.727-5.913,3.727-5.918Z" transform="translate(-121.15 79.441)" fill="#fff" stroke="rgba(0,0,0,0)" stroke-miterlimit="10" stroke-width="1"/>
      <path id="Path_7257" data-name="Path 7257" d="M369.149,8.714l-6.569,6.129,8.6,2.622,8.595,2.622-2.026-8.75L375.718,2.58Z" transform="translate(-136.962 67.974)" fill="#fff" stroke="rgba(0,0,0,0)" stroke-miterlimit="10" stroke-width="1"/>
      <path id="Path_7258" data-name="Path 7258" d="M1497.434,68.266,1481.95,66.52l6.234,14.278,6.229,14.283,9.255-12.537,9.25-12.537Z" transform="translate(-555.533 84.999)" fill="#fff" stroke="rgba(0,0,0,0)" stroke-miterlimit="10" stroke-width="1"/>
      <path id="Path_7259" data-name="Path 7259" d="M435.788,1.816,430.51,3.632l4.207,3.662,4.212,3.662L440,5.478,441.066,0Z" transform="translate(-163.07 51.645)" fill="#fff" stroke="rgba(0,0,0,0)" stroke-miterlimit="10" stroke-width="1"/>
      <path id="Path_7260" data-name="Path 7260" d="M1414.838,68.4,1401.23,65.65l4.418,13.158,4.417,13.163,9.19-10.406,9.185-10.411Z" transform="translate(-515.196 57.367)" fill="#fff" stroke="rgba(0,0,0,0)" stroke-miterlimit="10" stroke-width="1"/>
      <path id="Path_7261" data-name="Path 7261" d="M943.779,64.091,928.2,62.62l6.514,14.228,6.514,14.228,9.065-12.757,9.065-12.752Z" transform="translate(-348.425 48.811)" fill="#fff" stroke="rgba(0,0,0,0)" stroke-miterlimit="10" stroke-width="1"/>
      <path id="Path_7262" data-name="Path 7262" d="M1251.639,35l-16.18-7.4,1.671,17.715,1.676,17.72,14.508-10.311,14.508-10.311Z" transform="translate(-455.669 33.794)" fill="#fff" stroke="rgba(0,0,0,0)" stroke-miterlimit="10" stroke-width="1"/>
      <path id="Path_7263" data-name="Path 7263" d="M1024.169,67.7l-7-2.747,1.121,7.429,1.121,7.434,5.874-4.688,5.878-4.683Z" transform="translate(-384.669 59.357)" fill="#fff" stroke="rgba(0,0,0,0)" stroke-miterlimit="10" stroke-width="1"/>
      <path id="Path_7264" data-name="Path 7264" d="M590.752,30.838l-11.9,4.753,10.071,7.93,10.071,7.93,1.831-12.682,1.831-12.687Z" transform="translate(-218.008 16.571)" fill="#fff" stroke="rgba(0,0,0,0)" stroke-miterlimit="10" stroke-width="1"/>
      <path id="Path_7265" data-name="Path 7265" d="M1172.077,62.139l-11.4-6.169.35,12.953.355,12.953,11.042-6.784,11.041-6.779Z" transform="translate(-437.287 59.1)" fill="#fff" stroke="rgba(0,0,0,0)" stroke-miterlimit="10" stroke-width="1"/>
      <path id="Path_7266" data-name="Path 7266" d="M1217.26,123.977l-8.85-2.837,1.971,9.08,1.967,9.08,6.879-6.244,6.879-6.244Z" transform="translate(-456.266 47.631)" fill="#fff" stroke="rgba(0,0,0,0)" stroke-miterlimit="10" stroke-width="1"/>
      <path id="Path_7267" data-name="Path 7267" d="M451.63,25.293l-16.9-4.623,4.448,16.95,4.448,16.95,12.452-12.327,12.457-12.327Z" transform="translate(-163.019 77.701)" fill="#fff" stroke="rgba(0,0,0,0)" stroke-miterlimit="10" stroke-width="1"/>
      <path id="Path_7268" data-name="Path 7268" d="M200.07,56.545l-7.94.8,4.663,6.474,4.663,6.479,3.277-7.274,3.277-7.274Z" transform="translate(-96.054 61.486)" fill="#fff" stroke="rgba(0,0,0,0)" stroke-miterlimit="10" stroke-width="1"/>
      <path id="Path_7269" data-name="Path 7269" d="M693.692,27.29l-11.872,9.3L695.8,42.219l13.983,5.633-2.111-14.929L705.559,18Z" transform="translate(-256.313 28.163)" fill="#fff" stroke="rgba(0,0,0,0)" stroke-miterlimit="10" stroke-width="1"/>
      <path id="Path_7270" data-name="Path 7270" d="M118.948,50l-5.868.976,3.777,4.6,3.782,4.6,2.091-5.573,2.091-5.573Z" transform="translate(-56.552 114.892)" fill="#fff" stroke="rgba(0,0,0,0)" stroke-miterlimit="10" stroke-width="1"/>
      <path id="Path_7271" data-name="Path 7271" d="M809.757,42.742,796.79,55.335l17.39,4.933L831.57,65.2l-4.423-17.525L822.725,30.15Z" transform="translate(-298.618 115.897)" fill="#fff" stroke="rgba(0,0,0,0)" stroke-miterlimit="10" stroke-width="1"/>
      <path id="Path_7272" data-name="Path 7272" d="M1105.964,126.567l-7.474,2.982,6.319,4.978,6.313,4.983,1.156-7.96,1.156-7.96Z" transform="translate(-415.252 43.297)" fill="#fff" stroke="rgba(0,0,0,0)" stroke-miterlimit="10" stroke-width="1"/>
      <path id="Path_7273" data-name="Path 7273" d="M778.3,65l-5.253,3.762,5.883,2.667,5.883,2.667-.63-6.429-.63-6.424Z" transform="translate(-292.634 51.695)" fill="#fff" stroke="rgba(0,0,0,0)" stroke-miterlimit="10" stroke-width="1"/>
      <path id="Path_7274" data-name="Path 7274" d="M1220.027,51.164,1208.41,44.47l.01,13.408,0,13.408,11.607-6.714,11.612-6.709Z" transform="translate(-455.179 109.509)" fill="#fff" stroke="rgba(0,0,0,0)" stroke-miterlimit="10" stroke-width="1"/>
      <path id="Path_7275" data-name="Path 7275" d="M1052.615,70.4l-9.105,7.424,10.981,4.177,10.986,4.177-1.876-11.6-1.876-11.6Z" transform="translate(-393.287 57.578)" fill="#fff" stroke="rgba(0,0,0,0)" stroke-miterlimit="10" stroke-width="1"/>
      <path id="Path_7276" data-name="Path 7276" d="M1122.672,54.5,1109.93,53.19l5.238,11.687,5.243,11.692,7.5-10.386,7.5-10.381Z" transform="translate(-417.677 102.537)" fill="#fff" stroke="rgba(0,0,0,0)" stroke-miterlimit="10" stroke-width="1"/>
      <path id="Path_7277" data-name="Path 7277" d="M145.254,10.711l-7.514,1.1,4.708,5.958,4.7,5.958,2.807-7.059,2.807-7.054Z" transform="translate(-68.875 68.596)" fill="#fff" stroke="rgba(0,0,0,0)" stroke-miterlimit="10" stroke-width="1"/>
      <path id="Path_7278" data-name="Path 7278" d="M56.475,18.161,38.41,16.94l7.975,16.254,7.97,16.254L64.445,34.415,74.536,19.386Z" transform="translate(-19.239 -16.94)" fill="#fff" stroke="rgba(0,0,0,0)" stroke-miterlimit="10" stroke-width="1"/>
      <path id="Path_7279" data-name="Path 7279" d="M287.494,38.619,272.6,31.09l.926,16.665.926,16.665,13.968-9.135,13.968-9.135Z" transform="translate(-102.422 116.661)" fill="#fff" stroke="rgba(0,0,0,0)" stroke-miterlimit="10" stroke-width="1"/>
      <path id="Path_7280" data-name="Path 7280" d="M103.732,66.781,90.99,69.2l8.465,9.826,8.47,9.826L112.2,76.607l4.277-12.247Z" transform="translate(-45.514 62.866)" fill="#fff" stroke="rgba(0,0,0,0)" stroke-miterlimit="10" stroke-width="1"/>
      <path id="Path_7281" data-name="Path 7281" d="M1220.974,21.066l-7.784,1.866,5.508,5.813,5.508,5.808,2.281-7.674,2.276-7.679Z" transform="translate(-458.484 62.235)" fill="#fff" stroke="rgba(0,0,0,0)" stroke-miterlimit="10" stroke-width="1"/>
      <path id="Path_7282" data-name="Path 7282" d="M992.478,16.185l-13.208.79,7.289,11.036,7.289,11.041,5.913-11.832,5.919-11.832Z" transform="translate(-368.365 -5.885)" fill="#fff" stroke="rgba(0,0,0,0)" stroke-miterlimit="10" stroke-width="1"/>
      <path id="Path_7283" data-name="Path 7283" d="M634.988,99.441l-4.528,1.391,3.467,3.222,3.467,3.222,1.061-4.613,1.056-4.613Z" transform="translate(-238.937 69.581)" fill="#fff" stroke="rgba(0,0,0,0)" stroke-miterlimit="10" stroke-width="1"/>
      <path id="Path_7284" data-name="Path 7284" d="M1029.2,17.945l-7.374-.485,3.267,6.629,3.272,6.629,4.1-6.144,4.107-6.144Z" transform="translate(-386.308 13.608)" fill="#fff" stroke="rgba(0,0,0,0)" stroke-miterlimit="10" stroke-width="1"/>
      <path id="Path_7285" data-name="Path 7285" d="M209.352,14.539,197.26,20.592l11.287,7.444,11.287,7.449.805-13.5.805-13.5Z" transform="translate(-98.618 44.38)" fill="#fff" stroke="rgba(0,0,0,0)" stroke-miterlimit="10" stroke-width="1"/>
      <path id="Path_7286" data-name="Path 7286" d="M641.817,900.917l-12.377,4.468L639.5,913.87l10.056,8.48,2.321-12.948,2.316-12.953Z" transform="translate(723.438 -735.271)" fill="#fff" stroke="rgba(0,0,0,0)" stroke-miterlimit="10" stroke-width="1"/>
      <path id="Path_7287" data-name="Path 7287" d="M104.018,892.1,89.49,901.891l15.744,7.685,15.739,7.68-1.216-17.47-1.216-17.475Z" transform="translate(915.634 -729.893)" fill="#fff" stroke="rgba(0,0,0,0)" stroke-miterlimit="10" stroke-width="1"/>
      <path id="Path_7288" data-name="Path 7288" d="M361.463,889.234,346.93,882.29l1.256,16.059,1.256,16.059,13.278-9.115L376,896.178Z" transform="translate(830.02 -738.445)" fill="#fff" stroke="rgba(0,0,0,0)" stroke-miterlimit="10" stroke-width="1"/>
      <path id="Path_7289" data-name="Path 7289" d="M896.58,899.347l-8.13-3.247,1.251,8.665,1.251,8.665,6.879-5.413,6.879-5.418Z" transform="translate(624.724 -731.69)" fill="#fff" stroke="rgba(0,0,0,0)" stroke-miterlimit="10" stroke-width="1"/>
      <path id="Path_7290" data-name="Path 7290" d="M489.795,39.342,481.35,36.7l1.936,8.635,1.936,8.635,6.509-5.993,6.509-5.993Z" transform="translate(778.563 127.713)" fill="#fff" stroke="rgba(0,0,0,0)" stroke-miterlimit="10" stroke-width="1"/>
      <path id="Path_7291" data-name="Path 7291" d="M760.753,15.645,746.45,7.67l.245,16.375.245,16.375L761,32.019l14.058-8.4Z" transform="translate(679.872 0.334)" fill="#fff" stroke="rgba(0,0,0,0)" stroke-miterlimit="10" stroke-width="1"/>
      <path id="Path_7292" data-name="Path 7292" d="M551.606,11.235l-9.616.18,4.963,8.235,4.958,8.24,4.653-8.415,4.653-8.415Z" transform="translate(743.865 26.781)" fill="#fff" stroke="rgba(0,0,0,0)" stroke-miterlimit="10" stroke-width="1"/>
      <path id="Path_7293" data-name="Path 7293" d="M820.133,27.176l-5,1.411,3.722,3.627,3.717,3.627L823.85,30.8l1.286-5.033Z" transform="translate(651.61 37.191)" fill="#fff" stroke="rgba(0,0,0,0)" stroke-miterlimit="10" stroke-width="1"/>
      <path id="Path_7294" data-name="Path 7294" d="M1417.678,13.817l-5.1-3.587-.555,6.214-.56,6.214,5.663-2.627,5.658-2.627Z" transform="translate(440.09 50.313)" fill="#fff" stroke="rgba(0,0,0,0)" stroke-miterlimit="10" stroke-width="1"/>
      <path id="Path_7295" data-name="Path 7295" d="M498.312,52.411,486.32,63.458l15.564,4.858,15.559,4.858-3.572-15.9L510.3,41.36Z" transform="translate(777.821 113.576)" fill="#fff" stroke="rgba(0,0,0,0)" stroke-miterlimit="10" stroke-width="1"/>
      <path id="Path_7296" data-name="Path 7296" d="M674.578,71.682l-3.852-3.392-1.011,5.028-1.006,5.028,4.858-1.636,4.858-1.641Z" transform="translate(707.039 64.075)" fill="#fff" stroke="rgba(0,0,0,0)" stroke-miterlimit="10" stroke-width="1"/>
      <path id="Path_7297" data-name="Path 7297" d="M555.093,32.56,540.93,32.1l6.684,12.492L554.3,57.085l7.474-12.032,7.479-12.037Z" transform="translate(757.071 125.544)" fill="#fff" stroke="rgba(0,0,0,0)" stroke-miterlimit="10" stroke-width="1"/>
      <path id="Path_7298" data-name="Path 7298" d="M1365.446,26.575l-9.916,8.62,12.427,4.272,12.422,4.277-2.511-12.9-2.511-12.9Z" transform="translate(468.039 -6.444)" fill="#fff" stroke="rgba(0,0,0,0)" stroke-miterlimit="10" stroke-width="1"/>
      <path id="Path_7299" data-name="Path 7299" d="M440.2,85.626l-12.392-1.4L432.8,95.662l4.983,11.432,7.409-10.036,7.4-10.031Z" transform="translate(799.332 72.318)" fill="#fff" stroke="rgba(0,0,0,0)" stroke-miterlimit="10" stroke-width="1"/>
      <path id="Path_7300" data-name="Path 7300" d="M341.295,41.915l-7.955.025,4,6.874,4,6.874,3.957-6.9,3.952-6.9Z" transform="translate(834.409 122.696)" fill="#fff" stroke="rgba(0,0,0,0)" stroke-miterlimit="10" stroke-width="1"/>
      <path id="Path_7301" data-name="Path 7301" d="M903,5.37l-5.888-.8,2.251,5.5,2.251,5.5,3.637-4.7,3.642-4.7Z" transform="translate(620.811 54.141)" fill="#fff" stroke="rgba(0,0,0,0)" stroke-miterlimit="10" stroke-width="1"/>
      <path id="Path_7302" data-name="Path 7302" d="M385.213,125.25l-5.863.25,3.147,4.953,3.152,4.953,2.717-5.2,2.717-5.2Z" transform="translate(816.772 18.029)" fill="#fff" stroke="rgba(0,0,0,0)" stroke-miterlimit="10" stroke-width="1"/>
      <path id="Path_7303" data-name="Path 7303" d="M891.885,45.11l-9.516,8.585,12.192,3.947,12.187,3.952-2.672-12.532L901.4,36.53Z" transform="translate(628.184 124.294)" fill="#fff" stroke="rgba(0,0,0,0)" stroke-miterlimit="10" stroke-width="1"/>
      <path id="Path_7304" data-name="Path 7304" d="M1441.168,30.571l-14.3,10.566,16.3,7.1,16.3,7.1-2-17.67-2-17.67Z" transform="translate(432.389 38.326)" fill="#fff" stroke="rgba(0,0,0,0)" stroke-miterlimit="10" stroke-width="1"/>
      <path id="Path_7305" data-name="Path 7305" d="M925.29,24.558l-4.713-4.648-1.666,6.4-1.671,6.4,6.384-1.756L930,29.2Z" transform="translate(613.335 45.578)" fill="#fff" stroke="rgba(0,0,0,0)" stroke-miterlimit="10" stroke-width="1"/>
      <path id="Path_7306" data-name="Path 7306" d="M592.938,14.587l-4.513-2.9-.25,5.358L587.92,22.4l4.763-2.456,4.768-2.456Z" transform="translate(737.625 -1.184)" fill="#fff" stroke="rgba(0,0,0,0)" stroke-miterlimit="10" stroke-width="1"/>
      <path id="Path_7307" data-name="Path 7307" d="M326.187,79,314.31,80.091l6.884,9.741,6.879,9.736,4.993-10.826,4.993-10.831Z" transform="translate(841.999 80.689)" fill="#fff" stroke="rgba(0,0,0,0)" stroke-miterlimit="10" stroke-width="1"/>
      <path id="Path_7308" data-name="Path 7308" d="M518.312,24.907l-4.292,2.927,4.683,2.251,4.678,2.251-.39-5.178-.39-5.178Z" transform="translate(765.608 86.684)" fill="#fff" stroke="rgba(0,0,0,0)" stroke-miterlimit="10" stroke-width="1"/>
      <path id="Path_7309" data-name="Path 7309" d="M414.027,48.573,401.58,44l2.261,13.068,2.266,13.063,10.181-8.495,10.181-8.49Z" transform="translate(809.211 106.034)" fill="#fff" stroke="rgba(0,0,0,0)" stroke-miterlimit="10" stroke-width="1"/>
      <path id="Path_7310" data-name="Path 7310" d="M709.8,136.781l-4.453-1.4,1.011,4.558,1.011,4.558,3.442-3.157,3.442-3.152Z" transform="translate(693.068 -13.17)" fill="#fff" stroke="rgba(0,0,0,0)" stroke-miterlimit="10" stroke-width="1"/>
      <path id="Path_7311" data-name="Path 7311" d="M589.293,83.21,575.02,75.13l.14,16.4.135,16.4,14.138-8.32,14.133-8.32Z" transform="translate(744.282 73.434)" fill="#fff" stroke="rgba(0,0,0,0)" stroke-miterlimit="10" stroke-width="1"/>
      <path id="Path_7312" data-name="Path 7312" d="M165.478,42.355l-5.908.355,3.262,4.943,3.262,4.943,2.647-5.3,2.652-5.3Z" transform="translate(880.614 92.733)" fill="#fff" stroke="rgba(0,0,0,0)" stroke-miterlimit="10" stroke-width="1"/>
      <path id="Path_7313" data-name="Path 7313" d="M1519.356,21.893,1509.1,17.17l1.041,11.247,1.036,11.242,9.22-6.524,9.215-6.519Z" transform="translate(391.298 -5.664)" fill="#fff" stroke="rgba(0,0,0,0)" stroke-miterlimit="10" stroke-width="1"/>
      <path id="Path_7314" data-name="Path 7314" d="M962.484,42.391l-6.594,2.421,5.393,4.5,5.4,4.5,1.2-6.924,1.2-6.924Z" transform="translate(598.779 121.802)" fill="#fff" stroke="rgba(0,0,0,0)" stroke-miterlimit="10" stroke-width="1"/>
      <path id="Path_7315" data-name="Path 7315" d="M1355.475,58.627l-9.405-3.907,1.321,10.1,1.316,10.1,8.085-6.189,8.085-6.189Z" transform="translate(472.766 69.838)" fill="#fff" stroke="rgba(0,0,0,0)" stroke-miterlimit="10" stroke-width="1"/>
      <path id="Path_7316" data-name="Path 7316" d="M1291.609,54.85l-16.379-7.86,1.386,18.116L1278,83.221,1293,72.965l14.994-10.256Z" transform="translate(508.165 103.79)" fill="#fff" stroke="rgba(0,0,0,0)" stroke-miterlimit="10" stroke-width="1"/>
      <path id="Path_7317" data-name="Path 7317" d="M1423.438,46.311l-5.838,1.706,4.4,4.2,4.4,4.207,1.441-5.913,1.441-5.913Z" transform="translate(437.021 91.278)" fill="#fff" stroke="rgba(0,0,0,0)" stroke-miterlimit="10" stroke-width="1"/>
      <path id="Path_7318" data-name="Path 7318" d="M1066.508,10.082,1060.52,6.6l-.02,6.929-.02,6.924,6.009-3.442,6.008-3.447Z" transform="translate(559.018 29.42)" fill="#fff" stroke="rgba(0,0,0,0)" stroke-miterlimit="10" stroke-width="1"/>
      <path id="Path_7319" data-name="Path 7319" d="M1044.114,19.669l-15.294,6.359L1041.972,36.1l13.158,10.066,2.141-16.425,2.141-16.43Z" transform="translate(574.111 -8.808)" fill="#fff" stroke="rgba(0,0,0,0)" stroke-miterlimit="10" stroke-width="1"/>
      <path id="Path_7320" data-name="Path 7320" d="M641.053,27.026,635.29,24.74l.9,6.134.906,6.134,4.858-3.847,4.863-3.852Z" transform="translate(719.88 60.627)" fill="#fff" stroke="rgba(0,0,0,0)" stroke-miterlimit="10" stroke-width="1"/>
      <path id="Path_7321" data-name="Path 7321" d="M41.565,99.3,32.19,95.94l1.781,9.8,1.781,9.8,7.6-6.444,7.594-6.449Z" transform="translate(944.267 72.352)" fill="#fff" stroke="rgba(0,0,0,0)" stroke-miterlimit="10" stroke-width="1"/>
      <path id="Path_7322" data-name="Path 7322" d="M736,83.766,726.63,81.74l2.927,9.13L732.483,100l6.444-7.1,6.439-7.1Z" transform="translate(686.144 77.419)" fill="#fff" stroke="rgba(0,0,0,0)" stroke-miterlimit="10" stroke-width="1"/>
      <path id="Path_7323" data-name="Path 7323" d="M869.031,79.791,857.62,80.976l6.734,9.29,6.734,9.29,4.678-10.476L880.448,78.6Z" transform="translate(637.284 80.432)" fill="#fff" stroke="rgba(0,0,0,0)" stroke-miterlimit="10" stroke-width="1"/>
      <path id="Path_7324" data-name="Path 7324" d="M1104.688,13.748,1091.51,8.58l2.116,14,2.111,13.993,11.066-8.83,11.061-8.825Z" transform="translate(549.808 61.303)" fill="#fff" stroke="rgba(0,0,0,0)" stroke-miterlimit="10" stroke-width="1"/>
      <path id="Path_7325" data-name="Path 7325" d="M1456.129,3.257,1440.41,6.033l10.266,12.227,10.266,12.227,5.453-15,5.458-15Z" transform="translate(425.623 55.575)" fill="#fff" stroke="rgba(0,0,0,0)" stroke-miterlimit="10" stroke-width="1"/>
      <path id="Path_7326" data-name="Path 7326" d="M12.607,38.82.09,47.765l14,6.369,14,6.369L26.61,45.189,25.125,29.88Z" transform="translate(960.308 68.913)" fill="#fff" stroke="rgba(0,0,0,0)" stroke-miterlimit="10" stroke-width="1"/>
      <path id="Path_7327" data-name="Path 7327" d="M1166.1,20.806l-15.334,2.481,9.816,12.037,9.811,12.042,5.523-14.518,5.518-14.518Z" transform="translate(528.342 52.362)" fill="#fff" stroke="rgba(0,0,0,0)" stroke-miterlimit="10" stroke-width="1"/>
      <path id="Path_7328" data-name="Path 7328" d="M249.334,54.36l-6.984-.27,3.262,6.184,3.257,6.184,3.727-5.913,3.727-5.918Z" transform="translate(839.249 79.441)" fill="#fff" stroke="rgba(0,0,0,0)" stroke-miterlimit="10" stroke-width="1"/>
      <path id="Path_7329" data-name="Path 7329" d="M369.149,8.714l-6.569,6.129,8.6,2.622,8.595,2.622-2.026-8.75L375.718,2.58Z" transform="translate(823.436 67.974)" fill="#fff" stroke="rgba(0,0,0,0)" stroke-miterlimit="10" stroke-width="1"/>
      <path id="Path_7330" data-name="Path 7330" d="M1497.434,68.266,1481.95,66.52l6.234,14.278,6.229,14.283,9.255-12.537,9.25-12.537Z" transform="translate(404.865 84.999)" fill="#fff" stroke="rgba(0,0,0,0)" stroke-miterlimit="10" stroke-width="1"/>
      <path id="Path_7331" data-name="Path 7331" d="M435.788,1.816,430.51,3.632l4.207,3.662,4.212,3.662L440,5.478,441.066,0Z" transform="translate(797.328 51.645)" fill="#fff" stroke="rgba(0,0,0,0)" stroke-miterlimit="10" stroke-width="1"/>
      <path id="Path_7332" data-name="Path 7332" d="M1414.838,68.4,1401.23,65.65l4.418,13.158,4.417,13.163,9.19-10.406,9.185-10.411Z" transform="translate(445.202 57.367)" fill="#fff" stroke="rgba(0,0,0,0)" stroke-miterlimit="10" stroke-width="1"/>
      <path id="Path_7333" data-name="Path 7333" d="M943.779,64.091,928.2,62.62l6.514,14.228,6.514,14.228,9.065-12.757,9.065-12.752Z" transform="translate(611.973 48.811)" fill="#fff" stroke="rgba(0,0,0,0)" stroke-miterlimit="10" stroke-width="1"/>
      <path id="Path_7334" data-name="Path 7334" d="M1251.639,35l-16.18-7.4,1.671,17.715,1.676,17.72,14.508-10.311,14.508-10.311Z" transform="translate(504.729 33.794)" fill="#fff" stroke="rgba(0,0,0,0)" stroke-miterlimit="10" stroke-width="1"/>
      <path id="Path_7335" data-name="Path 7335" d="M1024.169,67.7l-7-2.747,1.121,7.429,1.121,7.434,5.874-4.688,5.878-4.683Z" transform="translate(575.728 59.357)" fill="#fff" stroke="rgba(0,0,0,0)" stroke-miterlimit="10" stroke-width="1"/>
      <path id="Path_7336" data-name="Path 7336" d="M1172.077,62.139l-11.4-6.169.35,12.953.355,12.953,11.042-6.784,11.041-6.779Z" transform="translate(523.112 59.1)" fill="#fff" stroke="rgba(0,0,0,0)" stroke-miterlimit="10" stroke-width="1"/>
      <path id="Path_7337" data-name="Path 7337" d="M1217.26,123.977l-8.85-2.837,1.971,9.08,1.967,9.08,6.879-6.244,6.879-6.244Z" transform="translate(504.132 47.631)" fill="#fff" stroke="rgba(0,0,0,0)" stroke-miterlimit="10" stroke-width="1"/>
      <path id="Path_7338" data-name="Path 7338" d="M451.63,25.293l-16.9-4.623,4.448,16.95,4.448,16.95,12.452-12.327,12.457-12.327Z" transform="translate(797.379 77.701)" fill="#fff" stroke="rgba(0,0,0,0)" stroke-miterlimit="10" stroke-width="1"/>
      <path id="Path_7339" data-name="Path 7339" d="M200.07,56.545l-7.94.8,4.663,6.474,4.663,6.479,3.277-7.274,3.277-7.274Z" transform="translate(864.343 61.486)" fill="#fff" stroke="rgba(0,0,0,0)" stroke-miterlimit="10" stroke-width="1"/>
      <path id="Path_7340" data-name="Path 7340" d="M693.692,27.29l-11.872,9.3L695.8,42.219l13.983,5.633-2.111-14.929L705.559,18Z" transform="translate(704.084 28.163)" fill="#fff" stroke="rgba(0,0,0,0)" stroke-miterlimit="10" stroke-width="1"/>
      <path id="Path_7341" data-name="Path 7341" d="M118.948,50l-5.868.976,3.777,4.6,3.782,4.6,2.091-5.573,2.091-5.573Z" transform="translate(903.845 114.892)" fill="#fff" stroke="rgba(0,0,0,0)" stroke-miterlimit="10" stroke-width="1"/>
      <path id="Path_7342" data-name="Path 7342" d="M809.757,42.742,796.79,55.335l17.39,4.933L831.57,65.2l-4.423-17.525L822.725,30.15Z" transform="translate(661.78 115.897)" fill="#fff" stroke="rgba(0,0,0,0)" stroke-miterlimit="10" stroke-width="1"/>
      <path id="Path_7343" data-name="Path 7343" d="M1105.964,126.567l-7.474,2.982,6.319,4.978,6.313,4.983,1.156-7.96,1.156-7.96Z" transform="translate(545.146 43.297)" fill="#fff" stroke="rgba(0,0,0,0)" stroke-miterlimit="10" stroke-width="1"/>
      <path id="Path_7344" data-name="Path 7344" d="M778.3,65l-5.253,3.762,5.883,2.667,5.883,2.667-.63-6.429-.63-6.424Z" transform="translate(667.764 51.695)" fill="#fff" stroke="rgba(0,0,0,0)" stroke-miterlimit="10" stroke-width="1"/>
      <path id="Path_7345" data-name="Path 7345" d="M1220.027,51.164,1208.41,44.47l.01,13.408,0,13.408,11.607-6.714,11.612-6.709Z" transform="translate(505.219 109.509)" fill="#fff" stroke="rgba(0,0,0,0)" stroke-miterlimit="10" stroke-width="1"/>
      <path id="Path_7346" data-name="Path 7346" d="M1052.615,70.4l-9.105,7.424,10.981,4.177,10.986,4.177-1.876-11.6-1.876-11.6Z" transform="translate(567.111 57.578)" fill="#fff" stroke="rgba(0,0,0,0)" stroke-miterlimit="10" stroke-width="1"/>
      <path id="Path_7347" data-name="Path 7347" d="M1122.672,54.5,1109.93,53.19l5.238,11.687,5.243,11.692,7.5-10.386,7.5-10.381Z" transform="translate(542.72 102.537)" fill="#fff" stroke="rgba(0,0,0,0)" stroke-miterlimit="10" stroke-width="1"/>
      <path id="Path_7348" data-name="Path 7348" d="M145.254,10.711l-7.514,1.1,4.708,5.958,4.7,5.958,2.807-7.059,2.807-7.054Z" transform="translate(891.523 68.596)" fill="#fff" stroke="rgba(0,0,0,0)" stroke-miterlimit="10" stroke-width="1"/>
      <path id="Path_7349" data-name="Path 7349" d="M287.494,38.619,272.6,31.09l.926,16.665.926,16.665,13.968-9.135,13.968-9.135Z" transform="translate(857.976 116.661)" fill="#fff" stroke="rgba(0,0,0,0)" stroke-miterlimit="10" stroke-width="1"/>
      <path id="Path_7350" data-name="Path 7350" d="M103.732,66.781,90.99,69.2l8.465,9.826,8.47,9.826L112.2,76.607l4.277-12.247Z" transform="translate(914.884 62.866)" fill="#fff" stroke="rgba(0,0,0,0)" stroke-miterlimit="10" stroke-width="1"/>
      <path id="Path_7351" data-name="Path 7351" d="M1220.974,21.066l-7.784,1.866,5.508,5.813,5.508,5.808,2.281-7.674,2.276-7.679Z" transform="translate(501.914 62.235)" fill="#fff" stroke="rgba(0,0,0,0)" stroke-miterlimit="10" stroke-width="1"/>
      <path id="Path_7352" data-name="Path 7352" d="M992.478,16.185l-13.208.79,7.289,11.036,7.289,11.041,5.913-11.832,5.919-11.832Z" transform="translate(592.033 -5.885)" fill="#fff" stroke="rgba(0,0,0,0)" stroke-miterlimit="10" stroke-width="1"/>
      <path id="Path_7353" data-name="Path 7353" d="M634.988,99.441l-4.528,1.391,3.467,3.222,3.467,3.222,1.061-4.613,1.056-4.613Z" transform="translate(721.461 69.581)" fill="#fff" stroke="rgba(0,0,0,0)" stroke-miterlimit="10" stroke-width="1"/>
      <path id="Path_7354" data-name="Path 7354" d="M1029.2,17.945l-7.374-.485,3.267,6.629,3.272,6.629,4.1-6.144,4.107-6.144Z" transform="translate(574.089 13.608)" fill="#fff" stroke="rgba(0,0,0,0)" stroke-miterlimit="10" stroke-width="1"/>
      <path id="Path_7355" data-name="Path 7355" d="M1317.486,18.989l-10.416,6.969,11.241,5.533,11.241,5.533-.825-12.5-.83-12.5Z" transform="translate(492.254 -11.52)" fill="#fff" stroke="rgba(0,0,0,0)" stroke-miterlimit="10" stroke-width="1"/>
      <path id="Path_7356" data-name="Path 7356" d="M209.352,14.539,197.26,20.592l11.287,7.444,11.287,7.449.805-13.5.805-13.5Z" transform="translate(898.78 63.38)" fill="#fff" stroke="rgba(0,0,0,0)" stroke-miterlimit="10" stroke-width="1"/>
      <path id="Path_7357" data-name="Path 7357" d="M373.8,30.3,351.91,43.044,373.886,55.63l21.977,12.595L395.78,42.9,395.7,17.57Z" transform="translate(50.6 101.609)" fill="#fff" stroke="rgba(0,0,0,0)" stroke-miterlimit="10" stroke-width="1"/>
      <path id="Path_7358" data-name="Path 7358" d="M772.7,22.3,746.45,7.67l.45,30.046.45,30.046,25.8-15.413,25.8-15.413Z" transform="translate(108.473 117.017)" fill="#fff" stroke="rgba(0,0,0,0)" stroke-miterlimit="10" stroke-width="1"/>
      <path id="Path_7359" data-name="Path 7359" d="M1373.724,33.776,1355.53,49.593l22.8,7.84,22.794,7.849-4.608-23.666-4.608-23.666Z" transform="translate(228.301 113.163)" fill="#fff" stroke="rgba(0,0,0,0)" stroke-miterlimit="10" stroke-width="1"/>
      <path id="Path_7360" data-name="Path 7360" d="M24.79,17.051l-9.4-.211,4.526,8.243,4.516,8.243,4.884-8.032,4.874-8.042Z" transform="translate(-1.345 115.191)" fill="#fff" stroke="rgba(0,0,0,0)" stroke-miterlimit="10" stroke-width="1"/>
      <path id="Path_7361" data-name="Path 7361" d="M597.127,17.005l-8.28-5.315-.459,9.832-.468,9.822,8.739-4.507,8.748-4.507Z" transform="translate(82.088 117.587)" fill="#fff" stroke="rgba(0,0,0,0)" stroke-miterlimit="10" stroke-width="1"/>
      <path id="Path_7362" data-name="Path 7362" d="M1527.918,25.836,1509.1,17.17l1.909,20.636,1.9,20.627,16.918-11.97L1546.737,34.5Z" transform="translate(215.705 113.943)" fill="#fff" stroke="rgba(0,0,0,0)" stroke-miterlimit="10" stroke-width="1"/>
      <path id="Path_7363" data-name="Path 7363" d="M1056.883,24.978,1028.82,36.645l24.134,18.479,24.143,18.47,3.929-30.137,3.929-30.147Z" transform="translate(150.162 104.951)" fill="#fff" stroke="rgba(0,0,0,0)" stroke-miterlimit="10" stroke-width="1"/>
      <path id="Path_7364" data-name="Path 7364" d="M71.558,19.18,38.41,16.94,53.043,46.765,67.666,76.59,86.182,49.005,104.7,21.429Z" transform="translate(-3.233 93.06)" fill="#fff" stroke="rgba(0,0,0,0)" stroke-miterlimit="10" stroke-width="1"/>
      <path id="Path_7365" data-name="Path 7365" d="M1003.5,16.85,979.27,18.3l13.375,20.251,13.375,20.26L1016.87,37.1l10.86-21.71Z" transform="translate(141.679 112.051)" fill="#fff" stroke="rgba(0,0,0,0)" stroke-miterlimit="10" stroke-width="1"/>
      <path id="Path_7366" data-name="Path 7366" d="M1312.408,8.653,1286.76.07l5.388,26.511,5.389,26.5,20.26-17.919,20.26-17.919Z" transform="translate(233.941 131.961)" fill="#fff" stroke="rgba(0,0,0,0)" stroke-miterlimit="10" stroke-width="1"/>
      <path id="Path_7367" data-name="Path 7367" d="M1326.182,24.807,1307.07,37.595,1327.7,47.748,1348.324,57.9l-1.514-22.94-1.524-22.94Z" transform="translate(232.275 98.898)" fill="#fff" stroke="rgba(0,0,0,0)" stroke-miterlimit="10" stroke-width="1"/>
      <path id="Path_7368" data-name="Path 7368" d="M24.79,17.051l-9.4-.211,4.526,8.243,4.516,8.243,4.884-8.032,4.874-8.042Z" transform="translate(1760.888 115.191)" fill="#fff" stroke="rgba(0,0,0,0)" stroke-miterlimit="10" stroke-width="1"/>
      <path id="Path_7369" data-name="Path 7369" d="M71.558,19.18,38.41,16.94,53.043,46.765,67.666,76.59,86.182,49.005,104.7,21.429Z" transform="translate(1759 93.06)" fill="#fff" stroke="rgba(0,0,0,0)" stroke-miterlimit="10" stroke-width="1"/>
    </g>
  </g>
</svg>
