<svg width="80" height="80" viewBox="0 0 80 80" fill="none" xmlns="http://www.w3.org/2000/svg">
<path fill-rule="evenodd" clip-rule="evenodd" d="M10.1042 5H69.8958C72.7104 5 75 7.28958 75 10.1042V17.3958C75 20.2104 72.7104 22.5 69.8958 22.5H10.1042C7.28958 22.5 5 20.2104 5 17.3958V10.1042C5 7.28958 7.28958 5 10.1042 5ZM33.4372 31.25H69.8955C72.7101 31.25 74.9997 33.5396 74.9997 36.3542V69.8958C74.9997 72.7104 72.7101 75 69.8955 75H33.4372C30.6226 75 28.333 72.7104 28.333 69.8958V36.3542C28.333 33.5396 30.6226 31.25 33.4372 31.25ZM13.75 48.75C18.5825 48.75 22.5 44.8325 22.5 40C22.5 35.1675 18.5825 31.25 13.75 31.25C8.91751 31.25 5 35.1675 5 40C5 44.8325 8.91751 48.75 13.75 48.75ZM22.5 66.25C22.5 71.0825 18.5825 75 13.75 75C8.91751 75 5 71.0825 5 66.25C5 61.4175 8.91751 57.5 13.75 57.5C18.5825 57.5 22.5 61.4175 22.5 66.25Z" fill="url(#paint0_linear_1429_9109)"/>
<defs>
<linearGradient id="paint0_linear_1429_9109" x1="16" y1="5" x2="17" y2="69.5" gradientUnits="userSpaceOnUse">
<stop stop-color="#FFF3E2"/>
<stop offset="1" stop-color="#F9C279"/>
</linearGradient>
</defs>
</svg>
