<svg width="144" height="28" viewBox="0 0 144 28" fill="none" xmlns="http://www.w3.org/2000/svg">
<path d="M44.7216 11.6863H31.5552L32.4839 13.2721L34.3954 16.5372H39.5595C39.0517 18.1562 38.0648 19.5632 36.7691 20.5941C36.1762 21.0679 35.5169 21.4607 34.81 21.76L30.8275 14.9514L28.9161 11.6884L28.1179 10.323L26.7496 7.98692V7.98485L26.391 7.36966L25.3461 5.58646L23.9177 3.14442L22.4894 5.58646L21.0526 8.03888L19.7155 10.323V10.325L18.9173 11.6905L18.2436 12.8419V12.844L16.8525 15.2195L15.5153 17.5057L14.118 15.1115L12.1133 11.6863L8.54129 5.5823H11.2157L14.7856 11.6843L15.4552 12.8273L16.1248 11.6843L18.3203 7.93081L16.9438 5.5823L14.1284 0.773045H0L2.81324 5.5823L6.38318 11.6843L11.253 20.0059L12.6482 22.3939L15.4822 27.2364L18.3472 22.3419L19.6554 20.1056L19.6823 20.0578V20.0558L22.5474 15.1613L23.1631 14.1097L23.8845 12.8772L25.2528 15.2154L27.2265 18.5885L29.2809 22.0988L32.3658 27.3715C34.1383 27.2676 35.8196 26.8166 37.3392 26.083C38.0275 25.7504 38.6847 25.3638 39.3004 24.9212C42.0473 22.9592 44.023 19.9851 44.6823 16.5372C44.8398 15.7141 44.9207 14.8662 44.9207 13.9995C44.9207 13.2077 44.8543 12.4345 44.7216 11.6863Z" fill="url(#paint0_linear_90_239)"/>
<path d="M25.5453 20.2866L24.743 18.9149L24.7388 18.9087C24.4321 18.4846 24.1646 18.0296 23.9427 17.5494V17.5474L23.9158 17.4996L21.0881 22.3317L21.0508 22.3961L21.9485 23.9278L23.978 27.3987H29.7061L29.6232 27.2594L25.5453 20.2866Z" fill="#06C9FF"/>
<path d="M28.0703 5.72379L28.3564 6.21636C29.1421 5.89006 29.9859 5.68223 30.8711 5.61157C31.0971 5.59286 31.3251 5.58455 31.5573 5.58455C33.9144 5.58455 36.0457 6.55929 37.5715 8.12842L40.0862 5.58455L41.0709 4.58903C39.1263 2.61045 36.5701 1.23876 33.7134 0.77529C33.7113 0.773213 33.7092 0.773213 33.7051 0.773213C33.0044 0.656826 32.287 0.598633 31.5552 0.598633C31.3894 0.598633 31.2256 0.602789 31.0618 0.609024C30.4979 0.627729 29.9444 0.683844 29.4012 0.773213C28.1429 0.976889 26.9405 1.3593 25.8271 1.89135L27.9874 5.58455L28.0703 5.72379Z" fill="#06C9FF"/>
<mask id="mask0_90_239" style="mask-type:luminance" maskUnits="userSpaceOnUse" x="50" y="0" width="93" height="14">
<path d="M142.731 0H50.749V13.9973H142.731V0Z" fill="white"/>
</mask>
<g mask="url(#mask0_90_239)">
<path d="M55.0341 13.2607L51.0537 0.281166H53.9984L56.7196 9.9045L59.6846 0.281166H62.0809L65.0662 9.9045L67.7874 0.281166H70.7321L66.7517 13.2607H63.5634L60.8828 4.69418L58.2224 13.2607H55.0341ZM81.292 13.2607L80.4391 10.9243H74.7731L73.9201 13.2607H70.8943L75.8697 0.281166H79.3424L84.3382 13.2607H81.292ZM75.6666 8.53239H79.5658L77.6162 3.22935L75.6666 8.53239ZM91.6281 0.281166C92.9955 0.281166 94.1463 0.701453 95.0805 1.54202C96.0146 2.3826 96.4817 3.41477 96.4817 4.63855C96.4817 5.86233 96.0146 6.89451 95.0805 7.73506C94.1463 8.57563 92.9955 8.99592 91.6281 8.99592H89.1302V13.2607H86.3277V0.281166H91.6281ZM91.6281 6.60401C92.2237 6.60401 92.7179 6.41859 93.1106 6.04775C93.5032 5.66454 93.6996 5.19481 93.6996 4.63855C93.6996 4.06993 93.5032 3.60019 93.1106 3.22935C92.7179 2.85851 92.2237 2.6731 91.6281 2.6731H89.1302V6.60401H91.6281ZM104.216 0.281166C105.583 0.281166 106.734 0.701453 107.668 1.54202C108.602 2.3826 109.07 3.41477 109.07 4.63855C109.07 5.86233 108.602 6.89451 107.668 7.73506C106.734 8.57563 105.583 8.99592 104.216 8.99592H101.718V13.2607H98.9155V0.281166H104.216ZM104.216 6.60401C104.812 6.60401 105.306 6.41859 105.698 6.04775C106.091 5.66454 106.287 5.19481 106.287 4.63855C106.287 4.06993 106.091 3.60019 105.698 3.22935C105.306 2.85851 104.812 2.6731 104.216 2.6731H101.718V6.60401H104.216ZM125.356 6.28879V7.29007C125.356 9.1443 124.706 10.6462 123.406 11.7957C122.106 12.9454 120.428 13.5202 118.37 13.5202C116.176 13.5202 114.356 12.8712 112.907 11.5733C111.472 10.2629 110.754 8.66839 110.754 6.78943C110.754 4.89814 111.465 3.29735 112.887 1.98704C114.322 0.676731 116.095 0.0215778 118.207 0.0215778C119.534 0.0215778 120.746 0.299709 121.842 0.855967C122.939 1.39987 123.792 2.12919 124.401 3.04394L122.005 4.30479C121.666 3.77326 121.152 3.34061 120.462 3.00684C119.785 2.6731 119.026 2.50622 118.187 2.50622C116.833 2.50622 115.716 2.91414 114.836 3.72999C113.97 4.53348 113.536 5.55329 113.536 6.78943C113.536 8.01323 113.976 9.02687 114.856 9.83031C115.75 10.6215 116.928 11.017 118.39 11.017C119.473 11.017 120.367 10.8007 121.071 10.368C121.788 9.92306 122.276 9.31734 122.533 8.55096H118.228V6.28879H125.356ZM139.92 11.5733C138.485 12.8712 136.738 13.5202 134.681 13.5202C132.622 13.5202 130.876 12.8712 129.441 11.5733C128.019 10.2629 127.308 8.6622 127.308 6.77089C127.308 4.8796 128.019 3.28498 129.441 1.98704C130.876 0.676731 132.622 0.0215778 134.681 0.0215778C136.738 0.0215778 138.485 0.676731 139.92 1.98704C141.355 3.28498 142.072 4.8796 142.072 6.77089C142.072 8.6622 141.355 10.2629 139.92 11.5733ZM131.411 9.83031C132.291 10.6215 133.381 11.017 134.681 11.017C135.98 11.017 137.07 10.6215 137.95 9.83031C138.83 9.02687 139.27 8.00705 139.27 6.77089C139.27 5.53476 138.83 4.51494 137.95 3.71145C137.07 2.90796 135.98 2.50622 134.681 2.50622C133.381 2.50622 132.291 2.90796 131.411 3.71145C130.531 4.51494 130.091 5.53476 130.091 6.77089C130.091 8.00705 130.531 9.02687 131.411 9.83031Z" fill="black"/>
</g>
<path d="M52.7617 23.9973L50.9588 18.5577H52.0079L53.6165 23.4767H53.0958L54.7666 18.5577H55.6991L57.3232 23.4767H56.8181L58.4656 18.5577H59.4292L57.6263 23.9973H56.5539L55.0697 19.5601H55.3494L53.8419 23.9973H52.7617ZM61.7983 24.0517C61.3372 24.0517 60.9331 23.9611 60.586 23.7797C60.2441 23.5932 59.9773 23.3394 59.7856 23.0182C59.5991 22.697 59.5058 22.3317 59.5058 21.9225C59.5058 21.508 59.5965 21.1428 59.7778 20.8268C59.9643 20.5056 60.2182 20.2543 60.5394 20.073C60.8657 19.8917 61.2362 19.801 61.6506 19.801C62.0547 19.801 62.4147 19.8891 62.7308 20.0652C63.0468 20.2414 63.2955 20.49 63.4768 20.8112C63.6581 21.1324 63.7488 21.5106 63.7488 21.9458C63.7488 21.9872 63.7462 22.0339 63.741 22.0857C63.741 22.1375 63.7384 22.1867 63.7332 22.2333H60.2751V21.5883H63.2203L62.8396 21.7904C62.8447 21.5521 62.7955 21.3423 62.6919 21.1609C62.5883 20.9796 62.4458 20.8371 62.2645 20.7335C62.0884 20.6299 61.8837 20.5781 61.6506 20.5781C61.4123 20.5781 61.2025 20.6299 61.0212 20.7335C60.845 20.8371 60.7051 20.9822 60.6015 21.1687C60.5031 21.35 60.4539 21.565 60.4539 21.8137V21.9691C60.4539 22.2178 60.5109 22.438 60.6248 22.6296C60.7388 22.8213 60.8994 22.969 61.1066 23.0726C61.3139 23.1762 61.5522 23.228 61.8216 23.228C62.0547 23.228 62.2645 23.1917 62.451 23.1192C62.6375 23.0467 62.8033 22.9327 62.9483 22.7773L63.469 23.3756C63.2825 23.5932 63.0468 23.7616 62.7618 23.8808C62.4821 23.9947 62.1609 24.0517 61.7983 24.0517ZM68.7333 24.0517C68.2981 24.0517 67.9096 23.9611 67.5677 23.7797C67.2309 23.5932 66.9667 23.3394 66.775 23.0182C66.5834 22.697 66.4875 22.3317 66.4875 21.9225C66.4875 21.508 66.5834 21.1428 66.775 20.8268C66.9667 20.5056 67.2309 20.2543 67.5677 20.073C67.9096 19.8917 68.2981 19.801 68.7333 19.801C69.1374 19.801 69.4923 19.8839 69.7979 20.0497C70.1088 20.2103 70.3445 20.4486 70.5051 20.7646L69.7591 21.1998C69.6347 21.0029 69.4819 20.8579 69.3006 20.7646C69.1245 20.6714 68.9328 20.6247 68.7255 20.6247C68.4872 20.6247 68.2722 20.6765 68.0806 20.7802C67.8889 20.8838 67.7386 21.034 67.6298 21.2309C67.5211 21.4226 67.4667 21.6531 67.4667 21.9225C67.4667 22.1919 67.5211 22.425 67.6298 22.6219C67.7386 22.8135 67.8889 22.9612 68.0806 23.0648C68.2722 23.1684 68.4872 23.2202 68.7255 23.2202C68.9328 23.2202 69.1245 23.1736 69.3006 23.0803C69.4819 22.9871 69.6347 22.842 69.7591 22.6452L70.5051 23.0803C70.3445 23.3912 70.1088 23.6321 69.7979 23.803C69.4923 23.9688 69.1374 24.0517 68.7333 24.0517ZM71.3448 23.9973V19.8476H72.2695V20.99L72.1607 20.6558C72.2851 20.3761 72.4793 20.1637 72.7435 20.0186C73.0129 19.8735 73.3471 19.801 73.746 19.801V20.7258C73.7045 20.7154 73.6657 20.7102 73.6294 20.7102C73.5932 20.705 73.5569 20.7024 73.5206 20.7024C73.1528 20.7024 72.8601 20.8112 72.6425 21.0288C72.4249 21.2412 72.3161 21.5598 72.3161 21.9846V23.9973H71.3448ZM76.4826 24.0517C76.0215 24.0517 75.6174 23.9611 75.2703 23.7797C74.9284 23.5932 74.6616 23.3394 74.4699 23.0182C74.2834 22.697 74.1901 22.3317 74.1901 21.9225C74.1901 21.508 74.2808 21.1428 74.4621 20.8268C74.6486 20.5056 74.9025 20.2543 75.2237 20.073C75.5501 19.8917 75.9205 19.801 76.3349 19.801C76.739 19.801 77.0991 19.8891 77.4151 20.0652C77.7311 20.2414 77.9798 20.49 78.1611 20.8112C78.3424 21.1324 78.4331 21.5106 78.4331 21.9458C78.4331 21.9872 78.4305 22.0339 78.4253 22.0857C78.4253 22.1375 78.4227 22.1867 78.4175 22.2333H74.9595V21.5883H77.9047L77.5239 21.7904C77.5291 21.5521 77.4798 21.3423 77.3762 21.1609C77.2726 20.9796 77.1302 20.8371 76.9488 20.7335C76.7727 20.6299 76.5681 20.5781 76.3349 20.5781C76.0966 20.5781 75.8868 20.6299 75.7055 20.7335C75.5293 20.8371 75.3895 20.9822 75.2858 21.1687C75.1874 21.35 75.1382 21.565 75.1382 21.8137V21.9691C75.1382 22.2178 75.1952 22.438 75.3092 22.6296C75.4231 22.8213 75.5837 22.969 75.791 23.0726C75.9982 23.1762 76.2365 23.228 76.5059 23.228C76.739 23.228 76.9488 23.1917 77.1353 23.1192C77.3218 23.0467 77.4876 22.9327 77.6327 22.7773L78.1533 23.3756C77.9668 23.5932 77.7311 23.7616 77.4462 23.8808C77.1664 23.9947 76.8452 24.0517 76.4826 24.0517ZM81.8089 23.9973V23.1581L81.7545 22.9793V21.5106C81.7545 21.2257 81.6691 21.0055 81.4981 20.8501C81.3271 20.6895 81.0681 20.6092 80.721 20.6092C80.4879 20.6092 80.2573 20.6455 80.0294 20.718C79.8066 20.7905 79.6175 20.8915 79.4621 21.0211L79.0813 20.3139C79.3041 20.1429 79.5683 20.016 79.874 19.9331C80.1848 19.8451 80.506 19.801 80.8376 19.801C81.4385 19.801 81.9022 19.9461 82.2286 20.2362C82.5601 20.5211 82.7259 20.9641 82.7259 21.565V23.9973H81.8089ZM80.5034 24.0517C80.1926 24.0517 79.9206 23.9999 79.6875 23.8963C79.4543 23.7875 79.273 23.6399 79.1435 23.4534C79.0192 23.2617 78.957 23.0467 78.957 22.8084C78.957 22.5752 79.0114 22.3654 79.1202 22.1789C79.2342 21.9924 79.4181 21.8448 79.6719 21.736C79.9258 21.6272 80.2625 21.5728 80.6822 21.5728H81.8866V22.2178H80.7521C80.4205 22.2178 80.1978 22.2722 80.0838 22.381C79.9698 22.4846 79.9128 22.6141 79.9128 22.7695C79.9128 22.9457 79.9828 23.0855 80.1226 23.1891C80.2625 23.2928 80.4568 23.3446 80.7055 23.3446C80.9438 23.3446 81.1562 23.2902 81.3427 23.1814C81.5344 23.0726 81.6717 22.912 81.7545 22.6996L81.9177 23.2824C81.8245 23.5259 81.6561 23.715 81.4126 23.8497C81.1743 23.9844 80.8712 24.0517 80.5034 24.0517ZM85.5345 24.0517C85.0786 24.0517 84.7263 23.9352 84.4776 23.702C84.229 23.4637 84.1046 23.114 84.1046 22.6529V18.9307H85.076V22.6296C85.076 22.8265 85.1252 22.9793 85.2237 23.0881C85.3273 23.1969 85.4697 23.2513 85.6511 23.2513C85.8686 23.2513 86.05 23.1943 86.195 23.0803L86.467 23.772C86.353 23.8652 86.2131 23.9352 86.0474 23.9818C85.8816 24.0284 85.7106 24.0517 85.5345 24.0517ZM83.4208 20.6558V19.8787H86.1872V20.6558H83.4208ZM89.08 24.0517C88.6189 24.0517 88.2148 23.9611 87.8677 23.7797C87.5258 23.5932 87.259 23.3394 87.0673 23.0182C86.8808 22.697 86.7876 22.3317 86.7876 21.9225C86.7876 21.508 86.8782 21.1428 87.0595 20.8268C87.246 20.5056 87.4999 20.2543 87.8211 20.073C88.1475 19.8917 88.5179 19.801 88.9323 19.801C89.3364 19.801 89.6965 19.8891 90.0125 20.0652C90.3285 20.2414 90.5772 20.49 90.7585 20.8112C90.9398 21.1324 91.0305 21.5106 91.0305 21.9458C91.0305 21.9872 91.0279 22.0339 91.0227 22.0857C91.0227 22.1375 91.0201 22.1867 91.0149 22.2333H87.5569V21.5883H90.5021L90.1213 21.7904C90.1265 21.5521 90.0772 21.3423 89.9736 21.1609C89.87 20.9796 89.7276 20.8371 89.5462 20.7335C89.3701 20.6299 89.1655 20.5781 88.9323 20.5781C88.694 20.5781 88.4842 20.6299 88.3029 20.7335C88.1267 20.8371 87.9869 20.9822 87.8833 21.1687C87.7848 21.35 87.7356 21.565 87.7356 21.8137V21.9691C87.7356 22.2178 87.7926 22.438 87.9066 22.6296C88.0205 22.8213 88.1811 22.969 88.3884 23.0726C88.5956 23.1762 88.8339 23.228 89.1033 23.228C89.3364 23.228 89.5462 23.1917 89.7327 23.1192C89.9192 23.0467 90.085 22.9327 90.2301 22.7773L90.7507 23.3756C90.5642 23.5932 90.3285 23.7616 90.0436 23.8808C89.7638 23.9947 89.4426 24.0517 89.08 24.0517ZM99.3488 19.801C99.6803 19.801 99.973 19.8658 100.227 19.9953C100.486 20.1248 100.688 20.3243 100.833 20.5937C100.978 20.8579 101.051 21.1998 101.051 21.6194V23.9973H100.079V21.7437C100.079 21.3759 99.9989 21.1014 99.8383 20.92C99.6777 20.7387 99.4472 20.648 99.1467 20.648C98.9343 20.648 98.7452 20.6947 98.5794 20.7879C98.4189 20.8812 98.2919 21.0185 98.1987 21.1998C98.1106 21.3811 98.0666 21.6116 98.0666 21.8914V23.9973H97.0952V21.7437C97.0952 21.3759 97.0149 21.1014 96.8543 20.92C96.6937 20.7387 96.4632 20.648 96.1627 20.648C95.9503 20.648 95.7612 20.6947 95.5954 20.7879C95.4348 20.8812 95.3079 21.0185 95.2146 21.1998C95.1266 21.3811 95.0825 21.6116 95.0825 21.8914V23.9973H94.1112V19.8476H95.0359V20.9511L94.8727 20.6247C95.0126 20.3553 95.2146 20.1507 95.4788 20.0108C95.7482 19.871 96.0539 19.801 96.3958 19.801C96.7844 19.801 97.1211 19.8969 97.406 20.0885C97.6962 20.2802 97.8878 20.5703 97.9811 20.9589L97.6003 20.8268C97.735 20.5159 97.9578 20.2673 98.2686 20.0808C98.5794 19.8943 98.9395 19.801 99.3488 19.801ZM104.849 23.9973V23.1581L104.794 22.9793V21.5106C104.794 21.2257 104.709 21.0055 104.538 20.8501C104.367 20.6895 104.108 20.6092 103.761 20.6092C103.527 20.6092 103.297 20.6455 103.069 20.718C102.846 20.7905 102.657 20.8915 102.502 21.0211L102.121 20.3139C102.344 20.1429 102.608 20.016 102.914 19.9331C103.224 19.8451 103.546 19.801 103.877 19.801C104.478 19.801 104.942 19.9461 105.268 20.2362C105.6 20.5211 105.765 20.9641 105.765 21.565V23.9973H104.849ZM103.543 24.0517C103.232 24.0517 102.96 23.9999 102.727 23.8963C102.494 23.7875 102.313 23.6399 102.183 23.4534C102.059 23.2617 101.997 23.0467 101.997 22.8084C101.997 22.5752 102.051 22.3654 102.16 22.1789C102.274 21.9924 102.458 21.8448 102.712 21.736C102.965 21.6272 103.302 21.5728 103.722 21.5728H104.926V22.2178H103.792C103.46 22.2178 103.237 22.2722 103.123 22.381C103.009 22.4846 102.952 22.6141 102.952 22.7695C102.952 22.9457 103.022 23.0855 103.162 23.1891C103.302 23.2928 103.496 23.3446 103.745 23.3446C103.983 23.3446 104.196 23.2902 104.382 23.1814C104.574 23.0726 104.711 22.912 104.794 22.6996L104.957 23.2824C104.864 23.5259 104.696 23.715 104.452 23.8497C104.214 23.9844 103.911 24.0517 103.543 24.0517ZM108.294 24.0517C107.947 24.0517 107.613 24.0077 107.292 23.9196C106.976 23.8264 106.725 23.715 106.538 23.5855L106.911 22.8472C107.098 22.9664 107.32 23.0648 107.579 23.1425C107.838 23.2202 108.097 23.2591 108.356 23.2591C108.662 23.2591 108.882 23.2176 109.017 23.1347C109.157 23.0519 109.227 22.9405 109.227 22.8006C109.227 22.6866 109.18 22.6011 109.087 22.5442C108.994 22.482 108.872 22.4354 108.722 22.4043C108.571 22.3732 108.403 22.3447 108.217 22.3188C108.035 22.2929 107.851 22.2592 107.665 22.2178C107.484 22.1712 107.318 22.1064 107.168 22.0235C107.017 21.9354 106.896 21.8189 106.802 21.6738C106.709 21.5288 106.662 21.3371 106.662 21.0988C106.662 20.8346 106.738 20.6066 106.888 20.4149C107.038 20.2181 107.248 20.0678 107.517 19.9642C107.792 19.8554 108.116 19.801 108.489 19.801C108.768 19.801 109.051 19.8321 109.336 19.8943C109.621 19.9564 109.856 20.0445 110.043 20.1585L109.67 20.8967C109.473 20.7776 109.273 20.6973 109.071 20.6558C108.875 20.6092 108.678 20.5859 108.481 20.5859C108.186 20.5859 107.965 20.6299 107.82 20.718C107.68 20.8061 107.61 20.9174 107.61 21.0521C107.61 21.1765 107.657 21.2697 107.75 21.3319C107.844 21.3941 107.965 21.4433 108.116 21.4795C108.266 21.5158 108.432 21.5469 108.613 21.5728C108.799 21.5935 108.983 21.6272 109.165 21.6738C109.346 21.7204 109.512 21.7852 109.662 21.8681C109.817 21.9458 109.942 22.0572 110.035 22.2022C110.128 22.3473 110.175 22.5364 110.175 22.7695C110.175 23.0285 110.097 23.2539 109.942 23.4456C109.792 23.6373 109.577 23.7875 109.297 23.8963C109.017 23.9999 108.683 24.0517 108.294 24.0517ZM112.573 24.0517C112.117 24.0517 111.765 23.9352 111.517 23.702C111.268 23.4637 111.144 23.114 111.144 22.6529V18.9307H112.115V22.6296C112.115 22.8265 112.164 22.9793 112.263 23.0881C112.366 23.1969 112.509 23.2513 112.69 23.2513C112.908 23.2513 113.089 23.1943 113.234 23.0803L113.506 23.772C113.392 23.8652 113.252 23.9352 113.086 23.9818C112.92 24.0284 112.75 24.0517 112.573 24.0517ZM110.46 20.6558V19.8787H113.226V20.6558H110.46ZM116.119 24.0517C115.658 24.0517 115.254 23.9611 114.907 23.7797C114.565 23.5932 114.298 23.3394 114.106 23.0182C113.92 22.697 113.826 22.3317 113.826 21.9225C113.826 21.508 113.917 21.1428 114.098 20.8268C114.285 20.5056 114.539 20.2543 114.86 20.073C115.186 19.8917 115.557 19.801 115.971 19.801C116.375 19.801 116.735 19.8891 117.051 20.0652C117.367 20.2414 117.616 20.49 117.797 20.8112C117.979 21.1324 118.069 21.5106 118.069 21.9458C118.069 21.9872 118.067 22.0339 118.062 22.0857C118.062 22.1375 118.059 22.1867 118.054 22.2333H114.596V21.5883H117.541L117.16 21.7904C117.165 21.5521 117.116 21.3423 117.013 21.1609C116.909 20.9796 116.766 20.8371 116.585 20.7335C116.409 20.6299 116.204 20.5781 115.971 20.5781C115.733 20.5781 115.523 20.6299 115.342 20.7335C115.166 20.8371 115.026 20.9822 114.922 21.1687C114.824 21.35 114.774 21.565 114.774 21.8137V21.9691C114.774 22.2178 114.831 22.438 114.945 22.6296C115.059 22.8213 115.22 22.969 115.427 23.0726C115.634 23.1762 115.873 23.228 116.142 23.228C116.375 23.228 116.585 23.1917 116.772 23.1192C116.958 23.0467 117.124 22.9327 117.269 22.7773L117.79 23.3756C117.603 23.5932 117.367 23.7616 117.082 23.8808C116.803 23.9947 116.482 24.0517 116.119 24.0517ZM119.002 23.9973V19.8476H119.927V20.99L119.818 20.6558C119.943 20.3761 120.137 20.1637 120.401 20.0186C120.671 19.8735 121.005 19.801 121.404 19.801V20.7258C121.362 20.7154 121.323 20.7102 121.287 20.7102C121.251 20.705 121.215 20.7024 121.178 20.7024C120.81 20.7024 120.518 20.8112 120.3 21.0288C120.083 21.2412 119.974 21.5598 119.974 21.9846V23.9973H119.002ZM124.528 24.0517C124.191 24.0517 123.883 23.974 123.603 23.8186C123.329 23.6632 123.108 23.43 122.943 23.1192C122.782 22.8032 122.702 22.4043 122.702 21.9225C122.702 21.4355 122.779 21.0366 122.935 20.7258C123.095 20.4149 123.313 20.1844 123.588 20.0341C123.862 19.8787 124.176 19.801 124.528 19.801C124.937 19.801 125.297 19.8891 125.608 20.0652C125.924 20.2414 126.173 20.4874 126.354 20.8035C126.541 21.1195 126.634 21.4925 126.634 21.9225C126.634 22.3525 126.541 22.7281 126.354 23.0493C126.173 23.3653 125.924 23.6114 125.608 23.7875C125.297 23.9636 124.937 24.0517 124.528 24.0517ZM122.228 25.5049V19.8476H123.152V20.8268L123.121 21.9303L123.199 23.0337V25.5049H122.228ZM124.419 23.2202C124.652 23.2202 124.859 23.1684 125.041 23.0648C125.227 22.9612 125.375 22.811 125.484 22.6141C125.592 22.4172 125.647 22.1867 125.647 21.9225C125.647 21.6531 125.592 21.4226 125.484 21.2309C125.375 21.034 125.227 20.8838 125.041 20.7802C124.859 20.6765 124.652 20.6247 124.419 20.6247C124.186 20.6247 123.976 20.6765 123.79 20.7802C123.603 20.8838 123.455 21.034 123.347 21.2309C123.238 21.4226 123.183 21.6531 123.183 21.9225C123.183 22.1867 123.238 22.4172 123.347 22.6141C123.455 22.811 123.603 22.9612 123.79 23.0648C123.976 23.1684 124.186 23.2202 124.419 23.2202ZM127.555 23.9973V19.8476H128.526V23.9973H127.555ZM128.045 19.1638C127.863 19.1638 127.713 19.1068 127.594 18.9928C127.48 18.8789 127.423 18.7416 127.423 18.581C127.423 18.4152 127.48 18.2779 127.594 18.1691C127.713 18.0551 127.863 17.9982 128.045 17.9982C128.226 17.9982 128.374 18.0526 128.488 18.1614C128.607 18.265 128.666 18.3971 128.666 18.5577C128.666 18.7286 128.609 18.8737 128.495 18.9928C128.381 19.1068 128.231 19.1638 128.045 19.1638ZM131.752 24.0517C131.291 24.0517 130.887 23.9611 130.54 23.7797C130.198 23.5932 129.931 23.3394 129.739 23.0182C129.553 22.697 129.459 22.3317 129.459 21.9225C129.459 21.508 129.55 21.1428 129.731 20.8268C129.918 20.5056 130.172 20.2543 130.493 20.073C130.819 19.8917 131.19 19.801 131.604 19.801C132.008 19.801 132.368 19.8891 132.684 20.0652C133 20.2414 133.249 20.49 133.43 20.8112C133.612 21.1324 133.702 21.5106 133.702 21.9458C133.702 21.9872 133.7 22.0339 133.695 22.0857C133.695 22.1375 133.692 22.1867 133.687 22.2333H130.229V21.5883H133.174L132.793 21.7904C132.798 21.5521 132.749 21.3423 132.645 21.1609C132.542 20.9796 132.399 20.8371 132.218 20.7335C132.042 20.6299 131.837 20.5781 131.604 20.5781C131.366 20.5781 131.156 20.6299 130.975 20.7335C130.799 20.8371 130.659 20.9822 130.555 21.1687C130.457 21.35 130.407 21.565 130.407 21.8137V21.9691C130.407 22.2178 130.464 22.438 130.578 22.6296C130.692 22.8213 130.853 22.969 131.06 23.0726C131.267 23.1762 131.506 23.228 131.775 23.228C132.008 23.228 132.218 23.1917 132.405 23.1192C132.591 23.0467 132.757 22.9327 132.902 22.7773L133.423 23.3756C133.236 23.5932 133 23.7616 132.715 23.8808C132.436 23.9947 132.114 24.0517 131.752 24.0517ZM136.539 24.0517C136.104 24.0517 135.715 23.9611 135.374 23.7797C135.037 23.5932 134.773 23.3394 134.581 23.0182C134.389 22.697 134.293 22.3317 134.293 21.9225C134.293 21.508 134.389 21.1428 134.581 20.8268C134.773 20.5056 135.037 20.2543 135.374 20.073C135.715 19.8917 136.104 19.801 136.539 19.801C136.943 19.801 137.298 19.8839 137.604 20.0497C137.915 20.2103 138.15 20.4486 138.311 20.7646L137.565 21.1998C137.441 21.0029 137.288 20.8579 137.106 20.7646C136.93 20.6714 136.739 20.6247 136.531 20.6247C136.293 20.6247 136.078 20.6765 135.886 20.7802C135.695 20.8838 135.545 21.034 135.436 21.2309C135.327 21.4226 135.273 21.6531 135.273 21.9225C135.273 22.1919 135.327 22.425 135.436 22.6219C135.545 22.8135 135.695 22.9612 135.886 23.0648C136.078 23.1684 136.293 23.2202 136.531 23.2202C136.739 23.2202 136.93 23.1736 137.106 23.0803C137.288 22.9871 137.441 22.842 137.565 22.6452L138.311 23.0803C138.15 23.3912 137.915 23.6321 137.604 23.803C137.298 23.9688 136.943 24.0517 136.539 24.0517ZM141.04 24.0517C140.579 24.0517 140.175 23.9611 139.828 23.7797C139.486 23.5932 139.219 23.3394 139.028 23.0182C138.841 22.697 138.748 22.3317 138.748 21.9225C138.748 21.508 138.839 21.1428 139.02 20.8268C139.207 20.5056 139.46 20.2543 139.782 20.073C140.108 19.8917 140.478 19.801 140.893 19.801C141.297 19.801 141.657 19.8891 141.973 20.0652C142.289 20.2414 142.538 20.49 142.719 20.8112C142.9 21.1324 142.991 21.5106 142.991 21.9458C142.991 21.9872 142.988 22.0339 142.983 22.0857C142.983 22.1375 142.981 22.1867 142.975 22.2333H139.517V21.5883H142.463L142.082 21.7904C142.087 21.5521 142.038 21.3423 141.934 21.1609C141.831 20.9796 141.688 20.8371 141.507 20.7335C141.331 20.6299 141.126 20.5781 140.893 20.5781C140.655 20.5781 140.445 20.6299 140.263 20.7335C140.087 20.8371 139.947 20.9822 139.844 21.1687C139.745 21.35 139.696 21.565 139.696 21.8137V21.9691C139.696 22.2178 139.753 22.438 139.867 22.6296C139.981 22.8213 140.142 22.969 140.349 23.0726C140.556 23.1762 140.794 23.228 141.064 23.228C141.297 23.228 141.507 23.1917 141.693 23.1192C141.88 23.0467 142.046 22.9327 142.191 22.7773L142.711 23.3756C142.525 23.5932 142.289 23.7616 142.004 23.8808C141.724 23.9947 141.403 24.0517 141.04 24.0517Z" fill="#736D6E"/>
<defs>
<linearGradient id="paint0_linear_90_239" x1="22.4604" y1="27.5526" x2="22.4604" y2="-1.91453" gradientUnits="userSpaceOnUse">
<stop stop-color="#1925FF"/>
<stop offset="1" stop-color="#1925FF"/>
</linearGradient>
</defs>
</svg>
