<svg width="144" height="28" viewBox="0 0 144 28" fill="none" xmlns="http://www.w3.org/2000/svg">
<g clip-path="url(#clip0_4220_38433)">
<path d="M44.7216 11.6862H31.5552L32.4839 13.272L34.3954 16.5371H39.5595C39.0517 18.1561 38.0648 19.5631 36.7691 20.594C36.1762 21.0678 35.5169 21.4606 34.81 21.7599L30.8275 14.9513L28.9161 11.6883L28.1179 10.3229L26.7496 7.98682V7.98475L26.391 7.36956L25.3461 5.58636L23.9177 3.14432L22.4894 5.58636L21.0526 8.03878L19.7155 10.3229V10.3249L18.9173 11.6904L18.2436 12.8418V12.8439L16.8525 15.2194L15.5153 17.5056L14.118 15.1114L12.1133 11.6862L8.54129 5.5822H11.2157L14.7856 11.6842L15.4552 12.8272L16.1248 11.6842L18.3203 7.93071L16.9438 5.5822L14.1284 0.772949H0L2.81324 5.5822L6.38318 11.6842L11.253 20.0058L12.6482 22.3938L15.4822 27.2363L18.3472 22.3418L19.6554 20.1055L19.6823 20.0577V20.0557L22.5474 15.1612L23.1631 14.1096L23.8845 12.8771L25.2528 15.2153L27.2265 18.5884L29.2809 22.0987L32.3658 27.3714C34.1383 27.2675 35.8196 26.8165 37.3392 26.0829C38.0275 25.7503 38.6847 25.3637 39.3004 24.9211C42.0473 22.9591 44.023 19.985 44.6823 16.5371C44.8398 15.714 44.9207 14.8661 44.9207 13.9994C44.9207 13.2076 44.8543 12.4344 44.7216 11.6862Z" fill="url(#paint0_linear_4220_38433)"/>
<path d="M25.5453 20.2865L24.743 18.9148L24.7388 18.9086C24.4321 18.4845 24.1646 18.0295 23.9427 17.5493V17.5473L23.9158 17.4995L21.0881 22.3316L21.0508 22.396L21.9485 23.9277L23.978 27.3986H29.7061L29.6232 27.2593L25.5453 20.2865Z" fill="#06C9FF"/>
<path d="M28.0703 5.72379L28.3564 6.21636C29.1421 5.89006 29.9859 5.68223 30.8711 5.61157C31.0971 5.59286 31.3251 5.58455 31.5573 5.58455C33.9144 5.58455 36.0457 6.55929 37.5715 8.12842L40.0862 5.58455L41.0709 4.58903C39.1263 2.61045 36.5701 1.23876 33.7134 0.77529C33.7113 0.773213 33.7092 0.773213 33.7051 0.773213C33.0044 0.656826 32.287 0.598633 31.5552 0.598633C31.3894 0.598633 31.2256 0.602789 31.0618 0.609024C30.4979 0.627729 29.9444 0.683844 29.4012 0.773213C28.1429 0.976889 26.9405 1.3593 25.8271 1.89135L27.9874 5.58455L28.0703 5.72379Z" fill="#06C9FF"/>
<mask id="mask0_4220_38433" style="mask-type:luminance" maskUnits="userSpaceOnUse" x="51" y="3" width="92" height="14">
<path d="M142.982 3H51V16.9973H142.982V3Z" fill="white"/>
</mask>
<g mask="url(#mask0_4220_38433)">
<path d="M55.2851 16.2606L51.3047 3.28107H54.2494L56.9706 12.9044L59.9356 3.28107H62.3319L65.3172 12.9044L68.0384 3.28107H70.9831L67.0027 16.2606H63.8144L61.1338 7.69409L58.4734 16.2606H55.2851ZM81.543 16.2606L80.6901 13.9242H75.0241L74.1711 16.2606H71.1453L76.1207 3.28107H79.5934L84.5892 16.2606H81.543ZM75.9176 11.5323H79.8168L77.8672 6.22926L75.9176 11.5323ZM91.8791 3.28107C93.2465 3.28107 94.3973 3.70136 95.3315 4.54193C96.2656 5.38251 96.7327 6.41468 96.7327 7.63846C96.7327 8.86224 96.2656 9.89442 95.3315 10.735C94.3973 11.5755 93.2465 11.9958 91.8791 11.9958H89.3812V16.2606H86.5787V3.28107H91.8791ZM91.8791 9.60392C92.4747 9.60392 92.9689 9.4185 93.3616 9.04766C93.7542 8.66445 93.9506 8.19472 93.9506 7.63846C93.9506 7.06984 93.7542 6.6001 93.3616 6.22926C92.9689 5.85842 92.4747 5.67301 91.8791 5.67301H89.3812V9.60392H91.8791ZM104.467 3.28107C105.834 3.28107 106.985 3.70136 107.919 4.54193C108.853 5.38251 109.321 6.41468 109.321 7.63846C109.321 8.86224 108.853 9.89442 107.919 10.735C106.985 11.5755 105.834 11.9958 104.467 11.9958H101.969V16.2606H99.1665V3.28107H104.467ZM104.467 9.60392C105.063 9.60392 105.557 9.4185 105.949 9.04766C106.342 8.66445 106.538 8.19472 106.538 7.63846C106.538 7.06984 106.342 6.6001 105.949 6.22926C105.557 5.85842 105.063 5.67301 104.467 5.67301H101.969V9.60392H104.467ZM125.607 9.2887V10.29C125.607 12.1442 124.957 13.6461 123.657 14.7956C122.357 15.9453 120.679 16.5201 118.621 16.5201C116.427 16.5201 114.607 15.8711 113.158 14.5732C111.723 13.2628 111.005 11.6683 111.005 9.78934C111.005 7.89805 111.716 6.29726 113.138 4.98695C114.573 3.67664 116.346 3.02148 118.458 3.02148C119.785 3.02148 120.997 3.29962 122.093 3.85587C123.19 4.39978 124.043 5.1291 124.652 6.04385L122.256 7.3047C121.917 6.77317 121.403 6.34052 120.713 6.00675C120.036 5.67301 119.277 5.50613 118.438 5.50613C117.084 5.50613 115.967 5.91405 115.087 6.7299C114.221 7.53339 113.787 8.5532 113.787 9.78934C113.787 11.0131 114.227 12.0268 115.107 12.8302C116.001 13.6214 117.179 14.0169 118.641 14.0169C119.724 14.0169 120.618 13.8006 121.322 13.3679C122.039 12.923 122.527 12.3172 122.784 11.5509H118.479V9.2887H125.607ZM140.171 14.5732C138.736 15.8711 136.989 16.5201 134.932 16.5201C132.873 16.5201 131.127 15.8711 129.692 14.5732C128.27 13.2628 127.559 11.6621 127.559 9.7708C127.559 7.87951 128.27 6.28489 129.692 4.98695C131.127 3.67664 132.873 3.02148 134.932 3.02148C136.989 3.02148 138.736 3.67664 140.171 4.98695C141.606 6.28489 142.323 7.87951 142.323 9.7708C142.323 11.6621 141.606 13.2628 140.171 14.5732ZM131.662 12.8302C132.542 13.6214 133.632 14.0169 134.932 14.0169C136.231 14.0169 137.321 13.6214 138.201 12.8302C139.081 12.0268 139.521 11.007 139.521 9.7708C139.521 8.53467 139.081 7.51485 138.201 6.71136C137.321 5.90787 136.231 5.50613 134.932 5.50613C133.632 5.50613 132.542 5.90787 131.662 6.71136C130.782 7.51485 130.342 8.53467 130.342 9.7708C130.342 11.007 130.782 12.0268 131.662 12.8302Z" fill="black"/>
</g>
<path d="M53.0129 24.9964L51.21 19.5568H52.2591L53.8677 24.4758H53.347L55.0178 19.5568H55.9503L57.5744 24.4758H57.0693L58.7168 19.5568H59.6804L57.8775 24.9964H56.8051L55.3209 20.5592H55.6006L54.0931 24.9964H53.0129ZM62.0495 25.0508C61.5884 25.0508 61.1843 24.9602 60.8372 24.7788C60.4953 24.5923 60.2285 24.3385 60.0368 24.0173C59.8503 23.6961 59.757 23.3308 59.757 22.9216C59.757 22.5071 59.8477 22.1419 60.029 21.8259C60.2155 21.5047 60.4694 21.2534 60.7906 21.0721C61.1169 20.8908 61.4874 20.8001 61.9018 20.8001C62.3059 20.8001 62.6659 20.8882 62.982 21.0643C63.298 21.2405 63.5467 21.4891 63.728 21.8103C63.9093 22.1315 64 22.5097 64 22.9449C64 22.9863 63.9974 23.033 63.9922 23.0848C63.9922 23.1366 63.9896 23.1858 63.9844 23.2324H60.5263V22.5874H63.4715L63.0908 22.7895C63.0959 22.5512 63.0467 22.3414 62.9431 22.16C62.8395 21.9787 62.697 21.8362 62.5157 21.7326C62.3396 21.629 62.1349 21.5772 61.9018 21.5772C61.6635 21.5772 61.4537 21.629 61.2724 21.7326C61.0962 21.8362 60.9563 21.9813 60.8527 22.1678C60.7543 22.3491 60.7051 22.5641 60.7051 22.8128V22.9682C60.7051 23.2169 60.7621 23.4371 60.876 23.6287C60.99 23.8204 61.1506 23.9681 61.3578 24.0717C61.5651 24.1753 61.8034 24.2271 62.0728 24.2271C62.3059 24.2271 62.5157 24.1908 62.7022 24.1183C62.8887 24.0458 63.0545 23.9318 63.1995 23.7764L63.7202 24.3747C63.5337 24.5923 63.298 24.7607 63.013 24.8799C62.7333 24.9938 62.4121 25.0508 62.0495 25.0508ZM68.9845 25.0508C68.5493 25.0508 68.1608 24.9602 67.8189 24.7788C67.4821 24.5923 67.2179 24.3385 67.0262 24.0173C66.8346 23.6961 66.7387 23.3308 66.7387 22.9216C66.7387 22.5071 66.8346 22.1419 67.0262 21.8259C67.2179 21.5047 67.4821 21.2534 67.8189 21.0721C68.1608 20.8908 68.5493 20.8001 68.9845 20.8001C69.3886 20.8001 69.7435 20.883 70.0491 21.0488C70.36 21.2094 70.5957 21.4477 70.7563 21.7637L70.0103 22.1989C69.8859 22.002 69.7331 21.857 69.5518 21.7637C69.3757 21.6705 69.184 21.6238 68.9767 21.6238C68.7384 21.6238 68.5234 21.6756 68.3318 21.7793C68.1401 21.8829 67.9898 22.0331 67.881 22.23C67.7723 22.4217 67.7179 22.6522 67.7179 22.9216C67.7179 23.191 67.7723 23.4241 67.881 23.621C67.9898 23.8126 68.1401 23.9603 68.3318 24.0639C68.5234 24.1675 68.7384 24.2193 68.9767 24.2193C69.184 24.2193 69.3757 24.1727 69.5518 24.0794C69.7331 23.9862 69.8859 23.8411 70.0103 23.6443L70.7563 24.0794C70.5957 24.3903 70.36 24.6312 70.0491 24.8021C69.7435 24.9679 69.3886 25.0508 68.9845 25.0508ZM71.596 24.9964V20.8467H72.5207V21.9891L72.4119 21.6549C72.5363 21.3752 72.7305 21.1628 72.9947 21.0177C73.2641 20.8726 73.5983 20.8001 73.9972 20.8001V21.7249C73.9557 21.7145 73.9169 21.7093 73.8806 21.7093C73.8444 21.7041 73.8081 21.7015 73.7718 21.7015C73.404 21.7015 73.1113 21.8103 72.8937 22.0279C72.6761 22.2403 72.5673 22.5589 72.5673 22.9837V24.9964H71.596ZM76.7338 25.0508C76.2727 25.0508 75.8686 24.9602 75.5215 24.7788C75.1796 24.5923 74.9128 24.3385 74.7211 24.0173C74.5346 23.6961 74.4413 23.3308 74.4413 22.9216C74.4413 22.5071 74.532 22.1419 74.7133 21.8259C74.8998 21.5047 75.1537 21.2534 75.4749 21.0721C75.8013 20.8908 76.1717 20.8001 76.5861 20.8001C76.9902 20.8001 77.3503 20.8882 77.6663 21.0643C77.9823 21.2405 78.231 21.4891 78.4123 21.8103C78.5936 22.1315 78.6843 22.5097 78.6843 22.9449C78.6843 22.9863 78.6817 23.033 78.6765 23.0848C78.6765 23.1366 78.6739 23.1858 78.6687 23.2324H75.2107V22.5874H78.1559L77.7751 22.7895C77.7803 22.5512 77.731 22.3414 77.6274 22.16C77.5238 21.9787 77.3814 21.8362 77.2 21.7326C77.0239 21.629 76.8193 21.5772 76.5861 21.5772C76.3478 21.5772 76.138 21.629 75.9567 21.7326C75.7805 21.8362 75.6407 21.9813 75.537 22.1678C75.4386 22.3491 75.3894 22.5641 75.3894 22.8128V22.9682C75.3894 23.2169 75.4464 23.4371 75.5604 23.6287C75.6743 23.8204 75.8349 23.9681 76.0422 24.0717C76.2494 24.1753 76.4877 24.2271 76.7571 24.2271C76.9902 24.2271 77.2 24.1908 77.3865 24.1183C77.573 24.0458 77.7388 23.9318 77.8839 23.7764L78.4045 24.3747C78.218 24.5923 77.9823 24.7607 77.6974 24.8799C77.4176 24.9938 77.0964 25.0508 76.7338 25.0508ZM82.0601 24.9964V24.1572L82.0057 23.9784V22.5097C82.0057 22.2248 81.9203 22.0046 81.7493 21.8492C81.5783 21.6886 81.3193 21.6083 80.9722 21.6083C80.7391 21.6083 80.5085 21.6446 80.2806 21.7171C80.0578 21.7896 79.8687 21.8906 79.7133 22.0202L79.3325 21.313C79.5553 21.142 79.8195 21.0151 80.1252 20.9322C80.436 20.8442 80.7572 20.8001 81.0888 20.8001C81.6897 20.8001 82.1534 20.9452 82.4798 21.2353C82.8113 21.5202 82.9771 21.9632 82.9771 22.5641V24.9964H82.0601ZM80.7546 25.0508C80.4438 25.0508 80.1718 24.999 79.9387 24.8954C79.7055 24.7866 79.5242 24.639 79.3947 24.4525C79.2704 24.2608 79.2082 24.0458 79.2082 23.8075C79.2082 23.5743 79.2626 23.3645 79.3714 23.178C79.4854 22.9915 79.6693 22.8439 79.9231 22.7351C80.177 22.6263 80.5137 22.5719 80.9334 22.5719H82.1378V23.2169H81.0033C80.6717 23.2169 80.449 23.2713 80.335 23.3801C80.221 23.4837 80.164 23.6132 80.164 23.7686C80.164 23.9448 80.234 24.0846 80.3738 24.1882C80.5137 24.2919 80.708 24.3437 80.9567 24.3437C81.195 24.3437 81.4074 24.2893 81.5939 24.1805C81.7856 24.0717 81.9229 23.9111 82.0057 23.6987L82.1689 24.2815C82.0757 24.525 81.9073 24.7141 81.6638 24.8488C81.4255 24.9835 81.1224 25.0508 80.7546 25.0508ZM85.7857 25.0508C85.3298 25.0508 84.9775 24.9343 84.7288 24.7011C84.4802 24.4628 84.3558 24.1131 84.3558 23.652V19.9298H85.3272V23.6287C85.3272 23.8256 85.3764 23.9784 85.4749 24.0872C85.5785 24.196 85.7209 24.2504 85.9023 24.2504C86.1198 24.2504 86.3012 24.1934 86.4462 24.0794L86.7182 24.7711C86.6042 24.8643 86.4643 24.9343 86.2986 24.9809C86.1328 25.0275 85.9618 25.0508 85.7857 25.0508ZM83.672 21.6549V20.8778H86.4384V21.6549H83.672ZM89.3312 25.0508C88.8701 25.0508 88.466 24.9602 88.1189 24.7788C87.777 24.5923 87.5102 24.3385 87.3185 24.0173C87.132 23.6961 87.0388 23.3308 87.0388 22.9216C87.0388 22.5071 87.1294 22.1419 87.3107 21.8259C87.4972 21.5047 87.7511 21.2534 88.0723 21.0721C88.3987 20.8908 88.7691 20.8001 89.1835 20.8001C89.5876 20.8001 89.9477 20.8882 90.2637 21.0643C90.5797 21.2405 90.8284 21.4891 91.0097 21.8103C91.191 22.1315 91.2817 22.5097 91.2817 22.9449C91.2817 22.9863 91.2791 23.033 91.2739 23.0848C91.2739 23.1366 91.2713 23.1858 91.2661 23.2324H87.8081V22.5874H90.7533L90.3725 22.7895C90.3777 22.5512 90.3284 22.3414 90.2248 22.16C90.1212 21.9787 89.9788 21.8362 89.7974 21.7326C89.6213 21.629 89.4167 21.5772 89.1835 21.5772C88.9452 21.5772 88.7354 21.629 88.5541 21.7326C88.3779 21.8362 88.2381 21.9813 88.1345 22.1678C88.036 22.3491 87.9868 22.5641 87.9868 22.8128V22.9682C87.9868 23.2169 88.0438 23.4371 88.1578 23.6287C88.2717 23.8204 88.4323 23.9681 88.6396 24.0717C88.8468 24.1753 89.0851 24.2271 89.3545 24.2271C89.5876 24.2271 89.7974 24.1908 89.9839 24.1183C90.1704 24.0458 90.3362 23.9318 90.4813 23.7764L91.0019 24.3747C90.8154 24.5923 90.5797 24.7607 90.2948 24.8799C90.015 24.9938 89.6938 25.0508 89.3312 25.0508ZM99.6 20.8001C99.9315 20.8001 100.224 20.8649 100.478 20.9944C100.737 21.1239 100.939 21.3234 101.084 21.5928C101.229 21.857 101.302 22.1989 101.302 22.6185V24.9964H100.33V22.7428C100.33 22.375 100.25 22.1005 100.089 21.9191C99.9289 21.7378 99.6984 21.6471 99.3979 21.6471C99.1855 21.6471 98.9964 21.6938 98.8306 21.787C98.6701 21.8803 98.5431 22.0176 98.4499 22.1989C98.3618 22.3802 98.3178 22.6107 98.3178 22.8905V24.9964H97.3464V22.7428C97.3464 22.375 97.2661 22.1005 97.1055 21.9191C96.9449 21.7378 96.7144 21.6471 96.4139 21.6471C96.2015 21.6471 96.0124 21.6938 95.8466 21.787C95.686 21.8803 95.5591 22.0176 95.4658 22.1989C95.3778 22.3802 95.3337 22.6107 95.3337 22.8905V24.9964H94.3624V20.8467H95.2871V21.9502L95.1239 21.6238C95.2638 21.3544 95.4658 21.1498 95.73 21.0099C95.9994 20.8701 96.3051 20.8001 96.647 20.8001C97.0356 20.8001 97.3723 20.896 97.6572 21.0876C97.9474 21.2793 98.139 21.5694 98.2323 21.958L97.8515 21.8259C97.9862 21.515 98.209 21.2664 98.5198 21.0799C98.8306 20.8934 99.1907 20.8001 99.6 20.8001ZM105.1 24.9964V24.1572L105.045 23.9784V22.5097C105.045 22.2248 104.96 22.0046 104.789 21.8492C104.618 21.6886 104.359 21.6083 104.012 21.6083C103.778 21.6083 103.548 21.6446 103.32 21.7171C103.097 21.7896 102.908 21.8906 102.753 22.0202L102.372 21.313C102.595 21.142 102.859 21.0151 103.165 20.9322C103.475 20.8442 103.797 20.8001 104.128 20.8001C104.729 20.8001 105.193 20.9452 105.519 21.2353C105.851 21.5202 106.016 21.9632 106.016 22.5641V24.9964H105.1ZM103.794 25.0508C103.483 25.0508 103.211 24.999 102.978 24.8954C102.745 24.7866 102.564 24.639 102.434 24.4525C102.31 24.2608 102.248 24.0458 102.248 23.8075C102.248 23.5743 102.302 23.3645 102.411 23.178C102.525 22.9915 102.709 22.8439 102.963 22.7351C103.216 22.6263 103.553 22.5719 103.973 22.5719H105.177V23.2169H104.043C103.711 23.2169 103.488 23.2713 103.374 23.3801C103.26 23.4837 103.203 23.6132 103.203 23.7686C103.203 23.9448 103.273 24.0846 103.413 24.1882C103.553 24.2919 103.747 24.3437 103.996 24.3437C104.234 24.3437 104.447 24.2893 104.633 24.1805C104.825 24.0717 104.962 23.9111 105.045 23.6987L105.208 24.2815C105.115 24.525 104.947 24.7141 104.703 24.8488C104.465 24.9835 104.162 25.0508 103.794 25.0508ZM108.545 25.0508C108.198 25.0508 107.864 25.0068 107.543 24.9187C107.227 24.8255 106.976 24.7141 106.789 24.5846L107.162 23.8463C107.349 23.9655 107.571 24.0639 107.83 24.1416C108.089 24.2193 108.348 24.2582 108.607 24.2582C108.913 24.2582 109.133 24.2167 109.268 24.1338C109.408 24.051 109.478 23.9396 109.478 23.7997C109.478 23.6857 109.431 23.6002 109.338 23.5433C109.245 23.4811 109.123 23.4345 108.973 23.4034C108.822 23.3723 108.654 23.3438 108.468 23.3179C108.286 23.292 108.102 23.2583 107.916 23.2169C107.735 23.1703 107.569 23.1055 107.419 23.0226C107.268 22.9345 107.147 22.818 107.053 22.6729C106.96 22.5279 106.913 22.3362 106.913 22.0979C106.913 21.8337 106.989 21.6057 107.139 21.414C107.289 21.2172 107.499 21.0669 107.768 20.9633C108.043 20.8545 108.367 20.8001 108.74 20.8001C109.019 20.8001 109.302 20.8312 109.587 20.8934C109.872 20.9555 110.107 21.0436 110.294 21.1576L109.921 21.8958C109.724 21.7767 109.524 21.6964 109.322 21.6549C109.126 21.6083 108.929 21.585 108.732 21.585C108.437 21.585 108.216 21.629 108.071 21.7171C107.931 21.8052 107.861 21.9165 107.861 22.0512C107.861 22.1756 107.908 22.2688 108.001 22.331C108.095 22.3932 108.216 22.4424 108.367 22.4786C108.517 22.5149 108.683 22.546 108.864 22.5719C109.05 22.5926 109.234 22.6263 109.416 22.6729C109.597 22.7195 109.763 22.7843 109.913 22.8672C110.068 22.9449 110.193 23.0563 110.286 23.2013C110.379 23.3464 110.426 23.5355 110.426 23.7686C110.426 24.0276 110.348 24.253 110.193 24.4447C110.043 24.6364 109.828 24.7866 109.548 24.8954C109.268 24.999 108.934 25.0508 108.545 25.0508ZM112.824 25.0508C112.368 25.0508 112.016 24.9343 111.768 24.7011C111.519 24.4628 111.395 24.1131 111.395 23.652V19.9298H112.366V23.6287C112.366 23.8256 112.415 23.9784 112.514 24.0872C112.617 24.196 112.76 24.2504 112.941 24.2504C113.159 24.2504 113.34 24.1934 113.485 24.0794L113.757 24.7711C113.643 24.8643 113.503 24.9343 113.337 24.9809C113.171 25.0275 113.001 25.0508 112.824 25.0508ZM110.711 21.6549V20.8778H113.477V21.6549H110.711ZM116.37 25.0508C115.909 25.0508 115.505 24.9602 115.158 24.7788C114.816 24.5923 114.549 24.3385 114.357 24.0173C114.171 23.6961 114.077 23.3308 114.077 22.9216C114.077 22.5071 114.168 22.1419 114.349 21.8259C114.536 21.5047 114.79 21.2534 115.111 21.0721C115.437 20.8908 115.808 20.8001 116.222 20.8001C116.626 20.8001 116.986 20.8882 117.302 21.0643C117.618 21.2405 117.867 21.4891 118.048 21.8103C118.23 22.1315 118.32 22.5097 118.32 22.9449C118.32 22.9863 118.318 23.033 118.313 23.0848C118.313 23.1366 118.31 23.1858 118.305 23.2324H114.847V22.5874H117.792L117.411 22.7895C117.416 22.5512 117.367 22.3414 117.264 22.16C117.16 21.9787 117.017 21.8362 116.836 21.7326C116.66 21.629 116.455 21.5772 116.222 21.5772C115.984 21.5772 115.774 21.629 115.593 21.7326C115.417 21.8362 115.277 21.9813 115.173 22.1678C115.075 22.3491 115.025 22.5641 115.025 22.8128V22.9682C115.025 23.2169 115.082 23.4371 115.196 23.6287C115.31 23.8204 115.471 23.9681 115.678 24.0717C115.885 24.1753 116.124 24.2271 116.393 24.2271C116.626 24.2271 116.836 24.1908 117.023 24.1183C117.209 24.0458 117.375 23.9318 117.52 23.7764L118.041 24.3747C117.854 24.5923 117.618 24.7607 117.333 24.8799C117.054 24.9938 116.733 25.0508 116.37 25.0508ZM119.253 24.9964V20.8467H120.178V21.9891L120.069 21.6549C120.194 21.3752 120.388 21.1628 120.652 21.0177C120.922 20.8726 121.256 20.8001 121.655 20.8001V21.7249C121.613 21.7145 121.574 21.7093 121.538 21.7093C121.502 21.7041 121.466 21.7015 121.429 21.7015C121.061 21.7015 120.769 21.8103 120.551 22.0279C120.334 22.2403 120.225 22.5589 120.225 22.9837V24.9964H119.253ZM124.779 25.0508C124.442 25.0508 124.134 24.9731 123.854 24.8177C123.58 24.6623 123.359 24.4291 123.194 24.1183C123.033 23.8023 122.953 23.4034 122.953 22.9216C122.953 22.4346 123.03 22.0357 123.186 21.7249C123.346 21.414 123.564 21.1835 123.839 21.0332C124.113 20.8778 124.427 20.8001 124.779 20.8001C125.188 20.8001 125.548 20.8882 125.859 21.0643C126.175 21.2405 126.424 21.4865 126.605 21.8026C126.792 22.1186 126.885 22.4916 126.885 22.9216C126.885 23.3516 126.792 23.7272 126.605 24.0484C126.424 24.3644 126.175 24.6105 125.859 24.7866C125.548 24.9627 125.188 25.0508 124.779 25.0508ZM122.479 26.504V20.8467H123.403V21.8259L123.372 22.9294L123.45 24.0328V26.504H122.479ZM124.67 24.2193C124.903 24.2193 125.11 24.1675 125.292 24.0639C125.478 23.9603 125.626 23.8101 125.735 23.6132C125.843 23.4163 125.898 23.1858 125.898 22.9216C125.898 22.6522 125.843 22.4217 125.735 22.23C125.626 22.0331 125.478 21.8829 125.292 21.7793C125.11 21.6756 124.903 21.6238 124.67 21.6238C124.437 21.6238 124.227 21.6756 124.041 21.7793C123.854 21.8829 123.706 22.0331 123.598 22.23C123.489 22.4217 123.434 22.6522 123.434 22.9216C123.434 23.1858 123.489 23.4163 123.598 23.6132C123.706 23.8101 123.854 23.9603 124.041 24.0639C124.227 24.1675 124.437 24.2193 124.67 24.2193ZM127.806 24.9964V20.8467H128.777V24.9964H127.806ZM128.296 20.1629C128.114 20.1629 127.964 20.1059 127.845 19.9919C127.731 19.878 127.674 19.7407 127.674 19.5801C127.674 19.4143 127.731 19.277 127.845 19.1682C127.964 19.0542 128.114 18.9973 128.296 18.9973C128.477 18.9973 128.625 19.0517 128.739 19.1605C128.858 19.2641 128.917 19.3962 128.917 19.5568C128.917 19.7277 128.86 19.8728 128.746 19.9919C128.632 20.1059 128.482 20.1629 128.296 20.1629ZM132.003 25.0508C131.542 25.0508 131.138 24.9602 130.791 24.7788C130.449 24.5923 130.182 24.3385 129.99 24.0173C129.804 23.6961 129.71 23.3308 129.71 22.9216C129.71 22.5071 129.801 22.1419 129.982 21.8259C130.169 21.5047 130.423 21.2534 130.744 21.0721C131.07 20.8908 131.441 20.8001 131.855 20.8001C132.259 20.8001 132.619 20.8882 132.935 21.0643C133.251 21.2405 133.5 21.4891 133.681 21.8103C133.863 22.1315 133.953 22.5097 133.953 22.9449C133.953 22.9863 133.951 23.033 133.946 23.0848C133.946 23.1366 133.943 23.1858 133.938 23.2324H130.48V22.5874H133.425L133.044 22.7895C133.049 22.5512 133 22.3414 132.896 22.16C132.793 21.9787 132.65 21.8362 132.469 21.7326C132.293 21.629 132.088 21.5772 131.855 21.5772C131.617 21.5772 131.407 21.629 131.226 21.7326C131.05 21.8362 130.91 21.9813 130.806 22.1678C130.708 22.3491 130.658 22.5641 130.658 22.8128V22.9682C130.658 23.2169 130.715 23.4371 130.829 23.6287C130.943 23.8204 131.104 23.9681 131.311 24.0717C131.518 24.1753 131.757 24.2271 132.026 24.2271C132.259 24.2271 132.469 24.1908 132.656 24.1183C132.842 24.0458 133.008 23.9318 133.153 23.7764L133.674 24.3747C133.487 24.5923 133.251 24.7607 132.966 24.8799C132.687 24.9938 132.365 25.0508 132.003 25.0508ZM136.79 25.0508C136.355 25.0508 135.966 24.9602 135.625 24.7788C135.288 24.5923 135.024 24.3385 134.832 24.0173C134.64 23.6961 134.544 23.3308 134.544 22.9216C134.544 22.5071 134.64 22.1419 134.832 21.8259C135.024 21.5047 135.288 21.2534 135.625 21.0721C135.966 20.8908 136.355 20.8001 136.79 20.8001C137.194 20.8001 137.549 20.883 137.855 21.0488C138.166 21.2094 138.401 21.4477 138.562 21.7637L137.816 22.1989C137.692 22.002 137.539 21.857 137.357 21.7637C137.181 21.6705 136.99 21.6238 136.782 21.6238C136.544 21.6238 136.329 21.6756 136.137 21.7793C135.946 21.8829 135.796 22.0331 135.687 22.23C135.578 22.4217 135.524 22.6522 135.524 22.9216C135.524 23.191 135.578 23.4241 135.687 23.621C135.796 23.8126 135.946 23.9603 136.137 24.0639C136.329 24.1675 136.544 24.2193 136.782 24.2193C136.99 24.2193 137.181 24.1727 137.357 24.0794C137.539 23.9862 137.692 23.8411 137.816 23.6443L138.562 24.0794C138.401 24.3903 138.166 24.6312 137.855 24.8021C137.549 24.9679 137.194 25.0508 136.79 25.0508ZM141.291 25.0508C140.83 25.0508 140.426 24.9602 140.079 24.7788C139.737 24.5923 139.47 24.3385 139.279 24.0173C139.092 23.6961 138.999 23.3308 138.999 22.9216C138.999 22.5071 139.09 22.1419 139.271 21.8259C139.458 21.5047 139.711 21.2534 140.033 21.0721C140.359 20.8908 140.729 20.8001 141.144 20.8001C141.548 20.8001 141.908 20.8882 142.224 21.0643C142.54 21.2405 142.789 21.4891 142.97 21.8103C143.151 22.1315 143.242 22.5097 143.242 22.9449C143.242 22.9863 143.239 23.033 143.234 23.0848C143.234 23.1366 143.232 23.1858 143.226 23.2324H139.768V22.5874H142.714L142.333 22.7895C142.338 22.5512 142.289 22.3414 142.185 22.16C142.082 21.9787 141.939 21.8362 141.758 21.7326C141.582 21.629 141.377 21.5772 141.144 21.5772C140.906 21.5772 140.696 21.629 140.514 21.7326C140.338 21.8362 140.198 21.9813 140.095 22.1678C139.996 22.3491 139.947 22.5641 139.947 22.8128V22.9682C139.947 23.2169 140.004 23.4371 140.118 23.6287C140.232 23.8204 140.393 23.9681 140.6 24.0717C140.807 24.1753 141.045 24.2271 141.315 24.2271C141.548 24.2271 141.758 24.1908 141.944 24.1183C142.131 24.0458 142.297 23.9318 142.442 23.7764L142.962 24.3747C142.776 24.5923 142.54 24.7607 142.255 24.8799C141.975 24.9938 141.654 25.0508 141.291 25.0508Z" fill="#736D6E"/>
</g>
<defs>
<linearGradient id="paint0_linear_4220_38433" x1="22.4604" y1="27.5525" x2="22.4604" y2="-1.91462" gradientUnits="userSpaceOnUse">
<stop stop-color="#1925FF"/>
<stop offset="1" stop-color="#1925FF"/>
</linearGradient>
<clipPath id="clip0_4220_38433">
<rect width="144" height="28" fill="white"/>
</clipPath>
</defs>
</svg>
