<svg width="68" height="68" viewBox="0 0 68 68" fill="none" xmlns="http://www.w3.org/2000/svg">
<g id="code 1" clip-path="url(#clip0_148_149)">
<path id="Vector" d="M51.0266 -0.0532227H16.9734C7.56985 -0.0532227 -0.0532227 7.56985 -0.0532227 16.9734V51.0266C-0.0532227 60.4301 7.56985 68.0532 16.9734 68.0532H51.0266C60.4301 68.0532 68.0532 60.4301 68.0532 51.0266V16.9734C68.0532 7.56985 60.4301 -0.0532227 51.0266 -0.0532227Z" fill="url(#paint0_linear_148_149)"/>
<g id="Group" opacity="0.9">
<path id="Vector_2" d="M23.784 43.3646C23.4486 43.3648 23.1164 43.2988 22.8064 43.1706C22.4964 43.0423 22.2148 42.8543 21.9775 42.6171L15.1668 35.8065C14.9295 35.5693 14.7412 35.2877 14.6128 34.9777C14.4843 34.6677 14.4182 34.3355 14.4182 34C14.4182 33.6644 14.4843 33.3322 14.6128 33.0222C14.7412 32.7123 14.9295 32.4306 15.1668 32.1934L21.9775 25.3828C22.4566 24.9037 23.1064 24.6345 23.784 24.6345C24.4616 24.6345 25.1114 24.9037 25.5905 25.3828C26.0696 25.8619 26.3388 26.5118 26.3388 27.1893C26.3388 27.8669 26.0696 28.5167 25.5905 28.9959L20.5847 34L25.5905 39.0041C25.9479 39.3613 26.1914 39.8165 26.29 40.312C26.3887 40.8076 26.3381 41.3213 26.1447 41.7881C25.9513 42.255 25.6237 42.6539 25.2035 42.9345C24.7833 43.2152 24.2893 43.3648 23.784 43.3646Z" fill="white"/>
</g>
<g id="Group_2" opacity="0.9">
<path id="Vector_3" d="M44.216 43.3646C43.7107 43.3648 43.2167 43.2152 42.7965 42.9345C42.3763 42.6539 42.0488 42.255 41.8554 41.7881C41.662 41.3213 41.6114 40.8076 41.71 40.312C41.8087 39.8165 42.0521 39.3613 42.4095 39.0041L47.4153 34L42.4095 28.9959C42.1723 28.7586 41.9841 28.477 41.8557 28.167C41.7273 27.857 41.6612 27.5248 41.6612 27.1893C41.6612 26.8538 41.7273 26.5216 41.8557 26.2116C41.9841 25.9017 42.1723 25.62 42.4095 25.3828C42.8886 24.9037 43.5385 24.6345 44.216 24.6345C44.5515 24.6345 44.8838 24.7006 45.1937 24.829C45.5037 24.9574 45.7853 25.1456 46.0226 25.3828L52.8332 32.1934C53.0705 32.4306 53.2588 32.7123 53.3873 33.0222C53.5157 33.3322 53.5818 33.6644 53.5818 34C53.5818 34.3355 53.5157 34.6677 53.3873 34.9777C53.2588 35.2877 53.0705 35.5693 52.8332 35.8065L46.0226 42.6171C45.7853 42.8543 45.5036 43.0423 45.1937 43.1706C44.8837 43.2988 44.5515 43.3648 44.216 43.3646Z" fill="white"/>
</g>
<g id="Group_3" opacity="0.5">
<path id="Vector_4" d="M30.5946 48.4726C30.3568 48.4723 30.1201 48.4391 29.8914 48.3739C29.2403 48.1877 28.6898 47.7506 28.361 47.1586C28.0321 46.5667 27.9518 45.8683 28.1377 45.2171L34.9483 21.3799C35.0351 21.0515 35.1866 20.7437 35.3938 20.4746C35.601 20.2054 35.8598 19.9803 36.155 19.8124C36.4503 19.6445 36.7761 19.5371 37.1134 19.4967C37.4506 19.4562 37.7926 19.4835 38.1192 19.5768C38.4458 19.6701 38.7505 19.8276 39.0155 20.0401C39.2804 20.2527 39.5004 20.5159 39.6624 20.8145C39.8244 21.113 39.9252 21.4409 39.9589 21.7789C39.9926 22.1169 39.9586 22.4582 39.8588 22.7829L33.0482 46.6201C32.8958 47.1535 32.574 47.6227 32.1313 47.9569C31.6887 48.2911 31.1493 48.4722 30.5946 48.4726Z" fill="white"/>
</g>
</g>
<defs>
<linearGradient id="paint0_linear_148_149" x1="7.79434" y1="7.79434" x2="62.2965" y2="62.2965" gradientUnits="userSpaceOnUse">
<stop stop-color="#9B8DFF"/>
<stop offset="0.252" stop-color="#7D79FD"/>
<stop offset="0.555" stop-color="#5F65FB"/>
<stop offset="0.815" stop-color="#4D58F9"/>
<stop offset="1" stop-color="#4654F9"/>
</linearGradient>
<clipPath id="clip0_148_149">
<rect width="68" height="68" fill="white"/>
</clipPath>
</defs>
</svg>
