<svg xmlns="http://www.w3.org/2000/svg" width="34" height="32" viewBox="0 0 34 32" fill="none">
  <path d="M32.9755 15.0563C32.4315 5.77659 23.9997 -1.37525 14.2879 0.224716C7.6 1.32869 2.24011 6.75255 1.20013 13.4404C0.592143 17.3123 1.39216 20.9762 3.13612 24.0002L1.71214 29.2961C1.39214 30.496 2.49609 31.584 3.68006 31.248L8.89598 29.808C11.2639 31.2 14.0319 32 16.9918 32C26.0156 32 33.5035 24.0482 32.9755 15.0563ZM24.8157 21.9522C24.6717 22.2402 24.4957 22.5122 24.2717 22.7682C23.8717 23.2002 23.4397 23.5202 22.9597 23.7122C22.4797 23.9202 21.9517 24.0162 21.3917 24.0162C20.5758 24.0162 19.6958 23.8243 18.7838 23.4243C17.8558 23.0243 16.9438 22.4962 16.0318 21.8402C15.1039 21.1682 14.2399 20.4162 13.4079 19.6002C12.5759 18.7683 11.8399 17.8883 11.1679 16.9763C10.5119 16.0643 9.98395 15.1523 9.59996 14.2404C9.21597 13.3284 9.024 12.4485 9.024 11.6165C9.024 11.0725 9.11999 10.5445 9.31198 10.0645C9.50398 9.56851 9.808 9.12054 10.24 8.72054C10.752 8.20856 11.3119 7.96856 11.9039 7.96856C12.1279 7.96856 12.3519 8.01654 12.5599 8.11254C12.7679 8.20854 12.9599 8.35254 13.1039 8.56053L14.9599 11.1845C15.1039 11.3925 15.2159 11.5685 15.2799 11.7445C15.3599 11.9204 15.3919 12.0804 15.3919 12.2404C15.3919 12.4324 15.3279 12.6245 15.2159 12.8164C15.1039 13.0084 14.9599 13.2004 14.7679 13.3924L14.1599 14.0324C14.0639 14.1284 14.0319 14.2244 14.0319 14.3524C14.0319 14.4164 14.0479 14.4803 14.0639 14.5443C14.0959 14.6083 14.1119 14.6563 14.1279 14.7043C14.2719 14.9763 14.5279 15.3123 14.8799 15.7283C15.2479 16.1443 15.6319 16.5763 16.0478 16.9923C16.4798 17.4243 16.8958 17.8083 17.3278 18.1763C17.7438 18.5283 18.0958 18.7683 18.3678 18.9123C18.4158 18.9283 18.4638 18.9603 18.5118 18.9763C18.5758 19.0083 18.6398 19.0083 18.7198 19.0083C18.8638 19.0083 18.9598 18.9603 19.0558 18.8643L19.6638 18.2563C19.8718 18.0483 20.0638 17.9043 20.2398 17.8083C20.4318 17.6963 20.6078 17.6323 20.8158 17.6323C20.9757 17.6323 21.1357 17.6643 21.3117 17.7443C21.4877 17.8243 21.6797 17.9203 21.8717 18.0643L24.5277 19.9522C24.7357 20.0962 24.8797 20.2722 24.9757 20.4642C25.0557 20.6722 25.1037 20.8642 25.1037 21.0882C25.0077 21.3602 24.9437 21.6642 24.8157 21.9522Z" fill="#19C940"/>
</svg>