<svg xmlns="http://www.w3.org/2000/svg" width="20" height="20" viewBox="0 0 20 20" fill="none">
  <g clip-path="url(#clip0_26_27519)">
    <path d="M19.5788 5.18568C19.465 4.76286 19.2421 4.37734 18.9325 4.06772C18.6229 3.7581 18.2373 3.53523 17.8145 3.42142C16.2574 3 10.0004 3 10.0004 3C10.0004 3 3.74333 3 2.18621 3.42142C1.76339 3.53523 1.37788 3.7581 1.06826 4.06772C0.758637 4.37734 0.535769 4.76286 0.421959 5.18568C0.131211 6.7737 -0.00988161 8.3855 0.000537443 9.99988C-0.00988161 11.6143 0.131211 13.2261 0.421959 14.8141C0.535769 15.2369 0.758637 15.6224 1.06826 15.932C1.37788 16.2417 1.76339 16.4645 2.18621 16.5783C3.74333 16.9998 10.0004 16.9998 10.0004 16.9998C10.0004 16.9998 16.2574 16.9998 17.8145 16.5783C18.2373 16.4645 18.6229 16.2417 18.9325 15.932C19.2421 15.6224 19.465 15.2369 19.5788 14.8141C19.8695 13.2261 20.0106 11.6143 20.0002 9.99988C20.0106 8.3855 19.8695 6.7737 19.5788 5.18568ZM8.0004 12.9998V6.99993L13.1932 9.99988L8.0004 12.9998Z" fill="white"/>
  </g>
  <defs>
    <clipPath id="clip0_26_27519">
      <rect width="20" height="20" fill="white"/>
    </clipPath>
  </defs>
</svg>